# Stanford bunny (bun_zipper), base holes closed
# quadric edge-collapse decimation to 2000 triangles, 1002 vertices
v 0.004496002 0.1272405 0.02957932
v -0.02302082 0.1115845 0.03889367
v -0.03408881 0.1724631 -0.00130613
v -0.04956392 0.1585837 0.008873538
v -0.01584175 0.1145619 0.03886303
v 0.04129032 0.1011093 -0.0008870061
v -0.04001787 0.1727221 -0.002021376
v 0.04160652 0.1026219 0.01615513
v -0.01007335 0.1301356 0.01342053
v -0.03066443 0.124841 0.0006568451
v -0.01120316 0.0455021 0.04901026
v 0.04020435 0.09512666 -0.007490121
v -0.03441538 0.1269069 0.004279564
v -0.04526389 0.04124448 0.04392819
v -0.04110251 0.04450398 0.04155847
v -0.0180751 0.04495633 0.05182051
v -0.04551369 0.1269656 0.02309235
v -0.05022077 0.04807402 0.03934771
v -0.02014483 0.0510215 0.04681108
v -0.001776316 0.04314354 0.0466251
v 0.001214928 0.05016708 0.05228399
v -0.02635444 0.1805451 -0.008309894
v -0.06514743 0.1550104 -0.006699318
v -0.06545655 0.1624968 -0.01831622
v -0.07345579 0.1475075 0.04188359
v 0.002542422 0.1163965 0.03992774
v -0.02558305 0.091831 -0.03259727
v -0.008341176 0.1232139 0.03422804
v -0.03620304 0.04750606 0.04042169
v -0.02386346 0.05483175 0.04194098
v -0.01618736 0.05380834 0.04996711
v 0.01886024 0.125081 0.02593726
v -0.04130605 0.05301261 0.03934458
v -0.00742271 0.0512082 0.05180223
v 0.04173862 0.0475622 0.0312307
v -0.06938906 0.157839 -0.004331405
v -0.05816063 0.1533483 0.02996103
v -0.009225743 0.05833839 0.05414828
v -0.04927456 0.1631677 0.005501023
v -0.07642061 0.09701033 -0.01231274
v -0.001372022 0.05583656 0.05423164
v -3.672356e-05 0.1224172 0.03547697
v 0.0403247 0.1052314 0.00249267
v 0.0406915 0.1057663 0.01026786
v -0.03390041 0.05516676 0.03796453
v 0.01338401 0.1300156 0.0119345
v -0.03682027 0.05989726 0.04028934
v 0.007778935 0.1313914 0.0152568
v -0.01547148 0.06066861 0.05258278
v 0.00669954 0.06059931 0.05478453
v -0.0007554804 0.09555958 0.05426289
v -0.02951612 0.0629032 0.0382005
v -0.002583264 0.06418171 0.05654793
v -0.003089292 0.1284715 0.02767177
v -0.0503725 0.06689316 0.0370157
v 0.01587694 0.1287724 0.01761082
v -0.01124924 0.0663865 0.05479926
v 0.02235496 0.1051196 -0.01717014
v -0.07433439 0.1148266 -0.006654384
v 0.002485323 0.06910069 0.05605341
v 0.01142014 0.06537343 0.05343181
v -0.01575984 0.06949088 0.05450501
v -0.07718067 0.1770407 -0.04859019
v 0.009735902 0.1010897 -0.02171585
v -0.009355363 0.1168541 0.03918889
v -0.08924359 0.09752523 0.01781186
v -0.02666156 0.06588638 0.04006966
v -0.0123696 0.07365628 0.05618566
v -0.02960855 0.08929443 -0.02949476
v -0.08020452 0.1265256 0.05248916
v -0.0418645 0.1289322 0.01196442
v -0.06339778 0.0645511 0.0293819
v -0.02916323 0.07483387 0.04155873
v -0.005212927 0.07078653 0.05747555
v 0.03337214 0.1156316 0.02098045
v 0.04554447 0.08993255 0.01134639
v -0.07479493 0.1559268 -0.002861763
v -0.05046302 0.07630449 0.04304999
v -0.04094585 0.07440965 0.04247711
v -0.02012869 0.07799418 0.05544189
v 0.001219475 0.07470447 0.05745446
v -0.004647715 0.1128479 0.04181579
v -0.06426206 0.1552653 0.007234032
v -0.03527511 0.0699533 0.04137249
v -0.03200013 0.1783642 -0.006788646
v 0.03791563 0.1058737 -0.002065489
v -0.068272 0.1585 -0.05298634
v -0.05886907 0.1554196 0.02023097
v -0.03844906 0.174476 -0.008561519
v -0.0677504 0.08234538 0.04236242
v -0.03281909 0.119026 0.02993164
v 0.03748244 0.1101454 0.003883853
v -0.01014157 0.127593 0.02686189
v -0.005191728 0.07984138 0.05789054
v -0.04462814 0.08048148 0.04250162
v -0.03559214 0.07977573 0.04238292
v 0.00476127 0.08006602 0.05624192
v -0.01623413 0.1606851 -0.01077141
v 0.02339733 0.1243001 0.0217455
v -0.0409806 0.167915 0.003012783
v 0.005914518 0.123044 -0.01090656
v 0.03813876 0.1086078 0.02082685
v 0.04299181 0.1003101 0.005806629
v -0.01455615 0.08181595 0.05735014
v 0.00780662 0.08605712 0.05605485
v 0.009768487 0.1178811 0.03720614
v -0.06777018 0.1604923 -0.01100768
v -0.07091779 0.1660664 -0.01895536
v -0.06101774 0.08211399 0.04371424
v -0.004249911 0.1310395 0.01157379
v -0.07510137 0.1237929 0.0529221
v -0.005753891 0.08791331 0.05690244
v 0.001265866 0.0857087 0.05714123
v 0.01771276 0.08722113 0.05044456
v -0.05107301 0.0827431 0.04490566
v -0.07223663 0.1558868 -0.03835918
v -0.0586119 0.0891062 0.044914
v 0.02305468 0.08911497 0.04808139
v -0.03224349 0.08824671 0.04333007
v -0.02754455 0.08780865 0.04747278
v 0.02293608 0.1253786 0.01499768
v -0.01722842 0.08825496 0.05635108
v -0.05468713 0.09074565 0.0451503
v -0.04961632 0.09173639 0.0441567
v -0.03984843 0.08732292 0.04321131
v -0.06327386 0.09764448 0.04296421
v -0.04522428 0.09477906 0.04327217
v -0.01177535 0.09272571 0.05565833
v -0.007551814 0.0955487 0.05449118
v -0.02323223 0.1171523 0.03406096
v -0.07615845 0.1406558 0.04769649
v -0.03657036 0.09665191 0.04332485
v 0.003439881 0.09465542 0.05384798
v 0.02069213 0.09319432 0.04757974
v -0.0667593 0.09331544 0.04301737
v 0.008921426 0.0992978 0.04816022
v 0.01582061 0.1001949 0.04714529
v -0.03090778 0.09896488 0.0438234
v 0.05438728 0.06405161 0.0270419
v -0.02707808 0.09535992 0.04472296
v -0.06447898 0.1670113 -0.05956523
v -0.07590291 0.07054095 0.02549386
v 0.0449628 0.08767347 0.02083681
v -0.04872788 0.09233137 -0.02175165
v -0.09000484 0.1219499 0.004336619
v 0.001252372 0.1017221 0.04503662
v 0.02842368 0.1209142 0.0194386
v -0.02245305 0.1267218 0.00716339
v -0.05247386 0.09995841 0.04255945
v -0.04048403 0.1002875 0.04148164
v -0.01093835 0.1013247 0.0440665
v 0.0009753857 0.1313464 0.01725599
v -0.06785892 0.1053526 0.03903391
v -0.0625062 0.1491519 -0.0057414
v -0.06590538 0.154261 0.001008301
v -0.05970485 0.1009503 0.04243463
v -0.02145681 0.1011465 0.04380442
v 0.009121416 0.1057017 0.04287857
v -0.03572161 0.1058825 0.03915478
v -0.01155925 0.1076278 0.04305306
v -0.03854308 0.1173769 0.03183112
v -0.06128848 0.1105984 0.037269
v -0.05762461 0.1062962 0.04030666
v -0.04835957 0.1035062 0.04110194
v -0.02880682 0.1056874 0.04072781
v -0.01925568 0.1073299 0.04185836
v 0.01952574 0.1061419 0.04171674
v 0.00271113 0.1098562 0.04219824
v -0.04363453 0.1105402 0.03754516
v -0.03017429 0.1118681 0.03621287
v 0.01017529 0.1113338 0.0398194
v 0.01878888 0.1111242 0.03836603
v 0.0147859 0.1280967 0.02335647
v -0.05127488 0.1093974 0.03819252
v -0.04267426 0.09264795 -0.0226962
v -0.06336113 0.08413676 -0.01917179
v 0.02900884 0.1181595 0.02672715
v -0.01404007 0.03709 0.0507514
v 0.01996952 0.03945785 0.04193315
v 0.005495394 0.04278459 0.04566018
v -0.02402904 0.03936689 0.05407116
v 0.02345706 0.1211387 0.02909652
v 0.01125573 0.04219543 0.04477501
v 0.01677441 0.04517118 0.04346667
v 0.02449628 0.04244208 0.03874583
v 0.0304977 0.04244608 0.02990382
v -0.02924527 0.1641485 -0.005641215
v -0.06655442 0.1226488 0.05083804
v 0.02540076 0.11517 0.03331145
v -0.03115307 0.1710047 -0.00581227
v 0.04600748 0.04483247 0.02527097
v -0.04899255 0.1492043 0.0107555
v 0.03216071 0.1055112 0.03417647
v 0.02878914 0.04765524 0.03605819
v 0.03429816 0.04920816 0.03176052
v 0.05122691 0.05046756 0.02634699
v 0.01765572 0.05199408 0.04634758
v 0.02143999 0.04844762 0.04132468
v -0.05692294 0.1181084 0.03815574
v 0.05789976 0.05359663 0.01912975
v -0.03040963 0.1586205 0.001336429
v -0.05175938 0.1328022 0.03102513
v 0.009540439 0.05022927 0.05022602
v -0.05288105 0.1440331 0.02144238
v 0.04697701 0.05411356 0.03148556
v 0.05399375 0.05528179 0.02706564
v -0.05793035 0.04792333 0.03733085
v 0.04068117 0.09266194 0.03001577
v -0.04756607 0.1553832 0.009154977
v 0.02702353 0.05403256 0.04039506
v 0.03049972 0.111925 0.03194094
v -0.03940662 0.1574153 0.004914717
v 0.01619724 0.05782653 0.04947865
v 0.02375222 0.05945008 0.04559886
v 0.03466101 0.05725209 0.03618439
v -0.0282729 0.1727887 -0.008299636
v -0.06057518 0.1368074 0.03576238
v 0.04136127 0.05875108 0.03116182
v -0.06849365 0.1418719 0.04447885
v 0.02942915 0.06098165 0.04190632
v -0.05500829 0.14117 0.02943209
v 0.03432384 0.06176534 0.03883785
v 0.02156966 0.06496871 0.04724408
v 0.0390111 0.06486589 0.03355006
v -0.00527818 0.09964307 0.04934854
v -0.04371991 0.150028 0.006574341
v 0.03447976 0.09586762 0.03789544
v 0.04733448 0.06311373 0.02944589
v -0.00293992 0.1055532 0.04392616
v 0.02986528 0.06558301 0.04194508
v 0.01718331 0.1211447 0.03291795
v -0.05417839 0.1164112 0.03520688
v 0.01832493 0.07234286 0.05126514
v 0.02543921 0.06876384 0.04457041
v -0.06645036 0.1117138 0.03984766
v 0.03844213 0.06827665 0.03481258
v -0.03406143 0.1648604 -0.003370752
v 0.02737319 0.1025424 0.03989291
v -0.03787554 0.1624015 0.0002044981
v 0.03446473 0.06748259 0.03894644
v -0.07185532 0.1350833 0.04935875
v 0.01718796 0.1151368 0.03690182
v 0.01602203 0.06783894 0.05166744
v 0.04051359 0.07172306 0.03169958
v 0.0444304 0.0687956 0.02618112
v -0.04581496 0.1158412 0.03284257
v 0.02246982 0.07182373 0.04863094
v 0.03189865 0.07067909 0.04071555
v 0.04259178 0.07605602 0.02835331
v 0.025805 0.109802 0.03704972
v 0.03729771 0.07248794 0.03621908
v 0.04193316 0.09898225 0.02278429
v 0.02789316 0.07541914 0.04490921
v -0.07185733 0.1290893 0.05154223
v 0.008943798 0.07414802 0.05572441
v 0.02875234 0.08208141 0.04482238
v 0.03819596 0.07751918 0.03557588
v 0.03788655 0.09878682 0.0315128
v -0.0585027 0.1468775 0.03378654
v -0.01711554 0.1656504 -0.01197344
v -0.06443627 0.1286381 0.04471173
v 0.009807198 0.1236028 0.03360537
v 0.04319132 0.09309279 0.02467393
v 0.01251713 0.07810446 0.05448474
v 0.03461555 0.08043616 0.03999692
v -0.04936879 0.143018 0.008932829
v -0.02096656 0.180703 -0.01442714
v -0.06348831 0.1667606 -0.03964004
v -0.06018783 0.1270367 0.04084158
v -0.08001102 0.1180004 0.04945791
v 0.01711095 0.07939642 0.05299971
v 0.02211481 0.08012547 0.05015956
v -0.05055616 0.1224329 0.03306289
v -0.02525023 0.1590405 -0.001613611
v -0.05520792 0.127785 0.03728253
v 0.04392213 0.08397399 0.02588744
v -0.0187672 0.1614614 -0.006323119
v 0.02224917 0.1011821 0.04419527
v -0.0155988 0.1716918 -0.01729903
v -0.06302598 0.1191202 0.04521778
v 0.03297379 0.08840978 0.04151641
v 0.04185481 0.08407564 0.02998432
v -0.04302736 0.1614702 0.005248676
v -0.01555105 0.1825506 -0.02087035
v -0.05379179 0.1540167 0.01360015
v 0.03478491 0.110279 0.02762644
v 0.01297858 0.08685257 0.0533151
v -0.06521805 0.1362694 0.04124275
v 0.03852261 0.08666007 0.03506677
v 0.02762012 0.09332165 0.04417625
v 0.01009526 0.09238799 0.05281812
v -0.0237262 0.1677229 -0.01090613
v -0.02242956 0.1753504 -0.01360975
v 0.04403099 0.09626722 0.01631704
v -0.01512097 0.1771696 -0.02000018
v -0.0701251 0.1473104 -0.02878888
v 0.02035951 0.03975142 -0.01279651
v 0.02116171 0.03660949 0.03519634
v 0.04321732 0.04042373 0.005776605
v -0.01111993 0.1667734 -0.01798765
v 0.05359775 0.04679289 0.01285248
v -0.01070129 0.1765373 -0.02891376
v 0.05131001 0.04615875 0.005126151
v -0.06176386 0.1562683 -0.03014632
v -0.01026591 0.1704798 -0.02410008
v -0.03653908 0.1526251 0.00195831
v 0.05629108 0.05158355 0.005112888
v 0.02167416 0.04823003 -0.02149276
v -0.08719688 0.1128783 0.02564703
v 0.05858271 0.05398772 0.01018973
v 0.02714347 0.04820458 -0.01692469
v 0.03093343 0.05245157 -0.01328665
v -0.05053233 0.1348691 0.02648849
v -0.07925512 0.1019268 -0.007816833
v 0.03526851 0.05703408 -0.01064408
v 0.04374162 0.08881261 -0.003528206
v 0.02660873 0.053967 -0.02075015
v -0.08214324 0.1398332 -0.00058057
v -0.0702485 0.06368529 0.02049077
v 0.05984887 0.06087447 0.0191226
v -0.04829985 0.1342785 0.02167078
v 0.03981958 0.0598579 -0.005283968
v 0.02566529 0.06092871 -0.02354763
v -0.06247342 0.1677482 -0.04824168
v -0.06223626 0.1579002 -0.0364227
v 0.06061072 0.06082219 0.0100165
v 0.03545164 0.06305933 -0.01427513
v -0.09430406 0.12194 0.02120884
v -0.06160221 0.156039 -0.02369654
v -0.06342964 0.1729513 -0.05154384
v 0.05891834 0.06537872 0.02161448
v 0.0581583 0.05971133 0.003187705
v 0.02878944 0.0588311 -0.01951443
v 0.06051791 0.0671092 0.01307629
v 0.04502279 0.09391248 0.006011231
v 0.03043903 0.08444709 -0.02023882
v -0.08784993 0.1042811 0.01216426
v -0.04573332 0.1459471 0.0007827068
v -0.08160018 0.1088129 0.02943032
v 0.02713026 0.1189276 -0.003062309
v -0.06281661 0.1603369 -0.0443115
v 0.04322012 0.09542402 -0.0002196553
v 0.03056695 0.07465299 -0.02072626
v 0.02739812 0.06595383 -0.02137321
v 0.04056946 0.06690098 -0.007729327
v -0.06245712 0.1530632 -0.0132629
v -0.06438464 0.1642148 -0.02491683
v 0.03928302 0.07377864 -0.01044071
v 0.03518245 0.06900237 -0.01562029
v -0.04038818 0.1209196 -0.01197646
v -0.06288767 0.1741615 -0.06032073
v 0.04369121 0.07191104 -0.0014906
v -0.06159288 0.1681673 -0.0567431
v -0.06079434 0.06253173 0.02674044
v 0.03396651 0.07554983 -0.01659828
v -0.0489387 0.1381479 0.01516646
v -0.05405356 0.1245738 -0.007453359
v 0.03990524 0.1036632 0.02355911
v 0.0355822 0.08188406 -0.01683648
v -0.08714639 0.1097701 0.01240746
v 0.04576115 0.08357007 0.01700171
v 0.04028645 0.08466614 -0.01149964
v -0.02879677 0.1799766 -0.01367987
v -0.08563475 0.1028286 0.00249799
v -0.06276176 0.1577634 -0.01734822
v 0.04630641 0.07970334 0.009225439
v 0.04517861 0.08315945 0.002083161
v 0.04275082 0.07978182 -0.004965715
v -0.09049889 0.1395371 0.01586943
v -0.08719695 0.1527848 0.01580495
v -0.06589898 0.1789184 -0.05762107
v -0.08610788 0.1215052 -0.002141683
v -0.06987703 0.178972 -0.05248745
v -0.07554279 0.1556734 0.02359263
v -0.01084836 0.1799563 -0.0263335
v -0.07189425 0.1780179 -0.04766914
v -0.07142229 0.152315 0.03524043
v -0.07968478 0.1535859 0.02884433
v -0.07332285 0.1618121 -0.01142494
v -0.0806049 0.1551028 0.01893779
v -0.06676966 0.1562971 0.01858232
v 0.03520871 0.09780564 -0.01227067
v -0.06526441 0.1718559 -0.04569094
v -0.02750667 0.1258569 0.01049935
v -0.05382417 0.1510433 0.02376377
v -0.01491625 0.1844075 -0.02588395
v -0.08861414 0.1367584 0.007795225
v -0.06387891 0.1522979 0.03492895
v 0.003886192 0.1307516 0.02183784
v -0.03844179 0.1241228 0.02450926
v -0.08464264 0.1494039 0.03283818
v -0.05215768 0.1477713 0.0178005
v -0.092525 0.1234662 0.03160899
v -0.07016261 0.1555975 0.02670612
v -0.01533914 0.1230684 0.03159631
v -0.08907943 0.09649295 0.01013312
v -0.0715673 0.1745214 -0.04198303
v -0.08547441 0.1084352 0.006365409
v -0.07034991 0.1716143 -0.03506894
v -0.04156779 0.128814 0.00642877
v -0.06506608 0.1468049 0.03909584
v -0.01244727 0.1290661 0.02001986
v -0.0450885 0.1229459 0.02662963
v -0.08065902 0.1540052 0.008159496
v -0.09105167 0.1336522 0.01206153
v -0.0919985 0.1176675 0.02703432
v -0.05910832 0.1558987 0.01155528
v 0.03116577 0.1176642 0.002155034
v -0.09259623 0.1188062 0.01013378
v -0.09193559 0.1145027 0.01700657
v 0.05817205 0.07066596 0.01737417
v 0.05370376 0.07297202 0.009740576
v -0.03441628 0.1246063 0.02224131
v -0.02781868 0.1206939 0.02738511
v -0.02730322 0.1248797 0.01878341
v -0.04715816 0.1338957 0.008443895
v -0.03434367 0.1272711 0.01075043
v -0.03884468 0.1269187 0.0179299
v -0.04514637 0.130772 0.01727241
v 0.02225359 0.1148681 -0.01203446
v -0.06534934 0.1551378 0.02822889
v -0.02191399 0.1839151 -0.01282458
v 0.03522421 0.1138625 0.007804529
v -0.03393826 0.1267088 0.01555559
v 0.02669032 0.1216333 0.003442121
v -0.07277461 0.155615 0.006579978
v -0.06414816 0.1661105 -0.03249847
v -0.08199554 0.0987514 -0.006050882
v 0.009107902 0.1291883 0.025357
v -0.0917298 0.1299626 0.02933683
v -0.06847444 0.1560759 0.01228025
v -0.007432881 0.1302653 0.01940233
v 0.05371352 0.07220561 0.02004848
v 0.04603541 0.07337505 0.02196563
v 0.04735864 0.07466926 0.01430881
v 0.03601671 0.1127748 0.01437067
v 0.03107458 0.1188605 0.009484219
v 0.009318826 0.1308563 0.00664124
v 0.003397271 0.1302394 0.000910473
v -0.07456479 0.1069551 -0.00960311
v -0.08790106 0.1286886 0.001271319
v -0.07062552 0.1692097 -0.0263982
v 0.02380857 0.124759 0.009270936
v -0.08583932 0.1065871 0.02090848
v -0.0207177 0.1241916 0.02540911
v 0.02947171 0.1203891 0.01381091
v -0.09146445 0.1283636 0.008170102
v -0.01872905 0.1280038 0.01400664
v -0.07622692 0.1558143 0.01310203
v 0.01809852 0.1279914 0.01063338
v 0.0008113013 0.1312027 0.006111862
v -0.07138679 0.03488054 0.005783933
v -0.06019352 0.03919195 0.01998769
v -0.06330746 0.04229131 0.03984608
v -0.03519627 0.04233078 0.04622805
v -0.03098104 0.03696812 0.05120106
v -0.08833464 0.09592187 0.02321394
v -0.02864928 0.04494499 0.05049121
v -0.07895077 0.09525306 0.03538319
v -0.03784157 0.03730535 0.0438056
v -0.0731403 0.08251053 0.03926995
v -0.07063586 0.04084934 0.006037502
v -0.0676523 0.03761839 0.01257827
v -0.06287972 0.04338136 0.01273931
v -0.0703564 0.09708743 0.04142317
v -0.05478399 0.04248906 0.04546154
v -0.08018522 0.1429017 0.04451165
v -0.06462947 0.04607488 0.005642681
v -0.08220805 0.08214568 0.03038185
v -0.08843771 0.1378608 0.03995516
v -0.07512938 0.1075668 0.03778046
v -0.05511736 0.04445 0.01630914
v -0.02943459 0.04828818 0.04605443
v -0.09302192 0.121099 0.03681751
v -0.02401727 0.0856921 0.05351158
v -0.02122732 0.09492627 0.04919859
v -0.07835869 0.1646189 -0.0283526
v -0.05650988 0.04924823 0.008826784
v -0.02541069 0.07502 0.04772884
v -0.07297537 0.08721368 0.04062357
v -0.08960624 0.1277416 0.04383966
v -0.05187559 0.05346875 0.01311363
v -0.05107887 0.05045259 0.02029193
v -0.04900816 0.05285965 0.0354068
v -0.07763394 0.08866853 0.03743296
v -0.02869796 0.05346902 0.03795251
v -0.02677192 0.08164022 0.0501602
v -0.08223819 0.09085486 0.03201683
v -0.01399759 0.09829218 0.04877764
v -0.0897801 0.1444749 0.02923081
v -0.07816195 0.149593 0.0379616
v -0.06871507 0.07489283 0.03802694
v -0.08100812 0.1320135 0.05155407
v -0.03419849 0.08795118 -0.02462112
v -0.04578213 0.06029713 0.03837678
v -0.04076629 0.06330118 0.04120181
v -0.06021521 0.09348624 -0.01974649
v -0.0637517 0.1614626 -0.05597638
v -0.08647669 0.1189703 0.04795737
v -0.04415162 0.1702189 -0.005971608
v -0.06582115 0.1188888 -0.008978167
v -0.05067904 0.05791722 0.03171919
v -0.07928603 0.1112129 -0.003008464
v -0.07460873 0.09496174 0.0393725
v -0.07904588 0.1669511 -0.03464502
v -0.06709169 0.08883165 0.04376316
v -0.084125 0.1144713 0.0001433107
v -0.02136065 0.0608092 0.04613695
v -0.08838571 0.1333167 0.0430155
v -0.08387131 0.1376163 0.04634182
v -0.08491546 0.0896175 0.02844491
v -0.07550218 0.07769953 0.03488989
v -0.0468318 0.1528829 -0.0060899
v -0.07605766 0.1696422 -0.0305376
v -0.07617009 0.1646363 -0.02051862
v -0.09159894 0.1208332 0.04359796
v -0.07439473 0.128289 -0.008227365
v -0.01943215 0.0653035 0.05085949
v -0.08362045 0.09774915 0.0302279
v -0.01899633 0.1706116 -0.0213706
v 0.01529439 0.1113822 -0.01713903
v -0.06750081 0.09065437 -0.01737915
v -0.07362448 0.08792518 -0.01535542
v -0.07471909 0.1010076 0.03732729
v -0.02428606 0.06833779 0.04507082
v -0.08296993 0.102379 0.02923882
v -0.02863358 0.08161449 0.04589896
v -0.0560509 0.05614669 0.008698945
v -0.0856205 0.1444906 0.03786677
v -0.0861669 0.1296263 0.04828394
v -0.02161854 0.07031034 0.05078823
v -0.007723816 0.1212597 -0.0122396
v -0.07028723 0.1664351 -0.04950194
v -0.07330557 0.164186 -0.03952629
v -0.04561704 0.03716537 -0.01968682
v -0.09113803 0.1296071 0.03624242
v -0.02450086 0.09750057 -0.02498786
v -0.07456495 0.1508259 -0.02550627
v -0.0627012 0.0414607 0.02572812
v -0.06065633 0.04620192 0.0312019
v -0.09346334 0.1272078 0.01456294
v -0.09361277 0.1288892 0.02110717
v -0.04178062 0.04534971 -0.01693321
v -0.03431924 0.1123643 -0.01775694
v -0.06439877 0.04413539 -0.001654681
v -0.03996572 0.04850573 -0.01225674
v -0.07568536 0.1500423 -0.01528817
v -0.05359157 0.04590449 0.02241075
v -0.08686147 0.1370988 0.003706249
v 0.02763077 0.09274395 -0.02059286
v -0.08258698 0.1076122 -0.000751641
v -0.09129843 0.1444508 0.01691215
v -0.07390449 0.1687556 -0.04461381
v -0.0574548 0.05020269 0.001324075
v -0.05300371 0.0498544 0.02912423
v -0.07910224 0.1483288 -0.001940697
v -0.0913952 0.1474615 0.02246732
v -0.02950103 0.05047747 -0.02202679
v -0.03070298 0.0512614 -0.01618421
v -0.05569422 0.05406922 -0.002612618
v -0.0519492 0.05557756 0.02353163
v -0.05201941 0.0545535 -0.007662538
v -0.07174572 0.1502662 -0.04054389
v -0.02286755 0.1830487 -0.01873585
v -0.02686504 0.05557217 -0.02634481
v -0.03301612 0.05467476 -0.01167282
v -0.09020047 0.1359336 0.02316462
v -0.07103769 0.1734889 -0.05283685
v -0.05825794 0.06061174 -0.002607898
v -0.02772971 0.1656099 -0.0167085
v -0.03993842 0.03901338 -0.02756753
v -0.03291017 0.09558569 -0.02356466
v -0.054651 0.09392659 -0.02185843
v -0.08685707 0.1431274 0.008442677
v -0.07706024 0.1567437 -0.01111163
v -0.05337028 0.1206089 -0.01139235
v -0.03092364 0.05909322 -0.01861683
v -0.08027385 0.07387587 0.02085539
v -0.05622405 0.1591789 0.006177229
v -0.07601415 0.157279 -0.02242564
v -0.08956304 0.1373643 0.03239992
v -0.0303354 0.06521362 -0.02529131
v -0.06441022 0.06460983 -0.005396841
v -0.08032105 0.1215273 -0.005259028
v -0.08383399 0.1459729 0.004031654
v -0.0734259 0.06764929 0.0002090892
v -0.05131591 0.1642967 -0.0007821249
v -0.06809454 0.1675914 -0.05474749
v -0.07736844 0.1717273 -0.03891314
v -0.07671855 0.07067943 0.0008512764
v -0.04132081 0.0881606 -0.02236538
v -0.02700806 0.06891211 -0.03328198
v -0.0879485 0.149734 0.009805316
v -0.07754013 0.1571167 -0.01754139
v -0.03252819 0.06877344 -0.02138522
v -0.07782332 0.0754407 -0.006534747
v -0.07400114 0.1593614 -0.03112207
v -0.03158141 0.07369103 -0.02933222
v -0.08175601 0.08021105 -0.003524101
v -0.07688426 0.1398099 -0.005559632
v 0.02603058 0.1167589 -0.00712601
v -0.07237496 0.1492978 -0.03440427
v -0.08492953 0.08013347 0.005504745
v -0.03401078 0.07577993 -0.02417292
v -0.01815272 0.1865041 -0.0199949
v -0.03228489 0.08212313 -0.02950505
v -0.02529869 0.1126363 -0.01733972
v 0.003493229 0.1160388 -0.01821977
v -0.07567062 0.08016308 -0.01131533
v -0.0867937 0.08347053 0.01362616
v -0.02945801 0.08060811 -0.03469666
v -0.0862256 0.08617267 0.0006861763
v -0.08514368 0.08125256 0.02068609
v -0.08657991 0.1520481 0.02431016
v -0.03573649 0.0797102 -0.02161037
v -0.07087885 0.157461 -0.0451672
v -0.0104939 0.1022004 -0.02403367
v -0.08048077 0.08903305 -0.008647781
v -0.08915908 0.08917597 0.01112203
v -0.08380429 0.1287373 -0.003544719
v -0.09070295 0.1417504 0.02315525
v -0.08807975 0.08859449 0.0217617
v -0.08508629 0.09592224 -0.002070429
v -0.08761614 0.09369871 0.004760547
v -0.08082969 0.1509786 0.002031331
v -0.07606221 0.1475057 -0.007762931
v -0.08769041 0.1143538 0.004194542
v 0.05794079 0.06607561 0.003992077
v -0.01105067 0.1159815 -0.01625283
v -0.004301604 0.1161944 -0.0164075
v -0.03121798 0.1720793 -0.01640965
v -0.009951419 0.09495322 -0.03339941
v -0.02803616 0.1179043 -0.01284809
v 0.001598252 0.1200967 -0.01374795
v -0.002881881 0.1025677 -0.02298397
v -0.003084781 0.09626187 -0.03116629
v -0.01410226 0.1111544 -0.01961262
v -0.05955704 0.1544112 0.0009325321
v 0.03293601 0.1094392 -0.007966173
v -0.06549023 0.0388028 -0.006870555
v 0.04703713 0.07402998 0.00665927
v -0.03002882 0.1218215 -0.007177454
v -0.04856915 0.1232708 -0.01032872
v 0.01254341 0.1164491 -0.0155858
v 0.00859627 0.1103589 -0.01957052
v 0.00898686 0.1260524 -0.006358173
v -0.004878964 0.1258604 -0.007809914
v -0.04365065 0.1114988 -0.01744473
v 0.01103361 0.09530436 -0.02638401
v -0.006373466 0.1109423 -0.0211976
v -0.02349821 0.121406 -0.008603916
v 0.03662995 0.103745 -0.008062124
v 0.002860494 0.0985038 -0.02535498
v -0.03611091 0.1171449 -0.01373911
v -0.05960687 0.1459096 -0.00260176
v -0.03776611 0.04508182 -0.02433229
v -0.03721375 0.1240685 -0.007546134
v 0.02027203 0.121888 -0.005665271
v 0.0337721 0.1127371 -0.002375678
v 0.007005585 0.09072421 -0.03216466
v -0.01640457 0.09781676 -0.02665084
v 0.0001489832 0.1111769 -0.02019348
v 0.01518607 0.1064364 -0.0185182
v -0.006078458 0.09003542 -0.03599158
v 0.01339972 0.126174 -0.003871041
v 0.04953016 0.06859907 0.001758459
v 0.05804417 0.07028623 0.008406785
v -0.01873693 0.09377085 -0.03388455
v -0.01151685 0.1225023 -0.009611013
v -0.05431759 0.1386622 -0.002021992
v -0.06235139 0.1408824 -0.006574795
v 0.02933483 0.102896 -0.01536747
v -0.06496937 0.1135327 -0.01200286
v -0.01489608 0.1284162 0.004981376
v -0.009657556 0.1296599 0.005381947
v 0.02955843 0.09711156 -0.01730175
v -0.04910909 0.0375981 -0.01231438
v 0.01405375 0.08758025 -0.02983719
v -0.04454077 0.1167864 -0.01521077
v 0.01429552 0.1219228 -0.009958654
v -0.0520306 0.1306964 -0.003638306
v -0.0481209 0.1319301 0.002008987
v 0.01643368 0.1278118 0.002697959
v 0.03664963 0.09116662 -0.01425588
v 0.02153176 0.09910697 -0.02144171
v -0.01630086 0.1043332 -0.02267019
v 0.0442333 0.06445695 -0.001749441
v 0.01547949 0.1006619 -0.02212399
v 0.02656649 0.1087667 -0.01333287
v 0.05370352 0.06263889 -0.001331314
v -0.01445488 0.0909513 -0.03668369
v -0.02263762 0.1251429 -6.965726e-05
v 0.010151 0.1289957 -0.0003445053
v -0.04958582 0.113694 -0.0166374
v -0.04451232 0.1259882 -0.007052755
v -0.0397625 0.1274289 -0.001010829
v -0.00346012 0.1289746 -0.001502493
v 0.02093383 0.124859 0.0009707922
v -0.01821518 0.1165534 -0.01544975
v 0.01970354 0.08953509 -0.02557079
v -0.01907755 0.1199428 -0.0107978
v -0.01675672 0.1249049 -0.003957628
v -0.009156361 0.1275476 -0.003325091
v 0.001902864 0.1275111 -0.004581268
v -0.03841474 0.09992205 -0.02181547
v -0.01396509 0.03419193 -0.02368782
v -0.02609834 0.03529304 -0.02841851
v -0.002344461 0.03789936 -0.02473504
v -0.0203774 0.03653905 -0.02795257
v -0.007191928 0.04028 -0.02567516
v -0.0140199 0.04000154 -0.02690483
v -0.03341484 0.03446103 -0.02977116
v -0.06392122 0.0345717 -0.007807861
v 0.009940268 0.03893449 -0.02319388
v -0.03193719 0.04314065 -0.02900441
v -0.05528082 0.03954174 -0.01018758
v 0.03297585 0.03920292 -0.001556612
v -0.02514815 0.04533559 -0.02777327
v 0.04022776 0.04329666 -0.002344794
v 0.01681452 0.0453557 -0.02344527
v -0.01831457 0.04579473 -0.02826712
v 0.004669231 0.1057993 -0.02092389
v 0.03264351 0.04722452 -0.00647063
v -0.06284381 0.03465455 0.02403114
v 0.003253755 0.04222998 -0.02449289
v -0.003160155 0.04734014 -0.02972736
v -0.009062548 0.0478003 -0.03030779
v -0.01215341 0.04472766 -0.02770506
v 0.02600452 0.04323532 -0.007100271
v -0.04515048 0.09927527 -0.02168651
v -0.048117 0.1040247 -0.02061854
v -0.05527049 0.1134456 -0.01619828
v -0.04515454 0.162644 -0.008866834
v -0.04946335 0.04534011 -0.009473312
v -0.05790722 0.1007125 -0.01933178
v 0.0463993 0.04914619 -0.004277894
v -0.06547818 0.1007391 -0.01663292
v 0.00104586 0.05356065 -0.0308613
v 0.005673486 0.05033058 -0.02954224
v -0.008583295 0.05305768 -0.03289317
v -0.05804112 0.04478133 -0.005788658
v -0.05215905 0.156847 -0.004088154
v 0.01016668 0.04786314 -0.02680466
v -0.01761294 0.05201458 -0.03159645
v -0.04554027 0.05263879 -0.01035693
v 0.0371058 0.0505901 -0.00661925
v 0.02097795 0.05455325 -0.02665695
v -0.03677209 0.1571466 -0.01107314
v -0.06988429 0.1249306 -0.0088573
v 0.01579794 0.05567872 -0.02855959
v -0.01786174 0.0570826 -0.0339485
v -0.07330428 0.1213653 -0.0081242
v -0.0091396 0.03397592 -0.02045338
v -0.0006904969 0.05970201 -0.03333243
v -0.02569094 0.06008312 -0.03040304
v -0.07082537 0.09582405 -0.01559946
v 0.05364194 0.05374808 -0.0008994045
v -0.01349296 0.06146927 -0.03620732
v 0.04338366 0.05547739 -0.006129353
v -0.00715944 0.06030004 -0.03462286
v -0.06570029 0.1327631 -0.008371085
v -0.02379524 0.1617238 -0.01462001
v -0.04113552 0.05680348 -0.0114986
v 0.04998068 0.05922337 -0.004455719
v 0.01973766 0.06132261 -0.02717366
v 0.007991895 0.06570431 -0.0317701
v 0.004548666 0.05930989 -0.03165144
v -0.062417 0.105608 -0.01704057
v -0.01538191 0.1748777 -0.0256494
v -0.02329033 0.1060824 -0.02252487
v -0.03520674 0.1627865 -0.01405744
v -0.0310217 0.1056897 -0.02119709
v -0.04918379 0.0606803 -0.01140844
v -0.054334 0.1076536 -0.01846926
v 0.01104306 0.06060223 -0.03007247
v -0.03426315 0.06179072 -0.01345566
v -0.04049084 0.06301941 -0.0133713
v -0.07670987 0.1113677 0.04607919
v -0.01946121 0.06380507 -0.03614103
v 0.00419516 0.06591599 -0.03315307
v -0.05349582 0.06564332 -0.01073499
v -0.02330421 0.1686108 -0.01907323
v -0.02067198 0.1786874 -0.0225285
v -0.002539554 0.06705326 -0.03464542
v -0.01478337 0.06906253 -0.03810988
v -0.04400842 0.06826573 -0.01611836
v -0.03725315 0.1689125 -0.01325716
v -0.00759099 0.06943804 -0.03619251
v -0.06973103 0.1045144 -0.01341205
v -0.05933339 0.1337979 -0.006685117
v 0.001649851 0.07279669 -0.0350285
v -0.02044469 0.07131648 -0.03840199
v -0.05784034 0.06705974 -0.01106359
v -0.07998691 0.1327215 -0.004524515
v -0.06131137 0.1250379 -0.008310332
v 0.01224883 0.07062374 -0.03150693
v -0.02636887 0.07781915 -0.03687432
v -0.05679188 0.07435661 -0.01781908
v -0.08039294 0.07141037 0.01433694
v 0.0232382 0.06970493 -0.02620898
v 0.0188746 0.06893038 -0.02880115
v -0.02249732 0.08320884 -0.03818909
v -0.04941907 0.07068927 -0.01505612
v -0.07130854 0.06948196 -0.005066973
v -0.02511675 0.1765729 -0.01950807
v -0.01444506 0.1808687 -0.02760352
v 0.0269447 0.07239194 -0.02388054
v 0.004770156 0.07895914 -0.03443088
v -0.03683453 0.06979141 -0.01657446
v -0.06312606 0.07356475 -0.01636609
v -0.06922639 0.07521114 -0.01428919
v 0.01625173 0.07592748 -0.02910505
v 0.007329875 0.0738279 -0.03392018
v -0.03947289 0.1062943 -0.02017532
v -0.04037011 0.07496306 -0.01819071
v -0.04718207 0.07524831 -0.01762827
v 0.0104731 0.08184871 -0.03181826
v -0.004143947 0.07650356 -0.03684878
v -0.008776766 0.0757504 -0.03771082
v -0.01472911 0.07759577 -0.038702
v -0.04435788 0.07972824 -0.01972849
v 0.02591344 0.08418723 -0.02346173
v 0.01945147 0.0803975 -0.02767693
v 0.0009659515 0.08142361 -0.03550567
v -0.04898057 0.07954732 -0.01988497
v -0.05246161 0.08490137 -0.02167512
v -0.05380339 0.07723235 -0.01933801
v -0.007108326 0.08420262 -0.0378271
v -0.06960865 0.08271656 -0.01709408
v 0.004756291 0.08503994 -0.03366993
v -0.01933245 0.08850188 -0.03756472
v -0.0478172 0.08522394 -0.02166883
v -0.0574935 0.08447088 -0.02105835
v -0.01659253 0.08409843 -0.0390603
v -0.03959779 0.08287415 -0.02095698
v -0.07024829 0.1119994 -0.009823859
v -0.0592554 0.1180086 -0.01156348
v -0.0004948805 0.08816858 -0.03526509
v 0.005450787 0.03411703 -0.01843067
v 0.01444731 0.03528217 -0.01809428
v 0.00155065 0.03488513 -0.02317892
v -0.03197183 0.03398536 -0.02136749
v -0.002450909 0.03554494 -0.01655064
v -0.02133836 0.0347544 -0.020034
v 0.006087433 0.03764074 -0.01042911
v -0.04376488 0.03473536 -0.02471157
v -0.04011626 0.03360446 -0.01904807
v -0.004858179 0.03912078 -0.0107906
v -0.01475939 0.03833669 -0.01585359
v -0.0380334 0.03647032 -0.01166877
v 0.01908912 0.03525991 -0.00382114
v -0.03158676 0.03808115 -0.01625084
v -0.00928183 0.03877175 -0.01414876
v -0.02842127 0.03839862 -0.007168457
v 0.01182604 0.03433753 -0.00565802
v 0.01735881 0.03449688 0.0025017
v -0.02191127 0.03866739 -0.0145314
v -0.003463723 0.03903277 -0.004605017
v 0.003853256 0.03709778 -0.002289635
v 0.007946714 0.03552537 0.0040846
v -0.044116 0.03356091 -0.008827619
v -0.01209817 0.03878041 -0.00553874
v 0.02688968 0.03659102 -0.0002094889
v -0.05666146 0.03393204 -0.009796238
v -0.0703022 0.1121606 0.04708196
v 0.03012984 0.03511737 0.00704162
v 0.03678972 0.03779232 0.004252239
v -0.05116955 0.03342968 -0.007624508
v -0.01877042 0.03846048 -0.00291633
v -0.002217199 0.03798469 0.004756288
v -0.07589679 0.06778806 0.0175684
v -0.06042948 0.03338675 -0.000817159
v -0.03516592 0.03862057 -0.00356857
v -0.06566781 0.03344586 0.00154339
v -0.05404634 0.03350784 0.0001503355
v -0.02693159 0.03831086 0.0008562341
v 0.02192498 0.03577231 0.008582851
v -0.04663833 0.03359084 0.0001690601
v -0.04066561 0.03333279 0.001231692
v -0.01250002 0.03848081 0.003755116
v 0.003407454 0.0338332 0.01318646
v 0.02787403 0.03471976 0.01362085
v -0.07018811 0.03627722 -0.001584234
v -0.01915711 0.03825043 0.00802501
v -0.002312958 0.03695318 0.01213742
v 0.02128703 0.03524081 0.02274587
v 0.03917938 0.03818541 0.0137835
v -0.03635668 0.03321756 0.008121792
v 0.0474775 0.04227864 0.01307531
v -0.05843143 0.03352048 0.006771451
v -0.02655215 0.03843148 0.0077185
v -0.009291679 0.03848364 0.009193316
v 0.02814744 0.03620963 0.02152689
v 0.03407027 0.03708441 0.01857598
v -0.04804196 0.03535063 0.00827305
v -0.04096097 0.0358094 0.008701446
v -0.03128034 0.03362423 0.01622116
v -0.008420549 0.03837362 0.01603287
v 0.002870059 0.03636732 0.02200884
v 0.01168308 0.03456028 0.02071784
v 0.05186415 0.04619565 0.01970746
v -0.05155182 0.03372521 0.007982645
v -0.02314852 0.03828178 0.01412959
v -0.00175692 0.03732759 0.01845594
v 0.04132429 0.04035819 0.02036227
v -0.05683788 0.03359856 0.01477431
v -0.06564881 0.03390971 0.01016928
v -0.03497469 0.03494007 0.01713395
v -0.01425613 0.03825651 0.01616467
v 0.007548824 0.03588239 0.02550629
v 0.01579719 0.03473414 0.02700003
v 0.02606238 0.04091099 0.0336857
v 0.03748205 0.04126335 0.02643371
v -0.06363864 0.03574166 0.01578543
v -0.0346338 0.034164 0.02378326
v -0.07144527 0.07028148 0.03160134
v 0.01104298 0.03576565 0.03215545
v -0.06047631 0.07543244 0.04161572
v -0.03744657 0.03454026 0.02676727
v -0.01648513 0.03831094 0.02320656
v -0.007906937 0.03850156 0.02326542
v -0.08266097 0.1100718 0.03792511
v -0.05371677 0.03314393 0.02163175
v -0.04086381 0.03403938 0.02776145
v -0.02779691 0.03786673 0.02393388
v -0.00283343 0.03889058 0.02886355
v 0.0148592 0.03474787 0.03790684
v -0.05695529 0.06490018 0.03307983
v -0.04740307 0.03419812 0.02926035
v -0.04384601 0.03450675 0.03212905
v -0.0218372 0.03853773 0.03067668
v 0.003982303 0.03972567 0.03154421
v 0.006048885 0.03481707 0.03775782
v -0.04525989 0.07046294 0.04129945
v -0.07782529 0.1062959 0.03394521
v -0.06748639 0.06269881 0.001069737
v -0.05828921 0.03400041 0.02385513
v -0.03426394 0.03461185 0.02937237
v -0.01728523 0.03887169 0.03398834
v 0.009547292 0.03468537 0.04200133
v -0.006413231 0.03499992 0.04102426
v 0.0148465 0.03662624 0.0435914
v -0.06522381 0.06222349 0.02308524
v -0.06412262 0.06015598 0.005941822
v -0.05847191 0.05828945 0.004288936
v -0.08399521 0.1125237 0.04478109
v -0.05182122 0.0344274 0.03061833
v -0.02833601 0.03921327 0.03354235
v -0.01162375 0.03881755 0.03143649
v -0.004838903 0.03954512 0.0360848
v -0.0631596 0.070316 0.0369183
v -0.06038741 0.05826443 0.01375498
v -0.05694939 0.03440681 0.03360649
v -0.03985342 0.03461853 0.03948254
v -0.001495887 0.03486612 0.04488214
v 0.005269245 0.03510117 0.04380352
v -0.08065117 0.07755094 0.02770057
v -0.06587716 0.03888211 0.03041957
v -0.03546988 0.03428939 0.03634299
v -0.04501822 0.03457339 0.03751671
v -0.0204078 0.03943843 0.03912132
v -0.01288962 0.03921845 0.0393013
v -0.01235087 0.03440661 0.04533869
v -0.06995252 0.06177017 0.01011265
v -0.02410371 0.03435203 0.04704265
v -0.01779296 0.03432537 0.04735954
v -0.07350209 0.1172922 0.05254673
v -0.07374932 0.06535341 0.006698162
v -0.05787962 0.05916287 0.02126158
v -0.03068356 0.03441335 0.0441985
v -0.08311628 0.07606987 0.01271485
v -0.07508813 0.06671084 0.0126928
v -0.06412071 0.03466447 0.0348088
v -0.05378829 0.03464298 0.04190425
v -0.05550061 0.06072939 0.02583182
v -0.08047877 0.07221801 0.006670246
v -0.06839561 0.06106771 0.01508563
v -0.06513998 0.03732749 0.0389335
v -0.04834865 0.03586277 0.04491265
v -0.006567401 0.03777267 0.04828245
v -0.06899177 0.0662061 0.02718905
v -0.05526171 0.06930602 0.03811012
v -0.09035698 0.1137986 0.03788198
v -0.06299924 0.05963539 0.0176069
v -0.05910973 0.03590087 0.04430645
v -0.01919579 0.03719014 0.05239045
v -0.03970674 0.1505989 -0.004803938
v -0.05360483 0.1480684 -0.002078675
v -0.01756255 0.1637746 -0.01689302
v -0.06349725 0.1462359 -0.0138049
v -0.0651602 0.1533018 -0.04058958
v -0.06306355 0.1490406 -0.01999233
v -0.06561625 0.1552466 -0.04870333
v -0.02961003 0.1564589 -0.009939279
v -0.07088951 0.137848 -0.007562721
v -0.02323364 0.1572054 -0.007499011
v -0.0702118 0.1429133 -0.01157153
v -0.06526146 0.1506387 -0.03441534
v -0.07055775 0.1446972 -0.0182761
v -0.05058382 0.1416848 0.002561168
v -0.06408402 0.1489528 -0.02637929
v -0.02902828 0.1545342 -0.004608964
f 675 674 9
f 574 593 585
f 66 457 444
f 373 330 371
f 402 445 93
f 542 567 405
f 148 448 674
f 285 407 88
f 88 421 37
f 675 451 697
f 675 110 451
f 9 402 432
f 110 675 9
f 445 415 414
f 93 395 28
f 541 405 447
f 173 48 429
f 432 93 54
f 376 63 397
f 449 380 374
f 1 42 262
f 241 219 131
f 309 406 410
f 270 111 70
f 389 152 54
f 108 442 515
f 451 48 438
f 559 546 566
f 971 976 799
f 405 387 447
f 254 493 70
f 241 131 493
f 405 567 369
f 619 66 396
f 448 384 415
f 25 467 131
f 834 691 828
f 542 541 328
f 566 763 776
f 70 111 254
f 254 241 493
f 352 368 367
f 439 438 693
f 203 50 21
f 379 108 515
f 787 733 500
f 64 649 653
f 480 135 504
f 337 66 444
f 54 28 42
f 447 387 441
f 967 188 111
f 188 254 111
f 131 219 25
f 367 335 76
f 381 374 394
f 480 506 135
f 995 671 761
f 152 110 432
f 389 54 1
f 602 563 991
f 908 897 915
f 991 993 341
f 474 406 983
f 35 218 195
f 148 674 692
f 610 619 603
f 693 438 683
f 135 126 465
f 126 153 465
f 94 113 112
f 94 97 113
f 103 43 44
f 305 769 302
f 292 216 187
f 415 413 414
f 413 91 414
f 152 432 54
f 90 109 506
f 146 168 229
f 293 22 216
f 572 772 537
f 795 790 357
f 117 135 506
f 117 126 135
f 156 153 126
f 133 291 136
f 468 478 554
f 156 162 153
f 156 163 162
f 242 231 106
f 427 399 442
f 117 506 109
f 50 41 21
f 82 42 65
f 117 123 126
f 123 156 126
f 34 21 41
f 148 384 448
f 81 97 94
f 136 158 146
f 26 106 42
f 167 171 158
f 53 50 60
f 158 168 146
f 554 528 945
f 563 616 993
f 18 207 466
f 520 305 989
f 606 494 69
f 174 162 163
f 174 232 162
f 60 74 53
f 115 109 918
f 109 115 117
f 115 123 117
f 123 149 156
f 41 50 53
f 41 53 38
f 180 203 21
f 50 61 60
f 707 715 718
f 156 149 163
f 137 167 158
f 995 794 600
f 507 584 503
f 78 115 918
f 123 124 149
f 149 164 163
f 164 174 163
f 992 365 346
f 584 517 752
f 134 278 137
f 351 371 330
f 383 397 268
f 557 552 621
f 127 149 124
f 513 987 338
f 255 81 60
f 579 4 39
f 466 14 18
f 448 415 445
f 115 124 123
f 174 246 232
f 35 205 218
f 127 164 149
f 925 938 915
f 20 180 21
f 451 438 439
f 426 404 449
f 671 997 990
f 228 139 245
f 264 97 255
f 113 105 133
f 989 782 520
f 110 9 432
f 451 110 152
f 934 95 78
f 95 115 78
f 174 169 246
f 375 302 806
f 385 259 221
f 113 133 51
f 4 283 39
f 15 18 14
f 544 814 648
f 355 343 336
f 355 336 359
f 95 125 115
f 115 125 124
f 307 332 310
f 48 451 152
f 934 79 95
f 125 127 124
f 150 164 127
f 164 169 174
f 171 172 242
f 613 610 971
f 33 18 15
f 48 152 389
f 164 150 169
f 161 403 246
f 283 100 39
f 988 1000 670
f 495 33 496
f 496 79 934
f 96 95 79
f 95 96 125
f 150 159 169
f 169 161 246
f 15 29 33
f 47 496 33
f 60 81 74
f 103 44 8
f 619 612 603
f 496 84 79
f 125 132 127
f 132 150 127
f 169 159 161
f 112 113 51
f 9 674 448
f 45 47 33
f 757 332 307
f 631 787 89
f 96 79 84
f 81 94 74
f 51 225 129
f 239 100 283
f 100 3 7
f 29 45 33
f 84 496 47
f 159 170 161
f 988 513 338
f 96 119 125
f 125 119 132
f 159 150 132
f 170 91 161
f 432 402 93
f 52 84 47
f 3 85 7
f 73 96 84
f 138 159 132
f 165 170 159
f 303 757 307
f 60 61 255
f 387 574 549
f 45 52 47
f 119 138 132
f 112 51 129
f 67 84 52
f 67 73 84
f 96 527 119
f 119 140 138
f 137 158 136
f 42 28 65
f 306 1002 201
f 486 52 45
f 96 73 527
f 527 120 119
f 120 140 119
f 165 159 138
f 103 294 335
f 351 353 141
f 380 614 378
f 170 130 91
f 91 130 414
f 368 316 367
f 20 21 34
f 26 42 82
f 268 399 427
f 23 36 155
f 140 165 138
f 999 990 997
f 140 157 165
f 168 26 82
f 160 229 82
f 409 541 145
f 48 389 429
f 2 170 165
f 267 422 22
f 458 19 473
f 473 19 30
f 173 56 48
f 2 165 157
f 2 130 170
f 16 458 181
f 389 1 429
f 438 48 46
f 445 414 130
f 349 355 348
f 63 589 397
f 166 2 157
f 16 19 458
f 146 133 136
f 994 771 570
f 1 54 42
f 104 122 475
f 5 2 166
f 130 395 445
f 134 137 291
f 229 168 82
f 849 869 857
f 5 130 2
f 167 172 171
f 541 447 145
f 438 46 683
f 122 128 476
f 34 41 38
f 16 11 19
f 709 711 706
f 160 5 166
f 395 130 5
f 105 291 133
f 326 628 334
f 62 68 80
f 68 104 80
f 11 31 19
f 303 301 889
f 299 303 889
f 160 166 151
f 255 97 81
f 104 112 122
f 168 171 26
f 167 250 172
f 31 38 49
f 65 395 5
f 31 34 38
f 48 56 46
f 62 57 68
f 112 128 122
f 65 5 160
f 28 395 65
f 262 42 106
f 11 34 31
f 49 38 57
f 68 94 104
f 94 112 104
f 335 342 103
f 105 113 97
f 53 57 38
f 57 74 68
f 82 65 160
f 74 57 53
f 74 94 68
f 655 671 154
f 980 20 11
f 20 34 11
f 112 129 128
f 844 706 849
f 1002 994 996
f 815 615 809
f 107 108 379
f 206 139 228
f 295 284 267
f 304 329 1001
f 884 891 876
f 334 628 667
f 513 748 987
f 213 243 61
f 183 203 180
f 209 283 4
f 181 456 965
f 280 188 865
f 153 162 235
f 254 261 241
f 434 435 361
f 200 206 196
f 254 188 261
f 193 258 286
f 241 288 219
f 224 222 215
f 236 240 222
f 224 236 222
f 261 288 241
f 192 392 356
f 244 257 251
f 280 261 188
f 292 293 216
f 265 289 281
f 367 76 366
f 261 269 288
f 416 1000 266
f 167 238 250
f 288 401 219
f 44 436 102
f 274 187 201
f 990 999 992
f 210 197 198
f 280 269 261
f 269 217 288
f 216 22 85
f 217 401 288
f 264 287 105
f 162 199 235
f 199 280 235
f 280 199 269
f 234 253 247
f 189 242 172
f 401 217 259
f 243 223 233
f 231 262 106
f 199 275 269
f 275 217 269
f 182 231 242
f 184 198 197
f 247 253 272
f 189 182 242
f 247 272 233
f 14 466 979
f 320 139 206
f 511 613 469
f 221 259 217
f 183 942 184
f 988 338 1000
f 232 275 199
f 275 202 217
f 98 260 277
f 6 43 103
f 4 285 209
f 271 272 114
f 202 221 217
f 277 996 98
f 255 243 264
f 284 605 267
f 273 275 232
f 564 783 805
f 226 338 306
f 118 114 272
f 195 215 194
f 989 305 300
f 167 137 278
f 197 214 213
f 279 293 292
f 273 202 275
f 706 844 709
f 190 3 237
f 223 213 214
f 289 227 281
f 300 279 260
f 223 247 233
f 260 279 292
f 197 213 203
f 901 200 196
f 392 204 356
f 290 238 278
f 293 279 295
f 273 403 202
f 205 206 228
f 276 282 249
f 103 342 6
f 194 198 185
f 146 229 225
f 228 245 224
f 265 256 253
f 272 256 118
f 271 114 287
f 998 991 325
f 50 203 213
f 540 548 539
f 227 208 258
f 198 194 210
f 260 292 277
f 403 17 202
f 202 17 313
f 105 287 291
f 210 214 197
f 193 250 238
f 282 289 257
f 240 236 251
f 279 305 295
f 266 192 356
f 244 251 236
f 198 184 179
f 214 234 223
f 114 118 134
f 218 224 215
f 403 273 246
f 248 257 265
f 320 331 139
f 213 223 243
f 215 195 218
f 220 234 214
f 434 249 245
f 61 243 255
f 367 366 641
f 216 85 190
f 237 187 190
f 453 548 472
f 996 277 274
f 366 361 435
f 201 187 237
f 806 386 375
f 136 291 137
f 272 271 233
f 320 206 200
f 238 227 193
f 230 248 234
f 285 392 192
f 193 286 211
f 337 444 360
f 251 248 240
f 281 227 290
f 209 285 192
f 114 291 287
f 245 249 244
f 332 628 326
f 332 326 310
f 578 613 971
f 228 224 218
f 356 416 266
f 7 89 500
f 986 16 181
f 274 292 187
f 289 208 227
f 114 134 291
f 227 258 193
f 295 267 293
f 194 215 210
f 416 682 1000
f 193 211 250
f 205 228 218
f 986 178 16
f 196 206 205
f 271 287 264
f 215 220 210
f 307 310 301
f 250 189 172
f 478 528 554
f 256 281 290
f 183 184 203
f 226 192 266
f 190 85 3
f 203 184 197
f 195 194 186
f 265 281 256
f 498 141 353
f 215 222 220
f 226 209 192
f 276 249 434
f 178 11 16
f 196 35 191
f 196 205 35
f 912 194 185
f 256 290 118
f 186 194 912
f 290 134 118
f 762 989 98
f 106 171 242
f 248 253 234
f 942 179 184
f 257 289 265
f 286 358 102
f 226 212 209
f 212 283 209
f 220 222 230
f 222 240 230
f 265 253 248
f 295 375 284
f 230 240 248
f 185 198 179
f 278 238 167
f 578 957 613
f 234 247 223
f 306 212 226
f 781 793 798
f 233 264 243
f 211 189 250
f 267 605 422
f 97 264 105
f 289 282 208
f 249 282 257
f 748 994 987
f 239 283 212
f 216 190 187
f 249 257 244
f 220 230 234
f 301 310 200
f 224 244 236
f 245 244 224
f 179 298 185
f 369 574 387
f 171 106 26
f 233 271 264
f 290 227 238
f 12 6 342
f 587 39 100
f 210 220 214
f 587 100 500
f 12 652 6
f 256 272 253
f 277 292 274
f 715 571 656
f 373 63 376
f 100 237 3
f 160 151 229
f 306 201 212
f 201 239 212
f 201 237 239
f 980 955 20
f 258 358 286
f 225 229 151
f 652 639 86
f 1002 274 201
f 278 134 290
f 158 171 168
f 251 257 248
f 719 303 299
f 511 457 622
f 622 66 619
f 925 948 938
f 457 66 622
f 736 757 303
f 406 328 410
f 66 337 396
f 302 375 305
f 304 347 329
f 807 343 344
f 913 186 893
f 627 360 409
f 325 427 304
f 359 336 684
f 557 614 370
f 835 494 615
f 232 199 162
f 763 777 776
f 494 591 572
f 329 365 992
f 295 305 375
f 938 919 915
f 304 998 325
f 409 328 541
f 574 552 593
f 516 481 474
f 312 315 746
f 329 24 365
f 771 631 570
f 903 925 897
f 327 315 333
f 398 360 627
f 323 333 317
f 325 268 427
f 359 362 348
f 483 482 472
f 312 723 729
f 337 364 396
f 333 315 312
f 406 474 393
f 339 309 444
f 548 483 472
f 410 328 409
f 341 268 325
f 50 213 61
f 305 279 300
f 474 481 536
f 541 542 405
f 516 474 983
f 552 370 593
f 308 311 297
f 990 346 154
f 341 325 991
f 300 260 98
f 613 622 610
f 753 708 843
f 627 409 145
f 1001 296 998
f 338 987 306
f 444 309 410
f 232 246 273
f 581 529 490
f 782 989 762
f 298 912 185
f 590 968 976
f 971 610 603
f 362 684 12
f 323 317 747
f 349 348 345
f 954 460 14
f 341 324 268
f 343 355 349
f 337 398 364
f 987 994 1002
f 630 629 532
f 324 383 268
f 772 705 814
f 297 729 851
f 345 348 352
f 762 98 996
f 327 349 345
f 396 624 619
f 809 604 595
f 557 370 552
f 344 349 327
f 344 343 349
f 430 581 567
f 307 301 303
f 362 12 316
f 396 364 624
f 317 333 312
f 324 330 383
f 333 323 344
f 839 714 840
f 282 263 208
f 681 670 682
f 317 312 311
f 840 720 297
f 362 316 368
f 252 258 208
f 327 345 322
f 385 221 204
f 263 282 276
f 263 252 208
f 993 498 341
f 351 330 353
f 341 498 324
f 478 472 482
f 143 263 276
f 335 294 76
f 664 828 691
f 315 327 322
f 348 362 368
f 720 308 297
f 610 622 619
f 736 303 719
f 204 221 313
f 321 204 313
f 498 353 324
f 311 312 729
f 913 35 195
f 311 729 297
f 294 252 263
f 316 12 342
f 367 316 335
f 690 332 757
f 345 352 687
f 938 959 924
f 361 143 276
f 143 294 263
f 326 334 320
f 591 494 835
f 990 992 346
f 204 392 385
f 8 358 252
f 692 651 642
f 675 697 703
f 359 684 362
f 718 715 558
f 356 204 321
f 304 427 347
f 294 8 252
f 200 310 320
f 901 301 200
f 348 368 352
f 76 294 143
f 44 102 8
f 76 361 366
f 355 359 348
f 353 330 324
f 591 175 572
f 320 334 331
f 334 411 331
f 76 143 361
f 102 358 8
f 335 316 342
f 310 326 320
f 103 8 294
f 77 625 426
f 404 370 380
f 449 404 380
f 387 549 441
f 388 377 401
f 377 25 401
f 365 107 346
f 347 24 329
f 284 386 605
f 360 398 337
f 24 107 365
f 412 411 667
f 412 433 411
f 433 434 139
f 139 434 245
f 405 369 387
f 107 379 36
f 379 77 36
f 625 77 556
f 602 991 998
f 435 433 412
f 433 435 434
f 27 802 611
f 404 426 625
f 958 540 539
f 93 445 395
f 407 285 4
f 370 614 380
f 435 412 641
f 384 424 415
f 474 536 393
f 444 410 360
f 641 366 435
f 9 448 402
f 426 83 155
f 390 17 403
f 696 13 10
f 589 514 399
f 418 17 390
f 107 23 346
f 418 71 419
f 400 417 13
f 400 71 417
f 374 380 378
f 994 762 996
f 413 418 390
f 539 548 453
f 957 512 469
f 417 71 424
f 71 418 424
f 667 411 334
f 356 321 419
f 85 89 7
f 36 77 155
f 378 491 377
f 394 378 377
f 449 381 431
f 381 394 421
f 449 374 381
f 36 23 107
f 407 381 88
f 381 421 88
f 621 369 567
f 390 403 161
f 431 381 407
f 578 971 799
f 424 418 413
f 417 384 13
f 71 416 419
f 621 552 369
f 593 370 404
f 419 17 418
f 155 77 426
f 959 460 954
f 397 589 399
f 237 100 239
f 490 557 621
f 378 391 491
f 402 448 445
f 419 321 17
f 43 92 44
f 417 424 384
f 10 384 148
f 449 431 426
f 108 24 347
f 139 331 433
f 10 148 692
f 421 394 377
f 373 376 383
f 24 108 107
f 92 423 44
f 579 407 4
f 102 75 286
f 579 83 407
f 436 75 102
f 416 356 419
f 413 390 91
f 83 431 407
f 376 397 383
f 285 88 385
f 177 286 75
f 177 211 286
f 177 189 211
f 579 638 83
f 426 431 83
f 388 421 377
f 436 446 75
f 377 491 25
f 92 659 423
f 423 437 436
f 399 514 442
f 390 161 91
f 373 383 330
f 37 421 388
f 437 446 436
f 446 147 75
f 75 147 177
f 182 189 177
f 13 384 10
f 659 408 423
f 268 397 399
f 424 413 415
f 285 385 392
f 99 177 147
f 696 400 13
f 129 489 128
f 423 408 437
f 99 182 177
f 146 51 133
f 88 37 385
f 259 37 388
f 374 378 394
f 425 437 408
f 437 443 446
f 446 121 147
f 121 99 147
f 555 483 548
f 437 425 443
f 182 32 231
f 182 99 32
f 442 347 427
f 146 225 51
f 446 443 121
f 400 416 71
f 44 423 436
f 593 404 585
f 17 321 313
f 28 54 93
f 262 231 32
f 7 500 100
f 363 85 22
f 92 86 659
f 612 619 624
f 425 698 443
f 99 56 32
f 346 23 154
f 375 386 284
f 585 404 625
f 442 514 515
f 450 121 443
f 121 56 99
f 450 56 121
f 173 32 56
f 32 173 262
f 225 489 129
f 442 108 347
f 450 443 698
f 173 429 262
f 683 450 698
f 429 1 262
f 31 49 508
f 971 603 976
f 401 259 388
f 360 410 409
f 46 450 683
f 46 56 450
f 546 763 566
f 455 29 15
f 508 49 518
f 934 78 55
f 564 422 605
f 30 508 67
f 936 583 569
f 455 473 29
f 458 473 455
f 523 40 756
f 998 304 1001
f 999 296 1001
f 479 80 487
f 514 589 505
f 884 876 869
f 62 531 518
f 296 538 602
f 484 33 495
f 515 514 477
f 90 506 480
f 475 122 476
f 422 564 363
f 31 508 19
f 913 893 894
f 379 515 594
f 379 594 575
f 638 154 155
f 90 461 492
f 90 480 461
f 489 476 128
f 479 527 73
f 777 809 776
f 454 985 466
f 502 495 55
f 25 491 467
f 69 494 572
f 455 15 460
f 49 57 62
f 508 518 525
f 19 508 30
f 270 70 499
f 52 30 67
f 967 111 270
f 486 30 52
f 385 37 259
f 782 631 805
f 615 815 835
f 771 733 787
f 151 489 225
f 465 153 524
f 73 525 479
f 522 756 737
f 934 495 496
f 70 493 530
f 461 485 512
f 482 561 969
f 504 465 524
f 476 140 120
f 462 883 452
f 14 460 15
f 502 975 561
f 510 467 529
f 979 466 974
f 460 456 455
f 70 530 499
f 131 467 510
f 925 915 897
f 510 470 509
f 461 512 492
f 975 969 561
f 489 151 157
f 67 508 525
f 530 509 481
f 530 481 499
f 530 493 510
f 518 531 525
f 475 120 487
f 457 526 444
f 504 485 480
f 490 614 557
f 575 77 379
f 974 466 985
f 907 463 452
f 452 463 462
f 463 468 462
f 484 495 502
f 252 358 258
f 928 975 502
f 485 504 459
f 529 467 491
f 466 207 454
f 80 475 487
f 45 29 486
f 463 464 468
f 489 157 476
f 829 522 176
f 613 511 622
f 511 519 457
f 519 526 457
f 527 487 120
f 530 510 509
f 391 614 490
f 479 487 527
f 914 464 463
f 458 455 456
f 525 531 479
f 475 476 120
f 479 531 80
f 456 181 458
f 488 519 511
f 473 30 486
f 221 202 313
f 572 175 705
f 331 411 433
f 267 22 293
f 62 518 49
f 770 537 772
f 470 510 529
f 464 478 468
f 23 155 154
f 524 471 935
f 459 504 524
f 712 571 715
f 480 485 461
f 748 771 994
f 67 525 73
f 473 486 29
f 140 476 157
f 464 472 478
f 958 539 724
f 459 519 488
f 459 526 519
f 935 339 526
f 884 903 891
f 509 470 536
f 33 484 18
f 724 453 914
f 453 464 914
f 40 314 440
f 469 488 511
f 453 472 464
f 478 482 528
f 180 956 183
f 469 485 488
f 485 459 488
f 459 524 526
f 524 935 526
f 814 544 772
f 787 631 771
f 372 441 620
f 512 485 469
f 499 481 516
f 85 363 631
f 391 529 491
f 317 308 747
f 572 705 772
f 89 787 500
f 629 650 637
f 617 635 636
f 483 555 561
f 646 680 101
f 588 141 498
f 568 373 371
f 87 588 498
f 533 568 588
f 373 568 63
f 87 533 588
f 993 616 87
f 391 490 529
f 616 533 87
f 533 553 568
f 568 553 63
f 555 207 484
f 546 559 543
f 616 553 533
f 553 589 63
f 616 534 553
f 378 614 391
f 116 534 616
f 534 589 553
f 534 505 589
f 534 597 505
f 644 521 645
f 703 647 669
f 116 597 534
f 674 703 702
f 69 27 611
f 668 831 27
f 602 116 563
f 602 597 116
f 597 477 505
f 592 598 797
f 797 598 611
f 598 606 611
f 69 611 606
f 469 613 957
f 505 477 514
f 755 582 592
f 582 598 592
f 598 604 606
f 538 597 602
f 393 536 430
f 615 494 606
f 580 477 597
f 540 207 555
f 451 439 697
f 565 582 755
f 582 595 598
f 595 604 598
f 604 615 606
f 444 526 339
f 581 470 529
f 642 651 633
f 538 580 597
f 838 664 636
f 535 571 846
f 535 656 571
f 521 689 663
f 580 515 477
f 502 561 555
f 703 669 702
f 577 565 558
f 565 577 582
f 577 595 582
f 542 430 567
f 547 580 538
f 581 621 567
f 621 581 490
f 145 447 441
f 564 605 783
f 543 656 535
f 543 558 656
f 559 577 558
f 999 547 538
f 570 762 994
f 559 558 543
f 577 776 595
f 776 809 595
f 547 594 580
f 454 540 958
f 954 960 930
f 559 566 577
f 393 328 406
f 363 564 805
f 677 543 535
f 430 542 328
f 393 430 328
f 999 997 547
f 186 913 195
f 566 776 577
f 900 899 881
f 369 552 574
f 677 734 543
f 734 546 543
f 677 864 716
f 547 575 594
f 811 609 829
f 640 883 545
f 654 657 642
f 997 626 547
f 166 157 151
f 58 688 663
f 919 938 924
f 609 599 618
f 618 428 40
f 428 314 40
f 135 465 504
f 85 631 89
f 340 658 698
f 680 644 101
f 547 626 575
f 660 838 636
f 626 77 575
f 580 594 515
f 691 831 668
f 716 741 734
f 600 626 997
f 540 555 548
f 439 693 704
f 741 560 562
f 623 428 618
f 503 59 440
f 686 770 637
f 10 657 696
f 600 556 626
f 741 640 545
f 562 560 569
f 650 629 630
f 722 635 662
f 587 500 733
f 804 590 596
f 599 612 618
f 551 503 314
f 556 77 626
f 554 741 545
f 554 560 741
f 596 590 599
f 551 314 428
f 683 665 693
f 318 556 600
f 536 481 509
f 599 609 596
f 583 936 804
f 804 586 590
f 612 623 618
f 623 364 428
f 536 581 430
f 554 945 560
f 945 569 560
f 936 586 804
f 364 551 428
f 794 620 549
f 599 603 612
f 612 624 623
f 507 503 551
f 844 849 857
f 145 441 372
f 585 556 318
f 462 545 883
f 462 468 545
f 590 976 599
f 507 627 372
f 441 549 620
f 869 854 857
f 22 422 363
f 468 554 545
f 618 523 609
f 398 551 364
f 372 627 145
f 549 574 318
f 574 585 318
f 625 556 585
f 454 207 540
f 976 603 599
f 624 364 623
f 398 507 551
f 899 926 904
f 398 627 507
f 340 698 425
f 322 345 687
f 688 64 663
f 910 899 900
f 702 651 692
f 630 662 650
f 722 662 645
f 686 617 661
f 367 641 352
f 14 979 954
f 58 672 685
f 689 672 58
f 652 12 382
f 680 420 644
f 601 689 420
f 58 685 688
f 653 660 636
f 693 665 646
f 12 684 382
f 697 647 703
f 684 336 550
f 652 382 672
f 340 601 658
f 608 630 634
f 412 667 666
f 700 688 685
f 685 676 550
f 672 676 685
f 306 987 1002
f 715 707 712
f 676 684 550
f 649 700 678
f 658 420 680
f 687 759 322
f 698 658 665
f 647 704 101
f 86 6 652
f 659 340 408
f 959 954 930
f 628 332 690
f 641 666 352
f 639 672 689
f 698 665 683
f 666 687 352
f 64 653 722
f 550 822 700
f 607 772 544
f 764 759 687
f 992 1001 329
f 655 154 638
f 649 660 653
f 704 646 101
f 617 636 632
f 699 637 607
f 692 674 702
f 689 58 663
f 639 689 601
f 988 655 638
f 814 731 648
f 636 664 632
f 336 343 822
f 629 637 699
f 654 642 633
f 959 930 924
f 670 671 655
f 647 532 669
f 537 661 668
f 670 790 671
f 669 532 699
f 656 558 715
f 572 537 69
f 618 40 523
f 601 420 658
f 628 690 666
f 633 607 544
f 635 650 662
f 637 770 607
f 87 498 993
f 537 770 661
f 101 644 634
f 790 670 681
f 635 653 636
f 576 837 795
f 357 576 795
f 607 770 772
f 400 696 682
f 699 607 633
f 701 699 633
f 701 633 651
f 576 732 837
f 484 207 18
f 10 642 657
f 333 344 327
f 659 639 601
f 659 601 340
f 694 732 576
f 86 639 659
f 10 692 642
f 357 643 576
f 958 978 454
f 694 774 732
f 701 669 699
f 667 628 666
f 675 703 674
f 682 695 681
f 695 643 357
f 681 695 357
f 86 92 43
f 657 654 350
f 679 694 576
f 679 576 643
f 679 648 694
f 638 155 83
f 806 783 386
f 382 684 676
f 695 350 643
f 350 679 643
f 996 274 1002
f 420 521 644
f 600 997 995
f 682 696 695
f 634 532 647
f 101 634 647
f 439 704 697
f 690 687 666
f 434 361 276
f 658 680 665
f 805 631 363
f 697 704 647
f 672 382 676
f 420 689 521
f 639 652 672
f 646 665 680
f 86 43 6
f 654 679 350
f 702 701 651
f 537 668 27
f 632 691 668
f 340 425 408
f 702 669 701
f 695 657 350
f 654 648 679
f 671 995 997
f 695 696 657
f 544 648 654
f 654 633 544
f 704 693 646
f 641 412 666
f 682 416 400
f 64 688 649
f 661 632 668
f 649 678 660
f 716 864 713
f 644 645 608
f 637 617 686
f 699 532 629
f 690 764 687
f 661 617 632
f 632 664 691
f 644 608 634
f 634 630 532
f 584 752 59
f 836 501 673
f 690 757 764
f 833 497 573
f 757 736 764
f 736 759 764
f 596 609 804
f 988 742 513
f 804 811 583
f 730 814 705
f 571 712 846
f 386 783 605
f 719 746 736
f 736 746 759
f 816 827 825
f 503 584 59
f 825 826 832
f 737 768 735
f 746 315 759
f 315 322 759
f 737 735 497
f 517 584 794
f 583 793 569
f 781 803 773
f 700 822 823
f 573 497 735
f 719 723 746
f 829 523 522
f 517 794 995
f 562 569 781
f 569 793 781
f 810 176 798
f 717 723 719
f 573 735 731
f 825 827 826
f 573 731 730
f 144 573 730
f 803 798 827
f 826 827 833
f 522 523 756
f 781 798 803
f 717 863 723
f 604 809 615
f 745 763 546
f 810 798 793
f 756 789 737
f 536 470 581
f 863 729 723
f 773 763 745
f 773 786 777
f 562 781 773
f 176 522 497
f 513 733 748
f 807 822 343
f 773 777 763
f 501 749 795
f 591 832 175
f 649 688 700
f 752 749 501
f 829 176 810
f 829 609 523
f 531 62 80
f 344 800 807
f 312 746 723
f 311 308 317
f 863 851 729
f 608 645 662
f 747 765 323
f 812 807 800
f 812 823 807
f 823 822 807
f 803 816 786
f 731 735 774
f 517 749 752
f 765 801 800
f 734 741 562
f 749 517 761
f 801 812 800
f 503 440 314
f 821 591 835
f 730 731 814
f 832 591 821
f 677 716 734
f 308 720 747
f 747 720 750
f 750 765 747
f 823 678 700
f 588 351 141
f 816 825 821
f 344 323 800
f 816 815 786
f 720 743 750
f 796 812 801
f 816 821 815
f 749 761 795
f 706 753 849
f 714 720 840
f 750 775 765
f 765 775 801
f 775 796 801
f 497 522 737
f 803 786 773
f 817 678 823
f 550 336 822
f 789 836 673
f 673 501 837
f 662 630 608
f 821 825 832
f 743 739 750
f 812 817 823
f 831 802 27
f 645 521 663
f 815 821 835
f 714 743 720
f 739 775 750
f 817 660 678
f 989 300 98
f 705 175 730
f 796 813 812
f 812 813 817
f 587 733 742
f 645 663 64
f 766 796 775
f 144 730 175
f 176 833 798
f 766 813 796
f 808 817 813
f 817 830 660
f 733 771 748
f 722 645 64
f 40 440 789
f 739 767 775
f 767 766 775
f 734 745 546
f 562 773 745
f 681 357 790
f 761 671 790
f 780 813 766
f 830 817 808
f 55 928 502
f 988 638 742
f 296 999 538
f 584 620 794
f 714 725 743
f 725 739 743
f 738 767 739
f 841 725 839
f 839 725 714
f 766 767 780
f 791 808 813
f 834 831 691
f 780 791 813
f 838 660 830
f 767 754 780
f 808 824 830
f 562 745 734
f 841 708 725
f 738 754 767
f 780 784 791
f 824 838 830
f 635 722 653
f 739 726 738
f 780 754 784
f 791 824 808
f 513 742 733
f 670 655 988
f 761 790 795
f 708 726 725
f 725 726 739
f 784 818 791
f 791 818 824
f 760 784 754
f 784 788 818
f 818 828 824
f 824 828 838
f 501 795 837
f 798 833 827
f 738 740 754
f 588 568 351
f 761 517 995
f 708 710 726
f 726 740 738
f 774 768 732
f 768 673 732
f 726 727 740
f 754 740 760
f 788 819 818
f 664 838 828
f 27 69 537
f 708 753 710
f 710 727 726
f 819 828 818
f 760 788 784
f 617 650 635
f 728 727 710
f 756 40 789
f 837 732 673
f 59 752 836
f 760 758 788
f 809 786 815
f 883 640 713
f 752 501 836
f 650 617 637
f 836 440 59
f 728 710 711
f 819 820 828
f 803 827 816
f 579 587 638
f 740 758 760
f 833 176 497
f 789 440 836
f 758 785 788
f 788 785 819
f 785 820 819
f 728 744 727
f 727 744 740
f 744 751 740
f 740 751 758
f 820 834 828
f 931 948 925
f 372 584 507
f 774 694 731
f 144 175 832
f 711 721 728
f 710 706 711
f 948 959 938
f 806 302 769
f 483 561 482
f 721 744 728
f 779 785 758
f 785 792 820
f 794 318 600
f 520 769 305
f 783 806 769
f 568 371 351
f 661 770 686
f 779 758 751
f 779 792 785
f 834 802 831
f 583 810 793
f 694 648 731
f 777 786 809
f 583 811 810
f 520 783 769
f 869 876 854
f 711 709 721
f 792 802 820
f 802 834 820
f 718 721 709
f 755 751 744
f 372 620 584
f 899 932 926
f 721 565 744
f 640 741 716
f 724 539 453
f 805 520 782
f 805 783 520
f 565 755 744
f 592 792 779
f 797 802 792
f 737 789 768
f 713 640 716
f 735 768 774
f 768 789 673
f 718 565 721
f 755 779 751
f 755 592 779
f 862 869 849
f 709 707 718
f 592 797 792
f 811 829 810
f 323 765 800
f 826 573 144
f 318 794 549
f 570 782 762
f 990 154 671
f 832 826 144
f 573 826 833
f 570 631 782
f 609 811 804
f 717 719 867
f 718 558 565
f 797 611 802
f 911 927 917
f 940 942 183
f 550 700 685
f 11 178 980
f 899 910 932
f 882 886 877
f 717 866 863
f 939 961 931
f 967 270 778
f 524 153 471
f 949 939 920
f 901 191 905
f 586 936 968
f 926 950 949
f 926 921 904
f 296 602 998
f 882 877 866
f 298 927 911
f 880 884 869
f 942 940 927
f 863 856 851
f 954 979 960
f 985 454 978
f 963 178 966
f 950 962 949
f 926 949 921
f 881 899 904
f 955 980 941
f 863 877 856
f 932 950 926
f 298 911 886
f 235 280 865
f 862 849 853
f 866 877 863
f 753 853 849
f 911 917 910
f 893 886 882
f 753 843 853
f 940 956 933
f 917 940 933
f 309 983 406
f 881 904 885
f 889 901 905
f 941 980 963
f 897 908 888
f 970 460 959
f 859 858 845
f 109 90 918
f 191 35 913
f 309 339 983
f 963 980 178
f 858 880 862
f 719 299 867
f 922 946 983
f 946 499 983
f 931 925 920
f 921 949 920
f 986 181 965
f 638 587 742
f 880 869 862
f 983 339 922
f 867 866 717
f 986 965 966
f 848 862 853
f 961 948 931
f 865 188 967
f 401 25 219
f 855 845 840
f 920 925 903
f 339 935 922
f 976 972 799
f 871 578 799
f 965 456 970
f 920 939 931
f 946 270 499
f 912 298 886
f 586 968 590
f 799 972 871
f 778 946 922
f 142 957 578
f 909 920 903
f 946 778 270
f 298 179 927
f 179 942 927
f 848 853 843
f 471 922 935
f 471 778 922
f 968 964 972
f 871 142 578
f 297 855 840
f 972 977 871
f 871 319 142
f 512 957 142
f 492 512 916
f 839 845 843
f 856 860 855
f 927 940 917
f 936 964 968
f 865 778 471
f 900 911 910
f 964 977 972
f 977 319 871
f 898 921 909
f 235 471 153
f 235 865 471
f 502 555 484
f 921 920 909
f 778 865 967
f 191 901 196
f 78 918 982
f 569 944 936
f 936 944 964
f 916 512 142
f 970 456 460
f 893 912 886
f 944 977 964
f 142 981 916
f 968 972 976
f 992 999 1001
f 904 921 898
f 713 874 883
f 874 452 883
f 319 981 142
f 956 20 955
f 993 991 563
f 940 183 956
f 677 868 864
f 874 713 872
f 907 452 874
f 569 945 944
f 977 984 319
f 319 943 981
f 840 845 839
f 841 843 708
f 945 952 944
f 944 952 977
f 952 984 977
f 858 862 848
f 894 893 882
f 978 958 973
f 984 943 319
f 870 892 880
f 186 912 893
f 864 872 713
f 872 890 874
f 890 907 874
f 943 72 981
f 916 951 492
f 905 913 894
f 301 901 889
f 981 72 916
f 910 917 932
f 945 528 952
f 354 72 943
f 887 905 894
f 475 80 104
f 875 872 864
f 914 463 907
f 354 943 984
f 969 354 984
f 72 951 916
f 492 918 90
f 867 882 866
f 587 579 39
f 952 969 984
f 969 975 354
f 870 880 858
f 868 875 864
f 875 890 872
f 906 907 890
f 906 914 907
f 354 928 72
f 928 951 72
f 492 951 918
f 858 859 870
f 706 710 753
f 937 724 914
f 510 493 131
f 535 861 677
f 266 338 226
f 266 1000 338
f 670 1000 682
f 861 868 677
f 906 937 914
f 973 958 724
f 975 928 354
f 712 847 846
f 847 535 846
f 847 861 535
f 878 875 868
f 902 890 875
f 889 905 887
f 928 982 951
f 951 982 918
f 902 906 890
f 909 903 884
f 845 848 843
f 878 868 861
f 902 875 878
f 850 861 847
f 953 973 724
f 892 884 880
f 870 885 892
f 885 898 892
f 842 847 712
f 923 937 906
f 937 953 724
f 928 55 982
f 887 882 867
f 985 973 953
f 985 978 973
f 887 894 882
f 499 516 983
f 895 902 878
f 956 180 20
f 852 850 847
f 850 873 861
f 879 878 861
f 947 937 923
f 947 953 937
f 55 78 982
f 191 913 905
f 852 847 842
f 896 895 878
f 953 974 985
f 851 855 297
f 845 858 848
f 856 855 851
f 879 896 878
f 929 947 923
f 616 563 116
f 986 966 178
f 904 898 885
f 707 842 712
f 852 854 850
f 888 896 879
f 495 934 55
f 299 887 867
f 854 873 850
f 947 974 953
f 842 844 852
f 909 884 892
f 839 843 841
f 844 842 707
f 857 852 844
f 960 974 947
f 962 939 949
f 845 855 859
f 855 860 859
f 889 887 299
f 876 873 854
f 930 947 929
f 930 960 947
f 860 870 859
f 898 909 892
f 709 844 707
f 857 854 852
f 881 885 870
f 860 881 870
f 930 929 924
f 960 979 974
f 886 911 900
f 877 886 900
f 900 881 860
f 877 900 860
f 877 860 856
f 952 528 482
f 969 952 482
f 873 876 891
f 879 861 873
f 891 903 897
f 891 897 888
f 873 891 888
f 888 879 873
f 970 959 948
f 932 917 933
f 956 955 941
f 965 970 948
f 965 948 961
f 966 965 961
f 963 966 961
f 941 963 961
f 950 932 933
f 933 956 941
f 933 941 961
f 962 950 933
f 961 939 962
f 896 888 908
f 908 915 919
f 908 919 924
f 896 908 924
f 923 906 902
f 924 929 923
f 923 902 895
f 923 895 896
f 924 923 896
f 933 961 962
