OFF
502 1000 0
-0.03608858 0.1727438 -0.002412614
-0.009843671 0.1296672 0.02037588
-0.03187512 0.125505 0.001884516
-0.01120316 0.0455021 0.04901026
0.04193846 0.09243676 -0.005723537
-0.02157563 0.04140618 0.05347495
-0.0532661 0.04863084 0.03828752
-0.001776316 0.04314354 0.0466251
-0.0002827655 0.0530745 0.05366925
-0.06536832 0.1566914 -0.00978994
-0.02799725 0.09052765 -0.03088909
-0.0124467 0.1232191 0.03282353
-0.02386346 0.05483175 0.04194098
-0.018431 0.05178743 0.04804396
-0.04128095 0.0489966 0.04014173
-0.008825748 0.05633925 0.05368706
0.04173862 0.0475622 0.0312307
-0.04910937 0.160463 0.00741949
-0.07218452 0.09264843 -0.01545738
-3.672356e-05 0.1224172 0.03547697
0.03808372 0.1082812 0.001924094
0.0417292 0.1036395 0.008559926
-0.03210926 0.06192993 0.03899896
0.009540308 0.1310827 0.01421833
-0.01547148 0.06066861 0.05258278
0.00669954 0.06059931 0.05478453
-0.002583264 0.06418171 0.05654793
-0.003089292 0.1284715 0.02767177
-0.05290408 0.06814916 0.03745349
0.01941345 0.1056915 -0.01772232
-0.07257805 0.1135194 -0.007902486
0.002485323 0.06910069 0.05605341
-0.02111568 0.07004448 0.05070411
-0.07350409 0.1782862 -0.04974831
0.01329749 0.1007167 -0.02210976
-0.01200512 0.1160202 0.03905398
-0.08895477 0.09670363 0.02014152
-0.02666156 0.06588638 0.04006966
-0.01174848 0.07118739 0.05564347
-0.02916323 0.07483387 0.04155873
-0.005212927 0.07078653 0.05747555
0.03139634 0.1178242 0.02043429
0.04554447 0.08993255 0.01134639
-0.07585297 0.1564214 -0.006865264
-0.04221975 0.07634277 0.04243378
-0.01762958 0.07978389 0.05655899
-0.03527511 0.0699533 0.04137249
-0.02987048 0.179233 -0.007199341
-0.06578071 0.1599625 -0.05472379
-0.03815199 0.1720627 -0.01117465
-0.005191728 0.07984138 0.05789054
-0.03559214 0.07977573 0.04238292
0.003425466 0.07806155 0.05671053
0.02338291 0.1246523 0.01953194
-0.04318899 0.1703223 -0.002420496
0.03714798 0.1107986 0.01800102
0.004801918 0.08594644 0.05666001
-0.06369389 0.08239226 0.04331367
-0.006365951 0.1306013 0.00879798
-0.005753891 0.08791331 0.05690244
-0.05107301 0.0827431 0.04490566
-0.07223663 0.1558868 -0.03835918
-0.0586119 0.0891062 0.044914
0.02020832 0.08807074 0.04931534
-0.03224349 0.08824671 0.04333007
-0.05238715 0.0912517 0.04471908
-0.03984843 0.08732292 0.04321131
-0.06103619 0.09975031 0.04266929
-0.01007566 0.09394182 0.05522024
0.001691504 0.0950953 0.05404293
0.01837375 0.09680172 0.04754608
0.008921426 0.0992978 0.04816022
-0.03424291 0.09786823 0.04354864
0.05438728 0.06405161 0.0270419
-0.02707808 0.09535992 0.04472296
-0.07298978 0.06946905 0.0280029
0.04539002 0.08551798 0.01882821
-0.09138149 0.1207918 0.007002455
-0.0003384897 0.103071 0.04443032
-0.02271174 0.1269064 0.01070067
-0.04269385 0.09773464 0.04242507
0.0009753857 0.1313464 0.01725599
-0.06785892 0.1053526 0.03903391
-0.0621463 0.1446529 -0.006039131
-0.06243266 0.1540366 0.001152056
0.009121416 0.1057017 0.04287857
-0.01151533 0.1049601 0.04323706
-0.04219053 0.1166912 0.03226412
-0.0593814 0.1084653 0.03870959
-0.05046121 0.1048862 0.04058636
-0.02079824 0.1090078 0.04089333
0.01952574 0.1061419 0.04171674
0.0002233727 0.1131621 0.04148306
-0.0384655 0.1071533 0.03894857
-0.02961842 0.1095778 0.0380514
0.01008595 0.1143702 0.03863967
0.01655207 0.127139 0.02329723
0.007479338 0.0464246 0.04809755
0.02653614 0.1194847 0.02788032
0.03273457 0.04608745 0.03107868
-0.06434245 0.1204704 0.04791185
0.04942899 0.04619467 0.02349289
-0.0507196 0.1513662 0.01187183
0.03324884 0.1077407 0.03149658
0.01705309 0.0554773 0.04840107
0.02013117 0.04425017 0.04183114
-0.05577386 0.1172018 0.03676077
-0.05067179 0.1275184 0.03203385
-0.0530375 0.1486539 0.02096064
0.05065501 0.05427975 0.0292699
0.02781874 0.0514559 0.03855464
0.02750941 0.1127865 0.03383277
-0.04148051 0.159505 0.005043912
0.03466101 0.05725209 0.03618439
-0.02892841 0.1688848 -0.00788269
-0.05777011 0.1391631 0.03270767
0.04136127 0.05875108 0.03116182
-0.06706858 0.1441574 0.04200601
0.02547542 0.06402072 0.04462142
-0.00527818 0.09964307 0.04934854
-0.04660348 0.1459057 0.005446514
0.03447976 0.09586762 0.03789544
0.01425889 0.06772023 0.05248429
-0.06645036 0.1117138 0.03984766
-0.03594684 0.1636434 -0.0015636
-0.0733579 0.1370523 0.04910909
0.01779663 0.1134367 0.03751771
0.03864464 0.06863593 0.0343428
0.04597463 0.06541543 0.02828382
0.03341301 0.06788505 0.03968083
0.04457917 0.07442499 0.02479124
0.02545122 0.07560447 0.04700466
-0.07336072 0.126715 0.05238429
0.03068418 0.08496367 0.0433293
0.03631809 0.07890336 0.03792932
0.04101324 0.0964504 0.027209
-0.05819295 0.1506021 0.03215273
-0.01689762 0.1625631 -0.01005376
-0.06524025 0.1335138 0.04253636
0.0130316 0.1225976 0.03337927
-0.06348831 0.1667606 -0.03964004
-0.05754597 0.127649 0.03888735
0.01227379 0.0765556 0.05475927
-0.02702987 0.158788 -0.0005408677
0.04295302 0.08413514 0.02789613
0.0242847 0.1018637 0.04242329
-0.01155021 0.169362 -0.02062368
-0.01545164 0.1792964 -0.02029737
0.01179451 0.08967968 0.05324783
0.03991446 0.09014431 0.03218365
0.02762012 0.09332165 0.04417625
-0.0237262 0.1677229 -0.01090613
-0.02242956 0.1753504 -0.01360975
0.04403099 0.09626722 0.01631704
0.02035951 0.03975142 -0.01279651
0.04551596 0.04169543 0.005660614
-0.06193221 0.1565133 -0.03200745
-0.03653908 0.1526251 0.00195831
0.02417848 0.04792501 -0.01934497
0.05762937 0.05277768 0.007833729
0.03298615 0.05470568 -0.01204852
0.02775562 0.05649332 -0.02003328
-0.06478486 0.0604225 0.01853563
0.05922741 0.05752454 0.01923048
-0.04888329 0.1342794 0.02324888
0.02645485 0.06313529 -0.02239158
0.03545164 0.06305933 -0.01427513
-0.06193708 0.1527845 -0.02200844
-0.0643537 0.1723501 -0.04862601
0.05853242 0.06813256 0.01996108
0.06071373 0.06331692 0.01103712
0.04502279 0.09391248 0.006011231
-0.08784993 0.1042811 0.01216426
-0.08160018 0.1088129 0.02943032
0.0263779 0.1177783 -0.005510373
0.04253157 0.09766448 -0.0004104081
0.02855963 0.07355733 -0.0225636
-0.06391068 0.1613917 -0.02018305
0.03984823 0.07131331 -0.00977726
0.03518245 0.06900237 -0.01562029
-0.04038818 0.1209196 -0.01197646
-0.06351883 0.1706459 -0.05998822
0.04369121 0.07191104 -0.0014906
-0.06201995 0.168092 -0.05311828
-0.05807705 0.1242698 -0.008011541
0.04081619 0.1030381 0.02018155
0.03314441 0.08113908 -0.01838226
-0.08714639 0.1097701 0.01240746
0.0416 0.08216777 -0.008111291
-0.08548861 0.1059165 0.004690994
0.04517861 0.08315945 0.002083161
-0.09098389 0.1422229 0.01654127
-0.06589898 0.1789184 -0.05762107
-0.08310569 0.1238934 -0.0042358
-0.07676538 0.1556407 0.02248111
-0.01064354 0.1781875 -0.02784273
-0.06717208 0.1543736 0.03094524
-0.07968478 0.1535859 0.02884433
-0.07224615 0.1637682 -0.01445874
-0.06297984 0.1559937 0.01935975
-0.09278509 0.1223746 0.0340337
-0.08827798 0.09475822 0.006963973
-0.07379605 0.1702461 -0.03383302
-0.04134306 0.1288081 0.01035368
-0.08572071 0.1516708 0.009331973
-0.09017388 0.1348374 0.01042041
-0.08917493 0.1145896 0.02630717
0.03116577 0.1176642 0.002155034
-0.09193559 0.1145027 0.01700657
0.0564665 0.07156998 0.008850379
-0.03609044 0.1244838 0.02323056
-0.02790684 0.118934 0.03042747
-0.02387921 0.1243504 0.02259193
-0.04803748 0.1363729 0.01235627
-0.0449226 0.125852 0.02385543
0.02225359 0.1148681 -0.01203446
-0.02437206 0.1817807 -0.0135541
0.03522421 0.1138625 0.007804529
-0.03446266 0.1272329 0.01229843
0.02565937 0.122963 0.005992544
-0.08284144 0.09840743 -0.004866391
0.006306685 0.1289977 0.02631762
-0.09143267 0.1297214 0.0324597
-0.06198384 0.1559281 0.009291596
0.05371352 0.07220561 0.02004848
0.04683415 0.07714023 0.01132735
0.03015899 0.1197674 0.01197231
0.001962942 0.1310106 0.004428462
-0.07184109 0.1055471 -0.01185759
-0.08758281 0.1321512 0.002091177
-0.06693677 0.1678978 -0.0297776
-0.08583932 0.1065871 0.02090848
-0.09261069 0.1278296 0.0115508
-0.07472503 0.1557147 0.009837343
0.01809852 0.1279914 0.01063338
-0.07049242 0.03632 0.003308158
-0.06141228 0.040112 0.02284574
-0.06330746 0.04229131 0.03984608
-0.03668348 0.04237312 0.04320941
-0.03074234 0.03542549 0.04863988
-0.0290868 0.04645341 0.04871999
-0.07616664 0.09918869 0.03679448
-0.07517467 0.08658279 0.03898174
-0.05478399 0.04248906 0.04546154
-0.08275624 0.1393374 0.04590195
-0.06367286 0.04544067 0.008898154
-0.08360456 0.08592218 0.0296977
-0.02072958 0.08694789 0.0551526
-0.02122732 0.09492627 0.04919859
-0.07777486 0.1644797 -0.02588556
-0.05420171 0.05282856 0.01023127
-0.05267158 0.04652059 0.01995324
-0.03066958 0.05413591 0.03775606
-0.01904345 0.09994006 0.04494965
-0.08876423 0.1479911 0.02768044
-0.07525276 0.1484592 0.04051912
-0.07220222 0.07669286 0.0368573
-0.08069176 0.1296072 0.05230671
-0.04385827 0.06155844 0.03962359
-0.08392536 0.1186395 0.04858789
-0.05000618 0.05633312 0.03282376
-0.06970442 0.09287869 0.04227184
-0.0828205 0.1119088 0.0001730708
-0.0229775 0.06511695 0.04537984
-0.08842049 0.1359813 0.04131564
-0.04891941 0.1544971 -0.005738444
-0.09130917 0.116287 0.04046488
0.01529439 0.1113822 -0.01713903
-0.08341644 0.0975117 0.03004614
-0.02817136 0.08417095 0.04727292
-0.08522312 0.1470518 0.0353872
-0.08828648 0.1284764 0.04553949
-0.0705713 0.1695535 -0.05059657
-0.07330557 0.164186 -0.03952629
-0.04561704 0.03716537 -0.01968682
-0.02450086 0.09750057 -0.02498786
-0.07456495 0.1508259 -0.02550627
-0.09403307 0.1264218 0.02154822
-0.04178062 0.04534971 -0.01693321
-0.03996572 0.04850573 -0.01225674
-0.0567178 0.05135536 5.533665e-06
-0.05571358 0.04837795 0.03014429
-0.0888865 0.1514572 0.01816126
-0.03009224 0.05070285 -0.01974053
-0.05201941 0.0545535 -0.007662538
-0.07174572 0.1502662 -0.04054389
-0.02686504 0.05557217 -0.02634481
-0.03301612 0.05467476 -0.01167282
-0.09016142 0.1373415 0.02299315
-0.0559126 0.06269134 -0.006731507
-0.02914021 0.1685418 -0.01686788
-0.03475356 0.09695203 -0.02297914
-0.05591653 0.09635635 -0.02103993
-0.0306337 0.06170985 -0.0214726
-0.07672176 0.1572373 -0.02025781
-0.08956304 0.1373643 0.03239992
-0.06175784 0.0655002 -0.00783712
-0.08475709 0.1434854 0.004818302
-0.05131591 0.1642967 -0.0007821249
-0.07473726 0.1733141 -0.04026143
-0.07669649 0.06904475 0.004512431
-0.0286991 0.07050686 -0.03200704
-0.07400114 0.1593614 -0.03112207
-0.08175601 0.08021105 -0.003524101
-0.0711813 0.1483136 -0.03149713
-0.08574425 0.08312682 0.003115156
-0.03468355 0.07374612 -0.02095874
-0.01671978 0.1851198 -0.02342569
-0.0332156 0.0851497 -0.02678884
-0.02398712 0.1089899 -0.02047636
0.003344482 0.1206234 -0.01358944
-0.08591758 0.08190265 0.01737142
-0.07087885 0.157461 -0.0451672
-0.0792474 0.08612266 -0.009604177
-0.0885767 0.08845388 0.01743761
-0.07960773 0.1492277 -0.0007885656
-0.07569841 0.1489183 -0.01208742
0.05798452 0.0636869 0.003225696
-0.02532854 0.1200463 -0.01035103
-0.0149986 0.1083442 -0.02099851
0.04835494 0.07104335 0.004025499
-0.05132723 0.1217096 -0.01107058
0.01254341 0.1164491 -0.0155858
0.00859627 0.1103589 -0.01957052
0.005286201 0.1268765 -0.005446137
-0.0454423 0.1138309 -0.01640665
-0.008783392 0.1060445 -0.02292375
0.03626311 0.1006831 -0.01022868
0.0001557475 0.1003078 -0.0241209
-0.03543642 0.1147907 -0.01590451
-0.03776611 0.04508182 -0.02433229
-0.03313273 0.1224633 -0.007575927
0.03341429 0.1107774 -0.005820525
0.008700643 0.09283512 -0.02999017
-0.01640457 0.09781676 -0.02665084
-0.008631037 0.09328851 -0.03454706
-0.008463035 0.1193343 -0.01359418
-0.05299773 0.1397523 -0.0003838295
0.02939282 0.1006885 -0.01611784
-0.01489608 0.1284162 0.004981376
-0.04910909 0.0375981 -0.01231438
0.01729725 0.08860442 -0.02743221
0.01387028 0.1236299 -0.00774834
-0.04981864 0.131443 -0.0008489331
0.03664963 0.09116662 -0.01425588
0.02473485 0.09569517 -0.02107671
0.02656649 0.1087667 -0.01333287
-0.01669071 0.0926858 -0.03529106
-0.02263762 0.1251429 -6.965726e-05
0.01272451 0.1292206 0.00277823
-0.04157482 0.127103 -0.003387296
0.02045442 0.1237316 -0.002127151
-0.01884952 0.1183637 -0.01303808
-0.01675672 0.1249049 -0.003957628
-0.005546115 0.1276325 -0.004317859
-0.02378322 0.03568087 -0.02823126
-0.01081188 0.04030488 -0.02628766
-0.03288867 0.033935 -0.02675799
-0.06341986 0.03488411 -0.006062016
0.009940268 0.03893449 -0.02319388
-0.02845841 0.04420402 -0.02836359
0.04022776 0.04329666 -0.002344794
0.01681452 0.0453557 -0.02344527
-0.01831457 0.04579473 -0.02826712
0.002389274 0.1085793 -0.0206055
-0.06040476 0.03427011 0.02372824
-0.000423843 0.03934651 -0.02453126
-0.003160155 0.04734014 -0.02972736
-0.0102932 0.04654711 -0.0292793
0.02600452 0.04323532 -0.007100271
-0.0449575 0.1031959 -0.0209055
-0.05969019 0.1154008 -0.01330285
-0.04515454 0.162644 -0.008866834
-0.04946335 0.04534011 -0.009473312
0.0463993 0.04914619 -0.004277894
-0.008583295 0.05305768 -0.03289317
-0.06022776 0.04482094 -0.00422736
0.008267638 0.04895349 -0.02797926
-0.0177583 0.05420924 -0.03260952
0.0340646 0.04828071 -0.006556877
0.02024959 0.05866291 -0.02718195
-0.06776267 0.1218145 -0.008833201
0.01279169 0.05880574 -0.02954609
-0.07448871 0.1249545 -0.008148391
0.001428266 0.05685254 -0.0318677
-0.02569094 0.06008312 -0.03040304
0.05398898 0.05826786 -0.001756475
-0.01577669 0.06190811 -0.03622178
0.04151499 0.05759013 -0.005551589
-0.005081896 0.06329064 -0.03475207
-0.06570029 0.1327631 -0.008371085
-0.04348502 0.05441685 -0.01096468
0.0464992 0.06226221 -0.002990719
-0.06409671 0.1030104 -0.01684879
-0.0360545 0.1596445 -0.0126099
-0.0310217 0.1056897 -0.02119709
-0.04958759 0.06522124 -0.01278641
-0.054334 0.1076536 -0.01846926
-0.03721402 0.0628107 -0.01341934
-0.02153162 0.1791165 -0.02176079
-0.01798651 0.06987542 -0.03833225
-0.04320662 0.07007886 -0.01679703
-0.006896899 0.07403735 -0.03701273
-0.05933339 0.1337979 -0.006685117
0.005059207 0.07360229 -0.03447634
-0.07832636 0.1360919 -0.004966019
0.008824801 0.0679797 -0.0321093
-0.02599992 0.08025326 -0.03709821
-0.08140557 0.07400404 0.01631972
0.02063615 0.06925659 -0.02789501
-0.07557541 0.07317927 -0.006265694
-0.06583701 0.07431993 -0.0156339
0.01625173 0.07592748 -0.02910505
-0.01612079 0.0819657 -0.03884849
-0.04130518 0.08174385 -0.02048091
0.02287586 0.08245649 -0.02563114
0.002749491 0.08034553 -0.03496185
-0.05288762 0.07626518 -0.01860157
-0.007108326 0.08420262 -0.0378271
-0.06701951 0.08334068 -0.01810571
0.007843678 0.0832871 -0.03274158
-0.0459391 0.08948231 -0.02221227
-0.05960127 0.08969508 -0.02031807
-0.002370172 0.09314027 -0.033464
0.00413188 0.03427665 -0.02002788
0.01444731 0.03528217 -0.01809428
-0.04231981 0.03626031 -0.02631655
-0.03567331 0.0356711 -0.01744471
-0.003432164 0.03717597 -0.01472858
-0.01159914 0.03579121 -0.01957528
-0.04154753 0.0346534 -0.01010232
0.01838212 0.03464382 -0.001055921
-0.02842127 0.03839862 -0.007168457
0.00885536 0.03585381 -0.008652874
-0.0218477 0.03705833 -0.01745473
0.007946714 0.03552537 0.0040846
-0.008770776 0.03888113 -0.005163083
0.02954595 0.03767112 -0.0008585594
-0.05620556 0.03607171 -0.01025424
0.0304867 0.03487898 0.00920574
-0.05270699 0.03341868 -0.003648073
-0.01877042 0.03846048 -0.00291633
0.0006877493 0.0374718 0.001328426
0.02192498 0.03577231 0.008582851
-0.04194748 0.03415425 -0.0008540898
-0.01041931 0.03844517 0.008580572
-0.02216471 0.03834012 0.01256123
0.001041409 0.03473882 0.01233443
0.01846497 0.03491209 0.02494228
0.05163028 0.04506161 0.01274335
-0.02703819 0.03850829 0.002658962
0.02814744 0.03620963 0.02152689
-0.0377625 0.03494603 0.008148509
0.002870059 0.03636732 0.02200884
0.00852638 0.03475043 0.02432113
0.04001384 0.03893166 0.01689186
-0.06374689 0.03454395 0.01026543
-0.01551734 0.03825625 0.02014249
0.0236065 0.03852837 0.03426082
0.03601689 0.03930383 0.02367615
-0.06363864 0.03574166 0.01578543
-0.004378414 0.03812788 0.0201753
-0.08333631 0.1107454 0.04047898
-0.05368312 0.03372487 0.01296054
-0.03451328 0.03441654 0.02107056
-0.02779691 0.03786673 0.02393388
-0.003432262 0.03947777 0.03320252
0.01386429 0.03695557 0.04264561
-0.05964112 0.06406025 0.03039753
-0.02485194 0.03929127 0.03233853
0.007275742 0.0380703 0.03200584
-0.04812352 0.07378388 0.04215785
-0.07642563 0.1069525 0.03591591
-0.06313984 0.06030544 0.003279504
-0.03542784 0.03449972 0.03448173
-0.01360495 0.03883592 0.03234768
-0.00161645 0.03452463 0.04246706
-0.04780583 0.03439965 0.03062305
-0.06214057 0.07248597 0.03907987
0.006732512 0.03494563 0.04326021
-0.08065117 0.07755094 0.02770057
-0.04233306 0.03456408 0.03856029
-0.01397854 0.03686947 0.04170603
-0.02135042 0.03438867 0.04740067
-0.07342101 0.1135191 0.04942845
-0.07224182 0.06384901 0.01418651
-0.06284449 0.03556628 0.03266652
-0.05378829 0.03464298 0.04190425
-0.0548495 0.05869504 0.02344077
-0.06244721 0.03676965 0.04144527
-0.04658325 0.03852718 0.04470688
-0.006567401 0.03777267 0.04828245
-0.01667601 0.03715035 0.05158676
-0.03970674 0.1505989 -0.004803938
-0.05569286 0.1473813 -0.002022876
-0.01915316 0.1669524 -0.01923128
-0.06349725 0.1462359 -0.0138049
-0.06399222 0.1577631 -0.04630016
-0.0703626 0.1402539 -0.008759585
-0.02726935 0.1560833 -0.008172032
-0.06519453 0.1521783 -0.03800148
-0.06639595 0.1468267 -0.02427618
3 58 339 1
3 33 168 192
3 277 288 205
3 102 223 199
3 199 196 136
3 58 227 354
3 96 23 221
3 221 19 139
3 259 132 257
3 221 81 27
3 198 230 249
3 227 23 349
3 283 279 287
3 205 288 191
3 314 36 201
3 255 244 125
3 413 347 418
3 287 391 398
3 132 125 257
3 182 188 190
3 97 25 8
3 49 372 54
3 34 333 328
3 172 36 231
3 27 11 19
3 232 205 229
3 484 100 132
3 125 117 255
3 190 171 42
3 199 194 196
3 498 83 390
3 81 58 1
3 304 285 500
3 200 206 266
3 16 116 99
3 79 339 348
3 311 314 305
3 67 82 261
3 50 56 59
3 50 52 56
3 146 399 195
3 212 210 211
3 81 1 27
3 152 47 114
3 291 395 275
3 62 67 261
3 69 148 71
3 245 250 280
3 67 88 82
3 126 139 95
3 62 261 57
3 92 19 35
3 62 65 67
3 71 85 78
3 92 95 19
3 91 95 85
3 26 25 31
3 85 92 78
3 280 250 473
3 285 312 497
3 89 106 88
3 31 40 26
3 60 57 478
3 57 60 62
3 60 65 62
3 65 89 67
3 8 25 26
3 8 26 15
3 25 122 31
3 67 89 88
3 70 91 85
3 471 60 478
3 167 177 9
3 181 192 168
3 168 299 140
3 282 191 288
3 80 89 65
3 265 493 120
3 142 52 31
3 243 490 6
3 89 87 106
3 16 109 116
3 465 474 464
3 7 97 8
3 83 498 496
3 227 58 81
3 44 60 471
3 89 93 87
3 108 136 115
3 14 6 490
3 329 370 325
3 44 66 60
3 60 66 65
3 23 227 81
3 66 80 65
3 23 81 221
3 89 80 93
3 112 54 17
3 258 44 471
3 44 51 66
3 22 258 14
3 31 52 40
3 258 46 44
3 66 72 80
3 59 56 69
3 1 339 79
3 252 22 14
3 386 317 159
3 51 44 46
3 52 50 40
3 69 119 68
3 124 54 112
3 238 252 14
3 46 258 22
3 93 94 87
3 494 265 120
3 51 64 66
3 66 64 72
3 93 80 72
3 94 211 87
3 39 51 46
3 155 386 159
3 31 122 142
3 205 297 229
3 59 69 68
3 37 46 22
3 37 39 46
3 51 269 64
3 64 74 72
3 70 85 71
3 19 11 35
3 157 499 143
3 51 39 269
3 269 74 64
3 94 93 72
3 21 153 171
3 194 254 197
3 188 4 190
3 7 8 15
3 140 202 230
3 74 94 72
3 501 496 498
3 74 253 94
3 86 78 92
3 240 13 12
3 90 94 253
3 90 211 94
3 179 186 178
3 5 13 240
3 78 69 71
3 499 394 290
3 221 27 19
3 211 11 212
3 429 441 434
3 35 211 90
3 91 126 95
3 247 68 248
3 5 3 13
3 355 356 429
3 86 35 90
3 11 211 35
3 56 148 69
3 32 38 45
3 45 59 247
3 91 111 126
3 13 15 24
3 59 68 247
3 139 19 95
3 3 15 13
3 24 15 38
3 38 50 45
3 50 59 45
3 171 175 21
3 26 38 15
3 92 35 86
3 40 38 26
3 40 50 38
3 491 7 3
3 7 15 3
3 109 73 128
3 156 167 501
3 170 317 209
3 265 394 493
3 5 239 483
3 82 88 123
3 132 138 125
3 130 225 76
3 163 109 101
3 132 100 138
3 125 138 117
3 127 129 113
3 102 108 213
3 151 152 114
3 134 149 133
3 190 42 225
3 213 337 120
3 91 145 111
3 496 501 167
3 110 104 105
3 100 141 138
3 141 115 138
3 115 117 138
3 142 148 56
3 88 106 123
3 106 100 123
3 100 106 141
3 117 115 136
3 98 139 126
3 111 98 126
3 163 73 109
3 494 120 337
3 141 107 115
3 175 20 21
3 142 131 63
3 147 307 216
3 107 141 106
3 99 113 110
3 91 70 145
3 146 152 151
3 429 434 355
3 149 121 133
3 118 131 122
3 137 146 151
3 152 146 147
3 134 133 131
3 131 133 63
3 142 63 148
3 25 97 104
3 281 251 236
3 121 149 135
3 107 214 164
3 110 118 104
3 103 111 145
3 144 149 134
3 120 102 213
3 116 127 113
3 214 107 87
3 163 169 73
3 104 118 122
3 113 99 116
3 190 225 320
3 114 47 0
3 124 114 0
3 499 137 143
3 143 114 124
3 71 148 70
3 131 142 122
3 145 121 103
3 172 231 187
3 133 121 150
3 128 130 127
3 317 170 159
3 128 127 116
3 0 49 54
3 143 151 114
3 63 70 148
3 121 135 103
3 147 216 152
3 213 343 337
3 109 128 116
3 113 118 110
3 467 105 97
3 97 105 104
3 48 181 183
3 113 129 118
3 120 17 102
3 492 3 5
3 101 109 16
3 458 110 105
3 133 150 63
3 99 110 458
3 150 70 63
3 290 495 137
3 129 131 118
3 103 185 55
3 120 112 17
3 134 131 129
3 408 480 311
3 157 112 120
3 289 296 417
3 52 142 56
3 130 144 134
3 394 499 493
3 130 134 127
3 449 159 163
3 191 297 205
3 150 121 145
3 298 17 54
3 4 327 175
3 137 151 143
3 360 426 330
3 54 124 0
3 157 143 112
3 143 124 112
3 491 476 7
3 135 185 103
3 119 78 86
3 327 332 20
3 145 70 150
3 85 95 92
3 127 134 129
3 246 36 314
3 465 469 474
3 374 386 155
3 206 277 208
3 36 172 201
3 156 177 167
3 459 99 451
3 262 187 77
3 414 308 306
3 308 421 291
3 147 146 195
3 77 277 232
3 297 191 204
3 266 271 200
3 446 465 464
3 166 160 161
3 189 187 262
3 156 140 230
3 186 188 178
3 160 379 369
3 172 189 201
3 173 206 231
3 208 277 77
3 497 140 156
3 25 104 122
3 200 271 222
3 232 277 205
3 191 282 204
3 496 9 83
3 497 156 500
3 429 366 428
3 501 304 500
3 120 493 157
3 231 206 208
3 106 87 107
3 295 270 254
3 408 311 305
3 188 344 4
3 165 161 380
3 481 238 490
3 497 183 140
3 176 186 179
3 183 168 140
3 395 291 370
3 154 369 431
3 290 137 499
3 166 179 178
3 165 179 166
3 165 176 179
3 222 295 288
3 159 449 155
3 424 359 425
3 144 135 149
3 161 160 158
3 425 362 154
3 166 178 388
3 181 168 183
3 497 48 183
3 76 135 144
3 171 153 42
3 335 418 347
3 160 166 388
3 362 158 154
3 374 155 361
3 108 115 164
3 158 160 369
3 459 16 99
3 158 369 154
3 190 4 171
3 178 182 392
3 76 153 135
3 421 308 414
3 496 167 9
3 348 318 331
3 186 344 188
3 213 108 164
3 156 230 177
3 153 185 135
3 101 449 163
3 178 188 182
3 42 153 76
3 21 55 185
3 42 76 225
3 163 170 169
3 171 4 175
3 159 170 163
3 21 185 153
3 43 315 233
3 204 282 194
3 233 204 194
3 196 255 117
3 187 189 172
3 209 224 169
3 224 130 73
3 73 130 128
3 198 43 9
3 225 224 209
3 224 225 130
3 204 233 315
3 486 281 236
3 1 212 11
3 223 102 17
3 282 254 194
3 225 209 320
3 79 218 212
3 231 208 187
3 233 223 84
3 203 214 210
3 203 218 2
3 480 256 246
3 209 169 170
3 213 164 214
3 47 49 0
3 9 43 84
3 197 255 196
3 233 199 223
3 233 194 199
3 210 214 87
3 218 203 210
3 218 79 2
3 203 213 214
3 84 43 233
3 474 238 481
3 254 282 288
3 197 270 255
3 1 79 212
3 73 169 224
3 2 79 348
3 177 198 9
3 20 217 21
3 55 41 103
3 33 299 168
3 102 199 108
3 98 103 41
3 98 111 103
3 55 226 41
3 20 332 217
3 217 226 55
3 210 87 211
3 332 207 217
3 140 299 202
3 218 210 212
3 53 98 41
3 350 203 2
3 217 207 226
3 199 136 108
3 194 197 196
3 219 226 207
3 226 53 41
3 98 96 139
3 98 53 96
3 78 119 69
3 226 219 53
3 21 217 55
3 11 27 1
3 305 314 201
3 195 307 147
3 297 204 315
3 230 202 249
3 234 53 219
3 234 96 53
3 119 253 68
3 230 198 177
3 234 219 351
3 96 221 139
3 349 234 351
3 13 24 263
3 408 305 300
3 117 136 196
3 187 208 77
3 23 234 349
3 23 96 234
3 279 391 287
3 263 24 32
3 399 216 307
3 12 263 37
3 473 296 289
3 500 156 501
3 32 45 269
3 446 450 441
3 260 14 258
3 57 261 242
3 198 249 294
3 198 294 43
3 57 242 256
3 253 248 68
3 32 269 39
3 237 489 243
3 260 258 28
3 10 308 291
3 24 38 32
3 13 263 12
3 22 12 37
3 484 132 259
3 252 12 22
3 495 290 399
3 306 401 414
3 394 372 49
3 86 253 119
3 261 82 241
3 39 263 32
3 248 74 269
3 490 238 14
3 490 243 487
3 257 271 259
3 271 257 244
3 36 268 231
3 487 243 489
3 456 245 235
3 468 488 260
3 242 261 241
3 270 244 255
3 243 6 237
3 45 247 269
3 311 246 314
3 246 268 36
3 271 244 264
3 460 245 456
3 240 238 239
3 247 248 269
3 239 5 240
3 240 12 252
3 115 107 164
3 216 47 152
3 309 275 395
3 264 244 270
3 9 84 83
3 357 426 360
3 37 263 39
3 240 252 238
3 74 248 253
3 245 251 250
3 486 236 365
3 472 173 268
3 14 260 6
3 365 236 460
3 236 245 460
3 18 220 228
3 236 251 245
3 97 479 467
3 246 242 268
3 242 241 268
3 241 472 268
3 370 329 395
3 49 290 394
3 256 242 246
3 259 271 266
3 47 216 290
3 161 158 380
3 336 326 319
3 326 328 423
3 251 281 488
3 324 342 310
3 272 181 48
3 272 33 192
3 497 312 48
3 312 272 48
3 281 6 260
3 279 283 278
3 272 299 33
3 312 273 272
3 197 254 270
3 61 273 312
3 273 299 272
3 273 202 299
3 273 302 202
3 322 267 323
3 61 302 273
3 339 354 353
3 347 413 10
3 304 61 285
3 304 302 61
3 302 249 202
3 301 308 407
3 10 407 308
3 246 311 480
3 385 293 301
3 301 306 308
3 276 302 304
3 294 249 302
3 286 293 385
3 293 306 301
3 231 268 173
3 295 264 270
3 276 294 302
3 274 330 426
3 267 346 29
3 260 488 281
3 354 336 353
3 293 286 283
3 277 222 288
3 316 294 276
3 288 295 254
3 77 232 229
3 278 330 274
3 278 283 330
3 501 316 276
3 293 398 306
3 237 281 486
3 283 287 293
3 200 277 206
3 340 278 274
3 200 222 277
3 501 498 316
3 287 398 293
3 454 453 447
3 340 373 278
3 373 279 278
3 316 43 294
3 411 313 419
3 358 235 376
3 90 253 86
3 313 220 18
3 47 290 49
3 342 322 310
3 438 376 373
3 405 316 498
3 227 349 324
3 376 280 284
3 262 30 228
3 2 331 350
3 405 315 316
3 284 280 289
3 298 54 372
3 303 305 313
3 315 43 316
3 410 300 303
3 297 315 405
3 222 271 264
3 303 313 410
3 296 473 410
3 305 220 313
3 473 289 280
3 473 300 410
3 189 262 220
3 405 193 229
3 305 201 220
3 77 229 193
3 235 245 376
3 441 432 434
3 245 280 376
3 193 262 77
3 237 6 281
3 300 305 303
3 201 189 220
3 453 466 461
3 174 351 219
3 388 178 392
3 353 318 348
3 336 364 326
3 319 326 334
3 190 320 182
3 29 338 345
3 346 338 29
3 342 215 322
3 174 346 215
3 29 345 34
3 328 333 423
3 349 342 324
3 4 344 327
3 344 186 345
3 341 34 345
3 157 493 499
3 360 355 357
3 338 344 345
3 351 215 342
3 354 324 310
3 20 175 327
3 332 174 207
3 474 481 477
3 332 338 346
3 351 342 349
3 320 392 182
3 34 328 364
3 345 415 341
3 309 395 329
3 494 83 84
3 326 423 335
3 352 319 309
3 348 339 353
3 332 346 174
3 186 176 415
3 336 319 352
3 329 331 318
3 474 477 464
3 337 83 494
3 275 334 347
3 337 403 83
3 330 283 360
3 291 275 10
3 174 215 351
3 317 386 320
3 318 309 329
3 328 326 364
3 275 309 334
3 403 337 343
3 321 371 184
3 203 350 343
3 352 309 318
3 161 165 166
3 325 371 321
3 2 348 331
3 486 489 237
3 325 397 371
3 209 317 320
3 58 354 339
3 350 321 184
3 343 350 184
3 331 329 180
3 327 344 338
3 350 180 321
3 180 325 321
3 215 267 322
3 310 336 354
3 227 324 354
3 386 392 320
3 130 76 144
3 399 290 216
3 215 346 267
3 332 327 338
3 329 325 180
3 353 352 318
3 275 347 10
3 174 219 207
3 353 336 352
3 350 331 180
3 343 213 203
3 334 335 347
3 322 323 310
3 334 326 335
3 193 383 30
3 30 381 371
3 386 374 392
3 374 388 392
3 410 411 296
3 361 379 374
3 374 379 388
3 262 193 30
3 379 160 388
3 393 292 422
3 383 193 405
3 383 405 498
3 411 419 417
3 437 379 361
3 421 292 370
3 421 417 422
3 289 417 396
3 411 417 296
3 18 228 393
3 222 264 295
3 437 369 379
3 396 401 398
3 284 289 396
3 419 18 422
3 265 372 394
3 396 398 391
3 333 34 341
3 419 313 18
3 165 409 176
3 437 431 369
3 310 323 364
3 412 176 409
3 412 415 176
3 396 417 401
3 370 292 397
3 373 376 284
3 381 383 390
3 262 228 220
3 340 438 373
3 158 362 380
3 380 362 382
3 362 377 382
3 406 412 409
3 417 414 401
3 381 390 184
3 359 362 425
3 380 382 409
3 382 406 409
3 422 18 393
3 420 341 415
3 345 186 415
3 228 30 371
3 364 336 310
3 414 417 421
3 412 420 415
3 413 407 10
3 323 267 29
3 359 377 362
3 420 333 341
3 495 146 137
3 291 421 370
3 406 404 412
3 412 404 420
3 298 372 265
3 323 29 34
3 419 422 417
3 416 420 404
3 364 323 34
3 377 384 382
3 384 406 382
3 373 391 279
3 284 396 391
3 343 184 403
3 390 83 403
3 28 468 260
3 494 84 265
3 304 501 276
3 359 366 377
3 424 366 359
3 423 333 420
3 284 391 373
3 406 389 404
3 416 423 420
3 377 367 384
3 406 384 389
3 390 403 184
3 366 367 377
3 389 402 404
3 404 402 416
3 402 418 416
3 416 418 423
3 381 184 371
3 390 383 498
3 366 356 367
3 367 375 384
3 397 393 371
3 367 368 375
3 384 375 389
3 335 423 418
3 366 429 356
3 356 368 367
3 389 387 402
3 383 381 30
3 402 413 418
3 223 298 84
3 375 387 389
3 387 400 402
3 400 413 402
3 368 378 375
3 375 378 387
3 397 325 370
3 356 363 368
3 307 195 399
3 251 488 250
3 363 378 368
3 495 399 146
3 272 192 181
3 334 309 319
3 398 401 306
3 441 450 432
3 356 355 363
3 400 407 413
3 360 363 355
3 453 470 466
3 363 286 378
3 358 376 438
3 286 385 378
3 301 400 387
3 292 393 397
3 393 228 371
3 360 286 363
3 385 387 378
3 385 301 387
3 436 441 429
3 301 407 400
3 165 380 409
3 297 405 229
3 292 421 422
3 313 411 410
3 437 361 439
3 360 283 286
3 448 467 470
3 3 492 491
3 453 454 470
3 439 448 443
3 475 482 469
3 241 82 472
3 458 467 448
3 445 446 441
3 482 492 483
3 466 482 475
3 466 475 461
3 447 453 461
3 437 443 431
3 123 100 484
3 439 443 437
3 448 470 454
3 451 448 439
3 470 479 476
3 449 101 455
3 476 491 482
3 239 238 474
3 442 436 433
3 101 16 459
3 206 173 266
3 482 491 492
3 361 155 439
3 462 259 266
3 469 465 457
3 461 475 457
3 492 5 483
3 84 298 265
3 445 441 436
3 266 173 462
3 428 436 429
3 457 465 446
3 173 472 462
3 300 485 408
3 457 475 469
3 75 480 408
3 462 484 259
3 458 105 467
3 472 484 462
3 485 75 408
3 154 433 425
3 485 162 75
3 256 480 75
3 424 433 428
3 431 435 433
3 467 479 470
3 473 485 300
3 445 461 457
3 123 472 82
3 123 484 472
3 471 478 28
3 451 458 448
3 479 7 476
3 497 500 285
3 340 440 438
3 425 433 424
3 424 428 366
3 473 162 485
3 459 451 439
3 99 458 451
3 358 456 235
3 162 468 75
3 75 478 256
3 473 250 162
3 440 358 438
3 488 468 162
3 468 478 75
3 256 478 57
3 298 223 17
3 442 445 436
3 440 456 358
3 463 460 456
3 244 257 125
3 274 430 340
3 430 440 340
3 463 365 460
3 357 427 426
3 427 274 426
3 427 430 274
3 463 456 440
3 468 28 478
3 444 440 430
3 463 440 444
3 442 447 445
3 455 459 439
3 479 97 7
3 477 365 463
3 477 486 365
3 101 459 455
3 452 463 444
3 486 487 489
3 431 433 154
3 433 436 428
3 312 285 61
3 461 445 447
3 427 432 430
3 258 471 28
3 155 455 439
3 432 444 430
3 477 487 486
3 357 434 427
3 457 446 445
3 434 357 355
3 481 487 477
3 433 435 442
3 449 455 155
3 450 444 432
3 434 432 427
3 435 447 442
3 481 490 487
3 443 448 454
3 454 447 435
3 443 454 435
3 443 435 431
3 488 162 250
3 450 446 464
3 450 464 452
3 444 450 452
3 239 474 469
3 483 239 469
3 483 469 482
3 466 470 476
3 482 466 476
3 464 477 463
3 464 463 452
