# Stanford bunny (bun_zipper), base holes closed
# quadric edge-collapse decimation to 1000 triangles, 502 vertices
v -0.03608858 0.1727438 -0.002412614
v -0.009843671 0.1296672 0.02037588
v -0.03187512 0.125505 0.001884516
v -0.01120316 0.0455021 0.04901026
v 0.04193846 0.09243676 -0.005723537
v -0.02157563 0.04140618 0.05347495
v -0.0532661 0.04863084 0.03828752
v -0.001776316 0.04314354 0.0466251
v -0.0002827655 0.0530745 0.05366925
v -0.06536832 0.1566914 -0.00978994
v -0.02799725 0.09052765 -0.03088909
v -0.0124467 0.1232191 0.03282353
v -0.02386346 0.05483175 0.04194098
v -0.018431 0.05178743 0.04804396
v -0.04128095 0.0489966 0.04014173
v -0.008825748 0.05633925 0.05368706
v 0.04173862 0.0475622 0.0312307
v -0.04910937 0.160463 0.00741949
v -0.07218452 0.09264843 -0.01545738
v -3.672356e-05 0.1224172 0.03547697
v 0.03808372 0.1082812 0.001924094
v 0.0417292 0.1036395 0.008559926
v -0.03210926 0.06192993 0.03899896
v 0.009540308 0.1310827 0.01421833
v -0.01547148 0.06066861 0.05258278
v 0.00669954 0.06059931 0.05478453
v -0.002583264 0.06418171 0.05654793
v -0.003089292 0.1284715 0.02767177
v -0.05290408 0.06814916 0.03745349
v 0.01941345 0.1056915 -0.01772232
v -0.07257805 0.1135194 -0.007902486
v 0.002485323 0.06910069 0.05605341
v -0.02111568 0.07004448 0.05070411
v -0.07350409 0.1782862 -0.04974831
v 0.01329749 0.1007167 -0.02210976
v -0.01200512 0.1160202 0.03905398
v -0.08895477 0.09670363 0.02014152
v -0.02666156 0.06588638 0.04006966
v -0.01174848 0.07118739 0.05564347
v -0.02916323 0.07483387 0.04155873
v -0.005212927 0.07078653 0.05747555
v 0.03139634 0.1178242 0.02043429
v 0.04554447 0.08993255 0.01134639
v -0.07585297 0.1564214 -0.006865264
v -0.04221975 0.07634277 0.04243378
v -0.01762958 0.07978389 0.05655899
v -0.03527511 0.0699533 0.04137249
v -0.02987048 0.179233 -0.007199341
v -0.06578071 0.1599625 -0.05472379
v -0.03815199 0.1720627 -0.01117465
v -0.005191728 0.07984138 0.05789054
v -0.03559214 0.07977573 0.04238292
v 0.003425466 0.07806155 0.05671053
v 0.02338291 0.1246523 0.01953194
v -0.04318899 0.1703223 -0.002420496
v 0.03714798 0.1107986 0.01800102
v 0.004801918 0.08594644 0.05666001
v -0.06369389 0.08239226 0.04331367
v -0.006365951 0.1306013 0.00879798
v -0.005753891 0.08791331 0.05690244
v -0.05107301 0.0827431 0.04490566
v -0.07223663 0.1558868 -0.03835918
v -0.0586119 0.0891062 0.044914
v 0.02020832 0.08807074 0.04931534
v -0.03224349 0.08824671 0.04333007
v -0.05238715 0.0912517 0.04471908
v -0.03984843 0.08732292 0.04321131
v -0.06103619 0.09975031 0.04266929
v -0.01007566 0.09394182 0.05522024
v 0.001691504 0.0950953 0.05404293
v 0.01837375 0.09680172 0.04754608
v 0.008921426 0.0992978 0.04816022
v -0.03424291 0.09786823 0.04354864
v 0.05438728 0.06405161 0.0270419
v -0.02707808 0.09535992 0.04472296
v -0.07298978 0.06946905 0.0280029
v 0.04539002 0.08551798 0.01882821
v -0.09138149 0.1207918 0.007002455
v -0.0003384897 0.103071 0.04443032
v -0.02271174 0.1269064 0.01070067
v -0.04269385 0.09773464 0.04242507
v 0.0009753857 0.1313464 0.01725599
v -0.06785892 0.1053526 0.03903391
v -0.0621463 0.1446529 -0.006039131
v -0.06243266 0.1540366 0.001152056
v 0.009121416 0.1057017 0.04287857
v -0.01151533 0.1049601 0.04323706
v -0.04219053 0.1166912 0.03226412
v -0.0593814 0.1084653 0.03870959
v -0.05046121 0.1048862 0.04058636
v -0.02079824 0.1090078 0.04089333
v 0.01952574 0.1061419 0.04171674
v 0.0002233727 0.1131621 0.04148306
v -0.0384655 0.1071533 0.03894857
v -0.02961842 0.1095778 0.0380514
v 0.01008595 0.1143702 0.03863967
v 0.01655207 0.127139 0.02329723
v 0.007479338 0.0464246 0.04809755
v 0.02653614 0.1194847 0.02788032
v 0.03273457 0.04608745 0.03107868
v -0.06434245 0.1204704 0.04791185
v 0.04942899 0.04619467 0.02349289
v -0.0507196 0.1513662 0.01187183
v 0.03324884 0.1077407 0.03149658
v 0.01705309 0.0554773 0.04840107
v 0.02013117 0.04425017 0.04183114
v -0.05577386 0.1172018 0.03676077
v -0.05067179 0.1275184 0.03203385
v -0.0530375 0.1486539 0.02096064
v 0.05065501 0.05427975 0.0292699
v 0.02781874 0.0514559 0.03855464
v 0.02750941 0.1127865 0.03383277
v -0.04148051 0.159505 0.005043912
v 0.03466101 0.05725209 0.03618439
v -0.02892841 0.1688848 -0.00788269
v -0.05777011 0.1391631 0.03270767
v 0.04136127 0.05875108 0.03116182
v -0.06706858 0.1441574 0.04200601
v 0.02547542 0.06402072 0.04462142
v -0.00527818 0.09964307 0.04934854
v -0.04660348 0.1459057 0.005446514
v 0.03447976 0.09586762 0.03789544
v 0.01425889 0.06772023 0.05248429
v -0.06645036 0.1117138 0.03984766
v -0.03594684 0.1636434 -0.0015636
v -0.0733579 0.1370523 0.04910909
v 0.01779663 0.1134367 0.03751771
v 0.03864464 0.06863593 0.0343428
v 0.04597463 0.06541543 0.02828382
v 0.03341301 0.06788505 0.03968083
v 0.04457917 0.07442499 0.02479124
v 0.02545122 0.07560447 0.04700466
v -0.07336072 0.126715 0.05238429
v 0.03068418 0.08496367 0.0433293
v 0.03631809 0.07890336 0.03792932
v 0.04101324 0.0964504 0.027209
v -0.05819295 0.1506021 0.03215273
v -0.01689762 0.1625631 -0.01005376
v -0.06524025 0.1335138 0.04253636
v 0.0130316 0.1225976 0.03337927
v -0.06348831 0.1667606 -0.03964004
v -0.05754597 0.127649 0.03888735
v 0.01227379 0.0765556 0.05475927
v -0.02702987 0.158788 -0.0005408677
v 0.04295302 0.08413514 0.02789613
v 0.0242847 0.1018637 0.04242329
v -0.01155021 0.169362 -0.02062368
v -0.01545164 0.1792964 -0.02029737
v 0.01179451 0.08967968 0.05324783
v 0.03991446 0.09014431 0.03218365
v 0.02762012 0.09332165 0.04417625
v -0.0237262 0.1677229 -0.01090613
v -0.02242956 0.1753504 -0.01360975
v 0.04403099 0.09626722 0.01631704
v 0.02035951 0.03975142 -0.01279651
v 0.04551596 0.04169543 0.005660614
v -0.06193221 0.1565133 -0.03200745
v -0.03653908 0.1526251 0.00195831
v 0.02417848 0.04792501 -0.01934497
v 0.05762937 0.05277768 0.007833729
v 0.03298615 0.05470568 -0.01204852
v 0.02775562 0.05649332 -0.02003328
v -0.06478486 0.0604225 0.01853563
v 0.05922741 0.05752454 0.01923048
v -0.04888329 0.1342794 0.02324888
v 0.02645485 0.06313529 -0.02239158
v 0.03545164 0.06305933 -0.01427513
v -0.06193708 0.1527845 -0.02200844
v -0.0643537 0.1723501 -0.04862601
v 0.05853242 0.06813256 0.01996108
v 0.06071373 0.06331692 0.01103712
v 0.04502279 0.09391248 0.006011231
v -0.08784993 0.1042811 0.01216426
v -0.08160018 0.1088129 0.02943032
v 0.0263779 0.1177783 -0.005510373
v 0.04253157 0.09766448 -0.0004104081
v 0.02855963 0.07355733 -0.0225636
v -0.06391068 0.1613917 -0.02018305
v 0.03984823 0.07131331 -0.00977726
v 0.03518245 0.06900237 -0.01562029
v -0.04038818 0.1209196 -0.01197646
v -0.06351883 0.1706459 -0.05998822
v 0.04369121 0.07191104 -0.0014906
v -0.06201995 0.168092 -0.05311828
v -0.05807705 0.1242698 -0.008011541
v 0.04081619 0.1030381 0.02018155
v 0.03314441 0.08113908 -0.01838226
v -0.08714639 0.1097701 0.01240746
v 0.0416 0.08216777 -0.008111291
v -0.08548861 0.1059165 0.004690994
v 0.04517861 0.08315945 0.002083161
v -0.09098389 0.1422229 0.01654127
v -0.06589898 0.1789184 -0.05762107
v -0.08310569 0.1238934 -0.0042358
v -0.07676538 0.1556407 0.02248111
v -0.01064354 0.1781875 -0.02784273
v -0.06717208 0.1543736 0.03094524
v -0.07968478 0.1535859 0.02884433
v -0.07224615 0.1637682 -0.01445874
v -0.06297984 0.1559937 0.01935975
v -0.09278509 0.1223746 0.0340337
v -0.08827798 0.09475822 0.006963973
v -0.07379605 0.1702461 -0.03383302
v -0.04134306 0.1288081 0.01035368
v -0.08572071 0.1516708 0.009331973
v -0.09017388 0.1348374 0.01042041
v -0.08917493 0.1145896 0.02630717
v 0.03116577 0.1176642 0.002155034
v -0.09193559 0.1145027 0.01700657
v 0.0564665 0.07156998 0.008850379
v -0.03609044 0.1244838 0.02323056
v -0.02790684 0.118934 0.03042747
v -0.02387921 0.1243504 0.02259193
v -0.04803748 0.1363729 0.01235627
v -0.0449226 0.125852 0.02385543
v 0.02225359 0.1148681 -0.01203446
v -0.02437206 0.1817807 -0.0135541
v 0.03522421 0.1138625 0.007804529
v -0.03446266 0.1272329 0.01229843
v 0.02565937 0.122963 0.005992544
v -0.08284144 0.09840743 -0.004866391
v 0.006306685 0.1289977 0.02631762
v -0.09143267 0.1297214 0.0324597
v -0.06198384 0.1559281 0.009291596
v 0.05371352 0.07220561 0.02004848
v 0.04683415 0.07714023 0.01132735
v 0.03015899 0.1197674 0.01197231
v 0.001962942 0.1310106 0.004428462
v -0.07184109 0.1055471 -0.01185759
v -0.08758281 0.1321512 0.002091177
v -0.06693677 0.1678978 -0.0297776
v -0.08583932 0.1065871 0.02090848
v -0.09261069 0.1278296 0.0115508
v -0.07472503 0.1557147 0.009837343
v 0.01809852 0.1279914 0.01063338
v -0.07049242 0.03632 0.003308158
v -0.06141228 0.040112 0.02284574
v -0.06330746 0.04229131 0.03984608
v -0.03668348 0.04237312 0.04320941
v -0.03074234 0.03542549 0.04863988
v -0.0290868 0.04645341 0.04871999
v -0.07616664 0.09918869 0.03679448
v -0.07517467 0.08658279 0.03898174
v -0.05478399 0.04248906 0.04546154
v -0.08275624 0.1393374 0.04590195
v -0.06367286 0.04544067 0.008898154
v -0.08360456 0.08592218 0.0296977
v -0.02072958 0.08694789 0.0551526
v -0.02122732 0.09492627 0.04919859
v -0.07777486 0.1644797 -0.02588556
v -0.05420171 0.05282856 0.01023127
v -0.05267158 0.04652059 0.01995324
v -0.03066958 0.05413591 0.03775606
v -0.01904345 0.09994006 0.04494965
v -0.08876423 0.1479911 0.02768044
v -0.07525276 0.1484592 0.04051912
v -0.07220222 0.07669286 0.0368573
v -0.08069176 0.1296072 0.05230671
v -0.04385827 0.06155844 0.03962359
v -0.08392536 0.1186395 0.04858789
v -0.05000618 0.05633312 0.03282376
v -0.06970442 0.09287869 0.04227184
v -0.0828205 0.1119088 0.0001730708
v -0.0229775 0.06511695 0.04537984
v -0.08842049 0.1359813 0.04131564
v -0.04891941 0.1544971 -0.005738444
v -0.09130917 0.116287 0.04046488
v 0.01529439 0.1113822 -0.01713903
v -0.08341644 0.0975117 0.03004614
v -0.02817136 0.08417095 0.04727292
v -0.08522312 0.1470518 0.0353872
v -0.08828648 0.1284764 0.04553949
v -0.0705713 0.1695535 -0.05059657
v -0.07330557 0.164186 -0.03952629
v -0.04561704 0.03716537 -0.01968682
v -0.02450086 0.09750057 -0.02498786
v -0.07456495 0.1508259 -0.02550627
v -0.09403307 0.1264218 0.02154822
v -0.04178062 0.04534971 -0.01693321
v -0.03996572 0.04850573 -0.01225674
v -0.0567178 0.05135536 5.533665e-06
v -0.05571358 0.04837795 0.03014429
v -0.0888865 0.1514572 0.01816126
v -0.03009224 0.05070285 -0.01974053
v -0.05201941 0.0545535 -0.007662538
v -0.07174572 0.1502662 -0.04054389
v -0.02686504 0.05557217 -0.02634481
v -0.03301612 0.05467476 -0.01167282
v -0.09016142 0.1373415 0.02299315
v -0.0559126 0.06269134 -0.006731507
v -0.02914021 0.1685418 -0.01686788
v -0.03475356 0.09695203 -0.02297914
v -0.05591653 0.09635635 -0.02103993
v -0.0306337 0.06170985 -0.0214726
v -0.07672176 0.1572373 -0.02025781
v -0.08956304 0.1373643 0.03239992
v -0.06175784 0.0655002 -0.00783712
v -0.08475709 0.1434854 0.004818302
v -0.05131591 0.1642967 -0.0007821249
v -0.07473726 0.1733141 -0.04026143
v -0.07669649 0.06904475 0.004512431
v -0.0286991 0.07050686 -0.03200704
v -0.07400114 0.1593614 -0.03112207
v -0.08175601 0.08021105 -0.003524101
v -0.0711813 0.1483136 -0.03149713
v -0.08574425 0.08312682 0.003115156
v -0.03468355 0.07374612 -0.02095874
v -0.01671978 0.1851198 -0.02342569
v -0.0332156 0.0851497 -0.02678884
v -0.02398712 0.1089899 -0.02047636
v 0.003344482 0.1206234 -0.01358944
v -0.08591758 0.08190265 0.01737142
v -0.07087885 0.157461 -0.0451672
v -0.0792474 0.08612266 -0.009604177
v -0.0885767 0.08845388 0.01743761
v -0.07960773 0.1492277 -0.0007885656
v -0.07569841 0.1489183 -0.01208742
v 0.05798452 0.0636869 0.003225696
v -0.02532854 0.1200463 -0.01035103
v -0.0149986 0.1083442 -0.02099851
v 0.04835494 0.07104335 0.004025499
v -0.05132723 0.1217096 -0.01107058
v 0.01254341 0.1164491 -0.0155858
v 0.00859627 0.1103589 -0.01957052
v 0.005286201 0.1268765 -0.005446137
v -0.0454423 0.1138309 -0.01640665
v -0.008783392 0.1060445 -0.02292375
v 0.03626311 0.1006831 -0.01022868
v 0.0001557475 0.1003078 -0.0241209
v -0.03543642 0.1147907 -0.01590451
v -0.03776611 0.04508182 -0.02433229
v -0.03313273 0.1224633 -0.007575927
v 0.03341429 0.1107774 -0.005820525
v 0.008700643 0.09283512 -0.02999017
v -0.01640457 0.09781676 -0.02665084
v -0.008631037 0.09328851 -0.03454706
v -0.008463035 0.1193343 -0.01359418
v -0.05299773 0.1397523 -0.0003838295
v 0.02939282 0.1006885 -0.01611784
v -0.01489608 0.1284162 0.004981376
v -0.04910909 0.0375981 -0.01231438
v 0.01729725 0.08860442 -0.02743221
v 0.01387028 0.1236299 -0.00774834
v -0.04981864 0.131443 -0.0008489331
v 0.03664963 0.09116662 -0.01425588
v 0.02473485 0.09569517 -0.02107671
v 0.02656649 0.1087667 -0.01333287
v -0.01669071 0.0926858 -0.03529106
v -0.02263762 0.1251429 -6.965726e-05
v 0.01272451 0.1292206 0.00277823
v -0.04157482 0.127103 -0.003387296
v 0.02045442 0.1237316 -0.002127151
v -0.01884952 0.1183637 -0.01303808
v -0.01675672 0.1249049 -0.003957628
v -0.005546115 0.1276325 -0.004317859
v -0.02378322 0.03568087 -0.02823126
v -0.01081188 0.04030488 -0.02628766
v -0.03288867 0.033935 -0.02675799
v -0.06341986 0.03488411 -0.006062016
v 0.009940268 0.03893449 -0.02319388
v -0.02845841 0.04420402 -0.02836359
v 0.04022776 0.04329666 -0.002344794
v 0.01681452 0.0453557 -0.02344527
v -0.01831457 0.04579473 -0.02826712
v 0.002389274 0.1085793 -0.0206055
v -0.06040476 0.03427011 0.02372824
v -0.000423843 0.03934651 -0.02453126
v -0.003160155 0.04734014 -0.02972736
v -0.0102932 0.04654711 -0.0292793
v 0.02600452 0.04323532 -0.007100271
v -0.0449575 0.1031959 -0.0209055
v -0.05969019 0.1154008 -0.01330285
v -0.04515454 0.162644 -0.008866834
v -0.04946335 0.04534011 -0.009473312
v 0.0463993 0.04914619 -0.004277894
v -0.008583295 0.05305768 -0.03289317
v -0.06022776 0.04482094 -0.00422736
v 0.008267638 0.04895349 -0.02797926
v -0.0177583 0.05420924 -0.03260952
v 0.0340646 0.04828071 -0.006556877
v 0.02024959 0.05866291 -0.02718195
v -0.06776267 0.1218145 -0.008833201
v 0.01279169 0.05880574 -0.02954609
v -0.07448871 0.1249545 -0.008148391
v 0.001428266 0.05685254 -0.0318677
v -0.02569094 0.06008312 -0.03040304
v 0.05398898 0.05826786 -0.001756475
v -0.01577669 0.06190811 -0.03622178
v 0.04151499 0.05759013 -0.005551589
v -0.005081896 0.06329064 -0.03475207
v -0.06570029 0.1327631 -0.008371085
v -0.04348502 0.05441685 -0.01096468
v 0.0464992 0.06226221 -0.002990719
v -0.06409671 0.1030104 -0.01684879
v -0.0360545 0.1596445 -0.0126099
v -0.0310217 0.1056897 -0.02119709
v -0.04958759 0.06522124 -0.01278641
v -0.054334 0.1076536 -0.01846926
v -0.03721402 0.0628107 -0.01341934
v -0.02153162 0.1791165 -0.02176079
v -0.01798651 0.06987542 -0.03833225
v -0.04320662 0.07007886 -0.01679703
v -0.006896899 0.07403735 -0.03701273
v -0.05933339 0.1337979 -0.006685117
v 0.005059207 0.07360229 -0.03447634
v -0.07832636 0.1360919 -0.004966019
v 0.008824801 0.0679797 -0.0321093
v -0.02599992 0.08025326 -0.03709821
v -0.08140557 0.07400404 0.01631972
v 0.02063615 0.06925659 -0.02789501
v -0.07557541 0.07317927 -0.006265694
v -0.06583701 0.07431993 -0.0156339
v 0.01625173 0.07592748 -0.02910505
v -0.01612079 0.0819657 -0.03884849
v -0.04130518 0.08174385 -0.02048091
v 0.02287586 0.08245649 -0.02563114
v 0.002749491 0.08034553 -0.03496185
v -0.05288762 0.07626518 -0.01860157
v -0.007108326 0.08420262 -0.0378271
v -0.06701951 0.08334068 -0.01810571
v 0.007843678 0.0832871 -0.03274158
v -0.0459391 0.08948231 -0.02221227
v -0.05960127 0.08969508 -0.02031807
v -0.002370172 0.09314027 -0.033464
v 0.00413188 0.03427665 -0.02002788
v 0.01444731 0.03528217 -0.01809428
v -0.04231981 0.03626031 -0.02631655
v -0.03567331 0.0356711 -0.01744471
v -0.003432164 0.03717597 -0.01472858
v -0.01159914 0.03579121 -0.01957528
v -0.04154753 0.0346534 -0.01010232
v 0.01838212 0.03464382 -0.001055921
v -0.02842127 0.03839862 -0.007168457
v 0.00885536 0.03585381 -0.008652874
v -0.0218477 0.03705833 -0.01745473
v 0.007946714 0.03552537 0.0040846
v -0.008770776 0.03888113 -0.005163083
v 0.02954595 0.03767112 -0.0008585594
v -0.05620556 0.03607171 -0.01025424
v 0.0304867 0.03487898 0.00920574
v -0.05270699 0.03341868 -0.003648073
v -0.01877042 0.03846048 -0.00291633
v 0.0006877493 0.0374718 0.001328426
v 0.02192498 0.03577231 0.008582851
v -0.04194748 0.03415425 -0.0008540898
v -0.01041931 0.03844517 0.008580572
v -0.02216471 0.03834012 0.01256123
v 0.001041409 0.03473882 0.01233443
v 0.01846497 0.03491209 0.02494228
v 0.05163028 0.04506161 0.01274335
v -0.02703819 0.03850829 0.002658962
v 0.02814744 0.03620963 0.02152689
v -0.0377625 0.03494603 0.008148509
v 0.002870059 0.03636732 0.02200884
v 0.00852638 0.03475043 0.02432113
v 0.04001384 0.03893166 0.01689186
v -0.06374689 0.03454395 0.01026543
v -0.01551734 0.03825625 0.02014249
v 0.0236065 0.03852837 0.03426082
v 0.03601689 0.03930383 0.02367615
v -0.06363864 0.03574166 0.01578543
v -0.004378414 0.03812788 0.0201753
v -0.08333631 0.1107454 0.04047898
v -0.05368312 0.03372487 0.01296054
v -0.03451328 0.03441654 0.02107056
v -0.02779691 0.03786673 0.02393388
v -0.003432262 0.03947777 0.03320252
v 0.01386429 0.03695557 0.04264561
v -0.05964112 0.06406025 0.03039753
v -0.02485194 0.03929127 0.03233853
v 0.007275742 0.0380703 0.03200584
v -0.04812352 0.07378388 0.04215785
v -0.07642563 0.1069525 0.03591591
v -0.06313984 0.06030544 0.003279504
v -0.03542784 0.03449972 0.03448173
v -0.01360495 0.03883592 0.03234768
v -0.00161645 0.03452463 0.04246706
v -0.04780583 0.03439965 0.03062305
v -0.06214057 0.07248597 0.03907987
v 0.006732512 0.03494563 0.04326021
v -0.08065117 0.07755094 0.02770057
v -0.04233306 0.03456408 0.03856029
v -0.01397854 0.03686947 0.04170603
v -0.02135042 0.03438867 0.04740067
v -0.07342101 0.1135191 0.04942845
v -0.07224182 0.06384901 0.01418651
v -0.06284449 0.03556628 0.03266652
v -0.05378829 0.03464298 0.04190425
v -0.0548495 0.05869504 0.02344077
v -0.06244721 0.03676965 0.04144527
v -0.04658325 0.03852718 0.04470688
v -0.006567401 0.03777267 0.04828245
v -0.01667601 0.03715035 0.05158676
v -0.03970674 0.1505989 -0.004803938
v -0.05569286 0.1473813 -0.002022876
v -0.01915316 0.1669524 -0.01923128
v -0.06349725 0.1462359 -0.0138049
v -0.06399222 0.1577631 -0.04630016
v -0.0703626 0.1402539 -0.008759585
v -0.02726935 0.1560833 -0.008172032
v -0.06519453 0.1521783 -0.03800148
v -0.06639595 0.1468267 -0.02427618
f 59 340 2
f 34 169 193
f 278 289 206
f 103 224 200
f 200 197 137
f 59 228 355
f 97 24 222
f 222 20 140
f 260 133 258
f 222 82 28
f 199 231 250
f 228 24 350
f 284 280 288
f 206 289 192
f 315 37 202
f 256 245 126
f 414 348 419
f 288 392 399
f 133 126 258
f 183 189 191
f 98 26 9
f 50 373 55
f 35 334 329
f 173 37 232
f 28 12 20
f 233 206 230
f 485 101 133
f 126 118 256
f 191 172 43
f 200 195 197
f 499 84 391
f 82 59 2
f 305 286 501
f 201 207 267
f 17 117 100
f 80 340 349
f 312 315 306
f 68 83 262
f 51 57 60
f 51 53 57
f 147 400 196
f 213 211 212
f 82 2 28
f 153 48 115
f 292 396 276
f 63 68 262
f 70 149 72
f 246 251 281
f 68 89 83
f 127 140 96
f 63 262 58
f 93 20 36
f 63 66 68
f 72 86 79
f 93 96 20
f 92 96 86
f 27 26 32
f 86 93 79
f 281 251 474
f 286 313 498
f 90 107 89
f 32 41 27
f 61 58 479
f 58 61 63
f 61 66 63
f 66 90 68
f 9 26 27
f 9 27 16
f 26 123 32
f 68 90 89
f 71 92 86
f 472 61 479
f 168 178 10
f 182 193 169
f 169 300 141
f 283 192 289
f 81 90 66
f 266 494 121
f 143 53 32
f 244 491 7
f 90 88 107
f 17 110 117
f 466 475 465
f 8 98 9
f 84 499 497
f 228 59 82
f 45 61 472
f 90 94 88
f 109 137 116
f 15 7 491
f 330 371 326
f 45 67 61
f 61 67 66
f 24 228 82
f 67 81 66
f 24 82 222
f 90 81 94
f 113 55 18
f 259 45 472
f 45 52 67
f 23 259 15
f 32 53 41
f 259 47 45
f 67 73 81
f 60 57 70
f 2 340 80
f 253 23 15
f 387 318 160
f 52 45 47
f 53 51 41
f 70 120 69
f 125 55 113
f 239 253 15
f 47 259 23
f 94 95 88
f 495 266 121
f 52 65 67
f 67 65 73
f 94 81 73
f 95 212 88
f 40 52 47
f 156 387 160
f 32 123 143
f 206 298 230
f 60 70 69
f 38 47 23
f 38 40 47
f 52 270 65
f 65 75 73
f 71 86 72
f 20 12 36
f 158 500 144
f 52 40 270
f 270 75 65
f 95 94 73
f 22 154 172
f 195 255 198
f 189 5 191
f 8 9 16
f 141 203 231
f 75 95 73
f 502 497 499
f 75 254 95
f 87 79 93
f 241 14 13
f 91 95 254
f 91 212 95
f 180 187 179
f 6 14 241
f 79 70 72
f 500 395 291
f 222 28 20
f 212 12 213
f 430 442 435
f 36 212 91
f 92 127 96
f 248 69 249
f 6 4 14
f 356 357 430
f 87 36 91
f 12 212 36
f 57 149 70
f 33 39 46
f 46 60 248
f 92 112 127
f 14 16 25
f 60 69 248
f 140 20 96
f 4 16 14
f 25 16 39
f 39 51 46
f 51 60 46
f 172 176 22
f 27 39 16
f 93 36 87
f 41 39 27
f 41 51 39
f 492 8 4
f 8 16 4
f 110 74 129
f 157 168 502
f 171 318 210
f 266 395 494
f 6 240 484
f 83 89 124
f 133 139 126
f 131 226 77
f 164 110 102
f 133 101 139
f 126 139 118
f 128 130 114
f 103 109 214
f 152 153 115
f 135 150 134
f 191 43 226
f 214 338 121
f 92 146 112
f 497 502 168
f 111 105 106
f 101 142 139
f 142 116 139
f 116 118 139
f 143 149 57
f 89 107 124
f 107 101 124
f 101 107 142
f 118 116 137
f 99 140 127
f 112 99 127
f 164 74 110
f 495 121 338
f 142 108 116
f 176 21 22
f 143 132 64
f 148 308 217
f 108 142 107
f 100 114 111
f 92 71 146
f 147 153 152
f 430 435 356
f 150 122 134
f 119 132 123
f 138 147 152
f 153 147 148
f 135 134 132
f 132 134 64
f 143 64 149
f 26 98 105
f 282 252 237
f 122 150 136
f 108 215 165
f 111 119 105
f 104 112 146
f 145 150 135
f 121 103 214
f 117 128 114
f 215 108 88
f 164 170 74
f 105 119 123
f 114 100 117
f 191 226 321
f 115 48 1
f 125 115 1
f 500 138 144
f 144 115 125
f 72 149 71
f 132 143 123
f 146 122 104
f 173 232 188
f 134 122 151
f 129 131 128
f 318 171 160
f 129 128 117
f 1 50 55
f 144 152 115
f 64 71 149
f 122 136 104
f 148 217 153
f 214 344 338
f 110 129 117
f 114 119 111
f 468 106 98
f 98 106 105
f 49 182 184
f 114 130 119
f 121 18 103
f 493 4 6
f 102 110 17
f 459 111 106
f 134 151 64
f 100 111 459
f 151 71 64
f 291 496 138
f 130 132 119
f 104 186 56
f 121 113 18
f 135 132 130
f 409 481 312
f 158 113 121
f 290 297 418
f 53 143 57
f 131 145 135
f 395 500 494
f 131 135 128
f 450 160 164
f 192 298 206
f 151 122 146
f 299 18 55
f 5 328 176
f 138 152 144
f 361 427 331
f 55 125 1
f 158 144 113
f 144 125 113
f 492 477 8
f 136 186 104
f 120 79 87
f 328 333 21
f 146 71 151
f 86 96 93
f 128 135 130
f 247 37 315
f 466 470 475
f 375 387 156
f 207 278 209
f 37 173 202
f 157 178 168
f 460 100 452
f 263 188 78
f 415 309 307
f 309 422 292
f 148 147 196
f 78 278 233
f 298 192 205
f 267 272 201
f 447 466 465
f 167 161 162
f 190 188 263
f 157 141 231
f 187 189 179
f 161 380 370
f 173 190 202
f 174 207 232
f 209 278 78
f 498 141 157
f 26 105 123
f 201 272 223
f 233 278 206
f 192 283 205
f 497 10 84
f 498 157 501
f 430 367 429
f 502 305 501
f 121 494 158
f 232 207 209
f 107 88 108
f 296 271 255
f 409 312 306
f 189 345 5
f 166 162 381
f 482 239 491
f 498 184 141
f 177 187 180
f 184 169 141
f 396 292 371
f 155 370 432
f 291 138 500
f 167 180 179
f 166 180 167
f 166 177 180
f 223 296 289
f 160 450 156
f 425 360 426
f 145 136 150
f 162 161 159
f 426 363 155
f 167 179 389
f 182 169 184
f 498 49 184
f 77 136 145
f 172 154 43
f 336 419 348
f 161 167 389
f 363 159 155
f 375 156 362
f 109 116 165
f 159 161 370
f 460 17 100
f 159 370 155
f 191 5 172
f 179 183 393
f 77 154 136
f 422 309 415
f 497 168 10
f 349 319 332
f 187 345 189
f 214 109 165
f 157 231 178
f 154 186 136
f 102 450 164
f 179 189 183
f 43 154 77
f 22 56 186
f 43 77 226
f 164 171 170
f 172 5 176
f 160 171 164
f 22 186 154
f 44 316 234
f 205 283 195
f 234 205 195
f 197 256 118
f 188 190 173
f 210 225 170
f 225 131 74
f 74 131 129
f 199 44 10
f 226 225 210
f 225 226 131
f 205 234 316
f 487 282 237
f 2 213 12
f 224 103 18
f 283 255 195
f 226 210 321
f 80 219 213
f 232 209 188
f 234 224 85
f 204 215 211
f 204 219 3
f 481 257 247
f 210 170 171
f 214 165 215
f 48 50 1
f 10 44 85
f 198 256 197
f 234 200 224
f 234 195 200
f 211 215 88
f 219 204 211
f 219 80 3
f 204 214 215
f 85 44 234
f 475 239 482
f 255 283 289
f 198 271 256
f 2 80 213
f 74 170 225
f 3 80 349
f 178 199 10
f 21 218 22
f 56 42 104
f 34 300 169
f 103 200 109
f 99 104 42
f 99 112 104
f 56 227 42
f 21 333 218
f 218 227 56
f 211 88 212
f 333 208 218
f 141 300 203
f 219 211 213
f 54 99 42
f 351 204 3
f 218 208 227
f 200 137 109
f 195 198 197
f 220 227 208
f 227 54 42
f 99 97 140
f 99 54 97
f 79 120 70
f 227 220 54
f 22 218 56
f 12 28 2
f 306 315 202
f 196 308 148
f 298 205 316
f 231 203 250
f 235 54 220
f 235 97 54
f 120 254 69
f 231 199 178
f 235 220 352
f 97 222 140
f 350 235 352
f 14 25 264
f 409 306 301
f 118 137 197
f 188 209 78
f 24 235 350
f 24 97 235
f 280 392 288
f 264 25 33
f 400 217 308
f 13 264 38
f 474 297 290
f 501 157 502
f 33 46 270
f 447 451 442
f 261 15 259
f 58 262 243
f 199 250 295
f 199 295 44
f 58 243 257
f 254 249 69
f 33 270 40
f 238 490 244
f 261 259 29
f 11 309 292
f 25 39 33
f 14 264 13
f 23 13 38
f 485 133 260
f 253 13 23
f 496 291 400
f 307 402 415
f 395 373 50
f 87 254 120
f 262 83 242
f 40 264 33
f 249 75 270
f 491 239 15
f 491 244 488
f 258 272 260
f 272 258 245
f 37 269 232
f 488 244 490
f 457 246 236
f 469 489 261
f 243 262 242
f 271 245 256
f 244 7 238
f 46 248 270
f 312 247 315
f 247 269 37
f 272 245 265
f 461 246 457
f 241 239 240
f 248 249 270
f 240 6 241
f 241 13 253
f 116 108 165
f 217 48 153
f 310 276 396
f 265 245 271
f 10 85 84
f 358 427 361
f 38 264 40
f 241 253 239
f 75 249 254
f 246 252 251
f 487 237 366
f 473 174 269
f 15 261 7
f 366 237 461
f 237 246 461
f 19 221 229
f 237 252 246
f 98 480 468
f 247 243 269
f 243 242 269
f 242 473 269
f 371 330 396
f 50 291 395
f 257 243 247
f 260 272 267
f 48 217 291
f 162 159 381
f 337 327 320
f 327 329 424
f 252 282 489
f 325 343 311
f 273 182 49
f 273 34 193
f 498 313 49
f 313 273 49
f 282 7 261
f 280 284 279
f 273 300 34
f 313 274 273
f 198 255 271
f 62 274 313
f 274 300 273
f 274 203 300
f 274 303 203
f 323 268 324
f 62 303 274
f 340 355 354
f 348 414 11
f 305 62 286
f 305 303 62
f 303 250 203
f 302 309 408
f 11 408 309
f 247 312 481
f 386 294 302
f 302 307 309
f 277 303 305
f 295 250 303
f 287 294 386
f 294 307 302
f 232 269 174
f 296 265 271
f 277 295 303
f 275 331 427
f 268 347 30
f 261 489 282
f 355 337 354
f 294 287 284
f 278 223 289
f 317 295 277
f 289 296 255
f 78 233 230
f 279 331 275
f 279 284 331
f 502 317 277
f 294 399 307
f 238 282 487
f 284 288 294
f 201 278 207
f 341 279 275
f 201 223 278
f 502 499 317
f 288 399 294
f 455 454 448
f 341 374 279
f 374 280 279
f 317 44 295
f 412 314 420
f 359 236 377
f 91 254 87
f 314 221 19
f 48 291 50
f 343 323 311
f 439 377 374
f 406 317 499
f 228 350 325
f 377 281 285
f 263 31 229
f 3 332 351
f 406 316 317
f 285 281 290
f 299 55 373
f 304 306 314
f 316 44 317
f 411 301 304
f 298 316 406
f 223 272 265
f 304 314 411
f 297 474 411
f 306 221 314
f 474 290 281
f 474 301 411
f 190 263 221
f 406 194 230
f 306 202 221
f 78 230 194
f 236 246 377
f 442 433 435
f 246 281 377
f 194 263 78
f 238 7 282
f 301 306 304
f 202 190 221
f 454 467 462
f 175 352 220
f 389 179 393
f 354 319 349
f 337 365 327
f 320 327 335
f 191 321 183
f 30 339 346
f 347 339 30
f 343 216 323
f 175 347 216
f 30 346 35
f 329 334 424
f 350 343 325
f 5 345 328
f 345 187 346
f 342 35 346
f 158 494 500
f 361 356 358
f 339 345 346
f 352 216 343
f 355 325 311
f 21 176 328
f 333 175 208
f 475 482 478
f 333 339 347
f 352 343 350
f 321 393 183
f 35 329 365
f 346 416 342
f 310 396 330
f 495 84 85
f 327 424 336
f 353 320 310
f 349 340 354
f 333 347 175
f 187 177 416
f 337 320 353
f 330 332 319
f 475 478 465
f 338 84 495
f 276 335 348
f 338 404 84
f 331 284 361
f 292 276 11
f 175 216 352
f 318 387 321
f 319 310 330
f 329 327 365
f 276 310 335
f 404 338 344
f 322 372 185
f 204 351 344
f 353 310 319
f 162 166 167
f 326 372 322
f 3 349 332
f 487 490 238
f 326 398 372
f 210 318 321
f 59 355 340
f 351 322 185
f 344 351 185
f 332 330 181
f 328 345 339
f 351 181 322
f 181 326 322
f 216 268 323
f 311 337 355
f 228 325 355
f 387 393 321
f 131 77 145
f 400 291 217
f 216 347 268
f 333 328 339
f 330 326 181
f 354 353 319
f 276 348 11
f 175 220 208
f 354 337 353
f 351 332 181
f 344 214 204
f 335 336 348
f 323 324 311
f 335 327 336
f 194 384 31
f 31 382 372
f 387 375 393
f 375 389 393
f 411 412 297
f 362 380 375
f 375 380 389
f 263 194 31
f 380 161 389
f 394 293 423
f 384 194 406
f 384 406 499
f 412 420 418
f 438 380 362
f 422 293 371
f 422 418 423
f 290 418 397
f 412 418 297
f 19 229 394
f 223 265 296
f 438 370 380
f 397 402 399
f 285 290 397
f 420 19 423
f 266 373 395
f 397 399 392
f 334 35 342
f 420 314 19
f 166 410 177
f 438 432 370
f 311 324 365
f 413 177 410
f 413 416 177
f 397 418 402
f 371 293 398
f 374 377 285
f 382 384 391
f 263 229 221
f 341 439 374
f 159 363 381
f 381 363 383
f 363 378 383
f 407 413 410
f 418 415 402
f 382 391 185
f 360 363 426
f 381 383 410
f 383 407 410
f 423 19 394
f 421 342 416
f 346 187 416
f 229 31 372
f 365 337 311
f 415 418 422
f 413 421 416
f 414 408 11
f 324 268 30
f 360 378 363
f 421 334 342
f 496 147 138
f 292 422 371
f 407 405 413
f 413 405 421
f 299 373 266
f 324 30 35
f 420 423 418
f 417 421 405
f 365 324 35
f 378 385 383
f 385 407 383
f 374 392 280
f 285 397 392
f 344 185 404
f 391 84 404
f 29 469 261
f 495 85 266
f 305 502 277
f 360 367 378
f 425 367 360
f 424 334 421
f 285 392 374
f 407 390 405
f 417 424 421
f 378 368 385
f 407 385 390
f 391 404 185
f 367 368 378
f 390 403 405
f 405 403 417
f 403 419 417
f 417 419 424
f 382 185 372
f 391 384 499
f 367 357 368
f 368 376 385
f 398 394 372
f 368 369 376
f 385 376 390
f 336 424 419
f 367 430 357
f 357 369 368
f 390 388 403
f 384 382 31
f 403 414 419
f 224 299 85
f 376 388 390
f 388 401 403
f 401 414 403
f 369 379 376
f 376 379 388
f 398 326 371
f 357 364 369
f 308 196 400
f 252 489 251
f 364 379 369
f 496 400 147
f 273 193 182
f 335 310 320
f 399 402 307
f 442 451 433
f 357 356 364
f 401 408 414
f 361 364 356
f 454 471 467
f 364 287 379
f 359 377 439
f 287 386 379
f 302 401 388
f 293 394 398
f 394 229 372
f 361 287 364
f 386 388 379
f 386 302 388
f 437 442 430
f 302 408 401
f 166 381 410
f 298 406 230
f 293 422 423
f 314 412 411
f 438 362 440
f 361 284 287
f 449 468 471
f 4 493 492
f 454 455 471
f 440 449 444
f 476 483 470
f 242 83 473
f 459 468 449
f 446 447 442
f 483 493 484
f 467 483 476
f 467 476 462
f 448 454 462
f 438 444 432
f 124 101 485
f 440 444 438
f 449 471 455
f 452 449 440
f 471 480 477
f 450 102 456
f 477 492 483
f 240 239 475
f 443 437 434
f 102 17 460
f 207 174 267
f 483 492 493
f 362 156 440
f 463 260 267
f 470 466 458
f 462 476 458
f 493 6 484
f 85 299 266
f 446 442 437
f 267 174 463
f 429 437 430
f 458 466 447
f 174 473 463
f 301 486 409
f 458 476 470
f 76 481 409
f 463 485 260
f 459 106 468
f 473 485 463
f 486 76 409
f 155 434 426
f 486 163 76
f 257 481 76
f 425 434 429
f 432 436 434
f 468 480 471
f 474 486 301
f 446 462 458
f 124 473 83
f 124 485 473
f 472 479 29
f 452 459 449
f 480 8 477
f 498 501 286
f 341 441 439
f 426 434 425
f 425 429 367
f 474 163 486
f 460 452 440
f 100 459 452
f 359 457 236
f 163 469 76
f 76 479 257
f 474 251 163
f 441 359 439
f 489 469 163
f 469 479 76
f 257 479 58
f 299 224 18
f 443 446 437
f 441 457 359
f 464 461 457
f 245 258 126
f 275 431 341
f 431 441 341
f 464 366 461
f 358 428 427
f 428 275 427
f 428 431 275
f 464 457 441
f 469 29 479
f 445 441 431
f 464 441 445
f 443 448 446
f 456 460 440
f 480 98 8
f 478 366 464
f 478 487 366
f 102 460 456
f 453 464 445
f 487 488 490
f 432 434 155
f 434 437 429
f 313 286 62
f 462 446 448
f 428 433 431
f 259 472 29
f 156 456 440
f 433 445 431
f 478 488 487
f 358 435 428
f 458 447 446
f 435 358 356
f 482 488 478
f 434 436 443
f 450 456 156
f 451 445 433
f 435 433 428
f 436 448 443
f 482 491 488
f 444 449 455
f 455 448 436
f 444 455 436
f 444 436 432
f 489 163 251
f 451 447 465
f 451 465 453
f 445 451 453
f 240 475 470
f 484 240 470
f 484 470 483
f 467 471 477
f 483 467 477
f 465 478 464
f 465 464 453
