2000  1
    0    673   674     8    -1
    1    592   573   584    -1
    2    456    65   443    -1
    3    329   372   370    -1
    4    444   401    92    -1
    5    566   541   404    -1
    6    447   147   673    -1
    7    406   284    87    -1
    8    420    87    36    -1
    9    450   674   696    -1
   10    109   674   450    -1
   11    401     8   431    -1
   12    674   109     8    -1
   13    414   444   413    -1
   14    394    92    27    -1
   15    404   540   446    -1
   16     47   172   428    -1
   17     92   431    53    -1
   18     62   375   396    -1
   19    379   448   373    -1
   20     41     0   261    -1
   21    218   240   130    -1
   22    405   308   409    -1
   23    110   269    69    -1
   24    151   388    53    -1
   25    441   107   514    -1
   26     47   450   437    -1
   27    545   558   565    -1
   28    975   970   798    -1
   29    386   404   446    -1
   30    492   253    69    -1
   31    130   240   492    -1
   32    566   404   368    -1
   33     65   618   395    -1
   34    383   447   414    -1
   35    466    24   130    -1
   36    690   833   827    -1
   37    540   541   327    -1
   38    762   565   775    -1
   39    110    69   253    -1
   40    240   253   492    -1
   41    367   351   366    -1
   42    437   438   692    -1
   43     49   202    20    -1
   44    107   378   514    -1
   45    732   786   499    -1
   46    648    63   652    -1
   47    134   479   503    -1
   48     65   336   443    -1
   49     27    53    41    -1
   50    386   446   440    -1
   51    187   966   110    -1
   52    253   187   110    -1
   53    218   130    24    -1
   54    334   366    75    -1
   55    373   380   393    -1
   56    505   479   134    -1
   57    670   994   760    -1
   58    109   151   431    -1
   59     53   388     0    -1
   60    562   601   990    -1
   61    896   907   914    -1
   62    992   990   340    -1
   63    405   473   982    -1
   64    217    34   194    -1
   65    673   147   691    -1
   66    618   609   602    -1
   67    437   692   682    -1
   68    125   134   464    -1
   69    152   125   464    -1
   70    112    93   111    -1
   71     96    93   112    -1
   72     42   102    43    -1
   73    768   304   301    -1
   74    215   291   186    -1
   75    412   414   413    -1
   76     90   412   413    -1
   77    431   151    53    -1
   78    108    89   505    -1
   79    167   145   228    -1
   80     21   292   215    -1
   81    771   571   536    -1
   82    789   794   356    -1
   83    134   116   505    -1
   84    125   116   134    -1
   85    152   155   125    -1
   86    290   132   135    -1
   87    477   467   553    -1
   88    161   155   152    -1
   89    162   155   161    -1
   90    230   241   105    -1
   91    398   426   441    -1
   92    505   116   108    -1
   93     40    49    20    -1
   94     41    81    64    -1
   95    122   116   125    -1
   96    155   122   125    -1
   97     20    33    40    -1
   98    383   147   447    -1
   99     96    80    93    -1
  100    157   135   145    -1
  101    105    25    41    -1
  102    170   166   157    -1
  103     49    52    59    -1
  104    167   157   145    -1
  105    527   553   944    -1
  106    615   562   992    -1
  107    206    17   465    -1
  108    304   519   988    -1
  109    493   605    68    -1
  110    161   173   162    -1
  111    231   173   161    -1
  112     73    59    52    -1
  113    108   114   917    -1
  114    114   108   116    -1
  115    122   114   116    -1
  116    148   122   155    -1
  117     49    40    52    -1
  118     52    40    37    -1
  119    202   179    20    -1
  120     60    49    59    -1
  121    714   706   717    -1
  122    148   155   162    -1
  123    166   136   157    -1
  124    793   994   599    -1
  125    583   506   502    -1
  126    114    77   917    -1
  127    123   122   148    -1
  128    163   148   162    -1
  129    173   163   162    -1
  130    364   991   345    -1
  131    516   583   751    -1
  132    277   133   136    -1
  133    370   350   329    -1
  134    396   382   267    -1
  135    551   556   620    -1
  136    148   126   123    -1
  137    986   512   337    -1
  138     80   254    59    -1
  139      3   578    38    -1
  140     13   465    17    -1
  141    414   447   444    -1
  142    123   114   122    -1
  143    245   173   231    -1
  144    204    34   217    -1
  145    163   126   148    -1
  146    937   924   914    -1
  147    179    19    20    -1
  148    437   450   438    -1
  149    403   425   448    -1
  150    996   670   989    -1
  151    138   227   244    -1
  152     96   263   254    -1
  153    104   112   132    -1
  154    781   988   519    -1
  155      8   109   431    -1
  156    109   450   151    -1
  157     94   933    77    -1
  158    114    94    77    -1
  159    168   173   245    -1
  160    301   374   805    -1
  161    258   384   220    -1
  162    132   112    50    -1
  163    282     3    38    -1
  164     17    14    13    -1
  165    813   543   647    -1
  166    342   354   335    -1
  167    335   354   358    -1
  168    124    94   114    -1
  169    124   114   123    -1
  170    331   306   309    -1
  171    450    47   151    -1
  172     78   933    94    -1
  173    126   124   123    -1
  174    163   149   126    -1
  175    168   163   173    -1
  176    171   170   241    -1
  177    609   612   970    -1
  178     17    32    14    -1
  179    151    47   388    -1
  180    149   163   168    -1
  181    402   160   245    -1
  182     99   282    38    -1
  183    999   987   669    -1
  184     32   494   495    -1
  185     78   495   933    -1
  186     94    95    78    -1
  187     95    94   124    -1
  188    158   149   168    -1
  189    160   168   245    -1
  190     28    14    32    -1
  191    495    46    32    -1
  192     80    59    73    -1
  193     43   102     7    -1
  194    611   618   602    -1
  195     83   495    78    -1
  196    131   124   126    -1
  197    149   131   126    -1
  198    158   168   160    -1
  199    112   111    50    -1
  200    673     8   447    -1
  201     46    44    32    -1
  202    331   756   306    -1
  203    786   630    88    -1
  204     78    95    83    -1
  205     93    80    73    -1
  206    224    50   128    -1
  207     99   238   282    -1
  208      2    99     6    -1
  209     44    28    32    -1
  210    495    83    46    -1
  211    169   158   160    -1
  212    512   987   337    -1
  213    118    95   124    -1
  214    118   124   131    -1
  215    149   158   131    -1
  216     90   169   160    -1
  217    401   431    92    -1
  218     83    51    46    -1
  219     84     2     6    -1
  220     95    72    83    -1
  221    158   137   131    -1
  222    169   164   158    -1
  223    756   302   306    -1
  224     60    59   254    -1
  225    573   386   548    -1
  226     51    44    46    -1
  227    137   118   131    -1
  228     50   111   128    -1
  229     83    66    51    -1
  230     72    66    83    -1
  231    526    95   118    -1
  232    139   118   137    -1
  233    157   136   135    -1
  234     27    41    64    -1
  235   1001   305   200    -1
  236     51   485    44    -1
  237     72    95   526    -1
  238    119   526   118    -1
  239    139   119   118    -1
  240    158   164   137    -1
  241    293   102   334    -1
  242    352   350   140    -1
  243    613   379   377    -1
  244    129   169    90    -1
  245    129    90   413    -1
  246    315   367   366    -1
  247     20    19    33    -1
  248     41    25    81    -1
  249    398   267   426    -1
  250     35    22   154    -1
  251    164   139   137    -1
  252    989   998   996    -1
  253    156   139   164    -1
  254     25   167    81    -1
  255    228   159    81    -1
  256    540   408   144    -1
  257    388    47   428    -1
  258    169     1   164    -1
  259    421   266    21    -1
  260     18   457   472    -1
  261     18   472    29    -1
  262     55   172    47    -1
  263    164     1   156    -1
  264    129     1   169    -1
  265    457    15   180    -1
  266      0   388   428    -1
  267     47   437    45    -1
  268    413   444   129    -1
  269    354   348   347    -1
  270    588    62   396    -1
  271      1   165   156    -1
  272     18    15   457    -1
  273    132   145   135    -1
  274    770   993   569    -1
  275     53     0    41    -1
  276    121   103   474    -1
  277      1     4   165    -1
  278    394   129   444    -1
  279    136   133   290    -1
  280    167   228    81    -1
  281    868   848   856    -1
  282    129     4     1    -1
  283    171   166   170    -1
  284    446   540   144    -1
  285     45   437   682    -1
  286    127   121   475    -1
  287     40    33    37    -1
  288     10    15    18    -1
  289    710   708   705    -1
  290      4   159   165    -1
  291    129   394     4    -1
  292    290   104   132    -1
  293    627   325   333    -1
  294     67    61    79    -1
  295    103    67    79    -1
  296     30    10    18    -1
  297    300   302   888    -1
  298    302   298   888    -1
  299    165   159   150    -1
  300     96   254    80    -1
  301    111   103   121    -1
  302    170   167    25    -1
  303    249   166   171    -1
  304     37    30    48    -1
  305    394    64     4    -1
  306     33    30    37    -1
  307     55    47    45    -1
  308     56    61    67    -1
  309    127   111   121    -1
  310      4    64   159    -1
  311    394    27    64    -1
  312     41   261   105    -1
  313     33    10    30    -1
  314     37    48    56    -1
  315     93    67   103    -1
  316    111    93   103    -1
  317    341   334   102    -1
  318    112   104    96    -1
  319     56    52    37    -1
  320     73    56    67    -1
  321     64    81   159    -1
  322     56    73    52    -1
  323     93    73    67    -1
  324    670   654   153    -1
  325     19   979    10    -1
  326     33    19    10    -1
  327    128   111   127    -1
  328    705   843   848    -1
  329    993  1001   995    -1
  330    614   814   808    -1
  331    107   106   378    -1
  332    138   205   227    -1
  333    283   294   266    -1
  334    328   303  1000    -1
  335    890   883   875    -1
  336    627   333   666    -1
  337    747   512   986    -1
  338    242   212    60    -1
  339    202   182   179    -1
  340    282   208     3    -1
  341    455   180   964    -1
  342    187   279   864    -1
  343    161   152   234    -1
  344    260   253   240    -1
  345    434   433   360    -1
  346    205   199   195    -1
  347    187   253   260    -1
  348    257   192   285    -1
  349    287   240   218    -1
  350    221   223   214    -1
  351    239   235   221    -1
  352    235   223   221    -1
  353    287   260   240    -1
  354    391   191   355    -1
  355    256   243   250    -1
  356    260   279   187    -1
  357    292   291   215    -1
  358    288   264   280    -1
  359     75   366   365    -1
  360    268   260   287    -1
  361    999   415   265    -1
  362    237   166   249    -1
  363    400   287   218    -1
  364    435    43   101    -1
  365    186   273   200    -1
  366    998   989   991    -1
  367    196   209   197    -1
  368    268   279   260    -1
  369    216   268   287    -1
  370     21   215    84    -1
  371    400   216   287    -1
  372    286   263   104    -1
  373    198   161   234    -1
  374    279   198   234    -1
  375    198   279   268    -1
  376    252   233   246    -1
  377    241   188   171    -1
  378    216   400   258    -1
  379    222   242   232    -1
  380    261   230   105    -1
  381    274   198   268    -1
  382    216   274   268    -1
  383    230   181   241    -1
  384    197   183   196    -1
  385    252   246   271    -1
  386    181   188   241    -1
  387    271   246   232    -1
  388    465    13   978    -1
  389    138   319   205    -1
  390    612   510   468    -1
  391    258   220   216    -1
  392    941   182   183    -1
  393    337   987   999    -1
  394    274   231   198    -1
  395    201   274   216    -1
  396    259    97   276    -1
  397     42     5   102    -1
  398    284     3   208    -1
  399    271   270   113    -1
  400    220   201   216    -1
  401    995   276    97    -1
  402    242   254   263    -1
  403    604   283   266    -1
  404    274   272   231    -1
  405    782   563   804    -1
  406    337   225   305    -1
  407    113   117   271    -1
  408    214   194   193    -1
  409    304   988   299    -1
  410    136   166   277    -1
  411    213   196   212    -1
  412    292   278   291    -1
  413    201   272   274    -1
  414    843   705   708    -1
  415      2   189   236    -1
  416    212   222   213    -1
  417    226   288   280    -1
  418    278   299   259    -1
  419    246   222   232    -1
  420    278   259   291    -1
  421    212   196   202    -1
  422    199   900   195    -1
  423    203   391   355    -1
  424    237   289   277    -1
  425    278   292   294    -1
  426    402   272   201    -1
  427    205   204   227    -1
  428    281   275   248    -1
  429    341   102     5    -1
  430    197   193   184    -1
  431    228   145   224    -1
  432    244   227   223    -1
  433    255   264   252    -1
  434    255   271   117    -1
  435    113   270   286    -1
  436    990   997   324    -1
  437    202    49   212    -1
  438    547   539   538    -1
  439    207   226   257    -1
  440    193   197   209    -1
  441    291   259   276    -1
  442     16   402   201    -1
  443     16   201   312    -1
  444    286   104   290    -1
  445    213   209   196    -1
  446    249   192   237    -1
  447    288   281   256    -1
  448    235   239   250    -1
  449    304   278   294    -1
  450    191   265   355    -1
  451    250   243   235    -1
  452    183   197   178    -1
  453    233   213   222    -1
  454    117   113   133    -1
  455    223   217   214    -1
  456    272   402   245    -1
  457    256   247   264    -1
  458    330   319   138    -1
  459    222   212   242    -1
  460    194   214   217    -1
  461    233   219   213    -1
  462    248   433   244    -1
  463    242    60   254    -1
  464    365   366   640    -1
  465     84   215   189    -1
  466    186   236   189    -1
  467    547   452   471    -1
  468    276   995   273    -1
  469    360   365   434    -1
  470    186   200   236    -1
  471    385   805   374    -1
  472    290   135   136    -1
  473    270   271   232    -1
  474    205   319   199    -1
  475    226   237   192    -1
  476    247   229   233    -1
  477    391   284   191    -1
  478    285   192   210    -1
  479    443   336   359    -1
  480    247   250   239    -1
  481    226   280   289    -1
  482    284   208   191    -1
  483    290   113   286    -1
  484    248   244   243    -1
  485    627   331   325    -1
  486    325   331   309    -1
  487    612   577   970    -1
  488    223   227   217    -1
  489    415   355   265    -1
  490     88     6   499    -1
  491     15   985   180    -1
  492    291   273   186    -1
  493    207   288   226    -1
  494    133   113   290    -1
  495    257   226   192    -1
  496    266   294   292    -1
  497    214   193   209    -1
  498    681   415   999    -1
  499    210   192   249    -1
  500    227   204   217    -1
  501    177   985    15    -1
  502    205   195   204    -1
  503    286   270   263    -1
  504    219   214   209    -1
  505    309   306   300    -1
  506    188   249   171    -1
  507    527   477   553    -1
  508    280   255   289    -1
  509    183   182   202    -1
  510    191   225   265    -1
  511     84   189     2    -1
  512    183   202   196    -1
  513    193   194   185    -1
  514    280   264   255    -1
  515    140   497   352    -1
  516    221   214   219    -1
  517    208   225   191    -1
  518    248   275   433    -1
  519     10   177    15    -1
  520     34   195   190    -1
  521    204   195    34    -1
  522    193   911   184    -1
  523    289   255   117    -1
  524    193   185   911    -1
  525    133   289   117    -1
  526    988   761    97    -1
  527    170   105   241    -1
  528    252   247   233    -1
  529    178   941   183    -1
  530    288   256   264    -1
  531    357   285   101    -1
  532    211   225   208    -1
  533    282   211   208    -1
  534    221   219   229    -1
  535    239   221   229    -1
  536    252   264   247    -1
  537    374   294   283    -1
  538    239   229   247    -1
  539    197   184   178    -1
  540    237   277   166    -1
  541    956   577   612    -1
  542    246   233   222    -1
  543    211   305   225    -1
  544    792   780   797    -1
  545    263   232   242    -1
  546    188   210   249    -1
  547    604   266   421    -1
  548    263    96   104    -1
  549    281   288   207    -1
  550    281   248   256    -1
  551    993   747   986    -1
  552    282   238   211    -1
  553    189   215   186    -1
  554    256   248   243    -1
  555    229   219   233    -1
  556    309   300   199    -1
  557    243   223   235    -1
  558    243   244   223    -1
  559    297   178   184    -1
  560    573   368   386    -1
  561    105   170    25    -1
  562    270   232   263    -1
  563    226   289   237    -1
  564      5    11   341    -1
  565     38   586    99    -1
  566    219   209   213    -1
  567     99   586   499    -1
  568    651    11     5    -1
  569    271   255   252    -1
  570    291   276   273    -1
  571    570   714   655    -1
  572     62   372   375    -1
  573    236    99     2    -1
  574    150   159   228    -1
  575    200   305   211    -1
  576    238   200   211    -1
  577    236   200   238    -1
  578    954   979    19    -1
  579    357   257   285    -1
  580    228   224   150    -1
  581    638   651    85    -1
  582    273  1001   200    -1
  583    133   277   289    -1
  584    170   157   167    -1
  585    256   250   247    -1
  586    302   718   298    -1
  587    456   510   621    -1
  588     65   621   618    -1
  589    947   924   937    -1
  590     65   456   621    -1
  591    756   735   302    -1
  592    327   405   409    -1
  593    336    65   395    -1
  594    374   301   304    -1
  595    346   303   328    -1
  596    342   806   343    -1
  597    185   912   892    -1
  598    359   626   408    -1
  599    426   324   303    -1
  600    335   358   683    -1
  601    613   556   369    -1
  602    493   834   614    -1
  603    198   231   161    -1
  604    776   762   775    -1
  605    590   493   571    -1
  606    364   328   991    -1
  607    304   294   374    -1
  608    918   937   914    -1
  609    997   303   324    -1
  610    327   408   540    -1
  611    551   573   592    -1
  612    480   515   473    -1
  613    314   311   745    -1
  614     23   328   364    -1
  615    630   770   569    -1
  616    924   902   896    -1
  617    314   326   332    -1
  618    359   397   626    -1
  619    332   322   316    -1
  620    267   324   426    -1
  621    361   358   347    -1
  622    481   482   471    -1
  623    722   311   728    -1
  624    363   336   395    -1
  625    314   332   311    -1
  626    473   405   392    -1
  627    308   338   443    -1
  628    482   547   471    -1
  629    327   409   408    -1
  630    267   340   324    -1
  631    212    49    60    -1
  632    278   304   299    -1
  633    480   473   535    -1
  634    541   540   404    -1
  635    473   515   982    -1
  636    369   551   592    -1
  637    310   307   296    -1
  638    345   989   153    -1
  639    324   340   990    -1
  640    259   299    97    -1
  641    621   612   609    -1
  642    707   752   842    -1
  643    408   626   144    -1
  644    295  1000   997    -1
  645    986   337   305    -1
  646    308   443   409    -1
  647    245   231   272    -1
  648    528   580   489    -1
  649    988   781   761    -1
  650    911   297   184    -1
  651    967   589   975    -1
  652    609   970   602    -1
  653    683   361    11    -1
  654    316   322   746    -1
  655    347   348   344    -1
  656    459   953    13    -1
  657    323   340   267    -1
  658    354   342   348    -1
  659    397   336   363    -1
  660    993   986  1001    -1
  661    628   629   531    -1
  662    382   323   267    -1
  663    704   771   813    -1
  664    728   296   850    -1
  665    347   344   351    -1
  666     97   761   995    -1
  667    348   326   344    -1
  668    623   395   618    -1
  669    603   808   594    -1
  670    369   556   551    -1
  671    348   343   326    -1
  672    342   343   348    -1
  673    580   429   566    -1
  674    300   306   302    -1
  675     11   361   315    -1
  676    363   395   623    -1
  677    332   316   311    -1
  678    329   323   382    -1
  679    322   332   343    -1
  680    713   838   839    -1
  681    262   281   207    -1
  682    669   680   681    -1
  683    311   316   310    -1
  684    719   839   296    -1
  685    315   361   367    -1
  686    257   251   207    -1
  687    344   326   321    -1
  688    220   384   203    -1
  689    281   262   275    -1
  690    251   262   207    -1
  691    497   992   340    -1
  692    329   350   352    -1
  693    497   340   323    -1
  694    471   477   481    -1
  695    262   142   275    -1
  696    293   334    75    -1
  697    827   663   690    -1
  698    326   314   321    -1
  699    361   347   367    -1
  700    307   719   296    -1
  701    621   609   618    -1
  702    302   735   718    -1
  703    220   203   312    -1
  704    203   320   312    -1
  705    352   497   323    -1
  706    311   310   728    -1
  707     34   912   194    -1
  708    728   310   296    -1
  709    251   293   262    -1
  710     11   315   341    -1
  711    315   366   334    -1
  712    331   689   756    -1
  713    351   344   686    -1
  714    958   937   923    -1
  715    142   360   275    -1
  716    293   142   262    -1
  717    333   325   319    -1
  718    493   590   834    -1
  719    991   989   345    -1
  720    391   203   384    -1
  721    357     7   251    -1
  722    650   691   641    -1
  723    696   674   702    -1
  724    683   358   361    -1
  725    714   717   557    -1
  726    203   355   320    -1
  727    426   303   346    -1
  728      7   293   251    -1
  729    309   199   319    -1
  730    300   900   199    -1
  731    367   347   351    -1
  732    293    75   142    -1
  733    101    43     7    -1
  734    360    75   365    -1
  735    358   354   347    -1
  736    329   352   323    -1
  737    174   590   571    -1
  738    333   319   330    -1
  739    410   333   330    -1
  740    142    75   360    -1
  741    357   101     7    -1
  742    315   334   341    -1
  743    325   309   319    -1
  744      7   102   293    -1
  745    624    76   425    -1
  746    369   403   379    -1
  747    403   448   379    -1
  748    548   386   440    -1
  749    376   387   400    -1
  750     24   376   400    -1
  751    106   364   345    -1
  752     23   346   328    -1
  753    385   283   604    -1
  754    397   359   336    -1
  755    106    23   364    -1
  756    410   411   666    -1
  757    432   411   410    -1
  758    433   432   138    -1
  759    433   138   244    -1
  760    368   404   386    -1
  761    378   106    35    -1
  762     76   378    35    -1
  763     76   624   555    -1
  764    990   601   997    -1
  765    432   434   411    -1
  766    434   432   433    -1
  767    801    26   610    -1
  768    425   403   624    -1
  769    539   957   538    -1
  770    444    92   394    -1
  771    284   406     3    -1
  772    613   369   379    -1
  773    411   434   640    -1
  774    423   383   414    -1
  775    535   473   392    -1
  776    409   443   359    -1
  777    365   640   434    -1
  778    447     8   401    -1
  779     82   425   154    -1
  780     16   389   402    -1
  781     12   695     9    -1
  782    513   588   398    -1
  783     16   417   389    -1
  784     22   106   345    -1
  785     70   417   418    -1
  786    416   399    12    -1
  787     70   399   416    -1
  788    379   373   377    -1
  789    761   993   995    -1
  790    417   412   389    -1
  791    547   538   452    -1
  792    511   956   468    -1
  793     70   416   423    -1
  794    417    70   423    -1
  795    410   666   333    -1
  796    320   355   418    -1
  797     88    84     6    -1
  798     76    35   154    -1
  799    490   377   376    -1
  800    377   393   376    -1
  801    380   448   430    -1
  802    393   380   420    -1
  803    373   448   380    -1
  804     22    35   106    -1
  805    380   406    87    -1
  806    420   380    87    -1
  807    368   620   566    -1
  808    402   389   160    -1
  809    380   430   406    -1
  810    970   577   798    -1
  811    417   423   412    -1
  812    383   416    12    -1
  813    415    70   418    -1
  814    551   620   368    -1
  815    369   592   403    -1
  816     16   418   417    -1
  817     76   154   425    -1
  818    459   958   953    -1
  819    588   396   398    -1
  820     99   236   238    -1
  821    556   489   620    -1
  822    390   377   490    -1
  823    447   401   444    -1
  824    320   418    16    -1
  825     91    42    43    -1
  826    423   416   383    -1
  827    383     9   147    -1
  828    430   448   425    -1
  829     23   107   346    -1
  830    330   138   432    -1
  831    147     9   691    -1
  832    393   420   376    -1
  833    375   372   382    -1
  834    107    23   106    -1
  835    422    91    43    -1
  836    406   578     3    -1
  837     74   101   285    -1
  838     82   578   406    -1
  839     74   435   101    -1
  840    355   415   418    -1
  841    389   412    90    -1
  842    430    82   406    -1
  843    396   375   382    -1
  844     87   284   384    -1
  845    285   176    74    -1
  846    210   176   285    -1
  847    188   176   210    -1
  848    637   578    82    -1
  849    430   425    82    -1
  850    420   387   376    -1
  851    445   435    74    -1
  852    490   376    24    -1
  853    658    91   422    -1
  854    436   422   435    -1
  855    513   398   441    -1
  856    160   389    90    -1
  857    382   372   329    -1
  858    420    36   387    -1
  859    445   436   435    -1
  860    146   445    74    -1
  861    146    74   176    -1
  862    188   181   176    -1
  863    383    12     9    -1
  864    407   658   422    -1
  865    396   267   398    -1
  866    412   423   414    -1
  867    384   284   391    -1
  868    176    98   146    -1
  869    399   695    12    -1
  870    488   128   127    -1
  871    407   422   436    -1
  872    181    98   176    -1
  873     50   145   132    -1
  874     36    87   384    -1
  875     36   258   387    -1
  876    377   373   393    -1
  877    436   424   407    -1
  878    442   436   445    -1
  879    120   445   146    -1
  880     98   120   146    -1
  881    482   554   547    -1
  882    424   436   442    -1
  883     31   181   230    -1
  884     98   181    31    -1
  885    346   441   426    -1
  886    224   145    50    -1
  887    442   445   120    -1
  888    415   399    70    -1
  889    422    43   435    -1
  890    403   592   584    -1
  891    320    16   312    -1
  892     53    27    92    -1
  893    230   261    31    -1
  894    499     6    99    -1
  895     84   362    21    -1
  896     85    91   658    -1
  897    618   611   623    -1
  898    697   424   442    -1
  899     55    98    31    -1
  900     22   345   153    -1
  901    385   374   283    -1
  902    403   584   624    -1
  903    513   441   514    -1
  904    120   449   442    -1
  905     55   120    98    -1
  906     55   449   120    -1
  907     31   172    55    -1
  908    172    31   261    -1
  909    488   224   128    -1
  910    107   441   346    -1
  911    442   449   697    -1
  912    428   172   261    -1
  913    449   682   697    -1
  914      0   428   261    -1
  915     48    30   507    -1
  916    602   970   975    -1
  917    258   400   387    -1
  918    409   359   408    -1
  919    449    45   682    -1
  920     55    45   449    -1
  921    762   545   565    -1
  922     28   454    14    -1
  923     48   507   517    -1
  924     77   933    54    -1
  925    421   563   604    -1
  926    507    29    66    -1
  927    582   935   568    -1
  928    472   454    28    -1
  929    472   457   454    -1
  930     39   522   755    -1
  931    303   997  1000    -1
  932    295   998  1000    -1
  933     79   478   486    -1
  934    588   513   504    -1
  935    875   883   868    -1
  936    530    61   517    -1
  937    537   295   601    -1
  938     32   483   494    -1
  939    513   514   476    -1
  940    505    89   479    -1
  941    121   474   475    -1
  942    563   421   362    -1
  943    507    30    18    -1
  944    892   912   893    -1
  945    514   378   593    -1
  946    593   378   574    -1
  947    153   637   154    -1
  948    460    89   491    -1
  949    479    89   460    -1
  950    475   488   127    -1
  951    526   478    72    -1
  952    808   776   775    -1
  953    984   453   465    -1
  954    494   501    54    -1
  955    490    24   466    -1
  956    493    68   571    -1
  957     14   454   459    -1
  958     56    48    61    -1
  959    517   507   524    -1
  960    507    18    29    -1
  961     69   269   498    -1
  962     29    51    66    -1
  963    110   966   269    -1
  964     29   485    51    -1
  965     36   384   258    -1
  966    630   781   804    -1
  967    814   614   834    -1
  968    732   770   786    -1
  969    488   150   224    -1
  970    152   464   523    -1
  971    524    72   478    -1
  972    755   521   736    -1
  973    494   933   495    -1
  974    492    69   529    -1
  975    484   460   511    -1
  976    560   481   968    -1
  977    464   503   523    -1
  978    139   475   119    -1
  979    882   461   451    -1
  980    459    13    14    -1
  981    974   501   560    -1
  982    466   509   528    -1
  983    465   978   973    -1
  984    455   459   454    -1
  985    529    69   498    -1
  986    466   130   509    -1
  987    914   924   896    -1
  988    469   509   508    -1
  989    511   460   491    -1
  990    968   974   560    -1
  991    150   488   156    -1
  992    507    66   524    -1
  993    508   529   480    -1
  994    480   529   498    -1
  995    492   529   509    -1
  996    530   517   524    -1
  997    119   474   486    -1
  998    525   456   443    -1
  999    484   503   479    -1
 1000    613   489   556    -1
 1001     76   574   378    -1
 1002    465   973   984    -1
 1003    462   906   451    -1
 1004    462   451   461    -1
 1005    467   462   461    -1
 1006    494   483   501    -1
 1007    357   251   257    -1
 1008    974   927   501    -1
 1009    503   484   458    -1
 1010    466   528   490    -1
 1011    206   465   453    -1
 1012    474    79   486    -1
 1013     28    44   485    -1
 1014    463   462   467    -1
 1015    156   488   475    -1
 1016    521   828   175    -1
 1017    510   612   621    -1
 1018    518   510   456    -1
 1019    525   518   456    -1
 1020    486   526   119    -1
 1021    509   529   508    -1
 1022    613   390   489    -1
 1023    486   478   526    -1
 1024    463   913   462    -1
 1025    454   457   455    -1
 1026    530   524   478    -1
 1027    475   474   119    -1
 1028    530   478    79    -1
 1029    180   455   457    -1
 1030    518   487   510    -1
 1031     29   472   485    -1
 1032    201   220   312    -1
 1033    174   571   704    -1
 1034    410   330   432    -1
 1035     21   266   292    -1
 1036    517    61    48    -1
 1037    536   769   771    -1
 1038    509   469   528    -1
 1039    477   463   467    -1
 1040    154    22   153    -1
 1041    470   523   934    -1
 1042    503   458   523    -1
 1043    570   711   714    -1
 1044    484   479   460    -1
 1045    770   747   993    -1
 1046    524    66    72    -1
 1047    485   472    28    -1
 1048    475   139   156    -1
 1049    471   463   477    -1
 1050    538   957   723    -1
 1051    518   458   487    -1
 1052    525   458   518    -1
 1053    338   934   525    -1
 1054    902   883   890    -1
 1055    469   508   535    -1
 1056    483    32    17    -1
 1057    452   723   913    -1
 1058    463   452   913    -1
 1059    313    39   439    -1
 1060    487   468   510    -1
 1061    471   452   463    -1
 1062    481   477   527    -1
 1063    955   179   182    -1
 1064    484   468   487    -1
 1065    458   484   487    -1
 1066    523   458   525    -1
 1067    934   523   525    -1
 1068    543   813   771    -1
 1069    630   786   770    -1
 1070    440   371   619    -1
 1071    484   511   468    -1
 1072    480   498   515    -1
 1073    362    84   630    -1
 1074    528   390   490    -1
 1075    307   316   746    -1
 1076    704   571   771    -1
 1077    786    88   499    -1
 1078    649   628   636    -1
 1079    634   616   635    -1
 1080    554   482   560    -1
 1081    679   645   100    -1
 1082    140   587   497    -1
 1083    372   567   370    -1
 1084    587    86   497    -1
 1085    567   532   587    -1
 1086    567   372    62    -1
 1087    532    86   587    -1
 1088    615   992    86    -1
 1089    489   390   528    -1
 1090    532   615    86    -1
 1091    552   532   567    -1
 1092    552   567    62    -1
 1093    206   554   483    -1
 1094    558   545   542    -1
 1095    552   615   532    -1
 1096    588   552    62    -1
 1097    533   615   552    -1
 1098    613   377   390    -1
 1099    533   115   615    -1
 1100    588   533   552    -1
 1101    504   533   588    -1
 1102    596   533   504    -1
 1103    520   643   644    -1
 1104    646   702   668    -1
 1105    596   115   533    -1
 1106    702   673   701    -1
 1107     26    68   610    -1
 1108    830   667    26    -1
 1109    115   601   562    -1
 1110    596   601   115    -1
 1111    476   596   504    -1
 1112    597   591   796    -1
 1113    597   796   610    -1
 1114    605   597   610    -1
 1115    610    68   605    -1
 1116    612   468   956    -1
 1117    476   504   513    -1
 1118    581   754   591    -1
 1119    597   581   591    -1
 1120    603   597   605    -1
 1121    596   537   601    -1
 1122    535   392   429    -1
 1123    493   614   605    -1
 1124    476   579   596    -1
 1125    206   539   554    -1
 1126    438   450   696    -1
 1127    581   564   754    -1
 1128    594   581   597    -1
 1129    603   594   597    -1
 1130    614   603   605    -1
 1131    525   443   338    -1
 1132    469   580   528    -1
 1133    650   641   632    -1
 1134    579   537   596    -1
 1135    663   837   635    -1
 1136    570   534   845    -1
 1137    655   534   570    -1
 1138    688   520   662    -1
 1139    514   579   476    -1
 1140    560   501   554    -1
 1141    668   702   701    -1
 1142    564   576   557    -1
 1143    576   564   581    -1
 1144    594   576   581    -1
 1145    429   541   566    -1
 1146    579   546   537    -1
 1147    620   580   566    -1
 1148    580   620   489    -1
 1149    446   144   440    -1
 1150    604   563   782    -1
 1151    655   542   534    -1
 1152    557   542   655    -1
 1153    576   558   557    -1
 1154    546   998   537    -1
 1155    761   569   993    -1
 1156    557   558   542    -1
 1157    775   576   594    -1
 1158    808   775   594    -1
 1159    593   546   579    -1
 1160    539   453   957    -1
 1161    959   953   929    -1
 1162    565   558   576    -1
 1163    327   392   405    -1
 1164    563   362   804    -1
 1165    542   676   534    -1
 1166    541   429   327    -1
 1167    429   392   327    -1
 1168    996   998   546    -1
 1169    912   185   194    -1
 1170    775   565   576    -1
 1171    898   899   880    -1
 1172    551   368   573    -1
 1173    733   676   542    -1
 1174    545   733   542    -1
 1175    863   676   715    -1
 1176    574   546   593    -1
 1177    608   810   828    -1
 1178    882   639   544    -1
 1179    656   653   641    -1
 1180    625   996   546    -1
 1181    156   165   150    -1
 1182    687    57   662    -1
 1183    937   918   923    -1
 1184    598   608   617    -1
 1185    427   617    39    -1
 1186    313   427    39    -1
 1187    464   134   503    -1
 1188    630    84    88    -1
 1189    657   339   697    -1
 1190    643   679   100    -1
 1191    625   546   574    -1
 1192    837   659   635    -1
 1193     76   625   574    -1
 1194    593   579   514    -1
 1195    830   690   667    -1
 1196    740   715   733    -1
 1197    625   599   996    -1
 1198    554   539   547    -1
 1199    692   438   703    -1
 1200    559   740   561    -1
 1201    427   622   617    -1
 1202     58   502   439    -1
 1203    769   685   636    -1
 1204    656     9   695    -1
 1205    555   599   625    -1
 1206    639   740   544    -1
 1207    559   561   568    -1
 1208    628   649   629    -1
 1209    634   721   661    -1
 1210    499   586   732    -1
 1211    589   803   595    -1
 1212    611   598   617    -1
 1213    502   550   313    -1
 1214     76   555   625    -1
 1215    740   553   544    -1
 1216    559   553   740    -1
 1217    589   595   598    -1
 1218    313   550   427    -1
 1219    664   682   692    -1
 1220    555   317   599    -1
 1221    480   535   508    -1
 1222    608   598   595    -1
 1223    935   582   803    -1
 1224    585   803   589    -1
 1225    622   611   617    -1
 1226    363   622   427    -1
 1227    580   535   429    -1
 1228    944   553   559    -1
 1229    568   944   559    -1
 1230    585   935   803    -1
 1231    550   363   427    -1
 1232    619   793   548    -1
 1233    602   598   611    -1
 1234    623   611   622    -1
 1235    502   506   550    -1
 1236    848   843   856    -1
 1237    440   144   371    -1
 1238    555   584   317    -1
 1239    544   461   882    -1
 1240    467   461   544    -1
 1241    975   589   598    -1
 1242    626   506   371    -1
 1243    548   440   619    -1
 1244    853   868   856    -1
 1245    421    21   362    -1
 1246    553   467   544    -1
 1247    522   617   608    -1
 1248    550   397   363    -1
 1249    626   371   144    -1
 1250    573   548   317    -1
 1251    584   573   317    -1
 1252    555   624   584    -1
 1253    206   453   539    -1
 1254    602   975   598    -1
 1255    363   623   622    -1
 1256    506   397   550    -1
 1257    925   898   903    -1
 1258    626   397   506    -1
 1259    697   339   424    -1
 1260    344   321   686    -1
 1261     63   687   662    -1
 1262    898   909   899    -1
 1263    650   701   691    -1
 1264    661   629   649    -1
 1265    661   721   644    -1
 1266    616   685   660    -1
 1267    640   366   351    -1
 1268    978    13   953    -1
 1269    671    57   684    -1
 1270    671   688    57    -1
 1271     11   651   381    -1
 1272    419   679   643    -1
 1273    688   600   419    -1
 1274    684    57   687    -1
 1275    659   652   635    -1
 1276    664   692   645    -1
 1277    683    11   381    -1
 1278    646   696   702    -1
 1279    335   683   549    -1
 1280    381   651   671    -1
 1281    600   339   657    -1
 1282    629   607   633    -1
 1283    666   411   665    -1
 1284    687   699   684    -1
 1285    675   684   549    -1
 1286    675   671   684    -1
 1287    986   305  1001    -1
 1288    706   714   711    -1
 1289    683   675   549    -1
 1290    699   648   677    -1
 1291    419   657   679    -1
 1292    758   686   321    -1
 1293    657   697   664    -1
 1294    703   646   100    -1
 1295      5    85   651    -1
 1296    339   658   407    -1
 1297    953   958   929    -1
 1298    331   627   689    -1
 1299    665   640   351    -1
 1300    671   638   688    -1
 1301    664   697   682    -1
 1302    686   665   351    -1
 1303    652    63   721    -1
 1304    821   549   699    -1
 1305    771   606   543    -1
 1306    758   763   686    -1
 1307   1000   991   328    -1
 1308    153   654   637    -1
 1309    659   648   652    -1
 1310    645   703   100    -1
 1311    635   616   631    -1
 1312    636   698   606    -1
 1313    673   691   701    -1
 1314     57   688   662    -1
 1315    688   638   600    -1
 1316    654   987   637    -1
 1317    730   813   647    -1
 1318    663   635   631    -1
 1319    342   335   821    -1
 1320    636   628   698    -1
 1321    641   653   632    -1
 1322    929   958   923    -1
 1323    670   669   654    -1
 1324    531   646   668    -1
 1325    660   536   667    -1
 1326    789   669   670    -1
 1327    531   668   698    -1
 1328    557   655   714    -1
 1329    536   571    68    -1
 1330     39   617   522    -1
 1331    419   600   657    -1
 1332    689   627   665    -1
 1333    606   632   543    -1
 1334    649   634   661    -1
 1335    769   636   606    -1
 1336    497    86   992    -1
 1337    769   536   660    -1
 1338    643   100   633    -1
 1339    669   789   680    -1
 1340    652   634   635    -1
 1341    836   575   794    -1
 1342    575   356   794    -1
 1343    769   606   771    -1
 1344    695   399   681    -1
 1345    606   698   632    -1
 1346    698   700   632    -1
 1347    632   700   650    -1
 1348    731   575   836    -1
 1349    206   483    17    -1
 1350    641     9   656    -1
 1351    343   332   326    -1
 1352    638   658   600    -1
 1353    600   658   339    -1
 1354    731   693   575    -1
 1355    638    85   658    -1
 1356    691     9   641    -1
 1357    642   356   575    -1
 1358    977   957   453    -1
 1359    773   693   731    -1
 1360    668   700   698    -1
 1361    627   666   665    -1
 1362    702   674   673    -1
 1363    694   681   680    -1
 1364    642   694   356    -1
 1365    694   680   356    -1
 1366     91    85    42    -1
 1367    653   656   349    -1
 1368    693   678   575    -1
 1369    575   678   642    -1
 1370    647   678   693    -1
 1371    154   637    82    -1
 1372    782   805   385    -1
 1373    683   381   675    -1
 1374    349   694   642    -1
 1375    678   349   642    -1
 1376    273   995  1001    -1
 1377    520   419   643    -1
 1378    996   599   994    -1
 1379    695   681   694    -1
 1380    531   633   646    -1
 1381    633   100   646    -1
 1382    703   438   696    -1
 1383    686   689   665    -1
 1384    360   433   275    -1
 1385    679   657   664    -1
 1386    630   804   362    -1
 1387    703   696   646    -1
 1388    381   671   675    -1
 1389    688   419   520    -1
 1390    651   638   671    -1
 1391    664   645   679    -1
 1392     42    85     5    -1
 1393    678   653   349    -1
 1394    700   701   650    -1
 1395    667   536    26    -1
 1396    690   631   667    -1
 1397    424   339   407    -1
 1398    668   701   700    -1
 1399    656   694   349    -1
 1400    647   653   678    -1
 1401    994   670   996    -1
 1402    695   694   656    -1
 1403    647   543   653    -1
 1404    632   653   543    -1
 1405    692   703   645    -1
 1406    411   640   665    -1
 1407    415   681   399    -1
 1408    687    63   648    -1
 1409    631   660   667    -1
 1410    677   648   659    -1
 1411    863   715   712    -1
 1412    644   643   607    -1
 1413    616   636   685    -1
 1414    531   698   628    -1
 1415    763   689   686    -1
 1416    616   660   631    -1
 1417    663   631   690    -1
 1418    607   643   633    -1
 1419    629   633   531    -1
 1420    751   583    58    -1
 1421    500   835   672    -1
 1422    756   689   763    -1
 1423    496   832   572    -1
 1424    735   756   763    -1
 1425    758   735   763    -1
 1426    608   595   803    -1
 1427    741   987   512    -1
 1428    810   803   582    -1
 1429    813   729   704    -1
 1430    711   570   845    -1
 1431    782   385   604    -1
 1432    745   718   735    -1
 1433    745   735   758    -1
 1434    826   815   824    -1
 1435    583   502    58    -1
 1436    825   824   831    -1
 1437    767   736   734    -1
 1438    314   745   758    -1
 1439    321   314   758    -1
 1440    734   736   496    -1
 1441    583   516   793    -1
 1442    792   582   568    -1
 1443    802   780   772    -1
 1444    821   699   822    -1
 1445    496   572   734    -1
 1446    722   718   745    -1
 1447    522   828   521    -1
 1448    793   516   994    -1
 1449    568   561   780    -1
 1450    792   568   780    -1
 1451    175   809   797    -1
 1452    722   716   718    -1
 1453    734   572   730    -1
 1454    826   824   825    -1
 1455    730   572   729    -1
 1456    572   143   729    -1
 1457    797   802   826    -1
 1458    826   825   832    -1
 1459    522   521   755    -1
 1460    797   780   802    -1
 1461    862   716   722    -1
 1462    808   603   614    -1
 1463    762   744   545    -1
 1464    797   809   792    -1
 1465    788   755   736    -1
 1466    469   535   580    -1
 1467    728   862   722    -1
 1468    762   772   744    -1
 1469    785   772   776    -1
 1470    780   561   772    -1
 1471    521   175   496    -1
 1472    732   512   747    -1
 1473    821   806   342    -1
 1474    776   772   762    -1
 1475    748   500   794    -1
 1476    831   590   174    -1
 1477    687   648   699    -1
 1478    748   751   500    -1
 1479    175   828   809    -1
 1480    608   828   522    -1
 1481     61   530    79    -1
 1482    799   343   806    -1
 1483    745   311   722    -1
 1484    307   310   316    -1
 1485    850   862   728    -1
 1486    644   607   661    -1
 1487    764   746   322    -1
 1488    806   811   799    -1
 1489    822   811   806    -1
 1490    821   822   806    -1
 1491    815   802   785    -1
 1492    734   730   773    -1
 1493    748   516   751    -1
 1494    800   764   799    -1
 1495    740   733   561    -1
 1496    516   748   760    -1
 1497    811   800   799    -1
 1498    439   502   313    -1
 1499    590   820   834    -1
 1500    730   729   813    -1
 1501    590   831   820    -1
 1502    715   676   733    -1
 1503    719   307   746    -1
 1504    719   746   749    -1
 1505    764   749   746    -1
 1506    677   822   699    -1
 1507    350   587   140    -1
 1508    824   815   820    -1
 1509    322   343   799    -1
 1510    814   815   785    -1
 1511    742   719   749    -1
 1512    811   795   800    -1
 1513    820   815   814    -1
 1514    760   748   794    -1
 1515    752   705   848    -1
 1516    719   713   839    -1
 1517    774   749   764    -1
 1518    774   764   800    -1
 1519    795   774   800    -1
 1520    521   496   736    -1
 1521    785   802   772    -1
 1522    677   816   822    -1
 1523    335   549   821    -1
 1524    835   788   672    -1
 1525    500   672   836    -1
 1526    629   661   607    -1
 1527    824   820   831    -1
 1528    738   742   749    -1
 1529    816   811   822    -1
 1530    801   830    26    -1
 1531    520   644   662    -1
 1532    820   814   834    -1
 1533    742   713   719    -1
 1534    774   738   749    -1
 1535    659   816   677    -1
 1536    299   988    97    -1
 1537    174   704   729    -1
 1538    812   795   811    -1
 1539    812   811   816    -1
 1540    732   586   741    -1
 1541    662   644    63    -1
 1542    795   765   774    -1
 1543    729   143   174    -1
 1544    832   175   797    -1
 1545    812   765   795    -1
 1546    816   807   812    -1
 1547    829   816   659    -1
 1548    770   732   747    -1
 1549    644   721    63    -1
 1550    439    39   788    -1
 1551    766   738   774    -1
 1552    765   766   774    -1
 1553    744   733   545    -1
 1554    772   561   744    -1
 1555    356   680   789    -1
 1556    670   760   789    -1
 1557    812   779   765    -1
 1558    816   829   807    -1
 1559    927    54   501    -1
 1560    637   987   741    -1
 1561    998   295   537    -1
 1562    619   583   793    -1
 1563    724   713   742    -1
 1564    738   724   742    -1
 1565    766   737   738    -1
 1566    724   840   838    -1
 1567    724   838   713    -1
 1568    766   765   779    -1
 1569    807   790   812    -1
 1570    830   833   690    -1
 1571    790   779   812    -1
 1572    659   837   829    -1
 1573    753   766   779    -1
 1574    823   807   829    -1
 1575    744   561   733    -1
 1576    707   840   724    -1
 1577    753   737   766    -1
 1578    783   779   790    -1
 1579    837   823   829    -1
 1580    721   634   652    -1
 1581    725   738   737    -1
 1582    753   779   783    -1
 1583    823   790   807    -1
 1584    741   512   732    -1
 1585    654   669   987    -1
 1586    789   760   794    -1
 1587    725   707   724    -1
 1588    725   724   738    -1
 1589    817   783   790    -1
 1590    817   790   823    -1
 1591    783   759   753    -1
 1592    787   783   817    -1
 1593    827   817   823    -1
 1594    827   823   837    -1
 1595    794   500   836    -1
 1596    832   797   826    -1
 1597    739   737   753    -1
 1598    567   587   350    -1
 1599    516   760   994    -1
 1600    709   707   725    -1
 1601    739   725   737    -1
 1602    767   773   731    -1
 1603    672   767   731    -1
 1604    726   725   739    -1
 1605    739   753   759    -1
 1606    818   787   817    -1
 1607    837   663   827    -1
 1608     68    26   536    -1
 1609    752   707   709    -1
 1610    726   709   725    -1
 1611    827   818   817    -1
 1612    787   759   783    -1
 1613    649   616   634    -1
 1614    726   727   709    -1
 1615     39   755   788    -1
 1616    731   836   672    -1
 1617    751    58   835    -1
 1618    757   759   787    -1
 1619    785   808   814    -1
 1620    639   882   712    -1
 1621    500   751   835    -1
 1622    616   649   636    -1
 1623    439   835    58    -1
 1624    709   727   710    -1
 1625    819   818   827    -1
 1626    826   802   815    -1
 1627    586   578   637    -1
 1628    757   739   759    -1
 1629    175   832   496    -1
 1630    439   788   835    -1
 1631    784   757   787    -1
 1632    784   787   818    -1
 1633    819   784   818    -1
 1634    743   727   726    -1
 1635    743   726   739    -1
 1636    750   743   739    -1
 1637    750   739   757    -1
 1638    833   819   827    -1
 1639    947   930   924    -1
 1640    583   371   506    -1
 1641    693   773   730    -1
 1642    174   143   831    -1
 1643    720   710   727    -1
 1644    705   709   710    -1
 1645    958   947   937    -1
 1646    301   805   768    -1
 1647    560   482   481    -1
 1648    743   720   727    -1
 1649    784   778   757    -1
 1650    791   784   819    -1
 1651    317   793   599    -1
 1652    768   519   304    -1
 1653    805   782   768    -1
 1654    370   567   350    -1
 1655    769   660   685    -1
 1656    757   778   750    -1
 1657    791   778   784    -1
 1658    801   833   830    -1
 1659    809   582   792    -1
 1660    647   693   730    -1
 1661    785   776   808    -1
 1662    810   582   809    -1
 1663    782   519   768    -1
 1664    875   868   853    -1
 1665    708   710   720    -1
 1666    801   791   819    -1
 1667    833   801   819    -1
 1668    720   717   708    -1
 1669    750   754   743    -1
 1670    619   371   583    -1
 1671    931   898   925    -1
 1672    564   720   743    -1
 1673    740   639   715    -1
 1674    538   723   452    -1
 1675    519   804   781    -1
 1676    782   804   519    -1
 1677    754   564   743    -1
 1678    791   591   778    -1
 1679    801   796   791    -1
 1680    788   736   767    -1
 1681    639   712   715    -1
 1682    767   734   773    -1
 1683    788   767   672    -1
 1684    564   717   720    -1
 1685    778   754   750    -1
 1686    591   754   778    -1
 1687    868   861   848    -1
 1688    706   708   717    -1
 1689    796   591   791    -1
 1690    828   810   809    -1
 1691    764   322   799    -1
 1692    572   825   143    -1
 1693    793   317   548    -1
 1694    781   569   761    -1
 1695    153   989   670    -1
 1696    825   831   143    -1
 1697    825   572   832    -1
 1698    630   569   781    -1
 1699    810   608   803    -1
 1700    718   716   866    -1
 1701    557   717   564    -1
 1702    610   796   801    -1
 1703    926   910   916    -1
 1704    941   939   182    -1
 1705    699   549   684    -1
 1706    177    10   979    -1
 1707    909   898   931    -1
 1708    885   881   876    -1
 1709    865   716   862    -1
 1710    960   938   930    -1
 1711    269   966   777    -1
 1712    152   523   470    -1
 1713    938   948   919    -1
 1714    190   900   904    -1
 1715    935   585   967    -1
 1716    949   925   948    -1
 1717    920   925   903    -1
 1718    601   295   997    -1
 1719    876   881   865    -1
 1720    926   297   910    -1
 1721    883   879   868    -1
 1722    939   941   926    -1
 1723    855   862   850    -1
 1724    978   953   959    -1
 1725    453   984   977    -1
 1726    177   962   965    -1
 1727    961   949   948    -1
 1728    948   925   920    -1
 1729    898   880   903    -1
 1730    979   954   940    -1
 1731    876   862   855    -1
 1732    949   931   925    -1
 1733    910   297   885    -1
 1734    279   234   864    -1
 1735    848   861   852    -1
 1736    876   865   862    -1
 1737    852   752   848    -1
 1738    916   910   909    -1
 1739    885   892   881    -1
 1740    842   752   852    -1
 1741    955   939   932    -1
 1742    939   916   932    -1
 1743    982   308   405    -1
 1744    903   880   884    -1
 1745    900   888   904    -1
 1746    979   940   962    -1
 1747    907   896   887    -1
 1748    459   969   958    -1
 1749    857   858   844    -1
 1750     89   108   917    -1
 1751     34   190   912    -1
 1752    338   308   982    -1
 1753    979   962   177    -1
 1754    879   857   861    -1
 1755    298   718   866    -1
 1756    945   921   982    -1
 1757    498   945   982    -1
 1758    924   930   919    -1
 1759    948   920   919    -1
 1760    180   985   964    -1
 1761    586   637   741    -1
 1762    868   879   861    -1
 1763    338   982   921    -1
 1764    865   866   716    -1
 1765    964   985   965    -1
 1766    861   847   852    -1
 1767    947   960   930    -1
 1768    187   864   966    -1
 1769     24   400   218    -1
 1770    844   854   839    -1
 1771    924   919   902    -1
 1772    934   338   921    -1
 1773    971   975   798    -1
 1774    577   870   798    -1
 1775    455   964   969    -1
 1776    938   919   930    -1
 1777    269   945   498    -1
 1778    297   911   885    -1
 1779    967   585   589    -1
 1780    971   798   870    -1
 1781    945   777   921    -1
 1782    956   141   577    -1
 1783    919   908   902    -1
 1784    777   945   269    -1
 1785    178   297   926    -1
 1786    941   178   926    -1
 1787    852   847   842    -1
 1788    921   470   934    -1
 1789    777   470   921    -1
 1790    963   967   971    -1
 1791    141   870   577    -1
 1792    854   296   839    -1
 1793    976   971   870    -1
 1794    318   870   141    -1
 1795    956   511   141    -1
 1796    511   491   915    -1
 1797    844   838   842    -1
 1798    859   855   854    -1
 1799    939   926   916    -1
 1800    963   935   967    -1
 1801    777   864   470    -1
 1802    910   899   909    -1
 1803    976   963   971    -1
 1804    318   976   870    -1
 1805    920   897   908    -1
 1806    470   234   152    -1
 1807    864   234   470    -1
 1808    554   501   483    -1
 1809    919   920   908    -1
 1810    864   777   966    -1
 1811    900   190   195    -1
 1812    917    77   981    -1
 1813    943   568   935    -1
 1814    943   935   963    -1
 1815    511   915   141    -1
 1816    455   969   459    -1
 1817    911   892   885    -1
 1818    976   943   963    -1
 1819    980   141   915    -1
 1820    971   967   975    -1
 1821    998   991  1000    -1
 1822    920   903   897    -1
 1823    873   712   882    -1
 1824    451   873   882    -1
 1825    980   318   141    -1
 1826     19   955   954    -1
 1827    990   992   562    -1
 1828    182   939   955    -1
 1829    867   676   863    -1
 1830    712   873   871    -1
 1831    451   906   873    -1
 1832    944   568   943    -1
 1833    983   976   318    -1
 1834    942   318   980    -1
 1835    844   839   838    -1
 1836    842   840   707    -1
 1837    951   944   943    -1
 1838    951   943   976    -1
 1839    983   951   976    -1
 1840    861   857   847    -1
 1841    892   893   881    -1
 1842    957   977   972    -1
 1843    942   983   318    -1
 1844    891   869   879    -1
 1845    911   185   892    -1
 1846    871   863   712    -1
 1847    889   871   873    -1
 1848    906   889   873    -1
 1849     71   942   980    -1
 1850    950   915   491    -1
 1851    912   904   893    -1
 1852    900   300   888    -1
 1853     71   980   915    -1
 1854    916   909   931    -1
 1855    527   944   951    -1
 1856     71   353   942    -1
 1857    904   886   893    -1
 1858     79   474   103    -1
 1859    871   874   863    -1
 1860    462   913   906    -1
 1861    942   353   983    -1
 1862    353   968   983    -1
 1863    950    71   915    -1
 1864    917   491    89    -1
 1865    881   866   865    -1
 1866    578   586    38    -1
 1867    968   951   983    -1
 1868    974   968   353    -1
 1869    879   869   857    -1
 1870    874   867   863    -1
 1871    889   874   871    -1
 1872    906   905   889    -1
 1873    913   905   906    -1
 1874    927   353    71    -1
 1875    950   927    71    -1
 1876    950   491   917    -1
 1877    858   857   869    -1
 1878    709   705   752    -1
 1879    723   936   913    -1
 1880    492   509   130    -1
 1881    860   534   676    -1
 1882    337   265   225    -1
 1883    999   265   337    -1
 1884    999   669   681    -1
 1885    867   860   676    -1
 1886    936   905   913    -1
 1887    957   972   723    -1
 1888    927   974   353    -1
 1889    846   711   845    -1
 1890    534   846   845    -1
 1891    860   846   534    -1
 1892    874   877   867    -1
 1893    889   901   874    -1
 1894    904   888   886    -1
 1895    981   927   950    -1
 1896    981   950   917    -1
 1897    905   901   889    -1
 1898    902   908   883    -1
 1899    847   844   842    -1
 1900    867   877   860    -1
 1901    874   901   877    -1
 1902    860   849   846    -1
 1903    972   952   723    -1
 1904    883   891   879    -1
 1905    884   869   891    -1
 1906    897   884   891    -1
 1907    846   841   711    -1
 1908    936   922   905    -1
 1909    952   936   723    -1
 1910     54   927   981    -1
 1911    881   886   866    -1
 1912    972   984   952    -1
 1913    977   984   972    -1
 1914    893   886   881    -1
 1915    515   498   982    -1
 1916    901   894   877    -1
 1917    179   955    19    -1
 1918    849   851   846    -1
 1919    872   849   860    -1
 1920    877   878   860    -1
 1921    936   946   922    -1
 1922    952   946   936    -1
 1923     77    54   981    -1
 1924    912   190   904    -1
 1925    846   851   841    -1
 1926    894   895   877    -1
 1927    973   952   984    -1
 1928    854   850   296    -1
 1929    857   844   847    -1
 1930    854   855   850    -1
 1931    895   878   877    -1
 1932    946   928   922    -1
 1933    562   615   115    -1
 1934    965   985   177    -1
 1935    897   903   884    -1
 1936    841   706   711    -1
 1937    853   851   849    -1
 1938    895   887   878    -1
 1939    933   494    54    -1
 1940    886   298   866    -1
 1941    872   853   849    -1
 1942    973   946   952    -1
 1943    843   841   851    -1
 1944    883   908   891    -1
 1945    842   838   840    -1
 1946    841   843   706    -1
 1947    851   856   843    -1
 1948    973   959   946    -1
 1949    938   961   948    -1
 1950    854   844   858    -1
 1951    859   854   858    -1
 1952    886   888   298    -1
 1953    872   875   853    -1
 1954    946   929   928    -1
 1955    959   929   946    -1
 1956    869   859   858    -1
 1957    908   897   891    -1
 1958    843   708   706    -1
 1959    853   856   851    -1
 1960    884   880   869    -1
 1961    880   859   869    -1
 1962    928   929   923    -1
 1963    978   959   973    -1
 1964    910   885   899    -1
 1965    885   876   899    -1
 1966    880   899   859    -1
 1967    899   876   859    -1
 1968    859   876   855    -1
 1969    527   951   481    -1
 1970    951   968   481    -1
 1971    875   872   890    -1
 1972    860   878   872    -1
 1973    902   890   896    -1
 1974    896   890   887    -1
 1975    890   872   887    -1
 1976    878   887   872    -1
 1977    958   969   947    -1
 1978    916   931   932    -1
 1979    954   955   940    -1
 1980    969   964   947    -1
 1981    947   964   960    -1
 1982    964   965   960    -1
 1983    965   962   960    -1
 1984    962   940   960    -1
 1985    931   949   932    -1
 1986    955   932   940    -1
 1987    940   932   960    -1
 1988    949   961   932    -1
 1989    938   960   961    -1
 1990    887   895   907    -1
 1991    914   907   918    -1
 1992    918   907   923    -1
 1993    907   895   923    -1
 1994    905   922   901    -1
 1995    928   923   922    -1
 1996    901   922   894    -1
 1997    894   922   895    -1
 1998    922   923   895    -1
 1999    960   932   961    -1
# Generated by /Users/zhenhan/Desktop/TetGen/tetgen -pq1.4/12YO9/7 bunny_2000f.off 
