1384  3  0  0
   0    0.0044960019999999998  0.12724050000000001  0.029579319999999999
   1    -0.023020820000000001  0.1115845  0.038893669999999998
   2    -0.034088809999999997  0.17246310000000001  -0.00130613
   3    -0.049563919999999997  0.15858369999999999  0.0088735380000000003
   4    -0.015841750000000002  0.11456189999999999  0.03886303
   5    0.041290319999999998  0.1011093  -0.0008870061
   6    -0.040017869999999997  0.17272209999999999  -0.0020213760000000001
   7    0.041606520000000001  0.1026219  0.01615513
   8    -0.01007335  0.13013559999999999  0.01342053
   9    -0.030664429999999999  0.12484099999999999  0.00065684510000000001
  10    -0.01120316  0.045502099999999997  0.04901026
  11    0.04020435  0.095126660000000002  -0.0074901209999999998
  12    -0.034415380000000002  0.12690689999999999  0.0042795639999999996
  13    -0.045263890000000001  0.04124448  0.043928189999999999
  14    -0.041102510000000002  0.044503979999999999  0.04155847
  15    -0.0180751  0.044956330000000003  0.05182051
  16    -0.045513690000000002  0.12696560000000001  0.023092350000000001
  17    -0.050220769999999998  0.048074020000000002  0.039347710000000001
  18    -0.020144829999999999  0.051021499999999997  0.046811079999999998
  19    -0.001776316  0.043143540000000001  0.046625100000000003
  20    0.0012149280000000001  0.050167080000000003  0.052283990000000002
  21    -0.02635444  0.18054509999999999  -0.008309894
  22    -0.065147430000000006  0.15501039999999999  -0.0066993180000000001
  23    -0.065456550000000002  0.1624968  -0.018316220000000001
  24    -0.073455790000000007  0.14750750000000001  0.041883589999999998
  25    0.0025424219999999999  0.1163965  0.039927740000000003
  26    -0.02558305  0.091830999999999996  -0.032597269999999998
  27    -0.0083411760000000005  0.1232139  0.034228040000000001
  28    -0.036203039999999999  0.047506060000000003  0.040421690000000003
  29    -0.02386346  0.054831749999999999  0.041940980000000003
  30    -0.016187360000000001  0.053808340000000003  0.049967110000000002
  31    0.01886024  0.125081  0.02593726
  32    -0.041306049999999997  0.053012610000000002  0.039344579999999997
  33    -0.0074227099999999999  0.051208200000000002  0.051802229999999998
  34    0.041738619999999997  0.047562199999999999  0.0312307
  35    -0.069389060000000002  0.15783900000000001  -0.004331405
  36    -0.058160629999999998  0.15334829999999999  0.02996103
  37    -0.0092257429999999998  0.058338389999999997  0.05414828
  38    -0.049274560000000002  0.1631677  0.0055010229999999999
  39    -0.07642061  0.097010330000000006  -0.012312740000000001
  40    -0.0013720220000000001  0.05583656  0.054231639999999998
  41    -3.6723559999999999e-05  0.1224172  0.035476969999999997
  42    0.040324699999999998  0.1052314  0.0024926700000000002
  43    0.040691499999999999  0.10576629999999999  0.01026786
  44    -0.033900409999999999  0.055166760000000002  0.037964530000000003
  45    0.01338401  0.13001560000000001  0.011934500000000001
  46    -0.036820270000000002  0.059897260000000001  0.04028934
  47    0.0077789349999999998  0.13139139999999999  0.015256799999999999
  48    -0.015471479999999999  0.060668609999999998  0.052582780000000003
  49    0.0066995400000000004  0.060599310000000003  0.054784529999999998
  50    -0.00075548040000000003  0.095559580000000005  0.054262890000000001
  51    -0.02951612  0.062903200000000006  0.038200499999999998
  52    -0.002583264  0.064181710000000003  0.056547930000000003
  53    -0.003089292  0.12847149999999999  0.027671769999999998
  54    -0.050372500000000001  0.066893159999999993  0.037015699999999999
  55    0.015876939999999999  0.12877240000000001  0.017610819999999999
  56    -0.011249240000000001  0.066386500000000001  0.054799260000000002
  57    0.02235496  0.10511959999999999  -0.01717014
  58    -0.07433439  0.1148266  -0.0066543840000000002
  59    0.0024853229999999998  0.069100690000000006  0.056053409999999998
  60    0.01142014  0.065373429999999996  0.053431810000000003
  61    -0.015759840000000001  0.069490880000000005  0.05450501
  62    -0.077180670000000007  0.1770407  -0.048590189999999998
  63    0.0097359019999999994  0.1010897  -0.021715849999999998
  64    -0.0093553630000000002  0.1168541  0.039188889999999997
  65    -0.089243589999999998  0.097525230000000004  0.017811859999999999
  66    -0.026661560000000001  0.065886379999999994  0.04006966
  67    -0.0123696  0.073656280000000005  0.056185659999999998
  68    -0.029608550000000001  0.089294429999999994  -0.029494759999999998
  69    -0.080204520000000001  0.12652559999999999  0.05248916
  70    -0.041864499999999999  0.1289322  0.01196442
  71    -0.063397780000000001  0.0645511  0.029381899999999999
  72    -0.029163229999999998  0.074833869999999997  0.041558730000000002
  73    -0.005212927  0.07078653  0.05747555
  74    0.033372140000000002  0.1156316  0.020980450000000001
  75    0.045544469999999997  0.08993255  0.01134639
  76    -0.074794929999999996  0.1559268  -0.0028617629999999998
  77    -0.050463019999999997  0.076304490000000003  0.043049990000000003
  78    -0.040945849999999999  0.074409649999999994  0.042477109999999998
  79    -0.020128690000000001  0.077994179999999996  0.055441890000000001
  80    0.001219475  0.074704469999999995  0.057454459999999999
  81    -0.0046477150000000002  0.1128479  0.041815789999999999
  82    -0.064262059999999996  0.15526529999999999  0.0072340319999999996
  83    -0.035275109999999998  0.069953299999999996  0.041372489999999998
  84    -0.032000130000000002  0.1783642  -0.0067886459999999997
  85    0.037915629999999999  0.1058737  -0.0020654890000000002
  86    -0.068271999999999999  0.1585  -0.05298634
  87    -0.058869070000000003  0.15541959999999999  0.020230970000000001
  88    -0.03844906  0.17447599999999999  -0.0085615190000000001
  89    -0.067750400000000002  0.082345379999999996  0.042362419999999998
  90    -0.032819090000000002  0.11902600000000001  0.029931639999999999
  91    0.037482439999999999  0.1101454  0.003883853
  92    -0.010141570000000001  0.12759300000000001  0.026861889999999999
  93    -0.0051917279999999996  0.079841380000000003  0.057890539999999997
  94    -0.044628139999999997  0.080481479999999994  0.042501619999999997
  95    -0.035592140000000001  0.079775730000000003  0.042382919999999998
  96    0.0047612699999999997  0.080066020000000002  0.056241920000000001
  97    -0.016234129999999999  0.1606851  -0.01077141
  98    0.023397330000000001  0.1243001  0.021745500000000001
  99    -0.040980599999999999  0.16791500000000001  0.0030127830000000002
 100    0.0059145179999999997  0.123044  -0.010906559999999999
 101    0.038138760000000001  0.1086078  0.020826850000000001
 102    0.042991809999999998  0.1003101  0.0058066289999999998
 103    -0.01455615  0.081815949999999998  0.057350140000000001
 104    0.0078066200000000002  0.086057120000000001  0.056054850000000003
 105    0.0097684869999999993  0.1178811  0.037206139999999999
 106    -0.067770179999999999  0.1604923  -0.011007680000000001
 107    -0.070917789999999994  0.1660664  -0.018955360000000001
 108    -0.061017740000000001  0.082113989999999998  0.043714240000000001
 109    -0.0042499110000000003  0.1310395  0.01157379
 110    -0.075101370000000001  0.1237929  0.0529221
 111    -0.0057538909999999997  0.087913309999999995  0.056902439999999999
 112    0.001265866  0.085708699999999999  0.057141230000000001
 113    0.017712760000000001  0.087221129999999994  0.050444559999999999
 114    -0.051073010000000002  0.0827431  0.04490566
 115    -0.072236629999999996  0.15588679999999999  -0.03835918
 116    -0.058611900000000001  0.089106199999999997  0.044914000000000003
 117    0.023054680000000001  0.089114970000000002  0.048081390000000002
 118    -0.03224349  0.088246710000000006  0.043330069999999998
 119    -0.027544550000000001  0.087808650000000002  0.047472779999999999
 120    0.022936080000000001  0.12537860000000001  0.014997679999999999
 121    -0.017228420000000001  0.088254959999999993  0.056351079999999998
 122    -0.05468713  0.090745649999999997  0.045150299999999997
 123    -0.049616319999999998  0.091736390000000001  0.0441567
 124    -0.039848429999999997  0.087322919999999998  0.043211310000000003
 125    -0.063273860000000001  0.097644480000000006  0.042964210000000003
 126    -0.045224279999999999  0.094779059999999998  0.043272169999999999
 127    -0.01177535  0.092725710000000003  0.055658329999999999
 128    -0.0075518139999999996  0.0955487  0.05449118
 129    -0.02323223  0.1171523  0.034060960000000001
 130    -0.076158450000000003  0.1406558  0.047696490000000001
 131    -0.036570360000000003  0.096651909999999994  0.043324849999999998
 132    0.0034398810000000001  0.094655420000000004  0.053847979999999997
 133    0.02069213  0.093194319999999997  0.047579740000000002
 134    -0.066759299999999994  0.093315439999999999  0.043017369999999999
 135    0.0089214259999999997  0.099297800000000006  0.048160219999999997
 136    0.015820609999999999  0.1001949  0.047145289999999999
 137    -0.030907779999999999  0.098964880000000005  0.043823399999999998
 138    0.054387280000000003  0.064051609999999995  0.027041900000000001
 139    -0.027078080000000001  0.095359920000000001  0.044722959999999999
 140    -0.064478980000000005  0.1670113  -0.059565229999999997
 141    -0.075902910000000004  0.070540950000000005  0.02549386
 142    0.044962799999999997  0.087673470000000003  0.020836810000000001
 143    -0.048727880000000001  0.092331369999999996  -0.021751650000000001
 144    -0.090004840000000003  0.1219499  0.0043366189999999999
 145    0.0012523720000000001  0.1017221  0.045036619999999999
 146    0.02842368  0.1209142  0.0194386
 147    -0.022453049999999999  0.1267218  0.0071633900000000004
 148    -0.052473859999999997  0.099958409999999998  0.042559449999999999
 149    -0.040484029999999997  0.1002875  0.04148164
 150    -0.010938349999999999  0.1013247  0.044066500000000002
 151    0.00097538569999999997  0.1313464  0.017255989999999999
 152    -0.067858920000000003  0.1053526  0.039033909999999998
 153    -0.062506199999999998  0.1491519  -0.0057413999999999998
 154    -0.06590538  0.15426100000000001  0.0010083010000000001
 155    -0.059704849999999997  0.10095030000000001  0.042434630000000001
 156    -0.02145681  0.1011465  0.043804419999999997
 157    0.0091214160000000002  0.1057017  0.042878569999999998
 158    -0.035721610000000001  0.1058825  0.03915478
 159    -0.01155925  0.1076278  0.043053059999999997
 160    -0.03854308  0.11737690000000001  0.031831119999999997
 161    -0.061288479999999999  0.1105984  0.037268999999999997
 162    -0.05762461  0.10629619999999999  0.040306660000000001
 163    -0.048359569999999998  0.10350620000000001  0.041101939999999997
 164    -0.02880682  0.1056874  0.040727810000000003
 165    -0.019255680000000001  0.10732990000000001  0.041858359999999997
 166    0.01952574  0.1061419  0.041716740000000002
 167    0.00271113  0.1098562  0.042198239999999998
 168    -0.043634529999999998  0.11054020000000001  0.037545160000000001
 169    -0.030174289999999999  0.1118681  0.036212870000000001
 170    0.01017529  0.1113338  0.039819399999999998
 171    0.018788880000000001  0.11112420000000001  0.038366030000000002
 172    0.014785899999999999  0.12809670000000001  0.023356470000000001
 173    -0.051274880000000002  0.10939740000000001  0.038192520000000001
 174    -0.042674259999999999  0.092647950000000007  -0.0226962
 175    -0.063361130000000002  0.084136760000000005  -0.019171790000000001
 176    0.029008840000000001  0.1181595  0.026727150000000002
 177    -0.01404007  0.037089999999999998  0.050751400000000002
 178    0.019969520000000001  0.039457850000000003  0.041933150000000002
 179    0.0054953939999999998  0.042784589999999997  0.045660180000000002
 180    -0.024029040000000002  0.039366890000000002  0.05407116
 181    0.023457059999999998  0.1211387  0.029096520000000001
 182    0.01125573  0.042195429999999999  0.044775009999999997
 183    0.01677441  0.045171179999999998  0.043466669999999999
 184    0.024496279999999999  0.04244208  0.038745830000000002
 185    0.030497699999999999  0.042446079999999997  0.029903820000000001
 186    -0.02924527  0.1641485  -0.0056412149999999998
 187    -0.066554420000000003  0.1226488  0.050838040000000001
 188    0.025400760000000001  0.11516999999999999  0.033311449999999999
 189    -0.031153070000000001  0.17100470000000001  -0.0058122699999999996
 190    0.046007480000000003  0.044832469999999999  0.02527097
 191    -0.048992550000000003  0.14920430000000001  0.010755499999999999
 192    0.032160710000000002  0.1055112  0.03417647
 193    0.028789140000000001  0.047655240000000001  0.036058189999999997
 194    0.034298160000000001  0.049208160000000001  0.03176052
 195    0.051226910000000001  0.050467560000000002  0.026346990000000001
 196    0.01765572  0.051994079999999998  0.046347579999999999
 197    0.021439989999999999  0.048447619999999997  0.041324680000000003
 198    -0.056922939999999998  0.1181084  0.03815574
 199    0.057899760000000002  0.053596629999999999  0.019129750000000001
 200    -0.03040963  0.1586205  0.0013364290000000001
 201    -0.051759380000000001  0.13280220000000001  0.031025130000000001
 202    0.0095404389999999995  0.050229269999999999  0.050226020000000003
 203    -0.052881049999999999  0.1440331  0.02144238
 204    0.04697701  0.054113559999999998  0.031485560000000003
 205    0.05399375  0.055281789999999997  0.027065639999999998
 206    -0.057930349999999999  0.04792333  0.037330849999999999
 207    0.040681170000000003  0.092661939999999998  0.030015770000000001
 208    -0.047566070000000002  0.1553832  0.0091549769999999999
 209    0.02702353  0.05403256  0.040395060000000003
 210    0.030499720000000001  0.111925  0.031940940000000001
 211    -0.039406620000000003  0.15741530000000001  0.0049147169999999999
 212    0.016197240000000002  0.057826530000000001  0.049478649999999999
 213    0.023752220000000001  0.059450080000000002  0.045598859999999998
 214    0.034661009999999999  0.057252089999999999  0.036184389999999997
 215    -0.0282729  0.17278869999999999  -0.0082996360000000009
 216    -0.060575179999999999  0.1368074  0.035762380000000003
 217    0.041361269999999999  0.058751079999999997  0.03116182
 218    -0.068493650000000003  0.1418719  0.04447885
 219    0.029429150000000001  0.060981649999999998  0.041906319999999997
 220    -0.055008290000000001  0.14116999999999999  0.029432090000000001
 221    0.034323840000000001  0.061765340000000002  0.03883785
 222    0.021569660000000001  0.064968709999999999  0.047244080000000001
 223    0.0390111  0.064865889999999995  0.03355006
 224    -0.0052781800000000004  0.09964307  0.049348540000000003
 225    -0.043719910000000001  0.15002799999999999  0.006574341
 226    0.034479759999999998  0.095867620000000001  0.037895440000000002
 227    0.047334479999999998  0.063113730000000007  0.029445889999999999
 228    -0.0029399199999999999  0.1055532  0.043926159999999999
 229    0.029865280000000001  0.065583009999999997  0.041945080000000003
 230    0.01718331  0.12114469999999999  0.032917950000000001
 231    -0.05417839  0.11641120000000001  0.035206880000000003
 232    0.01832493  0.072342859999999995  0.051265140000000001
 233    0.02543921  0.068763840000000007  0.044570409999999998
 234    -0.06645036  0.1117138  0.03984766
 235    0.038442129999999998  0.068276649999999994  0.034812580000000003
 236    -0.034061429999999997  0.16486039999999999  -0.0033707519999999999
 237    0.027373189999999999  0.10254240000000001  0.039892909999999997
 238    -0.037875539999999999  0.1624015  0.00020449810000000001
 239    0.034464729999999999  0.067482589999999995  0.038946439999999999
 240    -0.07185532  0.13508329999999999  0.04935875
 241    0.017187959999999999  0.1151368  0.036901820000000002
 242    0.01602203  0.06783894  0.051667440000000002
 243    0.040513590000000002  0.071723060000000005  0.031699579999999998
 244    0.044430400000000002  0.068795599999999998  0.026181119999999999
 245    -0.045814960000000002  0.11584120000000001  0.032842570000000001
 246    0.022469820000000001  0.071823730000000002  0.048630939999999998
 247    0.031898650000000001  0.07067909  0.040715550000000003
 248    0.042591780000000003  0.076056020000000002  0.02835331
 249    0.025805000000000002  0.109802  0.037049720000000001
 250    0.037297709999999998  0.072487940000000001  0.036219080000000001
 251    0.041933159999999997  0.098982249999999994  0.022784289999999999
 252    0.02789316  0.075419139999999996  0.044909209999999998
 253    -0.071857329999999997  0.12908929999999999  0.051542230000000001
 254    0.0089437979999999993  0.074148019999999995  0.055724410000000002
 255    0.028752340000000001  0.082081409999999994  0.044822380000000002
 256    0.038195960000000001  0.077519179999999993  0.035575879999999997
 257    0.037886549999999998  0.098786819999999997  0.031512800000000001
 258    -0.058502699999999998  0.14687749999999999  0.033786539999999997
 259    -0.017115539999999999  0.1656504  -0.01197344
 260    -0.064436270000000004  0.12863810000000001  0.044711729999999998
 261    0.0098071979999999996  0.1236028  0.033605370000000002
 262    0.043191319999999998  0.093092789999999995  0.02467393
 263    0.01251713  0.078104460000000001  0.054484739999999997
 264    0.034615550000000002  0.080436160000000007  0.039996919999999998
 265    -0.049368790000000003  0.14301800000000001  0.0089328289999999998
 266    -0.020966559999999999  0.180703  -0.01442714
 267    -0.063488310000000006  0.16676060000000001  -0.039640040000000001
 268    -0.060187829999999998  0.1270367  0.040841580000000002
 269    -0.080011020000000002  0.11800040000000001  0.049457910000000001
 270    0.01711095  0.079396419999999995  0.052999709999999998
 271    0.022114809999999999  0.080125470000000004  0.050159559999999999
 272    -0.050556160000000003  0.1224329  0.033062889999999998
 273    -0.025250229999999999  0.1590405  -0.001613611
 274    -0.055207920000000001  0.12778500000000001  0.037282530000000001
 275    0.043922129999999997  0.083973989999999998  0.025887440000000001
 276    -0.018767200000000001  0.1614614  -0.0063231190000000003
 277    0.022249169999999999  0.1011821  0.044195270000000002
 278    -0.015598799999999999  0.17169180000000001  -0.01729903
 279    -0.063025979999999995  0.1191202  0.045217779999999999
 280    0.032973790000000003  0.088409779999999993  0.041516409999999997
 281    0.041854809999999999  0.084075639999999993  0.029984319999999998
 282    -0.043027360000000001  0.16147020000000001  0.0052486759999999999
 283    -0.01555105  0.18255060000000001  -0.020870349999999999
 284    -0.053791789999999999  0.15401670000000001  0.01360015
 285    0.034784910000000002  0.110279  0.027626439999999999
 286    0.01297858  0.086852570000000004  0.053315099999999997
 287    -0.06521805  0.13626940000000001  0.041242750000000002
 288    0.038522609999999999  0.086660070000000006  0.035066769999999997
 289    0.027620120000000001  0.093321650000000006  0.04417625
 290    0.01009526  0.092387990000000003  0.052818120000000003
 291    -0.023726199999999999  0.16772290000000001  -0.01090613
 292    -0.022429560000000001  0.17535039999999999  -0.01360975
 293    0.044030989999999999  0.096267220000000001  0.016317040000000001
 294    -0.015120969999999999  0.17716960000000001  -0.020000179999999999
 295    -0.070125099999999996  0.14731040000000001  -0.028788879999999999
 296    0.020359510000000001  0.039751420000000003  -0.012796510000000001
 297    0.02116171  0.036609490000000001  0.03519634
 298    0.043217319999999997  0.040423729999999998  0.0057766049999999998
 299    -0.01111993  0.16677339999999999  -0.017987650000000001
 300    0.05359775  0.046792889999999997  0.012852479999999999
 301    -0.01070129  0.17653730000000001  -0.02891376
 302    0.051310010000000003  0.046158749999999998  0.0051261509999999998
 303    -0.061763859999999997  0.1562683  -0.030146320000000001
 304    -0.01026591  0.17047979999999999  -0.024100079999999999
 305    -0.036539080000000002  0.15262510000000001  0.00195831
 306    0.05629108  0.051583549999999999  0.0051128880000000003
 307    0.021674160000000001  0.04823003  -0.02149276
 308    -0.087196880000000004  0.1128783  0.025647030000000001
 309    0.058582710000000003  0.053987720000000003  0.010189729999999999
 310    0.027143469999999999  0.048204579999999997  -0.016924689999999999
 311    0.030933430000000001  0.052451570000000003  -0.013286650000000001
 312    -0.05053233  0.13486909999999999  0.02648849
 313    -0.079255119999999998  0.1019268  -0.0078168330000000005
 314    0.035268510000000003  0.057034080000000001  -0.01064408
 315    0.043741620000000002  0.08881261  -0.0035282059999999999
 316    0.026608730000000001  0.053967000000000001  -0.020750149999999998
 317    -0.082143240000000006  0.13983319999999999  -0.00058056999999999998
 318    -0.070248500000000005  0.063685290000000006  0.020490769999999998
 319    0.059848869999999998  0.06087447  0.0191226
 320    -0.048299849999999998  0.1342785  0.021670780000000001
 321    0.03981958  0.059857899999999999  -0.005283968
 322    0.02566529  0.060928709999999997  -0.02354763
 323    -0.062473420000000002  0.16774819999999999  -0.048241680000000002
 324    -0.062236260000000002  0.15790019999999999  -0.036422700000000002
 325    0.06061072  0.060822189999999998  0.010016499999999999
 326    0.03545164  0.063059329999999997  -0.01427513
 327    -0.094304059999999995  0.12194000000000001  0.02120884
 328    -0.061602209999999998  0.15603900000000001  -0.023696539999999999
 329    -0.063429639999999995  0.1729513  -0.05154384
 330    0.05891834  0.065378720000000001  0.021614479999999998
 331    0.058158300000000003  0.05971133  0.0031877049999999999
 332    0.028789439999999999  0.058831099999999997  -0.019514429999999999
 333    0.060517910000000001  0.067109199999999994  0.013076290000000001
 334    0.04502279  0.093912480000000007  0.0060112309999999997
 335    0.030439029999999999  0.084447090000000002  -0.020238820000000001
 336    -0.087849930000000007  0.1042811  0.01216426
 337    -0.045733320000000001  0.1459471  0.00078270680000000004
 338    -0.081600179999999994  0.1088129  0.029430319999999999
 339    0.02713026  0.11892759999999999  -0.003062309
 340    -0.062816609999999995  0.1603369  -0.044311499999999997
 341    0.043220120000000001  0.095424019999999998  -0.00021965529999999999
 342    0.030566949999999999  0.074652990000000002  -0.02072626
 343    0.027398120000000002  0.065953830000000005  -0.02137321
 344    0.040569460000000002  0.066900979999999999  -0.0077293270000000002
 345    -0.062457119999999998  0.15306320000000001  -0.013262899999999999
 346    -0.064384640000000007  0.16421479999999999  -0.024916830000000001
 347    0.039283020000000002  0.073778640000000006  -0.010440710000000001
 348    0.035182449999999997  0.069002369999999993  -0.01562029
 349    -0.040388180000000003  0.1209196  -0.01197646
 350    -0.062887670000000007  0.1741615  -0.060320730000000003
 351    0.043691210000000001  0.071911039999999996  -0.0014905999999999999
 352    -0.061592880000000003  0.16816729999999999  -0.056743099999999998
 353    -0.060794340000000002  0.062531729999999994  0.026740440000000001
 354    0.033966509999999998  0.075549829999999998  -0.01659828
 355    -0.048938700000000002  0.13814789999999999  0.01516646
 356    -0.05405356  0.1245738  -0.0074533589999999997
 357    0.039905240000000002  0.1036632  0.023559110000000001
 358    0.035582200000000001  0.081884059999999995  -0.016836480000000001
 359    -0.087146390000000004  0.1097701  0.01240746
 360    0.04576115  0.083570069999999996  0.01700171
 361    0.040286450000000001  0.084666140000000001  -0.01149964
 362    -0.028796769999999999  0.17997659999999999  -0.01367987
 363    -0.085634749999999996  0.10282860000000001  0.0024979899999999998
 364    -0.06276176  0.1577634  -0.017348220000000001
 365    0.046306409999999999  0.079703339999999998  0.0092254390000000002
 366    0.045178610000000001  0.083159449999999996  0.002083161
 367    0.042750820000000002  0.079781820000000003  -0.0049657149999999999
 368    -0.090498889999999999  0.1395371  0.01586943
 369    -0.087196949999999995  0.1527848  0.015804950000000002
 370    -0.065898979999999996  0.17891840000000001  -0.057621070000000003
 371    -0.086107879999999998  0.12150519999999999  -0.0021416830000000001
 372    -0.069877030000000007  0.17897199999999999  -0.052487449999999998
 373    -0.075542789999999999  0.15567339999999999  0.02359263
 374    -0.01084836  0.17995630000000001  -0.026333499999999999
 375    -0.071894250000000007  0.17801790000000001  -0.047669139999999999
 376    -0.071422289999999999  0.15231500000000001  0.035240430000000003
 377    -0.079684779999999997  0.1535859  0.028844330000000001
 378    -0.073322849999999995  0.16181209999999999  -0.01142494
 379    -0.080604899999999993  0.15510280000000001  0.018937789999999999
 380    -0.066769659999999995  0.15629709999999999  0.018582319999999999
 381    0.035208709999999997  0.097805639999999999  -0.012270669999999999
 382    -0.065264409999999995  0.17185590000000001  -0.045690939999999999
 383    -0.02750667  0.12585689999999999  0.010499349999999999
 384    -0.053824169999999998  0.15104329999999999  0.02376377
 385    -0.014916250000000001  0.1844075  -0.025883949999999999
 386    -0.088614139999999994  0.1367584  0.0077952250000000002
 387    -0.063878909999999997  0.15229790000000001  0.03492895
 388    0.0038861920000000001  0.1307516  0.021837840000000001
 389    -0.038441790000000003  0.12412280000000001  0.024509260000000001
 390    -0.084642640000000005  0.14940390000000001  0.032838180000000002
 391    -0.052157679999999998  0.14777129999999999  0.0178005
 392    -0.092524999999999996  0.1234662  0.031608989999999997
 393    -0.07016261  0.1555975  0.02670612
 394    -0.015339139999999999  0.12306839999999999  0.031596310000000002
 395    -0.089079430000000001  0.096492949999999994  0.010133120000000001
 396    -0.0715673  0.17452139999999999  -0.041983029999999998
 397    -0.085474410000000001  0.1084352  0.0063654089999999998
 398    -0.070349910000000002  0.1716143  -0.03506894
 399    -0.04156779  0.12881400000000001  0.0064287700000000003
 400    -0.065066079999999998  0.14680489999999999  0.03909584
 401    -0.01244727  0.12906609999999999  0.02001986
 402    -0.045088499999999997  0.1229459  0.026629630000000001
 403    -0.080659019999999998  0.15400520000000001  0.0081594960000000005
 404    -0.091051670000000001  0.1336522  0.012061530000000001
 405    -0.091998499999999997  0.11766749999999999  0.027034320000000001
 406    -0.059108319999999999  0.1558987  0.011555279999999999
 407    0.031165769999999999  0.1176642  0.0021550340000000001
 408    -0.092596230000000002  0.1188062  0.01013378
 409    -0.091935589999999998  0.1145027  0.017006569999999999
 410    0.058172050000000003  0.07066596  0.017374170000000001
 411    0.053703760000000003  0.072972019999999999  0.0097405760000000008
 412    -0.03441628  0.1246063  0.02224131
 413    -0.027818679999999998  0.12069390000000001  0.027385110000000001
 414    -0.02730322  0.1248797  0.01878341
 415    -0.047158159999999998  0.13389570000000001  0.0084438949999999999
 416    -0.03434367  0.1272711  0.01075043
 417    -0.038844679999999999  0.1269187  0.017929899999999999
 418    -0.045146369999999998  0.130772  0.017272409999999998
 419    0.02225359  0.1148681  -0.01203446
 420    -0.065349340000000006  0.15513779999999999  0.02822889
 421    -0.021913990000000001  0.1839151  -0.01282458
 422    0.035224209999999999  0.11386250000000001  0.0078045290000000002
 423    -0.033938259999999998  0.12670880000000001  0.015555589999999999
 424    0.02669032  0.1216333  0.0034421209999999998
 425    -0.072774610000000003  0.155615  0.0065799780000000002
 426    -0.064148159999999996  0.16611049999999999  -0.032498470000000002
 427    -0.081995540000000006  0.098751400000000003  -0.0060508819999999996
 428    0.0091079019999999993  0.12918830000000001  0.025357000000000001
 429    -0.0917298  0.12996260000000001  0.029336830000000001
 430    -0.068474439999999998  0.15607589999999999  0.012280249999999999
 431    -0.0074328809999999997  0.1302653  0.019402329999999999
 432    0.053713520000000001  0.072205610000000003  0.02004848
 433    0.046035409999999999  0.073375049999999997  0.02196563
 434    0.04735864  0.074669260000000001  0.01430881
 435    0.03601671  0.11277479999999999  0.01437067
 436    0.031074580000000001  0.11886049999999999  0.0094842190000000003
 437    0.0093188260000000005  0.13085630000000001  0.0066412399999999996
 438    0.0033972709999999999  0.13023940000000001  0.00091047299999999997
 439    -0.074564790000000006  0.1069551  -0.0096031099999999998
 440    -0.087901060000000003  0.12868859999999999  0.0012713189999999999
 441    -0.070625519999999997  0.16920969999999999  -0.0263982
 442    0.023808570000000001  0.12475899999999999  0.0092709360000000005
 443    -0.085839319999999997  0.1065871  0.02090848
 444    -0.020717699999999999  0.1241916  0.025409109999999999
 445    0.029471710000000002  0.1203891  0.013810909999999999
 446    -0.091464450000000003  0.12836359999999999  0.0081701020000000003
 447    -0.018729050000000001  0.1280038  0.014006640000000001
 448    -0.076226920000000004  0.15581429999999999  0.013102030000000001
 449    0.01809852  0.12799140000000001  0.01063338
 450    0.00081130130000000005  0.13120270000000001  0.006111862
 451    -0.071386790000000006  0.034880540000000002  0.0057839329999999998
 452    -0.06019352  0.039191950000000003  0.019987689999999999
 453    -0.063307459999999996  0.042291309999999999  0.039846079999999999
 454    -0.035196270000000002  0.042330779999999998  0.04622805
 455    -0.030981040000000001  0.03696812  0.05120106
 456    -0.088334640000000006  0.095921870000000006  0.023213939999999999
 457    -0.028649279999999999  0.044944989999999997  0.050491210000000002
 458    -0.078950770000000003  0.095253060000000001  0.035383190000000002
 459    -0.037841569999999998  0.037305350000000001  0.0438056
 460    -0.073140300000000005  0.082510529999999999  0.039269949999999998
 461    -0.070635859999999995  0.040849339999999998  0.0060375020000000001
 462    -0.067652299999999999  0.037618390000000002  0.012578270000000001
 463    -0.06287972  0.043381360000000001  0.01273931
 464    -0.070356399999999999  0.097087430000000002  0.041423170000000002
 465    -0.054783989999999998  0.042489060000000002  0.045461540000000002
 466    -0.080185220000000001  0.14290169999999999  0.04451165
 467    -0.064629469999999994  0.046074879999999999  0.0056426810000000001
 468    -0.082208050000000005  0.082145679999999999  0.030381849999999998
 469    -0.088437710000000003  0.13786080000000001  0.039955160000000003
 470    -0.075129379999999996  0.1075668  0.037780460000000002
 471    -0.055117359999999997  0.044450000000000003  0.01630914
 472    -0.02943459  0.04828818  0.04605443
 473    -0.093021919999999994  0.121099  0.036817509999999998
 474    -0.02401727  0.085692099999999993  0.053511580000000003
 475    -0.021227320000000001  0.094926269999999993  0.04919859
 476    -0.078358689999999995  0.16461890000000001  -0.028352599999999999
 477    -0.056509879999999998  0.049248229999999997  0.0088267840000000007
 478    -0.02541069  0.075020000000000003  0.047728840000000002
 479    -0.072975369999999998  0.087213680000000002  0.040623569999999998
 480    -0.089606240000000004  0.12774160000000001  0.043839660000000003
 481    -0.051875589999999999  0.053468750000000002  0.013113629999999999
 482    -0.051078869999999998  0.050452589999999999  0.02029193
 483    -0.049008160000000002  0.052859650000000001  0.035406800000000002
 484    -0.077633939999999999  0.088668529999999995  0.037432960000000001
 485    -0.028697960000000002  0.053469019999999999  0.037952510000000002
 486    -0.026771920000000001  0.081640219999999999  0.050160200000000002
 487    -0.082238190000000003  0.090854859999999996  0.032016830000000003
 488    -0.013997590000000001  0.098292180000000007  0.048777639999999997
 489    -0.089780100000000002  0.14447489999999999  0.029230809999999999
 490    -0.078161949999999994  0.149593  0.037961599999999998
 491    -0.068715070000000003  0.074892829999999994  0.038026940000000002
 492    -0.081008120000000003  0.13201350000000001  0.05155407
 493    -0.034198489999999998  0.087951180000000004  -0.02462112
 494    -0.045782129999999997  0.060297129999999997  0.038376779999999999
 495    -0.040766289999999997  0.063301179999999999  0.041201809999999998
 496    -0.060215209999999998  0.093486239999999998  -0.019746489999999998
 497    -0.063751699999999994  0.16146260000000001  -0.055976379999999999
 498    -0.086476689999999995  0.1189703  0.047957369999999999
 499    -0.044151620000000003  0.17021890000000001  -0.0059716079999999998
 500    -0.065821149999999995  0.1188888  -0.0089781670000000004
 501    -0.050679040000000002  0.057917219999999998  0.031719190000000001
 502    -0.079286029999999993  0.1112129  -0.0030084640000000002
 503    -0.074608729999999998  0.094961740000000003  0.039372499999999998
 504    -0.079045879999999999  0.16695109999999999  -0.034645019999999999
 505    -0.067091689999999995  0.088831649999999998  0.043763160000000002
 506    -0.084125000000000005  0.1144713  0.0001433107
 507    -0.021360649999999998  0.060809200000000001  0.046136950000000003
 508    -0.088385710000000006  0.13331670000000001  0.043015499999999998
 509    -0.083871310000000004  0.1376163  0.046341819999999999
 510    -0.084915459999999998  0.089617500000000003  0.02844491
 511    -0.075502180000000002  0.077699530000000003  0.03488989
 512    -0.0468318  0.15288289999999999  -0.0060898999999999997
 513    -0.076057659999999999  0.16964219999999999  -0.030537600000000002
 514    -0.076170089999999996  0.16463630000000001  -0.020518620000000001
 515    -0.091598940000000004  0.1208332  0.043597959999999998
 516    -0.074394730000000006  0.12828899999999999  -0.0082273650000000004
 517    -0.019432149999999999  0.0653035  0.05085949
 518    -0.083620449999999999  0.097749150000000007  0.030227899999999999
 519    -0.018996329999999999  0.1706116  -0.0213706
 520    0.01529439  0.1113822  -0.01713903
 521    -0.067500809999999994  0.090654369999999998  -0.017379149999999999
 522    -0.073624480000000006  0.087925180000000006  -0.01535542
 523    -0.074719090000000002  0.1010076  0.037327289999999999
 524    -0.024286060000000002  0.068337789999999995  0.045070819999999998
 525    -0.082969929999999997  0.102379  0.029238819999999999
 526    -0.028633579999999999  0.081614489999999998  0.045898960000000003
 527    -0.056050900000000001  0.056146689999999999  0.0086989449999999996
 528    -0.085620500000000002  0.1444906  0.037866770000000001
 529    -0.086166900000000005  0.1296263  0.048283939999999997
 530    -0.021618539999999999  0.070310339999999999  0.050788229999999997
 531    -0.0077238159999999997  0.1212597  -0.0122396
 532    -0.070287230000000006  0.1664351  -0.049501940000000001
 533    -0.07330557  0.164186  -0.039526289999999999
 534    -0.045617039999999998  0.037165370000000003  -0.019686820000000001
 535    -0.091138029999999995  0.1296071  0.036242419999999997
 536    -0.024500859999999999  0.097500569999999995  -0.024987860000000001
 537    -0.074564950000000005  0.15082590000000001  -0.025506270000000001
 538    -0.062701199999999999  0.041460700000000003  0.02572812
 539    -0.060656330000000001  0.04620192  0.031201900000000001
 540    -0.093463340000000006  0.12720780000000001  0.01456294
 541    -0.093612769999999998  0.12888920000000001  0.021107170000000001
 542    -0.041780619999999997  0.045349710000000001  -0.016933210000000001
 543    -0.034319240000000001  0.1123643  -0.017756939999999999
 544    -0.064398769999999994  0.044135389999999997  -0.0016546810000000001
 545    -0.039965720000000003  0.048505729999999997  -0.01225674
 546    -0.075685359999999993  0.15004229999999999  -0.01528817
 547    -0.053591569999999998  0.045904489999999999  0.02241075
 548    -0.086861469999999996  0.13709879999999999  0.003706249
 549    0.027630769999999999  0.092743950000000006  -0.020592860000000001
 550    -0.082586980000000004  0.10761220000000001  -0.00075164100000000005
 551    -0.09129843  0.14445079999999999  0.016912150000000001
 552    -0.073904490000000003  0.16875560000000001  -0.044613809999999997
 553    -0.0574548  0.050202690000000001  0.0013240750000000001
 554    -0.053003710000000002  0.0498544  0.029124230000000001
 555    -0.079102240000000004  0.14832880000000001  -0.0019406969999999999
 556    -0.091395199999999996  0.1474615  0.022467319999999999
 557    -0.029501030000000001  0.050477470000000003  -0.022026790000000001
 558    -0.030702980000000001  0.051261399999999999  -0.016184210000000001
 559    -0.055694220000000003  0.054069220000000001  -0.0026126180000000001
 560    -0.051949200000000001  0.055577559999999998  0.023531630000000001
 561    -0.052019410000000002  0.054553499999999998  -0.007662538
 562    -0.071745719999999999  0.15026619999999999  -0.040543889999999999
 563    -0.02286755  0.18304870000000001  -0.018735849999999998
 564    -0.02686504  0.055572169999999997  -0.02634481
 565    -0.033016120000000003  0.054674760000000003  -0.01167282
 566    -0.090200470000000005  0.13593359999999999  0.02316462
 567    -0.071037690000000001  0.1734889  -0.052836849999999998
 568    -0.058257940000000001  0.060611739999999997  -0.002607898
 569    -0.027729710000000001  0.1656099  -0.016708500000000001
 570    -0.039938420000000002  0.03901338  -0.02756753
 571    -0.032910170000000002  0.095585690000000001  -0.023564660000000001
 572    -0.054650999999999998  0.093926590000000004  -0.021858430000000002
 573    -0.086857069999999995  0.14312739999999999  0.0084426770000000009
 574    -0.077060240000000002  0.15674370000000001  -0.011111630000000001
 575    -0.053370279999999999  0.1206089  -0.011392350000000001
 576    -0.030923639999999999  0.059093220000000002  -0.018616830000000001
 577    -0.080273849999999994  0.073875869999999996  0.020855390000000001
 578    -0.056224049999999998  0.15917890000000001  0.0061772290000000002
 579    -0.076014150000000003  0.157279  -0.02242564
 580    -0.089563039999999997  0.13736429999999999  0.032399919999999999
 581    -0.030335399999999998  0.06521362  -0.025291310000000001
 582    -0.064410220000000004  0.064609829999999993  -0.0053968410000000003
 583    -0.080321050000000005  0.1215273  -0.0052590279999999998
 584    -0.083833989999999997  0.14597289999999999  0.004031654
 585    -0.073425900000000002  0.067649290000000001  0.00020908919999999999
 586    -0.051315909999999999  0.16429669999999999  -0.00078212490000000002
 587    -0.068094539999999995  0.1675914  -0.054747490000000003
 588    -0.077368439999999997  0.1717273  -0.038913139999999999
 589    -0.076718549999999996  0.070679430000000001  0.00085127640000000001
 590    -0.041320809999999999  0.088160600000000006  -0.022365380000000001
 591    -0.02700806  0.068912109999999999  -0.033281980000000003
 592    -0.087948499999999999  0.14973400000000001  0.0098053159999999997
 593    -0.077540129999999999  0.1571167  -0.01754139
 594    -0.032528189999999998  0.068773440000000005  -0.02138522
 595    -0.077823320000000001  0.075440699999999999  -0.0065347469999999996
 596    -0.074001140000000007  0.15936139999999999  -0.031122070000000002
 597    -0.031581409999999997  0.073691030000000005  -0.029332219999999999
 598    -0.081756010000000004  0.080211050000000006  -0.003524101
 599    -0.076884259999999996  0.13980989999999999  -0.0055596320000000001
 600    0.026030580000000001  0.1167589  -0.0071260100000000003
 601    -0.072374960000000002  0.14929780000000001  -0.034404270000000001
 602    -0.084929530000000003  0.080133469999999998  0.0055047450000000001
 603    -0.034010779999999997  0.075779929999999995  -0.024172920000000001
 604    -0.018152720000000001  0.18650410000000001  -0.019994899999999999
 605    -0.032284889999999997  0.082123130000000003  -0.029505050000000001
 606    -0.025298689999999999  0.11263629999999999  -0.017339719999999999
 607    0.003493229  0.1160388  -0.01821977
 608    -0.075670619999999994  0.080163079999999998  -0.01131533
 609    -0.086793700000000001  0.083470530000000001  0.01362616
 610    -0.02945801  0.080608109999999997  -0.034696659999999997
 611    -0.086225599999999999  0.086172670000000007  0.00068617630000000003
 612    -0.085143679999999999  0.081252560000000001  0.020686090000000001
 613    -0.086579909999999996  0.15204809999999999  0.024310160000000001
 614    -0.035736490000000003  0.079710199999999995  -0.02161037
 615    -0.070878849999999993  0.15746099999999999  -0.045167199999999998
 616    -0.0104939  0.1022004  -0.02403367
 617    -0.080480769999999993  0.089033050000000002  -0.0086477810000000002
 618    -0.089159080000000002  0.089175969999999993  0.01112203
 619    -0.083804290000000004  0.1287373  -0.003544719
 620    -0.090702950000000004  0.1417504  0.023155249999999999
 621    -0.088079749999999998  0.088594489999999998  0.021761699999999998
 622    -0.085086289999999995  0.095922240000000006  -0.0020704289999999999
 623    -0.087616139999999995  0.093698710000000004  0.0047605470000000004
 624    -0.080829689999999996  0.15097859999999999  0.0020313309999999999
 625    -0.076062210000000005  0.14750569999999999  -0.0077629309999999998
 626    -0.087690409999999996  0.11435380000000001  0.0041945419999999999
 627    0.057940789999999999  0.066075610000000007  0.0039920770000000001
 628    -0.01105067  0.1159815  -0.016252829999999999
 629    -0.0043016039999999997  0.1161944  -0.016407499999999998
 630    -0.031217979999999999  0.17207929999999999  -0.016409650000000001
 631    -0.0099514189999999995  0.094953220000000005  -0.033399409999999997
 632    -0.028036160000000001  0.1179043  -0.01284809
 633    0.0015982520000000001  0.1200967  -0.01374795
 634    -0.0028818810000000002  0.1025677  -0.022983969999999999
 635    -0.003084781  0.096261869999999999  -0.031166289999999999
 636    -0.01410226  0.1111544  -0.019612620000000001
 637    -0.059557039999999999  0.1544112  0.00093253209999999995
 638    0.032936010000000002  0.1094392  -0.007966173
 639    -0.065490229999999997  0.038802799999999998  -0.0068705550000000004
 640    0.047037130000000003  0.074029979999999995  0.0066592700000000001
 641    -0.030028820000000001  0.1218215  -0.0071774539999999998
 642    -0.048569149999999998  0.1232708  -0.01032872
 643    0.01254341  0.1164491  -0.0155858
 644    0.0085962699999999996  0.1103589  -0.019570520000000001
 645    0.0089868599999999993  0.12605240000000001  -0.0063581729999999999
 646    -0.0048789640000000004  0.12586040000000001  -0.0078099140000000003
 647    -0.043650649999999999  0.1114988  -0.017444729999999999
 648    0.011033609999999999  0.095304360000000005  -0.026384009999999999
 649    -0.0063734660000000004  0.11094229999999999  -0.0211976
 650    -0.023498209999999999  0.121406  -0.0086039159999999996
 651    0.036629950000000001  0.103745  -0.0080621240000000004
 652    0.0028604939999999999  0.098503800000000002  -0.025354979999999999
 653    -0.036110910000000003  0.1171449  -0.013739110000000001
 654    -0.059606869999999999  0.1459096  -0.0026017599999999998
 655    -0.037766109999999999  0.045081820000000002  -0.024332289999999999
 656    -0.037213749999999997  0.1240685  -0.0075461340000000003
 657    0.02027203  0.121888  -0.0056652710000000004
 658    0.033772099999999999  0.11273710000000001  -0.002375678
 659    0.0070055849999999999  0.09072421  -0.032164659999999998
 660    -0.01640457  0.097816760000000003  -0.026650839999999999
 661    0.00014898320000000001  0.1111769  -0.02019348
 662    0.015186069999999999  0.1064364  -0.018518199999999999
 663    -0.0060784580000000001  0.090035420000000005  -0.035991580000000002
 664    0.01339972  0.12617400000000001  -0.003871041
 665    0.049530159999999997  0.068599069999999998  0.001758459
 666    0.058044169999999999  0.070286230000000005  0.008406785
 667    -0.018736929999999999  0.093770850000000003  -0.033884549999999999
 668    -0.01151685  0.12250229999999999  -0.0096110129999999998
 669    -0.054317589999999999  0.13866220000000001  -0.0020219919999999998
 670    -0.06235139  0.14088239999999999  -0.0065747949999999996
 671    0.029334829999999999  0.102896  -0.015367469999999999
 672    -0.064969369999999999  0.1135327  -0.012002860000000001
 673    -0.014896080000000001  0.12841620000000001  0.004981376
 674    -0.0096575559999999994  0.12965989999999999  0.0053819469999999998
 675    0.02955843  0.09711156  -0.017301750000000001
 676    -0.049109090000000001  0.037598100000000002  -0.01231438
 677    0.01405375  0.087580249999999998  -0.02983719
 678    -0.04454077  0.1167864  -0.01521077
 679    0.014295520000000001  0.1219228  -0.0099586540000000008
 680    -0.052030600000000003  0.13069639999999999  -0.003638306
 681    -0.048120900000000001  0.13193009999999999  0.0020089869999999998
 682    0.016433679999999999  0.1278118  0.0026979590000000002
 683    0.036649630000000002  0.091166620000000004  -0.01425588
 684    0.02153176  0.099106970000000003  -0.021441709999999999
 685    -0.01630086  0.1043332  -0.02267019
 686    0.044233300000000003  0.064456949999999999  -0.001749441
 687    0.01547949  0.1006619  -0.02212399
 688    0.026566490000000002  0.10876669999999999  -0.01333287
 689    0.053703519999999998  0.062638890000000003  -0.0013313140000000001
 690    -0.01445488  0.090951299999999999  -0.036683689999999998
 691    -0.022637620000000001  0.1251429  -6.9657260000000005e-05
 692    0.010151  0.12899569999999999  -0.00034450529999999999
 693    -0.049585820000000003  0.113694  -0.0166374
 694    -0.044512320000000001  0.12598819999999999  -0.007052755
 695    -0.039762499999999999  0.12742890000000001  -0.001010829
 696    -0.0034601200000000001  0.12897459999999999  -0.0015024929999999999
 697    0.02093383  0.124859  0.00097079220000000001
 698    -0.018215180000000001  0.1165534  -0.01544975
 699    0.019703539999999999  0.089535089999999998  -0.025570789999999999
 700    -0.019077549999999999  0.1199428  -0.0107978
 701    -0.016756719999999999  0.1249049  -0.0039576280000000004
 702    -0.009156361  0.12754760000000001  -0.0033250910000000001
 703    0.001902864  0.12751109999999999  -0.0045812680000000003
 704    -0.038414740000000003  0.099922049999999998  -0.02181547
 705    -0.013965089999999999  0.034191930000000002  -0.023687819999999998
 706    -0.026098340000000001  0.035293039999999998  -0.028418510000000001
 707    -0.0023444609999999999  0.03789936  -0.02473504
 708    -0.0203774  0.036539049999999997  -0.02795257
 709    -0.0071919280000000002  0.040280000000000003  -0.025675159999999999
 710    -0.0140199  0.040001540000000002  -0.026904830000000001
 711    -0.033414840000000001  0.034461029999999997  -0.029771160000000001
 712    -0.063921220000000001  0.034571699999999997  -0.0078078610000000001
 713    0.0099402680000000004  0.038934490000000002  -0.02319388
 714    -0.031937189999999997  0.043140650000000003  -0.029004410000000001
 715    -0.055280820000000001  0.039541739999999999  -0.01018758
 716    0.032975850000000001  0.039202920000000002  -0.001556612
 717    -0.025148150000000001  0.045335590000000002  -0.027773269999999999
 718    0.040227760000000001  0.043296660000000001  -0.0023447939999999999
 719    0.016814519999999999  0.045355699999999999  -0.023445270000000001
 720    -0.018314569999999999  0.045794729999999999  -0.02826712
 721    0.0046692310000000002  0.1057993  -0.020923890000000001
 722    0.032643510000000001  0.047224519999999999  -0.0064706299999999998
 723    -0.06284381  0.034654549999999999  0.024031139999999999
 724    0.0032537550000000001  0.04222998  -0.02449289
 725    -0.003160155  0.047340140000000003  -0.029727360000000001
 726    -0.0090625480000000001  0.047800299999999997  -0.030307790000000001
 727    -0.01215341  0.044727660000000002  -0.02770506
 728    0.02600452  0.043235320000000001  -0.007100271
 729    -0.04515048  0.099275269999999999  -0.021686509999999999
 730    -0.048117  0.1040247  -0.020618540000000001
 731    -0.055270489999999999  0.11344559999999999  -0.016198279999999999
 732    -0.04515454  0.16264400000000001  -0.0088668340000000005
 733    -0.049463350000000003  0.045340110000000003  -0.0094733119999999994
 734    -0.057907220000000002  0.1007125  -0.01933178
 735    0.046399299999999997  0.049146189999999999  -0.004277894
 736    -0.065478179999999997  0.1007391  -0.016632919999999999
 737    0.00104586  0.053560650000000001  -0.030861300000000001
 738    0.0056734860000000002  0.05033058  -0.029542240000000001
 739    -0.0085832949999999995  0.053057680000000003  -0.032893169999999999
 740    -0.058041120000000002  0.044781330000000001  -0.0057886580000000003
 741    -0.052159049999999998  0.15684699999999999  -0.0040881540000000001
 742    0.010166680000000001  0.047863139999999998  -0.026804660000000001
 743    -0.017612940000000001  0.052014579999999998  -0.031596449999999998
 744    -0.045540270000000001  0.052638789999999998  -0.01035693
 745    0.037105800000000001  0.050590099999999999  -0.0066192500000000001
 746    0.020977949999999999  0.054553249999999998  -0.026656949999999999
 747    -0.03677209  0.1571466  -0.01107314
 748    -0.069884290000000002  0.1249306  -0.0088573000000000002
 749    0.01579794  0.055678720000000001  -0.028559589999999999
 750    -0.017861740000000001  0.057082599999999997  -0.0339485
 751    -0.073304279999999999  0.1213653  -0.0081241999999999998
 752    -0.0091395999999999995  0.03397592  -0.02045338
 753    -0.00069049689999999995  0.05970201  -0.033332430000000003
 754    -0.025690939999999999  0.060083119999999997  -0.030403039999999999
 755    -0.070825369999999999  0.095824049999999994  -0.015599460000000001
 756    0.053641939999999999  0.053748079999999997  -0.00089940449999999998
 757    -0.01349296  0.061469269999999999  -0.036207320000000001
 758    0.043383659999999998  0.055477390000000001  -0.0061293529999999997
 759    -0.0071594400000000004  0.060300039999999999  -0.034622859999999998
 760    -0.065700289999999995  0.1327631  -0.0083710850000000003
 761    -0.023795239999999999  0.1617238  -0.014620009999999999
 762    -0.041135520000000002  0.056803480000000003  -0.011498599999999999
 763    0.04998068  0.059223369999999997  -0.0044557190000000003
 764    0.019737660000000001  0.06132261  -0.027173659999999999
 765    0.0079918950000000006  0.065704310000000002  -0.031770100000000003
 766    0.0045486659999999998  0.059309889999999997  -0.031651440000000003
 767    -0.062417  0.10560799999999999  -0.017040570000000001
 768    -0.01538191  0.1748777  -0.025649399999999999
 769    -0.023290330000000001  0.10608239999999999  -0.022524869999999999
 770    -0.03520674  0.1627865  -0.014057439999999999
 771    -0.031021699999999999  0.1056897  -0.021197089999999998
 772    -0.049183789999999998  0.0606803  -0.011408440000000001
 773    -0.054334  0.1076536  -0.018469260000000001
 774    0.01104306  0.06060223  -0.03007247
 775    -0.034263149999999999  0.06179072  -0.013455659999999999
 776    -0.04049084  0.063019409999999998  -0.013371299999999999
 777    -0.076709869999999999  0.1113677  0.046079189999999999
 778    -0.01946121  0.063805070000000005  -0.036141029999999998
 779    0.0041951599999999999  0.065915989999999994  -0.03315307
 780    -0.053495819999999999  0.065643320000000005  -0.01073499
 781    -0.023304209999999999  0.16861080000000001  -0.01907323
 782    -0.02067198  0.1786874  -0.0225285
 783    -0.0025395539999999999  0.067053260000000003  -0.034645420000000003
 784    -0.014783370000000001  0.069062529999999997  -0.038109879999999999
 785    -0.044008419999999999  0.068265729999999997  -0.016118360000000002
 786    -0.037253149999999999  0.16891249999999999  -0.01325716
 787    -0.0075909899999999997  0.069438040000000006  -0.036192509999999997
 788    -0.069731029999999999  0.10451439999999999  -0.01341205
 789    -0.05933339  0.1337979  -0.006685117
 790    0.0016498509999999999  0.072796689999999997  -0.035028499999999997
 791    -0.020444690000000001  0.071316480000000002  -0.038401989999999997
 792    -0.057840339999999997  0.067059740000000007  -0.01106359
 793    -0.079986909999999994  0.13272149999999999  -0.0045245149999999998
 794    -0.061311369999999997  0.12503790000000001  -0.0083103320000000001
 795    0.01224883  0.070623740000000004  -0.031506930000000002
 796    -0.026368869999999999  0.077819150000000004  -0.036874320000000002
 797    -0.056791880000000003  0.074356610000000004  -0.017819080000000001
 798    -0.080392939999999996  0.071410370000000001  0.014336939999999999
 799    0.023238200000000001  0.069704929999999998  -0.02620898
 800    0.018874599999999998  0.068930379999999999  -0.028801150000000001
 801    -0.022497320000000001  0.083208840000000006  -0.038189090000000002
 802    -0.049419070000000002  0.070689269999999998  -0.015056119999999999
 803    -0.071308540000000004  0.069481959999999995  -0.0050669729999999998
 804    -0.02511675  0.1765729  -0.019508069999999999
 805    -0.014445059999999999  0.18086869999999999  -0.027603519999999999
 806    0.026944699999999999  0.072391940000000002  -0.023880539999999999
 807    0.0047701560000000002  0.078959139999999997  -0.034430879999999997
 808    -0.036834529999999997  0.069791409999999998  -0.016574459999999999
 809    -0.063126059999999998  0.073564749999999998  -0.01636609
 810    -0.069226389999999999  0.075211139999999996  -0.01428919
 811    0.016251729999999999  0.075927480000000006  -0.02910505
 812    0.0073298749999999996  0.073827900000000002  -0.033920180000000001
 813    -0.039472889999999997  0.10629429999999999  -0.02017532
 814    -0.040370110000000001  0.074963059999999998  -0.018190709999999999
 815    -0.04718207  0.075248309999999999  -0.017628270000000001
 816    0.010473100000000001  0.081848710000000005  -0.031818260000000001
 817    -0.0041439470000000003  0.076503559999999998  -0.036848779999999998
 818    -0.0087767660000000001  0.075750399999999996  -0.037710819999999999
 819    -0.01472911  0.077595769999999994  -0.038702
 820    -0.044357880000000002  0.079728240000000006  -0.019728490000000001
 821    0.025913439999999999  0.084187230000000002  -0.02346173
 822    0.019451469999999998  0.080397499999999997  -0.027676929999999999
 823    0.0009659515  0.081423609999999993  -0.035505670000000003
 824    -0.048980570000000001  0.079547320000000005  -0.019884969999999998
 825    -0.052461609999999999  0.084901370000000004  -0.021675119999999999
 826    -0.05380339  0.077232350000000005  -0.019338009999999999
 827    -0.0071083259999999999  0.084202620000000006  -0.037827100000000002
 828    -0.069608649999999994  0.082716559999999995  -0.017094080000000001
 829    0.0047562910000000002  0.085039939999999994  -0.033669930000000001
 830    -0.019332450000000001  0.088501880000000005  -0.037564720000000003
 831    -0.047817199999999997  0.085223939999999998  -0.02166883
 832    -0.057493500000000003  0.084470879999999998  -0.02105835
 833    -0.016592530000000001  0.084098430000000002  -0.039060299999999999
 834    -0.039597790000000001  0.082874149999999994  -0.02095698
 835    -0.070248290000000005  0.1119994  -0.0098238590000000008
 836    -0.0592554  0.11800860000000001  -0.011563479999999999
 837    -0.00049488050000000001  0.088168579999999996  -0.035265089999999999
 838    0.0054507870000000003  0.03411703  -0.01843067
 839    0.01444731  0.035282170000000002  -0.018094280000000001
 840    0.00155065  0.03488513  -0.023178919999999999
 841    -0.03197183  0.033985359999999999  -0.021367489999999999
 842    -0.0024509089999999998  0.035544939999999997  -0.016550639999999998
 843    -0.021338360000000001  0.034754399999999998  -0.020034
 844    0.0060874329999999997  0.037640739999999999  -0.01042911
 845    -0.043764879999999999  0.03473536  -0.024711569999999999
 846    -0.040116260000000001  0.033604460000000003  -0.01904807
 847    -0.0048581789999999998  0.039120780000000001  -0.010790599999999999
 848    -0.014759390000000001  0.03833669  -0.015853590000000001
 849    -0.038033400000000002  0.036470320000000001  -0.01166877
 850    0.019089120000000001  0.035259909999999998  -0.0038211400000000002
 851    -0.031586759999999998  0.038081150000000001  -0.016250839999999999
 852    -0.0092818299999999996  0.038771750000000001  -0.01414876
 853    -0.028421269999999998  0.038398620000000001  -0.0071684569999999996
 854    0.011826039999999999  0.034337529999999998  -0.0056580199999999997
 855    0.017358809999999999  0.034496880000000001  0.0025016999999999999
 856    -0.02191127  0.038667390000000003  -0.0145314
 857    -0.0034637230000000001  0.039032770000000001  -0.0046050170000000003
 858    0.0038532560000000002  0.037097779999999997  -0.0022896349999999999
 859    0.0079467140000000006  0.035525370000000001  0.0040845999999999999
 860    -0.044116000000000002  0.033560909999999999  -0.0088276190000000001
 861    -0.01209817  0.038780410000000001  -0.0055387400000000003
 862    0.026889679999999999  0.036591020000000002  -0.00020948890000000001
 863    -0.056661459999999997  0.033932039999999997  -0.0097962380000000005
 864    -0.070302199999999995  0.1121606  0.047081959999999999
 865    0.030129840000000001  0.035117370000000002  0.0070416200000000002
 866    0.036789719999999998  0.037792319999999997  0.0042522389999999997
 867    -0.051169550000000001  0.033429680000000003  -0.0076245080000000003
 868    -0.018770419999999999  0.038460479999999998  -0.00291633
 869    -0.002217199  0.037984690000000002  0.004756288
 870    -0.075896790000000006  0.067788059999999997  0.017568400000000001
 871    -0.060429480000000001  0.03338675  -0.00081715900000000003
 872    -0.035165920000000003  0.03862057  -0.0035685700000000001
 873    -0.065667809999999993  0.033445860000000001  0.00154339
 874    -0.054046339999999998  0.033507839999999997  0.00015033550000000001
 875    -0.026931589999999998  0.038310860000000002  0.00085623410000000002
 876    0.02192498  0.035772310000000002  0.0085828510000000007
 877    -0.046638329999999999  0.033590839999999997  0.00016906009999999999
 878    -0.040665609999999998  0.033332790000000001  0.0012316919999999999
 879    -0.012500020000000001  0.038480809999999997  0.0037551160000000002
 880    0.0034074539999999999  0.033833200000000001  0.013186460000000001
 881    0.027874030000000001  0.034719760000000002  0.01362085
 882    -0.070188109999999998  0.036277219999999999  -0.0015842339999999999
 883    -0.019157110000000001  0.038250430000000002  0.0080250100000000008
 884    -0.0023129579999999999  0.036953180000000002  0.012137419999999999
 885    0.021287029999999998  0.035240809999999997  0.022745870000000001
 886    0.03917938  0.038185410000000003  0.013783500000000001
 887    -0.036356680000000002  0.03321756  0.0081217919999999992
 888    0.047477499999999999  0.042278639999999999  0.01307531
 889    -0.058431429999999999  0.033520479999999998  0.0067714510000000004
 890    -0.02655215  0.038431479999999997  0.0077184999999999997
 891    -0.0092916790000000006  0.03848364  0.009193316
 892    0.028147439999999999  0.03620963  0.02152689
 893    0.03407027  0.037084409999999998  0.018575979999999999
 894    -0.048041960000000002  0.035350630000000001  0.0082730500000000005
 895    -0.040960969999999999  0.035809399999999998  0.0087014459999999998
 896    -0.031280339999999997  0.033624229999999998  0.016221159999999998
 897    -0.0084205489999999994  0.038373619999999997  0.016032870000000001
 898    0.0028700589999999999  0.036367320000000002  0.022008839999999998
 899    0.01168308  0.034560279999999999  0.020717840000000001
 900    0.051864149999999998  0.046195649999999998  0.01970746
 901    -0.051551819999999998  0.033725209999999999  0.007982645
 902    -0.023148519999999999  0.038281780000000001  0.014129589999999999
 903    -0.0017569199999999999  0.037327590000000001  0.018455940000000001
 904    0.04132429  0.040358190000000002  0.020362269999999998
 905    -0.05683788  0.03359856  0.014774310000000001
 906    -0.065648810000000002  0.033909710000000003  0.010169279999999999
 907    -0.034974690000000003  0.034940069999999997  0.017133949999999998
 908    -0.014256130000000001  0.038256510000000001  0.016164669999999999
 909    0.007548824  0.03588239  0.025506290000000001
 910    0.015797189999999999  0.034734139999999997  0.027000030000000001
 911    0.02606238  0.040910990000000001  0.033685699999999999
 912    0.037482050000000003  0.041263349999999997  0.026433709999999999
 913    -0.063638639999999996  0.035741660000000001  0.01578543
 914    -0.034633799999999999  0.034164  0.023783260000000001
 915    -0.071445270000000005  0.070281479999999993  0.031601339999999999
 916    0.011042980000000001  0.035765650000000003  0.032155450000000002
 917    -0.060476309999999998  0.075432440000000003  0.041615720000000002
 918    -0.037446569999999998  0.034540260000000003  0.026767269999999999
 919    -0.016485130000000001  0.038310940000000002  0.023206560000000001
 920    -0.0079069369999999993  0.038501559999999997  0.023265419999999998
 921    -0.08266097  0.1100718  0.037925109999999998
 922    -0.053716769999999997  0.033143930000000002  0.021631750000000002
 923    -0.04086381  0.034039380000000001  0.02776145
 924    -0.027796910000000001  0.037866730000000001  0.023933880000000001
 925    -0.0028334300000000001  0.038890580000000001  0.028863550000000002
 926    0.014859199999999999  0.03474787  0.037906839999999997
 927    -0.056955289999999999  0.064900180000000002  0.033079829999999998
 928    -0.047403069999999999  0.034198119999999999  0.029260350000000001
 929    -0.043846009999999998  0.034506750000000003  0.032129049999999999
 930    -0.021837200000000001  0.038537729999999999  0.030676680000000001
 931    0.0039823030000000004  0.039725669999999998  0.031544210000000003
 932    0.0060488850000000004  0.034817069999999999  0.037757819999999997
 933    -0.045259889999999997  0.070462940000000002  0.041299450000000001
 934    -0.077825290000000005  0.1062959  0.033945210000000003
 935    -0.067486389999999993  0.062698809999999994  0.0010697370000000001
 936    -0.058289210000000001  0.034000410000000002  0.023855129999999999
 937    -0.03426394  0.03461185  0.029372369999999998
 938    -0.017285229999999999  0.03887169  0.033988339999999999
 939    0.0095472920000000006  0.03468537  0.042001330000000003
 940    -0.0064132310000000001  0.034999919999999997  0.04102426
 941    0.0148465  0.036626239999999997  0.043591400000000002
 942    -0.065223809999999993  0.062223489999999999  0.02308524
 943    -0.064122620000000005  0.060155979999999998  0.0059418220000000002
 944    -0.058471910000000002  0.05828945  0.0042889360000000001
 945    -0.083995210000000001  0.1125237  0.044781090000000003
 946    -0.051821220000000001  0.034427399999999997  0.030618329999999999
 947    -0.028336009999999998  0.039213270000000001  0.033542349999999999
 948    -0.01162375  0.038817549999999999  0.031436489999999997
 949    -0.0048389030000000003  0.039545120000000003  0.0360848
 950    -0.063159599999999996  0.070316000000000004  0.036918300000000001
 951    -0.060387410000000002  0.058264429999999999  0.01375498
 952    -0.056949390000000003  0.034406810000000003  0.033606490000000003
 953    -0.039853420000000001  0.034618530000000002  0.039482540000000003
 954    -0.001495887  0.03486612  0.044882140000000001
 955    0.0052692449999999997  0.035101170000000001  0.043803519999999999
 956    -0.080651169999999994  0.077550939999999999  0.027700570000000001
 957    -0.065877160000000004  0.038882109999999998  0.03041957
 958    -0.035469880000000002  0.034289390000000003  0.036342989999999999
 959    -0.045018219999999998  0.034573390000000002  0.037516710000000002
 960    -0.0204078  0.039438429999999997  0.039121320000000001
 961    -0.012889619999999999  0.039218450000000002  0.039301299999999997
 962    -0.01235087  0.034406609999999997  0.045338690000000001
 963    -0.069952520000000004  0.061770169999999999  0.010112650000000001
 964    -0.02410371  0.034352029999999999  0.047042649999999998
 965    -0.01779296  0.034325370000000001  0.047359539999999999
 966    -0.073502090000000006  0.1172922  0.05254673
 967    -0.073749319999999993  0.065353410000000001  0.0066981619999999997
 968    -0.05787962  0.059162869999999999  0.021261579999999999
 969    -0.030683559999999999  0.034413350000000002  0.044198500000000002
 970    -0.083116280000000001  0.076069869999999998  0.01271485
 971    -0.075088130000000003  0.066710839999999993  0.012692800000000001
 972    -0.064120709999999997  0.034664470000000003  0.034808800000000001
 973    -0.053788290000000002  0.034642979999999997  0.041904249999999997
 974    -0.055500609999999999  0.060729390000000001  0.025831819999999998
 975    -0.080478770000000005  0.072218009999999999  0.0066702460000000003
 976    -0.068395609999999996  0.061067709999999997  0.015085629999999999
 977    -0.06513998  0.037327489999999998  0.038933500000000003
 978    -0.04834865  0.035862770000000002  0.044912649999999998
 979    -0.0065674009999999996  0.037772670000000001  0.048282449999999998
 980    -0.068991769999999994  0.066206100000000004  0.027189049999999999
 981    -0.055261709999999999  0.069306019999999996  0.038110119999999997
 982    -0.090356980000000003  0.1137986  0.037881980000000003
 983    -0.062999239999999998  0.059635390000000003  0.017606900000000002
 984    -0.059109729999999999  0.035900870000000001  0.044306449999999997
 985    -0.019195790000000001  0.037190139999999997  0.052390449999999998
 986    -0.039706739999999997  0.15059890000000001  -0.0048039379999999998
 987    -0.053604829999999999  0.14806839999999999  -0.0020786749999999999
 988    -0.01756255  0.16377459999999999  -0.016893020000000002
 989    -0.063497250000000005  0.1462359  -0.0138049
 990    -0.065160200000000001  0.15330179999999999  -0.04058958
 991    -0.063063549999999996  0.1490406  -0.019992329999999999
 992    -0.065616250000000001  0.15524660000000001  -0.048703330000000003
 993    -0.029610029999999999  0.15645890000000001  -0.0099392790000000005
 994    -0.070889510000000003  0.137848  -0.0075627209999999997
 995    -0.02323364  0.1572054  -0.0074990109999999999
 996    -0.070211800000000005  0.14291329999999999  -0.01157153
 997    -0.065261459999999993  0.15063869999999999  -0.034415340000000003
 998    -0.070557750000000002  0.1446972  -0.0182761
 999    -0.050583820000000002  0.1416848  0.002561168
1000    -0.064084020000000005  0.1489528  -0.02637929
1001    -0.02902828  0.15453420000000001  -0.0046089640000000001
1002    -0.035589860095467316  0.090393352533480867  0.019557463197896915
1003    -0.032343152023153049  0.053259208845625169  0.015132564227117029
1004    -0.052268216858959785  0.099941624582190289  0.0062689669360414969
1005    -0.051499359975366379  0.089767234926736827  -0.0081822491181455115
1006    -0.048246131048575586  0.1002787649215521  0.028385399941085909
1007    -0.062857179939703758  0.09419300917662847  0.024600971875679053
1008    -0.055543793389417132  0.078705171750251324  0.01585613343990145
1009    0.011187413917892188  0.10520600514011509  0.012559040539857205
1010    0.012116172516046384  0.091581617559519074  0.033131510685925104
1011    -0.014642645722461668  0.082891801117781785  -0.025318319828726878
1012    -0.064557019420057635  0.072741475836204592  0.024020421880799309
1013    -0.05892521167553158  0.10162644119326536  0.033636553039665618
1014    -0.074055440660447169  0.10041304616349229  0.027002638098865245
1015    -0.069840589106269002  0.12317042893882271  0.019163630129636459
1016    -0.0040298797320819698  0.081654593746094198  0.041522415943678843
1017    -0.076828841339675241  0.088747830849944989  0.024155275193918652
1018    -0.0053181751188035396  0.11340535812951821  0.016115352209052625
1019    0.025834531924586176  0.070783109694123755  -0.012735256558708375
1020    0.013236853785607506  0.085141034019138764  -0.010659393963635822
1021    -0.020513299938918563  0.10273023452309531  0.011385445508402718
1022    0.027917857923760763  0.090082589920166808  0.016590618210685568
1023    0.026073124672773361  0.081089808982231767  0.029440925062830973
1024    0.031467517011147909  0.09286506862104689  0.028494762478279693
1025    -3.0450064903116245e-05  0.11944271289525241  0.0059065262345287554
1026    -0.06373035635895373  0.071665079485185385  0.003378664765481773
1027    -0.0018984593065859089  0.051302254874893399  0.03710082497780387
1028    -0.0081895797678017152  0.06690698065453296  0.039671580879396137
1029    0.04063824888630288  0.05237244979638872  0.017468934484666777
1030    -0.078897092540970881  0.1319210017774467  0.02936001816908828
1031    0.029449934605873852  0.066538819705628249  0.0075555847731820962
1032    0.013700562104792778  0.089349007622632301  0.044950693602441548
1033    0.030127325935378733  0.083394127614229083  -0.0023734101571197212
1034    -0.0036605163516024606  0.069477738176322287  0.050002082676147523
1035    0.031566382554648241  0.072676182056133354  0.022528059857196289
1036    0.016433298009680998  0.05291808380972781  0.01407970501675251
1037    -0.062209639980917768  0.079116817880034593  -0.0080257983349271856
1038    -0.019265359816685056  0.079241845271512762  0.040368419506109705
1039    -0.01991671657603537  0.10006303999140859  -0.0062693253177396454
1040    0.052583275420226401  0.064590017428308472  0.014002669232697112
1041    -0.021447387063789989  0.090437781457004873  0.039034957967729524
1042    -0.033796926126307261  0.11489109549058195  0.0081418177273353976
1043    -0.011895236881525764  0.074113258746324906  0.009418206958938212
1044    -0.075113495100469052  0.094711427456803235  0.011432659584501599
1045    -0.010429509567951818  0.057244683899966613  -0.0070580627587564712
1046    -0.077225897165188864  0.13888824919962744  0.01914675057016349
1047    0.015843368024710508  0.076914687521885197  0.038495781960186264
1048    0.0038791694570620345  0.1096888458775228  -0.0081657179532042927
1049    -0.075346216183378389  0.095071751948593866  -0.0021806415087091201
1050    -0.063435301291728807  0.066838488238358196  0.013567315598205039
1051    -0.015637051897705194  0.046083989924886049  0.038991519522197447
1052    -0.031451914249893236  0.081742055869977612  0.033712448989569765
1053    -0.063029910461745151  0.10783199499814958  0.015581362627703406
1054    0.02468433724673523  0.10974031864878636  0.017936831316045572
1055    -0.01015351828086701  0.067514849995806314  -0.022112654769394065
1056    -0.084463308081738811  0.13331709659525182  0.014381788948141027
1057    -0.035273354023032957  0.10888247048752832  0.02094404395825699
1058    -0.05151111607878734  0.078031558592282793  -0.011827720285421764
1059    0.038405592293090228  0.081321303880096243  0.017785685609273502
1060    -0.074668877750574403  0.14643520067462595  0.0096489803800682752
1061    -0.018500107644196299  0.047415974719233145  -0.0088231911084300594
1062    0.02270851806096635  0.064014959382988124  0.028811180796983572
1063    -0.01571808125464268  0.055098019654358614  0.012374681505403341
1064    0.015520384243944004  0.066507041196228203  -0.018868703657753037
1065    -0.02641116314628161  0.11593763112382223  -0.00020962617563330212
1066    -0.0067344328131662863  0.11467110470020093  -0.0082749410950472072
1067    -0.021877986074680802  0.09938786806723135  -0.018400945535189627
1068    -0.024511344106355106  0.099772437929996974  0.028625920295030378
1069    -0.042376740951030202  0.052399116256429283  0.02642598761107922
1070    -0.024859793857337591  0.055933607785756928  -0.014855417294413474
1071    -0.043262591423954104  0.067855111074297744  0.023552298414569205
1072    -0.029061224891870612  0.08245815949461513  -0.00074928726769144167
1073    -0.018208995281207646  0.083883646674802803  0.048121066014318238
1074    0.010465525298305703  0.11965958467452371  -0.0014930090284110376
1075    -0.076283621603711105  0.12568927319117021  0.0077597501464377128
1076    -0.0062991379639617037  0.050735156067690468  -0.018246188709400049
1077    -0.02127001461689999  0.1191333494227808  0.012179072449725641
1078    -0.012792117746860265  0.0457446367551443  -0.015318852372115761
1079    0.028244396861567725  0.10321004972911971  0.0019812192002841384
1080    0.016459765258892887  0.099161623121824555  -0.010243950594219033
1081    -0.011839866051541076  0.12177871509631311  0.0095212970810970091
1082    0.035341660184851909  0.068629244289865846  0.029535457487059991
1083    -0.0043230423749851567  0.084868223495576628  -0.030569308909633122
1084    -0.028831809938885827  0.046325320406165701  -0.0077405085327859526
1085    0.013160345774768106  0.050259210833362621  -0.013182835589340415
1086    -0.0053148527175968518  0.074551451011773559  -0.030141836762391894
1087    0.0099697443599365432  0.049968695032075364  0.042393061401592658
1088    0.0075496525886255316  0.083140077354462869  0.048005567099301628
1089    -0.072665396081823846  0.11192719640448609  0.023091348220548504
1090    0.022371103680119641  0.11796041348356086  0.0080050592786603258
1091    -0.022937522880305389  0.045768120021305723  0.005331790101501809
1092    0.027220209860498598  0.069773713712784569  0.036414936678718458
1093    -0.058199369703992643  0.14733419563944927  0.0067456375867427287
1094    0.0071054227219061279  0.12407957638924326  0.016553023434179526
1095    -0.0085367189983905599  0.11515368511675257  0.031233436516271588
1096    0.012404083868174891  0.10873725046099722  -0.013566564936635
1097    -0.015073843957509178  0.072737711541513955  0.047948546548152171
1098    -0.0062793926979658734  0.12544803581593211  0.0018807543575375329
1099    0.016372477122476577  0.059138905451875071  0.039087839507541869
1100    0.017756846338735217  0.068268153940185358  0.04409454098504615
1101    -0.085614449125609254  0.12236381043490301  0.018550252068932814
1102    -0.0035995851088699965  0.05300437740736081  0.022003360244193363
1103    -0.0065071746733636028  0.045898075325031408  0.0028985207291447679
1104    -0.014497272564520486  0.10539197791877349  0.036542119665159592
1105    -0.077947498757345315  0.13047536543512839  0.043316582975739107
1106    0.011684859903837547  0.046681980580779284  0.027271450775451889
1107    -0.070017779832632923  0.09266842467964384  0.033762961524906807
1108    -0.073047061009628753  0.076819214588692453  0.014269810531009739
1109    -0.063364429507009934  0.10558845973546943  -0.0029497502648760977
1110    0.037543737903224822  0.087909174566532772  0.025398072544485974
1111    -0.057644269803829092  0.082365180023160164  0.033112834617781056
1112    -0.05054564877188359  0.085451262766421718  -0.017293787383453753
1113    0.011398824170430165  0.10688191315319201  0.030456675214180606
1114    -0.022921246495432229  0.08076261555501868  -0.031944385666367765
1115    -0.041050507124513191  0.064168128079374651  0.0052586221755261909
1116    0.040594686575220341  0.051890824752259521  0.0041945471563631324
1117    -0.062131101806341217  0.13380324346362046  0.0086429388511540198
1118    -0.043219792645571596  0.099788846558864552  -0.0085100278028153002
1119    0.051211062678117245  0.054164975372806873  0.011464228971499443
1120    -0.023427900946629273  0.073270111665449236  -0.022938133630677818
1121    -0.061446822821920807  0.13511669376756086  0.025089187627845965
1122    0.024035328549525968  0.10231235907711216  0.030764287127020042
1123    -0.013060197393062113  0.046089829842686517  0.028324361127657308
1124    -0.036231425205478604  0.094068341796327851  -0.013455449218011119
1125    0.00014672299401138119  0.079055080175035125  -0.018667598790043094
1126    -0.048228455338457418  0.060706467575044561  -0.0036980069135259903
1127    -0.037017599858983508  0.1198094748438269  0.017527024400126448
1128    -0.05926603970257515  0.12204455749419543  0.028541483220971955
1129    -0.044735396390814551  0.04351129020777722  0.032806113431125772
1130    0.026378679692545037  0.059302048537508575  0.037381955000170587
1131    0.0062229490642582907  0.071909619594795443  -0.026590043717781963
1132    -0.053483642426688155  0.11624069086298656  0.0060191649984333634
1133    0.0049707659910146126  0.088349014542607726  -0.025402523144809737
1134    0.0013404041448925002  0.092248203846177601  0.045777474445764965
1135    -0.0050468546866934026  0.097121240409548365  0.027047888890388658
1136    0.027930283255707528  0.046259969708393474  0.0054722388532585384
1137    -0.016131033898055244  0.072966357301621668  -0.032048630230921055
1138    -0.00078624110351101174  0.1236612569186871  0.023003205048742505
1139    0.026321315451242177  0.05611832279353101  -0.0049000204987437726
1140    0.031746586403093385  0.10502312200604927  0.02349950563932959
1141    -0.064195587385934935  0.089858059073147895  0.037206447591619576
1142    -0.017141211528595154  0.10924968825104638  -0.011569693767831913
1143    -0.0058292650760429637  0.056789971315632598  -0.02632555673363229
1144    0.022141938761022838  0.086843962655676274  -0.016970439203544203
1145    -0.05872799605702031  0.085938961370419106  -0.015483201925451232
1146    -0.016784649326620465  0.042172512885069131  -0.02240665518590236
1147    -0.075001101990543384  0.1387285181745341  0.039098143456911004
1148    0.0031022478525500742  0.097250369390160962  -0.01506515908963096
1149    -0.046574342836949695  0.069061906911356746  -0.0079751711444001096
1150    -0.068115969198400558  0.10711341092848027  0.032013602997051228
1151    0.036292141042400861  0.099538070453298946  0.012390203715769245
1152    -0.053154003568143336  0.12820923915909507  0.021071695155483842
1153    -0.082891111594544667  0.088791778432312313  0.014050067929247073
1154    0.030395716919431041  0.077699729029521686  0.036056339162209357
1155    -0.047339438031927437  0.044533860375253365  -2.3173883466758849e-05
1156    0.030037986311720395  0.080734140847117095  -0.013271919299171849
1157    0.035927953814893943  0.098463694617171332  0.024544163148972828
1158    0.013972052508128482  0.044577898089586288  -1.2504034621656198e-05
1159    0.032883955053437275  0.062858280833343452  0.033780794568767716
1160    0.030807168251370348  0.058347485647172063  0.022819266392891155
1161    -0.007269231392202217  0.088526369231833407  -0.0032493896456750535
1162    0.0092103466146710861  0.066883578194636556  -0.0025058288031756231
1163    0.014525051860934038  0.07753982793370065  0.04858533938748285
1164    -0.067007930414093198  0.080372640564744649  0.034532405872080695
1165    -0.054549315173046189  0.069825586951386936  -0.0020997408772264882
1166    0.038777695953323983  0.076428798329853845  0.0061119987540403852
1167    -0.055811235361722396  0.11552364464293832  -0.0048747100797190066
1168    -0.06563598468492246  0.1201183752106727  0.0021306361901544044
1169    -0.084327731686434301  0.12188515226248232  0.034574139585380616
1170    -0.028005869057625053  0.081611604328360551  -0.023761833793295752
1171    -0.019563661724413567  0.058164253633234748  0.031127728201940503
1172    -0.06687336239859823  0.14100589533948318  -0.00062698341276679515
1173    -0.037791691897693588  0.11697060481777742  0.0244681260537736
1174    -0.047247773785245036  0.11225044872972671  -0.010377274220294169
1175    0.023778810182529194  0.057368000749610321  -0.015490361585766032
1176    -0.003124907068521587  0.12049613384356679  -0.006032671241487023
1177    -0.068987317874274395  0.066914019005974476  0.016986366002853703
1178    -0.052500852346354474  0.097027184617870438  -0.015377889981286162
1179    -0.021874348370439039  0.046697138897029491  -0.018496072429805596
1180    -0.063209299873081548  0.147520874076045  0.01844038161366383
1181    -0.05574835480840349  0.12695099431026649  0.0015553850257169594
1182    -0.014669573966047083  0.058766680400413267  -0.028992859077479845
1183    -0.037518696659666756  0.066679545007164859  -0.0081185313331017511
1184    -0.034816924046522923  0.042817241072042642  0.025236684931623607
1185    0.034610132114714538  0.068908018882258879  -0.0070282094253174545
1186    0.020870840670871818  0.11294417360934654  0.029037785946418589
1187    -0.065474415668761082  0.11247700708362972  -0.0024689622083902841
1188    0.023476022481927854  0.04698065170064817  0.028599864172426003
1189    -0.045783146767204859  0.12233486676974011  0.017333235021210654
1190    -0.009560078641164536  0.065069711603375893  -0.031156547899526491
1191    -0.0020195131355786721  0.055204394728607796  0.047699675618894731
1192    -0.068773181535177128  0.15538713583845273  -0.017586052098955533
1193    0.0037871246359438178  0.052258702023537211  -0.023059230215474676
1194    0.0036042638627329674  0.044697194930741799  0.0089721907398744721
1195    -0.010496060954405702  0.12317287813329564  0.018726545577588648
1196    -0.07347463706119213  0.11107313454707164  0.0062743247215499781
1197    -0.064325802227841428  0.095739362797790037  -0.0095347954598555759
1198    -0.052872409725066377  0.070495104097213948  0.028404804192269609
1199    -0.0694285857143494  0.14972327799814214  0.0026993570998009361
1200    -0.071998008041100306  0.14736854614290543  0.024793643365638659
1201    -0.068045844584848469  0.12783035243847965  0.035178249225327043
1202    -0.013009366970983224  0.05006465067665767  -0.02489455433184485
1203    -0.040610364971278234  0.12202088797409383  0.0095094570357495811
1204    0.0019543221740515745  0.048889674201277225  -0.0035768266236522804
1205    0.033835515836805802  0.044748762753238011  0.016771714559086454
1206    0.0027961781473617459  0.079603200024295939  -0.030082471152880864
1207    0.0042936370619590988  0.075407744740145277  0.050901076642031959
1208    0.0069661764068173751  0.069431270943935419  0.026027979418594929
1209    -0.030564278562279917  0.074802013499708414  -0.014783460989018359
1210    -0.032024304262149875  0.097120118139432596  0.036353593120741989
1211    -0.052347390423481986  0.040192768493621807  0.036321922583564641
1212    -0.053989668604443083  0.093334097812511285  0.038313030689801165
1213    -0.030232897374138302  0.10720241797101271  -0.012157186400357085
1214    -0.019037294691382687  0.064179022241329681  0.041692248601840967
1215    -0.072900943993309944  0.070997976413442812  0.0064126770500499627
1216    -0.042257703431957928  0.078931763817825754  -0.01354397952270704
1217    0.012175301543778667  0.11970530884709527  0.026819759928637808
1218    -0.049453357706659901  0.053654866902219982  0.0047261305813091495
1219    0.024729648699121618  0.089068896848228274  0.038985179214943877
1220    0.0051344896381955206  0.062445861639254356  0.046708056136336086
1221    -0.0033165038987934639  0.041713609300323445  -0.018668693865112905
1222    -0.084360896572364563  0.13048004542440184  0.0054304271413086634
1223    -0.023510948170410235  0.089488914510808079  -0.02641078857308855
1224    0.022327429671910346  0.078961131263133214  0.042731246942950336
1225    0.037319274288700341  0.078207227501704862  0.028611949739334258
1226    -0.058642737626471347  0.10690637697543878  -0.011702509510433485
1227    -0.053150613337056243  0.064272141561130175  0.0083174066686690466
1228    -0.079069095881873497  0.13711750838347919  0.0059310004173906547
1229    -0.045448602120788988  0.083914940492322038  0.033351974142696326
1230    -0.040115779400179616  0.10667489221651184  -0.015159251044703724
1231    -0.0291682087651319  0.11233059864813519  0.028423746588177468
1232    -0.014698511838555089  0.044019268372855636  0.0098165977803719197
1233    0.018928894367110059  0.075256208890375223  -0.021302276753166247
1234    -0.052796483408853227  0.11213292852482927  -0.01236595818946519
1235    -0.052056050894111305  0.062705629269241392  0.017273240442010698
1236    -0.0051901567059569635  0.044434554653795075  0.013035282844634637
1237    -0.011488770183225722  0.094693746036987034  0.042970013513074355
1238    -0.030849591301375368  0.069041673932590253  0.032761482064042606
1239    -0.081503648237003581  0.11445095718459723  0.0091829451230387178
1240    -0.039594430434766861  0.054328547478421987  -0.0046315242621508528
1241    -0.01102531576696586  0.061463796175382557  0.048570963789500016
1242    0.038726146491351005  0.090942969311202007  0.0058531394797222674
1243    -0.043851662817469328  0.090113861035852158  -0.017377592011340679
1244    -0.025046016093469917  0.065288244353046129  -0.015729154853008218
1245    0.039059598366189691  0.092459653416037527  0.018591908178961027
1246    -0.079994290575121904  0.10063599308572589  0.0023209985970511038
1247    -0.023881497650932688  0.099872556404619992  0.038903296317116871
1248    -0.00049391447363076506  0.058769271725998308  0.0056173303184301211
1249    -0.024905639655943567  0.041644042502637472  0.045624073845681623
1250    0.027215439707988991  0.04051000200561606  0.013730543343149956
1251    -0.071995599308956479  0.11044758354887978  -0.0020893836160013196
1252    0.041709935712245724  0.065850232145385351  0.014600618237597092
1253    0.012230502538168497  0.05252671231199952  -0.021840136115622719
1254    -0.020536177323741189  0.086929817457621239  -0.016461613439838488
1255    -0.018657824436110592  0.075916383689295736  0.02572212456586976
1256    -0.013879742844554599  0.1170671292738675  0.00092501757287555937
1257    -0.026095585321256047  0.10569725405424173  0.035755248826720216
1258    -0.026122017009349619  0.060497494408070285  -0.0022171255666621256
1259    0.0036474731129356405  0.041429783687685219  0.019407720262327368
1260    -0.032568323235677432  0.041524256507566852  0.01437272213395421
1261    -0.020480432983912337  0.063333342596569198  -0.0262937939031113
1262    -0.0076879930048099447  0.093726329532546115  -0.020686234366279574
1263    -0.083987263016577995  0.12231981841799278  0.0038098607701166831
1264    -0.0075411945560921508  0.10507101594679946  -0.014847999423487216
1265    -0.021049154337746623  0.11250315398319352  0.032327202659105089
1266    -0.024134672263989073  0.045794531243720869  0.031802237473790823
1267    0.019589366027276491  0.11354977971196853  -0.0044245256696886842
1268    0.011141918273508186  0.064304862366687809  -0.025778194913160499
1269    -0.073186390490226808  0.11933783101776742  0.043005628223897946
1270    0.00097860427098602344  0.06082969427183052  -0.015563113009796698
1271    0.016569147588282877  0.042728439223305929  0.036642555847139879
1272    0.005441415494184235  0.11574521178170112  -0.011475571298251459
1273    -0.076116570008772394  0.14160543045443355  -8.0542062002930516e-05
1274    -0.074384751240224728  0.081615602956221736  0.00025559834841701638
1275    -0.075988463113517549  0.11622638041781692  0.032241646800047812
1276    0.016917695299748424  0.09931912942855671  0.040334989264375898
1277    0.029930066029209317  0.092626511003476408  -0.010265456206794784
1278    0.012191072572245739  0.082449330331422058  -0.023814754363354486
1279    0.048652898747316653  0.058196509863203572  0.0033562049135769222
1280    -0.010195918064048371  0.042893162055721426  -0.022333813302869335
1281    -0.079076437589234369  0.12710931206475248  -0.00061178523040541339
1282    -0.029504962743122424  0.068046730098400343  0.016112432660072385
1283    0.0036918016951573459  0.11384314172411548  0.030022561558372376
1284    -0.022914040047030838  0.047342886956755356  0.01984815249706429
1285    0.030366590853028824  0.11398748474178387  0.011710231967945475
1286    -0.049449014521331915  0.12800859490674527  0.010224126826725658
1287    -0.064702483395851759  0.099407912937793511  0.036507607328910258
1288    -0.044897821005822076  0.11105405206619721  0.01425238820743554
1289    -0.043858961805842596  0.046077398396728163  0.013811198533673722
1290    -0.054334656884629302  0.10234152506915367  -0.00713545682823883
1291    -0.0034593630900490624  0.1027858192511911  0.00070092315974958834
1292    -0.053975199296931162  0.07292155590579015  -0.012135396217765567
1293    -0.07021903564994994  0.088662288941850464  -0.010109117654209781
1294    -0.014759882187404962  0.057451124083362247  -0.018272748370580991
1295    -0.048974327036577621  0.10585690216909778  -0.014115726155445584
1296    -0.013414653052904979  0.084777836795743591  -0.033176691029885033
1297    -0.082849211187496663  0.12078375413813786  0.042976824416416017
1298    -0.035950314461690752  0.10568417054086629  0.031318560267575117
1299    -0.053071164320201161  0.11456062141401603  0.026392298642861203
1300    -0.043228448925441629  0.057326964624124975  0.01538079990209329
1301    0.01242342947799213  0.12481301632108667  0.0080279809002549267
1302    -0.03968330099099826  0.057905505716991358  0.033622028011013508
1303    -0.035886178747426369  0.047195501039054552  0.0051385209329334741
1304    -0.036608437437683994  0.12113882202733901  0.0013124490132481841
1305    -0.064487496969876892  0.11749150826348886  0.033860514878688262
1306    -0.040879019617520197  0.073787602435178359  0.035953938630672741
1307    -0.045902520913181692  0.080371420854803047  0.0014484224852226333
1308    -0.080298097092395979  0.093701525839927566  0.02707447441109467
1309    0.012539308983732365  0.093087953050969827  -0.02058941245790805
1310    -0.046822963704653213  0.15591030134330372  0.0018650281734620495
1311    0.0035879453363907359  0.040952777464561191  0.0040813707708193476
1312    -0.08457255209922937  0.13221368402418457  0.038438227247411173
1313    -0.074628662157050135  0.0792618277292748  0.026747250993793104
1314    0.033319745041794552  0.050417263523721507  -0.0025366458959555599
1315    -0.050869611350031374  0.076786297183134886  0.037693906119925777
1316    -0.031338981727303893  0.052631364007470566  0.029776792576997089
1317    -0.079425055628327412  0.10487079175379783  0.012379962877572596
1318    -0.03896464480879068  0.039049672363465467  0.033140698908095054
1319    -0.074419258193683918  0.11871031304996434  -0.00089260778502570309
1320    -0.028647278687702043  0.04472110495377795  0.039774690646905968
1321    0.014543093451894418  0.041568728200450197  0.012553925130590378
1322    -0.053798490539315888  0.13957586437295744  0.014061071573845098
1323    -0.03907914059862868  0.06461792629412004  0.035121782809354359
1324    -0.060202975238214385  0.06992471917455198  0.030026646935028767
1325    0.0073694322546535365  0.07131392830412181  0.045459218899584736
1326    -0.058895778073646855  0.065060849688883676  0.019119605407976185
1327    -0.038630357785231093  0.11544252872915588  -0.0067139190955862243
1328    0.034280557297622541  0.10784865600289438  0.014741506902780754
1329    -0.05859042359620964  0.11969281261170231  0.014491486916231176
1330    -0.073166303530728213  0.1043334332142781  -0.0041824695900322282
1331    -0.0316233887215355  0.12174922549068395  0.01005213657666105
1332    -0.068407800591400378  0.066877912798344694  0.0079339508346605581
1333    -0.052498471798952576  0.15425645823957457  0.0057107710740918914
1334    -0.044468449105275684  0.041191626604491535  0.021795695093506238
1335    -0.029216329447385399  0.11707156790796457  0.019115941132762927
1336    -0.068778539543399853  0.10230513177285594  0.0029535254596455202
1337    -0.031246699426010605  0.060697714916813576  0.025659431362650757
1338    -0.017218134860773997  0.040413719278992268  0.046631121356472058
1339    -0.045003833348297405  0.11286474978822289  0.0001966643840072178
1340    -0.031584038365143362  0.060005799645983578  0.033951494075257965
1341    -0.082011346848788372  0.099074975333798956  0.020799872800007644
1342    -0.013501542454143308  0.071477322819572822  -0.010131259200679789
1343    0.048038480629524281  0.056815305796712443  0.02330140975293795
1344    -0.022361213495189245  0.070895432215768939  0.038153328049717078
1345    -0.035454245220366297  0.10208414621840248  0.0026045991635073379
1346    -0.055334666829608456  0.040350489939879351  0.0018685854847681229
1347    -0.045861002090981019  0.12336234931346728  -0.00018700085149467549
1348    0.011198086537073619  0.084259442775735077  0.010128395464719827
1349    -0.052463191901861578  0.041741410328760428  0.011061019082965588
1350    -0.035386523378729523  0.047151479027379324  0.034462558526078352
1351    -0.013770551129051812  0.055429614113563355  0.043017929184424306
1352    0.00092953434988820368  0.063796390688009907  -0.028267909988378588
1353    -0.011752504262703044  0.044303652526027464  0.017261509864502703
1354    -0.019349624885554799  0.11697924263423673  -0.0084175619001296258
1355    -0.053181699475282042  0.039967215894589007  0.027625526366166317
1356    -0.032373305780623682  0.087132844149482414  -0.018310518937612517
1357    -0.063229786921185124  0.090611211144617065  0.0050559705028952288
1358    -0.025501951656544702  0.063740596555572362  0.03471176585617744
1359    -0.074012812752006912  0.08727725755984625  0.033291245686644599
1360    -0.081172422471175482  0.14286984296239985  0.029542745499599773
1361    -0.0077404175558195296  0.045675791599986713  -0.008718963394165339
1362    -0.081254453858018744  0.13893877524584053  0.038871059248965611
1363    -0.040850440717563642  0.093871471072901336  0.03675656572913772
1364    0.019422841258752859  0.12091276105626848  0.018970161279856627
1365    -0.084459805827696854  0.14487423277269756  0.015236154180777652
1366    -0.014568929493759819  0.047880262841020517  -6.1249533029635901e-05
1367    0.014450518137862705  0.11082123017241366  0.034897443686545522
1368    -0.07025427772127342  0.130344456655097  -0.0021456781561408574
1369    0.012793340052349514  0.1144450681899282  0.01449159519976616
1370    -0.067176844939752414  0.085420230512517473  0.024457684969762271
1371    0.00051738363243103468  0.047397059873624747  -0.01361636870205167
1372    -0.019444173452101716  0.11228394617806815  0.024029101908890613
1373    -0.063807642994238994  0.065587234727951998  0.02251635749582848
1374    0.038615696505478157  0.060546279085190197  0.026896339242007194
1375    -0.061318879558688193  0.0632949671689437  0.0076088544240972824
1376    -0.050998396833456021  0.14968625915603037  0.0053795849383672942
1377    -0.0089470085137087832  0.089925450336797733  0.050765814642548909
1378    -0.077111705473819639  0.15023079391896377  0.018739379995724333
1379    0.00039517861080432952  0.085883519346009032  0.052099499107073961
1380    -0.005214509574353203  0.078607786354084733  0.051232159825446599
1381    -0.065441542684048878  0.14911854136071162  0.029097856784395599
1382    -0.06817690139326063  0.14050750695350717  0.030898360451298793
1383    -0.072728709301946845  0.14486693006408027  0.035448708213277058
# Generated by /Users/zhenhan/Desktop/TetGen/tetgen -pq1.4/12YO9/7 bunny_2000f.off 
