OFF
1002 2000 0
0.004496002 0.1272405 0.02957932
-0.02302082 0.1115845 0.03889367
-0.03408881 0.1724631 -0.00130613
-0.04956392 0.1585837 0.008873538
-0.01584175 0.1145619 0.03886303
0.04129032 0.1011093 -0.0008870061
-0.04001787 0.1727221 -0.002021376
0.04160652 0.1026219 0.01615513
-0.01007335 0.1301356 0.01342053
-0.03066443 0.124841 0.0006568451
-0.01120316 0.0455021 0.04901026
0.04020435 0.09512666 -0.007490121
-0.03441538 0.1269069 0.004279564
-0.04526389 0.04124448 0.04392819
-0.04110251 0.04450398 0.04155847
-0.0180751 0.04495633 0.05182051
-0.04551369 0.1269656 0.02309235
-0.05022077 0.04807402 0.03934771
-0.02014483 0.0510215 0.04681108
-0.001776316 0.04314354 0.0466251
0.001214928 0.05016708 0.05228399
-0.02635444 0.1805451 -0.008309894
-0.06514743 0.1550104 -0.006699318
-0.06545655 0.1624968 -0.01831622
-0.07345579 0.1475075 0.04188359
0.002542422 0.1163965 0.03992774
-0.02558305 0.091831 -0.03259727
-0.008341176 0.1232139 0.03422804
-0.03620304 0.04750606 0.04042169
-0.02386346 0.05483175 0.04194098
-0.01618736 0.05380834 0.04996711
0.01886024 0.125081 0.02593726
-0.04130605 0.05301261 0.03934458
-0.00742271 0.0512082 0.05180223
0.04173862 0.0475622 0.0312307
-0.06938906 0.157839 -0.004331405
-0.05816063 0.1533483 0.02996103
-0.009225743 0.05833839 0.05414828
-0.04927456 0.1631677 0.005501023
-0.07642061 0.09701033 -0.01231274
-0.001372022 0.05583656 0.05423164
-3.672356e-05 0.1224172 0.03547697
0.0403247 0.1052314 0.00249267
0.0406915 0.1057663 0.01026786
-0.03390041 0.05516676 0.03796453
0.01338401 0.1300156 0.0119345
-0.03682027 0.05989726 0.04028934
0.007778935 0.1313914 0.0152568
-0.01547148 0.06066861 0.05258278
0.00669954 0.06059931 0.05478453
-0.0007554804 0.09555958 0.05426289
-0.02951612 0.0629032 0.0382005
-0.002583264 0.06418171 0.05654793
-0.003089292 0.1284715 0.02767177
-0.0503725 0.06689316 0.0370157
0.01587694 0.1287724 0.01761082
-0.01124924 0.0663865 0.05479926
0.02235496 0.1051196 -0.01717014
-0.07433439 0.1148266 -0.006654384
0.002485323 0.06910069 0.05605341
0.01142014 0.06537343 0.05343181
-0.01575984 0.06949088 0.05450501
-0.07718067 0.1770407 -0.04859019
0.009735902 0.1010897 -0.02171585
-0.009355363 0.1168541 0.03918889
-0.08924359 0.09752523 0.01781186
-0.02666156 0.06588638 0.04006966
-0.0123696 0.07365628 0.05618566
-0.02960855 0.08929443 -0.02949476
-0.08020452 0.1265256 0.05248916
-0.0418645 0.1289322 0.01196442
-0.06339778 0.0645511 0.0293819
-0.02916323 0.07483387 0.04155873
-0.005212927 0.07078653 0.05747555
0.03337214 0.1156316 0.02098045
0.04554447 0.08993255 0.01134639
-0.07479493 0.1559268 -0.002861763
-0.05046302 0.07630449 0.04304999
-0.04094585 0.07440965 0.04247711
-0.02012869 0.07799418 0.05544189
0.001219475 0.07470447 0.05745446
-0.004647715 0.1128479 0.04181579
-0.06426206 0.1552653 0.007234032
-0.03527511 0.0699533 0.04137249
-0.03200013 0.1783642 -0.006788646
0.03791563 0.1058737 -0.002065489
-0.068272 0.1585 -0.05298634
-0.05886907 0.1554196 0.02023097
-0.03844906 0.174476 -0.008561519
-0.0677504 0.08234538 0.04236242
-0.03281909 0.119026 0.02993164
0.03748244 0.1101454 0.003883853
-0.01014157 0.127593 0.02686189
-0.005191728 0.07984138 0.05789054
-0.04462814 0.08048148 0.04250162
-0.03559214 0.07977573 0.04238292
0.00476127 0.08006602 0.05624192
-0.01623413 0.1606851 -0.01077141
0.02339733 0.1243001 0.0217455
-0.0409806 0.167915 0.003012783
0.005914518 0.123044 -0.01090656
0.03813876 0.1086078 0.02082685
0.04299181 0.1003101 0.005806629
-0.01455615 0.08181595 0.05735014
0.00780662 0.08605712 0.05605485
0.009768487 0.1178811 0.03720614
-0.06777018 0.1604923 -0.01100768
-0.07091779 0.1660664 -0.01895536
-0.06101774 0.08211399 0.04371424
-0.004249911 0.1310395 0.01157379
-0.07510137 0.1237929 0.0529221
-0.005753891 0.08791331 0.05690244
0.001265866 0.0857087 0.05714123
0.01771276 0.08722113 0.05044456
-0.05107301 0.0827431 0.04490566
-0.07223663 0.1558868 -0.03835918
-0.0586119 0.0891062 0.044914
0.02305468 0.08911497 0.04808139
-0.03224349 0.08824671 0.04333007
-0.02754455 0.08780865 0.04747278
0.02293608 0.1253786 0.01499768
-0.01722842 0.08825496 0.05635108
-0.05468713 0.09074565 0.0451503
-0.04961632 0.09173639 0.0441567
-0.03984843 0.08732292 0.04321131
-0.06327386 0.09764448 0.04296421
-0.04522428 0.09477906 0.04327217
-0.01177535 0.09272571 0.05565833
-0.007551814 0.0955487 0.05449118
-0.02323223 0.1171523 0.03406096
-0.07615845 0.1406558 0.04769649
-0.03657036 0.09665191 0.04332485
0.003439881 0.09465542 0.05384798
0.02069213 0.09319432 0.04757974
-0.0667593 0.09331544 0.04301737
0.008921426 0.0992978 0.04816022
0.01582061 0.1001949 0.04714529
-0.03090778 0.09896488 0.0438234
0.05438728 0.06405161 0.0270419
-0.02707808 0.09535992 0.04472296
-0.06447898 0.1670113 -0.05956523
-0.07590291 0.07054095 0.02549386
0.0449628 0.08767347 0.02083681
-0.04872788 0.09233137 -0.02175165
-0.09000484 0.1219499 0.004336619
0.001252372 0.1017221 0.04503662
0.02842368 0.1209142 0.0194386
-0.02245305 0.1267218 0.00716339
-0.05247386 0.09995841 0.04255945
-0.04048403 0.1002875 0.04148164
-0.01093835 0.1013247 0.0440665
0.0009753857 0.1313464 0.01725599
-0.06785892 0.1053526 0.03903391
-0.0625062 0.1491519 -0.0057414
-0.06590538 0.154261 0.001008301
-0.05970485 0.1009503 0.04243463
-0.02145681 0.1011465 0.04380442
0.009121416 0.1057017 0.04287857
-0.03572161 0.1058825 0.03915478
-0.01155925 0.1076278 0.04305306
-0.03854308 0.1173769 0.03183112
-0.06128848 0.1105984 0.037269
-0.05762461 0.1062962 0.04030666
-0.04835957 0.1035062 0.04110194
-0.02880682 0.1056874 0.04072781
-0.01925568 0.1073299 0.04185836
0.01952574 0.1061419 0.04171674
0.00271113 0.1098562 0.04219824
-0.04363453 0.1105402 0.03754516
-0.03017429 0.1118681 0.03621287
0.01017529 0.1113338 0.0398194
0.01878888 0.1111242 0.03836603
0.0147859 0.1280967 0.02335647
-0.05127488 0.1093974 0.03819252
-0.04267426 0.09264795 -0.0226962
-0.06336113 0.08413676 -0.01917179
0.02900884 0.1181595 0.02672715
-0.01404007 0.03709 0.0507514
0.01996952 0.03945785 0.04193315
0.005495394 0.04278459 0.04566018
-0.02402904 0.03936689 0.05407116
0.02345706 0.1211387 0.02909652
0.01125573 0.04219543 0.04477501
0.01677441 0.04517118 0.04346667
0.02449628 0.04244208 0.03874583
0.0304977 0.04244608 0.02990382
-0.02924527 0.1641485 -0.005641215
-0.06655442 0.1226488 0.05083804
0.02540076 0.11517 0.03331145
-0.03115307 0.1710047 -0.00581227
0.04600748 0.04483247 0.02527097
-0.04899255 0.1492043 0.0107555
0.03216071 0.1055112 0.03417647
0.02878914 0.04765524 0.03605819
0.03429816 0.04920816 0.03176052
0.05122691 0.05046756 0.02634699
0.01765572 0.05199408 0.04634758
0.02143999 0.04844762 0.04132468
-0.05692294 0.1181084 0.03815574
0.05789976 0.05359663 0.01912975
-0.03040963 0.1586205 0.001336429
-0.05175938 0.1328022 0.03102513
0.009540439 0.05022927 0.05022602
-0.05288105 0.1440331 0.02144238
0.04697701 0.05411356 0.03148556
0.05399375 0.05528179 0.02706564
-0.05793035 0.04792333 0.03733085
0.04068117 0.09266194 0.03001577
-0.04756607 0.1553832 0.009154977
0.02702353 0.05403256 0.04039506
0.03049972 0.111925 0.03194094
-0.03940662 0.1574153 0.004914717
0.01619724 0.05782653 0.04947865
0.02375222 0.05945008 0.04559886
0.03466101 0.05725209 0.03618439
-0.0282729 0.1727887 -0.008299636
-0.06057518 0.1368074 0.03576238
0.04136127 0.05875108 0.03116182
-0.06849365 0.1418719 0.04447885
0.02942915 0.06098165 0.04190632
-0.05500829 0.14117 0.02943209
0.03432384 0.06176534 0.03883785
0.02156966 0.06496871 0.04724408
0.0390111 0.06486589 0.03355006
-0.00527818 0.09964307 0.04934854
-0.04371991 0.150028 0.006574341
0.03447976 0.09586762 0.03789544
0.04733448 0.06311373 0.02944589
-0.00293992 0.1055532 0.04392616
0.02986528 0.06558301 0.04194508
0.01718331 0.1211447 0.03291795
-0.05417839 0.1164112 0.03520688
0.01832493 0.07234286 0.05126514
0.02543921 0.06876384 0.04457041
-0.06645036 0.1117138 0.03984766
0.03844213 0.06827665 0.03481258
-0.03406143 0.1648604 -0.003370752
0.02737319 0.1025424 0.03989291
-0.03787554 0.1624015 0.0002044981
0.03446473 0.06748259 0.03894644
-0.07185532 0.1350833 0.04935875
0.01718796 0.1151368 0.03690182
0.01602203 0.06783894 0.05166744
0.04051359 0.07172306 0.03169958
0.0444304 0.0687956 0.02618112
-0.04581496 0.1158412 0.03284257
0.02246982 0.07182373 0.04863094
0.03189865 0.07067909 0.04071555
0.04259178 0.07605602 0.02835331
0.025805 0.109802 0.03704972
0.03729771 0.07248794 0.03621908
0.04193316 0.09898225 0.02278429
0.02789316 0.07541914 0.04490921
-0.07185733 0.1290893 0.05154223
0.008943798 0.07414802 0.05572441
0.02875234 0.08208141 0.04482238
0.03819596 0.07751918 0.03557588
0.03788655 0.09878682 0.0315128
-0.0585027 0.1468775 0.03378654
-0.01711554 0.1656504 -0.01197344
-0.06443627 0.1286381 0.04471173
0.009807198 0.1236028 0.03360537
0.04319132 0.09309279 0.02467393
0.01251713 0.07810446 0.05448474
0.03461555 0.08043616 0.03999692
-0.04936879 0.143018 0.008932829
-0.02096656 0.180703 -0.01442714
-0.06348831 0.1667606 -0.03964004
-0.06018783 0.1270367 0.04084158
-0.08001102 0.1180004 0.04945791
0.01711095 0.07939642 0.05299971
0.02211481 0.08012547 0.05015956
-0.05055616 0.1224329 0.03306289
-0.02525023 0.1590405 -0.001613611
-0.05520792 0.127785 0.03728253
0.04392213 0.08397399 0.02588744
-0.0187672 0.1614614 -0.006323119
0.02224917 0.1011821 0.04419527
-0.0155988 0.1716918 -0.01729903
-0.06302598 0.1191202 0.04521778
0.03297379 0.08840978 0.04151641
0.04185481 0.08407564 0.02998432
-0.04302736 0.1614702 0.005248676
-0.01555105 0.1825506 -0.02087035
-0.05379179 0.1540167 0.01360015
0.03478491 0.110279 0.02762644
0.01297858 0.08685257 0.0533151
-0.06521805 0.1362694 0.04124275
0.03852261 0.08666007 0.03506677
0.02762012 0.09332165 0.04417625
0.01009526 0.09238799 0.05281812
-0.0237262 0.1677229 -0.01090613
-0.02242956 0.1753504 -0.01360975
0.04403099 0.09626722 0.01631704
-0.01512097 0.1771696 -0.02000018
-0.0701251 0.1473104 -0.02878888
0.02035951 0.03975142 -0.01279651
0.02116171 0.03660949 0.03519634
0.04321732 0.04042373 0.005776605
-0.01111993 0.1667734 -0.01798765
0.05359775 0.04679289 0.01285248
-0.01070129 0.1765373 -0.02891376
0.05131001 0.04615875 0.005126151
-0.06176386 0.1562683 -0.03014632
-0.01026591 0.1704798 -0.02410008
-0.03653908 0.1526251 0.00195831
0.05629108 0.05158355 0.005112888
0.02167416 0.04823003 -0.02149276
-0.08719688 0.1128783 0.02564703
0.05858271 0.05398772 0.01018973
0.02714347 0.04820458 -0.01692469
0.03093343 0.05245157 -0.01328665
-0.05053233 0.1348691 0.02648849
-0.07925512 0.1019268 -0.007816833
0.03526851 0.05703408 -0.01064408
0.04374162 0.08881261 -0.003528206
0.02660873 0.053967 -0.02075015
-0.08214324 0.1398332 -0.00058057
-0.0702485 0.06368529 0.02049077
0.05984887 0.06087447 0.0191226
-0.04829985 0.1342785 0.02167078
0.03981958 0.0598579 -0.005283968
0.02566529 0.06092871 -0.02354763
-0.06247342 0.1677482 -0.04824168
-0.06223626 0.1579002 -0.0364227
0.06061072 0.06082219 0.0100165
0.03545164 0.06305933 -0.01427513
-0.09430406 0.12194 0.02120884
-0.06160221 0.156039 -0.02369654
-0.06342964 0.1729513 -0.05154384
0.05891834 0.06537872 0.02161448
0.0581583 0.05971133 0.003187705
0.02878944 0.0588311 -0.01951443
0.06051791 0.0671092 0.01307629
0.04502279 0.09391248 0.006011231
0.03043903 0.08444709 -0.02023882
-0.08784993 0.1042811 0.01216426
-0.04573332 0.1459471 0.0007827068
-0.08160018 0.1088129 0.02943032
0.02713026 0.1189276 -0.003062309
-0.06281661 0.1603369 -0.0443115
0.04322012 0.09542402 -0.0002196553
0.03056695 0.07465299 -0.02072626
0.02739812 0.06595383 -0.02137321
0.04056946 0.06690098 -0.007729327
-0.06245712 0.1530632 -0.0132629
-0.06438464 0.1642148 -0.02491683
0.03928302 0.07377864 -0.01044071
0.03518245 0.06900237 -0.01562029
-0.04038818 0.1209196 -0.01197646
-0.06288767 0.1741615 -0.06032073
0.04369121 0.07191104 -0.0014906
-0.06159288 0.1681673 -0.0567431
-0.06079434 0.06253173 0.02674044
0.03396651 0.07554983 -0.01659828
-0.0489387 0.1381479 0.01516646
-0.05405356 0.1245738 -0.007453359
0.03990524 0.1036632 0.02355911
0.0355822 0.08188406 -0.01683648
-0.08714639 0.1097701 0.01240746
0.04576115 0.08357007 0.01700171
0.04028645 0.08466614 -0.01149964
-0.02879677 0.1799766 -0.01367987
-0.08563475 0.1028286 0.00249799
-0.06276176 0.1577634 -0.01734822
0.04630641 0.07970334 0.009225439
0.04517861 0.08315945 0.002083161
0.04275082 0.07978182 -0.004965715
-0.09049889 0.1395371 0.01586943
-0.08719695 0.1527848 0.01580495
-0.06589898 0.1789184 -0.05762107
-0.08610788 0.1215052 -0.002141683
-0.06987703 0.178972 -0.05248745
-0.07554279 0.1556734 0.02359263
-0.01084836 0.1799563 -0.0263335
-0.07189425 0.1780179 -0.04766914
-0.07142229 0.152315 0.03524043
-0.07968478 0.1535859 0.02884433
-0.07332285 0.1618121 -0.01142494
-0.0806049 0.1551028 0.01893779
-0.06676966 0.1562971 0.01858232
0.03520871 0.09780564 -0.01227067
-0.06526441 0.1718559 -0.04569094
-0.02750667 0.1258569 0.01049935
-0.05382417 0.1510433 0.02376377
-0.01491625 0.1844075 -0.02588395
-0.08861414 0.1367584 0.007795225
-0.06387891 0.1522979 0.03492895
0.003886192 0.1307516 0.02183784
-0.03844179 0.1241228 0.02450926
-0.08464264 0.1494039 0.03283818
-0.05215768 0.1477713 0.0178005
-0.092525 0.1234662 0.03160899
-0.07016261 0.1555975 0.02670612
-0.01533914 0.1230684 0.03159631
-0.08907943 0.09649295 0.01013312
-0.0715673 0.1745214 -0.04198303
-0.08547441 0.1084352 0.006365409
-0.07034991 0.1716143 -0.03506894
-0.04156779 0.128814 0.00642877
-0.06506608 0.1468049 0.03909584
-0.01244727 0.1290661 0.02001986
-0.0450885 0.1229459 0.02662963
-0.08065902 0.1540052 0.008159496
-0.09105167 0.1336522 0.01206153
-0.0919985 0.1176675 0.02703432
-0.05910832 0.1558987 0.01155528
0.03116577 0.1176642 0.002155034
-0.09259623 0.1188062 0.01013378
-0.09193559 0.1145027 0.01700657
0.05817205 0.07066596 0.01737417
0.05370376 0.07297202 0.009740576
-0.03441628 0.1246063 0.02224131
-0.02781868 0.1206939 0.02738511
-0.02730322 0.1248797 0.01878341
-0.04715816 0.1338957 0.008443895
-0.03434367 0.1272711 0.01075043
-0.03884468 0.1269187 0.0179299
-0.04514637 0.130772 0.01727241
0.02225359 0.1148681 -0.01203446
-0.06534934 0.1551378 0.02822889
-0.02191399 0.1839151 -0.01282458
0.03522421 0.1138625 0.007804529
-0.03393826 0.1267088 0.01555559
0.02669032 0.1216333 0.003442121
-0.07277461 0.155615 0.006579978
-0.06414816 0.1661105 -0.03249847
-0.08199554 0.0987514 -0.006050882
0.009107902 0.1291883 0.025357
-0.0917298 0.1299626 0.02933683
-0.06847444 0.1560759 0.01228025
-0.007432881 0.1302653 0.01940233
0.05371352 0.07220561 0.02004848
0.04603541 0.07337505 0.02196563
0.04735864 0.07466926 0.01430881
0.03601671 0.1127748 0.01437067
0.03107458 0.1188605 0.009484219
0.009318826 0.1308563 0.00664124
0.003397271 0.1302394 0.000910473
-0.07456479 0.1069551 -0.00960311
-0.08790106 0.1286886 0.001271319
-0.07062552 0.1692097 -0.0263982
0.02380857 0.124759 0.009270936
-0.08583932 0.1065871 0.02090848
-0.0207177 0.1241916 0.02540911
0.02947171 0.1203891 0.01381091
-0.09146445 0.1283636 0.008170102
-0.01872905 0.1280038 0.01400664
-0.07622692 0.1558143 0.01310203
0.01809852 0.1279914 0.01063338
0.0008113013 0.1312027 0.006111862
-0.07138679 0.03488054 0.005783933
-0.06019352 0.03919195 0.01998769
-0.06330746 0.04229131 0.03984608
-0.03519627 0.04233078 0.04622805
-0.03098104 0.03696812 0.05120106
-0.08833464 0.09592187 0.02321394
-0.02864928 0.04494499 0.05049121
-0.07895077 0.09525306 0.03538319
-0.03784157 0.03730535 0.0438056
-0.0731403 0.08251053 0.03926995
-0.07063586 0.04084934 0.006037502
-0.0676523 0.03761839 0.01257827
-0.06287972 0.04338136 0.01273931
-0.0703564 0.09708743 0.04142317
-0.05478399 0.04248906 0.04546154
-0.08018522 0.1429017 0.04451165
-0.06462947 0.04607488 0.005642681
-0.08220805 0.08214568 0.03038185
-0.08843771 0.1378608 0.03995516
-0.07512938 0.1075668 0.03778046
-0.05511736 0.04445 0.01630914
-0.02943459 0.04828818 0.04605443
-0.09302192 0.121099 0.03681751
-0.02401727 0.0856921 0.05351158
-0.02122732 0.09492627 0.04919859
-0.07835869 0.1646189 -0.0283526
-0.05650988 0.04924823 0.008826784
-0.02541069 0.07502 0.04772884
-0.07297537 0.08721368 0.04062357
-0.08960624 0.1277416 0.04383966
-0.05187559 0.05346875 0.01311363
-0.05107887 0.05045259 0.02029193
-0.04900816 0.05285965 0.0354068
-0.07763394 0.08866853 0.03743296
-0.02869796 0.05346902 0.03795251
-0.02677192 0.08164022 0.0501602
-0.08223819 0.09085486 0.03201683
-0.01399759 0.09829218 0.04877764
-0.0897801 0.1444749 0.02923081
-0.07816195 0.149593 0.0379616
-0.06871507 0.07489283 0.03802694
-0.08100812 0.1320135 0.05155407
-0.03419849 0.08795118 -0.02462112
-0.04578213 0.06029713 0.03837678
-0.04076629 0.06330118 0.04120181
-0.06021521 0.09348624 -0.01974649
-0.0637517 0.1614626 -0.05597638
-0.08647669 0.1189703 0.04795737
-0.04415162 0.1702189 -0.005971608
-0.06582115 0.1188888 -0.008978167
-0.05067904 0.05791722 0.03171919
-0.07928603 0.1112129 -0.003008464
-0.07460873 0.09496174 0.0393725
-0.07904588 0.1669511 -0.03464502
-0.06709169 0.08883165 0.04376316
-0.084125 0.1144713 0.0001433107
-0.02136065 0.0608092 0.04613695
-0.08838571 0.1333167 0.0430155
-0.08387131 0.1376163 0.04634182
-0.08491546 0.0896175 0.02844491
-0.07550218 0.07769953 0.03488989
-0.0468318 0.1528829 -0.0060899
-0.07605766 0.1696422 -0.0305376
-0.07617009 0.1646363 -0.02051862
-0.09159894 0.1208332 0.04359796
-0.07439473 0.128289 -0.008227365
-0.01943215 0.0653035 0.05085949
-0.08362045 0.09774915 0.0302279
-0.01899633 0.1706116 -0.0213706
0.01529439 0.1113822 -0.01713903
-0.06750081 0.09065437 -0.01737915
-0.07362448 0.08792518 -0.01535542
-0.07471909 0.1010076 0.03732729
-0.02428606 0.06833779 0.04507082
-0.08296993 0.102379 0.02923882
-0.02863358 0.08161449 0.04589896
-0.0560509 0.05614669 0.008698945
-0.0856205 0.1444906 0.03786677
-0.0861669 0.1296263 0.04828394
-0.02161854 0.07031034 0.05078823
-0.007723816 0.1212597 -0.0122396
-0.07028723 0.1664351 -0.04950194
-0.07330557 0.164186 -0.03952629
-0.04561704 0.03716537 -0.01968682
-0.09113803 0.1296071 0.03624242
-0.02450086 0.09750057 -0.02498786
-0.07456495 0.1508259 -0.02550627
-0.0627012 0.0414607 0.02572812
-0.06065633 0.04620192 0.0312019
-0.09346334 0.1272078 0.01456294
-0.09361277 0.1288892 0.02110717
-0.04178062 0.04534971 -0.01693321
-0.03431924 0.1123643 -0.01775694
-0.06439877 0.04413539 -0.001654681
-0.03996572 0.04850573 -0.01225674
-0.07568536 0.1500423 -0.01528817
-0.05359157 0.04590449 0.02241075
-0.08686147 0.1370988 0.003706249
0.02763077 0.09274395 -0.02059286
-0.08258698 0.1076122 -0.000751641
-0.09129843 0.1444508 0.01691215
-0.07390449 0.1687556 -0.04461381
-0.0574548 0.05020269 0.001324075
-0.05300371 0.0498544 0.02912423
-0.07910224 0.1483288 -0.001940697
-0.0913952 0.1474615 0.02246732
-0.02950103 0.05047747 -0.02202679
-0.03070298 0.0512614 -0.01618421
-0.05569422 0.05406922 -0.002612618
-0.0519492 0.05557756 0.02353163
-0.05201941 0.0545535 -0.007662538
-0.07174572 0.1502662 -0.04054389
-0.02286755 0.1830487 -0.01873585
-0.02686504 0.05557217 -0.02634481
-0.03301612 0.05467476 -0.01167282
-0.09020047 0.1359336 0.02316462
-0.07103769 0.1734889 -0.05283685
-0.05825794 0.06061174 -0.002607898
-0.02772971 0.1656099 -0.0167085
-0.03993842 0.03901338 -0.02756753
-0.03291017 0.09558569 -0.02356466
-0.054651 0.09392659 -0.02185843
-0.08685707 0.1431274 0.008442677
-0.07706024 0.1567437 -0.01111163
-0.05337028 0.1206089 -0.01139235
-0.03092364 0.05909322 -0.01861683
-0.08027385 0.07387587 0.02085539
-0.05622405 0.1591789 0.006177229
-0.07601415 0.157279 -0.02242564
-0.08956304 0.1373643 0.03239992
-0.0303354 0.06521362 -0.02529131
-0.06441022 0.06460983 -0.005396841
-0.08032105 0.1215273 -0.005259028
-0.08383399 0.1459729 0.004031654
-0.0734259 0.06764929 0.0002090892
-0.05131591 0.1642967 -0.0007821249
-0.06809454 0.1675914 -0.05474749
-0.07736844 0.1717273 -0.03891314
-0.07671855 0.07067943 0.0008512764
-0.04132081 0.0881606 -0.02236538
-0.02700806 0.06891211 -0.03328198
-0.0879485 0.149734 0.009805316
-0.07754013 0.1571167 -0.01754139
-0.03252819 0.06877344 -0.02138522
-0.07782332 0.0754407 -0.006534747
-0.07400114 0.1593614 -0.03112207
-0.03158141 0.07369103 -0.02933222
-0.08175601 0.08021105 -0.003524101
-0.07688426 0.1398099 -0.005559632
0.02603058 0.1167589 -0.00712601
-0.07237496 0.1492978 -0.03440427
-0.08492953 0.08013347 0.005504745
-0.03401078 0.07577993 -0.02417292
-0.01815272 0.1865041 -0.0199949
-0.03228489 0.08212313 -0.02950505
-0.02529869 0.1126363 -0.01733972
0.003493229 0.1160388 -0.01821977
-0.07567062 0.08016308 -0.01131533
-0.0867937 0.08347053 0.01362616
-0.02945801 0.08060811 -0.03469666
-0.0862256 0.08617267 0.0006861763
-0.08514368 0.08125256 0.02068609
-0.08657991 0.1520481 0.02431016
-0.03573649 0.0797102 -0.02161037
-0.07087885 0.157461 -0.0451672
-0.0104939 0.1022004 -0.02403367
-0.08048077 0.08903305 -0.008647781
-0.08915908 0.08917597 0.01112203
-0.08380429 0.1287373 -0.003544719
-0.09070295 0.1417504 0.02315525
-0.08807975 0.08859449 0.0217617
-0.08508629 0.09592224 -0.002070429
-0.08761614 0.09369871 0.004760547
-0.08082969 0.1509786 0.002031331
-0.07606221 0.1475057 -0.007762931
-0.08769041 0.1143538 0.004194542
0.05794079 0.06607561 0.003992077
-0.01105067 0.1159815 -0.01625283
-0.004301604 0.1161944 -0.0164075
-0.03121798 0.1720793 -0.01640965
-0.009951419 0.09495322 -0.03339941
-0.02803616 0.1179043 -0.01284809
0.001598252 0.1200967 -0.01374795
-0.002881881 0.1025677 -0.02298397
-0.003084781 0.09626187 -0.03116629
-0.01410226 0.1111544 -0.01961262
-0.05955704 0.1544112 0.0009325321
0.03293601 0.1094392 -0.007966173
-0.06549023 0.0388028 -0.006870555
0.04703713 0.07402998 0.00665927
-0.03002882 0.1218215 -0.007177454
-0.04856915 0.1232708 -0.01032872
0.01254341 0.1164491 -0.0155858
0.00859627 0.1103589 -0.01957052
0.00898686 0.1260524 -0.006358173
-0.004878964 0.1258604 -0.007809914
-0.04365065 0.1114988 -0.01744473
0.01103361 0.09530436 -0.02638401
-0.006373466 0.1109423 -0.0211976
-0.02349821 0.121406 -0.008603916
0.03662995 0.103745 -0.008062124
0.002860494 0.0985038 -0.02535498
-0.03611091 0.1171449 -0.01373911
-0.05960687 0.1459096 -0.00260176
-0.03776611 0.04508182 -0.02433229
-0.03721375 0.1240685 -0.007546134
0.02027203 0.121888 -0.005665271
0.0337721 0.1127371 -0.002375678
0.007005585 0.09072421 -0.03216466
-0.01640457 0.09781676 -0.02665084
0.0001489832 0.1111769 -0.02019348
0.01518607 0.1064364 -0.0185182
-0.006078458 0.09003542 -0.03599158
0.01339972 0.126174 -0.003871041
0.04953016 0.06859907 0.001758459
0.05804417 0.07028623 0.008406785
-0.01873693 0.09377085 -0.03388455
-0.01151685 0.1225023 -0.009611013
-0.05431759 0.1386622 -0.002021992
-0.06235139 0.1408824 -0.006574795
0.02933483 0.102896 -0.01536747
-0.06496937 0.1135327 -0.01200286
-0.01489608 0.1284162 0.004981376
-0.009657556 0.1296599 0.005381947
0.02955843 0.09711156 -0.01730175
-0.04910909 0.0375981 -0.01231438
0.01405375 0.08758025 -0.02983719
-0.04454077 0.1167864 -0.01521077
0.01429552 0.1219228 -0.009958654
-0.0520306 0.1306964 -0.003638306
-0.0481209 0.1319301 0.002008987
0.01643368 0.1278118 0.002697959
0.03664963 0.09116662 -0.01425588
0.02153176 0.09910697 -0.02144171
-0.01630086 0.1043332 -0.02267019
0.0442333 0.06445695 -0.001749441
0.01547949 0.1006619 -0.02212399
0.02656649 0.1087667 -0.01333287
0.05370352 0.06263889 -0.001331314
-0.01445488 0.0909513 -0.03668369
-0.02263762 0.1251429 -6.965726e-05
0.010151 0.1289957 -0.0003445053
-0.04958582 0.113694 -0.0166374
-0.04451232 0.1259882 -0.007052755
-0.0397625 0.1274289 -0.001010829
-0.00346012 0.1289746 -0.001502493
0.02093383 0.124859 0.0009707922
-0.01821518 0.1165534 -0.01544975
0.01970354 0.08953509 -0.02557079
-0.01907755 0.1199428 -0.0107978
-0.01675672 0.1249049 -0.003957628
-0.009156361 0.1275476 -0.003325091
0.001902864 0.1275111 -0.004581268
-0.03841474 0.09992205 -0.02181547
-0.01396509 0.03419193 -0.02368782
-0.02609834 0.03529304 -0.02841851
-0.002344461 0.03789936 -0.02473504
-0.0203774 0.03653905 -0.02795257
-0.007191928 0.04028 -0.02567516
-0.0140199 0.04000154 -0.02690483
-0.03341484 0.03446103 -0.02977116
-0.06392122 0.0345717 -0.007807861
0.009940268 0.03893449 -0.02319388
-0.03193719 0.04314065 -0.02900441
-0.05528082 0.03954174 -0.01018758
0.03297585 0.03920292 -0.001556612
-0.02514815 0.04533559 -0.02777327
0.04022776 0.04329666 -0.002344794
0.01681452 0.0453557 -0.02344527
-0.01831457 0.04579473 -0.02826712
0.004669231 0.1057993 -0.02092389
0.03264351 0.04722452 -0.00647063
-0.06284381 0.03465455 0.02403114
0.003253755 0.04222998 -0.02449289
-0.003160155 0.04734014 -0.02972736
-0.009062548 0.0478003 -0.03030779
-0.01215341 0.04472766 -0.02770506
0.02600452 0.04323532 -0.007100271
-0.04515048 0.09927527 -0.02168651
-0.048117 0.1040247 -0.02061854
-0.05527049 0.1134456 -0.01619828
-0.04515454 0.162644 -0.008866834
-0.04946335 0.04534011 -0.009473312
-0.05790722 0.1007125 -0.01933178
0.0463993 0.04914619 -0.004277894
-0.06547818 0.1007391 -0.01663292
0.00104586 0.05356065 -0.0308613
0.005673486 0.05033058 -0.02954224
-0.008583295 0.05305768 -0.03289317
-0.05804112 0.04478133 -0.005788658
-0.05215905 0.156847 -0.004088154
0.01016668 0.04786314 -0.02680466
-0.01761294 0.05201458 -0.03159645
-0.04554027 0.05263879 -0.01035693
0.0371058 0.0505901 -0.00661925
0.02097795 0.05455325 -0.02665695
-0.03677209 0.1571466 -0.01107314
-0.06988429 0.1249306 -0.0088573
0.01579794 0.05567872 -0.02855959
-0.01786174 0.0570826 -0.0339485
-0.07330428 0.1213653 -0.0081242
-0.0091396 0.03397592 -0.02045338
-0.0006904969 0.05970201 -0.03333243
-0.02569094 0.06008312 -0.03040304
-0.07082537 0.09582405 -0.01559946
0.05364194 0.05374808 -0.0008994045
-0.01349296 0.06146927 -0.03620732
0.04338366 0.05547739 -0.006129353
-0.00715944 0.06030004 -0.03462286
-0.06570029 0.1327631 -0.008371085
-0.02379524 0.1617238 -0.01462001
-0.04113552 0.05680348 -0.0114986
0.04998068 0.05922337 -0.004455719
0.01973766 0.06132261 -0.02717366
0.007991895 0.06570431 -0.0317701
0.004548666 0.05930989 -0.03165144
-0.062417 0.105608 -0.01704057
-0.01538191 0.1748777 -0.0256494
-0.02329033 0.1060824 -0.02252487
-0.03520674 0.1627865 -0.01405744
-0.0310217 0.1056897 -0.02119709
-0.04918379 0.0606803 -0.01140844
-0.054334 0.1076536 -0.01846926
0.01104306 0.06060223 -0.03007247
-0.03426315 0.06179072 -0.01345566
-0.04049084 0.06301941 -0.0133713
-0.07670987 0.1113677 0.04607919
-0.01946121 0.06380507 -0.03614103
0.00419516 0.06591599 -0.03315307
-0.05349582 0.06564332 -0.01073499
-0.02330421 0.1686108 -0.01907323
-0.02067198 0.1786874 -0.0225285
-0.002539554 0.06705326 -0.03464542
-0.01478337 0.06906253 -0.03810988
-0.04400842 0.06826573 -0.01611836
-0.03725315 0.1689125 -0.01325716
-0.00759099 0.06943804 -0.03619251
-0.06973103 0.1045144 -0.01341205
-0.05933339 0.1337979 -0.006685117
0.001649851 0.07279669 -0.0350285
-0.02044469 0.07131648 -0.03840199
-0.05784034 0.06705974 -0.01106359
-0.07998691 0.1327215 -0.004524515
-0.06131137 0.1250379 -0.008310332
0.01224883 0.07062374 -0.03150693
-0.02636887 0.07781915 -0.03687432
-0.05679188 0.07435661 -0.01781908
-0.08039294 0.07141037 0.01433694
0.0232382 0.06970493 -0.02620898
0.0188746 0.06893038 -0.02880115
-0.02249732 0.08320884 -0.03818909
-0.04941907 0.07068927 -0.01505612
-0.07130854 0.06948196 -0.005066973
-0.02511675 0.1765729 -0.01950807
-0.01444506 0.1808687 -0.02760352
0.0269447 0.07239194 -0.02388054
0.004770156 0.07895914 -0.03443088
-0.03683453 0.06979141 -0.01657446
-0.06312606 0.07356475 -0.01636609
-0.06922639 0.07521114 -0.01428919
0.01625173 0.07592748 -0.02910505
0.007329875 0.0738279 -0.03392018
-0.03947289 0.1062943 -0.02017532
-0.04037011 0.07496306 -0.01819071
-0.04718207 0.07524831 -0.01762827
0.0104731 0.08184871 -0.03181826
-0.004143947 0.07650356 -0.03684878
-0.008776766 0.0757504 -0.03771082
-0.01472911 0.07759577 -0.038702
-0.04435788 0.07972824 -0.01972849
0.02591344 0.08418723 -0.02346173
0.01945147 0.0803975 -0.02767693
0.0009659515 0.08142361 -0.03550567
-0.04898057 0.07954732 -0.01988497
-0.05246161 0.08490137 -0.02167512
-0.05380339 0.07723235 -0.01933801
-0.007108326 0.08420262 -0.0378271
-0.06960865 0.08271656 -0.01709408
0.004756291 0.08503994 -0.03366993
-0.01933245 0.08850188 -0.03756472
-0.0478172 0.08522394 -0.02166883
-0.0574935 0.08447088 -0.02105835
-0.01659253 0.08409843 -0.0390603
-0.03959779 0.08287415 -0.02095698
-0.07024829 0.1119994 -0.009823859
-0.0592554 0.1180086 -0.01156348
-0.0004948805 0.08816858 -0.03526509
0.005450787 0.03411703 -0.01843067
0.01444731 0.03528217 -0.01809428
0.00155065 0.03488513 -0.02317892
-0.03197183 0.03398536 -0.02136749
-0.002450909 0.03554494 -0.01655064
-0.02133836 0.0347544 -0.020034
0.006087433 0.03764074 -0.01042911
-0.04376488 0.03473536 -0.02471157
-0.04011626 0.03360446 -0.01904807
-0.004858179 0.03912078 -0.0107906
-0.01475939 0.03833669 -0.01585359
-0.0380334 0.03647032 -0.01166877
0.01908912 0.03525991 -0.00382114
-0.03158676 0.03808115 -0.01625084
-0.00928183 0.03877175 -0.01414876
-0.02842127 0.03839862 -0.007168457
0.01182604 0.03433753 -0.00565802
0.01735881 0.03449688 0.0025017
-0.02191127 0.03866739 -0.0145314
-0.003463723 0.03903277 -0.004605017
0.003853256 0.03709778 -0.002289635
0.007946714 0.03552537 0.0040846
-0.044116 0.03356091 -0.008827619
-0.01209817 0.03878041 -0.00553874
0.02688968 0.03659102 -0.0002094889
-0.05666146 0.03393204 -0.009796238
-0.0703022 0.1121606 0.04708196
0.03012984 0.03511737 0.00704162
0.03678972 0.03779232 0.004252239
-0.05116955 0.03342968 -0.007624508
-0.01877042 0.03846048 -0.00291633
-0.002217199 0.03798469 0.004756288
-0.07589679 0.06778806 0.0175684
-0.06042948 0.03338675 -0.000817159
-0.03516592 0.03862057 -0.00356857
-0.06566781 0.03344586 0.00154339
-0.05404634 0.03350784 0.0001503355
-0.02693159 0.03831086 0.0008562341
0.02192498 0.03577231 0.008582851
-0.04663833 0.03359084 0.0001690601
-0.04066561 0.03333279 0.001231692
-0.01250002 0.03848081 0.003755116
0.003407454 0.0338332 0.01318646
0.02787403 0.03471976 0.01362085
-0.07018811 0.03627722 -0.001584234
-0.01915711 0.03825043 0.00802501
-0.002312958 0.03695318 0.01213742
0.02128703 0.03524081 0.02274587
0.03917938 0.03818541 0.0137835
-0.03635668 0.03321756 0.008121792
0.0474775 0.04227864 0.01307531
-0.05843143 0.03352048 0.006771451
-0.02655215 0.03843148 0.0077185
-0.009291679 0.03848364 0.009193316
0.02814744 0.03620963 0.02152689
0.03407027 0.03708441 0.01857598
-0.04804196 0.03535063 0.00827305
-0.04096097 0.0358094 0.008701446
-0.03128034 0.03362423 0.01622116
-0.008420549 0.03837362 0.01603287
0.002870059 0.03636732 0.02200884
0.01168308 0.03456028 0.02071784
0.05186415 0.04619565 0.01970746
-0.05155182 0.03372521 0.007982645
-0.02314852 0.03828178 0.01412959
-0.00175692 0.03732759 0.01845594
0.04132429 0.04035819 0.02036227
-0.05683788 0.03359856 0.01477431
-0.06564881 0.03390971 0.01016928
-0.03497469 0.03494007 0.01713395
-0.01425613 0.03825651 0.01616467
0.007548824 0.03588239 0.02550629
0.01579719 0.03473414 0.02700003
0.02606238 0.04091099 0.0336857
0.03748205 0.04126335 0.02643371
-0.06363864 0.03574166 0.01578543
-0.0346338 0.034164 0.02378326
-0.07144527 0.07028148 0.03160134
0.01104298 0.03576565 0.03215545
-0.06047631 0.07543244 0.04161572
-0.03744657 0.03454026 0.02676727
-0.01648513 0.03831094 0.02320656
-0.007906937 0.03850156 0.02326542
-0.08266097 0.1100718 0.03792511
-0.05371677 0.03314393 0.02163175
-0.04086381 0.03403938 0.02776145
-0.02779691 0.03786673 0.02393388
-0.00283343 0.03889058 0.02886355
0.0148592 0.03474787 0.03790684
-0.05695529 0.06490018 0.03307983
-0.04740307 0.03419812 0.02926035
-0.04384601 0.03450675 0.03212905
-0.0218372 0.03853773 0.03067668
0.003982303 0.03972567 0.03154421
0.006048885 0.03481707 0.03775782
-0.04525989 0.07046294 0.04129945
-0.07782529 0.1062959 0.03394521
-0.06748639 0.06269881 0.001069737
-0.05828921 0.03400041 0.02385513
-0.03426394 0.03461185 0.02937237
-0.01728523 0.03887169 0.03398834
0.009547292 0.03468537 0.04200133
-0.006413231 0.03499992 0.04102426
0.0148465 0.03662624 0.0435914
-0.06522381 0.06222349 0.02308524
-0.06412262 0.06015598 0.005941822
-0.05847191 0.05828945 0.004288936
-0.08399521 0.1125237 0.04478109
-0.05182122 0.0344274 0.03061833
-0.02833601 0.03921327 0.03354235
-0.01162375 0.03881755 0.03143649
-0.004838903 0.03954512 0.0360848
-0.0631596 0.070316 0.0369183
-0.06038741 0.05826443 0.01375498
-0.05694939 0.03440681 0.03360649
-0.03985342 0.03461853 0.03948254
-0.001495887 0.03486612 0.04488214
0.005269245 0.03510117 0.04380352
-0.08065117 0.07755094 0.02770057
-0.06587716 0.03888211 0.03041957
-0.03546988 0.03428939 0.03634299
-0.04501822 0.03457339 0.03751671
-0.0204078 0.03943843 0.03912132
-0.01288962 0.03921845 0.0393013
-0.01235087 0.03440661 0.04533869
-0.06995252 0.06177017 0.01011265
-0.02410371 0.03435203 0.04704265
-0.01779296 0.03432537 0.04735954
-0.07350209 0.1172922 0.05254673
-0.07374932 0.06535341 0.006698162
-0.05787962 0.05916287 0.02126158
-0.03068356 0.03441335 0.0441985
-0.08311628 0.07606987 0.01271485
-0.07508813 0.06671084 0.0126928
-0.06412071 0.03466447 0.0348088
-0.05378829 0.03464298 0.04190425
-0.05550061 0.06072939 0.02583182
-0.08047877 0.07221801 0.006670246
-0.06839561 0.06106771 0.01508563
-0.06513998 0.03732749 0.0389335
-0.04834865 0.03586277 0.04491265
-0.006567401 0.03777267 0.04828245
-0.06899177 0.0662061 0.02718905
-0.05526171 0.06930602 0.03811012
-0.09035698 0.1137986 0.03788198
-0.06299924 0.05963539 0.0176069
-0.05910973 0.03590087 0.04430645
-0.01919579 0.03719014 0.05239045
-0.03970674 0.1505989 -0.004803938
-0.05360483 0.1480684 -0.002078675
-0.01756255 0.1637746 -0.01689302
-0.06349725 0.1462359 -0.0138049
-0.0651602 0.1533018 -0.04058958
-0.06306355 0.1490406 -0.01999233
-0.06561625 0.1552466 -0.04870333
-0.02961003 0.1564589 -0.009939279
-0.07088951 0.137848 -0.007562721
-0.02323364 0.1572054 -0.007499011
-0.0702118 0.1429133 -0.01157153
-0.06526146 0.1506387 -0.03441534
-0.07055775 0.1446972 -0.0182761
-0.05058382 0.1416848 0.002561168
-0.06408402 0.1489528 -0.02637929
-0.02902828 0.1545342 -0.004608964
3 674 673 8
3 573 592 584
3 65 456 443
3 372 329 370
3 401 444 92
3 541 566 404
3 147 447 673
3 284 406 87
3 87 420 36
3 674 450 696
3 674 109 450
3 8 401 431
3 109 674 8
3 444 414 413
3 92 394 27
3 540 404 446
3 172 47 428
3 431 92 53
3 375 62 396
3 448 379 373
3 0 41 261
3 240 218 130
3 308 405 409
3 269 110 69
3 388 151 53
3 107 441 514
3 450 47 437
3 558 545 565
3 970 975 798
3 404 386 446
3 253 492 69
3 240 130 492
3 404 566 368
3 618 65 395
3 447 383 414
3 24 466 130
3 833 690 827
3 541 540 327
3 565 762 775
3 69 110 253
3 253 240 492
3 351 367 366
3 438 437 692
3 202 49 20
3 378 107 514
3 786 732 499
3 63 648 652
3 479 134 503
3 336 65 443
3 53 27 41
3 446 386 440
3 966 187 110
3 187 253 110
3 130 218 24
3 366 334 75
3 380 373 393
3 479 505 134
3 994 670 760
3 151 109 431
3 388 53 0
3 601 562 990
3 907 896 914
3 990 992 340
3 473 405 982
3 34 217 194
3 147 673 691
3 609 618 602
3 692 437 682
3 134 125 464
3 125 152 464
3 93 112 111
3 93 96 112
3 102 42 43
3 304 768 301
3 291 215 186
3 414 412 413
3 412 90 413
3 151 431 53
3 89 108 505
3 145 167 228
3 292 21 215
3 571 771 536
3 794 789 356
3 116 134 505
3 116 125 134
3 155 152 125
3 132 290 135
3 467 477 553
3 155 161 152
3 155 162 161
3 241 230 105
3 426 398 441
3 116 505 108
3 49 40 20
3 81 41 64
3 116 122 125
3 122 155 125
3 33 20 40
3 147 383 447
3 80 96 93
3 135 157 145
3 25 105 41
3 166 170 157
3 52 49 59
3 157 167 145
3 553 527 944
3 562 615 992
3 17 206 465
3 519 304 988
3 605 493 68
3 173 161 162
3 173 231 161
3 59 73 52
3 114 108 917
3 108 114 116
3 114 122 116
3 122 148 155
3 40 49 52
3 40 52 37
3 179 202 20
3 49 60 59
3 706 714 717
3 155 148 162
3 136 166 157
3 994 793 599
3 506 583 502
3 77 114 917
3 122 123 148
3 148 163 162
3 163 173 162
3 991 364 345
3 583 516 751
3 133 277 136
3 350 370 329
3 382 396 267
3 556 551 620
3 126 148 123
3 512 986 337
3 254 80 59
3 578 3 38
3 465 13 17
3 447 414 444
3 114 123 122
3 173 245 231
3 34 204 217
3 126 163 148
3 924 937 914
3 19 179 20
3 450 437 438
3 425 403 448
3 670 996 989
3 227 138 244
3 263 96 254
3 112 104 132
3 988 781 519
3 109 8 431
3 450 109 151
3 933 94 77
3 94 114 77
3 173 168 245
3 374 301 805
3 384 258 220
3 112 132 50
3 3 282 38
3 14 17 13
3 543 813 647
3 354 342 335
3 354 335 358
3 94 124 114
3 114 124 123
3 306 331 309
3 47 450 151
3 933 78 94
3 124 126 123
3 149 163 126
3 163 168 173
3 170 171 241
3 612 609 970
3 32 17 14
3 47 151 388
3 163 149 168
3 160 402 245
3 282 99 38
3 987 999 669
3 494 32 495
3 495 78 933
3 95 94 78
3 94 95 124
3 149 158 168
3 168 160 245
3 14 28 32
3 46 495 32
3 59 80 73
3 102 43 7
3 618 611 602
3 495 83 78
3 124 131 126
3 131 149 126
3 168 158 160
3 111 112 50
3 8 673 447
3 44 46 32
3 756 331 306
3 630 786 88
3 95 78 83
3 80 93 73
3 50 224 128
3 238 99 282
3 99 2 6
3 28 44 32
3 83 495 46
3 158 169 160
3 987 512 337
3 95 118 124
3 124 118 131
3 158 149 131
3 169 90 160
3 431 401 92
3 51 83 46
3 2 84 6
3 72 95 83
3 137 158 131
3 164 169 158
3 302 756 306
3 59 60 254
3 386 573 548
3 44 51 46
3 118 137 131
3 111 50 128
3 66 83 51
3 66 72 83
3 95 526 118
3 118 139 137
3 136 157 135
3 41 27 64
3 305 1001 200
3 485 51 44
3 95 72 526
3 526 119 118
3 119 139 118
3 164 158 137
3 102 293 334
3 350 352 140
3 379 613 377
3 169 129 90
3 90 129 413
3 367 315 366
3 19 20 33
3 25 41 81
3 267 398 426
3 22 35 154
3 139 164 137
3 998 989 996
3 139 156 164
3 167 25 81
3 159 228 81
3 408 540 144
3 47 388 428
3 1 169 164
3 266 421 21
3 457 18 472
3 472 18 29
3 172 55 47
3 1 164 156
3 1 129 169
3 15 457 180
3 388 0 428
3 437 47 45
3 444 413 129
3 348 354 347
3 62 588 396
3 165 1 156
3 15 18 457
3 145 132 135
3 993 770 569
3 0 53 41
3 103 121 474
3 4 1 165
3 129 394 444
3 133 136 290
3 228 167 81
3 848 868 856
3 4 129 1
3 166 171 170
3 540 446 144
3 437 45 682
3 121 127 475
3 33 40 37
3 15 10 18
3 708 710 705
3 159 4 165
3 394 129 4
3 104 290 132
3 325 627 333
3 61 67 79
3 67 103 79
3 10 30 18
3 302 300 888
3 298 302 888
3 159 165 150
3 254 96 80
3 103 111 121
3 167 170 25
3 166 249 171
3 30 37 48
3 64 394 4
3 30 33 37
3 47 55 45
3 61 56 67
3 111 127 121
3 64 4 159
3 27 394 64
3 261 41 105
3 10 33 30
3 48 37 56
3 67 93 103
3 93 111 103
3 334 341 102
3 104 112 96
3 52 56 37
3 56 73 67
3 81 64 159
3 73 56 52
3 73 93 67
3 654 670 153
3 979 19 10
3 19 33 10
3 111 128 127
3 843 705 848
3 1001 993 995
3 814 614 808
3 106 107 378
3 205 138 227
3 294 283 266
3 303 328 1000
3 883 890 875
3 333 627 666
3 512 747 986
3 212 242 60
3 182 202 179
3 208 282 3
3 180 455 964
3 279 187 864
3 152 161 234
3 253 260 240
3 433 434 360
3 199 205 195
3 253 187 260
3 192 257 285
3 240 287 218
3 223 221 214
3 235 239 221
3 223 235 221
3 260 287 240
3 191 391 355
3 243 256 250
3 279 260 187
3 291 292 215
3 264 288 280
3 366 75 365
3 260 268 287
3 415 999 265
3 166 237 249
3 287 400 218
3 43 435 101
3 273 186 200
3 989 998 991
3 209 196 197
3 279 268 260
3 268 216 287
3 215 21 84
3 216 400 287
3 263 286 104
3 161 198 234
3 198 279 234
3 279 198 268
3 233 252 246
3 188 241 171
3 400 216 258
3 242 222 232
3 230 261 105
3 198 274 268
3 274 216 268
3 181 230 241
3 183 197 196
3 246 252 271
3 188 181 241
3 246 271 232
3 13 465 978
3 319 138 205
3 510 612 468
3 220 258 216
3 182 941 183
3 987 337 999
3 231 274 198
3 274 201 216
3 97 259 276
3 5 42 102
3 3 284 208
3 270 271 113
3 201 220 216
3 276 995 97
3 254 242 263
3 283 604 266
3 272 274 231
3 563 782 804
3 225 337 305
3 117 113 271
3 194 214 193
3 988 304 299
3 166 136 277
3 196 213 212
3 278 292 291
3 272 201 274
3 705 843 708
3 189 2 236
3 222 212 213
3 288 226 280
3 299 278 259
3 222 246 232
3 259 278 291
3 196 212 202
3 900 199 195
3 391 203 355
3 289 237 277
3 292 278 294
3 272 402 201
3 204 205 227
3 275 281 248
3 102 341 5
3 193 197 184
3 145 228 224
3 227 244 223
3 264 255 252
3 271 255 117
3 270 113 286
3 997 990 324
3 49 202 212
3 539 547 538
3 226 207 257
3 197 193 209
3 259 291 276
3 402 16 201
3 201 16 312
3 104 286 290
3 209 213 196
3 192 249 237
3 281 288 256
3 239 235 250
3 278 304 294
3 265 191 355
3 243 250 235
3 197 183 178
3 213 233 222
3 113 117 133
3 217 223 214
3 402 272 245
3 247 256 264
3 319 330 138
3 212 222 242
3 214 194 217
3 219 233 213
3 433 248 244
3 60 242 254
3 366 365 640
3 215 84 189
3 236 186 189
3 452 547 471
3 995 276 273
3 365 360 434
3 200 186 236
3 805 385 374
3 135 290 136
3 271 270 232
3 319 205 199
3 237 226 192
3 229 247 233
3 284 391 191
3 192 285 210
3 336 443 359
3 250 247 239
3 280 226 289
3 208 284 191
3 113 290 286
3 244 248 243
3 331 627 325
3 331 325 309
3 577 612 970
3 227 223 217
3 355 415 265
3 6 88 499
3 985 15 180
3 273 291 186
3 288 207 226
3 113 133 290
3 226 257 192
3 294 266 292
3 193 214 209
3 415 681 999
3 192 210 249
3 204 227 217
3 985 177 15
3 195 205 204
3 270 286 263
3 214 219 209
3 306 309 300
3 249 188 171
3 477 527 553
3 255 280 289
3 182 183 202
3 225 191 265
3 189 84 2
3 202 183 196
3 194 193 185
3 264 280 255
3 497 140 352
3 214 221 219
3 225 208 191
3 275 248 433
3 177 10 15
3 195 34 190
3 195 204 34
3 911 193 184
3 255 289 117
3 185 193 911
3 289 133 117
3 761 988 97
3 105 170 241
3 247 252 233
3 941 178 183
3 256 288 264
3 285 357 101
3 225 211 208
3 211 282 208
3 219 221 229
3 221 239 229
3 264 252 247
3 294 374 283
3 229 239 247
3 184 197 178
3 277 237 166
3 577 956 612
3 233 246 222
3 305 211 225
3 780 792 797
3 232 263 242
3 210 188 249
3 266 604 421
3 96 263 104
3 288 281 207
3 248 281 256
3 747 993 986
3 238 282 211
3 215 189 186
3 248 256 243
3 219 229 233
3 300 309 199
3 223 243 235
3 244 243 223
3 178 297 184
3 368 573 386
3 170 105 25
3 232 270 263
3 289 226 237
3 11 5 341
3 586 38 99
3 209 219 213
3 586 99 499
3 11 651 5
3 255 271 252
3 276 291 273
3 714 570 655
3 372 62 375
3 99 236 2
3 159 150 228
3 305 200 211
3 200 238 211
3 200 236 238
3 979 954 19
3 257 357 285
3 224 228 150
3 651 638 85
3 1001 273 200
3 277 133 289
3 157 170 167
3 250 256 247
3 718 302 298
3 510 456 621
3 621 65 618
3 924 947 937
3 456 65 621
3 735 756 302
3 405 327 409
3 65 336 395
3 301 374 304
3 303 346 328
3 806 342 343
3 912 185 892
3 626 359 408
3 324 426 303
3 358 335 683
3 556 613 369
3 834 493 614
3 231 198 161
3 762 776 775
3 493 590 571
3 328 364 991
3 294 304 374
3 937 918 914
3 303 997 324
3 408 327 540
3 573 551 592
3 515 480 473
3 311 314 745
3 328 23 364
3 770 630 569
3 902 924 896
3 326 314 332
3 397 359 626
3 322 332 316
3 324 267 426
3 358 361 347
3 482 481 471
3 311 722 728
3 336 363 395
3 332 314 311
3 405 473 392
3 338 308 443
3 547 482 471
3 409 327 408
3 340 267 324
3 49 212 60
3 304 278 299
3 473 480 535
3 540 541 404
3 515 473 982
3 551 369 592
3 307 310 296
3 989 345 153
3 340 324 990
3 299 259 97
3 612 621 609
3 752 707 842
3 626 408 144
3 1000 295 997
3 337 986 305
3 443 308 409
3 231 245 272
3 580 528 489
3 781 988 761
3 297 911 184
3 589 967 975
3 970 609 602
3 361 683 11
3 322 316 746
3 348 347 344
3 953 459 13
3 340 323 267
3 342 354 348
3 336 397 363
3 986 993 1001
3 629 628 531
3 323 382 267
3 771 704 813
3 296 728 850
3 344 347 351
3 761 97 995
3 326 348 344
3 395 623 618
3 808 603 594
3 556 369 551
3 343 348 326
3 343 342 348
3 429 580 566
3 306 300 302
3 361 11 315
3 395 363 623
3 316 332 311
3 323 329 382
3 332 322 343
3 838 713 839
3 281 262 207
3 680 669 681
3 316 311 310
3 839 719 296
3 361 315 367
3 251 257 207
3 326 344 321
3 384 220 203
3 262 281 275
3 262 251 207
3 992 497 340
3 350 329 352
3 340 497 323
3 477 471 481
3 142 262 275
3 334 293 75
3 663 827 690
3 314 326 321
3 347 361 367
3 719 307 296
3 609 621 618
3 735 302 718
3 203 220 312
3 320 203 312
3 497 352 323
3 310 311 728
3 912 34 194
3 310 728 296
3 293 251 262
3 315 11 341
3 366 315 334
3 689 331 756
3 344 351 686
3 937 958 923
3 360 142 275
3 142 293 262
3 325 333 319
3 590 493 834
3 989 991 345
3 203 391 384
3 7 357 251
3 691 650 641
3 674 696 702
3 358 683 361
3 717 714 557
3 355 203 320
3 303 426 346
3 293 7 251
3 199 309 319
3 900 300 199
3 347 367 351
3 75 293 142
3 43 101 7
3 75 360 365
3 354 358 347
3 352 329 323
3 590 174 571
3 319 333 330
3 333 410 330
3 75 142 360
3 101 357 7
3 334 315 341
3 309 325 319
3 102 7 293
3 76 624 425
3 403 369 379
3 448 403 379
3 386 548 440
3 387 376 400
3 376 24 400
3 364 106 345
3 346 23 328
3 283 385 604
3 359 397 336
3 23 106 364
3 411 410 666
3 411 432 410
3 432 433 138
3 138 433 244
3 404 368 386
3 106 378 35
3 378 76 35
3 624 76 555
3 601 990 997
3 434 432 411
3 432 434 433
3 26 801 610
3 403 425 624
3 957 539 538
3 92 444 394
3 406 284 3
3 369 613 379
3 434 411 640
3 383 423 414
3 473 535 392
3 443 409 359
3 640 365 434
3 8 447 401
3 425 82 154
3 389 16 402
3 695 12 9
3 588 513 398
3 417 16 389
3 106 22 345
3 417 70 418
3 399 416 12
3 399 70 416
3 373 379 377
3 993 761 995
3 412 417 389
3 538 547 452
3 956 511 468
3 416 70 423
3 70 417 423
3 666 410 333
3 355 320 418
3 84 88 6
3 35 76 154
3 377 490 376
3 393 377 376
3 448 380 430
3 380 393 420
3 448 373 380
3 35 22 106
3 406 380 87
3 380 420 87
3 620 368 566
3 389 402 160
3 430 380 406
3 577 970 798
3 423 417 412
3 416 383 12
3 70 415 418
3 620 551 368
3 592 369 403
3 418 16 417
3 154 76 425
3 958 459 953
3 396 588 398
3 236 99 238
3 489 556 620
3 377 390 490
3 401 447 444
3 418 320 16
3 42 91 43
3 416 423 383
3 9 383 147
3 448 430 425
3 107 23 346
3 138 330 432
3 9 147 691
3 420 393 376
3 372 375 382
3 23 107 106
3 91 422 43
3 578 406 3
3 101 74 285
3 578 82 406
3 435 74 101
3 415 355 418
3 412 389 90
3 82 430 406
3 375 396 382
3 284 87 384
3 176 285 74
3 176 210 285
3 176 188 210
3 578 637 82
3 425 430 82
3 387 420 376
3 435 445 74
3 376 490 24
3 91 658 422
3 422 436 435
3 398 513 441
3 389 160 90
3 372 382 329
3 36 420 387
3 436 445 435
3 445 146 74
3 74 146 176
3 181 188 176
3 12 383 9
3 658 407 422
3 267 396 398
3 423 412 414
3 284 384 391
3 98 176 146
3 695 399 12
3 128 488 127
3 422 407 436
3 98 181 176
3 145 50 132
3 87 36 384
3 258 36 387
3 373 377 393
3 424 436 407
3 436 442 445
3 445 120 146
3 120 98 146
3 554 482 547
3 436 424 442
3 181 31 230
3 181 98 31
3 441 346 426
3 145 224 50
3 445 442 120
3 399 415 70
3 43 422 435
3 592 403 584
3 16 320 312
3 27 53 92
3 261 230 31
3 6 499 99
3 362 84 21
3 91 85 658
3 611 618 623
3 424 697 442
3 98 55 31
3 345 22 153
3 374 385 283
3 584 403 624
3 441 513 514
3 449 120 442
3 120 55 98
3 449 55 120
3 172 31 55
3 31 172 261
3 224 488 128
3 441 107 346
3 449 442 697
3 172 428 261
3 682 449 697
3 428 0 261
3 30 48 507
3 970 602 975
3 400 258 387
3 359 409 408
3 45 449 682
3 45 55 449
3 545 762 565
3 454 28 14
3 507 48 517
3 933 77 54
3 563 421 604
3 29 507 66
3 935 582 568
3 454 472 28
3 457 472 454
3 522 39 755
3 997 303 1000
3 998 295 1000
3 478 79 486
3 513 588 504
3 883 875 868
3 61 530 517
3 295 537 601
3 483 32 494
3 514 513 476
3 89 505 479
3 474 121 475
3 421 563 362
3 30 507 18
3 912 892 893
3 378 514 593
3 378 593 574
3 637 153 154
3 89 460 491
3 89 479 460
3 488 475 127
3 478 526 72
3 776 808 775
3 453 984 465
3 501 494 54
3 24 490 466
3 68 493 571
3 454 14 459
3 48 56 61
3 507 517 524
3 18 507 29
3 269 69 498
3 51 29 66
3 966 110 269
3 485 29 51
3 384 36 258
3 781 630 804
3 614 814 834
3 770 732 786
3 150 488 224
3 464 152 523
3 72 524 478
3 521 755 736
3 933 494 495
3 69 492 529
3 460 484 511
3 481 560 968
3 503 464 523
3 475 139 119
3 461 882 451
3 13 459 14
3 501 974 560
3 509 466 528
3 978 465 973
3 459 455 454
3 69 529 498
3 130 466 509
3 924 914 896
3 509 469 508
3 460 511 491
3 974 968 560
3 488 150 156
3 66 507 524
3 529 508 480
3 529 480 498
3 529 492 509
3 517 530 524
3 474 119 486
3 456 525 443
3 503 484 479
3 489 613 556
3 574 76 378
3 973 465 984
3 906 462 451
3 451 462 461
3 462 467 461
3 483 494 501
3 251 357 257
3 927 974 501
3 484 503 458
3 528 466 490
3 465 206 453
3 79 474 486
3 44 28 485
3 462 463 467
3 488 156 475
3 828 521 175
3 612 510 621
3 510 518 456
3 518 525 456
3 526 486 119
3 529 509 508
3 390 613 489
3 478 486 526
3 913 463 462
3 457 454 455
3 524 530 478
3 474 475 119
3 478 530 79
3 455 180 457
3 487 518 510
3 472 29 485
3 220 201 312
3 571 174 704
3 330 410 432
3 266 21 292
3 61 517 48
3 769 536 771
3 469 509 528
3 463 477 467
3 22 154 153
3 523 470 934
3 458 503 523
3 711 570 714
3 479 484 460
3 747 770 993
3 66 524 72
3 472 485 28
3 139 475 156
3 463 471 477
3 957 538 723
3 458 518 487
3 458 525 518
3 934 338 525
3 883 902 890
3 508 469 535
3 32 483 17
3 723 452 913
3 452 463 913
3 39 313 439
3 468 487 510
3 452 471 463
3 477 481 527
3 179 955 182
3 468 484 487
3 484 458 487
3 458 523 525
3 523 934 525
3 813 543 771
3 786 630 770
3 371 440 619
3 511 484 468
3 498 480 515
3 84 362 630
3 390 528 490
3 316 307 746
3 571 704 771
3 88 786 499
3 628 649 636
3 616 634 635
3 482 554 560
3 645 679 100
3 587 140 497
3 567 372 370
3 86 587 497
3 532 567 587
3 372 567 62
3 86 532 587
3 992 615 86
3 390 489 528
3 615 532 86
3 532 552 567
3 567 552 62
3 554 206 483
3 545 558 542
3 615 552 532
3 552 588 62
3 615 533 552
3 377 613 390
3 115 533 615
3 533 588 552
3 533 504 588
3 533 596 504
3 643 520 644
3 702 646 668
3 115 596 533
3 673 702 701
3 68 26 610
3 667 830 26
3 601 115 562
3 601 596 115
3 596 476 504
3 591 597 796
3 796 597 610
3 597 605 610
3 68 610 605
3 468 612 956
3 504 476 513
3 754 581 591
3 581 597 591
3 597 603 605
3 537 596 601
3 392 535 429
3 614 493 605
3 579 476 596
3 539 206 554
3 450 438 696
3 564 581 754
3 581 594 597
3 594 603 597
3 603 614 605
3 443 525 338
3 580 469 528
3 641 650 632
3 537 579 596
3 837 663 635
3 534 570 845
3 534 655 570
3 520 688 662
3 579 514 476
3 501 560 554
3 702 668 701
3 576 564 557
3 564 576 581
3 576 594 581
3 541 429 566
3 546 579 537
3 580 620 566
3 620 580 489
3 144 446 440
3 563 604 782
3 542 655 534
3 542 557 655
3 558 576 557
3 998 546 537
3 569 761 993
3 558 557 542
3 576 775 594
3 775 808 594
3 546 593 579
3 453 539 957
3 953 959 929
3 558 565 576
3 392 327 405
3 362 563 804
3 676 542 534
3 429 541 327
3 392 429 327
3 998 996 546
3 185 912 194
3 565 775 576
3 899 898 880
3 368 551 573
3 676 733 542
3 733 545 542
3 676 863 715
3 546 574 593
3 810 608 828
3 639 882 544
3 653 656 641
3 996 625 546
3 165 156 150
3 57 687 662
3 918 937 923
3 608 598 617
3 617 427 39
3 427 313 39
3 134 464 503
3 84 630 88
3 339 657 697
3 679 643 100
3 546 625 574
3 659 837 635
3 625 76 574
3 579 593 514
3 690 830 667
3 715 740 733
3 599 625 996
3 539 554 547
3 438 692 703
3 740 559 561
3 622 427 617
3 502 58 439
3 685 769 636
3 9 656 695
3 599 555 625
3 740 639 544
3 561 559 568
3 649 628 629
3 721 634 661
3 586 499 732
3 803 589 595
3 598 611 617
3 550 502 313
3 555 76 625
3 553 740 544
3 553 559 740
3 595 589 598
3 550 313 427
3 682 664 692
3 317 555 599
3 535 480 508
3 598 608 595
3 582 935 803
3 803 585 589
3 611 622 617
3 622 363 427
3 535 580 429
3 553 944 559
3 944 568 559
3 935 585 803
3 363 550 427
3 793 619 548
3 598 602 611
3 611 623 622
3 506 502 550
3 843 848 856
3 144 440 371
3 584 555 317
3 461 544 882
3 461 467 544
3 589 975 598
3 506 626 371
3 440 548 619
3 868 853 856
3 21 421 362
3 467 553 544
3 617 522 608
3 397 550 363
3 371 626 144
3 548 573 317
3 573 584 317
3 624 555 584
3 453 206 539
3 975 602 598
3 623 363 622
3 397 506 550
3 898 925 903
3 397 626 506
3 339 697 424
3 321 344 686
3 687 63 662
3 909 898 899
3 701 650 691
3 629 661 649
3 721 661 644
3 685 616 660
3 366 640 351
3 13 978 953
3 57 671 684
3 688 671 57
3 651 11 381
3 679 419 643
3 600 688 419
3 57 684 687
3 652 659 635
3 692 664 645
3 11 683 381
3 696 646 702
3 683 335 549
3 651 381 671
3 339 600 657
3 607 629 633
3 411 666 665
3 699 687 684
3 684 675 549
3 671 675 684
3 305 986 1001
3 714 706 711
3 675 683 549
3 648 699 677
3 657 419 679
3 686 758 321
3 697 657 664
3 646 703 100
3 85 5 651
3 658 339 407
3 958 953 929
3 627 331 689
3 640 665 351
3 638 671 688
3 697 664 682
3 665 686 351
3 63 652 721
3 549 821 699
3 606 771 543
3 763 758 686
3 991 1000 328
3 654 153 637
3 648 659 652
3 703 645 100
3 616 635 631
3 698 636 606
3 691 673 701
3 688 57 662
3 638 688 600
3 987 654 637
3 813 730 647
3 635 663 631
3 335 342 821
3 628 636 698
3 653 641 632
3 958 929 923
3 669 670 654
3 646 531 668
3 536 660 667
3 669 789 670
3 668 531 698
3 655 557 714
3 571 536 68
3 617 39 522
3 600 419 657
3 627 689 665
3 632 606 543
3 634 649 661
3 636 769 606
3 86 497 992
3 536 769 660
3 100 643 633
3 789 669 680
3 634 652 635
3 575 836 794
3 356 575 794
3 606 769 771
3 399 695 681
3 698 606 632
3 700 698 632
3 700 632 650
3 575 731 836
3 483 206 17
3 9 641 656
3 332 343 326
3 658 638 600
3 658 600 339
3 693 731 575
3 85 638 658
3 9 691 641
3 356 642 575
3 957 977 453
3 693 773 731
3 700 668 698
3 666 627 665
3 674 702 673
3 681 694 680
3 694 642 356
3 680 694 356
3 85 91 42
3 656 653 349
3 678 693 575
3 678 575 642
3 678 647 693
3 637 154 82
3 805 782 385
3 381 683 675
3 694 349 642
3 349 678 642
3 995 273 1001
3 419 520 643
3 599 996 994
3 681 695 694
3 633 531 646
3 100 633 646
3 438 703 696
3 689 686 665
3 433 360 275
3 657 679 664
3 804 630 362
3 696 703 646
3 671 381 675
3 419 688 520
3 638 651 671
3 645 664 679
3 85 42 5
3 653 678 349
3 701 700 650
3 536 667 26
3 631 690 667
3 339 424 407
3 701 668 700
3 694 656 349
3 653 647 678
3 670 994 996
3 694 695 656
3 543 647 653
3 653 632 543
3 703 692 645
3 640 411 665
3 681 415 399
3 63 687 648
3 660 631 667
3 648 677 659
3 715 863 712
3 643 644 607
3 636 616 685
3 698 531 628
3 689 763 686
3 660 616 631
3 631 663 690
3 643 607 633
3 633 629 531
3 583 751 58
3 835 500 672
3 689 756 763
3 832 496 572
3 756 735 763
3 735 758 763
3 595 608 803
3 987 741 512
3 803 810 582
3 729 813 704
3 570 711 845
3 385 782 604
3 718 745 735
3 735 745 758
3 815 826 824
3 502 583 58
3 824 825 831
3 736 767 734
3 745 314 758
3 314 321 758
3 736 734 496
3 516 583 793
3 582 792 568
3 780 802 772
3 699 821 822
3 572 496 734
3 718 722 745
3 828 522 521
3 516 793 994
3 561 568 780
3 568 792 780
3 809 175 797
3 716 722 718
3 572 734 730
3 824 826 825
3 572 730 729
3 143 572 729
3 802 797 826
3 825 826 832
3 521 522 755
3 780 797 802
3 716 862 722
3 603 808 614
3 744 762 545
3 809 797 792
3 755 788 736
3 535 469 580
3 862 728 722
3 772 762 744
3 772 785 776
3 561 780 772
3 175 521 496
3 512 732 747
3 806 821 342
3 772 776 762
3 500 748 794
3 590 831 174
3 648 687 699
3 751 748 500
3 828 175 809
3 828 608 522
3 530 61 79
3 343 799 806
3 311 745 722
3 310 307 316
3 862 850 728
3 607 644 661
3 746 764 322
3 811 806 799
3 811 822 806
3 822 821 806
3 802 815 785
3 730 734 773
3 516 748 751
3 764 800 799
3 733 740 561
3 748 516 760
3 800 811 799
3 502 439 313
3 820 590 834
3 729 730 813
3 831 590 820
3 676 715 733
3 307 719 746
3 746 719 749
3 749 764 746
3 822 677 699
3 587 350 140
3 815 824 820
3 343 322 799
3 815 814 785
3 719 742 749
3 795 811 800
3 815 820 814
3 748 760 794
3 705 752 848
3 713 719 839
3 749 774 764
3 764 774 800
3 774 795 800
3 496 521 736
3 802 785 772
3 816 677 822
3 549 335 821
3 788 835 672
3 672 500 836
3 661 629 607
3 820 824 831
3 742 738 749
3 811 816 822
3 830 801 26
3 644 520 662
3 814 820 834
3 713 742 719
3 738 774 749
3 816 659 677
3 988 299 97
3 704 174 729
3 795 812 811
3 811 812 816
3 586 732 741
3 644 662 63
3 765 795 774
3 143 729 174
3 175 832 797
3 765 812 795
3 807 816 812
3 816 829 659
3 732 770 747
3 721 644 63
3 39 439 788
3 738 766 774
3 766 765 774
3 733 744 545
3 561 772 744
3 680 356 789
3 760 670 789
3 779 812 765
3 829 816 807
3 54 927 501
3 987 637 741
3 295 998 537
3 583 619 793
3 713 724 742
3 724 738 742
3 737 766 738
3 840 724 838
3 838 724 713
3 765 766 779
3 790 807 812
3 833 830 690
3 779 790 812
3 837 659 829
3 766 753 779
3 807 823 829
3 561 744 733
3 840 707 724
3 737 753 766
3 779 783 790
3 823 837 829
3 634 721 652
3 738 725 737
3 779 753 783
3 790 823 807
3 512 741 732
3 669 654 987
3 760 789 794
3 707 725 724
3 724 725 738
3 783 817 790
3 790 817 823
3 759 783 753
3 783 787 817
3 817 827 823
3 823 827 837
3 500 794 836
3 797 832 826
3 737 739 753
3 587 567 350
3 760 516 994
3 707 709 725
3 725 739 737
3 773 767 731
3 767 672 731
3 725 726 739
3 753 739 759
3 787 818 817
3 663 837 827
3 26 68 536
3 707 752 709
3 709 726 725
3 818 827 817
3 759 787 783
3 616 649 634
3 727 726 709
3 755 39 788
3 836 731 672
3 58 751 835
3 759 757 787
3 808 785 814
3 882 639 712
3 751 500 835
3 649 616 636
3 835 439 58
3 727 709 710
3 818 819 827
3 802 826 815
3 578 586 637
3 739 757 759
3 832 175 496
3 788 439 835
3 757 784 787
3 787 784 818
3 784 819 818
3 727 743 726
3 726 743 739
3 743 750 739
3 739 750 757
3 819 833 827
3 930 947 924
3 371 583 506
3 773 693 730
3 143 174 831
3 710 720 727
3 709 705 710
3 947 958 937
3 805 301 768
3 482 560 481
3 720 743 727
3 778 784 757
3 784 791 819
3 793 317 599
3 519 768 304
3 782 805 768
3 567 370 350
3 660 769 685
3 778 757 750
3 778 791 784
3 833 801 830
3 582 809 792
3 693 647 730
3 776 785 808
3 582 810 809
3 519 782 768
3 868 875 853
3 710 708 720
3 791 801 819
3 801 833 819
3 717 720 708
3 754 750 743
3 371 619 583
3 898 931 925
3 720 564 743
3 639 740 715
3 723 538 452
3 804 519 781
3 804 782 519
3 564 754 743
3 591 791 778
3 796 801 791
3 736 788 767
3 712 639 715
3 734 767 773
3 767 788 672
3 717 564 720
3 754 778 750
3 754 591 778
3 861 868 848
3 708 706 717
3 591 796 791
3 810 828 809
3 322 764 799
3 825 572 143
3 317 793 548
3 569 781 761
3 989 153 670
3 831 825 143
3 572 825 832
3 569 630 781
3 608 810 803
3 716 718 866
3 717 557 564
3 796 610 801
3 910 926 916
3 939 941 182
3 549 699 684
3 10 177 979
3 898 909 931
3 881 885 876
3 716 865 862
3 938 960 930
3 966 269 777
3 523 152 470
3 948 938 919
3 900 190 904
3 585 935 967
3 925 949 948
3 925 920 903
3 295 601 997
3 881 876 865
3 297 926 910
3 879 883 868
3 941 939 926
3 862 855 850
3 953 978 959
3 984 453 977
3 962 177 965
3 949 961 948
3 925 948 920
3 880 898 903
3 954 979 940
3 862 876 855
3 931 949 925
3 297 910 885
3 234 279 864
3 861 848 852
3 865 876 862
3 752 852 848
3 910 916 909
3 892 885 881
3 752 842 852
3 939 955 932
3 916 939 932
3 308 982 405
3 880 903 884
3 888 900 904
3 940 979 962
3 896 907 887
3 969 459 958
3 858 857 844
3 108 89 917
3 190 34 912
3 308 338 982
3 962 979 177
3 857 879 861
3 718 298 866
3 921 945 982
3 945 498 982
3 930 924 919
3 920 948 919
3 985 180 964
3 637 586 741
3 879 868 861
3 982 338 921
3 866 865 716
3 985 964 965
3 847 861 852
3 960 947 930
3 864 187 966
3 400 24 218
3 854 844 839
3 919 924 902
3 338 934 921
3 975 971 798
3 870 577 798
3 964 455 969
3 919 938 930
3 945 269 498
3 911 297 885
3 585 967 589
3 798 971 870
3 777 945 921
3 141 956 577
3 908 919 902
3 945 777 269
3 297 178 926
3 178 941 926
3 847 852 842
3 470 921 934
3 470 777 921
3 967 963 971
3 870 141 577
3 296 854 839
3 971 976 870
3 870 318 141
3 511 956 141
3 491 511 915
3 838 844 842
3 855 859 854
3 926 939 916
3 935 963 967
3 864 777 470
3 899 910 909
3 963 976 971
3 976 318 870
3 897 920 908
3 234 470 152
3 234 864 470
3 501 554 483
3 920 919 908
3 777 864 966
3 190 900 195
3 77 917 981
3 568 943 935
3 935 943 963
3 915 511 141
3 969 455 459
3 892 911 885
3 943 976 963
3 141 980 915
3 967 971 975
3 991 998 1000
3 903 920 897
3 712 873 882
3 873 451 882
3 318 980 141
3 955 19 954
3 992 990 562
3 939 182 955
3 676 867 863
3 873 712 871
3 906 451 873
3 568 944 943
3 976 983 318
3 318 942 980
3 839 844 838
3 840 842 707
3 944 951 943
3 943 951 976
3 951 983 976
3 857 861 847
3 893 892 881
3 977 957 972
3 983 942 318
3 869 891 879
3 185 911 892
3 863 871 712
3 871 889 873
3 889 906 873
3 942 71 980
3 915 950 491
3 904 912 893
3 300 900 888
3 980 71 915
3 909 916 931
3 944 527 951
3 353 71 942
3 886 904 893
3 474 79 103
3 874 871 863
3 913 462 906
3 353 942 983
3 968 353 983
3 71 950 915
3 491 917 89
3 866 881 865
3 586 578 38
3 951 968 983
3 968 974 353
3 869 879 857
3 867 874 863
3 874 889 871
3 905 906 889
3 905 913 906
3 353 927 71
3 927 950 71
3 491 950 917
3 857 858 869
3 705 709 752
3 936 723 913
3 509 492 130
3 534 860 676
3 265 337 225
3 265 999 337
3 669 999 681
3 860 867 676
3 905 936 913
3 972 957 723
3 974 927 353
3 711 846 845
3 846 534 845
3 846 860 534
3 877 874 867
3 901 889 874
3 888 904 886
3 927 981 950
3 950 981 917
3 901 905 889
3 908 902 883
3 844 847 842
3 877 867 860
3 901 874 877
3 849 860 846
3 952 972 723
3 891 883 879
3 869 884 891
3 884 897 891
3 841 846 711
3 922 936 905
3 936 952 723
3 927 54 981
3 886 881 866
3 984 972 952
3 984 977 972
3 886 893 881
3 498 515 982
3 894 901 877
3 955 179 19
3 851 849 846
3 849 872 860
3 878 877 860
3 946 936 922
3 946 952 936
3 54 77 981
3 190 912 904
3 851 846 841
3 895 894 877
3 952 973 984
3 850 854 296
3 844 857 847
3 855 854 850
3 878 895 877
3 928 946 922
3 615 562 115
3 985 965 177
3 903 897 884
3 706 841 711
3 851 853 849
3 887 895 878
3 494 933 54
3 298 886 866
3 853 872 849
3 946 973 952
3 841 843 851
3 908 883 891
3 838 842 840
3 843 841 706
3 856 851 843
3 959 973 946
3 961 938 948
3 844 854 858
3 854 859 858
3 888 886 298
3 875 872 853
3 929 946 928
3 929 959 946
3 859 869 858
3 897 908 891
3 708 843 706
3 856 853 851
3 880 884 869
3 859 880 869
3 929 928 923
3 959 978 973
3 885 910 899
3 876 885 899
3 899 880 859
3 876 899 859
3 876 859 855
3 951 527 481
3 968 951 481
3 872 875 890
3 878 860 872
3 890 902 896
3 890 896 887
3 872 890 887
3 887 878 872
3 969 958 947
3 931 916 932
3 955 954 940
3 964 969 947
3 964 947 960
3 965 964 960
3 962 965 960
3 940 962 960
3 949 931 932
3 932 955 940
3 932 940 960
3 961 949 932
3 960 938 961
3 895 887 907
3 907 914 918
3 907 918 923
3 895 907 923
3 922 905 901
3 923 928 922
3 922 901 894
3 922 894 895
3 923 922 895
3 932 960 961
