OFF
1002 2000 0
0.3120899 -0.3695998 0.8779082
0.3356094 -0.3851178 0.42544
0.3093122 0.02346972 -0.008900252
0.149341 -0.451522 0.166423
0.114009 -0.358339 -0.0759521
0.101546 -0.475382 0.663157
0.358602 -0.37797 0.17897
0.3362077 -0.220451 0.7430236
0.316102 -0.419396 0.649153
0.09033213 -0.4083063 0.8980195
0.1598128 0.2809938 0.3174929
0.1434142 0.1058936 0.8702716
0.3461972 -0.05345251 0.6426782
0.1846668 0.1771877 -0.2503741
0.2238606 0.426964 -0.03313142
0.1767982 0.7357138 -0.4396749
0.1767303 -0.6681669 -0.07699893
0.1494034 -0.6933866 0.7015169
0.310744 -0.658159 0.12474
0.264169 0.646946 -0.369897
0.1789365 0.694602 -0.1525525
0.2549435 0.5557551 -0.1286794
0 0.09896481 -0.4465148
0.009572679 0.8287333 -0.3608382
0 0.499175 0.0586613
0.0002156154 0.7401694 -0.07334607
0.09991759 0.3005347 0.3124226
-0.04222729 -0.07668444 0.9929007
-0.3446923 -0.2905097 -0.08115373
-0.149341 -0.451522 0.166423
-0.1216342 -0.1544335 -0.1888135
-0.114009 -0.358339 -0.0759521
-0.101546 -0.475382 0.663157
-0.2368356 -0.4377982 0.4224959
-0.358602 -0.37797 0.17897
-0.316102 -0.419396 0.649153
-0.1957536 0.2717737 0.1021245
-0.158786 0.0751889 -0.141343
-0.1004657 0.2097148 0.6873043
-0.2269103 0.134151 0.6711873
-0.3779896 -0.05078519 0.2107141
-0.1475515 0.3282321 -0.005170052
-0.1685706 0.1769727 -0.2130594
-0.3220833 0.3242753 -0.3332264
-0.2582276 0.4627562 -0.5344737
-0.294738 -0.6558122 0.722279
-0.264169 0.646946 -0.369897
-0.2549435 0.5557551 -0.1286794
-0.3660075 0.5953855 -0.2095101
-0.09565969 0.8180984 -0.2252017
-0.1557185 0.7982574 -0.3389013
0.2261582 -0.4334079 0.3224032
0.262599 -0.446574 0.214165
0.3495341 -0.3638205 0.2503585
0.315996 -0.3941869 0.5844569
0.218649 -0.474853 0.619945
0.2084997 -0.09126611 -0.1526689
0.321351 -0.1575644 -0.0766499
0.3074052 -0.04376769 -0.05594362
0.1170155 -0.01477682 -0.1883032
0.2609277 -0.04736461 -0.1077396
0.211816 -0.394732 0.922409
0.2170743 -0.2466903 0.919306
0.3639466 -0.1014945 0.05145838
0.385194 -0.351205 0.0306159
0.3799151 -0.1681343 0.3540742
0.3884228 -0.1273844 0.2181808
0.3786303 -0.06906716 0.2860155
0.3447179 -0.2883289 0.6475238
0.326487 -0.2511171 0.7983773
0.3588388 -0.1555135 0.587751
0.2409869 0.2373646 0.173438
0.1956902 0.1802175 0.4665081
0.1963093 0.2261903 0.3696561
0.2228348 0.1317246 0.7093259
0.2489316 0.1177245 0.560312
0.1901658 0.1704142 0.5580002
0.1858131 0.1913805 -0.03343283
0.3079331 0.09534785 0.08766445
0.2587385 0.1136277 0.0002516928
0.1520577 0.1600642 -0.1832592
0.1817451 0.2475262 -0.1029279
0.172619 0.221245 -0.0722104
0.294876 0.383503 -0.203773
0.1827676 0.1261664 -0.388367
0.2552888 0.1508385 -0.4929822
0.2976715 0.1951829 -0.4472799
0.2581215 0.2921137 -0.6365541
0.2491021 0.3722431 -0.6152001
0.314593 0.32071 -0.563292
0.338046 -0.680095 0.0309463
0.228165 -0.692422 0.147407
0.12828 -0.689708 0.0245746
0.238161 -0.677382 -0.0918856
0.229681 -0.733842 0.0266899
0.20056 -0.687393 0.898863
0.199176 -0.699686 0.68654
0.198244 -0.736784 0.793448
0.0593616 -0.458076 0.795932
0.102733 -0.558625 0.896274
0.3324805 -0.5923132 0.1441127
0.24402 -0.524662 -0.124285
0.1429061 -0.6140138 0.1361373
0.2330361 -0.6302582 0.1786931
0.0964942 -0.434904 0.0342915
0.1006217 -0.5570031 0.03187568
0.26611 0.5889301 -0.4106846
0.2852823 0.5715567 -0.2366185
0.2833065 0.5244617 -0.2631833
0.2306184 0.5866152 -0.1071186
0.346675 0.5856894 -0.1991653
0.422878 0.632073 -0.168661
0.3504234 0.699693 -0.1506336
0.2871133 0.594339 -0.136314
0.4096346 0.7226634 -0.3003003
0.460287 0.727236 -0.177367
0.03390625 0.3168066 0.2500253
0.1150636 0.3122324 0.2528754
0.0246007 -0.3420101 0.8906186
0.02340545 -0.3820531 0.8369372
0.09527812 0.4938135 0.04571585
0.2267971 0.5830343 -0.4983978
0.1330596 0.4882769 -0.5655845
0.007353801 -0.2695543 -0.1539772
-0.01182541 -0.1073873 -0.2203733
0.05584763 0.04640064 -0.2303911
0.08969101 0.104957 -0.3965928
0.1546658 0.1707997 -0.5976622
0.1745275 0.1252429 -0.5149267
0.05944979 0.2603012 -0.6615341
0.1252848 0.56246 -0.0012963
0.165805 0.9429894 -0.2931303
0.2176126 0.9426444 -0.283003
0.1347121 0.8059504 -0.3339497
0.3669929 0.7405135 -0.3009526
0.4012032 0.7367494 -0.1741414
0.117166 0.7647941 -0.1721208
0.192398 0.8684151 -0.3318683
0.2012131 -0.4786012 0.4188671
0.1822153 -0.4832194 0.4851035
0.08663086 -0.4651343 0.6335765
0.1799465 -0.4451041 0.2686944
0.2076972 -0.001600658 0.9067679
-0.00477883 -0.07297701 1.003527
-0.262599 -0.446574 0.214165
-0.218649 -0.474853 0.619945
-0.2470877 -0.4323544 0.5321978
-0.229478 -0.212011 -0.133147
-0.09784897 -0.03103255 -0.200967
-0.211816 -0.394732 0.922409
-0.2863798 -0.2139593 0.8659501
-0.385194 -0.351205 0.0306159
-0.3791522 -0.2496142 0.03558251
-0.3756436 -0.279184 0.3438246
-0.3786303 -0.06906716 0.2860155
-0.343446 0.01490055 0.07369941
-0.3639466 -0.1014945 0.05145838
-0.3290159 -0.0556563 0.7539
-0.3340598 -0.1004791 0.7583979
-0.354807 -0.3193634 0.4897501
-0.2029826 0.1974534 0.4117871
-0.1745768 0.2046462 -0.05033994
-0.1472219 0.2915451 0.009817206
-0.1424986 0.1382771 -0.1857108
-0.294876 0.383503 -0.203773
-0.2797018 0.2173396 -0.346645
-0.3300532 0.2514861 -0.4827273
-0.238161 -0.677382 -0.0918856
-0.12828 -0.689708 0.0245746
-0.228165 -0.692422 0.147407
-0.338046 -0.680095 0.0309463
-0.229681 -0.733842 0.0266899
-0.199176 -0.699686 0.68654
-0.1066935 -0.6939394 0.8154783
-0.20056 -0.687393 0.898863
-0.198244 -0.736784 0.793448
-0.2877383 -0.613111 0.6857023
-0.102733 -0.558625 0.896274
-0.1157926 -0.6337852 0.6986137
-0.0593616 -0.458076 0.795932
-0.07752295 -0.6265299 0.7983691
-0.1996863 -0.6444528 0.6576459
-0.2089699 -0.5408267 0.9312824
-0.3558961 -0.4946473 -0.08885935
-0.339121 -0.546516 0.150832
-0.3862051 -0.5090298 0.02648873
-0.1362666 -0.5817741 -0.0755462
-0.24402 -0.524662 -0.124285
-0.0964942 -0.434904 0.0342915
-0.282894 0.56989 -0.257283
-0.4178967 0.625605 -0.1730846
-0.2079294 0.6187931 -0.1126821
-0.460287 0.727236 -0.177367
-0.4533356 0.7012855 -0.2490857
-0.02914916 0.2171101 0.7317382
-0.06310106 0.1273568 0.8865064
-0.02368097 -0.4398952 0.09217822
-0.08992895 0.3484802 0.02674668
-0.1147117 0.4351328 0.04054125
-0.04106216 0.7671711 -0.4469633
-0.180672 0.3455494 -0.6556802
-0.1112171 0.3806026 -0.6457538
-0.1000546 0.1065237 -0.2186852
-0.1210214 0.106362 -0.4682892
-0.153665 0.185489 -0.611191
-0.08818518 0.6703837 -0.06723151
-0.2407446 0.671711 -0.4247782
-0.1981516 0.9385341 -0.239586
-0.1483763 0.9430629 -0.2517865
-0.1392713 0.8044171 -0.21539
-0.31875 0.7479711 -0.2935917
-0.1843961 0.7575706 -0.1911173
-0.06633694 0.8157103 -0.3762762
-0.2131097 0.8269876 -0.2833336
-0.1792203 0.9001436 -0.2229101
-0.07726083 -0.4649491 0.2350297
-0.1065406 -0.1066592 0.9710632
-0.187998 -0.1750337 0.9373291
-0.2064216 0.03614329 0.8833832
-0.04620481 0.07908042 0.9315879
0.3172094 -0.392828 0.2598649
0.2382232 -0.437041 0.4146097
0.2798227 -0.4207428 0.4332187
0.2793594 -0.4128642 0.3127763
0.2099 -0.457622 0.202318
0.2667915 -0.4218958 0.2534534
0.194817 -0.437402 0.239358
0.312495 -0.42258 0.208415
0.2835726 -0.4201091 0.5775182
0.313341 -0.4045549 0.4245186
0.26979 -0.455493 0.624003
0.2470877 -0.4323544 0.5321978
0.164011 -0.483033 0.631406
0.2284907 -0.4462027 0.583264
0.2953681 -0.285201 -0.1100446
0.2115004 -0.2692644 -0.1263173
0.2796058 -0.1658294 -0.1133654
0.3446923 -0.2905097 -0.08115373
0.119478 -0.295776 -0.113872
0.1996654 -0.2173156 -0.1417554
0.176383 -0.34915 -0.10631
0.1033135 -0.1542089 -0.19568
0.2653812 -0.008457123 -0.08678371
0.1680639 -0.1327244 -0.1725154
0.1645822 0.01842903 -0.1522728
0.1999527 -0.3340104 0.9230304
0.26887 -0.396352 0.909752
0.2576088 -0.2600401 0.899508
0.2863798 -0.2139593 0.8659501
0.1468665 -0.2821241 0.9335189
0.1544595 -0.2058213 0.9460531
0.149733 -0.3934 0.920339
0.104904 -0.328487 0.922781
0.3500573 -0.1481672 -0.02084977
0.3791522 -0.2496142 0.03558251
0.3735158 -0.309922 -0.0328796
0.3841982 -0.251556 0.2024717
0.3802709 -0.1695477 0.1137725
0.379176 -0.364086 0.102343
0.3822523 -0.2735778 0.09556406
0.3742409 -0.3161022 0.1812897
0.3756436 -0.279184 0.3438246
0.3651175 -0.1097287 0.4550303
0.3779896 -0.05078519 0.2107141
0.3448667 -0.004354627 0.05086178
0.3756858 -0.05355615 0.1337965
0.338768 -0.05180502 -0.001232411
0.3429798 -0.3805695 0.7766754
0.3347599 -0.36754 0.8342475
0.334716 -0.360298 0.654176
0.3409637 -0.3183987 0.7175494
0.335933 -0.414813 0.716014
0.2822902 -0.07073271 0.860579
0.3134463 -0.05613012 0.8007692
0.3114495 -0.1180389 0.8174047
0.3365555 -0.08434031 0.7485512
0.3483266 -0.0324636 0.4490051
0.3538455 -0.1043915 0.6460495
0.3655689 -0.250653 0.46379
0.354807 -0.3193634 0.4897501
0.3365633 -0.3589742 0.567711
0.3515617 -0.3555242 0.4225803
0.3514858 -0.2886095 0.5753149
0.2757866 0.1711257 0.1278423
0.1924063 0.2878803 0.1743469
0.1957536 0.2717737 0.1021245
0.2066892 0.2633394 0.275354
0.1609366 0.3045413 0.2251898
0.2633497 0.1598705 0.3225939
0.2616462 0.2036009 0.1991988
0.2415121 0.141499 0.4425214
0.2143005 0.1079495 0.795003
0.1416888 0.1881311 0.7176197
0.1488529 0.1458227 0.8146274
0.1444914 0.2025914 0.5030048
0.3493823 0.01968799 0.2604221
0.305416 0.05409846 0.4513683
0.3127833 0.01753654 0.6981931
0.295141 0.02380398 0.7605973
0.2234297 0.06982274 0.837634
0.2611256 0.01186657 0.84707
0.1818244 0.1193045 -0.09286135
0.2219534 0.09893889 -0.06011482
0.2448525 0.1888917 0.06764381
0.3174394 0.02412532 0.6087122
0.3399254 0.04733579 0.1790007
0.3087082 0.1031636 0.2550546
0.149034 0.119255 -0.152767
0.168725 0.158519 -0.103729
0.168374 0.1911897 -0.1351985
0.1521864 0.3115509 -0.01658175
0.1713122 0.2810314 -0.05314936
0.1524014 0.2879063 0.02549237
0.1714485 0.2479393 -0.003549712
0.2507668 0.2971469 -0.1719607
0.2071524 0.2341816 -0.1791061
0.3220833 0.3242753 -0.3332264
0.2603235 0.3678918 -0.1222803
0.3016564 0.2894129 -0.2950497
0.2189556 0.3385642 -0.08026029
0.2395219 0.1494187 -0.4137537
0.2797018 0.2173396 -0.346645
0.2342384 0.1966517 -0.294052
0.2708538 0.189155 -0.5658707
0.3032591 0.2046841 -0.5329231
0.3300532 0.2514861 -0.4827273
0.31171 0.235804 -0.406418
0.32675 0.280027 -0.535933
0.3226747 0.3598388 -0.4958147
0.3341437 0.3200915 -0.45912
0.272516 0.239582 -0.609537
0.2884806 0.310063 -0.6118951
0.307295 0.256707 -0.578835
0.295245 0.436762 -0.484187
0.2579447 0.4632699 -0.5345679
0.2926173 0.3710651 -0.5709063
0.335047 -0.66747 -0.026194
0.288313 -0.71953 0.0292002
0.233667 -0.718383 -0.0394682
0.288912 -0.666279 -0.0831981
0.288523 -0.704927 -0.0329901
0.276152 -0.679477 0.14116
0.227442 -0.724741 0.0933852
0.327044 -0.674066 0.0872825
0.281161 -0.710704 0.0910758
0.1286824 -0.6757821 0.08004952
0.172796 -0.723594 0.0247169
0.1740917 -0.685692 0.1313345
0.176191 -0.716151 0.0857864
0.136552 -0.67511 -0.0280042
0.179633 -0.708233 -0.0350267
0.2563211 -0.6733401 0.886918
0.198896 -0.723335 0.85193
0.248642 -0.724519 0.790895
0.288217 -0.679435 0.838379
0.246831 -0.711912 0.845432
0.1069844 -0.694274 0.8177473
0.148661 -0.727347 0.795626
0.1435395 -0.6963213 0.8731319
0.198408 -0.728532 0.734591
0.153047 -0.720555 0.741401
0.2909428 -0.6897595 0.7689341
0.24088 -0.688682 0.691628
0.244434 -0.716483 0.736358
0.339182 -0.5401607 0.7854058
0.30391 -0.498066 0.668956
0.3265995 -0.5455004 0.7248874
0.3116778 -0.5254358 0.8909813
0.3350634 -0.5329935 0.8426861
0.319732 -0.633454 0.786428
0.294197 -0.618974 0.884469
0.315639 -0.625673 0.839496
0.2877383 -0.613111 0.6857023
0.294738 -0.6558122 0.722279
0.07735891 -0.5643008 0.8527627
0.106684 -0.534636 0.682874
0.069956 -0.47422 0.735292
0.08288022 -0.5863175 0.7391728
0.07752295 -0.6265299 0.7983691
0.1157926 -0.6337852 0.6986137
0.1073732 -0.6837926 0.7480818
0.09669394 -0.6303858 0.8684862
0.208287 -0.52835 0.637223
0.260651 -0.513618 0.642398
0.1996863 -0.6444528 0.6576459
0.2451956 -0.6317306 0.6622623
0.1561171 -0.6414163 0.6688256
0.153645 -0.534978 0.650489
0.2089699 -0.5408267 0.9312824
0.1494963 -0.540883 0.9238658
0.203436 -0.628169 0.923071
0.153584 -0.625261 0.914716
0.253551 -0.622939 0.912658
0.2648541 -0.5352626 0.9207875
0.348561 -0.464054 0.158716
0.3862051 -0.5090298 0.02648873
0.3731716 -0.5164522 0.09618146
0.368236 -0.614976 0.0306267
0.354786 -0.614851 0.0904298
0.3392549 -0.6043925 -0.07840967
0.364087 -0.605614 -0.0296813
0.3558961 -0.4946473 -0.08885935
0.3811312 -0.4995823 -0.03751072
0.2392975 -0.3413657 -0.1179454
0.12704 -0.448099 -0.0735785
0.179139 -0.436248 -0.106528
0.3067938 -0.5042563 -0.1180475
0.241923 -0.609859 -0.117359
0.296601 -0.602967 -0.109127
0.1362666 -0.5817741 -0.0755462
0.1846324 -0.589051 -0.1081288
0.148115 -0.512563 0.149929
0.1849301 -0.6271753 0.1664957
0.25113 -0.502745 0.197094
0.196177 -0.511769 0.183546
0.284725 -0.6140315 0.1724465
0.304357 -0.484216 0.189956
0.1059632 -0.536321 -0.02745333
0.0953701 -0.405611 -0.0214782
0.106751 -0.633108 0.0275567
0.114552 -0.619641 -0.0267392
0.112515 -0.451919 0.0935688
0.1145835 -0.5710823 0.09365164
0.271184 0.525759 -0.460079
0.2790075 0.550701 -0.3472093
0.291391 0.478507 -0.418527
0.278055 0.600765 -0.320108
0.2689393 0.5201434 -0.1728448
0.2765892 0.5603222 -0.1669943
0.298509 0.427522 -0.236282
0.2370722 0.5013492 -0.07644278
0.2709234 0.4227443 -0.1237743
0.3219061 0.3823513 -0.3603067
0.326452 0.645309 -0.138504
0.2646849 0.6236035 -0.1297495
0.3617284 0.5966681 -0.1699239
0.3976724 0.6100968 -0.1948026
0.380321 0.61857 -0.152413
0.4219958 0.6565211 -0.1495612
0.28588 0.662049 -0.349089
0.3631025 0.6322098 -0.2929723
0.2948908 0.6075533 -0.2936304
0.3587485 0.6735704 -0.3279727
0.337287 0.5921162 -0.2372656
0.4533356 0.7012855 -0.2490857
0.4179456 0.67335 -0.2802283
0.4494253 0.7494292 -0.2265809
0.4712993 0.7208659 -0.212148
0.447289 0.655956 -0.196803
0.4318416 0.6987973 -0.1517147
0.460337 0.681448 -0.17325
0.4008276 0.623417 -0.237211
-0.05612829 0.321852 0.2175864
0.07669329 0.3231599 0.1544267
0.02108084 0.2306689 0.5087547
0.05400757 0.2205007 0.6887049
-0.01841056 0.2260714 0.6509815
0.09367721 0.2263734 0.4827823
0.1191712 0.2075913 0.585678
0.03368244 0.1848065 0.8128651
0.06972781 0.2015433 0.7590657
0.06310106 0.1273568 0.8865064
-1.193584e-16 0.1439698 0.8770794
0.07476592 0.1650811 0.8349513
0.002514069 -0.409975 0.004770611
0.01373219 -0.3261736 -0.09804812
0.0729358 -0.3740534 -0.02758291
0.08279529 -0.4180845 0.04933769
0.02862135 -0.4217585 0.7601322
0.04724763 -0.4288693 0.7860056
0.0576974 -0.360469 0.893822
0.05797966 -0.4098657 0.849869
0.02738257 0.2505192 0.4353579
0.1065851 0.2758904 0.3643556
0.1353553 0.2283222 0.444025
0.07057888 0.3255195 0.07234235
0.0705903 0.3341713 0.04423216
0.1197138 0.3155949 0.02860501
0.1300926 0.3082326 0.08667302
0.1147117 0.4351328 0.04054125
0.05758612 0.4412806 0.05513009
0.07507415 0.351191 0.03187718
0.1667003 0.4213435 0.0133107
0.1279673 0.3378887 0.008806239
0.1047074 0.5938399 -0.5218668
0.04565304 0.5141124 -0.5585157
0.07369959 0.7605666 -0.4467734
0.04358713 0.7103865 -0.4788444
0.2273414 0.6588985 -0.4653383
0.1692337 0.6766199 -0.477188
0.199339 0.4990579 -0.5443867
0.1399459 0.3579464 -0.657152
0 0.3421676 -0.6657002
0.07432054 0.3801685 -0.6465685
0.0548644 0.4548026 -0.5939139
0.199873 0.404748 -0.612935
0.1942447 0.3505021 -0.6498191
0.01571665 -0.2051982 0.9698525
0.06578096 -0.3055791 0.9288958
0.1121709 -0.2591005 -0.1414294
0.07464056 -0.1995288 -0.1899937
0.0796433 -0.304819 -0.108871
0.05021472 -0.02977387 -0.223565
-0.0002954463 0.03201639 -0.2395835
0.1474304 0.06023439 -0.1584132
0.001603641 0.09520713 -0.2587733
0.09563703 0.1038677 -0.2218518
0.04047346 0.09495826 -0.2511268
-0.02478432 0.1175558 -0.2901027
0.04632743 0.122203 -0.2902185
0.1119065 0.1300669 -0.2345907
0.124521 0.1395527 -0.2806124
0.195376 0.1215408 -0.4558073
0.0532169 0.1259608 -0.5383915
0.1210214 0.106362 -0.4682892
1.264083e-16 0.1070097 -0.4914969
0.06089296 0.1820091 -0.6155931
0.05811091 0.1506828 -0.579826
0.2205931 0.1760659 -0.5842136
0.06101157 0.2194488 -0.6434442
0.1561803 0.2444937 -0.6509866
0.1135907 0.3026736 -0.668301
0.2097669 0.2845083 -0.6538278
0.21995 0.228648 -0.628685
0.06945326 0.5747465 0.01911199
0.002041312 0.5695937 0.03485202
0.1827021 0.4784952 0.002418584
0.197978 0.5721066 -0.06939038
0.126096 0.69557 -0.127071
0.0987466 0.656786 -0.062447
0.1829941 0.6488274 -0.1233839
0 0.672219 -0.0228265
0.04377254 0.6995231 -0.05652048
0.2541448 0.5962627 -0.4662923
0.2096899 0.7249346 -0.4208194
0.2407446 0.671711 -0.4247782
0.2102333 0.9125715 -0.3161434
0.1649593 0.9534854 -0.2555044
0.1686149 0.7926728 -0.3347515
0.1864081 0.7777157 -0.3102367
0.1990329 0.7725976 -0.2642827
0.1953997 0.7862217 -0.2371662
0.1480223 0.8162506 -0.2173442
0.1469604 0.7921274 -0.2060846
0.1081129 0.8142591 -0.218666
0.08924738 0.820939 -0.289065
0.08693314 0.8208514 -0.2332203
0.2401634 0.761688 -0.2349435
0.206363 0.7640775 -0.2172821
0.2892212 0.7556085 -0.2706126
0.2501302 0.7336906 -0.3156787
0.3769326 0.7613054 -0.2197
0.3896687 0.7602623 -0.2550738
0.3207986 0.7048595 -0.3347127
0.2563315 0.7074153 -0.3499149
0.1947209 0.7550727 -0.1915964
0.2484582 0.7012284 -0.1590159
0.2776916 0.7517131 -0.1920861
0.02457434 0.8150957 -0.1887847
-0.004479157 0.8030085 -0.1586147
0.03854998 0.7815428 -0.1366122
0.0771688 0.744134 -0.128582
0.04858811 0.8295392 -0.3203878
0.1171893 0.8054304 -0.3739548
0.1774705 0.775529 -0.3804725
0.1654208 0.7676498 -0.4113726
0.2310106 0.7294384 -0.3505022
0.2275981 0.8816046 -0.2854371
0.1203831 0.8903789 -0.285944
0.1729035 0.901011 -0.324056
0.1348713 0.8969468 -0.223217
0.1276016 0.9173282 -0.2515982
0.1818851 0.9352352 -0.2291648
0.212106 0.8986697 -0.2352904
0.2138027 0.8621606 -0.2433579
0.2101833 -0.4445898 0.5104294
0.1475282 -0.4579495 0.5940415
0.05650621 -0.4501475 0.6939006
0.1334931 -0.4434949 0.194375
0.1069043 -0.4403851 0.1336319
0.1411645 -0.4509887 0.2429226
0.0265689 -0.4481622 0.1487445
0.02604396 -0.4627903 0.2108349
0.1958429 -0.4727777 0.3692317
0.006679302 -0.4713125 0.6394008
0.02711714 -0.5333899 0.415506
0.01276309 -0.528285 0.4884599
0.08735462 -0.5050533 0.5335019
0.1322971 -0.5116304 0.4165161
0.09623533 -0.5194877 0.4731693
0.01985005 -0.5227478 0.360549
0.0001445489 -0.4990392 0.2937992
0.1034404 -0.4868449 0.3023926
0.1210462 -0.5044274 0.3634297
0.08622902 -0.08854217 0.9795394
0.2321438 -0.1573753 0.9123555
0.2355823 -0.0614525 0.905802
0.1598954 -0.04696777 0.9554129
0.1584004 0.05988111 0.9007665
0.1322804 -0.02036073 0.9608426
0.001323607 0.01916985 0.9766886
0.05191539 0.004795547 0.9788675
0.08478527 0.07699725 0.9224473
0.03058722 0.09361849 0.9237245
0.07039932 -0.2065642 0.9643383
0.03115627 -0.07935889 0.991295
0.0712711 -0.06869686 0.9889202
0.100543 -0.03693599 0.9833455
-0.006043462 -0.03853168 1.024154
0.05315064 -0.0561367 1.026044
0.01820232 -0.06579635 1.047243
0.0385936 -0.08955798 1.020502
-0.01076446 -0.09997915 1.033332
-0.3356094 -0.3851178 0.42544
-0.312495 -0.42258 0.208415
-0.3495341 -0.3638205 0.2503585
-0.3172094 -0.392828 0.2598649
-0.198533 -0.4367139 0.2435436
-0.2793594 -0.4128642 0.3127763
-0.2099 -0.457622 0.202318
-0.2667915 -0.4218958 0.2534534
-0.2798227 -0.4207428 0.4332187
-0.313341 -0.4045549 0.4245186
-0.2101833 -0.4445898 0.5104294
-0.164011 -0.483033 0.631406
-0.236564 -0.444228 0.584476
-0.1583198 -0.4584343 0.5943594
-0.3158327 -0.394212 0.5840101
-0.26979 -0.455493 0.624003
-0.2835726 -0.4201091 0.5775182
-0.2115004 -0.2692644 -0.1263173
-0.2953681 -0.285201 -0.1100446
-0.321351 -0.1575644 -0.0766499
-0.2796058 -0.1658294 -0.1133654
-0.1492364 -0.2397865 -0.1446834
-0.176383 -0.34915 -0.10631
-0.119478 -0.295776 -0.113872
-0.2707084 0.02874299 -0.05800821
-0.1999785 0.05010044 -0.1119291
-0.3074764 -0.02678866 -0.04877643
-0.1687813 0.01715666 -0.1502129
-0.1979997 -0.1092913 -0.1607639
-0.2681641 -0.04702044 -0.1007984
-0.2654217 -0.3269571 0.9042752
-0.3120899 -0.3695998 0.8779082
-0.1069612 -0.3180432 0.9259589
-0.149733 -0.3934 0.920339
-0.1865547 -0.312708 0.9247428
-0.2092843 -0.2427845 0.9227073
-0.2509247 -0.2027007 0.8984943
-0.3735158 -0.309922 -0.0328796
-0.3742409 -0.3161022 0.1812897
-0.3822523 -0.2735778 0.09556406
-0.379176 -0.364086 0.102343
-0.3802709 -0.1695477 0.1137725
-0.3500573 -0.1481672 -0.02084977
-0.3515617 -0.3555242 0.4225803
-0.3655689 -0.250653 0.46379
-0.3841982 -0.251556 0.2024717
-0.3884228 -0.1273844 0.2181808
-0.3799151 -0.1681343 0.3540742
-0.3379805 -0.03368442 0.006040813
-0.3756858 -0.05355615 0.1337965
-0.3347599 -0.36754 0.8342475
-0.3429798 -0.3805695 0.7766754
-0.3345971 -0.2754406 0.7672622
-0.3452686 -0.2967032 0.6349032
-0.3407903 -0.2887298 0.7135016
-0.335933 -0.414813 0.716014
-0.3364442 -0.3566664 0.6628268
-0.3100408 -0.1030791 0.8197231
-0.3469671 -0.07034605 0.6736043
-0.3467541 -0.1396342 0.701554
-0.3321433 -0.2185462 0.7586664
-0.3536142 -0.1975003 0.6211091
-0.3116803 -0.2182798 0.8215488
-0.3651175 -0.1097287 0.4550303
-0.3577032 -0.1130159 0.5964338
-0.3365321 -0.3583242 0.5705652
-0.2737614 0.1803656 0.1558263
-0.245902 0.2278691 0.2186236
-0.194044 0.2742295 0.2741245
-0.173937 0.295795 0.151795
-0.2152481 0.2689427 0.177598
-0.2426723 0.1529093 0.4080964
-0.1345378 0.2166851 0.4712774
-0.1714582 0.2573943 0.3512298
-0.197091 0.1771696 0.4739329
-0.2296643 0.222094 0.3028821
-0.2790865 0.1333561 0.3230172
-0.2182639 0.1220309 0.7559589
-0.2548965 0.05487765 0.809864
-0.1300643 0.1571547 0.8136967
-0.1594292 0.1152143 0.8505281
-0.08718481 0.1990223 0.7566456
-0.1538151 0.1853403 0.7009025
-0.2364569 0.1357218 0.5008901
-0.1610452 0.1894726 0.5455378
-0.3366776 0.02973018 0.3275444
-0.3103594 0.01691007 0.7156217
-0.2909436 -0.02148935 0.8276887
-0.2349185 0.1636676 0.01719174
-0.1865181 0.1326511 -0.07769414
-0.2994044 0.06604719 0.01754307
-0.2581393 0.1828456 0.08699484
-0.3011907 0.04549828 0.6486993
-0.305416 0.05409846 0.4513683
-0.3483266 -0.0324636 0.4490051
-0.3432552 -0.0346836 0.6045315
-0.3483534 0.03004365 0.2144202
-0.168374 0.1911897 -0.1351985
-0.1603103 0.1318997 -0.1333473
-0.1714485 0.2479393 -0.003549712
-0.1789918 0.2642291 -0.07703385
-0.2071524 0.2341816 -0.1791061
-0.2507668 0.2971469 -0.1719607
-0.2342384 0.1966517 -0.294052
-0.2189556 0.3385642 -0.08026029
-0.2709234 0.4227443 -0.1237743
-0.2238606 0.426964 -0.03313142
-0.2603235 0.3678918 -0.1222803
-0.3016564 0.2894129 -0.2950497
-0.2976715 0.1951829 -0.4472799
-0.31171 0.235804 -0.406418
-0.2708538 0.189155 -0.5658707
-0.2552888 0.1508385 -0.4929822
-0.3032591 0.2046841 -0.5329231
-0.2008279 0.140053 -0.3713966
-0.195376 0.1215408 -0.4558073
-0.2395219 0.1494187 -0.4137537
-0.3230216 0.360201 -0.4916757
-0.3320523 0.2901316 -0.5174655
-0.295245 0.436762 -0.484187
-0.295399 0.395443 -0.540067
-0.246645 0.312827 -0.640337
-0.2821999 0.2866534 -0.6206025
-0.2493712 0.3720172 -0.6151388
-0.2986579 0.3299691 -0.5949684
-0.272516 0.239582 -0.609537
-0.307295 0.256707 -0.578835
-0.288912 -0.666279 -0.0831981
-0.233667 -0.718383 -0.0394682
-0.288313 -0.71953 0.0292002
-0.335047 -0.66747 -0.026194
-0.288523 -0.704927 -0.0329901
-0.136552 -0.67511 -0.0280042
-0.172796 -0.723594 0.0247169
-0.1767303 -0.6681669 -0.07699893
-0.179633 -0.708233 -0.0350267
-0.182766 -0.687312 0.135767
-0.227442 -0.724741 0.0933852
-0.176191 -0.716151 0.0857864
-0.327044 -0.674066 0.0872825
-0.276152 -0.679477 0.14116
-0.281161 -0.710704 0.0910758
-0.288217 -0.679435 0.838379
-0.248642 -0.724519 0.790895
-0.198896 -0.723335 0.85193
-0.2461 -0.678205 0.889508
-0.246831 -0.711912 0.845432
-0.24088 -0.688682 0.691628
-0.198408 -0.728532 0.734591
-0.290583 -0.6914484 0.7714885
-0.244434 -0.716483 0.736358
-0.1073732 -0.6837926 0.7480818
-0.148661 -0.727347 0.795626
-0.1494034 -0.6933866 0.7015169
-0.153047 -0.720555 0.741401
-0.14787 -0.6779893 0.8898175
-0.151829 -0.713932 0.849146
-0.30391 -0.498066 0.668956
-0.339182 -0.5401607 0.7854058
-0.3265995 -0.5455004 0.7248874
-0.319732 -0.633454 0.786428
-0.2925938 -0.6247168 0.8833655
-0.315639 -0.625673 0.839496
-0.3116778 -0.5254358 0.8909813
-0.3350634 -0.5329935 0.8426861
-0.0969194 -0.478778 0.897495
-0.07735891 -0.5643008 0.8527627
-0.05797966 -0.4098657 0.849869
-0.09669394 -0.6303858 0.8684862
-0.069956 -0.47422 0.735292
-0.106684 -0.534636 0.682874
-0.08288022 -0.5863175 0.7391728
-0.208287 -0.52835 0.637223
-0.2451956 -0.6317306 0.6622623
-0.260651 -0.513618 0.642398
-0.1561171 -0.6414163 0.6688256
-0.153645 -0.534978 0.650489
-0.1494963 -0.540883 0.9238658
-0.2648541 -0.5352626 0.9207875
-0.203436 -0.628169 0.923071
-0.253551 -0.622939 0.912658
-0.153584 -0.625261 0.914716
-0.348561 -0.464054 0.158716
-0.3731716 -0.5164522 0.09618146
-0.3811312 -0.4995823 -0.03751072
-0.368236 -0.614976 0.0306267
-0.3392549 -0.6043925 -0.07840967
-0.364087 -0.605614 -0.0296813
-0.3176952 -0.6378401 0.1360813
-0.354786 -0.614851 0.0904298
-0.12704 -0.448099 -0.0735785
-0.1846324 -0.589051 -0.1081288
-0.2392975 -0.3413657 -0.1179454
-0.179139 -0.436248 -0.106528
-0.241923 -0.609859 -0.117359
-0.3067938 -0.5042563 -0.1180475
-0.296601 -0.602967 -0.109127
-0.25113 -0.502745 0.197094
-0.1466488 -0.5399415 0.1475601
-0.1949387 -0.5215042 0.1831728
-0.304357 -0.484216 0.189956
-0.2330361 -0.6302582 0.1786931
-0.284725 -0.6140315 0.1724465
-0.145237 -0.635178 0.13052
-0.185474 -0.638484 0.162245
-0.0953701 -0.405611 -0.0214782
-0.1006217 -0.5570031 0.03187568
-0.1059632 -0.536321 -0.02745333
-0.112515 -0.451919 0.0935688
-0.1145835 -0.5710823 0.09365164
-0.106751 -0.633108 0.0275567
-0.1295842 -0.6760785 0.08112263
-0.114552 -0.619641 -0.0267392
-0.271184 0.525759 -0.460079
-0.3037114 0.4512095 -0.3842095
-0.298509 0.427522 -0.236282
-0.3258067 0.3631928 -0.3717408
-0.2370722 0.5013492 -0.07644278
-0.277875 0.55689 -0.190965
-0.2833065 0.5244617 -0.2631833
-0.2689393 0.5201434 -0.1728448
-0.26611 0.5889301 -0.4106846
-0.278055 0.600765 -0.320108
-0.2790075 0.550701 -0.3472093
-0.3267796 0.6236789 -0.137805
-0.2646849 0.6236035 -0.1297495
-0.430349 0.658277 -0.154382
-0.3827361 0.6287581 -0.1465361
-0.367842 0.597467 -0.17194
-0.239082 0.578957 -0.111996
-0.2939061 0.5684966 -0.1711625
-0.2832013 0.5795028 -0.1406716
-0.2955276 0.5968907 -0.2735935
-0.294318 0.572729 -0.209871
-0.4022871 0.6227749 -0.2337924
-0.3698497 0.6312432 -0.2874754
-0.337287 0.5921162 -0.2372656
-0.362063 0.6715005 -0.325861
-0.2895669 0.666046 -0.3470719
-0.2938529 0.630651 -0.3206358
-0.4096346 0.7226634 -0.3003003
-0.4179456 0.67335 -0.2802283
-0.447289 0.655956 -0.196803
-0.4433611 0.6998408 -0.1566888
-0.4712993 0.7208659 -0.212148
-0.460337 0.681448 -0.17325
-0.43241 0.746455 -0.258303
-0.4513424 0.7453489 -0.2087771
-0.1178433 0.3164284 0.1292683
-0.1475245 0.2924533 0.3027746
-0.1480749 0.3086525 0.2406074
-0.07589442 0.3017295 0.3109099
-0.08032089 0.2278681 0.4939985
-0.07636964 0.2220681 0.545635
-0.05173178 0.1722951 0.8305731
-0.05842555 -0.4086795 0.02631297
-0.00336777 -0.431932 0.04937762
-0.08203192 -0.4141037 0.03715144
-0.1069043 -0.4403851 0.1336319
-0.0714671 -0.377771 -0.01938634
-0.02881465 -0.3532212 0.8814418
-0.08063001 -0.3745933 0.9005835
-0.0641499 -0.454693 0.696538
-0.04724763 -0.4288693 0.7860056
-0.02765614 -0.4114492 0.7859142
-0.01092864 0.2805772 0.3667117
-0.1193577 0.2739001 0.3614874
-0.06564586 0.2500997 0.4313344
-0.03558417 0.3546322 0.03728745
-0.08397365 0.3242488 0.04902283
-0.02988622 0.3288983 0.07713641
-0.02941355 0.338103 0.04873828
-0.1190583 0.3122943 0.03444082
-0.09772393 0.4925504 0.04487209
-0.03452051 0.3870217 0.04561424
-0.03328264 0.4480097 0.05930843
-0.1827021 0.4784952 0.002418584
-0.1667003 0.4213435 0.0133107
-0.1047074 0.5938399 -0.5218668
-0.2267971 0.5830343 -0.4983978
-0.1975912 0.507211 -0.5412131
-0.1767982 0.7357138 -0.4396749
-0.0832933 0.7056871 -0.4767559
-0.1692337 0.6766199 -0.477188
-0.2016664 0.4354317 -0.5888537
-0.1139829 0.4895698 -0.5678107
-0.04439233 -0.2442632 0.9566784
-0.03652966 -0.3033387 0.9243404
-0.04421146 -0.3207565 -0.09777198
-0.05607848 -0.2388308 -0.1710663
-0.07940358 -0.316123 -0.09964058
-0.02989786 -0.1900386 -0.1982586
-0.07242987 -0.1781301 -0.1990288
-0.09030199 0.06310627 -0.2108053
-0.03496059 0.01746879 -0.2317868
-0.03904726 0.09536345 -0.2521573
-0.1137321 0.1343551 -0.2465505
-0.124521 0.1395527 -0.2806124
-0.138621 0.1130878 -0.3902055
-0.0346604 0.1034999 -0.3880138
-0.1181601 0.1276171 -0.5365499
-0.1874031 0.1263076 -0.5064969
-0.2205931 0.1760659 -0.5842136
-0.0790718 0.182988 -0.615599
-0.1269069 0.1525369 -0.5779811
-0.1561803 0.2444937 -0.6509866
-0.0775425 0.260206 -0.661002
-0.0792455 0.219987 -0.642965
-0.2182527 0.2480757 -0.6407747
-0.1800333 0.3031669 -0.6614691
-0.0750102 0.301309 -0.668637
-0.1252848 0.56246 -0.0012963
-0.0705405 0.5703417 0.02129737
-0.03489387 0.7393293 -0.08716663
-0.0504326 0.666442 -0.034872
-0.1652132 0.6137963 -0.07886159
-0.1983109 0.5649528 -0.06521499
-0.2273414 0.6588985 -0.4653383
-0.2541448 0.5962627 -0.4662923
-0.165805 0.9429894 -0.2931303
-0.2009679 0.9549065 -0.2765921
-0.2041839 0.7682782 -0.2565944
-0.1969455 0.7949213 -0.2393363
-0.1186461 0.8119118 -0.3237523
-0.08217636 0.8235174 -0.2672519
-0.2347431 0.7599452 -0.2436765
-0.2138752 0.7598494 -0.2108366
-0.1921482 0.7740274 -0.2209771
-0.2551069 0.7230502 -0.3280267
-0.3548786 0.7131254 -0.3251914
-0.2611437 0.6944373 -0.3528213
-0.3853081 0.7491491 -0.2856588
-0.3928684 0.7601642 -0.238618
-0.2562866 0.7487856 -0.1894138
-0.4044022 0.7531943 -0.2034961
-0.3040095 0.7639009 -0.2265765
-0.4012032 0.7367494 -0.1741414
-0.3504234 0.699693 -0.1506336
-0.4011538 0.6974383 -0.1489451
-0.1789365 0.694602 -0.1525525
-0.2484582 0.7012284 -0.1590159
-0.06357773 0.8043785 -0.1893182
-0.1202777 0.7744731 -0.1795539
-0.0818659 0.7652574 -0.1514529
-0.1217814 0.7058692 -0.1331973
-0.009173609 0.7795847 -0.1198514
-0.05571051 0.8271879 -0.3363725
0.01415681 0.8051552 -0.4125337
-0.1260107 0.7827211 -0.4113713
-0.1342843 0.7978747 -0.378045
-0.003244198 0.8359585 -0.2657559
-0.04508886 0.8232626 -0.2231827
-0.1989383 0.739098 -0.4190209
-0.1774705 0.775529 -0.3804725
-0.232954 0.7228533 -0.3573643
-0.2340759 0.7412734 -0.3069614
-0.192398 0.8684151 -0.3318683
-0.1849688 0.7802349 -0.31408
-0.2293631 0.9100652 -0.2824409
-0.2102333 0.9125715 -0.3161434
-0.1269891 0.8874839 -0.2956354
-0.1764534 0.9046744 -0.3232518
-0.1148366 0.8940048 -0.2546531
-0.1407047 0.9085425 -0.2261696
-0.2167648 0.8718616 -0.244736
-0.1933214 -0.4859153 0.419097
-0.1808726 -0.4883003 0.4716834
-0.1548845 -0.4834508 0.5288669
-0.04683137 -0.4540343 0.6845142
-0.07482134 -0.450405 0.1911456
-0.138015 -0.443895 0.192281
-0.1822041 -0.4445108 0.2666844
-0.1727585 -0.4807371 0.3482019
-0.2283908 -0.4366907 0.3511399
-0.07737903 -0.5196337 0.4929414
-0.0819512 -0.4657696 0.6352777
-0.07740014 -0.5264668 0.415849
-0.09379911 -0.5118344 0.3591992
-0.1485015 -0.05411975 0.9604032
-0.1359598 -0.01339431 0.9560494
-0.2109592 -0.04893212 0.9243081
-0.2742548 -0.05518241 0.868618
-0.1154831 0.07804251 0.9111673
-0.03423752 -0.1142797 0.985762
-0.1053238 -0.2159013 0.9555333
-0.1048422 -0.0560237 0.9784314
-0.07651186 -0.06719821 0.9936033
-0.07187351 -0.03671865 1.002521
-0.0251977 -0.07124517 1.047789
3 222 223 229
3 53 1 220
3 229 220 1
3 51 223 221
3 224 52 225
3 226 225 51
3 223 51 225
3 52 227 225
3 220 225 227
3 228 229 54
3 1 54 229
3 55 233 230
3 228 230 233
3 576 575 233
3 231 233 575
3 232 233 55
3 222 231 575
3 403 235 234
3 237 234 57
3 236 57 234
3 239 235 499
3 238 499 235
3 240 235 403
3 499 500 239
3 241 239 500
3 243 56 236
3 60 242 58
3 2 58 242
3 60 236 56
3 243 59 56
3 302 242 301
3 244 301 242
3 59 244 56
3 0 248 247
3 61 246 245
3 247 245 246
3 251 61 245
3 252 245 249
3 57 253 237
3 255 237 253
3 64 255 254
3 257 256 259
3 254 259 64
3 258 64 259
3 260 259 256
3 260 281 53
3 1 53 281
3 261 279 281
3 261 256 65
3 66 65 256
3 279 261 278
3 276 262 67
3 58 2 266
3 264 266 2
3 66 265 263
3 257 63 265
3 266 63 253
3 248 0 268
3 269 68 270
3 271 270 267
3 270 7 69
3 268 69 248
3 275 273 274
3 274 69 7
3 272 248 274
3 275 7 277
3 262 276 277
3 12 277 276
3 282 70 68
3 277 7 70
3 278 65 262
3 70 282 278
3 54 1 280
3 281 280 1
3 68 269 282
3 280 282 269
3 283 285 71
3 284 71 285
3 284 287 286
3 289 286 288
3 296 288 290
3 10 474 73
3 72 73 474
3 11 299 293
3 291 293 299
3 76 75 72
3 290 72 75
3 458 76 294
3 292 74 76
3 75 76 74
3 67 295 276
3 295 296 276
3 275 297 273
3 298 273 297
3 291 298 74
3 299 298 291
3 300 273 298
3 301 77 302
3 303 77 313
3 79 303 78
3 285 283 303
3 78 2 79
3 304 12 276
3 296 75 304
3 264 78 265
3 305 265 78
3 283 71 289
3 305 306 295
3 307 80 308
3 309 308 80
3 308 77 301
3 315 81 309
3 311 310 313
3 312 313 310
3 321 314 322
3 315 322 314
3 81 315 314
3 317 318 83
3 316 83 318
3 314 321 318
3 317 14 319
3 83 431 317
3 314 319 81
3 311 81 319
3 310 319 14
3 320 322 84
3 13 84 322
3 320 512 85
3 86 324 325
3 323 324 85
3 326 318 321
3 326 86 325
3 327 329 325
3 87 331 330
3 332 330 331
3 325 324 327
3 332 327 324
3 331 88 335
3 335 333 328
3 334 335 88
3 337 340 90
3 336 90 340
3 338 93 340
3 339 340 93
3 342 344 91
3 341 91 344
3 90 343 337
3 344 337 343
3 92 346 345
3 348 345 346
3 91 347 342
3 348 342 347
3 93 338 16
3 350 16 338
3 350 346 349
3 92 349 346
3 352 355 95
3 351 95 355
3 355 353 354
3 361 354 353
3 357 358 356
3 95 358 352
3 96 359 17
3 360 17 359
3 356 380 357
3 360 357 380
3 363 361 353
3 359 96 363
3 362 363 96
3 267 364 271
3 366 271 364
3 372 365 366
3 268 368 267
3 364 267 368
3 361 369 354
3 371 354 369
3 367 370 368
3 371 368 370
3 366 373 372
3 373 369 361
3 378 374 98
3 471 98 374
3 9 374 99
3 379 377 375
3 98 376 378
3 377 378 376
3 378 380 356
3 380 377 379
3 99 374 381
3 381 378 356
3 385 383 372
3 365 372 383
3 230 383 55
3 382 55 383
3 96 384 362
3 385 362 384
3 384 96 386
3 17 386 96
3 55 382 232
3 387 232 382
3 379 375 386
3 387 386 375
3 99 389 9
3 389 388 251
3 61 251 388
3 390 391 95
3 358 95 391
3 389 99 391
3 381 391 99
3 367 393 370
3 392 370 393
3 95 351 390
3 392 390 351
3 388 393 61
3 246 61 393
3 100 396 394
3 64 258 395
3 396 395 258
3 397 398 90
3 343 90 398
3 396 100 398
3 401 402 399
3 400 399 402
3 90 336 397
3 400 397 336
3 395 402 64
3 255 64 402
3 405 240 403
3 405 410 404
3 409 404 410
3 234 406 403
3 93 407 339
3 408 339 407
3 401 399 406
3 408 406 399
3 407 93 410
3 16 410 93
3 102 412 411
3 414 411 412
3 52 224 413
3 414 413 224
3 103 412 91
3 347 91 412
3 91 341 103
3 415 103 341
3 413 416 52
3 227 52 416
3 394 416 100
3 415 100 416
3 404 409 417
3 418 417 104
3 105 104 417
3 92 419 349
3 420 349 419
3 420 417 409
3 345 102 422
3 92 345 419
3 104 105 421
3 422 421 105
3 411 422 102
3 424 425 106
3 423 106 425
3 333 425 328
3 432 328 425
3 426 107 424
3 108 424 107
3 430 427 21
3 107 428 108
3 427 108 428
3 429 431 83
3 427 430 431
3 328 432 329
3 83 316 429
3 432 429 316
3 530 109 434
3 556 434 112
3 433 112 434
3 110 435 428
3 113 428 435
3 113 434 109
3 111 437 436
3 435 436 437
3 433 438 112
3 449 112 438
3 437 111 438
3 428 107 110
3 443 110 107
3 442 440 439
3 441 439 440
3 107 426 441
3 443 440 451
3 444 445 114
3 442 445 440
3 115 447 446
3 114 446 444
3 447 444 446
3 111 448 438
3 450 438 448
3 447 115 450
3 449 450 115
3 440 445 451
3 451 448 436
3 111 436 448
3 453 452 116
3 117 116 26
3 478 453 287
3 456 455 454
3 457 454 458
3 458 455 292
3 460 194 459
3 462 463 459
3 292 455 460
3 292 460 293
3 463 293 460
3 464 467 869
3 466 464 465
3 466 418 467
3 104 467 418
3 421 467 104
3 577 468 584
3 376 98 469
3 468 577 469
3 118 119 470
3 471 470 119
3 98 471 469
3 878 473 26
3 454 457 472
3 10 473 474
3 883 475 884
3 476 884 475
3 478 312 477
3 453 478 475
3 483 481 477
3 476 477 481
3 310 477 312
3 887 480 888
3 480 479 120
3 480 887 481
3 14 482 310
3 483 310 482
3 120 479 526
3 482 526 479
3 487 484 485
3 122 485 484
3 121 489 488
3 486 15 487
3 489 487 15
3 484 490 122
3 489 121 490
3 493 491 492
3 485 122 494
3 201 494 493
3 490 334 495
3 88 495 334
3 496 495 88
3 900 118 498
3 249 498 252
3 470 498 118
3 250 604 249
3 498 249 604
3 123 904 500
3 501 466 465
3 501 499 238
3 241 500 124
3 904 124 500
3 124 503 502
3 504 59 125
3 502 125 59
3 59 243 502
3 241 502 243
3 506 125 507
3 510 509 511
3 508 509 505
3 507 505 509
3 125 506 504
3 506 510 307
3 80 307 510
3 509 912 126
3 514 126 22
3 512 84 514
3 126 514 84
3 511 84 13
3 22 515 514
3 517 516 127
3 128 518 85
3 323 85 518
3 128 512 514
3 85 512 128
3 520 127 519
3 516 519 127
3 492 491 521
3 491 496 521
3 522 521 496
3 518 127 523
3 520 523 127
3 330 523 87
3 522 87 523
3 524 120 130
3 526 430 527
3 130 120 526
3 21 527 430
3 532 529 528
3 530 528 529
3 109 530 527
3 525 524 531
3 532 531 524
3 488 533 121
3 423 533 106
3 534 535 488
3 132 572 573
3 536 131 132
3 537 132 131
3 541 542 543
3 541 543 548
3 548 555 547
3 549 550 547
3 549 551 552
3 134 552 114
3 446 114 552
3 553 134 114
3 550 553 554
3 439 553 442
3 556 557 20
3 555 20 557
3 115 135 449
3 115 446 135
3 551 135 446
3 555 557 547
3 544 546 558
3 958 560 559
3 561 560 532
3 25 560 958
3 555 136 20
3 532 528 561
3 136 561 528
3 136 555 543
3 563 562 133
3 545 133 562
3 538 563 133
3 960 565 486
3 15 486 565
3 563 564 565
3 545 562 546
3 534 565 564
3 550 554 566
3 539 566 538
3 564 538 566
3 534 566 535
3 132 567 536
3 574 567 573
3 567 574 540
3 545 568 133
3 569 133 568
3 137 569 536
3 131 536 569
3 137 133 569
3 546 570 571
3 570 537 571
3 131 568 571
3 131 571 537
3 545 546 568
3 571 568 546
3 541 574 542
3 221 575 138
3 139 138 575
3 577 584 140
3 869 467 581
3 467 579 581
3 581 580 582
3 141 226 51
3 580 578 141
3 51 221 583
3 138 583 221
3 587 584 586
3 584 587 140
3 588 589 585
3 587 589 139
3 139 576 587
3 140 587 576
3 588 585 593
3 590 593 585
3 592 591 582
3 141 592 580
3 582 580 592
3 583 593 141
3 592 141 593
3 599 607 597
3 250 597 594
3 62 595 250
3 248 272 595
3 247 595 62
3 596 595 272
3 596 142 597
3 599 597 142
3 598 300 299
3 11 598 299
3 598 602 599
3 601 599 602
3 603 602 461
3 996 497 605
3 594 606 605
3 607 609 606
3 608 609 601
3 143 605 606
3 610 1001 612
3 615 616 613
3 622 613 616
3 621 622 618
3 144 620 614
3 616 614 620
3 618 620 617
3 619 620 144
3 617 986 618
3 629 627 622
3 613 622 627
3 621 623 146
3 625 626 145
3 624 145 626
3 146 623 626
3 145 628 625
3 629 625 628
3 633 631 632
3 28 632 631
3 805 631 630
3 30 905 634
3 635 805 630
3 636 630 634
3 642 639 637
3 148 641 640
3 642 641 633
3 149 647 643
3 644 643 150
3 646 647 149
3 645 997 647
3 648 647 997
3 649 150 643
3 151 152 650
3 632 28 655
3 650 655 28
3 651 658 652
3 653 652 151
3 152 151 652
3 654 652 658
3 153 656 159
3 651 615 656
3 613 656 615
3 159 657 153
3 659 658 660
3 153 660 658
3 707 154 676
3 661 655 156
3 654 662 156
3 659 40 662
3 150 663 644
3 665 675 673
3 663 150 675
3 667 665 673
3 668 664 669
3 667 666 669
3 158 670 157
3 700 157 670
3 158 671 672
3 674 673 672
3 994 670 150
3 675 150 670
3 676 677 707
3 708 707 677
3 674 657 666
3 657 676 660
3 672 677 674
3 671 677 672
3 627 678 613
3 656 613 678
3 678 669 666
3 704 679 36
3 683 36 679
3 683 681 863
3 680 688 681
3 863 682 683
3 684 696 687
3 706 684 689
3 160 685 686
3 681 688 686
3 688 689 684
3 39 690 695
3 695 692 694
3 697 687 696
3 698 707 706
3 154 707 698
3 698 709 154
3 700 699 157
3 691 690 699
3 638 637 702
3 701 161 702
3 701 703 704
3 161 701 712
3 704 712 701
3 39 696 705
3 706 705 696
3 708 699 705
3 709 155 662
3 698 680 709
3 703 155 704
3 679 704 155
3 711 702 161
3 710 163 711
3 713 712 162
3 42 163 710
3 714 710 713
3 713 715 714
3 165 716 715
3 714 715 716
3 41 719 717
3 715 713 717
3 164 720 718
3 720 717 719
3 715 721 165
3 43 721 164
3 720 164 721
3 729 727 716
3 723 166 722
3 723 165 721
3 724 725 726
3 722 166 726
3 729 725 728
3 829 730 731
3 737 733 736
3 44 736 733
3 733 730 732
3 734 735 737
3 166 731 726
3 739 726 731
3 739 735 738
3 741 744 167
3 740 167 744
3 742 170 744
3 743 744 170
3 746 748 168
3 745 168 748
3 167 747 741
3 748 741 747
3 169 750 749
3 751 749 750
3 168 824 746
3 751 746 824
3 170 742 752
3 754 752 742
3 750 169 754
3 753 754 169
3 756 759 762
3 755 762 759
3 757 174 759
3 758 759 174
3 761 763 172
3 760 172 763
3 763 756 762
3 173 765 764
3 767 764 765
3 172 766 761
3 767 761 766
3 174 757 768
3 769 768 757
3 765 173 769
3 176 772 770
3 664 668 771
3 772 771 668
3 45 762 773
3 772 176 45
3 776 777 774
3 775 774 777
3 762 755 773
3 775 773 755
3 771 777 664
3 663 664 777
3 778 177 779
3 780 779 179
3 180 179 779
3 781 173 180
3 177 781 779
3 764 178 784
3 180 173 764
3 179 180 782
3 784 782 180
3 178 783 784
3 785 787 145
3 628 145 787
3 770 787 176
3 786 176 787
3 178 788 783
3 789 783 788
3 145 624 785
3 789 785 624
3 181 788 172
3 766 172 788
3 172 760 181
3 786 181 760
3 790 646 182
3 149 182 646
3 177 778 790
3 182 149 791
3 643 791 149
3 174 792 758
3 793 758 792
3 776 774 791
3 793 791 774
3 790 794 177
3 781 177 794
3 794 792 768
3 174 768 792
3 151 185 653
3 796 653 185
3 184 795 796
3 650 797 151
3 185 151 797
3 170 798 743
3 800 743 798
3 183 799 797
3 800 797 799
3 796 802 184
3 801 184 802
3 798 170 802
3 752 802 170
3 806 803 804
3 186 804 803
3 806 805 635
3 807 804 167
3 747 167 804
3 183 808 799
3 809 799 808
3 167 740 807
3 809 807 740
3 631 805 808
3 144 810 619
3 812 619 810
3 815 813 184
3 795 184 813
3 614 813 144
3 810 144 813
3 169 814 753
3 815 753 814
3 184 801 815
3 812 817 811
3 816 811 817
3 749 817 169
3 814 169 817
3 819 820 188
3 818 188 820
3 803 820 186
3 188 821 819
3 822 819 821
3 168 823 824
3 811 816 822
3 824 822 816
3 825 186 820
3 168 745 823
3 825 823 745
3 732 730 827
3 826 827 834
3 836 834 827
3 164 828 43
3 829 43 828
3 730 829 827
3 833 718 830
3 828 164 718
3 189 832 831
3 833 831 832
3 830 47 833
3 835 836 189
3 832 189 836
3 953 950 838
3 837 838 950
3 839 190 840
3 837 950 840
3 951 840 950
3 844 841 843
3 48 843 841
3 841 840 190
3 191 838 842
3 844 842 838
3 849 846 843
3 845 189 846
3 831 846 189
3 849 847 848
3 843 48 849
3 852 850 851
3 852 835 845
3 189 845 835
3 850 848 854
3 193 853 854
3 855 847 190
3 848 847 854
3 857 858 192
3 856 192 858
3 190 839 855
3 858 855 839
3 853 193 859
3 857 859 193
3 192 860 857
3 864 863 862
3 863 864 452
3 866 456 454
3 38 866 695
3 697 695 866
3 38 194 456
3 694 867 194
3 459 194 867
3 38 694 194
3 692 195 867
3 462 459 867
3 196 868 869
3 869 868 464
3 821 188 870
3 871 870 196
3 868 196 870
3 901 872 903
3 872 870 818
3 188 818 870
3 868 872 464
3 877 119 873
3 179 876 780
3 780 873 874
3 877 876 981
3 875 981 876
3 782 876 179
3 119 877 468
3 878 864 880
3 862 879 864
3 880 864 879
3 685 865 880
3 686 685 879
3 878 880 472
3 197 882 881
3 884 881 882
3 41 885 197
3 882 197 885
3 885 861 882
3 452 883 861
3 882 861 883
3 888 886 198
3 886 889 198
3 890 198 889
3 719 41 890
3 487 485 891
3 896 893 892
3 891 898 893
3 199 895 894
3 896 894 895
3 892 930 896
3 891 895 487
3 200 201 492
3 200 736 897
3 897 893 898
3 44 897 736
3 898 494 201
3 874 873 900
3 465 901 123
3 634 902 636
3 903 636 902
3 905 904 902
3 905 902 634
3 30 641 148
3 907 503 124
3 906 907 148
3 907 906 908
3 202 711 163
3 909 163 42
3 908 508 505
3 909 910 508
3 912 508 910
3 910 727 911
3 728 203 911
3 203 22 911
3 912 911 22
3 22 203 515
3 913 513 515
3 725 914 728
3 914 203 728
3 917 915 204
3 724 915 725
3 914 725 915
3 917 517 913
3 513 913 517
3 204 916 917
3 918 920 204
3 916 204 920
3 920 919 519
3 129 519 919
3 738 735 921
3 915 921 204
3 918 204 921
3 735 734 921
3 922 921 734
3 919 923 129
3 521 129 923
3 922 200 923
3 492 923 200
3 925 924 886
3 926 205 927
3 525 531 925
3 927 925 531
3 928 205 957
3 47 830 929
3 842 929 191
3 928 191 929
3 924 889 886
3 889 929 830
3 826 834 931
3 930 892 931
3 965 930 206
3 933 207 208
3 208 932 933
3 972 971 933
3 972 933 932
3 934 213 970
3 935 940 209
3 955 209 211
3 954 209 955
3 211 940 939
3 210 938 968
3 942 943 851
3 942 853 944
3 851 850 942
3 859 944 853
3 945 948 944
3 210 944 948
3 945 947 948
3 948 946 939
3 192 949 860
3 947 860 949
3 192 856 949
3 951 949 856
3 953 952 946
3 211 946 952
3 955 956 954
3 205 956 957
3 957 955 952
3 211 952 955
3 25 958 926
3 956 205 926
3 964 954 559
3 212 959 23
3 960 199 961
3 23 960 212
3 962 961 966
3 965 966 961
3 894 961 199
3 959 962 936
3 558 963 964
3 964 963 937
3 49 964 937
3 943 941 967
3 965 206 967
3 966 968 970
3 967 941 968
3 971 213 977
3 969 936 50
3 932 974 972
3 969 972 974
3 937 975 49
3 975 973 208
3 932 208 973
3 935 209 977
3 209 976 214
3 977 214 207
3 33 978 623
3 979 623 978
3 980 988 626
3 982 196 581
3 871 982 983
3 983 982 984
3 985 978 986
3 984 986 617
3 978 33 986
3 586 584 987
3 988 987 584
3 987 979 989
3 978 989 979
3 590 990 591
3 978 990 989
3 215 985 984
3 998 992 991
3 993 994 649
3 217 649 648
3 150 649 994
3 217 216 991
3 218 995 693
3 700 218 691
3 691 218 693
3 218 700 994
3 219 1000 600
3 219 195 995
3 600 603 219
3 1000 219 992
3 995 992 219
3 216 996 27
3 996 997 899
3 217 997 216
3 992 998 1000
3 608 600 1000
3 143 999 27
3 999 612 1001
3 229 223 220
3 223 222 221
3 225 226 224
3 3 224 226
3 6 53 227
3 220 227 53
3 225 220 223
3 231 222 228
3 229 228 222
3 8 230 54
3 228 54 230
3 233 231 228
3 233 232 576
3 5 576 232
3 575 221 222
3 236 234 239
3 235 239 234
3 4 238 240
3 235 240 238
3 243 239 241
3 239 243 236
3 242 302 2
3 236 60 57
3 58 57 60
3 301 244 504
3 56 244 60
3 242 60 244
3 247 246 0
3 62 245 247
3 250 249 62
3 9 251 252
3 245 252 251
3 62 249 245
3 253 254 255
3 254 253 63
3 256 257 66
3 63 257 254
3 259 254 257
3 6 258 260
3 259 260 258
3 281 260 261
3 6 260 53
3 256 261 260
3 65 67 262
3 278 261 65
3 65 66 67
3 263 67 66
3 266 264 63
3 264 265 63
3 265 66 257
3 57 58 253
3 266 253 58
3 267 69 268
3 8 269 271
3 270 271 269
3 69 267 270
3 68 7 270
3 274 273 272
3 69 274 248
3 7 275 274
3 277 12 275
3 277 70 262
3 68 70 7
3 278 262 70
3 281 279 280
3 282 279 278
3 8 54 269
3 280 269 54
3 282 280 279
3 10 286 287
3 71 284 286
3 289 288 306
3 286 289 71
3 73 72 290
3 290 288 73
3 286 73 288
3 73 286 10
3 294 72 474
3 74 292 291
3 293 291 292
3 72 294 76
3 76 458 292
3 296 295 306
3 263 295 67
3 306 288 296
3 12 297 275
3 297 74 298
3 299 300 298
3 273 300 272
3 302 77 79
3 303 313 285
3 77 303 79
3 78 303 283
3 302 79 2
3 74 297 75
3 304 75 297
3 297 12 304
3 276 296 304
3 75 296 290
3 265 305 263
3 295 263 305
3 78 283 305
3 78 264 2
3 283 289 305
3 306 305 289
3 504 307 301
3 308 301 307
3 309 82 308
3 77 308 82
3 13 315 80
3 309 80 315
3 82 309 81
3 81 311 82
3 313 82 311
3 285 313 312
3 82 313 77
3 322 315 13
3 318 317 314
3 431 14 317
3 319 314 317
3 319 310 311
3 86 321 320
3 322 320 321
3 84 512 320
3 85 86 320
3 324 86 85
3 318 326 316
3 325 316 326
3 321 86 326
3 316 325 329
3 89 328 327
3 329 327 328
3 330 332 323
3 324 323 332
3 327 332 89
3 331 89 332
3 331 87 88
3 496 88 87
3 89 331 335
3 335 334 333
3 89 335 328
3 340 339 336
3 399 336 339
3 94 338 337
3 340 337 338
3 341 344 18
3 343 18 344
3 94 337 342
3 344 342 337
3 345 348 347
3 94 342 346
3 348 346 342
3 349 16 350
3 94 346 338
3 350 338 346
3 354 351 355
3 97 353 352
3 355 352 353
3 97 352 357
3 358 357 352
3 380 17 360
3 357 360 97
3 359 97 360
3 361 363 373
3 362 373 363
3 97 359 353
3 363 353 359
3 8 271 365
3 366 365 271
3 368 268 367
3 0 367 268
3 354 371 351
3 370 351 371
3 368 371 364
3 369 364 371
3 364 369 366
3 373 366 369
3 374 9 471
3 5 375 376
3 377 376 375
3 379 17 380
3 380 378 377
3 356 358 381
3 374 378 381
3 8 365 230
3 383 230 365
3 384 382 385
3 383 385 382
3 362 385 373
3 372 373 385
3 379 386 17
3 5 232 375
3 387 375 232
3 386 387 384
3 382 384 387
3 389 251 9
3 381 358 391
3 388 389 390
3 391 390 389
3 370 392 351
3 390 392 388
3 393 388 392
3 393 367 246
3 0 246 367
3 6 394 258
3 396 258 394
3 343 398 18
3 100 18 398
3 395 396 397
3 398 397 396
3 336 399 400
3 397 400 395
3 402 395 400
3 402 401 255
3 237 255 401
3 240 405 4
3 404 4 405
3 403 101 405
3 410 405 101
3 401 406 237
3 234 237 406
3 101 403 406
3 339 408 399
3 406 408 101
3 407 101 408
3 409 410 16
3 101 407 410
3 411 414 3
3 224 3 414
3 413 414 103
3 412 103 414
3 102 347 412
3 100 415 18
3 341 18 415
3 6 227 394
3 416 394 227
3 103 415 413
3 416 413 415
3 4 404 418
3 417 418 404
3 349 420 16
3 409 16 420
3 417 420 105
3 419 105 420
3 102 345 347
3 105 419 422
3 345 422 419
3 3 421 411
3 422 411 421
3 334 423 333
3 425 333 423
3 108 432 424
3 425 424 432
3 19 426 106
3 424 106 426
3 428 21 427
3 14 431 430
3 108 427 429
3 431 429 427
3 329 432 316
3 429 432 108
3 20 530 556
3 434 556 530
3 113 433 434
3 428 113 21
3 109 21 113
3 110 436 435
3 437 113 435
3 113 437 433
3 438 433 437
3 107 441 443
3 19 439 426
3 441 426 439
3 110 443 436
3 451 436 443
3 440 443 441
3 445 442 114
3 438 450 449
3 444 447 448
3 450 448 447
3 448 451 444
3 445 444 451
3 116 117 453
3 287 117 10
3 26 10 117
3 285 478 284
3 287 284 478
3 117 287 453
3 458 454 455
3 194 455 456
3 458 294 457
3 455 194 460
3 463 462 461
3 461 11 463
3 293 463 11
3 459 463 460
3 467 464 466
3 418 466 4
3 467 421 579
3 3 579 421
3 469 577 376
3 5 376 577
3 119 468 469
3 470 471 9
3 469 471 119
3 472 473 878
3 473 472 457
3 457 294 474
3 457 474 473
3 473 10 26
3 481 881 476
3 884 476 881
3 452 453 883
3 475 883 453
3 312 478 285
3 477 475 478
3 477 310 483
3 475 477 476
3 120 24 480
3 888 480 24
3 881 481 887
3 479 480 481
3 482 479 483
3 481 483 479
3 482 14 526
3 199 486 487
3 488 489 15
3 487 489 484
3 334 490 121
3 490 484 489
3 201 493 492
3 122 491 494
3 493 494 491
3 490 495 122
3 491 122 495
3 495 496 491
3 604 497 498
3 899 498 497
3 900 498 899
3 9 252 470
3 498 470 252
3 123 500 499
3 238 4 501
3 466 501 4
3 499 501 123
3 465 123 501
3 124 502 241
3 125 502 503
3 59 504 244
3 505 507 503
3 125 503 507
3 506 507 510
3 509 510 507
3 13 80 511
3 510 511 80
3 307 504 506
3 912 509 508
3 511 509 126
3 912 22 126
3 126 84 511
3 128 514 513
3 515 513 514
3 513 517 128
3 127 128 517
3 518 128 127
3 129 520 519
3 520 129 521
3 87 522 496
3 521 522 520
3 323 518 330
3 523 330 518
3 523 520 522
3 524 525 120
3 24 120 525
3 430 526 14
3 526 527 130
3 527 21 109
3 528 530 20
3 130 527 529
3 530 529 527
3 531 532 25
3 130 529 524
3 532 524 529
3 334 121 423
3 533 423 121
3 535 533 488
3 15 534 488
3 106 533 19
3 535 19 533
3 132 537 572
3 544 543 542
3 570 546 544
3 548 547 540
3 548 540 541
3 540 547 550
3 134 550 549
3 551 549 547
3 134 549 552
3 114 442 553
3 19 554 439
3 553 439 554
3 134 553 550
3 112 135 556
3 557 556 135
3 449 135 112
3 552 551 446
3 551 547 557
3 551 557 135
3 136 543 558
3 544 558 543
3 559 560 558
3 136 558 560
3 560 25 532
3 136 560 561
3 136 528 20
3 548 543 555
3 563 23 562
3 564 563 538
3 565 960 563
3 486 199 960
3 23 563 960
3 963 558 546
3 562 963 546
3 23 963 562
3 565 534 15
3 540 550 539
3 566 539 550
3 19 535 554
3 566 554 535
3 564 566 534
3 137 539 538
3 137 567 539
3 137 536 567
3 132 573 567
3 541 540 574
3 540 539 567
3 568 131 569
3 133 137 538
3 537 570 572
3 573 542 574
3 542 570 544
3 542 573 570
3 572 570 573
3 5 140 576
3 139 575 576
3 577 140 5
3 581 196 869
3 578 579 3
3 578 581 579
3 580 581 578
3 3 226 578
3 141 578 226
3 141 51 583
3 589 586 585
3 586 589 587
3 138 139 588
3 589 588 139
3 593 590 592
3 591 592 590
3 138 588 583
3 593 583 588
3 607 594 597
3 595 596 597
3 595 597 250
3 595 247 248
3 272 300 596
3 142 596 300
3 142 300 598
3 599 142 598
3 602 600 601
3 599 601 607
3 598 11 602
3 461 602 11
3 461 462 603
3 600 602 603
3 605 497 594
3 604 594 497
3 250 594 604
3 27 996 605
3 606 594 607
3 609 611 606
3 609 607 601
3 601 600 608
3 610 609 608
3 605 143 27
3 612 143 611
3 606 611 143
3 609 610 611
3 612 611 610
3 622 616 618
3 34 614 615
3 616 615 614
3 620 618 616
3 620 619 617
3 29 617 619
3 618 986 621
3 33 621 986
3 146 629 621
3 622 621 629
3 623 621 33
3 32 624 626
3 626 625 146
3 35 627 628
3 629 628 627
3 625 629 146
3 630 631 147
3 633 147 631
3 147 633 641
3 641 30 147
3 634 147 30
3 31 635 636
3 630 636 635
3 147 634 630
3 703 637 639
3 640 642 638
3 637 638 642
3 638 37 640
3 639 642 632
3 633 632 642
3 641 642 640
3 648 643 647
3 874 645 646
3 647 646 645
3 217 648 997
3 643 648 649
3 655 650 152
3 34 651 653
3 652 653 651
3 658 659 654
3 652 654 152
3 156 152 654
3 152 156 655
3 656 153 651
3 34 615 651
3 658 651 153
3 660 676 154
3 40 659 154
3 660 154 659
3 657 660 153
3 639 661 703
3 155 703 661
3 155 661 156
3 632 655 639
3 661 639 655
3 662 654 659
3 155 156 662
3 664 663 665
3 675 665 663
3 666 667 674
3 673 674 667
3 35 668 669
3 665 667 664
3 669 664 667
3 670 994 700
3 157 671 158
3 158 672 673
3 673 675 158
3 670 158 675
3 677 676 674
3 657 674 676
3 677 671 708
3 656 678 159
3 35 669 627
3 678 627 669
3 666 159 678
3 666 657 159
3 679 680 683
3 689 688 680
3 862 863 681
3 681 683 680
3 683 682 36
3 706 696 684
3 160 684 687
3 160 687 685
3 862 681 686
3 160 686 688
3 684 160 688
3 693 690 691
3 690 693 692
3 694 38 695
3 692 695 690
3 696 39 697
3 695 697 39
3 687 697 685
3 698 706 689
3 40 154 709
3 671 157 699
3 691 699 700
3 705 699 39
3 690 39 699
3 37 638 702
3 702 637 701
3 637 703 701
3 704 36 712
3 705 706 708
3 707 708 706
3 699 708 671
3 662 40 709
3 155 709 679
3 689 680 698
3 680 679 709
3 37 702 711
3 710 711 161
3 36 162 712
3 162 41 713
3 712 713 161
3 710 714 42
3 161 713 710
3 716 42 714
3 717 713 41
3 718 720 719
3 717 720 715
3 721 715 720
3 42 716 727
3 722 729 165
3 716 165 729
3 166 723 43
3 721 43 723
3 165 723 722
3 726 725 722
3 727 729 728
3 725 729 722
3 43 829 166
3 731 166 829
3 737 731 730
3 733 732 44
3 730 733 737
3 737 736 734
3 200 734 736
3 726 739 724
3 738 724 739
3 735 739 737
3 731 737 739
3 744 743 740
3 799 740 743
3 171 742 741
3 744 741 742
3 745 748 747
3 171 741 746
3 748 746 741
3 749 751 824
3 171 746 750
3 751 750 746
3 752 754 801
3 753 801 754
3 171 750 742
3 754 742 750
3 759 758 755
3 774 755 758
3 175 757 756
3 759 756 757
3 760 763 45
3 762 45 763
3 175 756 761
3 763 761 756
3 764 767 766
3 761 767 175
3 765 175 767
3 173 768 769
3 175 765 757
3 769 757 765
3 35 770 668
3 772 668 770
3 771 772 773
3 45 773 772
3 755 774 775
3 773 775 771
3 777 771 775
3 777 776 663
3 644 663 776
3 874 778 780
3 779 780 778
3 173 781 768
3 779 781 180
3 178 764 766
3 764 784 180
3 32 782 783
3 784 783 782
3 35 628 770
3 787 770 628
3 181 786 785
3 787 785 786
3 32 783 624
3 789 624 783
3 785 789 181
3 788 181 789
3 178 766 788
3 176 786 45
3 760 45 786
3 874 646 778
3 790 778 646
3 791 643 776
3 644 776 643
3 758 793 774
3 791 793 182
3 792 182 793
3 781 794 768
3 182 792 790
3 794 790 792
3 34 653 795
3 796 795 653
3 797 650 183
3 28 183 650
3 743 800 799
3 797 800 185
3 798 185 800
3 752 801 802
3 185 798 796
3 802 796 798
3 803 806 31
3 635 31 806
3 805 806 187
3 804 187 806
3 186 747 804
3 187 804 807
3 740 799 809
3 807 809 187
3 808 187 809
3 183 28 808
3 631 808 28
3 187 808 805
3 619 812 29
3 811 29 812
3 810 814 812
3 34 795 614
3 813 614 795
3 814 810 815
3 813 815 810
3 753 815 801
3 817 749 816
3 824 816 749
3 817 812 814
3 31 818 803
3 820 803 818
3 29 811 821
3 822 821 811
3 819 822 823
3 824 823 822
3 186 825 747
3 745 747 825
3 823 825 819
3 820 819 825
3 44 732 826
3 827 826 732
3 832 836 827
3 827 829 832
3 828 832 829
3 719 830 718
3 832 828 833
3 718 833 828
3 831 833 47
3 46 834 835
3 836 835 834
3 952 953 191
3 838 191 953
3 840 951 839
3 856 839 951
3 190 48 841
3 840 841 837
3 844 837 841
3 843 47 844
3 842 844 47
3 838 837 844
3 846 831 843
3 47 843 831
3 846 849 845
3 847 849 48
3 848 845 849
3 845 848 852
3 850 852 848
3 46 835 851
3 852 851 835
3 854 853 850
3 190 847 48
3 854 847 193
3 855 193 847
3 839 856 858
3 193 855 857
3 858 857 855
3 859 857 860
3 36 682 861
3 863 861 682
3 452 861 863
3 26 116 864
3 452 864 116
3 865 866 454
3 456 866 38
3 685 697 865
3 866 865 697
3 867 694 692
3 195 692 693
3 867 195 462
3 870 871 821
3 29 821 871
3 903 872 31
3 818 31 872
3 870 872 868
3 872 901 464
3 465 464 901
3 118 873 119
3 873 780 877
3 876 877 780
3 876 782 875
3 32 875 782
3 981 584 877
3 468 877 584
3 864 878 26
3 879 862 686
3 879 685 880
3 880 865 472
3 454 472 865
3 883 884 882
3 885 41 162
3 861 885 36
3 162 36 885
3 886 888 24
3 887 888 198
3 890 889 719
3 890 41 198
3 197 198 41
3 198 197 887
3 881 887 197
3 891 485 898
3 44 892 893
3 893 896 891
3 930 894 896
3 895 891 896
3 895 199 487
3 897 201 200
3 897 44 893
3 201 897 898
3 485 494 898
3 997 645 899
3 900 645 874
3 645 900 899
3 873 118 900
3 902 123 901
3 636 903 31
3 901 903 902
3 123 902 904
3 905 124 904
3 907 124 905
3 905 30 907
3 148 907 30
3 37 906 640
3 148 640 906
3 908 505 907
3 503 907 505
3 202 908 906
3 711 202 37
3 906 37 202
3 909 42 910
3 163 909 202
3 202 909 908
3 508 908 909
3 910 911 912
3 42 727 910
3 911 727 728
3 515 203 913
3 203 914 913
3 913 914 917
3 915 917 914
3 916 516 917
3 517 917 516
3 920 519 916
3 516 916 519
3 919 920 918
3 724 738 915
3 921 915 738
3 734 200 922
3 921 922 918
3 923 492 521
3 918 922 919
3 923 919 922
3 525 925 24
3 886 24 925
3 927 531 926
3 25 926 531
3 924 925 205
3 927 205 925
3 191 928 952
3 957 952 928
3 924 205 928
3 929 842 47
3 924 928 929
3 830 719 889
3 889 924 929
3 44 826 892
3 931 892 826
3 206 930 931
3 206 931 46
3 834 46 931
3 894 930 965
3 933 971 207
3 977 207 971
3 976 208 207
3 935 213 934
3 940 211 209
3 209 954 49
3 940 934 938
3 939 940 938
3 935 934 940
3 934 968 938
3 968 941 210
3 46 851 943
3 210 941 942
3 943 942 941
3 853 942 850
3 944 210 942
3 860 945 859
3 944 859 945
3 948 938 210
3 946 211 939
3 939 938 948
3 947 949 948
3 946 948 949
3 945 860 947
3 951 950 949
3 950 953 949
3 946 949 953
3 957 956 955
3 926 958 956
3 558 964 559
3 956 958 954
3 559 954 958
3 961 212 960
3 961 894 965
3 212 961 962
3 966 50 962
3 936 962 50
3 212 962 959
3 937 959 936
3 23 959 963
3 963 959 937
3 964 49 954
3 46 943 206
3 967 206 943
3 966 965 967
3 934 970 968
3 968 966 967
3 50 966 970
3 969 50 970
3 969 970 213
3 935 977 213
3 969 213 972
3 971 972 213
3 937 936 973
3 974 973 936
3 969 974 936
3 973 974 932
3 976 49 975
3 975 937 973
3 208 976 975
3 214 977 209
3 976 209 49
3 207 214 976
3 980 623 979
3 32 626 988
3 626 623 980
3 988 981 32
3 875 32 981
3 988 584 981
3 215 982 582
3 581 582 982
3 983 29 871
3 196 982 871
3 29 983 617
3 984 617 983
3 986 984 985
3 980 987 988
3 979 987 980
3 585 586 989
3 987 989 586
3 585 989 590
3 990 590 989
3 591 990 215
3 990 978 985
3 215 990 985
3 984 982 215
3 582 591 215
3 993 991 992
3 217 991 993
3 217 993 649
3 998 991 216
3 218 993 992
3 218 992 995
3 994 993 218
3 195 219 462
3 603 462 219
3 195 693 995
3 899 497 996
3 27 998 216
3 997 996 216
3 1001 1000 999
3 999 1000 998
3 608 1001 610
3 1000 1001 608
3 999 998 27
3 612 999 143
