# Spot (Keenan Crane)
# quadric edge-collapse decimation to 3000 triangles, 1502 vertices
v 0.3120899 -0.3695998 0.8779082
v 0.3356094 -0.3851178 0.42544
v 0.3046744 0.04537085 0.00663326
v 0.2526494 0.1228895 0.4702984
v 0.149341 -0.451522 0.166423
v 0.114009 -0.358339 -0.0759521
v 0.101546 -0.475382 0.663157
v 0.358602 -0.37797 0.17897
v 0.3414693 -0.2218256 0.7065088
v 0.316102 -0.419396 0.649153
v 0.0876766 -0.391182 0.901606
v 0.161859 0.285356 0.303098
v 0.177264 0.282839 0.0875537
v 0.158786 0.0751889 -0.141343
v 0.3162988 -0.1315027 -0.07454323
v 0.1536586 0.1841638 0.6979435
v 0.1434142 0.1058936 0.8702716
v 0.34304 -0.0541165 0.672286
v 0.3682818 -0.2612664 0.4279374
v 0.184529 0.181235 -0.238574
v 0.229877 0.446038 -0.0428095
v 0.326584 0.303676 -0.375494
v 0.257915 0.488969 -0.517721
v 0.1767982 0.7357138 -0.4396749
v 0.271501 0.201979 -0.579853
v 0.323288 -0.645898 -0.0650069
v 0.277559 -0.660659 0.872426
v 0.15321 -0.671553 0.116597
v 0.153343 -0.652512 -0.0628489
v 0.1494034 -0.6933866 0.7015169
v 0.310744 -0.658159 0.12474
v 0.270197 -0.670204 0.705429
v 0.264169 0.646946 -0.369897
v 0.1789365 0.694602 -0.1525525
v 0.263204 0.560375 -0.137191
v 0.4513424 0.7453489 -0.2087771
v 0.04163901 0.1002817 -0.4488643
v -4.33681e-19 0.765067 -0.449072
v 0.009367276 0.8328388 -0.3354038
v 0 0.499175 0.0586613
v 0.0002156154 0.7401694 -0.07334607
v 0.001390718 0.8210836 -0.2025674
v 0 -0.533724 0.415511
v 0.02926411 0.3016125 0.3123591
v -0.04222729 -0.07668444 0.9929007
v -0.3446923 -0.2905097 -0.08115373
v -0.3532652 -0.04889877 0.4447033
v -0.2992465 0.04173242 -0.007466771
v -0.149341 -0.451522 0.166423
v -0.1374196 -0.1641821 -0.1799631
v -0.114009 -0.358339 -0.0759521
v -0.101546 -0.475382 0.663157
v -0.2368356 -0.4377982 0.4224959
v -0.3867073 -0.1202776 0.1916129
v -0.358602 -0.37797 0.17897
v -0.316102 -0.419396 0.649153
v -0.0876766 -0.391182 0.901606
v -0.177264 0.282839 0.0875537
v -0.158786 0.0751889 -0.141343
v -0.1220533 0.1985193 0.7026119
v -0.2856868 -0.1995818 0.8645397
v -0.2415716 0.1185693 0.6677038
v -0.3779896 -0.05078519 0.2107141
v -0.1594496 0.3201867 -0.02079422
v -0.184529 0.181235 -0.238574
v -0.229877 0.446038 -0.0428095
v -0.326584 0.303676 -0.375494
v -0.257915 0.488969 -0.517721
v -0.271501 0.201979 -0.579853
v -0.323288 -0.645898 -0.0650069
v -0.153343 -0.652512 -0.0628489
v -0.310744 -0.658159 0.12474
v -0.270197 -0.670204 0.705429
v -0.125665 -0.664371 0.877017
v -0.264169 0.646946 -0.369897
v -0.263204 0.560375 -0.137191
v -0.3660075 0.5953855 -0.2095101
v -0.09392931 0.8178954 -0.2253063
v -0.1619715 0.7949844 -0.336382
v 0.223323 -0.431749 0.300839
v 0.262599 -0.446574 0.214165
v 0.345683 -0.367458 0.305622
v 0.320467 -0.390454 0.538527
v 0.218649 -0.474853 0.619945
v 0.19621 -0.447285 0.538732
v 0.240602 -0.341214 -0.117452
v 0.2084997 -0.09126611 -0.1526689
v 0.328715 -0.192761 -0.0778193
v 0.229478 -0.212011 -0.133147
v 0.3074052 -0.04376769 -0.05594362
v 0.1170155 -0.01477682 -0.1883032
v 0.2609277 -0.04736461 -0.1077396
v 0.211816 -0.394732 0.922409
v 0.2170743 -0.2466903 0.919306
v 0.367306 -0.140529 0.04733738
v 0.385194 -0.351205 0.0306159
v 0.3836083 -0.1812306 0.3140746
v 0.37216 -0.1542571 0.4188969
v 0.3867073 -0.1202776 0.1916129
v 0.3685924 -0.03632918 0.2841484
v 0.3447179 -0.2883289 0.6475238
v 0.3267267 -0.215841 0.7773326
v 0.3345971 -0.2754406 0.7672622
v 0.3481521 -0.05312338 0.6004468
v 0.3588388 -0.1555135 0.587751
v 0.2305997 0.2502786 0.1781165
v 0.2790865 0.1333561 0.3230172
v 0.1956902 0.1802175 0.4665081
v 0.1963093 0.2261903 0.3696561
v 0.1962253 0.1527159 0.7134603
v 0.2054627 0.07892548 0.8464438
v 0.142135 0.1948807 0.6329434
v 0.2629879 0.1025454 0.534173
v 0.1900947 0.1709251 0.543786
v 0.3022016 0.0003491024 0.7725399
v 0.1965108 0.183451 -0.02262967
v 0.2889613 0.129058 0.0860587
v 0.2576348 0.1366529 0.02479692
v 0.150018 0.148066 -0.170355
v 0.1817451 0.2475262 -0.1029279
v 0.172619 0.221245 -0.0722104
v 0.294876 0.383503 -0.203773
v 0.2114189 0.4016784 -0.02990457
v 0.1985946 0.134193 -0.3868394
v 0.23911 0.14497 -0.502892
v 0.324701 0.24108 -0.502727
v 0.278147 0.181024 -0.423508
v 0.263786 0.27805 -0.630217
v 0.250979 0.388662 -0.601302
v 0.318198 0.390558 -0.446528
v 0.314593 0.32071 -0.563292
v 0.338046 -0.680095 0.0309463
v 0.228165 -0.692422 0.147407
v 0.12828 -0.689708 0.0245746
v 0.238161 -0.677382 -0.0918856
v 0.229681 -0.733842 0.0266899
v 0.20056 -0.687393 0.898863
v 0.107919 -0.696884 0.796995
v 0.199176 -0.699686 0.68654
v 0.291818 -0.690195 0.788408
v 0.198244 -0.736784 0.793448
v 0.307855 -0.55258 0.89062
v 0.335563 -0.561971 0.78431
v 0.0593616 -0.458076 0.795932
v 0.102733 -0.558625 0.896274
v 0.339121 -0.546516 0.150832
v 0.352933 -0.520557 -0.0885122
v 0.383244 -0.532332 0.0297109
v 0.132569 -0.534652 -0.0767316
v 0.24402 -0.524662 -0.124285
v 0.1429061 -0.6140138 0.1361373
v 0.2330361 -0.6302582 0.1786931
v 0.0964942 -0.434904 0.0342915
v 0.1006217 -0.5570031 0.03187568
v 0.26611 0.5889301 -0.4106846
v 0.282894 0.56989 -0.257283
v 0.2833065 0.5244617 -0.2631833
v 0.213045 0.609177 -0.109989
v 0.346675 0.5856894 -0.1991653
v 0.422878 0.632073 -0.168661
v 0.32688 0.680784 -0.145207
v 0.326345 0.612341 -0.141546
v 0.3698497 0.6312432 -0.2874754
v 0.2955276 0.5968907 -0.2735935
v 0.417773 0.731266 -0.288914
v 0.460287 0.727236 -0.177367
v 0.454185 0.684351 -0.230461
v 0.03390625 0.3168066 0.2500253
v 0.1150636 0.3122324 0.2528754
v 0.05480348 0.2222634 0.6467627
v 0.04529754 -0.3179344 -0.1007038
v 0.06369126 -0.4294126 0.0748686
v 0.0536421 -0.3886204 -0.007071644
v 0.0246007 -0.3420101 0.8906186
v 0.025202 -0.4006797 0.8031824
v 0.07927576 0.2780404 0.3665007
v 0.08564555 0.3220327 0.06785199
v 0.124296 0.487548 0.0340513
v 0.214286 0.629383 -0.484754
v 0.1330596 0.4882769 -0.5655845
v 0.09312761 0.6398279 -0.5044006
v 0.139278 0.340909 -0.661549
v -0.02675351 -0.2672024 0.9453586
v -0.0106562 -0.2869928 -0.1377932
v -0.01394942 -0.05752121 -0.2272169
v 0.05584763 0.04640064 -0.2303911
v 0.09178533 0.1296788 -0.292783
v 0.114603 0.104637 -0.445501
v 0.1086778 0.1079682 -0.3949887
v 0.153665 0.185489 -0.611191
v 0.137484 0.129002 -0.534091
v 0.05944979 0.2603012 -0.6615341
v 0.150371 0.262453 -0.657355
v 0.128934 0.593549 -0.0276065
v 0.177471 0.939132 -0.3014912
v 0.2018812 0.949566 -0.2854218
v 0.1636325 0.7989695 -0.3356912
v 0.1240229 0.809404 -0.3268272
v 0.249966 0.723503 -0.332259
v 0.3669929 0.7405135 -0.3009526
v 0.328516 0.741977 -0.181175
v 0.03280573 0.8198436 -0.2082347
v 0.117166 0.7647941 -0.1721208
v 0.01463981 0.8220349 -0.3765104
v 0.1995435 0.870231 -0.3272518
v 0.2122473 0.8403889 -0.250556
v 0.2012131 -0.4786012 0.4188671
v 0.1657224 -0.480801 0.5181322
v 0.09068866 -0.4703445 0.6160873
v 0.1701853 -0.4660338 0.3107344
v 0.182472 -0.4439126 0.2683079
v 0.2106288 -0.0576447 0.9239312
v 0.2067127 -0.1381939 0.927736
v 0.1832443 0.01171272 0.9157145
v 0.01471103 0.06145007 0.9476633
v 0.06617752 -0.0710554 0.9944943
v -0.00477883 -0.07297701 1.003527
v -0.345683 -0.367458 0.305622
v -0.262599 -0.446574 0.214165
v -0.223323 -0.431749 0.300839
v -0.1859045 -0.4510361 0.5441071
v -0.218649 -0.474853 0.619945
v -0.320467 -0.390454 0.538527
v -0.2470877 -0.4323544 0.5321978
v -0.328715 -0.192761 -0.0778193
v -0.12147 -0.249274 -0.145022
v -0.240602 -0.341214 -0.117452
v -0.229478 -0.212011 -0.133147
v -0.1196296 -0.05868683 -0.1919383
v -0.20044 -0.01090787 -0.1374039
v -0.211816 -0.394732 0.922409
v -0.2969473 -0.2706825 0.8691429
v -0.385194 -0.351205 0.0306159
v -0.3841351 -0.2420835 0.1732182
v -0.3791522 -0.2496142 0.03558251
v -0.3718377 -0.299871 0.3380032
v -0.3801378 -0.100767 0.3128642
v -0.3443298 0.003716557 0.06070145
v -0.3623567 -0.06802386 0.0603387
v -0.343331 -0.409171 0.778577
v -0.3290159 -0.0556563 0.7539
v -0.2822902 -0.07073271 0.860579
v -0.3340598 -0.1004791 0.7583979
v -0.354807 -0.3193634 0.4897501
v -0.1690788 0.2993108 0.2331466
v -0.2161234 0.2493868 0.1058352
v -0.2029826 0.1974534 0.4117871
v -0.1998052 0.1558821 0.6763075
v -0.2452075 0.09416656 0.7494556
v -0.3482589 0.02517061 0.2436422
v -0.2973098 0.04621976 0.6762037
v -0.2747081 0.03434828 0.794391
v -0.1824703 0.1959415 -0.03962089
v -0.2900607 0.1491134 0.1599239
v -0.1524014 0.2879063 0.02549237
v -0.150018 0.148066 -0.170355
v -0.172619 0.221245 -0.0722104
v -0.294876 0.383503 -0.203773
v -0.2797018 0.2173396 -0.346645
v -0.324701 0.24108 -0.502727
v -0.23911 0.14497 -0.502892
v -0.278147 0.181024 -0.423508
v -0.318198 0.390558 -0.446528
v -0.263786 0.27805 -0.630217
v -0.314593 0.32071 -0.563292
v -0.238161 -0.677382 -0.0918856
v -0.12828 -0.689708 0.0245746
v -0.228165 -0.692422 0.147407
v -0.338046 -0.680095 0.0309463
v -0.229681 -0.733842 0.0266899
v -0.291818 -0.690195 0.788408
v -0.199176 -0.699686 0.68654
v -0.107919 -0.696884 0.796995
v -0.20056 -0.687393 0.898863
v -0.198244 -0.736784 0.793448
v -0.2877383 -0.613111 0.6857023
v -0.307855 -0.55258 0.89062
v -0.335563 -0.561971 0.78431
v -0.102733 -0.558625 0.896274
v -0.1157926 -0.6337852 0.6986137
v -0.0593616 -0.458076 0.795932
v -0.07141621 -0.5782745 0.7975541
v -0.1996863 -0.6444528 0.6576459
v -0.2089699 -0.5408267 0.9312824
v -0.352933 -0.520557 -0.0885122
v -0.339121 -0.546516 0.150832
v -0.383244 -0.532332 0.0297109
v -0.132569 -0.534652 -0.0767316
v -0.24402 -0.524662 -0.124285
v -0.143499 -0.577512 0.141914
v -0.241073 -0.571789 0.188527
v -0.0964942 -0.434904 0.0342915
v -0.282894 0.56989 -0.257283
v -0.32688 0.680784 -0.145207
v -0.422878 0.632073 -0.168661
v -0.2079294 0.6187931 -0.1126821
v -0.326345 0.612341 -0.141546
v -0.379053 0.63587 -0.283895
v -0.460287 0.727236 -0.177367
v -0.417773 0.731266 -0.288914
v -0.454185 0.684351 -0.230461
v -0.05330262 0.2168814 0.7093554
v -0.06310106 0.1273568 0.8865064
v -0.05167751 0.1834715 0.8085672
v -0.06617279 -0.4364757 0.09980902
v -0.03558582 -0.4399913 0.7194805
v -0.08992895 0.3484802 0.02674668
v -0.08564555 0.3220327 0.06785199
v -0.124296 0.487548 0.0340513
v -0.1147117 0.4351328 0.04054125
v -0.136392 0.50382 -0.556974
v -0.214286 0.629383 -0.484754
v -0.07369959 0.7605666 -0.4467734
v -0.139278 0.340909 -0.661549
v -0.1394338 0.3793776 -0.6432812
v -0.0838463 0.11062 -0.238883
v -0.114603 0.104637 -0.445501
v -0.153665 0.185489 -0.611191
v -0.137484 0.129002 -0.534091
v -0.150371 0.262453 -0.657355
v -0.08818518 0.6703837 -0.06723151
v -0.128934 0.593549 -0.0276065
v -0.2391887 0.6689269 -0.4365683
v -0.1913857 0.9302769 -0.2339027
v -0.1566909 0.9448145 -0.2469838
v -0.1995297 0.7688163 -0.2894704
v -0.1286071 0.7826997 -0.18848
v -0.1513636 0.82343 -0.2182081
v -0.09369251 0.8242217 -0.2892864
v -0.08403436 0.8223274 -0.249002
v -0.32003 0.739642 -0.304714
v -0.1843768 0.7518687 -0.1871069
v -0.328516 0.741977 -0.181175
v -0.08723518 0.7771748 -0.1660651
v -0.1659343 0.7827572 -0.3799073
v -0.06633694 0.8157103 -0.3762762
v -0.2236445 0.8641497 -0.2853083
v -0.1159985 0.8927474 -0.24752
v -0.1792203 0.9001436 -0.2229101
v -0.04674188 -0.460669 0.2127984
v -0.09047839 -0.4865029 0.2946212
v -0.1065406 -0.1066592 0.9710632
v -0.2067127 -0.1381939 0.927736
v -0.2064216 0.03614329 0.8833832
v -0.06034977 0.05065552 0.9465681
v 0.317818 -0.392423 0.305485
v 0.2425842 -0.4344897 0.4059861
v 0.2798227 -0.4207428 0.4332187
v 0.2793594 -0.4128642 0.3127763
v 0.2099 -0.457622 0.202318
v 0.2667915 -0.4218958 0.2534534
v 0.194817 -0.437402 0.239358
v 0.350284 -0.364453 0.244783
v 0.312495 -0.42258 0.208415
v 0.316601 -0.396416 0.250199
v 0.291362 -0.413379 0.536815
v 0.313341 -0.4045549 0.4245186
v 0.26979 -0.455493 0.624003
v 0.315111 -0.397679 0.592146
v 0.280089 -0.425608 0.586435
v 0.156119 -0.458526 0.595789
v 0.2470877 -0.4323544 0.5321978
v 0.164011 -0.483033 0.631406
v 0.2284907 -0.4462027 0.583264
v 0.225399 -0.440193 0.480871
v 0.300873 -0.335808 -0.11045
v 0.23546 -0.269794 -0.12322
v 0.283535 -0.198083 -0.11242
v 0.3446923 -0.2905097 -0.08115373
v 0.292915 -0.260195 -0.110308
v 0.119478 -0.295776 -0.113872
v 0.173106 -0.230478 -0.142628
v 0.176383 -0.34915 -0.10631
v 0.174532 -0.282877 -0.121531
v 0.224047 -0.163495 -0.142015
v 0.1374196 -0.1641821 -0.1799631
v 0.272974 -0.1293005 -0.1141118
v 0.307808 -0.00318692 -0.0317095
v 0.266547 0.03598922 -0.05694837
v 0.2653812 -0.008457123 -0.08678371
v 0.1550575 -0.131401 -0.1788393
v 0.199052 0.0623656 -0.105989
v 0.148915 0.00578811 -0.165362
v 0.190658 0.0074224 -0.137241
v 0.214141 -0.334681 0.919903
v 0.26887 -0.396352 0.909752
v 0.2643051 -0.3006256 0.9011266
v 0.2546521 -0.2301163 0.8985899
v 0.2969473 -0.2706825 0.8691429
v 0.1468665 -0.2821241 0.9335189
v 0.1598693 -0.2304871 0.9406019
v 0.149733 -0.3934 0.920339
v 0.104904 -0.328487 0.922781
v 0.15673 -0.332639 0.924128
v 0.358457 -0.200112 -0.0267162
v 0.3791522 -0.2496142 0.03558251
v 0.3735158 -0.309922 -0.0328796
v 0.3447404 -0.1178299 -0.01698673
v 0.3841351 -0.2420835 0.1732182
v 0.3802709 -0.1695477 0.1137725
v 0.379176 -0.364086 0.102343
v 0.375596 -0.311145 0.175939
v 0.3822523 -0.2735778 0.09556406
v 0.3718377 -0.299871 0.3380032
v 0.3667246 -0.3290405 0.2776019
v 0.3823525 -0.2608806 0.2468365
v 0.3781245 -0.2511148 0.3413572
v 0.364893 -0.09087134 0.4243781
v 0.3801378 -0.100767 0.3128642
v 0.3877251 -0.1385679 0.2538796
v 0.3779896 -0.05078519 0.2107141
v 0.3547662 -0.01383126 0.08163517
v 0.3353406 -0.001336769 0.02761825
v 0.3686392 -0.03000722 0.1372197
v 0.3623567 -0.06802386 0.0603387
v 0.3780387 -0.09035759 0.1241071
v 0.338768 -0.05180502 -0.001232411
v 0.3429798 -0.3805695 0.7766754
v 0.3347599 -0.36754 0.8342475
v 0.334716 -0.360298 0.654176
v 0.3409637 -0.3183987 0.7175494
v 0.335933 -0.414813 0.716014
v 0.3135011 -0.2284706 0.8210608
v 0.2822902 -0.07073271 0.860579
v 0.3134463 -0.05613012 0.8007692
v 0.2856868 -0.1995818 0.8645397
v 0.3114495 -0.1180389 0.8174047
v 0.334966 -0.1160148 0.757782
v 0.3386198 -0.07037293 0.7257071
v 0.3511862 -0.1115354 0.669901
v 0.3532652 -0.04889877 0.4447033
v 0.3559523 -0.09744682 0.5967813
v 0.3624432 -0.1132485 0.5050115
v 0.3635152 -0.2438408 0.4911167
v 0.354807 -0.3193634 0.4897501
v 0.3365633 -0.3589742 0.567711
v 0.3515617 -0.3555242 0.4225803
v 0.3514858 -0.2886095 0.5753149
v 0.2563424 0.1984502 0.1187224
v 0.257059 0.2079055 0.1558956
v 0.173937 0.295795 0.151795
v 0.201028 0.279793 0.204606
v 0.2161234 0.2493868 0.1058352
v 0.204742 0.274117 0.153286
v 0.194044 0.2742295 0.2741245
v 0.2195878 0.245937 0.2794743
v 0.1690788 0.2993108 0.2331466
v 0.2472969 0.1951572 0.3015226
v 0.2502945 0.219272 0.2146224
v 0.2426723 0.1529093 0.4080964
v 0.1565875 0.2627607 0.3564153
v 0.2143005 0.1079495 0.795003
v 0.2372509 0.1166852 0.7061639
v 0.1515253 0.1732854 0.7474291
v 0.1488529 0.1458227 0.8146274
v 0.2349133 0.1326304 0.5369401
v 0.1444914 0.2025914 0.5030048
v 0.1863311 0.1691011 0.6407752
v 0.2440122 0.1189784 0.6306339
v 0.344486 0.0003492499 0.3647276
v 0.3366714 -0.007205041 0.4664321
v 0.3189093 0.07164514 0.2980498
v 0.3482589 0.02517061 0.2436422
v 0.3066585 0.04940432 0.4732278
v 0.3019401 0.0706977 0.4092872
v 0.2975928 0.04145278 0.6979452
v 0.3247682 -0.01193597 0.7033397
v 0.2710379 0.06142367 0.7519046
v 0.2471093 0.04859331 0.8264673
v 0.2855668 -0.002409224 0.8154481
v 0.263697 -0.007104272 0.8538153
v 0.181753 0.135303 -0.0848536
v 0.26131 0.08918307 -0.0186503
v 0.20757 0.117335 -0.0616182
v 0.2448525 0.1888917 0.06764381
v 0.3028755 0.04632613 0.6065196
v 0.3332315 -0.01067276 0.6023145
v 0.3399254 0.04733579 0.1790007
v 0.3269336 0.05678823 0.09061875
v 0.2825632 0.1633635 0.1797172
v 0.3026137 0.1193922 0.1358966
v 0.2835274 0.1571923 0.2224144
v 0.149034 0.119255 -0.152767
v 0.177314 0.204818 -0.0510199
v 0.168725 0.158519 -0.103729
v 0.160058 0.168229 -0.195838
v 0.168374 0.1911897 -0.1351985
v 0.149721 0.3008 -0.00470029
v 0.167426 0.259011 -0.0241111
v 0.1713122 0.2810314 -0.05314936
v 0.1524014 0.2879063 0.02549237
v 0.1813681 0.2423207 0.01365391
v 0.26422 0.274293 -0.228207
v 0.2453589 0.3076503 -0.1515811
v 0.2071524 0.2341816 -0.1791061
v 0.314639 0.343639 -0.292523
v 0.27622 0.344814 -0.176785
v 0.3016564 0.2894129 -0.2950497
v 0.249809 0.379204 -0.0978893
v 0.1594496 0.3201867 -0.02079422
v 0.2189556 0.3385642 -0.08026029
v 0.192666 0.159829 -0.308601
v 0.2395219 0.1494187 -0.4137537
v 0.2797018 0.2173396 -0.346645
v 0.2342384 0.1966517 -0.294052
v 0.265715 0.160342 -0.469212
v 0.305787 0.218563 -0.547441
v 0.307399 0.208213 -0.46356
v 0.259412 0.1698 -0.542722
v 0.290901 0.186126 -0.509143
v 0.330786 0.26947 -0.445487
v 0.31171 0.235804 -0.406418
v 0.32675 0.280027 -0.535933
v 0.321008 0.352655 -0.511417
v 0.329541 0.345256 -0.410956
v 0.333345 0.309542 -0.480189
v 0.272516 0.239582 -0.609537
v 0.296456 0.295786 -0.60247
v 0.307295 0.256707 -0.578835
v 0.240548 0.35766 -0.62796
v 0.289278 0.358786 -0.584918
v 0.246645 0.312827 -0.640337
v 0.274305 0.331026 -0.617491
v 0.295245 0.436762 -0.484187
v 0.255976 0.429549 -0.563622
v 0.295399 0.395443 -0.540067
v 0.335047 -0.66747 -0.026194
v 0.288313 -0.71953 0.0292002
v 0.233667 -0.718383 -0.0394682
v 0.288912 -0.666279 -0.0831981
v 0.288523 -0.704927 -0.0329901
v 0.276152 -0.679477 0.14116
v 0.227442 -0.724741 0.0933852
v 0.327044 -0.674066 0.0872825
v 0.281161 -0.710704 0.0910758
v 0.136631 -0.686121 0.0787634
v 0.172796 -0.723594 0.0247169
v 0.182766 -0.687312 0.135767
v 0.176191 -0.716151 0.0857864
v 0.187443 -0.669698 -0.0818819
v 0.136552 -0.67511 -0.0280042
v 0.179633 -0.708233 -0.0350267
v 0.2461 -0.678205 0.889508
v 0.198896 -0.723335 0.85193
v 0.248642 -0.724519 0.790895
v 0.288217 -0.679435 0.838379
v 0.246831 -0.711912 0.845432
v 0.113033 -0.684171 0.844965
v 0.148661 -0.727347 0.795626
v 0.1460212 -0.6800971 0.8869823
v 0.151829 -0.713932 0.849146
v 0.198408 -0.728532 0.734591
v 0.115859 -0.693483 0.748115
v 0.153047 -0.720555 0.741401
v 0.283587 -0.684515 0.738785
v 0.24088 -0.688682 0.691628
v 0.244434 -0.716483 0.736358
v 0.342489 -0.483419 0.78141
v 0.30391 -0.498066 0.668956
v 0.3265995 -0.5455004 0.7248874
v 0.31354 -0.474577 0.887895
v 0.331331 -0.556659 0.842236
v 0.337524 -0.478425 0.840051
v 0.319732 -0.633454 0.786428
v 0.294197 -0.618974 0.884469
v 0.315639 -0.625673 0.839496
v 0.2877383 -0.613111 0.6857023
v 0.308326 -0.632734 0.733956
v 0.0634711 -0.431765 0.851899
v 0.07141621 -0.5782745 0.7975541
v 0.0969194 -0.478778 0.897495
v 0.07735891 -0.5643008 0.8527627
v 0.106684 -0.534636 0.682874
v 0.069956 -0.47422 0.735292
v 0.08288022 -0.5863175 0.7391728
v 0.0840444 -0.64607 0.797118
v 0.1157926 -0.6337852 0.6986137
v 0.0943475 -0.648249 0.746058
v 0.112805 -0.624088 0.888986
v 0.0899111 -0.634521 0.847274
v 0.208287 -0.52835 0.637223
v 0.260651 -0.513618 0.642398
v 0.1996863 -0.6444528 0.6576459
v 0.2451956 -0.6317306 0.6622623
v 0.1561171 -0.6414163 0.6688256
v 0.153645 -0.534978 0.650489
v 0.2089699 -0.5408267 0.9312824
v 0.1494963 -0.540883 0.9238658
v 0.203436 -0.628169 0.923071
v 0.153584 -0.625261 0.914716
v 0.262868 -0.552296 0.920108
v 0.253551 -0.622939 0.912658
v 0.267734 -0.472455 0.917082
v 0.348561 -0.464054 0.158716
v 0.387436 -0.440321 0.0296682
v 0.3731716 -0.5164522 0.09618146
v 0.368236 -0.614976 0.0306267
v 0.325558 -0.615423 0.139592
v 0.354786 -0.614851 0.0904298
v 0.340742 -0.597899 -0.0798229
v 0.378455 -0.525308 -0.0356201
v 0.364087 -0.605614 -0.0296813
v 0.354445 -0.427851 -0.0878125
v 0.380964 -0.432504 -0.0361787
v 0.243518 -0.430642 -0.121062
v 0.182701 -0.527846 -0.109937
v 0.12704 -0.448099 -0.0735785
v 0.179139 -0.436248 -0.106528
v 0.304443 -0.521287 -0.117606
v 0.305291 -0.427537 -0.115465
v 0.241923 -0.609859 -0.117359
v 0.296601 -0.602967 -0.109127
v 0.141316 -0.607217 -0.0730372
v 0.186967 -0.607615 -0.104287
v 0.148115 -0.512563 0.149929
v 0.1849301 -0.6271753 0.1664957
v 0.25113 -0.502745 0.197094
v 0.196177 -0.511769 0.183546
v 0.284725 -0.6140315 0.1724465
v 0.304357 -0.484216 0.189956
v 0.1059632 -0.536321 -0.02745333
v 0.0953701 -0.405611 -0.0214782
v 0.106751 -0.633108 0.0275567
v 0.114552 -0.619641 -0.0267392
v 0.117988 -0.635837 0.0828
v 0.112515 -0.451919 0.0935688
v 0.1145835 -0.5710823 0.09365164
v 0.271184 0.525759 -0.460079
v 0.2790075 0.550701 -0.3472093
v 0.308658 0.43336 -0.368305
v 0.291391 0.478507 -0.418527
v 0.278055 0.600765 -0.320108
v 0.247008 0.54474 -0.114114
v 0.2689393 0.5201434 -0.1728448
v 0.277875 0.55689 -0.190965
v 0.298509 0.427522 -0.236282
v 0.2370722 0.5013492 -0.07644278
v 0.2709234 0.4227443 -0.1237743
v 0.317802 0.38717 -0.32759
v 0.192626 0.647576 -0.125774
v 0.267679 0.610284 -0.129549
v 0.326452 0.645309 -0.138504
v 0.258116 0.645451 -0.13607
v 0.289471 0.569074 -0.162469
v 0.3617284 0.5966681 -0.1699239
v 0.239082 0.578957 -0.111996
v 0.279361 0.583208 -0.137022
v 0.3976724 0.6100968 -0.1948026
v 0.380321 0.61857 -0.152413
v 0.4011538 0.6974383 -0.1489451
v 0.430349 0.658277 -0.154382
v 0.384792 0.647908 -0.143704
v 0.294318 0.572729 -0.209871
v 0.28588 0.662049 -0.349089
v 0.312606 0.638668 -0.319124
v 0.290372 0.624108 -0.317788
v 0.34317 0.6800045 -0.3335105
v 0.3676884 0.6580182 -0.3140486
v 0.337287 0.5921162 -0.2372656
v 0.393743 0.706765 -0.3123
v 0.444197 0.711394 -0.263256
v 0.419572 0.658706 -0.261892
v 0.412958 0.685943 -0.291128
v 0.471552 0.708579 -0.199184
v 0.43241 0.746455 -0.258303
v 0.460792 0.730831 -0.231063
v 0.447289 0.655956 -0.196803
v 0.4433611 0.6998408 -0.1566888
v 0.460337 0.681448 -0.17325
v 0.4008276 0.623417 -0.237211
v -0.0341041 0.3254329 0.1595891
v 0.07669329 0.3231599 0.1544267
v 0.1134767 0.2992228 0.3079784
v 0.137733 0.3115575 0.1974108
v 0.0223054 0.2336536 0.4936538
v 0.0201229 0.2283499 0.5439373
v 0.05330262 0.2168814 0.7093554
v 1.104832e-16 0.2261716 0.6501125
v 0.1084695 0.2084601 0.640159
v 0.105384 0.203917 0.704755
v 0.09367721 0.2263734 0.4827823
v 0.09239465 0.2175433 0.5444982
v -2.886579e-17 0.2150063 0.7397845
v 0.03368244 0.1848065 0.8128651
v 0.06972781 0.2015433 0.7590657
v 0.06310106 0.1273568 0.8865064
v -1.193584e-16 0.1439698 0.8770794
v 0.05079424 0.1577508 0.8516587
v 0.1032878 0.1612464 0.824065
v 0.003557957 -0.4156817 0.01578314
v 0.002578208 -0.3368873 -0.08814047
v 0.001869261 -0.3829028 -0.03236181
v 0.07846085 -0.3730149 -0.03235782
v 0.101981 -0.43742 0.118873
v 0.08203192 -0.4141037 0.03715144
v 0.02362249 -0.3737081 0.8489582
v 0.01567875 -0.4432575 0.7079365
v 0.02862135 -0.4217585 0.7601322
v 0.04724763 -0.4288693 0.7860056
v 0.0641499 -0.454693 0.696538
v 0.0576974 -0.360469 0.893822
v 0.0495204 -0.395304 0.851292
v 0.02738257 0.2505192 0.4353579
v 0.1193577 0.2739001 0.3614874
v 0.1353553 0.2283222 0.444025
v 0.04322931 0.327785 0.07573048
v 0.084777 0.331134 0.0392602
v 0.0436281 0.336529 0.047541
v 0.1197138 0.3155949 0.02860501
v 0.1300926 0.3082326 0.08667302
v 0.1147117 0.4351328 0.04054125
v 0.0632284 0.496693 0.0522852
v 0.05758612 0.4412806 0.05513009
v 0.08992895 0.3484802 0.02674668
v 0.04742701 0.3537339 0.03555449
v 0.1667003 0.4213435 0.0133107
v 0.1279673 0.3378887 0.008806239
v 0.18104 0.470039 0.00485434
v 0 0.570891 -0.534672
v 0.1083705 0.5668011 -0.5322781
v 0.05543621 0.5050656 -0.5630905
v 0.07369959 0.7605666 -0.4467734
v 2.794334e-16 0.7019873 -0.4828041
v 0.0832933 0.7056871 -0.4767559
v 0.2166205 0.6793366 -0.4586271
v 0.1692337 0.6766199 -0.477188
v 0.232047 0.565216 -0.501918
v 0.188173 0.564066 -0.51907
v -0.05865709 0.3805676 -0.6465935
v 0.1394338 0.3793776 -0.6432812
v 0.05531812 0.3410436 -0.665069
v 0.07432054 0.3801685 -0.6465685
v 0.0548644 0.4548026 -0.5939139
v 0.199873 0.404748 -0.612935
v 0.2002514 0.4913755 -0.5491095
v 0.1942447 0.3505021 -0.6498191
v 0.01571665 -0.2051982 0.9698525
v 0.06578096 -0.3055791 0.9288958
v 0.01994887 -0.1912305 -0.1969688
v 0.0316277 -0.2569271 -0.1614041
v 0.1121709 -0.2591005 -0.1414294
v 0.0739094 -0.1806298 -0.1963017
v 0.08269678 -0.2154889 -0.1793246
v 0.0796433 -0.304819 -0.108871
v 0.0179023 -0.1302408 -0.2142917
v 0.07017449 -0.0348422 -0.2146359
v -0.0002954463 0.03201639 -0.2395835
v 0.03296165 -0.03200106 -0.2273043
v 0.115674 0.055105 -0.187883
v 0.07691253 -0.1228365 -0.206996
v 0.001603641 0.09520713 -0.2587733
v 0.07866262 0.1008638 -0.2334523
v 0.04047346 0.09495826 -0.2511268
v 0.045956 0.1204405 -0.3057089
v 0.0884331 0.12573 -0.258533
v -0.02393714 0.113375 -0.2799703
v 0.0449537 0.11665 -0.27594
v 0.120922 0.124855 -0.209363
v 0.1388457 0.1482966 -0.2694091
v 0.128964 0.142918 -0.232488
v 0.118034 0.096215 -0.193935
v 0.05755739 0.1029055 -0.3987134
v 0.1549435 0.1190329 -0.3853445
v 0.195376 0.1215408 -0.4558073
v 0.0532169 0.1259608 -0.5383915
v 0.125551 0.112279 -0.490196
v 0.04731024 0.108802 -0.493807
v 0.06089296 0.1820091 -0.6155931
v 0.1475 0.153854 -0.575332
v 0.05811091 0.1506828 -0.579826
v 0.1874031 0.1263076 -0.5064969
v 0.219301 0.191387 -0.600189
v 0.210129 0.15949 -0.56385
v 0.06101157 0.2194488 -0.6434442
v 0.154044 0.222564 -0.638941
v 0.144378 0.302534 -0.665208
v 0.05692076 0.3013922 -0.6690056
v 0.213772 0.26767 -0.647803
v 0.202463 0.304851 -0.656009
v 0.21995 0.228648 -0.628685
v 0.126715 0.537337 0.0111468
v 0.0606884 0.60785 0.00104436
v 0.002041312 0.5695937 0.03485202
v 0.0643107 0.550463 0.0321785
v 0.1983109 0.5649528 -0.06521499
v 0.185308 0.513743 -0.0172354
v 0.171165 0.605799 -0.0764289
v 0.126096 0.69557 -0.127071
v 0.0987466 0.656786 -0.062447
v 0.142824 0.650926 -0.0969906
v 0 0.672219 -0.0228265
v 0.04377254 0.6995231 -0.05652048
v 0.237614 0.630468 -0.469873
v 0.2556076 0.6188022 -0.439637
v 0.253217 0.578269 -0.474783
v 0.2096899 0.7249346 -0.4208194
v 0.2391887 0.6689269 -0.4365683
v 0.246529 0.67248 -0.397952
v 0.1921497 0.9466434 -0.2471275
v 0.2214331 0.9057173 -0.2508069
v 0.2242244 0.9293043 -0.2772227
v 0.2022578 0.9144607 -0.3183212
v 0.218106 0.9089744 -0.3079304
v 0.1751458 0.954506 -0.2672805
v 0.1913857 0.9302769 -0.2339027
v 0.1566909 0.9448145 -0.2469838
v 0.1543161 0.7966541 -0.3452835
v 0.1772962 0.7865175 -0.3243897
v 0.1905206 0.7757911 -0.2986647
v 0.2041839 0.7682782 -0.2565944
v 0.181336 0.804317 -0.228606
v 0.1972217 0.7824686 -0.2386177
v 0.1480223 0.8162506 -0.2173442
v 0.1581512 0.7931786 -0.2139225
v 0.1081129 0.8142591 -0.218666
v 0.1829614 0.7697422 -0.2070822
v 0.1288249 0.7836016 -0.1895372
v 0.1457503 0.8074972 -0.335521
v 0.1060825 0.8153269 -0.3107292
v 0.1076854 0.8576841 -0.232815
v 0.08384498 0.8220263 -0.2487251
v 0.09286339 0.8177282 -0.2261344
v 0.08614071 0.8218536 -0.2787869
v 0.2401634 0.761688 -0.2349435
v 0.2100275 0.7633463 -0.2270013
v 0.2892212 0.7556085 -0.2706126
v 0.277858 0.727498 -0.319523
v 0.2388985 0.7418895 -0.3032837
v 0.311167 0.763685 -0.236173
v 0.3825123 0.7548286 -0.2715835
v 0.3928684 0.7601642 -0.238618
v 0.3548786 0.7131254 -0.3251914
v 0.258236 0.693552 -0.356883
v 0.284726 0.698216 -0.343913
v 0.1843768 0.7518687 -0.1871069
v 0.248651 0.737773 -0.18066
v 0.2247249 0.7546893 -0.1951507
v 0.329845 0.712932 -0.159268
v 0.2484582 0.7012284 -0.1590159
v 0.409003 0.736167 -0.174314
v 0.4044022 0.7531943 -0.2034961
v 0.285406 0.7559583 -0.2022959
v 0.0602661 0.797425 -0.177797
v -0.004479157 0.8030085 -0.1586147
v 0.03704507 0.7892098 -0.1479775
v 0.0771688 0.744134 -0.128582
v 0.0372542 0.755486 -0.106376
v 0.0420229 0.8311849 -0.3003025
v 0.07020838 0.8230686 -0.3362811
v 0.1171893 0.8054304 -0.3739548
v 0.1774705 0.775529 -0.3804725
v 0.1654208 0.7676498 -0.4113726
v 0.06490511 0.7958168 -0.4131052
v 0.01531098 0.8342983 -0.26546
v 0.2310106 0.7294384 -0.3505022
v 0.2059062 0.8387819 -0.3117361
v 0.2282859 0.893204 -0.2838911
v 0.2236445 0.8641497 -0.2853083
v 0.2040248 0.7993242 -0.2727182
v 0.1269891 0.8874839 -0.2956354
v 0.1637911 0.901524 -0.3193969
v 0.1549014 0.9380373 -0.286153
v 0.1825471 0.8974693 -0.3261455
v 0.1780834 0.8495925 -0.33467
v 0.1382038 0.8768307 -0.2198029
v 0.1159985 0.8927474 -0.24752
v 0.1361557 0.9282851 -0.2560248
v 0.1603879 0.9097187 -0.2229589
v 0.135628 0.912775 -0.2333082
v 0.1154028 0.891013 -0.2662288
v 0.1885701 0.8952357 -0.2261077
v 0.20634 0.8778399 -0.2360321
v 0.183641 -0.455489 0.534379
v 0.1885663 -0.4816807 0.4708593
v 0.228365 -0.446181 0.420977
v 0.21326 -0.450303 0.478539
v 0.1359237 -0.4658331 0.5857096
v 0.08759859 -0.4662702 0.6475441
v 0.04370735 -0.4551657 0.6771637
v -0.00867154 -0.441284 0.09277798
v 0.04664529 -0.4419482 0.1187703
v 0.1334931 -0.4434949 0.194375
v 0.101319 -0.442167 0.150389
v 0.1411645 -0.4509887 0.2429226
v 0.01914548 -0.4511158 0.1639117
v 0.02604396 -0.4627903 0.2108349
v 0.2231701 -0.4408031 0.3463382
v 0.1958429 -0.4727777 0.3692317
v 0.004541856 -0.4957413 0.5797538
v 0.02005025 -0.5177544 0.521443
v 0.0552219 -0.529321 0.415644
v 0 -0.53078 0.469003
v 0.0529288 -0.526727 0.468796
v 0.08735462 -0.5050533 0.5335019
v 0.1322971 -0.5116304 0.4165161
v 0.1226212 -0.5116575 0.4689503
v 0 -0.522771 0.361177
v 0.0524328 -0.518796 0.361628
v -0.01729512 -0.4978298 0.2942722
v 0.04324665 -0.496507 0.2982359
v 0.1034404 -0.4868449 0.3023926
v 0.1210462 -0.5044274 0.3634297
v 0.1693135 -0.06947709 0.9505261
v 0.1134599 -0.0718191 0.9721471
v 0.1451645 -0.1597142 0.9543764
v 0.2483096 -0.145045 0.898574
v 0.2484487 -0.0597735 0.8933151
v 0.2260963 -0.01457614 0.8970408
v 0.1575637 -0.04321651 0.9559186
v 0.2207511 0.03221896 0.8724247
v 0.1584004 0.05988111 0.9007665
v 0.1322804 -0.02036073 0.9608426
v -0.01310085 0.008848685 0.9822899
v 0.05191539 0.004795547 0.9788675
v 0.08478527 0.07699725 0.9224473
v 0.03058722 0.09361849 0.9237245
v 0.07039932 -0.2065642 0.9643383
v 0.07497208 -0.1048663 0.979748
v 0.03115627 -0.07935889 0.991295
v 0.06839851 -0.05184558 1.013529
v 0.07418221 -0.07072236 0.9865879
v 0.100543 -0.03693599 0.9833455
v 0.03797256 -0.08550287 1.026899
v -0.006043462 -0.03853168 1.024154
v 0.04736281 -0.05643982 1.0297
v 0.01820232 -0.06579635 1.047243
v 0.03454398 -0.09015822 1.018717
v -0.01018571 -0.07974382 1.049723
v 0.005894518 -0.09419118 1.04028
v -0.3356094 -0.3851178 0.42544
v -0.317818 -0.392423 0.305485
v -0.312495 -0.42258 0.208415
v -0.350284 -0.364453 0.244783
v -0.316601 -0.396416 0.250199
v -0.194817 -0.437402 0.239358
v -0.2793594 -0.4128642 0.3127763
v -0.2099 -0.457622 0.202318
v -0.2667915 -0.4218958 0.2534534
v -0.2798227 -0.4207428 0.4332187
v -0.291362 -0.413379 0.536815
v -0.313341 -0.4045549 0.4245186
v -0.2193261 -0.4430653 0.4842751
v -0.164011 -0.483033 0.631406
v -0.236564 -0.444228 0.584476
v -0.1583198 -0.4584343 0.5943594
v -0.315111 -0.397679 0.592146
v -0.26979 -0.455493 0.624003
v -0.280089 -0.425608 0.586435
v -0.283535 -0.198083 -0.11242
v -0.23546 -0.269794 -0.12322
v -0.300873 -0.335808 -0.11045
v -0.292915 -0.260195 -0.110308
v -0.224047 -0.163495 -0.142015
v -0.3162988 -0.1315027 -0.07454323
v -0.272974 -0.1293005 -0.1141118
v -0.173106 -0.230478 -0.142628
v -0.176383 -0.34915 -0.10631
v -0.119478 -0.295776 -0.113872
v -0.174532 -0.282877 -0.121531
v -0.265772 0.05752682 -0.04040036
v -0.1999785 0.05010044 -0.1119291
v -0.3074764 -0.02678866 -0.04877643
v -0.2682017 0.01148 -0.07163744
v -0.148915 0.00578811 -0.165362
v -0.2084997 -0.09126611 -0.1526689
v -0.1550575 -0.131401 -0.1788393
v -0.2681641 -0.04702044 -0.1007984
v -0.26887 -0.396352 0.909752
v -0.214141 -0.334681 0.919903
v -0.3120899 -0.3695998 0.8779082
v -0.2643051 -0.3006256 0.9011266
v -0.104904 -0.328487 0.922781
v -0.164801 -0.284207 0.93026
v -0.149733 -0.3934 0.920339
v -0.15673 -0.332639 0.924128
v -0.2170743 -0.2466903 0.919306
v -0.1736248 -0.2190294 0.9372101
v -0.2546521 -0.2301163 0.8985899
v -0.358457 -0.200112 -0.0267162
v -0.3735158 -0.309922 -0.0328796
v -0.375596 -0.311145 0.175939
v -0.3822523 -0.2735778 0.09556406
v -0.379176 -0.364086 0.102343
v -0.367306 -0.140529 0.04733738
v -0.3802709 -0.1695477 0.1137725
v -0.3447404 -0.1178299 -0.01698673
v -0.3515617 -0.3555242 0.4225803
v -0.3781245 -0.2511148 0.3413572
v -0.3682818 -0.2612664 0.4279374
v -0.3823525 -0.2608806 0.2468365
v -0.3667246 -0.3290405 0.2776019
v -0.364893 -0.09087134 0.4243781
v -0.3685924 -0.03632918 0.2841484
v -0.3836083 -0.1812306 0.3140746
v -0.3877251 -0.1385679 0.2538796
v -0.37216 -0.1542571 0.4188969
v -0.3379805 -0.03368442 0.006040813
v -0.3780387 -0.09035759 0.1241071
v -0.3686392 -0.03000722 0.1372197
v -0.3301402 -0.3320678 0.830944
v -0.340911 -0.350598 0.77666
v -0.336842 -0.40362 0.835552
v -0.3345971 -0.2754406 0.7672622
v -0.3447179 -0.2883289 0.6475238
v -0.3407903 -0.2887298 0.7135016
v -0.335933 -0.414813 0.716014
v -0.334716 -0.360298 0.654176
v -0.339263 -0.356428 0.715872
v -0.3006981 -0.04127231 0.8188102
v -0.3100408 -0.1030791 0.8197231
v -0.3469671 -0.07034605 0.6736043
v -0.3467541 -0.1396342 0.701554
v -0.3321433 -0.2185462 0.7586664
v -0.3460045 -0.2196873 0.6712584
v -0.3116803 -0.2182798 0.8215488
v -0.3624432 -0.1132485 0.5050115
v -0.3584184 -0.142774 0.5919874
v -0.3574765 -0.1878384 0.5861949
v -0.3481521 -0.05312338 0.6004468
v -0.3559523 -0.09744682 0.5967813
v -0.3514858 -0.2886095 0.5753149
v -0.3365321 -0.3583242 0.5705652
v -0.3635152 -0.2438408 0.4911167
v -0.2502945 0.219272 0.2146224
v -0.2305997 0.2502786 0.1781165
v -0.257059 0.2079055 0.1558956
v -0.224342 0.248556 0.249012
v -0.2835274 0.1571923 0.2224144
v -0.201028 0.279793 0.204606
v -0.194044 0.2742295 0.2741245
v -0.173937 0.295795 0.151795
v -0.204742 0.274117 0.153286
v -0.2526494 0.1228895 0.4702984
v -0.2426723 0.1529093 0.4080964
v -0.1464438 0.2100481 0.4718018
v -0.1890013 0.2381693 0.3589033
v -0.197091 0.1771696 0.4739329
v -0.2189861 0.2329681 0.3080813
v -0.1565875 0.2627607 0.3564153
v -0.2790865 0.1333561 0.3230172
v -0.2472969 0.1951572 0.3015226
v -0.1883488 0.09937793 0.8411091
v -0.2042654 0.1234546 0.7791809
v -0.2299594 0.07153333 0.8250766
v -0.1490676 0.1562176 0.7931601
v -0.1434142 0.1058936 0.8702716
v -0.1466671 0.1334242 0.8343243
v -0.1204712 0.1865009 0.7529568
v -0.1675382 0.1719621 0.7192104
v -0.2080759 0.1365454 0.7357479
v -0.2629879 0.1025454 0.534173
v -0.2203704 0.1468085 0.5393305
v -0.154188 0.1890259 0.638691
v -0.1610452 0.1894726 0.5455378
v -0.344486 0.0003492499 0.3647276
v -0.3019401 0.0706977 0.4092872
v -0.3189093 0.07164514 0.2980498
v -0.308985 -0.0158364 0.772679
v -0.2897647 0.04383239 0.7274214
v -0.3247682 -0.01193597 0.7033397
v -0.263697 -0.007104272 0.8538153
v -0.213035 0.170022 -0.00953204
v -0.181753 0.135303 -0.0848536
v -0.20757 0.117335 -0.0616182
v -0.2940148 0.09432298 0.0444932
v -0.2576348 0.1366529 0.02479692
v -0.2621846 0.1869247 0.1119266
v -0.2422018 0.1913751 0.06577697
v -0.3028755 0.04632613 0.6065196
v -0.3066585 0.04940432 0.4732278
v -0.3366714 -0.007205041 0.4664321
v -0.3332315 -0.01067276 0.6023145
v -0.3399254 0.04733579 0.1790007
v -0.3240938 0.06798431 0.1059492
v -0.168374 0.1911897 -0.1351985
v -0.149034 0.119255 -0.152767
v -0.168725 0.158519 -0.103729
v -0.167426 0.259011 -0.0241111
v -0.1813681 0.2423207 0.01365391
v -0.1817451 0.2475262 -0.1029279
v -0.149721 0.3008 -0.00470029
v -0.1713122 0.2810314 -0.05314936
v -0.160058 0.168229 -0.195838
v -0.2071524 0.2341816 -0.1791061
v -0.2453589 0.3076503 -0.1515811
v -0.26422 0.274293 -0.228207
v -0.2342384 0.1966517 -0.294052
v -0.2189556 0.3385642 -0.08026029
v -0.2709234 0.4227443 -0.1237743
v -0.27622 0.344814 -0.176785
v -0.2114189 0.4016784 -0.02990457
v -0.249809 0.379204 -0.0978893
v -0.314639 0.343639 -0.292523
v -0.3016564 0.2894129 -0.2950497
v -0.192666 0.159829 -0.308601
v -0.330786 0.26947 -0.445487
v -0.307399 0.208213 -0.46356
v -0.31171 0.235804 -0.406418
v -0.259412 0.1698 -0.542722
v -0.265715 0.160342 -0.469212
v -0.305787 0.218563 -0.547441
v -0.290901 0.186126 -0.509143
v -0.1985946 0.134193 -0.3868394
v -0.195376 0.1215408 -0.4558073
v -0.2395219 0.1494187 -0.4137537
v -0.329541 0.345256 -0.410956
v -0.321008 0.352655 -0.511417
v -0.32675 0.280027 -0.535933
v -0.333345 0.309542 -0.480189
v -0.255976 0.429549 -0.563622
v -0.295245 0.436762 -0.484187
v -0.295399 0.395443 -0.540067
v -0.246645 0.312827 -0.640337
v -0.296456 0.295786 -0.60247
v -0.2493712 0.3720172 -0.6151388
v -0.2837373 0.3387076 -0.6062632
v -0.272516 0.239582 -0.609537
v -0.307295 0.256707 -0.578835
v -0.288912 -0.666279 -0.0831981
v -0.233667 -0.718383 -0.0394682
v -0.288313 -0.71953 0.0292002
v -0.335047 -0.66747 -0.026194
v -0.288523 -0.704927 -0.0329901
v -0.136552 -0.67511 -0.0280042
v -0.172796 -0.723594 0.0247169
v -0.187443 -0.669698 -0.0818819
v -0.179633 -0.708233 -0.0350267
v -0.182766 -0.687312 0.135767
v -0.227442 -0.724741 0.0933852
v -0.1373337 -0.684986 0.08245313
v -0.176191 -0.716151 0.0857864
v -0.327044 -0.674066 0.0872825
v -0.276152 -0.679477 0.14116
v -0.281161 -0.710704 0.0910758
v -0.288217 -0.679435 0.838379
v -0.248642 -0.724519 0.790895
v -0.198896 -0.723335 0.85193
v -0.2461 -0.678205 0.889508
v -0.246831 -0.711912 0.845432
v -0.24088 -0.688682 0.691628
v -0.198408 -0.728532 0.734591
v -0.283587 -0.684515 0.738785
v -0.244434 -0.716483 0.736358
v -0.115859 -0.693483 0.748115
v -0.148661 -0.727347 0.795626
v -0.1494034 -0.6933866 0.7015169
v -0.153047 -0.720555 0.741401
v -0.15574 -0.680004 0.892121
v -0.113033 -0.684171 0.844965
v -0.151829 -0.713932 0.849146
v -0.30391 -0.498066 0.668956
v -0.342489 -0.483419 0.78141
v -0.3265995 -0.5455004 0.7248874
v -0.319732 -0.633454 0.786428
v -0.308326 -0.632734 0.733956
v -0.2925938 -0.6247168 0.8833655
v -0.331331 -0.556659 0.842236
v -0.315639 -0.625673 0.839496
v -0.31354 -0.474577 0.887895
v -0.337524 -0.478425 0.840051
v -0.0969194 -0.478778 0.897495
v -0.07735891 -0.5643008 0.8527627
v -0.0634711 -0.431765 0.851899
v -0.0840444 -0.64607 0.797118
v -0.112805 -0.624088 0.888986
v -0.0899111 -0.634521 0.847274
v -0.0943475 -0.648249 0.746058
v -0.069956 -0.47422 0.735292
v -0.106684 -0.534636 0.682874
v -0.08288022 -0.5863175 0.7391728
v -0.208287 -0.52835 0.637223
v -0.2451956 -0.6317306 0.6622623
v -0.260651 -0.513618 0.642398
v -0.1561171 -0.6414163 0.6688256
v -0.153645 -0.534978 0.650489
v -0.1494963 -0.540883 0.9238658
v -0.262868 -0.552296 0.920108
v -0.267734 -0.472455 0.917082
v -0.203436 -0.628169 0.923071
v -0.253551 -0.622939 0.912658
v -0.153584 -0.625261 0.914716
v -0.387436 -0.440321 0.0296682
v -0.348561 -0.464054 0.158716
v -0.3731716 -0.5164522 0.09618146
v -0.354445 -0.427851 -0.0878125
v -0.378455 -0.525308 -0.0356201
v -0.380964 -0.432504 -0.0361787
v -0.368236 -0.614976 0.0306267
v -0.340742 -0.597899 -0.0798229
v -0.364087 -0.605614 -0.0296813
v -0.325558 -0.615423 0.139592
v -0.354786 -0.614851 0.0904298
v -0.12704 -0.448099 -0.0735785
v -0.182701 -0.527846 -0.109937
v -0.243518 -0.430642 -0.121062
v -0.179139 -0.436248 -0.106528
v -0.241923 -0.609859 -0.117359
v -0.141316 -0.607217 -0.0730372
v -0.186967 -0.607615 -0.104287
v -0.304443 -0.521287 -0.117606
v -0.296601 -0.602967 -0.109127
v -0.305291 -0.427537 -0.115465
v -0.25113 -0.502745 0.197094
v -0.188536 -0.577394 0.174934
v -0.148115 -0.512563 0.149929
v -0.196177 -0.511769 0.183546
v -0.293784 -0.559568 0.181063
v -0.304357 -0.484216 0.189956
v -0.233064 -0.638226 0.175543
v -0.282371 -0.626877 0.167977
v -0.145237 -0.635178 0.13052
v -0.185474 -0.638484 0.162245
v -0.0953701 -0.405611 -0.0214782
v -0.1006217 -0.5570031 0.03187568
v -0.1059632 -0.536321 -0.02745333
v -0.112515 -0.451919 0.0935688
v -0.1145835 -0.5710823 0.09365164
v -0.106751 -0.633108 0.0275567
v -0.117988 -0.635837 0.0828
v -0.114552 -0.619641 -0.0267392
v -0.308658 0.43336 -0.368305
v -0.271184 0.525759 -0.460079
v -0.291391 0.478507 -0.418527
v -0.298509 0.427522 -0.236282
v -0.317802 0.38717 -0.32759
v -0.2370722 0.5013492 -0.07644278
v -0.271214 0.498067 -0.167977
v -0.277875 0.55689 -0.190965
v -0.2833065 0.5244617 -0.2631833
v -0.247008 0.54474 -0.114114
v -0.271665 0.531425 -0.180446
v -0.26611 0.5889301 -0.4106846
v -0.278055 0.600765 -0.320108
v -0.2790075 0.550701 -0.3472093
v -0.326452 0.645309 -0.138504
v -0.267679 0.610284 -0.129549
v -0.258116 0.645451 -0.13607
v -0.430349 0.658277 -0.154382
v -0.380321 0.61857 -0.152413
v -0.384792 0.647908 -0.143704
v -0.401583 0.612716 -0.19176
v -0.367842 0.597467 -0.17194
v -0.239082 0.578957 -0.111996
v -0.2939061 0.5684966 -0.1711625
v -0.2832013 0.5795028 -0.1406716
v -0.2955276 0.5968907 -0.2735935
v -0.294318 0.572729 -0.209871
v -0.380591 0.614582 -0.245535
v -0.343967 0.620068 -0.286887
v -0.337287 0.5921162 -0.2372656
v -0.3549413 0.6823535 -0.3297188
v -0.3676884 0.6580182 -0.3140486
v -0.2895669 0.666046 -0.3470719
v -0.2938529 0.630651 -0.3206358
v -0.419572 0.658706 -0.261892
v -0.444197 0.711394 -0.263256
v -0.393743 0.706765 -0.3123
v -0.412958 0.685943 -0.291128
v -0.447289 0.655956 -0.196803
v -0.417303 0.633713 -0.225256
v -0.4433611 0.6998408 -0.1566888
v -0.471552 0.708579 -0.199184
v -0.460337 0.681448 -0.17325
v -0.43241 0.746455 -0.258303
v -0.4513424 0.7453489 -0.2087771
v -0.460792 0.730831 -0.231063
v -0.09275446 0.3204202 0.150166
v -0.137733 0.3115575 0.1974108
v -0.135299 0.30832 0.112598
v -0.1475245 0.2924533 0.3027746
v -0.1172822 0.3100176 0.2621875
v -0.07589442 0.3017295 0.3109099
v -0.07686259 0.3171966 0.2436751
v -0.0377827 0.232065 0.495188
v -0.09239465 0.2175433 0.5444982
v -0.0369868 0.226526 0.54726
v -0.09505291 0.2239665 0.4929227
v -0.07336514 0.2182409 0.6450874
v -0.1084695 0.2084601 0.640159
v -0.03758639 0.2241325 0.6478558
v -0.05247646 0.2036105 0.7607341
v -0.10286 0.172311 0.802347
v -0.101303 0.147713 0.844481
v -0.05079424 0.1577508 0.8516587
v -0.05842555 -0.4086795 0.02631297
v -0.00336777 -0.431932 0.04937762
v -0.08203192 -0.4141037 0.03715144
v -0.101981 -0.43742 0.118873
v -0.0714671 -0.377771 -0.01938634
v -0.02804261 -0.3428474 0.8912977
v -0.02636742 -0.3742979 0.8504779
v -0.0576974 -0.360469 0.893822
v -0.0495204 -0.395304 0.851292
v -0.0641499 -0.454693 0.696538
v -0.04724763 -0.4288693 0.7860056
v -0.02765614 -0.4114492 0.7859142
v -0.07927576 0.2780404 0.3665007
v -0.01092864 0.2805772 0.3667117
v -0.1193577 0.2739001 0.3614874
v -0.06350886 0.24406 0.44749
v -0.114267 0.235186 0.443214
v -0.03558417 0.3546322 0.03728745
v -0.084777 0.331134 0.0392602
v -0.02988622 0.3288983 0.07713641
v -0.02941355 0.338103 0.04873828
v -0.1279673 0.3378887 0.008806239
v -0.120968 0.319807 0.0225689
v -0.1229727 0.3098472 0.05206847
v -0.0632284 0.496693 0.0522852
v -0.03452051 0.3870217 0.04561424
v -0.03328264 0.4480097 0.05930843
v -0.18104 0.470039 0.00485434
v -0.1667003 0.4213435 0.0133107
v -0.0692761 0.505582 -0.562042
v -0.09312761 0.6398279 -0.5044006
v -0.1083705 0.5668011 -0.5322781
v -0.232047 0.565216 -0.501918
v -0.199187 0.49892 -0.545668
v -0.188173 0.564066 -0.51907
v -0.1767982 0.7357138 -0.4396749
v -0.0832933 0.7056871 -0.4767559
v -0.1692337 0.6766199 -0.477188
v -0.0726958 0.340957 -0.664799
v -0.2016664 0.4354317 -0.5888537
v -0.1942447 0.3505021 -0.6498191
v -0.138821 0.452917 -0.589054
v -0.0706181 0.454733 -0.593233
v -0.04725441 -0.2170709 0.9641138
v -0.1000821 -0.2840414 0.9365046
v -0.0688023 -0.319918 0.921674
v -0.01968 -0.3056117 0.9216949
v -0.04421146 -0.3207565 -0.09777198
v -0.07117827 -0.26948 -0.1431051
v -0.07940358 -0.316123 -0.09964058
v -0.08961795 -0.1848234 -0.1910359
v -0.04643369 -0.1879215 -0.1974945
v -0.05744843 -0.2298806 -0.1763638
v -0.04568991 -0.1277504 -0.2124989
v -0.0937169 -0.121882 -0.201748
v -0.115674 0.055105 -0.187883
v -0.08640175 -0.0103522 -0.2079109
v -0.0381981 0.0419961 -0.235526
v -0.04026396 -0.02387996 -0.2261558
v -0.07857191 0.06849767 -0.2200383
v -0.03904726 0.09536345 -0.2521573
v -0.120922 0.124855 -0.209363
v -0.118034 0.096215 -0.193935
v -0.0884331 0.12573 -0.258533
v -0.128964 0.142918 -0.232488
v -0.02695505 0.1178056 -0.3024525
v -0.09178533 0.1296788 -0.292783
v -0.02892734 0.1149423 -0.3286134
v -0.1388457 0.1482966 -0.2694091
v -0.1086778 0.1079682 -0.3949887
v -0.1549435 0.1190329 -0.3853445
v -0.0595919 0.101024 -0.449026
v -0.03749377 0.1020376 -0.3974792
v -0.125551 0.112279 -0.490196
v -0.0709982 0.126709 -0.538642
v -0.065189 0.10952 -0.494143
v -0.1874031 0.1263076 -0.5064969
v -0.219301 0.191387 -0.600189
v -0.1475 0.153854 -0.575332
v -0.210129 0.15949 -0.56385
v -0.0790718 0.182988 -0.615599
v -0.0759743 0.151547 -0.579976
v -0.154044 0.222564 -0.638941
v -0.0775425 0.260206 -0.661002
v -0.0792455 0.219987 -0.642965
v -0.213772 0.26767 -0.647803
v -0.21995 0.228648 -0.628685
v -0.144378 0.302534 -0.665208
v -0.202463 0.304851 -0.656009
v -0.0750102 0.301309 -0.668637
v -0.0606884 0.60785 0.00104436
v -0.126715 0.537337 0.0111468
v -0.0643107 0.550463 0.0321785
v -0.03489387 0.7393293 -0.08716663
v -0.0504326 0.666442 -0.034872
v -0.1652132 0.6137963 -0.07886159
v -0.1983109 0.5649528 -0.06521499
v -0.185308 0.513743 -0.0172354
v -0.237614 0.630468 -0.469873
v -0.253217 0.578269 -0.474783
v -0.246529 0.67248 -0.397952
v -0.2556076 0.6188022 -0.439637
v -0.2166205 0.6793366 -0.4586271
v -0.214224 0.916672 -0.246046
v -0.1921497 0.9466434 -0.2471275
v -0.177471 0.939132 -0.3014912
v -0.1956666 0.952322 -0.2791596
v -0.1549014 0.9380373 -0.286153
v -0.1751458 0.954506 -0.2672805
v -0.2158713 0.9413508 -0.280953
v -0.2041839 0.7682782 -0.2565944
v -0.2040248 0.7993242 -0.2727182
v -0.1772962 0.7865175 -0.3243897
v -0.1686547 0.7861208 -0.2154322
v -0.1969455 0.7949213 -0.2393363
v -0.1787747 0.7639741 -0.1954393
v -0.1263978 0.8078225 -0.2148363
v -0.1325591 0.8050199 -0.3407302
v -0.1457503 0.8074972 -0.335521
v -0.1060825 0.8153269 -0.3107292
v -0.0868063 0.8271269 -0.2680737
v -0.07941482 0.8224084 -0.2786186
v -0.2347431 0.7599452 -0.2436765
v -0.2085776 0.7620861 -0.2170384
v -0.2425169 0.7599114 -0.2139596
v -0.2010157 0.7690845 -0.2318728
v -0.2551069 0.7230502 -0.3280267
v -0.3548786 0.7131254 -0.3251914
v -0.2611437 0.6944373 -0.3528213
v -0.37536 0.738148 -0.30116
v -0.3928684 0.7601642 -0.238618
v -0.3825123 0.7548286 -0.2715835
v -0.2892212 0.7556085 -0.2706126
v -0.2562866 0.7487856 -0.1894138
v -0.4044022 0.7531943 -0.2034961
v -0.3040095 0.7639009 -0.2265765
v -0.409003 0.736167 -0.174314
v -0.329845 0.712932 -0.159268
v -0.4011538 0.6974383 -0.1489451
v -0.1789365 0.694602 -0.1525525
v -0.2484582 0.7012284 -0.1590159
v -0.06357773 0.8043785 -0.1893182
v -0.128352 0.75368 -0.16956
v -0.0771688 0.744134 -0.128582
v -0.1217814 0.7058692 -0.1331973
v -0.009173609 0.7795847 -0.1198514
v -0.05571051 0.8271879 -0.3363725
v -0.01865272 0.8019729 -0.413275
v -0.176513 0.760515 -0.410655
v -0.1260107 0.7827211 -0.4113713
v -0.1342843 0.7978747 -0.378045
v -0.02328659 0.8331066 -0.2589524
v -0.04508886 0.8232626 -0.2231827
v -0.2096899 0.7249346 -0.4208194
v -0.1930251 0.7627517 -0.3712668
v -0.232954 0.7228533 -0.3573643
v -0.2340759 0.7412734 -0.3069614
v -0.1950389 0.7934396 -0.2992413
v -0.1995435 0.870231 -0.3272518
v -0.1780834 0.8495925 -0.33467
v -0.197796 0.836731 -0.320106
v -0.2210845 0.8734842 -0.253134
v -0.2293631 0.9100652 -0.2824409
v -0.2102333 0.9125715 -0.3161434
v -0.1262335 0.8140177 -0.3265148
v -0.1269891 0.8874839 -0.2956354
v -0.1764534 0.9046744 -0.3232518
v -0.1032229 0.835824 -0.2265095
v -0.1154028 0.891013 -0.2662288
v -0.1361557 0.9282851 -0.2560248
v -0.1407047 0.9085425 -0.2261696
v -0.20634 0.8778399 -0.2360321
v -0.1580021 -0.4855802 0.5206538
v -0.2091788 -0.470292 0.4188986
v -0.1962649 -0.4734301 0.4722403
v -0.1369297 -0.4720152 0.5714193
v -0.1033336 -0.4649777 0.6284136
v -0.05675266 -0.4671036 0.6389057
v -0.05903745 -0.4579388 0.6730784
v -0.01429756 -0.4661378 0.6502643
v -0.04276292 -0.4487794 0.1638582
v -0.1185669 -0.4487383 0.219098
v -0.138015 -0.443895 0.192281
v -0.101319 -0.442167 0.150389
v -0.1984132 -0.4437835 0.298125
v -0.1688413 -0.4454918 0.2554813
v -0.1583602 -0.4711436 0.3077822
v -0.1876973 -0.4765996 0.3653557
v -0.2283908 -0.4366907 0.3511399
v -0.07180343 -0.5098273 0.5278488
v -0.07749771 -0.4802522 0.6002508
v -0.1750252 -0.4944247 0.4173162
v -0.1640113 -0.4958017 0.4704801
v -0.07740014 -0.5264668 0.415849
v -0.07583241 -0.5232697 0.4697282
v -0.07238432 -0.5156008 0.3598398
v -0.144743 -0.495777 0.363499
v -0.1496014 -0.01446973 0.9497709
v -0.1485015 -0.05411975 0.9604032
v -0.09714882 -0.01790145 0.9757025
v -0.2371534 -0.08738722 0.9068025
v -0.1880626 -0.03767124 0.9364776
v -0.2437042 -0.03762424 0.8916224
v -0.2483096 -0.145045 0.898574
v -0.1580948 -0.1744729 0.9479175
v -0.1458529 0.06213236 0.905808
v -0.08134355 0.09060779 0.9131105
v -0.03236093 0.08698984 0.9275208
v -0.09167773 0.0443632 0.9407315
v -0.03423752 -0.1142797 0.985762
v -0.1053238 -0.2159013 0.9555333
v -0.1048422 -0.0560237 0.9784314
v -0.07651186 -0.06719821 0.9936033
v -0.05133342 -0.06363133 1.026191
v -0.07434696 -0.03923818 1.002051
v -0.05213886 -0.00720411 0.9862879
v -0.03127454 -0.06068489 1.039412
v -0.02808368 -0.09383565 1.024522
f 348 349 357
f 82 2 346
f 357 346 2
f 80 349 347
f 350 81 351
f 352 351 80
f 349 80 351
f 353 82 355
f 346 355 82
f 81 354 351
f 355 351 354
f 356 357 83
f 2 83 357
f 84 364 358
f 360 358 364
f 83 359 356
f 360 356 359
f 361 85 364
f 362 364 85
f 363 364 84
f 85 365 362
f 348 362 365
f 370 366 367
f 86 367 366
f 369 370 88
f 368 88 370
f 372 374 741
f 371 741 374
f 373 374 86
f 367 86 374
f 87 375 381
f 376 381 375
f 741 743 372
f 376 372 743
f 88 368 15
f 377 15 368
f 375 87 377
f 92 380 90
f 378 90 380
f 92 377 87
f 381 91 87
f 379 380 382
f 384 382 380
f 91 383 87
f 384 87 383
f 1 389 387
f 93 386 385
f 387 385 386
f 388 387 389
f 385 394 93
f 392 93 394
f 393 394 390
f 88 395 369
f 397 369 395
f 96 397 396
f 15 398 88
f 395 88 398
f 400 399 403
f 396 403 96
f 401 96 403
f 402 403 399
f 405 437 82
f 2 82 437
f 404 435 437
f 399 406 402
f 405 402 406
f 82 353 405
f 407 406 97
f 410 97 406
f 435 404 19
f 407 19 404
f 409 100 408
f 431 408 100
f 407 97 98
f 411 100 409
f 410 99 411
f 90 378 417
f 413 417 378
f 99 416 411
f 414 411 416
f 400 95 416
f 415 416 95
f 95 398 415
f 417 415 398
f 389 1 419
f 420 101 421
f 422 421 418
f 102 103 9
f 421 9 103
f 419 423 389
f 103 102 423
f 428 425 427
f 427 423 102
f 424 426 427
f 428 9 430
f 425 428 429
f 429 428 430
f 433 431 432
f 104 432 431
f 98 408 433
f 105 432 430
f 438 105 101
f 430 9 105
f 434 98 433
f 105 438 434
f 83 2 436
f 437 436 2
f 19 434 435
f 83 436 359
f 101 420 438
f 436 438 420
f 106 440 443
f 439 443 440
f 449 480 440
f 447 442 441
f 444 441 442
f 444 106 443
f 442 447 445
f 480 449 482
f 449 446 448
f 465 107 450
f 450 108 4
f 448 450 107
f 445 109 446
f 451 705 109
f 108 109 705
f 454 110 16
f 17 111 455
f 452 455 111
f 114 456 108
f 4 108 456
f 112 114 457
f 16 110 458
f 114 112 458
f 113 456 459
f 110 453 458
f 459 458 453
f 100 460 431
f 464 461 465
f 460 465 461
f 460 100 463
f 429 467 425
f 115 425 467
f 452 468 453
f 471 470 469
f 469 468 452
f 470 425 115
f 472 116 474
f 382 474 379
f 473 379 474
f 475 116 492
f 118 475 117
f 443 439 475
f 473 118 3
f 117 3 118
f 459 476 113
f 466 467 476
f 477 476 467
f 431 461 104
f 477 104 461
f 464 113 476
f 412 479 414
f 478 414 479
f 3 117 479
f 413 479 412
f 481 440 480
f 478 482 463
f 462 463 482
f 483 119 485
f 487 485 119
f 485 484 472
f 116 472 484
f 495 120 487
f 486 487 119
f 490 488 489
f 491 489 488
f 484 492 116
f 489 491 492
f 504 493 505
f 495 505 493
f 120 495 494
f 497 498 122
f 496 122 498
f 493 504 498
f 499 123 501
f 122 638 497
f 499 497 638
f 494 501 120
f 490 120 501
f 500 501 123
f 503 505 124
f 502 124 505
f 125 506 764
f 503 764 506
f 508 510 126
f 507 126 510
f 509 510 125
f 506 125 510
f 512 498 504
f 126 511 508
f 512 508 511
f 513 516 126
f 511 126 516
f 515 516 130
f 514 130 516
f 128 518 517
f 519 517 518
f 126 507 513
f 519 513 507
f 129 521 520
f 523 520 521
f 522 523 128
f 518 128 523
f 130 514 524
f 526 524 514
f 525 526 129
f 521 129 526
f 528 531 132
f 527 132 531
f 529 135 531
f 530 531 135
f 533 535 133
f 532 133 535
f 132 534 528
f 535 528 534
f 134 537 536
f 539 536 537
f 133 538 533
f 539 533 538
f 135 529 540
f 542 540 529
f 542 537 541
f 134 541 537
f 544 547 137
f 543 137 547
f 547 545 546
f 140 546 545
f 549 551 138
f 548 138 551
f 137 550 544
f 551 544 550
f 139 552 30
f 554 30 552
f 138 553 549
f 554 549 553
f 140 545 555
f 557 555 545
f 552 139 557
f 556 557 139
f 418 558 422
f 560 422 558
f 567 559 560
f 562 563 142
f 561 142 563
f 419 563 418
f 558 418 563
f 140 564 546
f 566 546 564
f 142 565 562
f 566 562 565
f 560 568 567
f 140 555 564
f 568 564 555
f 570 572 144
f 569 144 572
f 571 572 145
f 577 575 573
f 144 574 570
f 575 570 574
f 576 578 138
f 553 138 578
f 578 575 577
f 145 572 579
f 580 579 572
f 138 548 576
f 580 576 548
f 584 582 567
f 559 567 582
f 358 582 84
f 581 84 582
f 139 583 556
f 584 556 583
f 583 139 585
f 30 585 139
f 84 581 363
f 586 363 581
f 577 573 585
f 586 585 573
f 145 588 571
f 588 587 392
f 93 392 587
f 589 590 137
f 550 137 590
f 588 145 590
f 579 590 145
f 142 591 565
f 592 565 591
f 137 543 589
f 592 589 543
f 587 593 93
f 386 93 593
f 591 142 593
f 561 593 142
f 146 596 594
f 96 401 595
f 596 595 401
f 597 599 132
f 534 132 599
f 596 146 599
f 598 599 146
f 147 601 600
f 602 600 601
f 132 527 597
f 602 597 527
f 595 604 96
f 397 96 604
f 601 147 604
f 603 604 147
f 86 605 373
f 608 373 605
f 608 606 607
f 149 607 606
f 609 610 147
f 603 147 610
f 366 610 86
f 605 86 610
f 135 611 530
f 612 530 611
f 147 600 609
f 612 609 600
f 606 614 149
f 613 149 614
f 611 135 614
f 540 614 135
f 151 616 615
f 618 615 616
f 81 350 617
f 618 617 350
f 152 616 133
f 538 133 616
f 146 619 598
f 133 532 152
f 619 152 532
f 617 620 81
f 354 81 620
f 594 620 146
f 619 146 620
f 607 149 621
f 622 621 153
f 154 153 621
f 134 623 541
f 624 541 623
f 149 613 621
f 624 621 613
f 625 151 627
f 134 536 623
f 625 623 536
f 153 154 626
f 627 626 154
f 615 627 151
f 629 631 155
f 628 155 631
f 524 631 130
f 630 130 631
f 632 156 629
f 157 629 156
f 637 634 633
f 156 635 157
f 634 157 635
f 636 638 122
f 634 637 638
f 130 630 515
f 639 515 630
f 122 496 636
f 639 636 496
f 641 643 158
f 640 158 643
f 839 643 161
f 642 161 643
f 159 645 644
f 647 644 645
f 158 646 641
f 647 641 646
f 160 649 648
f 645 648 649
f 642 652 161
f 650 161 652
f 651 652 160
f 649 160 652
f 164 653 156
f 635 156 653
f 644 653 159
f 659 159 653
f 657 655 654
f 656 654 655
f 656 164 632
f 156 632 164
f 655 657 658
f 659 163 670
f 661 663 165
f 660 165 663
f 662 163 663
f 658 663 163
f 166 664 36
f 666 36 664
f 165 665 661
f 666 661 665
f 160 667 651
f 669 651 667
f 664 166 669
f 668 669 166
f 163 662 670
f 670 667 648
f 160 648 667
f 672 671 168
f 169 168 673
f 44 673 168
f 169 447 674
f 710 672 674
f 441 674 447
f 678 170 676
f 681 675 682
f 676 682 675
f 679 170 680
f 677 680 170
f 457 682 112
f 679 112 682
f 685 683 684
f 687 688 684
f 689 688 686
f 680 677 685
f 454 685 455
f 689 455 685
f 690 172 1286
f 173 692 171
f 691 171 692
f 693 622 695
f 153 695 622
f 171 693 173
f 694 172 695
f 626 695 153
f 879 698 697
f 574 144 699
f 698 879 699
f 700 699 879
f 174 696 701
f 702 701 696
f 144 569 699
f 702 699 569
f 673 44 176
f 1298 176 44
f 675 681 703
f 451 704 705
f 176 704 673
f 1304 706 1305
f 708 1305 706
f 714 715 707
f 708 707 715
f 177 706 672
f 710 491 709
f 672 710 177
f 717 714 709
f 707 709 714
f 488 709 491
f 1310 713 1311
f 178 712 711
f 713 711 712
f 713 1310 715
f 123 716 500
f 717 500 716
f 178 711 718
f 716 718 711
f 720 719 181
f 723 181 719
f 180 721 720
f 181 723 724
f 179 726 725
f 722 24 724
f 726 724 24
f 720 728 180
f 735 180 728
f 727 728 179
f 726 179 728
f 732 730 731
f 182 731 730
f 721 180 733
f 729 733 732
f 735 525 734
f 129 734 525
f 730 736 182
f 129 520 734
f 736 734 520
f 1331 174 738
f 390 738 393
f 701 738 174
f 391 917 390
f 738 390 917
f 740 171 184
f 691 184 171
f 742 743 739
f 740 739 743
f 744 693 171
f 744 741 371
f 748 745 185
f 750 742 745
f 739 745 742
f 748 186 746
f 185 747 748
f 749 91 186
f 746 186 91
f 91 381 746
f 750 746 381
f 752 186 753
f 755 757 187
f 754 187 757
f 756 757 751
f 753 751 757
f 119 758 486
f 760 486 758
f 760 755 759
f 187 759 755
f 186 752 749
f 761 749 752
f 761 758 483
f 119 483 758
f 1357 762 1352
f 754 1352 762
f 188 189 37
f 762 37 189
f 764 763 188
f 189 188 763
f 124 502 763
f 759 763 502
f 37 767 188
f 766 188 767
f 190 769 768
f 770 768 769
f 771 773 125
f 509 125 773
f 772 773 190
f 769 190 773
f 188 766 764
f 771 764 766
f 125 764 771
f 775 190 774
f 768 774 190
f 776 777 182
f 731 182 777
f 128 778 522
f 779 522 778
f 182 736 776
f 779 776 736
f 772 190 780
f 775 780 190
f 517 780 128
f 778 128 780
f 784 712 781
f 178 781 712
f 782 783 784
f 786 637 785
f 781 178 786
f 718 786 178
f 787 785 158
f 646 158 785
f 633 785 637
f 792 789 788
f 790 788 789
f 158 640 787
f 790 787 640
f 783 782 791
f 792 791 782
f 727 179 795
f 793 795 179
f 628 795 155
f 794 155 795
f 796 797 725
f 793 179 725
f 794 797 798
f 805 800 799
f 801 799 800
f 802 195 196
f 803 196 801
f 806 804 862
f 804 196 195
f 804 806 799
f 807 197 808
f 810 809 859
f 811 813 814
f 812 814 816
f 814 815 817
f 818 197 807
f 820 821 822
f 816 825 812
f 825 837 824
f 826 828 824
f 827 199 828
f 831 830 829
f 826 829 830
f 200 830 165
f 665 165 830
f 165 660 200
f 832 200 660
f 827 834 199
f 833 199 834
f 654 834 657
f 832 657 834
f 836 837 835
f 161 838 839
f 839 836 34
f 835 34 836
f 166 840 668
f 650 668 840
f 161 650 838
f 166 36 840
f 841 840 36
f 837 842 824
f 831 829 841
f 842 841 829
f 202 843 822
f 815 822 843
f 1430 845 844
f 845 843 202
f 846 847 792
f 41 847 1430
f 845 1430 847
f 835 203 34
f 792 788 846
f 203 846 788
f 203 835 817
f 849 39 848
f 850 849 198
f 819 198 849
f 807 850 198
f 853 852 722
f 24 722 852
f 850 851 852
f 853 1432 204
f 42 202 1436
f 854 1436 202
f 823 848 821
f 796 852 851
f 828 199 855
f 809 855 808
f 851 808 855
f 796 855 797
f 798 797 855
f 833 855 199
f 856 864 205
f 809 808 856
f 801 857 803
f 803 205 802
f 206 858 800
f 857 800 858
f 856 859 809
f 858 206 859
f 819 860 198
f 861 198 860
f 862 195 861
f 205 863 802
f 195 802 861
f 863 861 802
f 198 861 818
f 864 818 861
f 863 205 864
f 820 865 869
f 821 820 866
f 869 806 867
f 865 868 869
f 870 867 860
f 862 860 867
f 862 867 806
f 823 821 870
f 866 870 821
f 811 872 813
f 805 871 800
f 872 800 871
f 206 800 872
f 868 871 805
f 873 876 85
f 365 85 876
f 875 876 207
f 874 207 876
f 878 209 877
f 877 873 361
f 85 361 873
f 878 700 879
f 879 697 1464
f 879 889 209
f 1286 172 881
f 880 881 885
f 172 694 881
f 883 881 694
f 885 884 886
f 211 352 887
f 80 887 352
f 884 882 211
f 887 875 888
f 207 888 875
f 347 887 80
f 894 889 890
f 889 894 209
f 895 896 891
f 893 891 896
f 892 893 890
f 894 896 208
f 874 208 896
f 208 877 894
f 209 894 877
f 898 897 900
f 899 900 897
f 895 891 902
f 898 902 891
f 901 900 886
f 210 901 884
f 886 884 901
f 888 902 210
f 901 210 902
f 912 922 909
f 909 903 212
f 905 903 904
f 94 213 391
f 905 391 213
f 426 424 906
f 388 906 94
f 213 94 906
f 907 906 424
f 212 908 909
f 912 909 214
f 910 908 471
f 907 908 212
f 911 910 111
f 471 469 910
f 17 911 111
f 913 914 215
f 911 915 912
f 914 912 915
f 916 915 686
f 1494 737 919
f 918 905 904
f 918 921 919
f 216 921 920
f 922 920 921
f 920 925 923
f 925 920 914
f 924 925 914
f 217 919 216
f 921 216 919
f 926 928 929
f 929 927 923
f 218 931 930
f 941 930 931
f 939 941 936
f 219 938 932
f 934 932 938
f 933 934 218
f 931 218 934
f 935 220 938
f 936 938 220
f 937 938 219
f 220 1473 936
f 940 223 941
f 930 941 223
f 221 224 942
f 939 942 224
f 944 945 222
f 943 222 945
f 224 221 945
f 223 940 946
f 948 946 940
f 222 947 944
f 948 944 947
f 949 952 225
f 46 225 952
f 952 950 951
f 227 951 950
f 953 955 965
f 225 954 949
f 955 949 954
f 226 956 1335
f 50 1335 956
f 965 966 953
f 50 953 966
f 950 959 227
f 957 227 959
f 958 959 226
f 956 226 959
f 967 962 963
f 229 965 964
f 230 964 965
f 966 965 229
f 967 965 955
f 231 969 968
f 971 968 969
f 970 971 232
f 973 975 1329
f 972 1329 975
f 974 975 231
f 969 231 975
f 1329 1495 973
f 977 973 1495
f 978 232 971
f 233 235 980
f 225 46 979
f 980 979 46
f 981 234 982
f 983 982 233
f 235 233 982
f 985 982 234
f 979 986 225
f 954 225 986
f 236 987 244
f 991 218 987
f 930 987 218
f 244 989 236
f 988 236 989
f 995 990 994
f 988 994 990
f 218 991 933
f 234 981 990
f 991 990 981
f 237 992 993
f 47 993 992
f 995 63 54
f 63 237 993
f 988 996 994
f 984 239 986
f 997 986 239
f 985 998 984
f 239 984 998
f 54 63 998
f 999 998 63
f 232 1000 970
f 240 1002 1001
f 1000 1001 1002
f 1003 1015 1013
f 1000 232 1015
f 1005 1003 1013
f 1001 1008 240
f 1006 240 1008
f 1007 1008 1004
f 1005 1004 1008
f 243 1010 241
f 1009 241 1010
f 243 1011 1012
f 1014 1013 1012
f 242 1010 61
f 1015 61 1010
f 996 1016 992
f 1016 1020 47
f 1019 47 1020
f 1018 1023 1021
f 1023 1016 996
f 1012 1017 1014
f 1018 1014 1017
f 1021 1004 1018
f 1011 1020 1012
f 1017 1012 1020
f 223 1022 930
f 987 930 1022
f 1004 1021 1007
f 1022 1007 1021
f 946 1022 223
f 989 244 1023
f 1024 1026 254
f 1067 1026 246
f 1025 246 1026
f 1038 1027 1041
f 1024 1041 1027
f 254 1028 1024
f 1029 1030 245
f 1027 1038 1030
f 1032 246 1025
f 245 1031 1029
f 1032 1029 1031
f 1034 1033 1037
f 1056 1034 1040
f 1039 1036 1035
f 247 1035 1036
f 1030 1038 1036
f 1041 1040 1034
f 249 1044 1043
f 1046 1047 1042
f 248 1050 1049
f 1049 1045 1048
f 1043 1050 249
f 62 1050 248
f 1033 1052 1037
f 1051 62 1052
f 1049 1053 248
f 1054 1037 1052
f 1070 1056 1071
f 1055 1071 1056
f 993 47 1055
f 1055 250 993
f 1058 1060 241
f 1059 251 1060
f 1009 1061 252
f 241 1009 1058
f 249 252 1044
f 1061 1044 252
f 252 249 1059
f 960 1064 963
f 961 963 1064
f 1063 1064 253
f 1062 253 1064
f 48 1065 1066
f 246 1068 1067
f 1066 1065 1068
f 1067 1068 1065
f 253 1062 1079
f 1068 1079 1062
f 62 1051 1069
f 1070 1069 1051
f 1072 1071 1019
f 47 1019 1071
f 251 1069 1060
f 1072 1060 1069
f 238 999 1074
f 1073 1074 999
f 1057 1028 250
f 1073 250 1028
f 1065 1074 1067
f 254 1067 1074
f 1074 1065 238
f 1077 1063 253
f 1076 1077 256
f 1075 256 1077
f 1078 1079 255
f 1082 1078 1081
f 255 1081 1078
f 1083 256 1075
f 1084 1075 1080
f 1080 1085 1084
f 259 1087 1086
f 1084 1086 1087
f 64 1091 1088
f 1085 1080 1088
f 1082 1088 1080
f 258 1090 1089
f 1092 1089 1090
f 1092 1088 1091
f 1086 1094 259
f 1093 1094 258
f 1090 258 1094
f 1095 1087 1103
f 1105 1103 1087
f 260 1097 1096
f 1098 1096 1097
f 1098 259 1094
f 1100 1102 261
f 1099 261 1102
f 1101 1102 260
f 1097 260 1102
f 261 1104 1100
f 1105 1100 1104
f 1107 1109 263
f 1106 263 1109
f 1096 1109 260
f 1108 260 1109
f 1116 1112 1115
f 1110 1115 1112
f 263 1111 1107
f 1112 1107 1111
f 1114 1116 264
f 1113 264 1116
f 260 1108 1101
f 1118 1101 1108
f 264 1117 1114
f 1118 1114 1117
f 1120 1123 266
f 1119 266 1123
f 1121 269 1123
f 1122 1123 269
f 1125 1127 267
f 1124 267 1127
f 266 1126 1120
f 1127 1120 1126
f 268 1129 1128
f 1131 1128 1129
f 267 1130 1125
f 1131 1125 1130
f 269 1121 1132
f 1134 1132 1121
f 1129 268 1134
f 1133 1134 268
f 1136 1139 271
f 1135 271 1139
f 1137 274 1139
f 1138 1139 274
f 1141 1143 272
f 1140 272 1143
f 271 1142 1136
f 1143 1136 1142
f 273 1145 1144
f 1147 1144 1145
f 272 1146 1141
f 1147 1141 1146
f 274 1137 1148
f 1150 1148 1137
f 1145 273 1150
f 1149 1150 273
f 276 1153 1151
f 240 1006 1152
f 1153 1152 1006
f 271 1154 1142
f 1155 1142 1154
f 1153 276 1155
f 277 1157 1156
f 1158 1156 1157
f 271 1135 1154
f 1158 1154 1135
f 1152 1160 240
f 1002 240 1160
f 1157 277 1160
f 1159 1160 277
f 1161 279 1162
f 1163 1162 281
f 282 281 1162
f 273 1164 1149
f 1166 1149 1164
f 279 1165 1162
f 1166 1162 1165
f 1167 280 1170
f 1164 273 1167
f 1144 1167 273
f 281 282 1168
f 1170 1168 282
f 280 1169 1170
f 1171 1173 222
f 947 222 1173
f 1151 1173 276
f 1172 276 1173
f 280 1174 1169
f 1175 1169 1174
f 222 943 1171
f 1175 1171 943
f 283 1174 272
f 1146 272 1174
f 272 1140 283
f 1172 283 1140
f 1176 974 284
f 231 284 974
f 279 1161 1176
f 1177 1178 277
f 1159 277 1178
f 284 231 1178
f 968 1178 231
f 274 1179 1138
f 1180 1138 1179
f 277 1156 1177
f 1180 1177 1156
f 1176 1181 279
f 1165 279 1181
f 1181 1179 1148
f 274 1148 1179
f 233 1182 983
f 1184 983 1182
f 286 1183 1184
f 1186 1187 285
f 1185 285 1187
f 980 1187 233
f 1182 233 1187
f 269 1188 1122
f 1190 1122 1188
f 285 1189 1186
f 1190 1186 1189
f 1184 1192 286
f 1191 286 1192
f 1188 269 1192
f 1132 1192 269
f 1196 1193 1194
f 288 1194 1193
f 227 957 1195
f 1196 1195 957
f 1197 1199 266
f 1126 266 1199
f 1194 288 1199
f 1198 1199 288
f 285 1200 1189
f 1201 1189 1200
f 266 1119 1197
f 1201 1197 1119
f 951 227 1202
f 1195 1202 227
f 1200 285 1202
f 1185 1202 285
f 219 1203 937
f 1206 937 1203
f 290 1205 1204
f 1206 1204 1205
f 1207 1208 286
f 1183 286 1208
f 932 1208 219
f 1203 219 1208
f 268 1209 1133
f 1210 1133 1209
f 286 1191 1207
f 1210 1207 1191
f 1204 1212 290
f 1211 290 1212
f 1128 1212 268
f 1209 268 1212
f 1214 1215 292
f 1213 292 1215
f 1193 1215 288
f 1205 290 1217
f 292 1216 1214
f 1217 1214 1216
f 267 1218 1130
f 1219 1130 1218
f 290 1211 1217
f 1219 1217 1211
f 288 1215 1198
f 1220 1198 1215
f 267 1124 1218
f 1220 1218 1124
f 1221 1223 263
f 1111 263 1223
f 1222 1223 1232
f 1234 1232 1223
f 258 1224 1093
f 1225 1093 1224
f 263 1106 1221
f 1225 1221 1106
f 1227 1089 1226
f 1224 258 1089
f 293 1229 1228
f 1231 1228 1229
f 1231 1227 1230
f 1226 1230 1227
f 1233 1234 293
f 1229 293 1234
f 1425 294 1237
f 1235 1237 294
f 1236 296 1237
f 1239 1240 295
f 1238 295 1240
f 1235 294 1240
f 1423 1240 294
f 1245 1242 1244
f 77 1244 1242
f 295 1241 1239
f 1242 1239 1241
f 296 1236 1243
f 1245 1243 1236
f 1250 1247 1244
f 1246 293 1247
f 1228 1247 293
f 298 1249 1248
f 1250 1248 1249
f 1244 77 1250
f 1254 1252 1253
f 1251 1253 1252
f 1249 298 1252
f 1254 1233 1246
f 293 1246 1233
f 1255 1258 298
f 1252 298 1258
f 1257 1258 300
f 1256 300 1258
f 1259 1260 295
f 1241 295 1260
f 298 1248 1255
f 1260 1255 1248
f 1262 1263 299
f 1261 299 1263
f 295 1238 1259
f 1263 1259 1238
f 300 1256 1264
f 1266 1264 1256
f 299 1265 1262
f 1266 1262 1265
f 168 671 1273
f 1031 245 1268
f 1269 1268 1267
f 1272 1271 1270
f 1271 1268 245
f 1271 1272 1273
f 1277 1275 1274
f 1276 1274 1275
f 1276 1280 676
f 678 676 1280
f 1279 1275 1053
f 1054 1053 1275
f 1279 60 1278
f 302 1278 60
f 1278 302 1280
f 1281 304 683
f 684 683 304
f 1282 1048 1045
f 60 1048 302
f 1281 302 1048
f 1283 303 1284
f 1283 1282 1047
f 1045 1047 1282
f 304 1284 684
f 687 684 1284
f 305 1285 1286
f 1286 1285 690
f 1216 292 1287
f 1288 1287 305
f 1285 305 1287
f 1332 1289 1334
f 1289 1287 1213
f 292 1213 1287
f 1285 1289 690
f 692 690 1289
f 1296 175 1291
f 696 1291 175
f 281 1295 1163
f 1293 1163 1295
f 1290 1292 1291
f 1293 1291 1292
f 1296 1295 306
f 1294 306 1295
f 1168 1295 281
f 175 1296 698
f 1298 1272 1297
f 1270 1299 1272
f 1297 1272 1299
f 1301 1277 1300
f 1039 1035 1299
f 1301 1299 1035
f 1298 1300 703
f 1274 1300 1277
f 307 1303 1302
f 1305 1302 1303
f 1081 255 1307
f 1308 1307 255
f 1306 1307 307
f 1303 307 1307
f 1267 308 1269
f 1308 1269 308
f 671 1304 1267
f 308 1267 1304
f 309 310 1309
f 1311 1309 310
f 309 1312 310
f 1313 310 1312
f 1091 64 1313
f 1306 1313 64
f 311 1316 1314
f 1316 1315 719
f 723 719 1315
f 1317 312 1319
f 1322 1319 312
f 1318 1319 311
f 1316 311 1319
f 313 1321 1320
f 1322 1320 1321
f 312 1387 1322
f 1315 1321 723
f 729 1323 315
f 314 315 1323
f 1325 1115 1324
f 315 314 1325
f 311 1326 1318
f 1324 1318 1326
f 1110 1324 1115
f 1327 733 729
f 1326 311 1327
f 1314 1327 311
f 1328 183 737
f 1331 1330 1290
f 1292 1290 1330
f 1330 1329 972
f 691 1332 184
f 226 1333 958
f 1334 958 1333
f 1335 1336 1337
f 1335 1337 226
f 1333 226 1337
f 1337 740 184
f 745 1338 185
f 1339 966 229
f 1336 1335 1338
f 1339 1338 1335
f 1340 1344 1341
f 964 1341 229
f 1343 747 185
f 1344 1342 1341
f 1343 1341 1342
f 1342 1344 1345
f 1347 1076 1346
f 256 1346 1076
f 1347 1344 1340
f 1349 1353 1348
f 1351 1348 1353
f 256 1083 1346
f 1349 1346 1083
f 1345 756 751
f 1348 1351 756
f 1350 756 1351
f 1352 1350 1351
f 1103 1355 1095
f 1353 1095 1355
f 1354 1355 317
f 1104 317 1355
f 317 1356 1354
f 1357 1354 1356
f 1358 1360 317
f 1356 317 1360
f 1359 765 1360
f 767 1360 765
f 261 1361 1104
f 317 1104 1358
f 1361 1358 1104
f 1363 1364 318
f 1362 318 1364
f 1099 1364 261
f 1361 261 1364
f 1366 770 1359
f 765 1359 770
f 318 1365 1363
f 1366 1363 1365
f 1367 1369 318
f 1365 318 1369
f 1369 1368 774
f 192 774 1368
f 1370 1371 264
f 1117 264 1371
f 1362 1371 318
f 1367 318 1371
f 314 1372 1325
f 1373 1325 1372
f 264 1113 1370
f 1373 1370 1113
f 1368 1374 192
f 777 192 1374
f 1372 314 1374
f 1323 1374 314
f 1377 783 1375
f 1377 1376 1309
f 309 1309 1376
f 1378 321 1379
f 783 791 1375
f 1379 1375 791
f 1380 321 1429
f 1230 1226 1381
f 1243 1381 296
f 1380 296 1381
f 1376 1382 309
f 1312 309 1382
f 1382 1381 1226
f 1222 1232 1384
f 1386 1384 1232
f 1317 1384 312
f 1383 312 1384
f 1386 1385 323
f 1383 1387 312
f 1438 1387 323
f 324 1389 1388
f 1394 1388 1389
f 1393 1389 325
f 1393 1390 1391
f 325 1392 1393
f 1448 1447 1394
f 1448 1394 1390
f 1391 1390 1394
f 1395 1396 1442
f 1399 1398 328
f 327 1401 1400
f 1426 1401 327
f 1398 1401 328
f 78 1452 1401
f 1403 1402 79
f 1406 1404 329
f 329 1405 1406
f 78 330 1452
f 1400 1398 1408
f 1398 1410 1408
f 1417 1407 1441
f 1412 1413 1253
f 300 1414 1257
f 1412 1257 1414
f 1253 1251 1412
f 1264 1416 300
f 1414 300 1416
f 1415 1420 1416
f 1417 1416 1420
f 1415 1419 1420
f 1420 1418 1409
f 299 1421 1265
f 1419 1265 1421
f 294 1422 1423
f 299 1261 1421
f 1423 1421 1261
f 1425 1424 1418
f 332 1418 1424
f 294 1425 1422
f 327 334 1426
f 1427 327 332
f 321 1428 1429
f 1429 1427 1424
f 332 1424 1427
f 41 1430 1378
f 1428 321 1378
f 1437 1426 844
f 336 1431 204
f 39 204 1431
f 1432 313 1434
f 204 1432 336
f 1435 1434 335
f 1433 335 1434
f 1320 1434 313
f 1431 1435 1402
f 1404 1431 1402
f 42 1436 1437
f 1437 1436 330
f 1406 330 1436
f 78 1437 330
f 335 1433 1439
f 1438 1439 1433
f 1413 1411 1440
f 1385 1440 323
f 1438 323 1440
f 1439 1441 1397
f 326 1397 1441
f 1440 1411 1441
f 1445 1397 1442
f 1445 1443 1444
f 337 1396 1446
f 1447 337 1446
f 1404 1449 1450
f 1451 1444 1443
f 1444 1449 1403
f 1390 1451 1448
f 1443 1448 1451
f 1392 1451 1390
f 330 338 1452
f 1405 1453 330
f 338 330 1453
f 1392 325 1454
f 1453 1450 1454
f 1392 1454 1450
f 1455 1454 325
f 1399 328 1456
f 328 1455 339
f 324 1388 339
f 1456 339 1388
f 53 1458 942
f 1459 942 1458
f 1459 1477 1457
f 1461 1460 1475
f 1460 1461 945
f 1463 1461 1462
f 306 1294 1463
f 1462 1461 1475
f 697 1463 1464
f 1465 880 885
f 1286 880 305
f 1465 340 1466
f 1468 1288 305
f 1468 1466 1467
f 1467 1466 1470
f 1470 1469 935
f 220 935 1469
f 1472 1458 1473
f 1469 1473 220
f 1458 53 1473
f 890 889 1474
f 1475 1474 889
f 1474 1460 1457
f 1479 1477 1478
f 1476 1478 1477
f 1479 892 1474
f 890 1474 892
f 897 1480 899
f 1472 1471 1481
f 1476 1481 1478
f 1480 1478 1481
f 340 341 1466
f 341 1471 1470
f 341 340 899
f 1496 1484 1483
f 1482 1483 1484
f 1485 242 1488
f 1486 1487 1485
f 343 1488 976
f 978 976 1488
f 61 1488 242
f 976 977 343
f 1489 343 977
f 1489 342 1483
f 344 1490 1042
f 1046 1042 1490
f 1061 344 1044
f 1044 344 1042
f 344 1061 1487
f 1492 913 215
f 345 1500 913
f 1492 303 1491
f 215 916 1492
f 1493 1491 1490
f 1500 345 1484
f 1493 1484 345
f 1490 1482 1493
f 342 1494 45
f 1494 1495 1328
f 1489 1495 342
f 1484 1496 1499
f 1484 1499 1500
f 1501 1499 1498
f 924 913 1500
f 217 1497 45
f 928 1501 1498
f 1497 1502 1498
f 1502 929 928
f 357 349 346
f 349 348 347
f 351 352 350
f 5 350 352
f 8 353 354
f 355 354 353
f 351 355 349
f 346 349 355
f 362 348 356
f 357 356 348
f 10 358 359
f 360 359 358
f 356 360 362
f 364 362 360
f 364 363 361
f 7 361 363
f 365 347 348
f 370 369 366
f 368 370 89
f 367 89 370
f 6 371 373
f 374 373 371
f 89 367 372
f 374 372 367
f 372 376 89
f 375 89 376
f 89 375 368
f 377 368 375
f 3 378 379
f 380 379 378
f 377 92 15
f 90 15 92
f 382 384 14
f 383 14 384
f 87 384 92
f 380 92 384
f 387 386 1
f 94 385 387
f 389 426 388
f 387 388 94
f 391 390 94
f 11 392 393
f 394 393 392
f 394 385 390
f 94 390 385
f 395 396 397
f 396 395 95
f 398 95 395
f 399 400 99
f 95 400 396
f 403 396 400
f 8 401 402
f 403 402 401
f 437 405 404
f 8 402 353
f 405 353 402
f 406 404 405
f 99 410 399
f 406 399 410
f 404 406 407
f 98 409 408
f 19 407 98
f 409 98 97
f 97 410 409
f 411 409 410
f 378 3 413
f 417 413 415
f 412 415 413
f 416 415 414
f 412 414 415
f 416 99 400
f 15 90 398
f 417 398 90
f 418 103 419
f 10 420 422
f 421 422 420
f 103 418 421
f 101 9 421
f 426 389 423
f 423 419 103
f 427 425 424
f 423 427 426
f 102 428 427
f 9 428 102
f 430 18 429
f 408 431 433
f 432 105 433
f 18 430 104
f 432 104 430
f 101 105 9
f 98 434 19
f 434 433 105
f 437 435 436
f 438 435 434
f 10 359 420
f 436 420 359
f 438 436 435
f 440 106 449
f 13 441 443
f 444 443 441
f 442 106 444
f 12 445 447
f 445 446 442
f 106 442 446
f 107 482 448
f 449 448 482
f 446 449 106
f 465 450 4
f 109 108 450
f 450 448 109
f 446 109 448
f 12 451 445
f 109 445 451
f 457 108 705
f 453 110 452
f 110 454 452
f 455 452 454
f 456 113 4
f 108 457 114
f 458 112 16
f 458 459 114
f 456 114 459
f 461 431 460
f 465 460 462
f 411 463 100
f 463 462 460
f 4 464 465
f 462 107 465
f 18 467 429
f 467 466 115
f 466 453 468
f 466 468 115
f 452 111 469
f 115 468 470
f 469 470 468
f 425 470 424
f 471 424 470
f 14 472 382
f 474 382 472
f 474 116 473
f 118 473 116
f 13 443 492
f 475 492 443
f 116 475 118
f 117 475 439
f 379 473 3
f 453 466 459
f 476 459 466
f 104 477 18
f 467 18 477
f 476 477 464
f 461 464 477
f 113 464 4
f 414 478 411
f 463 411 478
f 479 481 478
f 479 413 3
f 481 479 117
f 440 481 439
f 117 439 481
f 107 462 482
f 481 480 478
f 482 478 480
f 14 483 472
f 485 472 483
f 487 121 485
f 484 485 121
f 20 495 486
f 487 486 495
f 121 487 120
f 488 490 500
f 120 490 121
f 489 121 490
f 13 492 491
f 121 489 484
f 492 484 489
f 505 495 20
f 493 494 495
f 22 496 498
f 494 493 497
f 498 497 493
f 638 21 499
f 123 499 21
f 497 499 494
f 501 494 499
f 501 500 490
f 20 502 505
f 127 504 503
f 505 503 504
f 124 764 503
f 506 127 503
f 25 507 509
f 510 509 507
f 127 506 508
f 510 508 506
f 498 512 22
f 511 22 512
f 508 512 127
f 504 127 512
f 22 511 515
f 516 515 511
f 131 514 513
f 516 513 514
f 517 519 25
f 507 25 519
f 513 519 131
f 518 131 519
f 523 522 520
f 736 520 522
f 131 518 521
f 523 521 518
f 23 524 525
f 526 525 524
f 526 514 521
f 131 521 514
f 531 530 527
f 26 527 530
f 136 529 528
f 531 528 529
f 532 535 31
f 534 31 535
f 136 528 533
f 535 533 528
f 536 539 28
f 538 28 539
f 136 533 537
f 539 537 533
f 540 542 29
f 541 29 542
f 136 537 529
f 542 529 537
f 543 547 27
f 546 27 547
f 141 545 544
f 547 544 545
f 551 550 548
f 141 544 549
f 551 549 544
f 553 30 554
f 549 554 141
f 552 141 554
f 555 557 32
f 556 32 557
f 141 552 545
f 557 545 552
f 10 422 559
f 560 559 422
f 558 143 560
f 563 419 561
f 1 561 419
f 143 558 562
f 563 562 558
f 546 566 27
f 565 27 566
f 562 566 143
f 564 143 566
f 567 568 32
f 555 32 568
f 143 564 560
f 568 560 564
f 11 569 571
f 572 571 569
f 7 573 574
f 575 574 573
f 553 578 30
f 577 30 578
f 570 575 576
f 578 576 575
f 579 580 550
f 548 550 580
f 576 580 570
f 572 570 580
f 10 559 358
f 582 358 559
f 583 581 584
f 582 584 581
f 556 584 32
f 567 32 584
f 577 585 30
f 7 363 573
f 586 573 363
f 585 586 583
f 581 583 586
f 11 571 392
f 588 392 571
f 579 550 590
f 587 588 589
f 590 589 588
f 565 592 27
f 543 27 592
f 589 592 587
f 591 587 592
f 593 561 386
f 1 386 561
f 593 587 591
f 8 594 401
f 596 401 594
f 595 596 148
f 534 599 31
f 598 31 599
f 148 596 597
f 599 597 596
f 600 602 26
f 527 26 602
f 597 602 148
f 601 148 602
f 604 603 397
f 369 397 603
f 148 601 595
f 604 595 601
f 373 608 6
f 607 6 608
f 605 150 608
f 606 608 150
f 603 610 369
f 366 369 610
f 610 609 605
f 150 605 609
f 530 612 26
f 600 26 612
f 609 612 150
f 611 150 612
f 613 614 29
f 540 29 614
f 150 611 606
f 614 606 611
f 615 618 5
f 350 5 618
f 617 618 152
f 616 152 618
f 538 616 28
f 151 28 616
f 598 619 31
f 532 31 619
f 8 354 594
f 620 594 354
f 152 619 617
f 620 617 619
f 6 607 622
f 621 622 607
f 541 624 29
f 613 29 624
f 621 624 154
f 623 154 624
f 151 625 28
f 536 28 625
f 154 623 627
f 625 627 623
f 5 626 615
f 627 615 626
f 23 628 524
f 631 524 628
f 157 630 629
f 631 629 630
f 33 632 155
f 629 155 632
f 635 35 634
f 633 634 35
f 21 638 637
f 157 634 636
f 638 636 634
f 515 639 22
f 496 22 639
f 636 639 157
f 630 157 639
f 34 640 839
f 643 839 640
f 643 641 642
f 162 642 641
f 644 647 35
f 646 35 647
f 641 647 162
f 645 162 647
f 159 648 645
f 649 162 645
f 652 651 650
f 668 650 651
f 162 649 642
f 652 642 649
f 653 644 635
f 35 635 644
f 653 164 659
f 33 654 632
f 656 632 654
f 655 164 656
f 164 655 163
f 658 163 655
f 159 659 648
f 670 648 659
f 163 659 164
f 663 658 660
f 657 660 658
f 167 662 661
f 663 661 662
f 665 36 666
f 661 666 167
f 664 167 666
f 651 669 668
f 167 664 667
f 669 667 664
f 667 670 167
f 662 167 670
f 168 169 672
f 447 169 12
f 673 12 169
f 13 710 441
f 674 441 710
f 169 674 672
f 682 676 170
f 170 678 677
f 683 677 678
f 112 679 16
f 680 16 679
f 682 457 681
f 170 679 682
f 677 683 685
f 688 687 686
f 686 17 689
f 455 689 17
f 688 689 684
f 16 680 454
f 685 454 680
f 684 689 685
f 172 690 173
f 692 173 690
f 622 693 6
f 695 173 693
f 695 626 694
f 5 694 626
f 173 695 172
f 699 700 574
f 7 574 700
f 175 698 699
f 701 702 11
f 569 11 702
f 696 175 702
f 699 702 175
f 703 176 1298
f 176 703 681
f 681 457 705
f 704 176 705
f 681 705 176
f 12 673 451
f 704 451 673
f 715 1302 708
f 1305 708 1302
f 706 177 708
f 707 708 177
f 671 672 1304
f 706 1304 672
f 491 710 13
f 709 177 710
f 500 717 488
f 709 488 717
f 177 709 707
f 712 40 713
f 1311 713 40
f 1302 715 1310
f 711 713 714
f 715 714 713
f 716 711 717
f 714 717 711
f 21 718 123
f 716 123 718
f 720 721 719
f 38 722 723
f 724 723 722
f 725 726 24
f 724 726 181
f 23 735 727
f 728 727 735
f 181 726 720
f 728 720 726
f 729 732 731
f 180 730 733
f 732 733 730
f 23 525 735
f 735 734 180
f 730 180 734
f 734 736 730
f 917 737 738
f 183 738 737
f 1331 738 183
f 11 393 701
f 738 701 393
f 376 743 742
f 740 743 741
f 371 6 744
f 693 744 6
f 741 744 740
f 171 740 744
f 746 750 748
f 745 748 750
f 186 748 747
f 14 383 749
f 91 749 383
f 742 750 376
f 381 376 750
f 751 753 747
f 186 747 753
f 757 756 754
f 1350 754 756
f 752 753 755
f 757 755 753
f 20 486 759
f 760 759 486
f 758 752 760
f 755 760 752
f 749 761 14
f 483 14 761
f 758 761 752
f 1352 754 1350
f 187 754 189
f 762 189 754
f 1357 37 762
f 763 764 124
f 20 759 502
f 759 187 763
f 189 763 187
f 191 766 765
f 767 765 766
f 765 770 191
f 769 191 770
f 25 509 772
f 773 772 509
f 191 769 771
f 773 771 769
f 766 191 771
f 775 774 193
f 192 193 774
f 193 192 776
f 777 776 192
f 522 779 736
f 776 779 193
f 778 193 779
f 25 772 517
f 780 517 772
f 780 775 778
f 193 778 775
f 784 783 712
f 40 712 783
f 194 782 781
f 784 781 782
f 718 21 786
f 637 786 21
f 194 781 785
f 786 785 781
f 35 646 633
f 785 633 646
f 194 785 787
f 788 790 34
f 640 34 790
f 194 787 789
f 790 789 787
f 791 792 41
f 194 789 782
f 792 782 789
f 23 727 628
f 795 628 727
f 795 793 794
f 797 794 793
f 24 796 725
f 725 797 793
f 155 794 33
f 798 33 794
f 799 801 196
f 196 803 802
f 195 862 804
f 799 806 805
f 868 805 806
f 196 804 799
f 812 810 859
f 814 812 811
f 815 814 813
f 816 814 817
f 818 807 198
f 820 822 815
f 825 824 810
f 825 810 812
f 837 825 816
f 810 824 828
f 200 827 826
f 828 826 827
f 829 826 824
f 200 826 830
f 36 665 831
f 830 831 665
f 660 657 832
f 33 833 654
f 834 654 833
f 200 832 827
f 834 827 832
f 816 835 837
f 837 836 842
f 201 842 836
f 838 201 839
f 836 839 201
f 201 838 840
f 650 840 838
f 831 841 36
f 201 840 841
f 829 824 842
f 841 842 201
f 203 817 843
f 815 843 817
f 844 845 42
f 202 42 845
f 203 843 845
f 847 41 792
f 203 845 846
f 847 846 845
f 203 788 34
f 816 817 835
f 850 204 849
f 39 849 204
f 849 848 819
f 823 819 848
f 851 850 807
f 852 853 850
f 1432 853 38
f 722 38 853
f 204 850 853
f 854 202 821
f 822 821 202
f 848 854 821
f 39 854 848
f 852 796 24
f 807 808 851
f 810 828 809
f 855 809 828
f 33 798 833
f 855 833 798
f 851 855 796
f 808 197 856
f 864 856 197
f 205 858 856
f 205 803 858
f 857 858 803
f 801 800 857
f 812 859 206
f 859 856 858
f 823 860 819
f 860 862 861
f 818 864 197
f 864 861 863
f 815 865 820
f 869 866 820
f 806 869 868
f 867 866 869
f 870 866 867
f 870 860 823
f 812 206 811
f 872 811 206
f 871 813 872
f 813 865 815
f 813 871 865
f 868 865 871
f 347 365 875
f 876 875 365
f 876 873 874
f 208 874 873
f 877 361 878
f 7 878 361
f 208 873 877
f 700 878 7
f 209 878 879
f 1464 889 879
f 881 880 1286
f 882 883 5
f 694 5 883
f 882 881 883
f 881 882 885
f 884 885 882
f 5 352 882
f 211 882 352
f 875 887 347
f 211 887 888
f 210 211 888
f 211 210 884
f 43 891 892
f 893 892 891
f 890 893 894
f 896 894 893
f 207 874 895
f 896 895 874
f 43 897 891
f 898 891 897
f 902 898 901
f 900 901 898
f 900 899 886
f 207 895 888
f 902 888 895
f 922 904 909
f 213 212 903
f 903 909 904
f 213 903 905
f 906 388 426
f 213 906 212
f 907 212 906
f 909 908 214
f 424 471 907
f 908 907 471
f 214 908 910
f 910 469 111
f 214 910 911
f 912 214 911
f 915 215 914
f 912 914 922
f 911 17 915
f 686 915 17
f 686 687 916
f 215 915 916
f 919 737 918
f 917 918 737
f 391 905 917
f 905 918 917
f 921 918 904
f 45 1494 919
f 921 904 922
f 920 923 216
f 920 922 914
f 914 913 924
f 926 925 924
f 919 217 45
f 927 216 923
f 1502 217 927
f 216 927 217
f 925 926 923
f 929 923 926
f 927 929 1502
f 941 931 936
f 55 932 933
f 934 933 932
f 938 936 934
f 931 934 936
f 938 937 935
f 49 935 937
f 936 1473 939
f 53 939 1473
f 224 940 939
f 941 939 940
f 942 939 53
f 52 943 945
f 945 944 224
f 56 946 947
f 948 947 946
f 944 948 224
f 940 224 948
f 952 951 46
f 950 952 228
f 949 228 952
f 228 949 953
f 955 953 949
f 953 50 228
f 956 228 50
f 51 957 958
f 959 958 957
f 228 956 950
f 959 950 956
f 48 960 962
f 963 962 960
f 230 967 961
f 963 961 967
f 964 230 59
f 961 59 230
f 962 967 954
f 955 954 967
f 965 967 230
f 971 970 968
f 976 971 969
f 57 972 974
f 975 974 972
f 975 973 969
f 976 969 973
f 1489 977 1495
f 977 976 973
f 232 978 61
f 971 976 978
f 979 980 235
f 55 981 983
f 982 983 981
f 234 54 985
f 982 985 235
f 984 235 985
f 235 984 979
f 986 979 984
f 987 236 991
f 54 234 995
f 990 995 234
f 236 988 990
f 55 933 981
f 991 981 933
f 990 991 236
f 996 992 237
f 63 995 237
f 994 237 995
f 989 996 988
f 237 994 996
f 962 997 48
f 238 48 997
f 238 997 239
f 954 986 962
f 997 962 986
f 998 985 54
f 998 999 239
f 238 239 999
f 1002 970 1000
f 1001 1000 1003
f 61 1015 232
f 1015 1003 1000
f 1004 1005 1014
f 1013 1014 1005
f 56 1006 1007
f 1008 1007 1006
f 1003 1005 1001
f 1008 1001 1005
f 1010 242 1009
f 241 1011 243
f 243 1012 1013
f 1013 1015 243
f 1010 243 1015
f 992 1016 47
f 1020 1016 1017
f 996 989 1023
f 1017 1016 1018
f 1023 1018 1016
f 1004 1014 1018
f 1020 1011 1019
f 987 1022 244
f 56 1007 946
f 1022 946 1007
f 1021 244 1022
f 1021 1023 244
f 1026 1024 1025
f 1040 1041 1028
f 1024 1028 1041
f 1027 1025 1024
f 1270 245 1030
f 1030 1029 1027
f 1025 1027 1029
f 58 246 1031
f 1032 1031 246
f 1029 1032 1025
f 1056 1033 1034
f 247 1034 1037
f 247 1037 1035
f 1270 1030 1039
f 1036 1039 1030
f 247 1036 1038
f 1038 1041 247
f 1034 247 1041
f 1042 1043 1044
f 1047 1045 1042
f 1043 1042 1045
f 1048 60 1049
f 1045 1049 1043
f 1050 1043 1049
f 1050 62 249
f 1052 1033 1051
f 248 1052 62
f 60 1053 1049
f 1052 248 1054
f 1053 1054 248
f 1037 1054 1035
f 1071 1055 47
f 1056 1057 1055
f 1033 1056 1070
f 1057 1056 1040
f 63 993 250
f 250 1055 1057
f 1011 241 1060
f 1060 1058 1059
f 252 1059 1058
f 1061 1009 242
f 1058 1009 252
f 251 1059 62
f 249 62 1059
f 59 961 1063
f 1064 1063 961
f 1064 960 1062
f 1066 1062 960
f 960 48 1066
f 58 1079 246
f 1068 246 1079
f 1062 1066 1068
f 1069 251 62
f 1051 1033 1070
f 1069 1070 1072
f 1071 1072 1070
f 1060 1072 1011
f 1019 1011 1072
f 250 1073 63
f 999 63 1073
f 1074 1073 254
f 1040 1028 1057
f 1028 254 1073
f 1026 1067 254
f 48 238 1065
f 59 1063 1076
f 1077 1076 1063
f 1075 1077 257
f 253 257 1077
f 58 255 1079
f 257 253 1078
f 1079 1078 253
f 1081 64 1082
f 1080 257 1082
f 1078 1082 257
f 65 1083 1084
f 1075 1084 1083
f 257 1080 1075
f 1087 65 1084
f 1086 1084 1085
f 1088 1082 64
f 1089 1092 66
f 1091 66 1092
f 1090 1085 1092
f 1088 1092 1085
f 67 1094 1093
f 1085 1090 1086
f 1094 1086 1090
f 65 1087 1095
f 262 1105 259
f 1087 259 1105
f 1096 1098 67
f 1094 67 1098
f 259 1098 262
f 1097 262 1098
f 69 1099 1101
f 1102 1101 1099
f 262 1097 1100
f 1102 1100 1097
f 1103 1105 1104
f 1100 1105 262
f 67 1106 1096
f 1109 1096 1106
f 265 1108 1107
f 1109 1107 1108
f 68 1110 1111
f 1112 1111 1110
f 1107 1112 265
f 1116 265 1112
f 1116 1115 1113
f 1325 1113 1115
f 265 1116 1114
f 1101 1118 69
f 1117 69 1118
f 1114 1118 265
f 1108 265 1118
f 1123 1122 1119
f 70 1119 1122
f 270 1121 1120
f 1123 1120 1121
f 1124 1127 71
f 1126 71 1127
f 270 1120 1125
f 1127 1125 1120
f 1128 1131 1130
f 270 1125 1129
f 1131 1129 1125
f 1132 1134 72
f 1133 72 1134
f 270 1129 1121
f 1134 1121 1129
f 1139 1138 1135
f 1156 1135 1138
f 275 1137 1136
f 1139 1136 1137
f 1140 1143 73
f 1142 73 1143
f 275 1136 1141
f 1143 1141 1136
f 1144 1147 1146
f 1141 1147 275
f 1145 275 1147
f 1148 1150 74
f 1149 74 1150
f 275 1145 1137
f 1150 1137 1145
f 56 1151 1006
f 1153 1006 1151
f 1152 1153 278
f 1142 1155 73
f 276 73 1155
f 278 1153 1154
f 1155 1154 1153
f 1135 1156 1158
f 1154 1158 278
f 1157 278 1158
f 1160 1159 1002
f 970 1002 1159
f 278 1157 1152
f 1160 1152 1157
f 57 1161 1163
f 1162 1163 1161
f 1149 1166 74
f 1165 74 1166
f 1162 1166 282
f 1164 282 1166
f 280 1167 1146
f 1144 1146 1167
f 282 1164 1170
f 1167 1170 1164
f 52 1168 1169
f 1170 1169 1168
f 56 947 1151
f 1173 1151 947
f 283 1172 1171
f 1173 1171 1172
f 52 1169 943
f 1175 943 1169
f 1171 1175 283
f 1174 283 1175
f 280 1146 1174
f 276 1172 73
f 1140 73 1172
f 57 974 1161
f 1176 1161 974
f 1178 968 1159
f 970 1159 968
f 1178 1177 284
f 1138 1180 1156
f 1177 1180 284
f 1179 284 1180
f 1165 1181 74
f 1148 74 1181
f 284 1179 1176
f 1181 1176 1179
f 55 983 1183
f 1184 1183 983
f 1182 287 1184
f 1187 980 1185
f 46 1185 980
f 287 1182 1186
f 1187 1186 1182
f 1122 1190 70
f 1189 70 1190
f 1186 1190 287
f 1188 287 1190
f 1191 1192 72
f 1132 72 1192
f 287 1188 1184
f 1192 1184 1188
f 1193 1196 51
f 957 51 1196
f 1195 1196 289
f 1194 289 1196
f 1126 1199 71
f 1198 71 1199
f 289 1194 1197
f 1199 1197 1194
f 1189 1201 70
f 1119 70 1201
f 1197 1201 289
f 1200 289 1201
f 1185 46 1202
f 951 1202 46
f 1202 1195 1200
f 289 1200 1195
f 937 1206 49
f 1205 49 1206
f 1204 1206 291
f 1203 291 1206
f 55 1183 932
f 1208 932 1183
f 291 1203 1207
f 1208 1207 1203
f 1133 1210 72
f 1191 72 1210
f 1207 1210 291
f 1209 291 1210
f 1212 1128 1211
f 1130 1211 1128
f 291 1209 1204
f 1212 1204 1209
f 51 1213 1193
f 1215 1193 1213
f 49 1205 1216
f 1217 1216 1205
f 1211 1130 1219
f 1214 1217 1218
f 1219 1218 1217
f 1198 1220 71
f 1124 71 1220
f 1218 1220 1214
f 1215 1214 1220
f 68 1111 1222
f 1223 1222 1111
f 1229 1234 1221
f 1223 1221 1234
f 1093 1225 67
f 1106 67 1225
f 1221 1225 1229
f 1224 1229 1225
f 66 1226 1089
f 1229 1224 1227
f 1089 1227 1224
f 1228 1231 76
f 1230 76 1231
f 1231 1229 1227
f 75 1232 1233
f 1234 1233 1232
f 1424 1425 296
f 1237 296 1425
f 1237 1235 1236
f 297 1236 1235
f 1240 1423 1238
f 1261 1238 1423
f 297 1235 1239
f 1240 1239 1235
f 1241 77 1242
f 1239 1242 297
f 1245 297 1242
f 1244 76 1245
f 1243 1245 76
f 1236 297 1245
f 1247 1228 1244
f 76 1244 1228
f 1247 1250 1246
f 1248 1250 77
f 1249 1246 1250
f 1246 1249 1254
f 1252 1254 1249
f 75 1233 1253
f 1254 1253 1233
f 1258 1257 1252
f 1251 1252 1257
f 301 1256 1255
f 1258 1255 1256
f 1241 1260 77
f 1248 77 1260
f 1255 1260 301
f 1259 301 1260
f 1238 1261 1263
f 301 1259 1262
f 1263 1262 1259
f 1264 1266 1265
f 1262 1266 301
f 1256 301 1266
f 1267 1273 671
f 58 1031 1269
f 1268 1269 1031
f 1273 1267 1268
f 245 1270 1271
f 1268 1271 1273
f 44 168 1272
f 1273 1272 168
f 1274 1276 675
f 676 675 1276
f 1275 1278 1276
f 1280 1276 1278
f 1035 1054 1277
f 1275 1277 1054
f 1278 1275 1279
f 1053 60 1279
f 1280 302 678
f 683 678 302
f 302 1281 683
f 1048 1282 1281
f 304 1281 1282
f 303 1283 1046
f 1047 1046 1283
f 1284 304 1283
f 1282 1283 304
f 1284 303 687
f 1287 1288 1216
f 49 1216 1288
f 1334 1289 51
f 1213 51 1289
f 1287 1289 1285
f 1289 1332 692
f 691 692 1332
f 174 1290 696
f 1291 696 1290
f 1163 1293 57
f 1292 57 1293
f 1291 1293 1296
f 1295 1296 1293
f 1295 1168 1294
f 52 1294 1168
f 306 697 1296
f 698 1296 697
f 1272 1298 44
f 1299 1270 1039
f 1277 1301 1035
f 1299 1301 1297
f 1300 1297 1301
f 1300 1274 703
f 675 703 1274
f 1297 1300 1298
f 1304 1305 308
f 1303 308 1305
f 64 1081 1306
f 1307 1306 1081
f 308 1303 1308
f 1307 1308 1303
f 1269 1308 58
f 255 58 1308
f 1309 1311 40
f 1310 1311 310
f 66 1091 1312
f 1313 1312 1091
f 1313 1306 310
f 307 310 1306
f 310 307 1310
f 1302 1310 307
f 721 1314 719
f 1316 719 1314
f 68 1317 1318
f 1319 1318 1317
f 1315 1316 1322
f 1319 1322 1316
f 1387 1320 1322
f 1321 1315 1322
f 38 723 313
f 1321 313 723
f 1323 729 731
f 1324 315 1325
f 68 1318 1110
f 1324 1110 1318
f 315 1324 1326
f 1327 1314 733
f 721 733 1314
f 1326 1327 315
f 729 315 1327
f 1495 1329 1328
f 183 1328 1329
f 57 1292 972
f 1330 972 1292
f 1329 1330 183
f 1331 183 1330
f 1290 174 1331
f 1333 184 1332
f 958 1334 51
f 1332 1334 1333
f 1336 739 1337
f 740 1337 739
f 184 1333 1337
f 1338 745 1336
f 739 1336 745
f 1343 185 1338
f 966 1339 50
f 1335 50 1339
f 1338 1339 1343
f 229 1343 1339
f 59 1340 964
f 1341 964 1340
f 1343 229 1341
f 1342 747 1343
f 1345 751 1342
f 747 1342 751
f 316 1345 1344
f 1076 1347 59
f 1340 59 1347
f 1346 316 1347
f 1344 1347 316
f 65 1353 1083
f 1349 1083 1353
f 1346 1349 316
f 1348 316 1349
f 316 1348 1345
f 756 1345 1348
f 1357 1352 1354
f 1351 1354 1352
f 65 1095 1353
f 1353 1355 1351
f 1354 1351 1355
f 1355 1103 1104
f 1356 37 1357
f 1360 767 1356
f 37 1356 767
f 319 1359 1358
f 1360 1358 1359
f 1358 1361 319
f 69 1362 1099
f 1364 1099 1362
f 319 1361 1363
f 1364 1363 1361
f 1365 768 1366
f 770 1366 768
f 1363 1366 319
f 1359 319 1366
f 1369 774 1365
f 768 1365 774
f 1367 320 1369
f 1368 1369 320
f 69 1117 1362
f 1371 1362 1117
f 1371 1370 1367
f 320 1367 1370
f 1113 1325 1373
f 1370 1373 320
f 1372 320 1373
f 1374 1323 777
f 731 777 1323
f 320 1372 1368
f 1374 1368 1372
f 783 1377 40
f 1309 40 1377
f 322 1376 1375
f 1377 1375 1376
f 1379 791 1378
f 41 1378 791
f 322 1375 321
f 1379 321 1375
f 296 1380 1424
f 1429 1424 1380
f 322 321 1380
f 76 1230 1243
f 1381 1243 1230
f 322 1380 1381
f 1312 1382 66
f 1226 66 1382
f 322 1381 1376
f 1382 1376 1381
f 68 1222 1317
f 1384 1317 1222
f 1384 1386 1383
f 323 1383 1386
f 1385 1386 75
f 1232 75 1386
f 1320 1387 1438
f 1387 1383 323
f 1394 1447 1388
f 1446 1388 1447
f 1389 1391 1394
f 1389 324 325
f 1455 325 324
f 1391 1389 1393
f 1390 1393 1392
f 1399 1396 1395
f 326 1395 1442
f 1442 1397 326
f 1398 1399 1410
f 1398 1400 1401
f 1401 1426 78
f 1403 1449 1402
f 1402 1449 1404
f 1405 330 1406
f 1410 1395 1407
f 1408 1410 1407
f 1409 1408 1407
f 1409 1400 1408
f 1399 1395 1410
f 1395 1441 1407
f 331 1417 1411
f 1441 1411 1417
f 75 1253 1413
f 331 1411 1412
f 1413 1412 1411
f 1257 1412 1251
f 1414 331 1412
f 1265 1415 1264
f 1416 1264 1415
f 331 1414 1416
f 1420 1407 1417
f 331 1416 1417
f 1400 1409 332
f 1418 332 1409
f 1409 1407 1420
f 1419 333 1420
f 1418 1420 333
f 1415 1265 1419
f 333 1419 1421
f 333 1421 1422
f 1423 1422 1421
f 1422 1425 333
f 1418 333 1425
f 327 1400 332
f 327 1427 334
f 334 1427 1428
f 1429 1428 1427
f 334 1428 1430
f 1378 1430 1428
f 42 1437 844
f 334 1430 1426
f 844 1426 1430
f 313 1432 38
f 1434 336 1432
f 1434 1320 1433
f 336 1434 1435
f 335 79 1435
f 1402 1435 79
f 336 1435 1431
f 1406 1431 1404
f 39 1431 854
f 1436 854 1431
f 1436 1431 1406
f 1437 78 1426
f 1433 1320 1438
f 75 1413 1385
f 1440 1385 1413
f 1439 1438 1440
f 1395 326 1441
f 1441 1439 1440
f 1439 1397 335
f 79 335 1397
f 1397 1445 79
f 1444 79 1445
f 1442 337 1445
f 1443 1445 337
f 1399 1446 1396
f 1396 337 1442
f 1443 337 1448
f 1447 1448 337
f 329 1404 1450
f 1451 1450 1449
f 1403 79 1444
f 1444 1451 1449
f 1450 1451 1392
f 1455 1452 338
f 329 1450 1405
f 1453 1405 1450
f 1453 1454 338
f 1454 1455 338
f 1456 1446 1399
f 339 1456 328
f 1455 328 1452
f 1401 1452 328
f 324 339 1455
f 1388 1446 1456
f 942 1459 221
f 1457 221 1459
f 1458 1476 1459
f 1477 1459 1476
f 52 945 1461
f 1457 1460 221
f 945 221 1460
f 1461 1463 52
f 1294 52 1463
f 1462 889 1464
f 1463 697 306
f 1462 1464 1463
f 880 1465 305
f 340 1465 886
f 885 886 1465
f 1467 49 1468
f 1288 1468 49
f 1466 1468 1465
f 305 1465 1468
f 49 1467 935
f 1470 935 1467
f 1469 1470 1471
f 1458 1472 1476
f 1473 1469 1472
f 1471 1472 1469
f 1475 889 1462
f 1460 1474 1475
f 1474 1457 1479
f 1477 1479 1457
f 43 892 1478
f 1479 1478 892
f 43 1478 897
f 1480 897 1478
f 899 1480 341
f 1481 1476 1472
f 341 1480 1471
f 1481 1471 1480
f 1470 1466 341
f 886 899 340
f 1486 1483 1482
f 343 1483 1485
f 1486 1485 1483
f 1487 242 1485
f 343 1485 1488
f 1488 61 978
f 1496 1483 342
f 343 1489 1483
f 344 1486 1482
f 344 1482 1490
f 242 1487 1061
f 1487 1486 344
f 913 1492 345
f 303 1492 687
f 916 687 1492
f 1491 345 1492
f 1490 1491 1046
f 303 1046 1491
f 345 1491 1493
f 1482 1484 1493
f 1328 737 1494
f 45 1496 342
f 1495 1494 342
f 1498 1499 1497
f 1497 1499 1496
f 1501 1500 1499
f 928 926 1501
f 924 1501 926
f 1500 1501 924
f 1497 1496 45
f 1502 1497 217
f 1498 1502 928
