# Spot (Keenan Crane)
# quadric edge-collapse decimation to 250 triangles, 127 vertices
v 0.1081867 -0.4336313 0.1210264
v 0.3469094 -0.3966298 0.1960781
v 0.05936411 -0.3738247 0.8882327
v 0.190842 0.3078181 0.223325
v 0.1741876 0.1771306 -0.1922354
v 0.1701001 0.7758837 -0.4074913
v 0.2033187 -0.6339297 -0.1140373
v -0.05122034 -0.06455103 1.008492
v -0.1683287 -0.4368441 0.1900209
v -0.1238315 0.3267813 0.02328985
v -0.2073378 0.7730195 -0.2861296
v 0.3878565 -0.06435191 0.1941457
v 0.2158544 0.1605422 0.4694107
v 0.1486012 0.1725805 0.7969968
v 0.2021037 -0.7231554 0.1481147
v 0.3030876 -0.6671046 -0.0886648
v 0.2418445 0.5307144 -0.5331284
v 0.2218055 0.1127766 -0.4850567
v 0.294138 0.2543333 -0.6369451
v 0.1575881 -0.5159732 0.4252707
v -0.3751696 -0.01850774 0.1702821
v -0.370637 -0.3591379 -0.07189546
v -0.30056 -0.6760986 0.7183905
v -0.08034363 -0.6802863 0.8380571
v -0.1246344 -0.6660938 -0.04387835
v -0.03062311 0.8148149 -0.4124265
v -0.2159604 0.9764642 -0.2845978
v 0.2819568 -0.4182251 0.532954
v 0.3175271 -0.06590831 -0.0757428
v 0.2929407 -0.2866524 -0.1190694
v 0.112264 -0.173133 -0.1919873
v 0.162445 0.1475031 -0.1231239
v 0.2309778 -0.630809 0.9341391
v 0.246636 -0.279918 0.9113706
v 0.3757394 -0.3281741 0.2574349
v 0.3494884 -0.5381855 0.843755
v 0.3401901 -0.3277525 0.6835774
v 0.2449289 0.247699 0.1621844
v 0.3426738 -0.06478802 0.7248941
v 0.3059938 0.01552692 0.8103869
v 0.1430986 0.3106594 0.01202725
v 0.2435641 0.4375528 -0.04361319
v 0.3453259 0.2554886 -0.4860889
v 0.1329923 -0.7159175 0.008787082
v 0.3535238 -0.6530166 0.1059905
v 0.1088392 -0.6992124 0.8616877
v 0.253633 -0.7363251 0.7532247
v 0.09459093 -0.6963938 0.7637832
v 0.2555117 -0.5227022 0.6215346
v 0.3854781 -0.4262415 -0.05478254
v 0.114512 -0.3363639 -0.08569097
v 0.08406576 -0.4116893 -0.02148612
v 0.2117587 -0.432683 0.2166186
v 0.280385 0.550854 -0.1971671
v 0.23119 0.59584 -0.1143327
v 0.2651005 0.6721849 -0.3782009
v 0.4460687 0.6312625 -0.2095343
v 0.4752041 0.7080797 -0.1556375
v 0.03202385 0.2462334 0.4609544
v -0.05464021 0.2249615 0.7324661
v -0.07988149 -0.4228388 0.0310014
v 0.03087826 0.3132958 0.321646
v -0.1401839 0.1006103 -0.5237512
v 0.1367753 0.3122869 -0.6809462
v 0.1522773 0.4922744 0.03273995
v 0.2027172 0.7787026 -0.2857048
v 0.4222385 0.7634061 -0.2530105
v 0.1905016 0.7622201 -0.1963409
v 0.1057293 0.8248955 -0.3218556
v 0.09383007 0.8261614 -0.2166404
v 0.2175025 0.9834644 -0.2746185
v 0.07774065 -0.459694 0.6804018
v 0.1404741 -0.02213777 0.9689571
v 0.003563193 -0.08924631 1.05928
v -0.3483437 -0.3826408 0.4716532
v -0.3552197 -0.3845709 0.2052588
v -0.3100464 -0.4198596 0.62381
v -0.276023 -0.2652781 -0.1194376
v -0.1041135 -0.1579796 -0.2045883
v -0.1204351 -0.3295684 -0.08706034
v -0.1260907 0.06260654 -0.1745565
v -0.2571268 -0.1457997 0.9026747
v -0.09737926 -0.3209298 0.9241172
v -0.3896167 -0.1608672 0.2595538
v -0.3418152 -0.2589404 0.7139414
v -0.3348511 -0.05829555 0.7699347
v -0.1972404 0.1741755 0.5021417
v -0.2450373 0.1008206 0.7939318
v -0.3228132 0.01492411 -0.009319418
v -0.3390239 -0.002816004 0.4453511
v -0.1398606 0.1484169 -0.2227428
v -0.1582519 0.2433101 -0.05558399
v -0.2915454 0.376401 -0.1745695
v -0.304147 0.3909728 -0.5477289
v -0.2569111 -0.6246443 -0.1276445
v -0.2880663 -0.7446352 0.06300401
v -0.164907 -0.7541235 0.7562243
v -0.3435949 -0.4791103 0.8506498
v -0.2530507 -0.6076985 0.9358734
v -0.1349589 -0.4705787 0.6258693
v -0.2181069 -0.7015244 0.9028588
v -0.386486 -0.5472503 -0.04393055
v -0.3286941 -0.57392 0.1768813
v -0.1189888 -0.676619 0.0934403
v -0.3433817 0.2560115 -0.4989992
v -0.2498092 0.5714281 -0.1277576
v -0.4612877 0.6375674 -0.1841078
v -0.2835182 0.5767928 -0.2929246
v -0.2870074 0.6842249 -0.3640864
v -0.4555127 0.7603629 -0.2441178
v -0.2000984 0.2967171 0.2203686
v -0.03870509 -0.4269335 0.7636826
v -0.06194026 0.5047453 0.06510063
v -0.2041898 0.4446286 -0.005548666
v -0.2326694 0.6710809 -0.4665571
v -0.2191308 0.4868602 -0.5538718
v 0.006447628 0.1100843 -0.2560647
v -0.2843167 0.148922 -0.4970601
v -0.2242155 0.320593 -0.6702274
v -0.2012604 0.6446811 -0.1261003
v -0.2416178 0.7434584 -0.1742007
v -0.0001637227 0.7730491 -0.09604423
v -0.08316548 0.8330455 -0.2807387
v -0.1765742 0.8456606 -0.2145899
v -0.1874903 -0.4938907 0.4135496
v 0.002925238 -0.5493817 0.4288254
v -0.02696359 0.09747323 0.9308365
f 28 2 35
f 51 31 30
f 31 32 29
f 29 50 30
f 12 35 50
f 36 39 34
f 40 34 39
f 39 37 35
f 28 35 37
f 39 38 13
f 4 62 13
f 73 40 14
f 40 13 14
f 38 29 32
f 29 38 12
f 5 41 32
f 5 42 41
f 19 17 43
f 15 16 45
f 16 44 7
f 46 47 33
f 49 36 47
f 48 46 72
f 3 72 46
f 48 49 47
f 46 33 3
f 45 50 2
f 45 16 50
f 52 51 7
f 50 16 30
f 53 1 15
f 44 15 1
f 56 54 17
f 17 54 43
f 42 43 54
f 68 55 58
f 55 54 57
f 56 67 57
f 58 57 67
f 59 60 14
f 72 3 112
f 113 10 41
f 42 65 41
f 26 6 17
f 64 17 19
f 3 34 8
f 51 79 31
f 32 31 117
f 117 5 32
f 117 63 18
f 63 64 19
f 42 54 55
f 113 65 122
f 66 71 70
f 66 70 68
f 67 56 68
f 122 65 70
f 66 6 69
f 6 66 56
f 6 56 17
f 69 70 71
f 61 52 1
f 53 28 20
f 112 126 72
f 20 72 126
f 20 126 1
f 53 20 1
f 74 73 127
f 75 76 9
f 80 78 79
f 89 79 78
f 82 83 8
f 22 102 76
f 22 76 84
f 90 21 84
f 84 86 90
f 89 21 111
f 92 89 10
f 90 88 87
f 90 111 21
f 10 114 92
f 93 92 114
f 92 93 118
f 95 25 96
f 25 104 96
f 97 101 23
f 23 99 98
f 23 100 97
f 24 83 99
f 82 99 83
f 103 76 102
f 25 95 80
f 22 95 102
f 103 96 104
f 104 25 61
f 108 115 94
f 108 93 106
f 106 120 121
f 106 121 107
f 106 107 108
f 109 107 110
f 87 60 59
f 88 127 60
f 127 14 60
f 112 3 83
f 111 87 62
f 62 10 111
f 116 115 17
f 119 94 116
f 116 64 119
f 81 117 79
f 117 81 91
f 63 117 91
f 91 118 63
f 63 119 64
f 118 119 63
f 114 120 106
f 120 124 121
f 122 124 120
f 110 11 109
f 110 107 121
f 115 11 26
f 27 123 11
f 75 125 100
f 9 61 1
f 88 86 82
f 74 127 8
f 28 53 2
f 28 49 72
f 30 31 29
f 34 33 36
f 34 3 33
f 50 35 2
f 50 29 12
f 37 39 36
f 35 12 39
f 49 28 37
f 4 13 38
f 59 13 62
f 13 59 14
f 39 12 38
f 40 39 13
f 38 32 41
f 43 42 5
f 43 5 18
f 18 19 43
f 16 15 44
f 46 48 47
f 36 49 37
f 47 36 33
f 72 49 48
f 30 7 51
f 30 16 7
f 15 45 53
f 2 53 45
f 52 7 44
f 52 44 1
f 58 55 57
f 56 57 54
f 4 38 41
f 52 61 51
f 62 4 10
f 41 10 4
f 65 113 41
f 83 3 8
f 79 117 31
f 5 117 18
f 19 18 63
f 42 55 65
f 65 55 68
f 66 68 56
f 67 68 58
f 70 65 68
f 69 6 26
f 123 122 70
f 69 123 70
f 69 71 66
f 20 28 72
f 34 40 73
f 14 127 73
f 34 73 8
f 73 74 8
f 100 77 75
f 81 89 92
f 78 22 89
f 79 89 81
f 84 76 75
f 21 22 84
f 89 22 21
f 82 85 98
f 77 98 85
f 85 82 86
f 86 84 85
f 75 85 84
f 85 75 77
f 90 87 111
f 60 87 88
f 89 111 10
f 88 90 86
f 81 92 91
f 118 91 92
f 93 105 118
f 119 118 105
f 119 105 94
f 102 95 96
f 98 77 23
f 101 99 23
f 24 112 83
f 97 24 101
f 100 24 97
f 24 100 112
f 100 23 77
f 98 99 82
f 24 99 101
f 96 103 102
f 78 80 95
f 78 95 22
f 76 103 9
f 104 9 103
f 25 80 61
f 104 61 9
f 94 105 108
f 93 108 105
f 114 106 93
f 109 108 107
f 51 61 80
f 62 87 59
f 114 10 113
f 115 26 17
f 17 64 116
f 79 51 80
f 113 122 120
f 114 113 120
f 116 94 115
f 11 121 124
f 121 11 110
f 123 26 11
f 69 26 123
f 123 124 122
f 108 109 115
f 11 115 109
f 11 124 27
f 27 124 123
f 75 9 125
f 100 126 112
f 125 126 100
f 9 126 125
f 1 126 9
f 88 82 8
f 88 8 127
