2000  1
    0    223   222   229    -1
    1      1    53   220    -1
    2    220   229     1    -1
    3    223    51   221    -1
    4     52   224   225    -1
    5    225   226    51    -1
    6     51   223   225    -1
    7    227    52   225    -1
    8    225   220   227    -1
    9    229   228    54    -1
   10     54     1   229    -1
   11    233    55   230    -1
   12    230   228   233    -1
   13    575   576   233    -1
   14    233   231   575    -1
   15    233   232    55    -1
   16    231   222   575    -1
   17    235   403   234    -1
   18    234   237    57    -1
   19     57   236   234    -1
   20    235   239   499    -1
   21    499   238   235    -1
   22    235   240   403    -1
   23    500   499   239    -1
   24    239   241   500    -1
   25     56   243   236    -1
   26    242    60    58    -1
   27     58     2   242    -1
   28    236    60    56    -1
   29     59   243    56    -1
   30    242   302   301    -1
   31    301   244   242    -1
   32    244    59    56    -1
   33    248     0   247    -1
   34    246    61   245    -1
   35    245   247   246    -1
   36     61   251   245    -1
   37    245   252   249    -1
   38    253    57   237    -1
   39    237   255   253    -1
   40    255    64   254    -1
   41    256   257   259    -1
   42    259   254    64    -1
   43     64   258   259    -1
   44    259   260   256    -1
   45    281   260    53    -1
   46     53     1   281    -1
   47    279   261   281    -1
   48    256   261    65    -1
   49     65    66   256    -1
   50    261   279   278    -1
   51    262   276    67    -1
   52      2    58   266    -1
   53    266   264     2    -1
   54    265    66   263    -1
   55     63   257   265    -1
   56     63   266   253    -1
   57      0   248   268    -1
   58     68   269   270    -1
   59    270   271   267    -1
   60      7   270    69    -1
   61     69   268   248    -1
   62    273   275   274    -1
   63     69   274     7    -1
   64    248   272   274    -1
   65      7   275   277    -1
   66    276   262   277    -1
   67    277    12   276    -1
   68     70   282    68    -1
   69      7   277    70    -1
   70     65   278   262    -1
   71    282    70   278    -1
   72      1    54   280    -1
   73    280   281     1    -1
   74    269    68   282    -1
   75    282   280   269    -1
   76    285   283    71    -1
   77     71   284   285    -1
   78    287   284   286    -1
   79    286   289   288    -1
   80    288   296   290    -1
   81    474    10    73    -1
   82     73    72   474    -1
   83    299    11   293    -1
   84    293   291   299    -1
   85     75    76    72    -1
   86     72   290    75    -1
   87     76   458   294    -1
   88     74   292    76    -1
   89     76    75    74    -1
   90    295    67   276    -1
   91    296   295   276    -1
   92    297   275   273    -1
   93    273   298   297    -1
   94    298   291    74    -1
   95    298   299   291    -1
   96    273   300   298    -1
   97     77   301   302    -1
   98     77   303   313    -1
   99    303    79    78    -1
  100    283   285   303    -1
  101      2    78    79    -1
  102     12   304   276    -1
  103     75   296   304    -1
  104     78   264   265    -1
  105    265   305    78    -1
  106     71   283   289    -1
  107    306   305   295    -1
  108     80   307   308    -1
  109    308   309    80    -1
  110     77   308   301    -1
  111     81   315   309    -1
  112    310   311   313    -1
  113    313   312   310    -1
  114    314   321   322    -1
  115    322   315   314    -1
  116    315    81   314    -1
  117    318   317    83    -1
  118     83   316   318    -1
  119    321   314   318    -1
  120     14   317   319    -1
  121    431    83   317    -1
  122    319   314    81    -1
  123     81   311   319    -1
  124    319   310    14    -1
  125    322   320    84    -1
  126     84    13   322    -1
  127    512   320    85    -1
  128    324    86   325    -1
  129    324   323    85    -1
  130    318   326   321    -1
  131     86   326   325    -1
  132    329   327   325    -1
  133    331    87   330    -1
  134    330   332   331    -1
  135    324   325   327    -1
  136    327   332   324    -1
  137     88   331   335    -1
  138    333   335   328    -1
  139    335   334    88    -1
  140    340   337    90    -1
  141     90   336   340    -1
  142     93   338   340    -1
  143    340   339    93    -1
  144    344   342    91    -1
  145     91   341   344    -1
  146    343    90   337    -1
  147    337   344   343    -1
  148    346    92   345    -1
  149    345   348   346    -1
  150    347    91   342    -1
  151    342   348   347    -1
  152    338    93    16    -1
  153     16   350   338    -1
  154    346   350   349    -1
  155    349    92   346    -1
  156    355   352    95    -1
  157     95   351   355    -1
  158    353   355   354    -1
  159    354   361   353    -1
  160    358   357   356    -1
  161    358    95   352    -1
  162    359    96    17    -1
  163     17   360   359    -1
  164    380   356   357    -1
  165    357   360   380    -1
  166    361   363   353    -1
  167     96   359   363    -1
  168    363   362    96    -1
  169    364   267   271    -1
  170    271   366   364    -1
  171    365   372   366    -1
  172    368   268   267    -1
  173    267   364   368    -1
  174    369   361   354    -1
  175    354   371   369    -1
  176    370   367   368    -1
  177    368   371   370    -1
  178    373   366   372    -1
  179    369   373   361    -1
  180    374   378    98    -1
  181     98   471   374    -1
  182    374     9    99    -1
  183    377   379   375    -1
  184    376    98   378    -1
  185    378   377   376    -1
  186    380   378   356    -1
  187    377   380   379    -1
  188    374    99   381    -1
  189    378   381   356    -1
  190    383   385   372    -1
  191    372   365   383    -1
  192    383   230    55    -1
  193     55   382   383    -1
  194    384    96   362    -1
  195    362   385   384    -1
  196     96   384   386    -1
  197    386    17    96    -1
  198    382    55   232    -1
  199    232   387   382    -1
  200    375   379   386    -1
  201    386   387   375    -1
  202    389    99     9    -1
  203    388   389   251    -1
  204    251    61   388    -1
  205    391   390    95    -1
  206     95   358   391    -1
  207     99   389   391    -1
  208    391   381    99    -1
  209    393   367   370    -1
  210    370   392   393    -1
  211    351    95   390    -1
  212    390   392   351    -1
  213    393   388    61    -1
  214     61   246   393    -1
  215    396   100   394    -1
  216    258    64   395    -1
  217    395   396   258    -1
  218    398   397    90    -1
  219     90   343   398    -1
  220    100   396   398    -1
  221    402   401   399    -1
  222    399   400   402    -1
  223    336    90   397    -1
  224    397   400   336    -1
  225    402   395    64    -1
  226     64   255   402    -1
  227    240   405   403    -1
  228    410   405   404    -1
  229    404   409   410    -1
  230    406   234   403    -1
  231    407    93   339    -1
  232    339   408   407    -1
  233    399   401   406    -1
  234    406   408   399    -1
  235     93   407   410    -1
  236    410    16    93    -1
  237    412   102   411    -1
  238    411   414   412    -1
  239    224    52   413    -1
  240    413   414   224    -1
  241    412   103    91    -1
  242     91   347   412    -1
  243    341    91   103    -1
  244    103   415   341    -1
  245    416   413    52    -1
  246     52   227   416    -1
  247    416   394   100    -1
  248    100   415   416    -1
  249    409   404   417    -1
  250    417   418   104    -1
  251    104   105   417    -1
  252    419    92   349    -1
  253    349   420   419    -1
  254    417   420   409    -1
  255    102   345   422    -1
  256    345    92   419    -1
  257    105   104   421    -1
  258    421   422   105    -1
  259    422   411   102    -1
  260    425   424   106    -1
  261    106   423   425    -1
  262    425   333   328    -1
  263    328   432   425    -1
  264    107   426   424    -1
  265    424   108   107    -1
  266    427   430    21    -1
  267    428   107   108    -1
  268    108   427   428    -1
  269    431   429    83    -1
  270    430   427   431    -1
  271    432   328   329    -1
  272    316    83   429    -1
  273    429   432   316    -1
  274    109   530   434    -1
  275    434   556   112    -1
  276    112   433   434    -1
  277    435   110   428    -1
  278    428   113   435    -1
  279    434   113   109    -1
  280    437   111   436    -1
  281    436   435   437    -1
  282    438   433   112    -1
  283    112   449   438    -1
  284    111   437   438    -1
  285    107   428   110    -1
  286    110   443   107    -1
  287    440   442   439    -1
  288    439   441   440    -1
  289    426   107   441    -1
  290    440   443   451    -1
  291    445   444   114    -1
  292    445   442   440    -1
  293    447   115   446    -1
  294    446   114   444    -1
  295    444   447   446    -1
  296    448   111   438    -1
  297    438   450   448    -1
  298    115   447   450    -1
  299    450   449   115    -1
  300    445   440   451    -1
  301    448   451   436    -1
  302    436   111   448    -1
  303    452   453   116    -1
  304    116   117    26    -1
  305    453   478   287    -1
  306    455   456   454    -1
  307    454   457   458    -1
  308    455   458   292    -1
  309    194   460   459    -1
  310    463   462   459    -1
  311    455   292   460    -1
  312    460   292   293    -1
  313    293   463   460    -1
  314    467   464   869    -1
  315    464   466   465    -1
  316    418   466   467    -1
  317    467   104   418    -1
  318    467   421   104    -1
  319    468   577   584    -1
  320     98   376   469    -1
  321    577   468   469    -1
  322    119   118   470    -1
  323    470   471   119    -1
  324    471    98   469    -1
  325    473   878    26    -1
  326    457   454   472    -1
  327    473    10   474    -1
  328    475   883   884    -1
  329    884   476   475    -1
  330    312   478   477    -1
  331    478   453   475    -1
  332    481   483   477    -1
  333    477   476   481    -1
  334    477   310   312    -1
  335    480   887   888    -1
  336    479   480   120    -1
  337    887   480   481    -1
  338    482    14   310    -1
  339    310   483   482    -1
  340    479   120   526    -1
  341    526   482   479    -1
  342    484   487   485    -1
  343    485   122   484    -1
  344    489   121   488    -1
  345     15   486   487    -1
  346    487   489    15    -1
  347    490   484   122    -1
  348    121   489   490    -1
  349    491   493   492    -1
  350    122   485   494    -1
  351    494   201   493    -1
  352    334   490   495    -1
  353    495    88   334    -1
  354    495   496    88    -1
  355    118   900   498    -1
  356    498   249   252    -1
  357    498   470   118    -1
  358    604   250   249    -1
  359    249   498   604    -1
  360    904   123   500    -1
  361    466   501   465    -1
  362    499   501   238    -1
  363    500   241   124    -1
  364    124   904   500    -1
  365    503   124   502    -1
  366     59   504   125    -1
  367    125   502    59    -1
  368    243    59   502    -1
  369    502   241   243    -1
  370    125   506   507    -1
  371    509   510   511    -1
  372    509   508   505    -1
  373    505   507   509    -1
  374    506   125   504    -1
  375    510   506   307    -1
  376    307    80   510    -1
  377    912   509   126    -1
  378    126   514    22    -1
  379     84   512   514    -1
  380    514   126    84    -1
  381     84   511    13    -1
  382    515    22   514    -1
  383    516   517   127    -1
  384    518   128    85    -1
  385     85   323   518    -1
  386    512   128   514    -1
  387    512    85   128    -1
  388    127   520   519    -1
  389    519   516   127    -1
  390    491   492   521    -1
  391    496   491   521    -1
  392    521   522   496    -1
  393    127   518   523    -1
  394    523   520   127    -1
  395    523   330    87    -1
  396     87   522   523    -1
  397    120   524   130    -1
  398    430   526   527    -1
  399    120   130   526    -1
  400    527    21   430    -1
  401    529   532   528    -1
  402    528   530   529    -1
  403    530   109   527    -1
  404    524   525   531    -1
  405    531   532   524    -1
  406    533   488   121    -1
  407    533   423   106    -1
  408    535   534   488    -1
  409    572   132   573    -1
  410    131   536   132    -1
  411    132   537   131    -1
  412    542   541   543    -1
  413    543   541   548    -1
  414    555   548   547    -1
  415    550   549   547    -1
  416    551   549   552    -1
  417    552   134   114    -1
  418    114   446   552    -1
  419    134   553   114    -1
  420    553   550   554    -1
  421    553   439   442    -1
  422    557   556    20    -1
  423     20   555   557    -1
  424    135   115   449    -1
  425    446   115   135    -1
  426    135   551   446    -1
  427    557   555   547    -1
  428    546   544   558    -1
  429    560   958   559    -1
  430    560   561   532    -1
  431    560    25   958    -1
  432    136   555    20    -1
  433    528   532   561    -1
  434    561   136   528    -1
  435    555   136   543    -1
  436    562   563   133    -1
  437    133   545   562    -1
  438    563   538   133    -1
  439    565   960   486    -1
  440    486    15   565    -1
  441    564   563   565    -1
  442    562   545   546    -1
  443    565   534   564    -1
  444    554   550   566    -1
  445    566   539   538    -1
  446    538   564   566    -1
  447    566   534   535    -1
  448    567   132   536    -1
  449    567   574   573    -1
  450    574   567   540    -1
  451    568   545   133    -1
  452    133   569   568    -1
  453    569   137   536    -1
  454    536   131   569    -1
  455    133   137   569    -1
  456    570   546   571    -1
  457    537   570   571    -1
  458    568   131   571    -1
  459    571   131   537    -1
  460    546   545   568    -1
  461    568   571   546    -1
  462    574   541   542    -1
  463    575   221   138    -1
  464    138   139   575    -1
  465    584   577   140    -1
  466    467   869   581    -1
  467    579   467   581    -1
  468    580   581   582    -1
  469    226   141    51    -1
  470    578   580   141    -1
  471    221    51   583    -1
  472    583   138   221    -1
  473    584   587   586    -1
  474    587   584   140    -1
  475    589   588   585    -1
  476    589   587   139    -1
  477    576   139   587    -1
  478    587   140   576    -1
  479    585   588   593    -1
  480    593   590   585    -1
  481    591   592   582    -1
  482    592   141   580    -1
  483    580   582   592    -1
  484    593   583   141    -1
  485    141   592   593    -1
  486    607   599   597    -1
  487    597   250   594    -1
  488    595    62   250    -1
  489    272   248   595    -1
  490    595   247    62    -1
  491    595   596   272    -1
  492    142   596   597    -1
  493    597   599   142    -1
  494    300   598   299    -1
  495    598    11   299    -1
  496    602   598   599    -1
  497    599   601   602    -1
  498    602   603   461    -1
  499    497   996   605    -1
  500    606   594   605    -1
  501    609   607   606    -1
  502    609   608   601    -1
  503    605   143   606    -1
  504   1001   610   612    -1
  505    616   615   613    -1
  506    613   622   616    -1
  507    622   621   618    -1
  508    620   144   614    -1
  509    614   616   620    -1
  510    620   618   617    -1
  511    620   619   144    -1
  512    986   617   618    -1
  513    627   629   622    -1
  514    622   613   627    -1
  515    623   621   146    -1
  516    626   625   145    -1
  517    145   624   626    -1
  518    623   146   626    -1
  519    628   145   625    -1
  520    625   629   628    -1
  521    631   633   632    -1
  522    632    28   631    -1
  523    631   805   630    -1
  524    905    30   634    -1
  525    805   635   630    -1
  526    630   636   634    -1
  527    639   642   637    -1
  528    641   148   640    -1
  529    641   642   633    -1
  530    647   149   643    -1
  531    643   644   150    -1
  532    647   646   149    -1
  533    997   645   647    -1
  534    647   648   997    -1
  535    150   649   643    -1
  536    152   151   650    -1
  537     28   632   655    -1
  538    655   650    28    -1
  539    658   651   652    -1
  540    652   653   151    -1
  541    151   152   652    -1
  542    652   654   658    -1
  543    656   153   159    -1
  544    615   651   656    -1
  545    656   613   615    -1
  546    657   159   153    -1
  547    658   659   660    -1
  548    660   153   658    -1
  549    154   707   676    -1
  550    655   661   156    -1
  551    662   654   156    -1
  552     40   659   662    -1
  553    663   150   644    -1
  554    675   665   673    -1
  555    150   663   675    -1
  556    665   667   673    -1
  557    664   668   669    -1
  558    666   667   669    -1
  559    670   158   157    -1
  560    157   700   670    -1
  561    671   158   672    -1
  562    673   674   672    -1
  563    670   994   150    -1
  564    150   675   670    -1
  565    677   676   707    -1
  566    707   708   677    -1
  567    657   674   666    -1
  568    676   657   660    -1
  569    677   672   674    -1
  570    677   671   672    -1
  571    678   627   613    -1
  572    613   656   678    -1
  573    669   678   666    -1
  574    679   704    36    -1
  575     36   683   679    -1
  576    681   683   863    -1
  577    688   680   681    -1
  578    682   863   683    -1
  579    696   684   687    -1
  580    684   706   689    -1
  581    685   160   686    -1
  582    688   681   686    -1
  583    689   688   684    -1
  584    690    39   695    -1
  585    692   695   694    -1
  586    687   697   696    -1
  587    707   698   706    -1
  588    707   154   698    -1
  589    709   698   154    -1
  590    699   700   157    -1
  591    690   691   699    -1
  592    637   638   702    -1
  593    161   701   702    -1
  594    703   701   704    -1
  595    701   161   712    -1
  596    712   704   701    -1
  597    696    39   705    -1
  598    705   706   696    -1
  599    699   708   705    -1
  600    155   709   662    -1
  601    680   698   709    -1
  602    155   703   704    -1
  603    704   679   155    -1
  604    702   711   161    -1
  605    163   710   711    -1
  606    712   713   162    -1
  607    163    42   710    -1
  608    710   714   713    -1
  609    715   713   714    -1
  610    716   165   715    -1
  611    715   714   716    -1
  612    719    41   717    -1
  613    713   715   717    -1
  614    720   164   718    -1
  615    717   720   719    -1
  616    721   715   165    -1
  617    721    43   164    -1
  618    164   720   721    -1
  619    727   729   716    -1
  620    166   723   722    -1
  621    165   723   721    -1
  622    725   724   726    -1
  623    166   722   726    -1
  624    725   729   728    -1
  625    730   829   731    -1
  626    733   737   736    -1
  627    736    44   733    -1
  628    730   733   732    -1
  629    735   734   737    -1
  630    731   166   726    -1
  631    726   739   731    -1
  632    735   739   738    -1
  633    744   741   167    -1
  634    167   740   744    -1
  635    170   742   744    -1
  636    744   743   170    -1
  637    748   746   168    -1
  638    168   745   748    -1
  639    747   167   741    -1
  640    741   748   747    -1
  641    750   169   749    -1
  642    749   751   750    -1
  643    824   168   746    -1
  644    746   751   824    -1
  645    742   170   752    -1
  646    752   754   742    -1
  647    169   750   754    -1
  648    754   753   169    -1
  649    759   756   762    -1
  650    762   755   759    -1
  651    174   757   759    -1
  652    759   758   174    -1
  653    763   761   172    -1
  654    172   760   763    -1
  655    756   763   762    -1
  656    765   173   764    -1
  657    764   767   765    -1
  658    766   172   761    -1
  659    761   767   766    -1
  660    757   174   768    -1
  661    768   769   757    -1
  662    173   765   769    -1
  663    772   176   770    -1
  664    668   664   771    -1
  665    771   772   668    -1
  666    762    45   773    -1
  667    176   772    45    -1
  668    777   776   774    -1
  669    774   775   777    -1
  670    755   762   773    -1
  671    773   775   755    -1
  672    777   771   664    -1
  673    664   663   777    -1
  674    177   778   779    -1
  675    779   780   179    -1
  676    179   180   779    -1
  677    173   781   180    -1
  678    781   177   779    -1
  679    178   764   784    -1
  680    173   180   764    -1
  681    180   179   782    -1
  682    782   784   180    -1
  683    783   178   784    -1
  684    787   785   145    -1
  685    145   628   787    -1
  686    787   770   176    -1
  687    176   786   787    -1
  688    788   178   783    -1
  689    783   789   788    -1
  690    624   145   785    -1
  691    785   789   624    -1
  692    788   181   172    -1
  693    172   766   788    -1
  694    760   172   181    -1
  695    181   786   760    -1
  696    646   790   182    -1
  697    182   149   646    -1
  698    778   177   790    -1
  699    149   182   791    -1
  700    791   643   149    -1
  701    792   174   758    -1
  702    758   793   792    -1
  703    774   776   791    -1
  704    791   793   774    -1
  705    794   790   177    -1
  706    177   781   794    -1
  707    792   794   768    -1
  708    768   174   792    -1
  709    185   151   653    -1
  710    653   796   185    -1
  711    795   184   796    -1
  712    797   650   151    -1
  713    151   185   797    -1
  714    798   170   743    -1
  715    743   800   798    -1
  716    799   183   797    -1
  717    797   800   799    -1
  718    802   796   184    -1
  719    184   801   802    -1
  720    170   798   802    -1
  721    802   752   170    -1
  722    803   806   804    -1
  723    804   186   803    -1
  724    805   806   635    -1
  725    804   807   167    -1
  726    167   747   804    -1
  727    808   183   799    -1
  728    799   809   808    -1
  729    740   167   807    -1
  730    807   809   740    -1
  731    805   631   808    -1
  732    810   144   619    -1
  733    619   812   810    -1
  734    813   815   184    -1
  735    184   795   813    -1
  736    813   614   144    -1
  737    144   810   813    -1
  738    814   169   753    -1
  739    753   815   814    -1
  740    801   184   815    -1
  741    817   812   811    -1
  742    811   816   817    -1
  743    817   749   169    -1
  744    169   814   817    -1
  745    820   819   188    -1
  746    188   818   820    -1
  747    820   803   186    -1
  748    821   188   819    -1
  749    819   822   821    -1
  750    823   168   824    -1
  751    816   811   822    -1
  752    822   824   816    -1
  753    186   825   820    -1
  754    745   168   823    -1
  755    823   825   745    -1
  756    730   732   827    -1
  757    827   826   834    -1
  758    834   836   827    -1
  759    828   164    43    -1
  760     43   829   828    -1
  761    829   730   827    -1
  762    718   833   830    -1
  763    164   828   718    -1
  764    832   189   831    -1
  765    831   833   832    -1
  766     47   830   833    -1
  767    836   835   189    -1
  768    189   832   836    -1
  769    950   953   838    -1
  770    838   837   950    -1
  771    190   839   840    -1
  772    950   837   840    -1
  773    840   951   950    -1
  774    841   844   843    -1
  775    843    48   841    -1
  776    840   841   190    -1
  777    838   191   842    -1
  778    842   844   838    -1
  779    846   849   843    -1
  780    189   845   846    -1
  781    846   831   189    -1
  782    847   849   848    -1
  783     48   843   849    -1
  784    850   852   851    -1
  785    835   852   845    -1
  786    845   189   835    -1
  787    848   850   854    -1
  788    853   193   854    -1
  789    847   855   190    -1
  790    847   848   854    -1
  791    858   857   192    -1
  792    192   856   858    -1
  793    839   190   855    -1
  794    855   858   839    -1
  795    193   853   859    -1
  796    859   857   193    -1
  797    860   192   857    -1
  798    863   864   862    -1
  799    864   863   452    -1
  800    456   866   454    -1
  801    866    38   695    -1
  802    695   697   866    -1
  803    194    38   456    -1
  804    867   694   194    -1
  805    194   459   867    -1
  806    694    38   194    -1
  807    195   692   867    -1
  808    459   462   867    -1
  809    868   196   869    -1
  810    868   869   464    -1
  811    188   821   870    -1
  812    870   871   196    -1
  813    196   868   870    -1
  814    872   901   903    -1
  815    870   872   818    -1
  816    818   188   870    -1
  817    872   868   464    -1
  818    119   877   873    -1
  819    876   179   780    -1
  820    873   780   874    -1
  821    876   877   981    -1
  822    981   875   876    -1
  823    876   782   179    -1
  824    877   119   468    -1
  825    864   878   880    -1
  826    879   862   864    -1
  827    864   880   879    -1
  828    865   685   880    -1
  829    685   686   879    -1
  830    880   878   472    -1
  831    882   197   881    -1
  832    881   884   882    -1
  833    885    41   197    -1
  834    197   882   885    -1
  835    861   885   882    -1
  836    883   452   861    -1
  837    861   882   883    -1
  838    886   888   198    -1
  839    889   886   198    -1
  840    198   890   889    -1
  841     41   719   890    -1
  842    485   487   891    -1
  843    893   896   892    -1
  844    898   891   893    -1
  845    895   199   894    -1
  846    894   896   895    -1
  847    930   892   896    -1
  848    895   891   487    -1
  849    201   200   492    -1
  850    736   200   897    -1
  851    893   897   898    -1
  852    897    44   736    -1
  853    494   898   201    -1
  854    873   874   900    -1
  855    901   465   123    -1
  856    902   634   636    -1
  857    636   903   902    -1
  858    904   905   902    -1
  859    902   905   634    -1
  860    641    30   148    -1
  861    503   907   124    -1
  862    907   906   148    -1
  863    906   907   908    -1
  864    711   202   163    -1
  865    163   909    42    -1
  866    508   908   505    -1
  867    910   909   508    -1
  868    508   912   910    -1
  869    727   910   911    -1
  870    203   728   911    -1
  871     22   203   911    -1
  872    911   912    22    -1
  873    203    22   515    -1
  874    513   913   515    -1
  875    914   725   728    -1
  876    203   914   728    -1
  877    915   917   204    -1
  878    915   724   725    -1
  879    725   914   915    -1
  880    517   917   913    -1
  881    913   513   517    -1
  882    916   204   917    -1
  883    920   918   204    -1
  884    204   916   920    -1
  885    919   920   519    -1
  886    519   129   919    -1
  887    735   738   921    -1
  888    921   915   204    -1
  889    204   918   921    -1
  890    734   735   921    -1
  891    921   922   734    -1
  892    923   919   129    -1
  893    129   521   923    -1
  894    200   922   923    -1
  895    923   492   200    -1
  896    924   925   886    -1
  897    205   926   927    -1
  898    531   525   925    -1
  899    925   927   531    -1
  900    205   928   957    -1
  901    830    47   929    -1
  902    929   842   191    -1
  903    191   928   929    -1
  904    889   924   886    -1
  905    929   889   830    -1
  906    834   826   931    -1
  907    892   930   931    -1
  908    930   965   206    -1
  909    207   933   208    -1
  910    932   208   933    -1
  911    971   972   933    -1
  912    933   972   932    -1
  913    213   934   970    -1
  914    940   935   209    -1
  915    209   955   211    -1
  916    209   954   955    -1
  917    940   211   939    -1
  918    938   210   968    -1
  919    943   942   851    -1
  920    853   942   944    -1
  921    850   851   942    -1
  922    944   859   853    -1
  923    948   945   944    -1
  924    944   210   948    -1
  925    947   945   948    -1
  926    946   948   939    -1
  927    949   192   860    -1
  928    860   947   949    -1
  929    856   192   949    -1
  930    949   951   856    -1
  931    952   953   946    -1
  932    946   211   952    -1
  933    956   955   954    -1
  934    956   205   957    -1
  935    955   957   952    -1
  936    952   211   955    -1
  937    958    25   926    -1
  938    205   956   926    -1
  939    954   964   559    -1
  940    959   212    23    -1
  941    199   960   961    -1
  942    960    23   212    -1
  943    961   962   966    -1
  944    966   965   961    -1
  945    961   894   199    -1
  946    962   959   936    -1
  947    963   558   964    -1
  948    963   964   937    -1
  949    964    49   937    -1
  950    941   943   967    -1
  951    206   965   967    -1
  952    968   966   970    -1
  953    941   967   968    -1
  954    213   971   977    -1
  955    936   969    50    -1
  956    974   932   972    -1
  957    972   969   974    -1
  958    975   937    49    -1
  959    973   975   208    -1
  960    208   932   973    -1
  961    209   935   977    -1
  962    976   209   214    -1
  963    214   977   207    -1
  964    978    33   623    -1
  965    623   979   978    -1
  966    988   980   626    -1
  967    196   982   581    -1
  968    982   871   983    -1
  969    982   983   984    -1
  970    978   985   986    -1
  971    986   984   617    -1
  972     33   978   986    -1
  973    584   586   987    -1
  974    987   988   584    -1
  975    979   987   989    -1
  976    989   978   979    -1
  977    990   590   591    -1
  978    990   978   989    -1
  979    985   215   984    -1
  980    992   998   991    -1
  981    994   993   649    -1
  982    649   217   648    -1
  983    649   150   994    -1
  984    216   217   991    -1
  985    995   218   693    -1
  986    218   700   691    -1
  987    218   691   693    -1
  988    700   218   994    -1
  989   1000   219   600    -1
  990    195   219   995    -1
  991    603   600   219    -1
  992    219  1000   992    -1
  993    992   995   219    -1
  994    996   216    27    -1
  995    997   996   899    -1
  996    997   217   216    -1
  997    998   992  1000    -1
  998    600   608  1000    -1
  999    999   143    27    -1
 1000    612   999  1001    -1
 1001    223   229   220    -1
 1002    222   223   221    -1
 1003    226   225   224    -1
 1004    224     3   226    -1
 1005     53     6   227    -1
 1006    227   220    53    -1
 1007    220   225   223    -1
 1008    222   231   228    -1
 1009    228   229   222    -1
 1010    230     8    54    -1
 1011     54   228   230    -1
 1012    231   233   228    -1
 1013    232   233   576    -1
 1014    576     5   232    -1
 1015    221   575   222    -1
 1016    234   236   239    -1
 1017    239   235   234    -1
 1018    238     4   240    -1
 1019    240   235   238    -1
 1020    239   243   241    -1
 1021    243   239   236    -1
 1022    302   242     2    -1
 1023     60   236    57    -1
 1024     57    58    60    -1
 1025    244   301   504    -1
 1026    244    56    60    -1
 1027     60   242   244    -1
 1028    246   247     0    -1
 1029    245    62   247    -1
 1030    249   250    62    -1
 1031    251     9   252    -1
 1032    252   245   251    -1
 1033    249    62   245    -1
 1034    254   253   255    -1
 1035    253   254    63    -1
 1036    257   256    66    -1
 1037    257    63   254    -1
 1038    254   259   257    -1
 1039    258     6   260    -1
 1040    260   259   258    -1
 1041    260   281   261    -1
 1042    260     6    53    -1
 1043    261   256   260    -1
 1044     67    65   262    -1
 1045    261   278    65    -1
 1046     66    65    67    -1
 1047     67   263    66    -1
 1048    264   266    63    -1
 1049    265   264    63    -1
 1050     66   265   257    -1
 1051     58    57   253    -1
 1052    253   266    58    -1
 1053     69   267   268    -1
 1054    269     8   271    -1
 1055    271   270   269    -1
 1056    267    69   270    -1
 1057      7    68   270    -1
 1058    273   274   272    -1
 1059    274    69   248    -1
 1060    275     7   274    -1
 1061     12   277   275    -1
 1062     70   277   262    -1
 1063     70    68     7    -1
 1064    262   278    70    -1
 1065    279   281   280    -1
 1066    279   282   278    -1
 1067     54     8   269    -1
 1068    269   280    54    -1
 1069    280   282   279    -1
 1070    286    10   287    -1
 1071    284    71   286    -1
 1072    288   289   306    -1
 1073    289   286    71    -1
 1074     72    73   290    -1
 1075    288   290    73    -1
 1076     73   286   288    -1
 1077    286    73    10    -1
 1078     72   294   474    -1
 1079    292    74   291    -1
 1080    291   293   292    -1
 1081    294    72    76    -1
 1082    458    76   292    -1
 1083    295   296   306    -1
 1084    295   263    67    -1
 1085    288   306   296    -1
 1086    297    12   275    -1
 1087     74   297   298    -1
 1088    300   299   298    -1
 1089    300   273   272    -1
 1090     77   302    79    -1
 1091    313   303   285    -1
 1092    303    77    79    -1
 1093    303    78   283    -1
 1094     79   302     2    -1
 1095    297    74    75    -1
 1096     75   304   297    -1
 1097     12   297   304    -1
 1098    296   276   304    -1
 1099    296    75   290    -1
 1100    305   265   263    -1
 1101    263   295   305    -1
 1102    283    78   305    -1
 1103    264    78     2    -1
 1104    289   283   305    -1
 1105    305   306   289    -1
 1106    307   504   301    -1
 1107    301   308   307    -1
 1108     82   309   308    -1
 1109    308    77    82    -1
 1110    315    13    80    -1
 1111     80   309   315    -1
 1112    309    82    81    -1
 1113    311    81    82    -1
 1114     82   313   311    -1
 1115    313   285   312    -1
 1116    313    82    77    -1
 1117    315   322    13    -1
 1118    317   318   314    -1
 1119     14   431   317    -1
 1120    314   319   317    -1
 1121    310   319   311    -1
 1122    321    86   320    -1
 1123    320   322   321    -1
 1124    512    84   320    -1
 1125     86    85   320    -1
 1126     86   324    85    -1
 1127    326   318   316    -1
 1128    316   325   326    -1
 1129     86   321   326    -1
 1130    325   316   329    -1
 1131    328    89   327    -1
 1132    327   329   328    -1
 1133    332   330   323    -1
 1134    323   324   332    -1
 1135    332   327    89    -1
 1136     89   331   332    -1
 1137     87   331    88    -1
 1138     88   496    87    -1
 1139    331    89   335    -1
 1140    334   335   333    -1
 1141    335    89   328    -1
 1142    339   340   336    -1
 1143    336   399   339    -1
 1144    338    94   337    -1
 1145    337   340   338    -1
 1146    344   341    18    -1
 1147     18   343   344    -1
 1148    337    94   342    -1
 1149    342   344   337    -1
 1150    348   345   347    -1
 1151    342    94   346    -1
 1152    346   348   342    -1
 1153     16   349   350    -1
 1154    346    94   338    -1
 1155    338   350   346    -1
 1156    351   354   355    -1
 1157    353    97   352    -1
 1158    352   355   353    -1
 1159    352    97   357    -1
 1160    357   358   352    -1
 1161     17   380   360    -1
 1162    360   357    97    -1
 1163     97   359   360    -1
 1164    363   361   373    -1
 1165    373   362   363    -1
 1166    359    97   353    -1
 1167    353   363   359    -1
 1168    271     8   365    -1
 1169    365   366   271    -1
 1170    268   368   367    -1
 1171    367     0   268    -1
 1172    371   354   351    -1
 1173    351   370   371    -1
 1174    371   368   364    -1
 1175    364   369   371    -1
 1176    369   364   366    -1
 1177    366   373   369    -1
 1178      9   374   471    -1
 1179    375     5   376    -1
 1180    376   377   375    -1
 1181     17   379   380    -1
 1182    378   380   377    -1
 1183    358   356   381    -1
 1184    378   374   381    -1
 1185    365     8   230    -1
 1186    230   383   365    -1
 1187    382   384   385    -1
 1188    385   383   382    -1
 1189    385   362   373    -1
 1190    373   372   385    -1
 1191    386   379    17    -1
 1192    232     5   375    -1
 1193    375   387   232    -1
 1194    387   386   384    -1
 1195    384   382   387    -1
 1196    251   389     9    -1
 1197    358   381   391    -1
 1198    389   388   390    -1
 1199    390   391   389    -1
 1200    392   370   351    -1
 1201    392   390   388    -1
 1202    388   393   392    -1
 1203    367   393   246    -1
 1204    246     0   367    -1
 1205    394     6   258    -1
 1206    258   396   394    -1
 1207    398   343    18    -1
 1208     18   100   398    -1
 1209    396   395   397    -1
 1210    397   398   396    -1
 1211    399   336   400    -1
 1212    400   397   395    -1
 1213    395   402   400    -1
 1214    401   402   255    -1
 1215    255   237   401    -1
 1216    405   240     4    -1
 1217      4   404   405    -1
 1218    101   403   405    -1
 1219    405   410   101    -1
 1220    406   401   237    -1
 1221    237   234   406    -1
 1222    403   101   406    -1
 1223    408   339   399    -1
 1224    408   406   101    -1
 1225    101   407   408    -1
 1226    410   409    16    -1
 1227    407   101   410    -1
 1228    414   411     3    -1
 1229      3   224   414    -1
 1230    414   413   103    -1
 1231    103   412   414    -1
 1232    347   102   412    -1
 1233    415   100    18    -1
 1234     18   341   415    -1
 1235    227     6   394    -1
 1236    394   416   227    -1
 1237    415   103   413    -1
 1238    413   416   415    -1
 1239    404     4   418    -1
 1240    418   417   404    -1
 1241    420   349    16    -1
 1242     16   409   420    -1
 1243    420   417   105    -1
 1244    105   419   420    -1
 1245    345   102   347    -1
 1246    419   105   422    -1
 1247    422   345   419    -1
 1248    421     3   411    -1
 1249    411   422   421    -1
 1250    423   334   333    -1
 1251    333   425   423    -1
 1252    432   108   424    -1
 1253    424   425   432    -1
 1254    426    19   106    -1
 1255    106   424   426    -1
 1256     21   428   427    -1
 1257    431    14   430    -1
 1258    427   108   429    -1
 1259    429   431   427    -1
 1260    432   329   316    -1
 1261    432   429   108    -1
 1262    530    20   556    -1
 1263    556   434   530    -1
 1264    433   113   434    -1
 1265    113   428    21    -1
 1266     21   109   113    -1
 1267    436   110   435    -1
 1268    113   437   435    -1
 1269    437   113   433    -1
 1270    433   438   437    -1
 1271    441   107   443    -1
 1272    439    19   426    -1
 1273    426   441   439    -1
 1274    443   110   436    -1
 1275    436   451   443    -1
 1276    443   440   441    -1
 1277    442   445   114    -1
 1278    450   438   449    -1
 1279    447   444   448    -1
 1280    448   450   447    -1
 1281    451   448   444    -1
 1282    444   445   451    -1
 1283    117   116   453    -1
 1284    117   287    10    -1
 1285     10    26   117    -1
 1286    478   285   284    -1
 1287    284   287   478    -1
 1288    287   117   453    -1
 1289    454   458   455    -1
 1290    455   194   456    -1
 1291    294   458   457    -1
 1292    194   455   460    -1
 1293    462   463   461    -1
 1294     11   461   463    -1
 1295    463   293    11    -1
 1296    463   459   460    -1
 1297    464   467   466    -1
 1298    466   418     4    -1
 1299    421   467   579    -1
 1300    579     3   421    -1
 1301    577   469   376    -1
 1302    376     5   577    -1
 1303    468   119   469    -1
 1304    471   470     9    -1
 1305    471   469   119    -1
 1306    473   472   878    -1
 1307    472   473   457    -1
 1308    294   457   474    -1
 1309    474   457   473    -1
 1310     10   473    26    -1
 1311    881   481   476    -1
 1312    476   884   881    -1
 1313    453   452   883    -1
 1314    883   475   453    -1
 1315    478   312   285    -1
 1316    475   477   478    -1
 1317    310   477   483    -1
 1318    477   475   476    -1
 1319     24   120   480    -1
 1320    480   888    24    -1
 1321    481   881   887    -1
 1322    480   479   481    -1
 1323    479   482   483    -1
 1324    483   481   479    -1
 1325     14   482   526    -1
 1326    486   199   487    -1
 1327    489   488    15    -1
 1328    489   487   484    -1
 1329    490   334   121    -1
 1330    484   490   489    -1
 1331    493   201   492    -1
 1332    491   122   494    -1
 1333    494   493   491    -1
 1334    495   490   122    -1
 1335    122   491   495    -1
 1336    496   495   491    -1
 1337    497   604   498    -1
 1338    498   899   497    -1
 1339    498   900   899    -1
 1340    252     9   470    -1
 1341    470   498   252    -1
 1342    500   123   499    -1
 1343      4   238   501    -1
 1344    501   466     4    -1
 1345    501   499   123    -1
 1346    123   465   501    -1
 1347    502   124   241    -1
 1348    502   125   503    -1
 1349    504    59   244    -1
 1350    507   505   503    -1
 1351    503   125   507    -1
 1352    507   506   510    -1
 1353    510   509   507    -1
 1354     80    13   511    -1
 1355    511   510    80    -1
 1356    504   307   506    -1
 1357    509   912   508    -1
 1358    509   511   126    -1
 1359     22   912   126    -1
 1360     84   126   511    -1
 1361    514   128   513    -1
 1362    513   515   514    -1
 1363    517   513   128    -1
 1364    128   127   517    -1
 1365    128   518   127    -1
 1366    520   129   519    -1
 1367    129   520   521    -1
 1368    522    87   496    -1
 1369    522   521   520    -1
 1370    518   323   330    -1
 1371    330   523   518    -1
 1372    520   523   522    -1
 1373    525   524   120    -1
 1374    120    24   525    -1
 1375    526   430    14    -1
 1376    527   526   130    -1
 1377     21   527   109    -1
 1378    530   528    20    -1
 1379    527   130   529    -1
 1380    529   530   527    -1
 1381    532   531    25    -1
 1382    529   130   524    -1
 1383    524   532   529    -1
 1384    121   334   423    -1
 1385    423   533   121    -1
 1386    533   535   488    -1
 1387    534    15   488    -1
 1388    533   106    19    -1
 1389     19   535   533    -1
 1390    537   132   572    -1
 1391    543   544   542    -1
 1392    546   570   544    -1
 1393    547   548   540    -1
 1394    540   548   541    -1
 1395    547   540   550    -1
 1396    550   134   549    -1
 1397    549   551   547    -1
 1398    549   134   552    -1
 1399    442   114   553    -1
 1400    554    19   439    -1
 1401    439   553   554    -1
 1402    553   134   550    -1
 1403    135   112   556    -1
 1404    556   557   135    -1
 1405    135   449   112    -1
 1406    551   552   446    -1
 1407    547   551   557    -1
 1408    557   551   135    -1
 1409    543   136   558    -1
 1410    558   544   543    -1
 1411    560   559   558    -1
 1412    558   136   560    -1
 1413     25   560   532    -1
 1414    560   136   561    -1
 1415    528   136    20    -1
 1416    543   548   555    -1
 1417     23   563   562    -1
 1418    563   564   538    -1
 1419    960   565   563    -1
 1420    199   486   960    -1
 1421    563    23   960    -1
 1422    558   963   546    -1
 1423    963   562   546    -1
 1424    963    23   562    -1
 1425    534   565    15    -1
 1426    550   540   539    -1
 1427    539   566   550    -1
 1428    535    19   554    -1
 1429    554   566   535    -1
 1430    566   564   534    -1
 1431    539   137   538    -1
 1432    567   137   539    -1
 1433    536   137   567    -1
 1434    573   132   567    -1
 1435    540   541   574    -1
 1436    539   540   567    -1
 1437    131   568   569    -1
 1438    137   133   538    -1
 1439    570   537   572    -1
 1440    542   573   574    -1
 1441    570   542   544    -1
 1442    573   542   570    -1
 1443    570   572   573    -1
 1444    140     5   576    -1
 1445    575   139   576    -1
 1446    140   577     5    -1
 1447    196   581   869    -1
 1448    579   578     3    -1
 1449    581   578   579    -1
 1450    581   580   578    -1
 1451    226     3   578    -1
 1452    578   141   226    -1
 1453     51   141   583    -1
 1454    586   589   585    -1
 1455    589   586   587    -1
 1456    139   138   588    -1
 1457    588   589   139    -1
 1458    590   593   592    -1
 1459    592   591   590    -1
 1460    588   138   583    -1
 1461    583   593   588    -1
 1462    594   607   597    -1
 1463    596   595   597    -1
 1464    597   595   250    -1
 1465    247   595   248    -1
 1466    300   272   596    -1
 1467    596   142   300    -1
 1468    300   142   598    -1
 1469    142   599   598    -1
 1470    600   602   601    -1
 1471    601   599   607    -1
 1472     11   598   602    -1
 1473    602   461    11    -1
 1474    462   461   603    -1
 1475    602   600   603    -1
 1476    497   605   594    -1
 1477    594   604   497    -1
 1478    594   250   604    -1
 1479    996    27   605    -1
 1480    594   606   607    -1
 1481    611   609   606    -1
 1482    607   609   601    -1
 1483    600   601   608    -1
 1484    609   610   608    -1
 1485    143   605    27    -1
 1486    143   612   611    -1
 1487    611   606   143    -1
 1488    610   609   611    -1
 1489    611   612   610    -1
 1490    616   622   618    -1
 1491    614    34   615    -1
 1492    615   616   614    -1
 1493    618   620   616    -1
 1494    619   620   617    -1
 1495    617    29   619    -1
 1496    986   618   621    -1
 1497    621    33   986    -1
 1498    629   146   621    -1
 1499    621   622   629    -1
 1500    621   623    33    -1
 1501    624    32   626    -1
 1502    625   626   146    -1
 1503    627    35   628    -1
 1504    628   629   627    -1
 1505    629   625   146    -1
 1506    631   630   147    -1
 1507    147   633   631    -1
 1508    633   147   641    -1
 1509     30   641   147    -1
 1510    147   634    30    -1
 1511    635    31   636    -1
 1512    636   630   635    -1
 1513    634   147   630    -1
 1514    637   703   639    -1
 1515    642   640   638    -1
 1516    638   637   642    -1
 1517     37   638   640    -1
 1518    642   639   632    -1
 1519    632   633   642    -1
 1520    642   641   640    -1
 1521    643   648   647    -1
 1522    645   874   646    -1
 1523    646   647   645    -1
 1524    648   217   997    -1
 1525    648   643   649    -1
 1526    650   655   152    -1
 1527    651    34   653    -1
 1528    653   652   651    -1
 1529    659   658   654    -1
 1530    654   652   152    -1
 1531    152   156   654    -1
 1532    156   152   655    -1
 1533    153   656   651    -1
 1534    615    34   651    -1
 1535    651   658   153    -1
 1536    676   660   154    -1
 1537    659    40   154    -1
 1538    154   660   659    -1
 1539    660   657   153    -1
 1540    661   639   703    -1
 1541    703   155   661    -1
 1542    661   155   156    -1
 1543    655   632   639    -1
 1544    639   661   655    -1
 1545    654   662   659    -1
 1546    156   155   662    -1
 1547    663   664   665    -1
 1548    665   675   663    -1
 1549    667   666   674    -1
 1550    674   673   667    -1
 1551    668    35   669    -1
 1552    667   665   664    -1
 1553    664   669   667    -1
 1554    994   670   700    -1
 1555    671   157   158    -1
 1556    672   158   673    -1
 1557    675   673   158    -1
 1558    158   670   675    -1
 1559    676   677   674    -1
 1560    674   657   676    -1
 1561    671   677   708    -1
 1562    678   656   159    -1
 1563    669    35   627    -1
 1564    627   678   669    -1
 1565    159   666   678    -1
 1566    657   666   159    -1
 1567    680   679   683    -1
 1568    688   689   680    -1
 1569    863   862   681    -1
 1570    683   681   680    -1
 1571    682   683    36    -1
 1572    696   706   684    -1
 1573    684   160   687    -1
 1574    687   160   685    -1
 1575    681   862   686    -1
 1576    686   160   688    -1
 1577    160   684   688    -1
 1578    690   693   691    -1
 1579    693   690   692    -1
 1580     38   694   695    -1
 1581    695   692   690    -1
 1582     39   696   697    -1
 1583    697   695    39    -1
 1584    697   687   685    -1
 1585    706   698   689    -1
 1586    154    40   709    -1
 1587    157   671   699    -1
 1588    699   691   700    -1
 1589    699   705    39    -1
 1590     39   690   699    -1
 1591    638    37   702    -1
 1592    637   702   701    -1
 1593    703   637   701    -1
 1594     36   704   712    -1
 1595    706   705   708    -1
 1596    708   707   706    -1
 1597    708   699   671    -1
 1598     40   662   709    -1
 1599    709   155   679    -1
 1600    680   689   698    -1
 1601    679   680   709    -1
 1602    702    37   711    -1
 1603    711   710   161    -1
 1604    162    36   712    -1
 1605     41   162   713    -1
 1606    713   712   161    -1
 1607    714   710    42    -1
 1608    713   161   710    -1
 1609     42   716   714    -1
 1610    713   717    41    -1
 1611    720   718   719    -1
 1612    720   717   715    -1
 1613    715   721   720    -1
 1614    716    42   727    -1
 1615    729   722   165    -1
 1616    165   716   729    -1
 1617    723   166    43    -1
 1618     43   721   723    -1
 1619    723   165   722    -1
 1620    725   726   722    -1
 1621    729   727   728    -1
 1622    729   725   722    -1
 1623    829    43   166    -1
 1624    166   731   829    -1
 1625    731   737   730    -1
 1626    732   733    44    -1
 1627    733   730   737    -1
 1628    736   737   734    -1
 1629    734   200   736    -1
 1630    739   726   724    -1
 1631    724   738   739    -1
 1632    739   735   737    -1
 1633    737   731   739    -1
 1634    743   744   740    -1
 1635    740   799   743    -1
 1636    742   171   741    -1
 1637    741   744   742    -1
 1638    748   745   747    -1
 1639    741   171   746    -1
 1640    746   748   741    -1
 1641    751   749   824    -1
 1642    746   171   750    -1
 1643    750   751   746    -1
 1644    754   752   801    -1
 1645    801   753   754    -1
 1646    750   171   742    -1
 1647    742   754   750    -1
 1648    758   759   755    -1
 1649    755   774   758    -1
 1650    757   175   756    -1
 1651    756   759   757    -1
 1652    763   760    45    -1
 1653     45   762   763    -1
 1654    756   175   761    -1
 1655    761   763   756    -1
 1656    767   764   766    -1
 1657    767   761   175    -1
 1658    175   765   767    -1
 1659    768   173   769    -1
 1660    765   175   757    -1
 1661    757   769   765    -1
 1662    770    35   668    -1
 1663    668   772   770    -1
 1664    772   771   773    -1
 1665    773    45   772    -1
 1666    774   755   775    -1
 1667    775   773   771    -1
 1668    771   777   775    -1
 1669    776   777   663    -1
 1670    663   644   776    -1
 1671    778   874   780    -1
 1672    780   779   778    -1
 1673    781   173   768    -1
 1674    781   779   180    -1
 1675    764   178   766    -1
 1676    784   764   180    -1
 1677    782    32   783    -1
 1678    783   784   782    -1
 1679    628    35   770    -1
 1680    770   787   628    -1
 1681    786   181   785    -1
 1682    785   787   786    -1
 1683    783    32   624    -1
 1684    624   789   783    -1
 1685    789   785   181    -1
 1686    181   788   789    -1
 1687    766   178   788    -1
 1688    786   176    45    -1
 1689     45   760   786    -1
 1690    646   874   778    -1
 1691    778   790   646    -1
 1692    643   791   776    -1
 1693    776   644   643    -1
 1694    793   758   774    -1
 1695    793   791   182    -1
 1696    182   792   793    -1
 1697    794   781   768    -1
 1698    792   182   790    -1
 1699    790   794   792    -1
 1700    653    34   795    -1
 1701    795   796   653    -1
 1702    650   797   183    -1
 1703    183    28   650    -1
 1704    800   743   799    -1
 1705    800   797   185    -1
 1706    185   798   800    -1
 1707    801   752   802    -1
 1708    798   185   796    -1
 1709    796   802   798    -1
 1710    806   803    31    -1
 1711     31   635   806    -1
 1712    806   805   187    -1
 1713    187   804   806    -1
 1714    747   186   804    -1
 1715    804   187   807    -1
 1716    799   740   809    -1
 1717    809   807   187    -1
 1718    187   808   809    -1
 1719     28   183   808    -1
 1720    808   631    28    -1
 1721    808   187   805    -1
 1722    812   619    29    -1
 1723     29   811   812    -1
 1724    814   810   812    -1
 1725    795    34   614    -1
 1726    614   813   795    -1
 1727    810   814   815    -1
 1728    815   813   810    -1
 1729    815   753   801    -1
 1730    749   817   816    -1
 1731    816   824   749    -1
 1732    812   817   814    -1
 1733    818    31   803    -1
 1734    803   820   818    -1
 1735    811    29   821    -1
 1736    821   822   811    -1
 1737    822   819   823    -1
 1738    823   824   822    -1
 1739    825   186   747    -1
 1740    747   745   825    -1
 1741    825   823   819    -1
 1742    819   820   825    -1
 1743    732    44   826    -1
 1744    826   827   732    -1
 1745    836   832   827    -1
 1746    829   827   832    -1
 1747    832   828   829    -1
 1748    830   719   718    -1
 1749    828   832   833    -1
 1750    833   718   828    -1
 1751    833   831    47    -1
 1752    834    46   835    -1
 1753    835   836   834    -1
 1754    953   952   191    -1
 1755    191   838   953    -1
 1756    951   840   839    -1
 1757    839   856   951    -1
 1758     48   190   841    -1
 1759    841   840   837    -1
 1760    837   844   841    -1
 1761     47   843   844    -1
 1762    844   842    47    -1
 1763    837   838   844    -1
 1764    831   846   843    -1
 1765    843    47   831    -1
 1766    849   846   845    -1
 1767    849   847    48    -1
 1768    845   848   849    -1
 1769    848   845   852    -1
 1770    852   850   848    -1
 1771    835    46   851    -1
 1772    851   852   835    -1
 1773    853   854   850    -1
 1774    847   190    48    -1
 1775    847   854   193    -1
 1776    193   855   847    -1
 1777    856   839   858    -1
 1778    855   193   857    -1
 1779    857   858   855    -1
 1780    857   859   860    -1
 1781    682    36   861    -1
 1782    861   863   682    -1
 1783    861   452   863    -1
 1784    116    26   864    -1
 1785    864   452   116    -1
 1786    866   865   454    -1
 1787    866   456    38    -1
 1788    697   685   865    -1
 1789    865   866   697    -1
 1790    694   867   692    -1
 1791    692   195   693    -1
 1792    195   867   462    -1
 1793    871   870   821    -1
 1794    821    29   871    -1
 1795    872   903    31    -1
 1796     31   818   872    -1
 1797    872   870   868    -1
 1798    901   872   464    -1
 1799    464   465   901    -1
 1800    873   118   119    -1
 1801    780   873   877    -1
 1802    877   876   780    -1
 1803    782   876   875    -1
 1804    875    32   782    -1
 1805    584   981   877    -1
 1806    877   468   584    -1
 1807    878   864    26    -1
 1808    862   879   686    -1
 1809    685   879   880    -1
 1810    865   880   472    -1
 1811    472   454   865    -1
 1812    884   883   882    -1
 1813     41   885   162    -1
 1814    885   861    36    -1
 1815     36   162   885    -1
 1816    888   886    24    -1
 1817    888   887   198    -1
 1818    889   890   719    -1
 1819     41   890   198    -1
 1820    198   197    41    -1
 1821    197   198   887    -1
 1822    887   881   197    -1
 1823    485   891   898    -1
 1824    892    44   893    -1
 1825    896   893   891    -1
 1826    894   930   896    -1
 1827    891   895   896    -1
 1828    199   895   487    -1
 1829    201   897   200    -1
 1830     44   897   893    -1
 1831    897   201   898    -1
 1832    494   485   898    -1
 1833    645   997   899    -1
 1834    645   900   874    -1
 1835    900   645   899    -1
 1836    118   873   900    -1
 1837    123   902   901    -1
 1838    903   636    31    -1
 1839    903   901   902    -1
 1840    902   123   904    -1
 1841    124   905   904    -1
 1842    124   907   905    -1
 1843     30   905   907    -1
 1844    907   148    30    -1
 1845    906    37   640    -1
 1846    640   148   906    -1
 1847    505   908   907    -1
 1848    907   503   505    -1
 1849    908   202   906    -1
 1850    202   711    37    -1
 1851     37   906   202    -1
 1852     42   909   910    -1
 1853    909   163   202    -1
 1854    909   202   908    -1
 1855    908   508   909    -1
 1856    911   910   912    -1
 1857    727    42   910    -1
 1858    727   911   728    -1
 1859    203   515   913    -1
 1860    914   203   913    -1
 1861    914   913   917    -1
 1862    917   915   914    -1
 1863    516   916   917    -1
 1864    917   517   516    -1
 1865    519   920   916    -1
 1866    916   516   519    -1
 1867    920   919   918    -1
 1868    738   724   915    -1
 1869    915   921   738    -1
 1870    200   734   922    -1
 1871    922   921   918    -1
 1872    492   923   521    -1
 1873    922   918   919    -1
 1874    919   923   922    -1
 1875    925   525    24    -1
 1876     24   886   925    -1
 1877    531   927   926    -1
 1878    926    25   531    -1
 1879    925   924   205    -1
 1880    205   927   925    -1
 1881    928   191   952    -1
 1882    952   957   928    -1
 1883    205   924   928    -1
 1884    842   929    47    -1
 1885    928   924   929    -1
 1886    719   830   889    -1
 1887    924   889   929    -1
 1888    826    44   892    -1
 1889    892   931   826    -1
 1890    930   206   931    -1
 1891    931   206    46    -1
 1892     46   834   931    -1
 1893    930   894   965    -1
 1894    971   933   207    -1
 1895    207   977   971    -1
 1896    208   976   207    -1
 1897    213   935   934    -1
 1898    211   940   209    -1
 1899    954   209    49    -1
 1900    934   940   938    -1
 1901    940   939   938    -1
 1902    934   935   940    -1
 1903    968   934   938    -1
 1904    941   968   210    -1
 1905    851    46   943    -1
 1906    941   210   942    -1
 1907    942   943   941    -1
 1908    942   853   850    -1
 1909    210   944   942    -1
 1910    945   860   859    -1
 1911    859   944   945    -1
 1912    938   948   210    -1
 1913    211   946   939    -1
 1914    938   939   948    -1
 1915    949   947   948    -1
 1916    948   946   949    -1
 1917    860   945   947    -1
 1918    950   951   949    -1
 1919    953   950   949    -1
 1920    949   946   953    -1
 1921    956   957   955    -1
 1922    958   926   956    -1
 1923    964   558   559    -1
 1924    958   956   954    -1
 1925    954   559   958    -1
 1926    212   961   960    -1
 1927    894   961   965    -1
 1928    961   212   962    -1
 1929     50   966   962    -1
 1930    962   936    50    -1
 1931    962   212   959    -1
 1932    959   937   936    -1
 1933    959    23   963    -1
 1934    959   963   937    -1
 1935     49   964   954    -1
 1936    943    46   206    -1
 1937    206   967   943    -1
 1938    965   966   967    -1
 1939    970   934   968    -1
 1940    966   968   967    -1
 1941    966    50   970    -1
 1942     50   969   970    -1
 1943    970   969   213    -1
 1944    977   935   213    -1
 1945    213   969   972    -1
 1946    972   971   213    -1
 1947    936   937   973    -1
 1948    973   974   936    -1
 1949    974   969   936    -1
 1950    974   973   932    -1
 1951     49   976   975    -1
 1952    937   975   973    -1
 1953    976   208   975    -1
 1954    977   214   209    -1
 1955    209   976    49    -1
 1956    214   207   976    -1
 1957    623   980   979    -1
 1958    626    32   988    -1
 1959    623   626   980    -1
 1960    981   988    32    -1
 1961     32   875   981    -1
 1962    584   988   981    -1
 1963    982   215   582    -1
 1964    582   581   982    -1
 1965     29   983   871    -1
 1966    982   196   871    -1
 1967    983    29   617    -1
 1968    617   984   983    -1
 1969    984   986   985    -1
 1970    987   980   988    -1
 1971    987   979   980    -1
 1972    586   585   989    -1
 1973    989   987   586    -1
 1974    989   585   590    -1
 1975    590   990   989    -1
 1976    990   591   215    -1
 1977    978   990   985    -1
 1978    990   215   985    -1
 1979    982   984   215    -1
 1980    591   582   215    -1
 1981    991   993   992    -1
 1982    991   217   993    -1
 1983    993   217   649    -1
 1984    991   998   216    -1
 1985    993   218   992    -1
 1986    992   218   995    -1
 1987    993   994   218    -1
 1988    219   195   462    -1
 1989    462   603   219    -1
 1990    693   195   995    -1
 1991    497   899   996    -1
 1992    998    27   216    -1
 1993    996   997   216    -1
 1994   1000  1001   999    -1
 1995   1000   999   998    -1
 1996   1001   608   610    -1
 1997   1001  1000   608    -1
 1998    998   999    27    -1
 1999    999   612   143    -1
# Generated by /Users/zhenhan/Desktop/TetGen/tetgen -pq1.4/12YO9/7 spot_2000f.off 
