# Spot (Keenan Crane)
# quadric edge-collapse decimation to 1000 triangles, 502 vertices
v 0.3120899 -0.3695998 0.8779082
v 0.3117082 -0.001763087 -0.0301805
v 0.1505381 -0.4539487 0.1619438
v 0.3645891 -0.3808687 0.1610487
v 0.09033213 -0.4083063 0.8980195
v 0.188919 0.2754854 0.2949385
v 0.1619848 0.1558441 -0.2636433
v 0.2094862 0.4468142 -0.01109635
v 0.1701001 0.7758837 -0.4074913
v 0.1767303 -0.6681669 -0.07699893
v 0.3397351 -0.6406681 0.1050062
v 5.50424e-17 0.1004323 -0.467406
v 0.00313172 0.5294926 0.05377656
v -0.007374984 0.7554857 -0.08676017
v -0.03468779 -0.08171389 0.9915644
v -0.3357407 -0.2239228 -0.07868614
v -0.1502581 -0.4546386 0.162605
v -0.1216342 -0.1544335 -0.1888135
v -0.1174484 -0.3659108 -0.07307863
v -0.3529657 -0.3978814 0.1732701
v -0.1957536 0.2717737 0.1021245
v -0.1301677 0.3109001 0.005270004
v -0.1506967 0.1631306 -0.2013682
v -0.2582276 0.4627562 -0.5344737
v -0.294738 -0.6558122 0.722279
v -0.1727035 0.7907334 -0.3377932
v 0.2366933 -0.4549323 0.2128806
v 0.3495341 -0.3638205 0.2503585
v 0.315996 -0.3941869 0.5844569
v 0.321351 -0.1575644 -0.0766499
v 0.3724171 -0.1320494 0.06701873
v 0.373794 -0.1405412 0.4080936
v 0.3884228 -0.1273844 0.2181808
v 0.3751693 -0.04135764 0.2661116
v 0.3288149 -0.2361076 0.7818132
v 0.3562619 -0.118616 0.6288092
v 0.1921135 0.1742374 0.4928909
v 0.216475 0.1732267 0.4370486
v 0.2228348 0.1317246 0.7093259
v 0.2489316 0.1177245 0.560312
v 0.1796032 0.2289018 -0.01066126
v 0.2830078 0.1484161 0.09343658
v 0.2079972 0.1319533 -0.4001938
v 0.2891545 0.1798456 -0.5250136
v 0.3045401 0.2065727 -0.4370343
v 0.2760337 0.2991779 -0.6270865
v 0.2882269 0.3491767 -0.6016248
v 0.2533671 -0.7005979 0.1382224
v 0.1181182 -0.6769879 0.04836337
v 0.2585058 -0.676602 -0.09196458
v 0.2213265 -0.7074233 0.6949753
v 0.196297 -0.7370259 0.7598968
v 0.102733 -0.558625 0.896274
v 0.1429061 -0.6140138 0.1361373
v 0.2330361 -0.6302582 0.1786931
v 0.1035281 -0.580614 0.06300796
v 0.2617711 0.5674346 -0.4611211
v 0.3921344 0.7181827 -0.3125711
v 0.4735522 0.7267815 -0.1955334
v 0.1297541 0.3147935 0.2446195
v 0.02211103 -0.3932696 0.8194876
v 0.09527812 0.4938135 0.04571585
v 0.2267971 0.5830343 -0.4983978
v -0.01182541 -0.1073873 -0.2203733
v 0.04710551 0.001725638 -0.2270987
v 0.1074178 0.1000013 -0.4407913
v 0.1995592 0.1738206 -0.592199
v 0.0925889 0.573085 0.01190395
v 0.1468792 0.9355973 -0.2873244
v 0.4012032 0.7367494 -0.1741414
v 0.1886468 0.8907047 -0.3328988
v 0.1943793 -0.4891502 0.4370589
v 0.1822726 -0.4368011 0.2441956
v 0.2527751 -0.03849922 0.8902776
v -0.004084211 -0.07043202 0.9976094
v -0.2109818 -0.4433543 0.5161327
v -0.09784897 -0.03103255 -0.200967
v -0.2958569 -0.2180137 0.8557382
v -0.385194 -0.351205 0.0306159
v -0.3773838 -0.197667 0.06465655
v -0.3850253 -0.065244 0.1952067
v -0.343446 0.01490055 0.07369941
v -0.3549809 -0.1283693 -0.0002385922
v -0.3700247 -0.2889393 0.3951627
v -0.1780323 0.1601543 -0.07510416
v -0.1588782 0.2759036 0.005454872
v -0.2284284 -0.7301392 -0.01483806
v -0.2177987 -0.7372559 0.8178043
v -0.2684505 -0.6223146 0.66912
v -0.1346148 -0.6436121 0.6807418
v -0.07752295 -0.6265299 0.7983691
v -0.1996863 -0.6444528 0.6576459
v -0.1780235 -0.5520895 0.9321166
v -0.3558961 -0.4946473 -0.08885935
v -0.3862051 -0.5090298 0.02648873
v -0.1362666 -0.5817741 -0.0755462
v -0.2413748 -0.5908195 -0.1219848
v -0.4322937 0.6351195 -0.1784388
v -0.4424462 0.6902047 -0.2626541
v -0.05619982 0.3549936 0.03692978
v -0.1071756 0.4700138 0.04725651
v 0.005630256 0.7877481 -0.4362389
v -0.1815188 0.3299633 -0.6615166
v -0.1401545 0.9296226 -0.2347396
v -0.1100641 0.8121711 -0.2127705
v -0.2131097 0.8269876 -0.2833336
v -0.07796954 -0.4525286 0.2031226
v 0.2900169 -0.4128367 0.258719
v 0.2393901 -0.4370808 0.4523754
v 0.2393052 -0.4295744 0.3317802
v 0.308814 -0.4304983 0.2033765
v 0.313341 -0.4045549 0.4245186
v 0.2581139 -0.4337628 0.5721993
v 0.2953681 -0.285201 -0.1100446
v 0.2119292 -0.2496325 -0.1303519
v 0.2451199 -0.107804 -0.1329734
v 0.3446923 -0.2905097 -0.08115373
v 0.2209273 -0.3480713 -0.117468
v 0.112264 -0.173133 -0.1919873
v 0.2646046 -0.03139974 -0.09955766
v 0.1464047 0.00603219 -0.1691875
v 0.2543363 -0.4181611 0.918645
v 0.2684388 -0.2212777 0.8882481
v 0.1803881 -0.3062483 0.9257928
v 0.1930869 -0.2442313 0.9291436
v 0.149733 -0.3934 0.920339
v 0.3826588 -0.2796656 0.04348804
v 0.3735158 -0.309922 -0.0328796
v 0.3799966 -0.3006223 0.1632966
v 0.3730144 -0.2800272 0.3715499
v 0.3448667 -0.004354627 0.05086178
v 0.3800828 -0.05680535 0.1642274
v 0.3434919 -0.09947175 -0.01398308
v 0.342272 -0.3562933 0.7170669
v 0.3347599 -0.36754 0.8342475
v 0.3275893 -0.07921317 0.7815369
v 0.3436008 -0.330818 0.6104827
v 0.3429655 -0.3760909 0.4246488
v 0.2032679 0.2765895 0.1378849
v 0.2882894 0.1510424 0.2359995
v 0.2477296 0.2289955 0.1825599
v 0.1416888 0.1881311 0.7176197
v 0.117148 0.2133275 0.5113564
v 0.3344819 0.004555566 0.4655452
v 0.3055633 0.02080648 0.7328739
v 0.2190871 0.09172453 0.8176693
v 0.2611256 0.01186657 0.84707
v 0.2383844 0.1191486 -0.02575051
v 0.3314057 -0.003492574 0.65303
v 0.145437 0.1502555 -0.1702093
v 0.1693366 0.1981675 -0.1057786
v 0.1741416 0.2840239 -0.04972766
v 0.128146 0.3141699 0.007201123
v 0.2358833 0.2751049 -0.1705445
v 0.3220833 0.3242753 -0.3332264
v 0.2527662 0.3663929 -0.1077419
v 0.3016564 0.2894129 -0.2950497
v 0.2620738 0.205274 -0.3274816
v 0.2668433 0.2051493 -0.5954913
v 0.3300532 0.2514861 -0.4827273
v 0.3329263 0.3292225 -0.4872639
v 0.3189418 0.2661479 -0.5639504
v 0.2690245 0.4696988 -0.5191247
v 0.2510756 -0.7349892 0.05901063
v 0.1928688 -0.7286462 -0.01429936
v 0.3169714 -0.6888025 -0.03261934
v 0.3364411 -0.681404 0.05022041
v 0.170914 -0.7007754 0.1142074
v 0.1236325 -0.661761 -0.02297695
v 0.2755645 -0.6528521 0.8888332
v 0.1636627 -0.7126869 0.8719215
v 0.2714535 -0.6982478 0.8443944
v 0.1191362 -0.7122331 0.8124772
v 0.2755753 -0.7110708 0.7772011
v 0.3364211 -0.5496426 0.7553823
v 0.3102961 -0.4364956 0.6546777
v 0.3116778 -0.5254358 0.8909813
v 0.3350634 -0.5329935 0.8426861
v 0.3204345 -0.6353724 0.8106323
v 0.2898847 -0.6372383 0.6975859
v 0.07735891 -0.5643008 0.8527627
v 0.1038485 -0.480305 0.6692598
v 0.06109265 -0.4703065 0.760765
v 0.09647779 -0.6238206 0.7176665
v 0.07752295 -0.6265299 0.7983691
v 0.1264238 -0.703788 0.7312267
v 0.09669394 -0.6303858 0.8684862
v 0.265606 -0.4630503 0.6286765
v 0.2222049 -0.6431922 0.6566172
v 0.1561171 -0.6414163 0.6688256
v 0.1849354 -0.4869917 0.62682
v 0.2420251 -0.5458964 0.9296904
v 0.2172538 -0.6648097 0.9145633
v 0.1530064 -0.5946655 0.9234824
v 0.3862051 -0.5090298 0.02648873
v 0.3585985 -0.5580417 0.1273011
v 0.3698904 -0.6136462 0.0006854103
v 0.3392549 -0.6043925 -0.07840967
v 0.3558961 -0.4946473 -0.08885935
v 0.3811312 -0.4995823 -0.03751072
v 0.1174484 -0.3659108 -0.07307863
v 0.3067938 -0.5042563 -0.1180475
v 0.2413748 -0.5908195 -0.1219848
v 0.296601 -0.602967 -0.109127
v 0.1362666 -0.5817741 -0.0755462
v 0.1898394 -0.5824194 -0.1106238
v 0.1849301 -0.6271753 0.1664957
v 0.25113 -0.502745 0.197094
v 0.196177 -0.511769 0.183546
v 0.284725 -0.6140315 0.1724465
v 0.1059632 -0.536321 -0.02745333
v 0.08128055 -0.4047831 0.01060585
v 0.3231512 0.38268 -0.379713
v 0.2749772 0.5818842 -0.3172656
v 0.2546682 0.5470882 -0.128941
v 0.2841725 0.5610309 -0.1885721
v 0.2852627 0.5065489 -0.2367929
v 0.2764363 0.413519 -0.1365447
v 0.3651651 0.6873212 -0.1447491
v 0.2752064 0.604691 -0.1276174
v 0.3534305 0.5883435 -0.1776478
v 0.4139493 0.6189854 -0.1781131
v 0.4103548 0.640447 -0.149876
v 0.2677023 0.6515381 -0.360157
v 0.3617256 0.6601549 -0.3227943
v 0.2948908 0.6075533 -0.2936304
v 0.4424462 0.6902047 -0.2626541
v 0.4494253 0.7494292 -0.2265809
v 0.4318416 0.6987973 -0.1517147
v 0.4601398 0.672172 -0.1802507
v 0.3835012 0.6087277 -0.2375029
v -0.05612829 0.321852 0.2175864
v 0.02419073 0.2334713 0.4815471
v 0.05400757 0.2205007 0.6887049
v -0.02077378 0.222712 0.7126348
v 0.05165638 0.1962404 0.7867775
v 0.1031643 0.1520661 0.8463206
v 0.001025493 -0.4287538 0.0349846
v 0.0136661 -0.2886476 -0.1395772
v 0.0729358 -0.3740534 -0.02758291
v 0.04963145 -0.4183485 0.8294867
v 0.1042607 0.2921294 0.3316251
v 0.08471226 0.3250247 0.05175488
v 0.1455452 0.4253771 0.02801594
v 0.07507415 0.351191 0.03187718
v 0.09844756 0.4992727 -0.564507
v 0.09360153 0.6973765 -0.4815968
v 0.1988016 0.4926555 -0.5477914
v 0.1686075 0.3551134 -0.6552083
v -0.1003962 0.3566907 -0.6616551
v 0.06301145 0.3993667 -0.6321956
v 0.07340124 -0.3373506 0.9147329
v 0.1105698 -0.2945221 -0.1166122
v 0.1673716 0.06756746 -0.1379059
v -0.01376222 0.1145812 -0.2723298
v 0.1026833 0.1186826 -0.2241745
v 0.02705719 0.08375221 -0.2485439
v 0.04632743 0.122203 -0.2902185
v 0.1868609 0.1202175 -0.4958901
v 0.06089296 0.1820091 -0.6155931
v 0.05629911 0.1365158 -0.5601425
v 0.0628222 0.2391286 -0.6550775
v 0.1135907 0.3026736 -0.668301
v 0.1949846 0.2652411 -0.6545347
v 0.2154926 0.5924683 -0.09972625
v 0.1287721 0.6727683 -0.1042887
v 0.04377254 0.6995231 -0.05652048
v 0.2307384 0.6665637 -0.4581713
v 0.2206317 0.9373724 -0.2977962
v 0.1774821 0.786414 -0.3288482
v 0.2006099 0.775666 -0.2433106
v 0.197826 0.8373323 -0.2306577
v 0.1306013 0.8008137 -0.2069304
v 0.1031785 0.8170318 -0.3157007
v 0.08693314 0.8208514 -0.2332203
v 0.2164838 0.7626279 -0.2256419
v 0.2501302 0.7336906 -0.3156787
v 0.3769326 0.7613054 -0.2197
v 0.3868717 0.7572893 -0.2739988
v 0.2483533 0.7111542 -0.3519527
v 0.1908502 0.6889496 -0.1522333
v 0.2083056 0.7536933 -0.1928342
v 0.02457434 0.8150957 -0.1887847
v 0.104436 0.7593458 -0.1616769
v 0.02767383 0.8307499 -0.3512624
v 0.2275981 0.8816046 -0.2854371
v 0.1348713 0.8969468 -0.223217
v 0.1276016 0.9173282 -0.2515982
v 0.1720329 0.9493475 -0.2349195
v 0.212106 0.8986697 -0.2352904
v 0.1475282 -0.4579495 0.5940415
v 0.07047824 -0.4621993 0.6543954
v 0.09967527 -0.4371741 0.07447036
v 0.1399541 -0.4440926 0.2199332
v 0.02718709 -0.454003 0.1832293
v -0.05217175 -0.4515385 0.6891798
v 0.08928599 -0.518022 0.4935068
v 0.07652385 -0.5295434 0.4164309
v 0.004748912 -0.5178756 0.340283
v 0.1104564 -0.5030082 0.3468956
v 0.1319467 -0.03564714 0.968086
v 0.1574951 0.04985095 0.9120796
v 0.01751314 0.0642795 0.9505026
v 0.04163643 -0.2019839 0.9698138
v 0.07725459 -0.06781663 0.9850417
v 0.06655892 -0.04935046 1.012425
v 0.003911902 -0.1029815 1.037727
v -0.3374762 -0.3862804 0.4304029
v -0.2908007 -0.4433888 0.2094571
v -0.3424244 -0.3741972 0.256318
v -0.1860209 -0.4385036 0.2469648
v -0.2436608 -0.4321453 0.379035
v -0.2022325 -0.4630614 0.1952828
v -0.2667915 -0.4218958 0.2534534
v -0.1583198 -0.4584343 0.5943594
v -0.2663432 -0.4314285 0.5791877
v -0.2325406 -0.2943083 -0.1185537
v -0.2900737 -0.2251492 -0.110851
v -0.1492364 -0.2397865 -0.1446834
v -0.1704207 -0.3541432 -0.1038991
v -0.08388087 -0.3106211 -0.1033146
v -0.1565889 0.05166876 -0.1492979
v -0.1979997 -0.1092913 -0.1607639
v -0.2935071 -0.01956341 -0.06702464
v -0.251381 -0.2406742 0.9012908
v -0.3120899 -0.3695998 0.8779082
v -0.1237591 -0.3476293 0.9179435
v -0.1944517 -0.3275288 0.9223045
v -0.2057606 -0.226721 0.9252882
v -0.3735158 -0.309922 -0.0328796
v -0.3742409 -0.3161022 0.1812897
v -0.3818906 -0.3315292 0.1008376
v -0.3900258 -0.180845 0.2322636
v -0.373794 -0.1405412 0.4080936
v -0.341348 -0.3893346 0.8221763
v -0.338106 -0.2409409 0.734052
v -0.3486277 -0.2710503 0.6268769
v -0.3361195 -0.3719112 0.6925782
v -0.3477786 -0.09368409 0.710703
v -0.3243036 -0.384526 0.5847752
v -0.2737614 0.1803656 0.1558263
v -0.245902 0.2278691 0.2186236
v -0.1518078 0.3095288 0.1631778
v -0.2152481 0.2689427 0.177598
v -0.2360119 0.1923547 0.3485444
v -0.170346 0.1896729 0.5014945
v -0.2216664 0.1332333 0.7179857
v -0.246334 0.04443788 0.8417372
v -0.1455271 0.1367539 0.8365783
v -0.0817759 0.1860726 0.7988282
v -0.1245754 0.2017135 0.6962749
v -0.2364569 0.1357218 0.5008901
v -0.3085324 0.029707 0.688292
v -0.3077159 -0.04288373 0.8159502
v -0.3261216 0.006138103 0.002281716
v -0.2601591 0.1668684 0.06401093
v -0.3193204 0.03646794 0.4270418
v -0.3481273 -0.03534738 0.4803871
v -0.3483534 0.03004365 0.2144202
v -0.1578359 0.159555 -0.1416864
v -0.1801127 0.2699808 -0.07651116
v -0.2358833 0.2751049 -0.1705445
v -0.2620738 0.205274 -0.3274816
v -0.2238606 0.426964 -0.03313142
v -0.2603235 0.3678918 -0.1222803
v -0.3016564 0.2894129 -0.2950497
v -0.3045401 0.2065727 -0.4370343
v -0.2207543 0.1420457 -0.3955746
v -0.2326054 0.1338554 -0.4725139
v -0.3123532 0.3858406 -0.515953
v -0.3346206 0.2680755 -0.5000036
v -0.2681999 0.2691855 -0.6326446
v -0.2861569 0.3452996 -0.6065891
v -0.3111681 0.2203343 -0.5497741
v -0.2585058 -0.676602 -0.09196458
v -0.3169714 -0.6888025 -0.03261934
v -0.1214674 -0.6747883 -0.00554245
v -0.1728477 -0.6880818 -0.0605794
v -0.197965 -0.7345637 0.05978213
v -0.146662 -0.6928038 0.1015971
v -0.3442616 -0.6704255 0.061996
v -0.2446924 -0.690049 0.1491991
v -0.2850377 -0.7216287 0.05997422
v -0.2777271 -0.6717293 0.8759736
v -0.2288277 -0.7025616 0.8826168
v -0.290583 -0.6914484 0.7714885
v -0.2413874 -0.7045284 0.7064111
v -0.0945026 -0.6658598 0.746704
v -0.1222604 -0.7133581 0.8182356
v -0.1709434 -0.7016049 0.6899584
v -0.1779668 -0.7289639 0.7347582
v -0.14787 -0.6779893 0.8898175
v -0.3102961 -0.4364956 0.6546777
v -0.3405088 -0.5402946 0.8209806
v -0.3265995 -0.5455004 0.7248874
v -0.3204345 -0.6353724 0.8106323
v -0.2925938 -0.6247168 0.8833655
v -0.3116778 -0.5254358 0.8909813
v -0.08700541 -0.6147682 0.8613369
v -0.06109265 -0.4703065 0.760765
v -0.1038485 -0.480305 0.6692598
v -0.2472893 -0.4738774 0.6236049
v -0.1596914 -0.4875633 0.6371041
v -0.2648541 -0.5352626 0.9207875
v -0.2247957 -0.633134 0.9215919
v -0.117788 -0.6127561 0.9019412
v -0.3731716 -0.5164522 0.09618146
v -0.3811312 -0.4995823 -0.03751072
v -0.3392549 -0.6043925 -0.07840967
v -0.3698904 -0.6136462 0.0006854103
v -0.3271245 -0.6202172 0.1396345
v -0.1846324 -0.589051 -0.1081288
v -0.3067938 -0.5042563 -0.1180475
v -0.296601 -0.602967 -0.109127
v -0.2589128 -0.625161 0.1803102
v -0.1629037 -0.6427446 0.1490266
v -0.1059632 -0.536321 -0.02745333
v -0.1004422 -0.446688 0.06547438
v -0.1041446 -0.6201617 0.05734241
v -0.2853251 0.4760779 -0.4654723
v -0.3037114 0.4512095 -0.3842095
v -0.2837085 0.4154557 -0.1561467
v -0.3284167 0.3336128 -0.3586488
v -0.2465501 0.5503128 -0.1165671
v -0.2801382 0.5218352 -0.2198881
v -0.3807764 0.6161419 -0.1502937
v -0.2652312 0.5844825 -0.1304498
v -0.278132 0.5866426 -0.2844198
v -0.280744 0.5618661 -0.1761488
v -0.3820501 0.611356 -0.249711
v -0.273559 0.6509032 -0.3517735
v -0.3834193 0.6997043 -0.3261358
v -0.4513445 0.6861838 -0.1572265
v -0.4006842 0.7511868 -0.2831736
v -0.4715609 0.7329275 -0.1978978
v -0.1713078 0.2870112 0.2941764
v -0.1480749 0.3086525 0.2406074
v -0.110428 0.2981881 0.3161488
v -0.07860025 0.2248352 0.5082708
v -0.1069043 -0.4403851 0.1336319
v -0.07776575 -0.3993281 0.01000297
v -0.08608621 -0.3873025 0.8975472
v -0.04032769 -0.4038741 0.8198071
v -0.04690975 0.2578312 0.4185405
v -0.05669324 0.3302972 0.05662572
v 0.003860676 0.4458365 0.06275885
v -0.1808314 0.4580811 0.01140286
v -0.1124093 0.5033431 -0.5593708
v -0.2267971 0.5830343 -0.4983978
v -0.196148 0.732701 -0.4334849
v -0.1314483 0.6901927 -0.4793693
v -0.1990115 0.4938856 -0.5471018
v -0.008545242 -0.3267189 0.9036286
v -0.04627491 -0.2190837 -0.1863653
v -0.07242987 -0.1781301 -0.1990288
v -0.09477239 0.08773057 -0.2122417
v -0.03496059 0.01746879 -0.2317868
v -0.07972266 0.113504 -0.2463625
v -0.124521 0.1395527 -0.2806124
v -0.138621 0.1130878 -0.3902055
v -0.0346604 0.1034999 -0.3880138
v -0.163327 0.1144132 -0.4875097
v -0.255423 0.1833775 -0.5757612
v -0.1309873 0.1969328 -0.6260411
v -0.1237324 0.1389548 -0.5594579
v -0.1384179 0.2665424 -0.662902
v -0.09087795 0.5706575 0.01450372
v -0.01480461 0.7202416 -0.05516641
v -0.1502452 0.6651303 -0.1153749
v -0.2223251 0.6120274 -0.118021
v -0.2307384 0.6665637 -0.4581713
v -0.2567497 0.5971374 -0.4601688
v -0.1878642 0.9592092 -0.2873778
v -0.2093618 0.7613252 -0.2459375
v -0.1902277 0.7787673 -0.2265945
v -0.1186461 0.8119118 -0.3237523
v -0.2498419 0.7160551 -0.3439749
v -0.3968645 0.7598308 -0.2207484
v -0.2034027 0.7591879 -0.1988755
v -0.417476 0.7205343 -0.1576861
v -0.1908502 0.6889496 -0.1522333
v 0.0140289 0.7916912 -0.134687
v -0.09552845 0.7712059 -0.1659423
v -0.09144546 0.8141461 -0.3796298
v -0.009569455 0.8340392 -0.2439182
v -0.1926252 0.8950602 -0.3313322
v -0.225611 0.921312 -0.3015722
v -0.08089969 0.8251503 -0.274732
v -0.2141421 0.9207624 -0.2348811
v -0.1874903 -0.4938907 0.4135496
v -0.1548845 -0.4834508 0.5288669
v -0.03219743 -0.5277326 0.4959937
v -0.0819512 -0.4657696 0.6352777
v -0.08667315 -0.5236172 0.3961564
v -0.133692 -0.03214753 0.9672137
v -0.2512999 -0.05525299 0.8954768
v -0.07679689 0.1167705 0.900467
v -0.07595035 -0.2450672 0.9549646
v -0.1051047 -0.06023507 0.9769219
v -0.07651186 -0.06719821 0.9936033
v -0.07187351 -0.03671865 1.002521
v -0.01155801 -0.07322403 1.055011
f 109 110 112
f 28 138 108
f 112 108 138
f 73 108 110
f 27 111 108
f 113 112 29
f 138 29 112
f 191 113 188
f 291 109 113
f 118 115 114
f 117 114 30
f 116 30 114
f 253 119 115
f 119 121 116
f 148 120 254
f 121 254 120
f 123 124 122
f 126 122 124
f 30 133 117
f 128 117 133
f 31 129 127
f 129 138 28
f 130 137 138
f 130 129 32
f 33 32 129
f 144 32 34
f 131 133 2
f 123 1 135
f 135 35 123
f 74 123 136
f 136 35 36
f 32 144 36
f 149 36 144
f 36 137 130
f 29 138 137
f 42 139 141
f 139 60 6
f 141 6 140
f 144 140 38
f 6 242 38
f 37 38 242
f 302 146 237
f 38 37 40
f 142 39 37
f 40 37 39
f 146 145 39
f 147 136 145
f 254 41 148
f 42 2 148
f 144 40 149
f 131 42 132
f 140 132 42
f 151 41 254
f 154 152 151
f 153 41 152
f 156 157 218
f 155 218 157
f 154 158 157
f 154 156 152
f 152 156 8
f 7 43 158
f 43 259 44
f 45 44 160
f 45 157 158
f 162 161 160
f 162 159 46
f 160 44 162
f 47 163 161
f 164 166 167
f 165 50 166
f 48 164 167
f 168 49 165
f 48 168 164
f 50 165 10
f 49 169 165
f 171 172 193
f 170 193 172
f 51 52 186
f 180 176 175
f 135 178 134
f 175 134 178
f 174 179 172
f 177 170 178
f 179 178 170
f 180 179 174
f 185 181 183
f 241 183 181
f 5 181 53
f 184 185 183
f 185 186 173
f 53 181 187
f 187 185 173
f 189 188 180
f 176 180 188
f 189 51 190
f 186 190 51
f 184 182 190
f 191 190 182
f 53 194 5
f 194 192 126
f 122 126 192
f 171 193 194
f 187 194 53
f 177 192 170
f 193 170 192
f 127 4 195
f 196 195 4
f 197 11 167
f 199 200 198
f 197 198 200
f 167 166 197
f 195 200 127
f 128 127 200
f 205 201 206
f 114 202 118
f 204 50 203
f 199 198 202
f 204 202 198
f 203 50 206
f 10 206 50
f 54 207 3
f 209 3 207
f 209 208 27
f 55 207 48
f 168 48 207
f 210 55 48
f 208 111 27
f 4 111 196
f 210 196 111
f 201 205 211
f 212 211 293
f 56 293 211
f 169 211 205
f 49 54 56
f 3 56 54
f 214 213 57
f 163 213 161
f 217 214 216
f 215 217 216
f 218 155 217
f 213 217 155
f 281 220 219
f 220 216 221
f 221 222 223
f 229 219 223
f 231 221 216
f 226 224 225
f 216 214 226
f 58 228 227
f 59 227 228
f 222 230 223
f 229 230 59
f 225 227 231
f 231 230 222
f 235 234 233
f 143 234 142
f 497 237 236
f 142 234 236
f 142 236 237
f 240 238 239
f 292 61 296
f 61 292 241
f 453 61 252
f 241 252 61
f 243 153 245
f 446 244 62
f 446 100 245
f 8 244 152
f 153 152 244
f 62 244 8
f 63 247 268
f 102 9 247
f 247 248 246
f 247 63 248
f 251 249 250
f 47 248 163
f 249 248 47
f 125 304 124
f 252 124 304
f 239 454 119
f 253 240 239
f 454 64 119
f 64 257 65
f 254 121 65
f 121 119 65
f 256 65 257
f 256 258 7
f 257 255 258
f 65 256 254
f 258 461 66
f 259 43 66
f 261 260 67
f 259 67 44
f 159 44 67
f 264 67 262
f 260 262 67
f 250 249 263
f 264 263 249
f 264 159 67
f 264 46 159
f 8 215 265
f 68 62 8
f 13 68 468
f 267 468 68
f 268 57 63
f 269 289 290
f 289 269 69
f 271 272 273
f 271 273 276
f 279 277 276
f 228 58 279
f 277 58 280
f 224 58 225
f 59 70 229
f 59 228 70
f 278 70 228
f 273 275 283
f 284 482 267
f 282 284 281
f 267 266 284
f 284 282 273
f 9 285 274
f 270 9 274
f 274 285 275
f 9 270 280
f 9 280 268
f 272 286 290
f 286 272 271
f 71 274 69
f 69 269 71
f 275 287 288
f 287 289 288
f 69 288 289
f 274 275 69
f 288 69 275
f 238 212 295
f 212 293 295
f 110 109 72
f 297 296 492
f 296 297 292
f 72 291 297
f 292 297 291
f 299 300 298
f 300 299 295
f 73 300 294
f 295 294 300
f 72 300 73
f 125 301 305
f 302 301 74
f 302 147 146
f 306 302 303
f 15 304 75
f 301 306 305
f 310 309 314
f 312 314 311
f 313 314 309
f 316 340 308
f 316 315 402
f 403 402 315
f 18 455 319
f 321 317 319
f 77 323 322
f 324 323 318
f 326 325 78
f 327 498 328
f 329 328 498
f 79 80 330
f 330 83 16
f 331 333 332
f 80 79 332
f 80 332 333
f 331 310 308
f 84 334 333
f 358 81 334
f 80 81 83
f 78 335 326
f 336 337 338
f 496 354 78
f 334 339 358
f 336 339 337
f 340 338 337
f 356 341 21
f 344 21 341
f 344 436 437
f 342 345 436
f 437 343 344
f 345 352 346
f 345 346 436
f 351 349 350
f 81 358 357
f 357 359 81
f 348 347 353
f 85 356 86
f 347 352 353
f 357 353 352
f 359 82 81
f 357 342 359
f 355 82 356
f 341 356 82
f 362 360 361
f 22 364 361
f 365 361 364
f 362 366 363
f 423 366 422
f 365 422 366
f 367 363 366
f 463 369 374
f 367 371 374
f 423 370 371
f 24 373 370
f 87 376 375
f 383 381 376
f 379 378 377
f 375 378 87
f 382 379 380
f 377 380 379
f 379 382 383
f 88 385 386
f 384 386 385
f 391 387 390
f 387 88 386
f 391 388 389
f 385 88 392
f 389 392 88
f 89 395 393
f 335 338 394
f 395 394 338
f 25 386 396
f 395 89 25
f 398 394 397
f 396 397 394
f 386 384 396
f 442 406 399
f 443 399 400
f 91 400 399
f 399 389 91
f 91 389 388
f 388 400 91
f 90 401 388
f 393 402 89
f 403 401 90
f 92 90 390
f 390 387 92
f 89 92 387
f 328 93 327
f 406 442 93
f 93 328 404
f 325 404 328
f 385 405 384
f 398 397 404
f 405 404 397
f 406 405 392
f 385 392 405
f 79 95 332
f 407 332 95
f 411 20 407
f 330 408 79
f 95 79 408
f 381 410 376
f 94 409 408
f 410 408 409
f 407 381 411
f 320 19 412
f 96 412 19
f 97 412 375
f 378 375 412
f 94 413 409
f 414 409 413
f 414 97 375
f 318 317 413
f 415 309 411
f 20 411 309
f 313 416 17
f 380 416 382
f 415 382 416
f 419 417 418
f 441 418 417
f 19 417 96
f 377 419 380
f 17 416 419
f 380 419 416
f 377 96 417
f 420 370 421
f 420 421 472
f 428 472 421
f 370 423 421
f 425 422 424
f 428 425 429
f 481 480 470
f 427 470 480
f 433 98 426
f 427 480 426
f 427 426 429
f 430 429 426
f 432 430 99
f 432 99 434
f 435 434 99
f 438 437 436
f 437 438 232
f 439 235 233
f 346 351 439
f 236 235 350
f 351 350 235
f 349 497 350
f 497 236 350
f 440 441 238
f 443 61 453
f 443 453 442
f 346 439 444
f 436 346 438
f 445 100 22
f 22 343 445
f 232 445 343
f 364 22 447
f 247 246 448
f 451 452 449
f 102 451 450
f 449 471 451
f 448 451 247
f 103 373 452
f 24 452 373
f 448 251 250
f 319 454 321
f 455 454 319
f 18 323 77
f 457 257 64
f 456 457 77
f 457 456 458
f 456 360 23
f 458 459 255
f 461 255 459
f 459 368 460
f 369 462 460
f 462 12 460
f 461 460 12
f 465 261 12
f 465 463 464
f 462 369 463
f 464 466 262
f 463 372 464
f 466 464 372
f 263 262 466
f 250 466 103
f 13 468 467
f 467 447 101
f 447 470 424
f 471 449 472
f 473 489 104
f 474 106 26
f 483 105 479
f 482 105 483
f 434 474 477
f 432 477 431
f 478 479 434
f 478 435 480
f 435 433 480
f 468 483 469
f 469 483 481
f 479 481 483
f 483 468 14
f 285 102 484
f 450 26 484
f 450 484 102
f 105 485 488
f 450 471 477
f 487 106 489
f 486 476 26
f 473 486 487
f 473 104 488
f 475 105 489
f 105 104 489
f 312 490 76
f 491 493 315
f 107 238 295
f 440 107 311
f 493 492 296
f 492 490 494
f 107 490 311
f 78 325 496
f 329 499 495
f 348 497 349
f 348 354 496
f 501 303 495
f 497 495 303
f 329 498 499
f 495 499 501
f 502 303 501
f 75 500 15
f 500 307 502
f 112 110 108
f 108 73 27
f 3 27 73
f 4 28 111
f 108 111 28
f 112 113 109
f 176 188 29
f 113 29 188
f 113 191 291
f 182 291 191
f 116 114 115
f 201 253 118
f 115 118 253
f 115 119 116
f 120 148 2
f 116 120 30
f 2 30 120
f 116 121 120
f 123 122 1
f 125 124 123
f 5 126 252
f 124 252 126
f 133 127 128
f 127 133 31
f 129 31 33
f 127 129 4
f 138 129 130
f 4 129 28
f 32 33 34
f 132 34 33
f 133 131 31
f 131 132 31
f 132 33 31
f 30 2 133
f 134 35 135
f 137 35 134
f 35 136 123
f 36 149 136
f 137 36 35
f 130 32 36
f 176 29 134
f 137 134 29
f 141 139 6
f 6 38 140
f 143 37 242
f 39 142 146
f 237 146 142
f 37 143 142
f 144 34 140
f 149 145 136
f 146 147 145
f 136 147 74
f 42 41 139
f 41 42 148
f 39 145 40
f 149 40 145
f 40 144 38
f 34 132 140
f 42 131 2
f 42 141 140
f 151 254 150
f 7 154 150
f 151 150 154
f 41 151 152
f 139 41 153
f 158 154 7
f 157 156 154
f 218 8 156
f 45 158 43
f 44 45 43
f 157 45 155
f 160 155 45
f 155 160 161
f 47 161 162
f 44 159 162
f 46 47 162
f 249 47 46
f 198 166 50
f 166 164 165
f 167 11 48
f 168 165 164
f 169 10 165
f 52 174 171
f 172 171 174
f 52 171 173
f 173 186 52
f 174 51 180
f 51 174 52
f 175 176 134
f 178 135 177
f 1 177 135
f 172 179 170
f 178 179 175
f 180 175 179
f 181 5 241
f 184 183 182
f 186 185 184
f 173 171 187
f 181 185 187
f 188 189 191
f 51 189 180
f 184 190 186
f 190 191 189
f 194 126 5
f 187 171 194
f 192 194 193
f 192 177 122
f 1 122 177
f 195 196 197
f 11 197 196
f 166 198 197
f 200 195 197
f 200 199 128
f 117 128 199
f 118 206 201
f 118 203 206
f 199 202 117
f 114 117 202
f 203 118 202
f 50 204 198
f 202 204 203
f 205 206 10
f 27 3 209
f 208 209 55
f 207 55 209
f 54 168 207
f 196 210 11
f 48 11 210
f 55 210 208
f 111 208 210
f 211 212 201
f 205 10 169
f 211 169 56
f 49 56 169
f 54 49 168
f 56 3 293
f 213 163 57
f 217 213 214
f 224 214 57
f 8 218 215
f 218 217 215
f 161 213 155
f 220 281 265
f 216 220 215
f 265 215 220
f 223 220 221
f 220 223 219
f 216 226 231
f 226 214 224
f 221 231 222
f 225 231 226
f 227 225 58
f 223 230 229
f 227 59 230
f 230 231 227
f 242 6 60
f 60 139 243
f 143 233 234
f 234 235 236
f 212 238 240
f 212 240 201
f 241 292 183
f 182 183 292
f 252 241 5
f 233 242 444
f 242 233 143
f 245 100 243
f 445 243 100
f 232 60 445
f 243 445 60
f 153 243 139
f 62 13 446
f 244 446 245
f 245 153 244
f 268 247 9
f 163 248 63
f 246 249 251
f 249 246 248
f 498 252 304
f 453 252 498
f 239 119 253
f 240 253 201
f 64 65 119
f 258 256 257
f 256 7 150
f 150 254 256
f 461 258 255
f 7 258 66
f 461 12 66
f 66 43 7
f 259 66 261
f 12 261 66
f 67 259 261
f 264 262 263
f 46 264 249
f 68 13 62
f 8 265 68
f 266 265 281
f 68 265 266
f 468 267 14
f 267 68 266
f 163 63 57
f 268 224 57
f 287 275 273
f 271 276 277
f 278 279 276
f 58 224 280
f 279 58 277
f 219 70 281
f 282 281 70
f 229 70 219
f 279 278 228
f 278 276 282
f 278 282 70
f 284 273 283
f 284 283 482
f 482 14 267
f 284 266 281
f 276 273 282
f 285 9 102
f 485 283 275
f 285 485 275
f 271 277 270
f 280 270 277
f 224 268 280
f 71 286 270
f 71 269 286
f 269 290 286
f 271 270 286
f 274 71 270
f 272 287 273
f 272 290 287
f 289 287 290
f 182 292 291
f 72 109 291
f 294 293 3
f 294 295 293
f 3 73 294
f 73 110 72
f 297 492 298
f 297 298 72
f 300 72 298
f 123 74 301
f 123 301 125
f 74 147 302
f 302 306 301
f 237 303 302
f 237 497 303
f 75 304 305
f 125 305 304
f 306 307 305
f 306 303 502
f 305 307 75
f 306 502 307
f 308 310 312
f 20 309 310
f 314 312 310
f 314 313 311
f 17 311 313
f 76 316 312
f 308 312 316
f 401 403 315
f 315 316 76
f 393 340 402
f 316 402 340
f 323 18 318
f 319 318 18
f 19 320 321
f 317 321 320
f 318 319 317
f 322 324 85
f 318 16 324
f 323 324 322
f 329 325 328
f 83 330 80
f 20 331 332
f 308 84 331
f 20 310 331
f 333 331 84
f 334 81 333
f 82 355 83
f 16 83 324
f 355 324 83
f 81 80 333
f 82 83 81
f 78 336 335
f 338 335 336
f 336 78 339
f 354 339 78
f 339 334 337
f 84 337 334
f 308 340 84
f 393 338 340
f 337 84 340
f 341 342 344
f 436 344 342
f 344 343 21
f 357 352 345
f 349 347 348
f 349 351 347
f 352 347 346
f 351 346 347
f 339 354 353
f 348 353 354
f 85 324 356
f 324 355 356
f 356 21 86
f 353 357 358
f 353 358 339
f 82 359 341
f 345 342 357
f 342 341 359
f 322 85 360
f 86 22 361
f 86 361 85
f 360 362 23
f 85 361 360
f 363 23 362
f 422 365 364
f 361 365 362
f 366 362 365
f 23 363 368
f 367 368 363
f 371 367 423
f 366 423 367
f 374 369 367
f 369 368 367
f 373 371 370
f 370 420 24
f 103 372 373
f 372 463 374
f 372 374 373
f 371 373 374
f 409 375 376
f 376 87 383
f 378 379 87
f 381 383 411
f 382 411 383
f 87 379 383
f 386 25 387
f 387 391 88
f 388 391 390
f 389 88 391
f 395 338 393
f 394 395 396
f 25 396 395
f 384 397 396
f 394 398 335
f 326 335 398
f 399 443 442
f 389 399 392
f 90 388 390
f 388 401 400
f 92 89 402
f 402 403 92
f 90 92 403
f 387 25 89
f 93 442 327
f 404 325 398
f 326 398 325
f 384 405 397
f 404 405 93
f 399 406 392
f 406 93 405
f 407 20 332
f 408 330 94
f 16 94 330
f 376 410 409
f 408 410 95
f 95 410 407
f 381 407 410
f 317 320 97
f 412 97 320
f 96 378 412
f 375 409 414
f 413 97 414
f 94 16 413
f 318 413 16
f 97 413 317
f 309 415 313
f 382 415 411
f 416 313 415
f 417 19 441
f 419 418 17
f 96 377 378
f 417 419 377
f 425 428 421
f 421 423 425
f 422 425 423
f 364 424 422
f 429 425 424
f 431 472 428
f 426 480 433
f 98 430 426
f 429 424 427
f 429 430 428
f 428 430 431
f 432 431 430
f 98 99 430
f 99 98 435
f 433 435 98
f 232 343 437
f 242 60 438
f 232 438 60
f 235 439 351
f 441 440 418
f 17 418 440
f 321 441 19
f 441 321 238
f 239 238 321
f 443 400 296
f 401 296 400
f 61 443 296
f 438 444 242
f 438 346 444
f 444 439 233
f 343 22 21
f 86 21 22
f 101 446 13
f 100 446 101
f 447 22 101
f 100 101 22
f 24 449 452
f 452 451 448
f 471 450 451
f 451 102 247
f 452 250 103
f 250 452 448
f 246 251 448
f 453 327 442
f 327 453 498
f 454 239 321
f 455 64 454
f 457 64 455
f 455 18 457
f 77 457 18
f 77 322 456
f 458 255 457
f 257 457 255
f 360 456 322
f 458 23 459
f 23 458 456
f 459 460 461
f 23 368 459
f 460 368 369
f 12 462 465
f 463 465 462
f 464 260 465
f 261 465 260
f 260 464 262
f 372 103 466
f 466 250 263
f 101 13 467
f 470 469 481
f 467 468 469
f 470 427 424
f 467 469 470
f 424 364 447
f 447 467 470
f 24 420 449
f 472 449 420
f 471 472 431
f 473 487 489
f 475 106 474
f 475 479 105
f 479 475 474
f 434 477 432
f 435 478 434
f 479 474 434
f 478 480 479
f 479 480 481
f 283 485 482
f 483 14 482
f 476 484 26
f 488 484 476
f 285 484 485
f 485 484 488
f 485 105 482
f 431 477 471
f 26 450 477
f 474 26 477
f 486 26 106
f 475 489 106
f 486 106 487
f 486 488 476
f 488 486 473
f 104 105 488
f 491 76 490
f 401 315 493
f 315 76 491
f 493 296 401
f 311 17 440
f 238 107 440
f 312 311 490
f 491 492 493
f 490 492 491
f 298 492 494
f 298 494 299
f 299 494 107
f 107 494 490
f 295 299 107
f 329 495 496
f 329 496 325
f 348 496 495
f 348 495 497
f 498 304 15
f 498 15 499
f 502 501 500
f 500 501 499
f 500 499 15
f 307 500 75
