# Spot (Keenan Crane)
# quadric edge-collapse decimation to 2000 triangles, 1002 vertices
v 0.3120899 -0.3695998 0.8779082
v 0.3356094 -0.3851178 0.42544
v 0.3093122 0.02346972 -0.008900252
v 0.149341 -0.451522 0.166423
v 0.114009 -0.358339 -0.0759521
v 0.101546 -0.475382 0.663157
v 0.358602 -0.37797 0.17897
v 0.3362077 -0.220451 0.7430236
v 0.316102 -0.419396 0.649153
v 0.09033213 -0.4083063 0.8980195
v 0.1598128 0.2809938 0.3174929
v 0.1434142 0.1058936 0.8702716
v 0.3461972 -0.05345251 0.6426782
v 0.1846668 0.1771877 -0.2503741
v 0.2238606 0.426964 -0.03313142
v 0.1767982 0.7357138 -0.4396749
v 0.1767303 -0.6681669 -0.07699893
v 0.1494034 -0.6933866 0.7015169
v 0.310744 -0.658159 0.12474
v 0.264169 0.646946 -0.369897
v 0.1789365 0.694602 -0.1525525
v 0.2549435 0.5557551 -0.1286794
v 0 0.09896481 -0.4465148
v 0.009572679 0.8287333 -0.3608382
v 0 0.499175 0.0586613
v 0.0002156154 0.7401694 -0.07334607
v 0.09991759 0.3005347 0.3124226
v -0.04222729 -0.07668444 0.9929007
v -0.3446923 -0.2905097 -0.08115373
v -0.149341 -0.451522 0.166423
v -0.1216342 -0.1544335 -0.1888135
v -0.114009 -0.358339 -0.0759521
v -0.101546 -0.475382 0.663157
v -0.2368356 -0.4377982 0.4224959
v -0.358602 -0.37797 0.17897
v -0.316102 -0.419396 0.649153
v -0.1957536 0.2717737 0.1021245
v -0.158786 0.0751889 -0.141343
v -0.1004657 0.2097148 0.6873043
v -0.2269103 0.134151 0.6711873
v -0.3779896 -0.05078519 0.2107141
v -0.1475515 0.3282321 -0.005170052
v -0.1685706 0.1769727 -0.2130594
v -0.3220833 0.3242753 -0.3332264
v -0.2582276 0.4627562 -0.5344737
v -0.294738 -0.6558122 0.722279
v -0.264169 0.646946 -0.369897
v -0.2549435 0.5557551 -0.1286794
v -0.3660075 0.5953855 -0.2095101
v -0.09565969 0.8180984 -0.2252017
v -0.1557185 0.7982574 -0.3389013
v 0.2261582 -0.4334079 0.3224032
v 0.262599 -0.446574 0.214165
v 0.3495341 -0.3638205 0.2503585
v 0.315996 -0.3941869 0.5844569
v 0.218649 -0.474853 0.619945
v 0.2084997 -0.09126611 -0.1526689
v 0.321351 -0.1575644 -0.0766499
v 0.3074052 -0.04376769 -0.05594362
v 0.1170155 -0.01477682 -0.1883032
v 0.2609277 -0.04736461 -0.1077396
v 0.211816 -0.394732 0.922409
v 0.2170743 -0.2466903 0.919306
v 0.3639466 -0.1014945 0.05145838
v 0.385194 -0.351205 0.0306159
v 0.3799151 -0.1681343 0.3540742
v 0.3884228 -0.1273844 0.2181808
v 0.3786303 -0.06906716 0.2860155
v 0.3447179 -0.2883289 0.6475238
v 0.326487 -0.2511171 0.7983773
v 0.3588388 -0.1555135 0.587751
v 0.2409869 0.2373646 0.173438
v 0.1956902 0.1802175 0.4665081
v 0.1963093 0.2261903 0.3696561
v 0.2228348 0.1317246 0.7093259
v 0.2489316 0.1177245 0.560312
v 0.1901658 0.1704142 0.5580002
v 0.1858131 0.1913805 -0.03343283
v 0.3079331 0.09534785 0.08766445
v 0.2587385 0.1136277 0.0002516928
v 0.1520577 0.1600642 -0.1832592
v 0.1817451 0.2475262 -0.1029279
v 0.172619 0.221245 -0.0722104
v 0.294876 0.383503 -0.203773
v 0.1827676 0.1261664 -0.388367
v 0.2552888 0.1508385 -0.4929822
v 0.2976715 0.1951829 -0.4472799
v 0.2581215 0.2921137 -0.6365541
v 0.2491021 0.3722431 -0.6152001
v 0.314593 0.32071 -0.563292
v 0.338046 -0.680095 0.0309463
v 0.228165 -0.692422 0.147407
v 0.12828 -0.689708 0.0245746
v 0.238161 -0.677382 -0.0918856
v 0.229681 -0.733842 0.0266899
v 0.20056 -0.687393 0.898863
v 0.199176 -0.699686 0.68654
v 0.198244 -0.736784 0.793448
v 0.0593616 -0.458076 0.795932
v 0.102733 -0.558625 0.896274
v 0.3324805 -0.5923132 0.1441127
v 0.24402 -0.524662 -0.124285
v 0.1429061 -0.6140138 0.1361373
v 0.2330361 -0.6302582 0.1786931
v 0.0964942 -0.434904 0.0342915
v 0.1006217 -0.5570031 0.03187568
v 0.26611 0.5889301 -0.4106846
v 0.2852823 0.5715567 -0.2366185
v 0.2833065 0.5244617 -0.2631833
v 0.2306184 0.5866152 -0.1071186
v 0.346675 0.5856894 -0.1991653
v 0.422878 0.632073 -0.168661
v 0.3504234 0.699693 -0.1506336
v 0.2871133 0.594339 -0.136314
v 0.4096346 0.7226634 -0.3003003
v 0.460287 0.727236 -0.177367
v 0.03390625 0.3168066 0.2500253
v 0.1150636 0.3122324 0.2528754
v 0.0246007 -0.3420101 0.8906186
v 0.02340545 -0.3820531 0.8369372
v 0.09527812 0.4938135 0.04571585
v 0.2267971 0.5830343 -0.4983978
v 0.1330596 0.4882769 -0.5655845
v 0.007353801 -0.2695543 -0.1539772
v -0.01182541 -0.1073873 -0.2203733
v 0.05584763 0.04640064 -0.2303911
v 0.08969101 0.104957 -0.3965928
v 0.1546658 0.1707997 -0.5976622
v 0.1745275 0.1252429 -0.5149267
v 0.05944979 0.2603012 -0.6615341
v 0.1252848 0.56246 -0.0012963
v 0.165805 0.9429894 -0.2931303
v 0.2176126 0.9426444 -0.283003
v 0.1347121 0.8059504 -0.3339497
v 0.3669929 0.7405135 -0.3009526
v 0.4012032 0.7367494 -0.1741414
v 0.117166 0.7647941 -0.1721208
v 0.192398 0.8684151 -0.3318683
v 0.2012131 -0.4786012 0.4188671
v 0.1822153 -0.4832194 0.4851035
v 0.08663086 -0.4651343 0.6335765
v 0.1799465 -0.4451041 0.2686944
v 0.2076972 -0.001600658 0.9067679
v -0.00477883 -0.07297701 1.003527
v -0.262599 -0.446574 0.214165
v -0.218649 -0.474853 0.619945
v -0.2470877 -0.4323544 0.5321978
v -0.229478 -0.212011 -0.133147
v -0.09784897 -0.03103255 -0.200967
v -0.211816 -0.394732 0.922409
v -0.2863798 -0.2139593 0.8659501
v -0.385194 -0.351205 0.0306159
v -0.3791522 -0.2496142 0.03558251
v -0.3756436 -0.279184 0.3438246
v -0.3786303 -0.06906716 0.2860155
v -0.343446 0.01490055 0.07369941
v -0.3639466 -0.1014945 0.05145838
v -0.3290159 -0.0556563 0.7539
v -0.3340598 -0.1004791 0.7583979
v -0.354807 -0.3193634 0.4897501
v -0.2029826 0.1974534 0.4117871
v -0.1745768 0.2046462 -0.05033994
v -0.1472219 0.2915451 0.009817206
v -0.1424986 0.1382771 -0.1857108
v -0.294876 0.383503 -0.203773
v -0.2797018 0.2173396 -0.346645
v -0.3300532 0.2514861 -0.4827273
v -0.238161 -0.677382 -0.0918856
v -0.12828 -0.689708 0.0245746
v -0.228165 -0.692422 0.147407
v -0.338046 -0.680095 0.0309463
v -0.229681 -0.733842 0.0266899
v -0.199176 -0.699686 0.68654
v -0.1066935 -0.6939394 0.8154783
v -0.20056 -0.687393 0.898863
v -0.198244 -0.736784 0.793448
v -0.2877383 -0.613111 0.6857023
v -0.102733 -0.558625 0.896274
v -0.1157926 -0.6337852 0.6986137
v -0.0593616 -0.458076 0.795932
v -0.07752295 -0.6265299 0.7983691
v -0.1996863 -0.6444528 0.6576459
v -0.2089699 -0.5408267 0.9312824
v -0.3558961 -0.4946473 -0.08885935
v -0.339121 -0.546516 0.150832
v -0.3862051 -0.5090298 0.02648873
v -0.1362666 -0.5817741 -0.0755462
v -0.24402 -0.524662 -0.124285
v -0.0964942 -0.434904 0.0342915
v -0.282894 0.56989 -0.257283
v -0.4178967 0.625605 -0.1730846
v -0.2079294 0.6187931 -0.1126821
v -0.460287 0.727236 -0.177367
v -0.4533356 0.7012855 -0.2490857
v -0.02914916 0.2171101 0.7317382
v -0.06310106 0.1273568 0.8865064
v -0.02368097 -0.4398952 0.09217822
v -0.08992895 0.3484802 0.02674668
v -0.1147117 0.4351328 0.04054125
v -0.04106216 0.7671711 -0.4469633
v -0.180672 0.3455494 -0.6556802
v -0.1112171 0.3806026 -0.6457538
v -0.1000546 0.1065237 -0.2186852
v -0.1210214 0.106362 -0.4682892
v -0.153665 0.185489 -0.611191
v -0.08818518 0.6703837 -0.06723151
v -0.2407446 0.671711 -0.4247782
v -0.1981516 0.9385341 -0.239586
v -0.1483763 0.9430629 -0.2517865
v -0.1392713 0.8044171 -0.21539
v -0.31875 0.7479711 -0.2935917
v -0.1843961 0.7575706 -0.1911173
v -0.06633694 0.8157103 -0.3762762
v -0.2131097 0.8269876 -0.2833336
v -0.1792203 0.9001436 -0.2229101
v -0.07726083 -0.4649491 0.2350297
v -0.1065406 -0.1066592 0.9710632
v -0.187998 -0.1750337 0.9373291
v -0.2064216 0.03614329 0.8833832
v -0.04620481 0.07908042 0.9315879
v 0.3172094 -0.392828 0.2598649
v 0.2382232 -0.437041 0.4146097
v 0.2798227 -0.4207428 0.4332187
v 0.2793594 -0.4128642 0.3127763
v 0.2099 -0.457622 0.202318
v 0.2667915 -0.4218958 0.2534534
v 0.194817 -0.437402 0.239358
v 0.312495 -0.42258 0.208415
v 0.2835726 -0.4201091 0.5775182
v 0.313341 -0.4045549 0.4245186
v 0.26979 -0.455493 0.624003
v 0.2470877 -0.4323544 0.5321978
v 0.164011 -0.483033 0.631406
v 0.2284907 -0.4462027 0.583264
v 0.2953681 -0.285201 -0.1100446
v 0.2115004 -0.2692644 -0.1263173
v 0.2796058 -0.1658294 -0.1133654
v 0.3446923 -0.2905097 -0.08115373
v 0.119478 -0.295776 -0.113872
v 0.1996654 -0.2173156 -0.1417554
v 0.176383 -0.34915 -0.10631
v 0.1033135 -0.1542089 -0.19568
v 0.2653812 -0.008457123 -0.08678371
v 0.1680639 -0.1327244 -0.1725154
v 0.1645822 0.01842903 -0.1522728
v 0.1999527 -0.3340104 0.9230304
v 0.26887 -0.396352 0.909752
v 0.2576088 -0.2600401 0.899508
v 0.2863798 -0.2139593 0.8659501
v 0.1468665 -0.2821241 0.9335189
v 0.1544595 -0.2058213 0.9460531
v 0.149733 -0.3934 0.920339
v 0.104904 -0.328487 0.922781
v 0.3500573 -0.1481672 -0.02084977
v 0.3791522 -0.2496142 0.03558251
v 0.3735158 -0.309922 -0.0328796
v 0.3841982 -0.251556 0.2024717
v 0.3802709 -0.1695477 0.1137725
v 0.379176 -0.364086 0.102343
v 0.3822523 -0.2735778 0.09556406
v 0.3742409 -0.3161022 0.1812897
v 0.3756436 -0.279184 0.3438246
v 0.3651175 -0.1097287 0.4550303
v 0.3779896 -0.05078519 0.2107141
v 0.3448667 -0.004354627 0.05086178
v 0.3756858 -0.05355615 0.1337965
v 0.338768 -0.05180502 -0.001232411
v 0.3429798 -0.3805695 0.7766754
v 0.3347599 -0.36754 0.8342475
v 0.334716 -0.360298 0.654176
v 0.3409637 -0.3183987 0.7175494
v 0.335933 -0.414813 0.716014
v 0.2822902 -0.07073271 0.860579
v 0.3134463 -0.05613012 0.8007692
v 0.3114495 -0.1180389 0.8174047
v 0.3365555 -0.08434031 0.7485512
v 0.3483266 -0.0324636 0.4490051
v 0.3538455 -0.1043915 0.6460495
v 0.3655689 -0.250653 0.46379
v 0.354807 -0.3193634 0.4897501
v 0.3365633 -0.3589742 0.567711
v 0.3515617 -0.3555242 0.4225803
v 0.3514858 -0.2886095 0.5753149
v 0.2757866 0.1711257 0.1278423
v 0.1924063 0.2878803 0.1743469
v 0.1957536 0.2717737 0.1021245
v 0.2066892 0.2633394 0.275354
v 0.1609366 0.3045413 0.2251898
v 0.2633497 0.1598705 0.3225939
v 0.2616462 0.2036009 0.1991988
v 0.2415121 0.141499 0.4425214
v 0.2143005 0.1079495 0.795003
v 0.1416888 0.1881311 0.7176197
v 0.1488529 0.1458227 0.8146274
v 0.1444914 0.2025914 0.5030048
v 0.3493823 0.01968799 0.2604221
v 0.305416 0.05409846 0.4513683
v 0.3127833 0.01753654 0.6981931
v 0.295141 0.02380398 0.7605973
v 0.2234297 0.06982274 0.837634
v 0.2611256 0.01186657 0.84707
v 0.1818244 0.1193045 -0.09286135
v 0.2219534 0.09893889 -0.06011482
v 0.2448525 0.1888917 0.06764381
v 0.3174394 0.02412532 0.6087122
v 0.3399254 0.04733579 0.1790007
v 0.3087082 0.1031636 0.2550546
v 0.149034 0.119255 -0.152767
v 0.168725 0.158519 -0.103729
v 0.168374 0.1911897 -0.1351985
v 0.1521864 0.3115509 -0.01658175
v 0.1713122 0.2810314 -0.05314936
v 0.1524014 0.2879063 0.02549237
v 0.1714485 0.2479393 -0.003549712
v 0.2507668 0.2971469 -0.1719607
v 0.2071524 0.2341816 -0.1791061
v 0.3220833 0.3242753 -0.3332264
v 0.2603235 0.3678918 -0.1222803
v 0.3016564 0.2894129 -0.2950497
v 0.2189556 0.3385642 -0.08026029
v 0.2395219 0.1494187 -0.4137537
v 0.2797018 0.2173396 -0.346645
v 0.2342384 0.1966517 -0.294052
v 0.2708538 0.189155 -0.5658707
v 0.3032591 0.2046841 -0.5329231
v 0.3300532 0.2514861 -0.4827273
v 0.31171 0.235804 -0.406418
v 0.32675 0.280027 -0.535933
v 0.3226747 0.3598388 -0.4958147
v 0.3341437 0.3200915 -0.45912
v 0.272516 0.239582 -0.609537
v 0.2884806 0.310063 -0.6118951
v 0.307295 0.256707 -0.578835
v 0.295245 0.436762 -0.484187
v 0.2579447 0.4632699 -0.5345679
v 0.2926173 0.3710651 -0.5709063
v 0.335047 -0.66747 -0.026194
v 0.288313 -0.71953 0.0292002
v 0.233667 -0.718383 -0.0394682
v 0.288912 -0.666279 -0.0831981
v 0.288523 -0.704927 -0.0329901
v 0.276152 -0.679477 0.14116
v 0.227442 -0.724741 0.0933852
v 0.327044 -0.674066 0.0872825
v 0.281161 -0.710704 0.0910758
v 0.1286824 -0.6757821 0.08004952
v 0.172796 -0.723594 0.0247169
v 0.1740917 -0.685692 0.1313345
v 0.176191 -0.716151 0.0857864
v 0.136552 -0.67511 -0.0280042
v 0.179633 -0.708233 -0.0350267
v 0.2563211 -0.6733401 0.886918
v 0.198896 -0.723335 0.85193
v 0.248642 -0.724519 0.790895
v 0.288217 -0.679435 0.838379
v 0.246831 -0.711912 0.845432
v 0.1069844 -0.694274 0.8177473
v 0.148661 -0.727347 0.795626
v 0.1435395 -0.6963213 0.8731319
v 0.198408 -0.728532 0.734591
v 0.153047 -0.720555 0.741401
v 0.2909428 -0.6897595 0.7689341
v 0.24088 -0.688682 0.691628
v 0.244434 -0.716483 0.736358
v 0.339182 -0.5401607 0.7854058
v 0.30391 -0.498066 0.668956
v 0.3265995 -0.5455004 0.7248874
v 0.3116778 -0.5254358 0.8909813
v 0.3350634 -0.5329935 0.8426861
v 0.319732 -0.633454 0.786428
v 0.294197 -0.618974 0.884469
v 0.315639 -0.625673 0.839496
v 0.2877383 -0.613111 0.6857023
v 0.294738 -0.6558122 0.722279
v 0.07735891 -0.5643008 0.8527627
v 0.106684 -0.534636 0.682874
v 0.069956 -0.47422 0.735292
v 0.08288022 -0.5863175 0.7391728
v 0.07752295 -0.6265299 0.7983691
v 0.1157926 -0.6337852 0.6986137
v 0.1073732 -0.6837926 0.7480818
v 0.09669394 -0.6303858 0.8684862
v 0.208287 -0.52835 0.637223
v 0.260651 -0.513618 0.642398
v 0.1996863 -0.6444528 0.6576459
v 0.2451956 -0.6317306 0.6622623
v 0.1561171 -0.6414163 0.6688256
v 0.153645 -0.534978 0.650489
v 0.2089699 -0.5408267 0.9312824
v 0.1494963 -0.540883 0.9238658
v 0.203436 -0.628169 0.923071
v 0.153584 -0.625261 0.914716
v 0.253551 -0.622939 0.912658
v 0.2648541 -0.5352626 0.9207875
v 0.348561 -0.464054 0.158716
v 0.3862051 -0.5090298 0.02648873
v 0.3731716 -0.5164522 0.09618146
v 0.368236 -0.614976 0.0306267
v 0.354786 -0.614851 0.0904298
v 0.3392549 -0.6043925 -0.07840967
v 0.364087 -0.605614 -0.0296813
v 0.3558961 -0.4946473 -0.08885935
v 0.3811312 -0.4995823 -0.03751072
v 0.2392975 -0.3413657 -0.1179454
v 0.12704 -0.448099 -0.0735785
v 0.179139 -0.436248 -0.106528
v 0.3067938 -0.5042563 -0.1180475
v 0.241923 -0.609859 -0.117359
v 0.296601 -0.602967 -0.109127
v 0.1362666 -0.5817741 -0.0755462
v 0.1846324 -0.589051 -0.1081288
v 0.148115 -0.512563 0.149929
v 0.1849301 -0.6271753 0.1664957
v 0.25113 -0.502745 0.197094
v 0.196177 -0.511769 0.183546
v 0.284725 -0.6140315 0.1724465
v 0.304357 -0.484216 0.189956
v 0.1059632 -0.536321 -0.02745333
v 0.0953701 -0.405611 -0.0214782
v 0.106751 -0.633108 0.0275567
v 0.114552 -0.619641 -0.0267392
v 0.112515 -0.451919 0.0935688
v 0.1145835 -0.5710823 0.09365164
v 0.271184 0.525759 -0.460079
v 0.2790075 0.550701 -0.3472093
v 0.291391 0.478507 -0.418527
v 0.278055 0.600765 -0.320108
v 0.2689393 0.5201434 -0.1728448
v 0.2765892 0.5603222 -0.1669943
v 0.298509 0.427522 -0.236282
v 0.2370722 0.5013492 -0.07644278
v 0.2709234 0.4227443 -0.1237743
v 0.3219061 0.3823513 -0.3603067
v 0.326452 0.645309 -0.138504
v 0.2646849 0.6236035 -0.1297495
v 0.3617284 0.5966681 -0.1699239
v 0.3976724 0.6100968 -0.1948026
v 0.380321 0.61857 -0.152413
v 0.4219958 0.6565211 -0.1495612
v 0.28588 0.662049 -0.349089
v 0.3631025 0.6322098 -0.2929723
v 0.2948908 0.6075533 -0.2936304
v 0.3587485 0.6735704 -0.3279727
v 0.337287 0.5921162 -0.2372656
v 0.4533356 0.7012855 -0.2490857
v 0.4179456 0.67335 -0.2802283
v 0.4494253 0.7494292 -0.2265809
v 0.4712993 0.7208659 -0.212148
v 0.447289 0.655956 -0.196803
v 0.4318416 0.6987973 -0.1517147
v 0.460337 0.681448 -0.17325
v 0.4008276 0.623417 -0.237211
v -0.05612829 0.321852 0.2175864
v 0.07669329 0.3231599 0.1544267
v 0.02108084 0.2306689 0.5087547
v 0.05400757 0.2205007 0.6887049
v -0.01841056 0.2260714 0.6509815
v 0.09367721 0.2263734 0.4827823
v 0.1191712 0.2075913 0.585678
v 0.03368244 0.1848065 0.8128651
v 0.06972781 0.2015433 0.7590657
v 0.06310106 0.1273568 0.8865064
v -1.193584e-16 0.1439698 0.8770794
v 0.07476592 0.1650811 0.8349513
v 0.002514069 -0.409975 0.004770611
v 0.01373219 -0.3261736 -0.09804812
v 0.0729358 -0.3740534 -0.02758291
v 0.08279529 -0.4180845 0.04933769
v 0.02862135 -0.4217585 0.7601322
v 0.04724763 -0.4288693 0.7860056
v 0.0576974 -0.360469 0.893822
v 0.05797966 -0.4098657 0.849869
v 0.02738257 0.2505192 0.4353579
v 0.1065851 0.2758904 0.3643556
v 0.1353553 0.2283222 0.444025
v 0.07057888 0.3255195 0.07234235
v 0.0705903 0.3341713 0.04423216
v 0.1197138 0.3155949 0.02860501
v 0.1300926 0.3082326 0.08667302
v 0.1147117 0.4351328 0.04054125
v 0.05758612 0.4412806 0.05513009
v 0.07507415 0.351191 0.03187718
v 0.1667003 0.4213435 0.0133107
v 0.1279673 0.3378887 0.008806239
v 0.1047074 0.5938399 -0.5218668
v 0.04565304 0.5141124 -0.5585157
v 0.07369959 0.7605666 -0.4467734
v 0.04358713 0.7103865 -0.4788444
v 0.2273414 0.6588985 -0.4653383
v 0.1692337 0.6766199 -0.477188
v 0.199339 0.4990579 -0.5443867
v 0.1399459 0.3579464 -0.657152
v 0 0.3421676 -0.6657002
v 0.07432054 0.3801685 -0.6465685
v 0.0548644 0.4548026 -0.5939139
v 0.199873 0.404748 -0.612935
v 0.1942447 0.3505021 -0.6498191
v 0.01571665 -0.2051982 0.9698525
v 0.06578096 -0.3055791 0.9288958
v 0.1121709 -0.2591005 -0.1414294
v 0.07464056 -0.1995288 -0.1899937
v 0.0796433 -0.304819 -0.108871
v 0.05021472 -0.02977387 -0.223565
v -0.0002954463 0.03201639 -0.2395835
v 0.1474304 0.06023439 -0.1584132
v 0.001603641 0.09520713 -0.2587733
v 0.09563703 0.1038677 -0.2218518
v 0.04047346 0.09495826 -0.2511268
v -0.02478432 0.1175558 -0.2901027
v 0.04632743 0.122203 -0.2902185
v 0.1119065 0.1300669 -0.2345907
v 0.124521 0.1395527 -0.2806124
v 0.195376 0.1215408 -0.4558073
v 0.0532169 0.1259608 -0.5383915
v 0.1210214 0.106362 -0.4682892
v 1.264083e-16 0.1070097 -0.4914969
v 0.06089296 0.1820091 -0.6155931
v 0.05811091 0.1506828 -0.579826
v 0.2205931 0.1760659 -0.5842136
v 0.06101157 0.2194488 -0.6434442
v 0.1561803 0.2444937 -0.6509866
v 0.1135907 0.3026736 -0.668301
v 0.2097669 0.2845083 -0.6538278
v 0.21995 0.228648 -0.628685
v 0.06945326 0.5747465 0.01911199
v 0.002041312 0.5695937 0.03485202
v 0.1827021 0.4784952 0.002418584
v 0.197978 0.5721066 -0.06939038
v 0.126096 0.69557 -0.127071
v 0.0987466 0.656786 -0.062447
v 0.1829941 0.6488274 -0.1233839
v 0 0.672219 -0.0228265
v 0.04377254 0.6995231 -0.05652048
v 0.2541448 0.5962627 -0.4662923
v 0.2096899 0.7249346 -0.4208194
v 0.2407446 0.671711 -0.4247782
v 0.2102333 0.9125715 -0.3161434
v 0.1649593 0.9534854 -0.2555044
v 0.1686149 0.7926728 -0.3347515
v 0.1864081 0.7777157 -0.3102367
v 0.1990329 0.7725976 -0.2642827
v 0.1953997 0.7862217 -0.2371662
v 0.1480223 0.8162506 -0.2173442
v 0.1469604 0.7921274 -0.2060846
v 0.1081129 0.8142591 -0.218666
v 0.08924738 0.820939 -0.289065
v 0.08693314 0.8208514 -0.2332203
v 0.2401634 0.761688 -0.2349435
v 0.206363 0.7640775 -0.2172821
v 0.2892212 0.7556085 -0.2706126
v 0.2501302 0.7336906 -0.3156787
v 0.3769326 0.7613054 -0.2197
v 0.3896687 0.7602623 -0.2550738
v 0.3207986 0.7048595 -0.3347127
v 0.2563315 0.7074153 -0.3499149
v 0.1947209 0.7550727 -0.1915964
v 0.2484582 0.7012284 -0.1590159
v 0.2776916 0.7517131 -0.1920861
v 0.02457434 0.8150957 -0.1887847
v -0.004479157 0.8030085 -0.1586147
v 0.03854998 0.7815428 -0.1366122
v 0.0771688 0.744134 -0.128582
v 0.04858811 0.8295392 -0.3203878
v 0.1171893 0.8054304 -0.3739548
v 0.1774705 0.775529 -0.3804725
v 0.1654208 0.7676498 -0.4113726
v 0.2310106 0.7294384 -0.3505022
v 0.2275981 0.8816046 -0.2854371
v 0.1203831 0.8903789 -0.285944
v 0.1729035 0.901011 -0.324056
v 0.1348713 0.8969468 -0.223217
v 0.1276016 0.9173282 -0.2515982
v 0.1818851 0.9352352 -0.2291648
v 0.212106 0.8986697 -0.2352904
v 0.2138027 0.8621606 -0.2433579
v 0.2101833 -0.4445898 0.5104294
v 0.1475282 -0.4579495 0.5940415
v 0.05650621 -0.4501475 0.6939006
v 0.1334931 -0.4434949 0.194375
v 0.1069043 -0.4403851 0.1336319
v 0.1411645 -0.4509887 0.2429226
v 0.0265689 -0.4481622 0.1487445
v 0.02604396 -0.4627903 0.2108349
v 0.1958429 -0.4727777 0.3692317
v 0.006679302 -0.4713125 0.6394008
v 0.02711714 -0.5333899 0.415506
v 0.01276309 -0.528285 0.4884599
v 0.08735462 -0.5050533 0.5335019
v 0.1322971 -0.5116304 0.4165161
v 0.09623533 -0.5194877 0.4731693
v 0.01985005 -0.5227478 0.360549
v 0.0001445489 -0.4990392 0.2937992
v 0.1034404 -0.4868449 0.3023926
v 0.1210462 -0.5044274 0.3634297
v 0.08622902 -0.08854217 0.9795394
v 0.2321438 -0.1573753 0.9123555
v 0.2355823 -0.0614525 0.905802
v 0.1598954 -0.04696777 0.9554129
v 0.1584004 0.05988111 0.9007665
v 0.1322804 -0.02036073 0.9608426
v 0.001323607 0.01916985 0.9766886
v 0.05191539 0.004795547 0.9788675
v 0.08478527 0.07699725 0.9224473
v 0.03058722 0.09361849 0.9237245
v 0.07039932 -0.2065642 0.9643383
v 0.03115627 -0.07935889 0.991295
v 0.0712711 -0.06869686 0.9889202
v 0.100543 -0.03693599 0.9833455
v -0.006043462 -0.03853168 1.024154
v 0.05315064 -0.0561367 1.026044
v 0.01820232 -0.06579635 1.047243
v 0.0385936 -0.08955798 1.020502
v -0.01076446 -0.09997915 1.033332
v -0.3356094 -0.3851178 0.42544
v -0.312495 -0.42258 0.208415
v -0.3495341 -0.3638205 0.2503585
v -0.3172094 -0.392828 0.2598649
v -0.198533 -0.4367139 0.2435436
v -0.2793594 -0.4128642 0.3127763
v -0.2099 -0.457622 0.202318
v -0.2667915 -0.4218958 0.2534534
v -0.2798227 -0.4207428 0.4332187
v -0.313341 -0.4045549 0.4245186
v -0.2101833 -0.4445898 0.5104294
v -0.164011 -0.483033 0.631406
v -0.236564 -0.444228 0.584476
v -0.1583198 -0.4584343 0.5943594
v -0.3158327 -0.394212 0.5840101
v -0.26979 -0.455493 0.624003
v -0.2835726 -0.4201091 0.5775182
v -0.2115004 -0.2692644 -0.1263173
v -0.2953681 -0.285201 -0.1100446
v -0.321351 -0.1575644 -0.0766499
v -0.2796058 -0.1658294 -0.1133654
v -0.1492364 -0.2397865 -0.1446834
v -0.176383 -0.34915 -0.10631
v -0.119478 -0.295776 -0.113872
v -0.2707084 0.02874299 -0.05800821
v -0.1999785 0.05010044 -0.1119291
v -0.3074764 -0.02678866 -0.04877643
v -0.1687813 0.01715666 -0.1502129
v -0.1979997 -0.1092913 -0.1607639
v -0.2681641 -0.04702044 -0.1007984
v -0.2654217 -0.3269571 0.9042752
v -0.3120899 -0.3695998 0.8779082
v -0.1069612 -0.3180432 0.9259589
v -0.149733 -0.3934 0.920339
v -0.1865547 -0.312708 0.9247428
v -0.2092843 -0.2427845 0.9227073
v -0.2509247 -0.2027007 0.8984943
v -0.3735158 -0.309922 -0.0328796
v -0.3742409 -0.3161022 0.1812897
v -0.3822523 -0.2735778 0.09556406
v -0.379176 -0.364086 0.102343
v -0.3802709 -0.1695477 0.1137725
v -0.3500573 -0.1481672 -0.02084977
v -0.3515617 -0.3555242 0.4225803
v -0.3655689 -0.250653 0.46379
v -0.3841982 -0.251556 0.2024717
v -0.3884228 -0.1273844 0.2181808
v -0.3799151 -0.1681343 0.3540742
v -0.3379805 -0.03368442 0.006040813
v -0.3756858 -0.05355615 0.1337965
v -0.3347599 -0.36754 0.8342475
v -0.3429798 -0.3805695 0.7766754
v -0.3345971 -0.2754406 0.7672622
v -0.3452686 -0.2967032 0.6349032
v -0.3407903 -0.2887298 0.7135016
v -0.335933 -0.414813 0.716014
v -0.3364442 -0.3566664 0.6628268
v -0.3100408 -0.1030791 0.8197231
v -0.3469671 -0.07034605 0.6736043
v -0.3467541 -0.1396342 0.701554
v -0.3321433 -0.2185462 0.7586664
v -0.3536142 -0.1975003 0.6211091
v -0.3116803 -0.2182798 0.8215488
v -0.3651175 -0.1097287 0.4550303
v -0.3577032 -0.1130159 0.5964338
v -0.3365321 -0.3583242 0.5705652
v -0.2737614 0.1803656 0.1558263
v -0.245902 0.2278691 0.2186236
v -0.194044 0.2742295 0.2741245
v -0.173937 0.295795 0.151795
v -0.2152481 0.2689427 0.177598
v -0.2426723 0.1529093 0.4080964
v -0.1345378 0.2166851 0.4712774
v -0.1714582 0.2573943 0.3512298
v -0.197091 0.1771696 0.4739329
v -0.2296643 0.222094 0.3028821
v -0.2790865 0.1333561 0.3230172
v -0.2182639 0.1220309 0.7559589
v -0.2548965 0.05487765 0.809864
v -0.1300643 0.1571547 0.8136967
v -0.1594292 0.1152143 0.8505281
v -0.08718481 0.1990223 0.7566456
v -0.1538151 0.1853403 0.7009025
v -0.2364569 0.1357218 0.5008901
v -0.1610452 0.1894726 0.5455378
v -0.3366776 0.02973018 0.3275444
v -0.3103594 0.01691007 0.7156217
v -0.2909436 -0.02148935 0.8276887
v -0.2349185 0.1636676 0.01719174
v -0.1865181 0.1326511 -0.07769414
v -0.2994044 0.06604719 0.01754307
v -0.2581393 0.1828456 0.08699484
v -0.3011907 0.04549828 0.6486993
v -0.305416 0.05409846 0.4513683
v -0.3483266 -0.0324636 0.4490051
v -0.3432552 -0.0346836 0.6045315
v -0.3483534 0.03004365 0.2144202
v -0.168374 0.1911897 -0.1351985
v -0.1603103 0.1318997 -0.1333473
v -0.1714485 0.2479393 -0.003549712
v -0.1789918 0.2642291 -0.07703385
v -0.2071524 0.2341816 -0.1791061
v -0.2507668 0.2971469 -0.1719607
v -0.2342384 0.1966517 -0.294052
v -0.2189556 0.3385642 -0.08026029
v -0.2709234 0.4227443 -0.1237743
v -0.2238606 0.426964 -0.03313142
v -0.2603235 0.3678918 -0.1222803
v -0.3016564 0.2894129 -0.2950497
v -0.2976715 0.1951829 -0.4472799
v -0.31171 0.235804 -0.406418
v -0.2708538 0.189155 -0.5658707
v -0.2552888 0.1508385 -0.4929822
v -0.3032591 0.2046841 -0.5329231
v -0.2008279 0.140053 -0.3713966
v -0.195376 0.1215408 -0.4558073
v -0.2395219 0.1494187 -0.4137537
v -0.3230216 0.360201 -0.4916757
v -0.3320523 0.2901316 -0.5174655
v -0.295245 0.436762 -0.484187
v -0.295399 0.395443 -0.540067
v -0.246645 0.312827 -0.640337
v -0.2821999 0.2866534 -0.6206025
v -0.2493712 0.3720172 -0.6151388
v -0.2986579 0.3299691 -0.5949684
v -0.272516 0.239582 -0.609537
v -0.307295 0.256707 -0.578835
v -0.288912 -0.666279 -0.0831981
v -0.233667 -0.718383 -0.0394682
v -0.288313 -0.71953 0.0292002
v -0.335047 -0.66747 -0.026194
v -0.288523 -0.704927 -0.0329901
v -0.136552 -0.67511 -0.0280042
v -0.172796 -0.723594 0.0247169
v -0.1767303 -0.6681669 -0.07699893
v -0.179633 -0.708233 -0.0350267
v -0.182766 -0.687312 0.135767
v -0.227442 -0.724741 0.0933852
v -0.176191 -0.716151 0.0857864
v -0.327044 -0.674066 0.0872825
v -0.276152 -0.679477 0.14116
v -0.281161 -0.710704 0.0910758
v -0.288217 -0.679435 0.838379
v -0.248642 -0.724519 0.790895
v -0.198896 -0.723335 0.85193
v -0.2461 -0.678205 0.889508
v -0.246831 -0.711912 0.845432
v -0.24088 -0.688682 0.691628
v -0.198408 -0.728532 0.734591
v -0.290583 -0.6914484 0.7714885
v -0.244434 -0.716483 0.736358
v -0.1073732 -0.6837926 0.7480818
v -0.148661 -0.727347 0.795626
v -0.1494034 -0.6933866 0.7015169
v -0.153047 -0.720555 0.741401
v -0.14787 -0.6779893 0.8898175
v -0.151829 -0.713932 0.849146
v -0.30391 -0.498066 0.668956
v -0.339182 -0.5401607 0.7854058
v -0.3265995 -0.5455004 0.7248874
v -0.319732 -0.633454 0.786428
v -0.2925938 -0.6247168 0.8833655
v -0.315639 -0.625673 0.839496
v -0.3116778 -0.5254358 0.8909813
v -0.3350634 -0.5329935 0.8426861
v -0.0969194 -0.478778 0.897495
v -0.07735891 -0.5643008 0.8527627
v -0.05797966 -0.4098657 0.849869
v -0.09669394 -0.6303858 0.8684862
v -0.069956 -0.47422 0.735292
v -0.106684 -0.534636 0.682874
v -0.08288022 -0.5863175 0.7391728
v -0.208287 -0.52835 0.637223
v -0.2451956 -0.6317306 0.6622623
v -0.260651 -0.513618 0.642398
v -0.1561171 -0.6414163 0.6688256
v -0.153645 -0.534978 0.650489
v -0.1494963 -0.540883 0.9238658
v -0.2648541 -0.5352626 0.9207875
v -0.203436 -0.628169 0.923071
v -0.253551 -0.622939 0.912658
v -0.153584 -0.625261 0.914716
v -0.348561 -0.464054 0.158716
v -0.3731716 -0.5164522 0.09618146
v -0.3811312 -0.4995823 -0.03751072
v -0.368236 -0.614976 0.0306267
v -0.3392549 -0.6043925 -0.07840967
v -0.364087 -0.605614 -0.0296813
v -0.3176952 -0.6378401 0.1360813
v -0.354786 -0.614851 0.0904298
v -0.12704 -0.448099 -0.0735785
v -0.1846324 -0.589051 -0.1081288
v -0.2392975 -0.3413657 -0.1179454
v -0.179139 -0.436248 -0.106528
v -0.241923 -0.609859 -0.117359
v -0.3067938 -0.5042563 -0.1180475
v -0.296601 -0.602967 -0.109127
v -0.25113 -0.502745 0.197094
v -0.1466488 -0.5399415 0.1475601
v -0.1949387 -0.5215042 0.1831728
v -0.304357 -0.484216 0.189956
v -0.2330361 -0.6302582 0.1786931
v -0.284725 -0.6140315 0.1724465
v -0.145237 -0.635178 0.13052
v -0.185474 -0.638484 0.162245
v -0.0953701 -0.405611 -0.0214782
v -0.1006217 -0.5570031 0.03187568
v -0.1059632 -0.536321 -0.02745333
v -0.112515 -0.451919 0.0935688
v -0.1145835 -0.5710823 0.09365164
v -0.106751 -0.633108 0.0275567
v -0.1295842 -0.6760785 0.08112263
v -0.114552 -0.619641 -0.0267392
v -0.271184 0.525759 -0.460079
v -0.3037114 0.4512095 -0.3842095
v -0.298509 0.427522 -0.236282
v -0.3258067 0.3631928 -0.3717408
v -0.2370722 0.5013492 -0.07644278
v -0.277875 0.55689 -0.190965
v -0.2833065 0.5244617 -0.2631833
v -0.2689393 0.5201434 -0.1728448
v -0.26611 0.5889301 -0.4106846
v -0.278055 0.600765 -0.320108
v -0.2790075 0.550701 -0.3472093
v -0.3267796 0.6236789 -0.137805
v -0.2646849 0.6236035 -0.1297495
v -0.430349 0.658277 -0.154382
v -0.3827361 0.6287581 -0.1465361
v -0.367842 0.597467 -0.17194
v -0.239082 0.578957 -0.111996
v -0.2939061 0.5684966 -0.1711625
v -0.2832013 0.5795028 -0.1406716
v -0.2955276 0.5968907 -0.2735935
v -0.294318 0.572729 -0.209871
v -0.4022871 0.6227749 -0.2337924
v -0.3698497 0.6312432 -0.2874754
v -0.337287 0.5921162 -0.2372656
v -0.362063 0.6715005 -0.325861
v -0.2895669 0.666046 -0.3470719
v -0.2938529 0.630651 -0.3206358
v -0.4096346 0.7226634 -0.3003003
v -0.4179456 0.67335 -0.2802283
v -0.447289 0.655956 -0.196803
v -0.4433611 0.6998408 -0.1566888
v -0.4712993 0.7208659 -0.212148
v -0.460337 0.681448 -0.17325
v -0.43241 0.746455 -0.258303
v -0.4513424 0.7453489 -0.2087771
v -0.1178433 0.3164284 0.1292683
v -0.1475245 0.2924533 0.3027746
v -0.1480749 0.3086525 0.2406074
v -0.07589442 0.3017295 0.3109099
v -0.08032089 0.2278681 0.4939985
v -0.07636964 0.2220681 0.545635
v -0.05173178 0.1722951 0.8305731
v -0.05842555 -0.4086795 0.02631297
v -0.00336777 -0.431932 0.04937762
v -0.08203192 -0.4141037 0.03715144
v -0.1069043 -0.4403851 0.1336319
v -0.0714671 -0.377771 -0.01938634
v -0.02881465 -0.3532212 0.8814418
v -0.08063001 -0.3745933 0.9005835
v -0.0641499 -0.454693 0.696538
v -0.04724763 -0.4288693 0.7860056
v -0.02765614 -0.4114492 0.7859142
v -0.01092864 0.2805772 0.3667117
v -0.1193577 0.2739001 0.3614874
v -0.06564586 0.2500997 0.4313344
v -0.03558417 0.3546322 0.03728745
v -0.08397365 0.3242488 0.04902283
v -0.02988622 0.3288983 0.07713641
v -0.02941355 0.338103 0.04873828
v -0.1190583 0.3122943 0.03444082
v -0.09772393 0.4925504 0.04487209
v -0.03452051 0.3870217 0.04561424
v -0.03328264 0.4480097 0.05930843
v -0.1827021 0.4784952 0.002418584
v -0.1667003 0.4213435 0.0133107
v -0.1047074 0.5938399 -0.5218668
v -0.2267971 0.5830343 -0.4983978
v -0.1975912 0.507211 -0.5412131
v -0.1767982 0.7357138 -0.4396749
v -0.0832933 0.7056871 -0.4767559
v -0.1692337 0.6766199 -0.477188
v -0.2016664 0.4354317 -0.5888537
v -0.1139829 0.4895698 -0.5678107
v -0.04439233 -0.2442632 0.9566784
v -0.03652966 -0.3033387 0.9243404
v -0.04421146 -0.3207565 -0.09777198
v -0.05607848 -0.2388308 -0.1710663
v -0.07940358 -0.316123 -0.09964058
v -0.02989786 -0.1900386 -0.1982586
v -0.07242987 -0.1781301 -0.1990288
v -0.09030199 0.06310627 -0.2108053
v -0.03496059 0.01746879 -0.2317868
v -0.03904726 0.09536345 -0.2521573
v -0.1137321 0.1343551 -0.2465505
v -0.124521 0.1395527 -0.2806124
v -0.138621 0.1130878 -0.3902055
v -0.0346604 0.1034999 -0.3880138
v -0.1181601 0.1276171 -0.5365499
v -0.1874031 0.1263076 -0.5064969
v -0.2205931 0.1760659 -0.5842136
v -0.0790718 0.182988 -0.615599
v -0.1269069 0.1525369 -0.5779811
v -0.1561803 0.2444937 -0.6509866
v -0.0775425 0.260206 -0.661002
v -0.0792455 0.219987 -0.642965
v -0.2182527 0.2480757 -0.6407747
v -0.1800333 0.3031669 -0.6614691
v -0.0750102 0.301309 -0.668637
v -0.1252848 0.56246 -0.0012963
v -0.0705405 0.5703417 0.02129737
v -0.03489387 0.7393293 -0.08716663
v -0.0504326 0.666442 -0.034872
v -0.1652132 0.6137963 -0.07886159
v -0.1983109 0.5649528 -0.06521499
v -0.2273414 0.6588985 -0.4653383
v -0.2541448 0.5962627 -0.4662923
v -0.165805 0.9429894 -0.2931303
v -0.2009679 0.9549065 -0.2765921
v -0.2041839 0.7682782 -0.2565944
v -0.1969455 0.7949213 -0.2393363
v -0.1186461 0.8119118 -0.3237523
v -0.08217636 0.8235174 -0.2672519
v -0.2347431 0.7599452 -0.2436765
v -0.2138752 0.7598494 -0.2108366
v -0.1921482 0.7740274 -0.2209771
v -0.2551069 0.7230502 -0.3280267
v -0.3548786 0.7131254 -0.3251914
v -0.2611437 0.6944373 -0.3528213
v -0.3853081 0.7491491 -0.2856588
v -0.3928684 0.7601642 -0.238618
v -0.2562866 0.7487856 -0.1894138
v -0.4044022 0.7531943 -0.2034961
v -0.3040095 0.7639009 -0.2265765
v -0.4012032 0.7367494 -0.1741414
v -0.3504234 0.699693 -0.1506336
v -0.4011538 0.6974383 -0.1489451
v -0.1789365 0.694602 -0.1525525
v -0.2484582 0.7012284 -0.1590159
v -0.06357773 0.8043785 -0.1893182
v -0.1202777 0.7744731 -0.1795539
v -0.0818659 0.7652574 -0.1514529
v -0.1217814 0.7058692 -0.1331973
v -0.009173609 0.7795847 -0.1198514
v -0.05571051 0.8271879 -0.3363725
v 0.01415681 0.8051552 -0.4125337
v -0.1260107 0.7827211 -0.4113713
v -0.1342843 0.7978747 -0.378045
v -0.003244198 0.8359585 -0.2657559
v -0.04508886 0.8232626 -0.2231827
v -0.1989383 0.739098 -0.4190209
v -0.1774705 0.775529 -0.3804725
v -0.232954 0.7228533 -0.3573643
v -0.2340759 0.7412734 -0.3069614
v -0.192398 0.8684151 -0.3318683
v -0.1849688 0.7802349 -0.31408
v -0.2293631 0.9100652 -0.2824409
v -0.2102333 0.9125715 -0.3161434
v -0.1269891 0.8874839 -0.2956354
v -0.1764534 0.9046744 -0.3232518
v -0.1148366 0.8940048 -0.2546531
v -0.1407047 0.9085425 -0.2261696
v -0.2167648 0.8718616 -0.244736
v -0.1933214 -0.4859153 0.419097
v -0.1808726 -0.4883003 0.4716834
v -0.1548845 -0.4834508 0.5288669
v -0.04683137 -0.4540343 0.6845142
v -0.07482134 -0.450405 0.1911456
v -0.138015 -0.443895 0.192281
v -0.1822041 -0.4445108 0.2666844
v -0.1727585 -0.4807371 0.3482019
v -0.2283908 -0.4366907 0.3511399
v -0.07737903 -0.5196337 0.4929414
v -0.0819512 -0.4657696 0.6352777
v -0.07740014 -0.5264668 0.415849
v -0.09379911 -0.5118344 0.3591992
v -0.1485015 -0.05411975 0.9604032
v -0.1359598 -0.01339431 0.9560494
v -0.2109592 -0.04893212 0.9243081
v -0.2742548 -0.05518241 0.868618
v -0.1154831 0.07804251 0.9111673
v -0.03423752 -0.1142797 0.985762
v -0.1053238 -0.2159013 0.9555333
v -0.1048422 -0.0560237 0.9784314
v -0.07651186 -0.06719821 0.9936033
v -0.07187351 -0.03671865 1.002521
v -0.0251977 -0.07124517 1.047789
f 223 224 230
f 54 2 221
f 230 221 2
f 52 224 222
f 225 53 226
f 227 226 52
f 224 52 226
f 53 228 226
f 221 226 228
f 229 230 55
f 2 55 230
f 56 234 231
f 229 231 234
f 577 576 234
f 232 234 576
f 233 234 56
f 223 232 576
f 404 236 235
f 238 235 58
f 237 58 235
f 240 236 500
f 239 500 236
f 241 236 404
f 500 501 240
f 242 240 501
f 244 57 237
f 61 243 59
f 3 59 243
f 61 237 57
f 244 60 57
f 303 243 302
f 245 302 243
f 60 245 57
f 1 249 248
f 62 247 246
f 248 246 247
f 252 62 246
f 253 246 250
f 58 254 238
f 256 238 254
f 65 256 255
f 258 257 260
f 255 260 65
f 259 65 260
f 261 260 257
f 261 282 54
f 2 54 282
f 262 280 282
f 262 257 66
f 67 66 257
f 280 262 279
f 277 263 68
f 59 3 267
f 265 267 3
f 67 266 264
f 258 64 266
f 267 64 254
f 249 1 269
f 270 69 271
f 272 271 268
f 271 8 70
f 269 70 249
f 276 274 275
f 275 70 8
f 273 249 275
f 276 8 278
f 263 277 278
f 13 278 277
f 283 71 69
f 278 8 71
f 279 66 263
f 71 283 279
f 55 2 281
f 282 281 2
f 69 270 283
f 281 283 270
f 284 286 72
f 285 72 286
f 285 288 287
f 290 287 289
f 297 289 291
f 11 475 74
f 73 74 475
f 12 300 294
f 292 294 300
f 77 76 73
f 291 73 76
f 459 77 295
f 293 75 77
f 76 77 75
f 68 296 277
f 296 297 277
f 276 298 274
f 299 274 298
f 292 299 75
f 300 299 292
f 301 274 299
f 302 78 303
f 304 78 314
f 80 304 79
f 286 284 304
f 79 3 80
f 305 13 277
f 297 76 305
f 265 79 266
f 306 266 79
f 284 72 290
f 306 307 296
f 308 81 309
f 310 309 81
f 309 78 302
f 316 82 310
f 312 311 314
f 313 314 311
f 322 315 323
f 316 323 315
f 82 316 315
f 318 319 84
f 317 84 319
f 315 322 319
f 318 15 320
f 84 432 318
f 315 320 82
f 312 82 320
f 311 320 15
f 321 323 85
f 14 85 323
f 321 513 86
f 87 325 326
f 324 325 86
f 327 319 322
f 327 87 326
f 328 330 326
f 88 332 331
f 333 331 332
f 326 325 328
f 333 328 325
f 332 89 336
f 336 334 329
f 335 336 89
f 338 341 91
f 337 91 341
f 339 94 341
f 340 341 94
f 343 345 92
f 342 92 345
f 91 344 338
f 345 338 344
f 93 347 346
f 349 346 347
f 92 348 343
f 349 343 348
f 94 339 17
f 351 17 339
f 351 347 350
f 93 350 347
f 353 356 96
f 352 96 356
f 356 354 355
f 362 355 354
f 358 359 357
f 96 359 353
f 97 360 18
f 361 18 360
f 357 381 358
f 361 358 381
f 364 362 354
f 360 97 364
f 363 364 97
f 268 365 272
f 367 272 365
f 373 366 367
f 269 369 268
f 365 268 369
f 362 370 355
f 372 355 370
f 368 371 369
f 372 369 371
f 367 374 373
f 374 370 362
f 379 375 99
f 472 99 375
f 10 375 100
f 380 378 376
f 99 377 379
f 378 379 377
f 379 381 357
f 381 378 380
f 100 375 382
f 382 379 357
f 386 384 373
f 366 373 384
f 231 384 56
f 383 56 384
f 97 385 363
f 386 363 385
f 385 97 387
f 18 387 97
f 56 383 233
f 388 233 383
f 380 376 387
f 388 387 376
f 100 390 10
f 390 389 252
f 62 252 389
f 391 392 96
f 359 96 392
f 390 100 392
f 382 392 100
f 368 394 371
f 393 371 394
f 96 352 391
f 393 391 352
f 389 394 62
f 247 62 394
f 101 397 395
f 65 259 396
f 397 396 259
f 398 399 91
f 344 91 399
f 397 101 399
f 402 403 400
f 401 400 403
f 91 337 398
f 401 398 337
f 396 403 65
f 256 65 403
f 406 241 404
f 406 411 405
f 410 405 411
f 235 407 404
f 94 408 340
f 409 340 408
f 402 400 407
f 409 407 400
f 408 94 411
f 17 411 94
f 103 413 412
f 415 412 413
f 53 225 414
f 415 414 225
f 104 413 92
f 348 92 413
f 92 342 104
f 416 104 342
f 414 417 53
f 228 53 417
f 395 417 101
f 416 101 417
f 405 410 418
f 419 418 105
f 106 105 418
f 93 420 350
f 421 350 420
f 421 418 410
f 346 103 423
f 93 346 420
f 105 106 422
f 423 422 106
f 412 423 103
f 425 426 107
f 424 107 426
f 334 426 329
f 433 329 426
f 427 108 425
f 109 425 108
f 431 428 22
f 108 429 109
f 428 109 429
f 430 432 84
f 428 431 432
f 329 433 330
f 84 317 430
f 433 430 317
f 531 110 435
f 557 435 113
f 434 113 435
f 111 436 429
f 114 429 436
f 114 435 110
f 112 438 437
f 436 437 438
f 434 439 113
f 450 113 439
f 438 112 439
f 429 108 111
f 444 111 108
f 443 441 440
f 442 440 441
f 108 427 442
f 444 441 452
f 445 446 115
f 443 446 441
f 116 448 447
f 115 447 445
f 448 445 447
f 112 449 439
f 451 439 449
f 448 116 451
f 450 451 116
f 441 446 452
f 452 449 437
f 112 437 449
f 454 453 117
f 118 117 27
f 479 454 288
f 457 456 455
f 458 455 459
f 459 456 293
f 461 195 460
f 463 464 460
f 293 456 461
f 293 461 294
f 464 294 461
f 465 468 870
f 467 465 466
f 467 419 468
f 105 468 419
f 422 468 105
f 578 469 585
f 377 99 470
f 469 578 470
f 119 120 471
f 472 471 120
f 99 472 470
f 879 474 27
f 455 458 473
f 11 474 475
f 884 476 885
f 477 885 476
f 479 313 478
f 454 479 476
f 484 482 478
f 477 478 482
f 311 478 313
f 888 481 889
f 481 480 121
f 481 888 482
f 15 483 311
f 484 311 483
f 121 480 527
f 483 527 480
f 488 485 486
f 123 486 485
f 122 490 489
f 487 16 488
f 490 488 16
f 485 491 123
f 490 122 491
f 494 492 493
f 486 123 495
f 202 495 494
f 491 335 496
f 89 496 335
f 497 496 89
f 901 119 499
f 250 499 253
f 471 499 119
f 251 605 250
f 499 250 605
f 124 905 501
f 502 467 466
f 502 500 239
f 242 501 125
f 905 125 501
f 125 504 503
f 505 60 126
f 503 126 60
f 60 244 503
f 242 503 244
f 507 126 508
f 511 510 512
f 509 510 506
f 508 506 510
f 126 507 505
f 507 511 308
f 81 308 511
f 510 913 127
f 515 127 23
f 513 85 515
f 127 515 85
f 512 85 14
f 23 516 515
f 518 517 128
f 129 519 86
f 324 86 519
f 129 513 515
f 86 513 129
f 521 128 520
f 517 520 128
f 493 492 522
f 492 497 522
f 523 522 497
f 519 128 524
f 521 524 128
f 331 524 88
f 523 88 524
f 525 121 131
f 527 431 528
f 131 121 527
f 22 528 431
f 533 530 529
f 531 529 530
f 110 531 528
f 526 525 532
f 533 532 525
f 489 534 122
f 424 534 107
f 535 536 489
f 133 573 574
f 537 132 133
f 538 133 132
f 542 543 544
f 542 544 549
f 549 556 548
f 550 551 548
f 550 552 553
f 135 553 115
f 447 115 553
f 554 135 115
f 551 554 555
f 440 554 443
f 557 558 21
f 556 21 558
f 116 136 450
f 116 447 136
f 552 136 447
f 556 558 548
f 545 547 559
f 959 561 560
f 562 561 533
f 26 561 959
f 556 137 21
f 533 529 562
f 137 562 529
f 137 556 544
f 564 563 134
f 546 134 563
f 539 564 134
f 961 566 487
f 16 487 566
f 564 565 566
f 546 563 547
f 535 566 565
f 551 555 567
f 540 567 539
f 565 539 567
f 535 567 536
f 133 568 537
f 575 568 574
f 568 575 541
f 546 569 134
f 570 134 569
f 138 570 537
f 132 537 570
f 138 134 570
f 547 571 572
f 571 538 572
f 132 569 572
f 132 572 538
f 546 547 569
f 572 569 547
f 542 575 543
f 222 576 139
f 140 139 576
f 578 585 141
f 870 468 582
f 468 580 582
f 582 581 583
f 142 227 52
f 581 579 142
f 52 222 584
f 139 584 222
f 588 585 587
f 585 588 141
f 589 590 586
f 588 590 140
f 140 577 588
f 141 588 577
f 589 586 594
f 591 594 586
f 593 592 583
f 142 593 581
f 583 581 593
f 584 594 142
f 593 142 594
f 600 608 598
f 251 598 595
f 63 596 251
f 249 273 596
f 248 596 63
f 597 596 273
f 597 143 598
f 600 598 143
f 599 301 300
f 12 599 300
f 599 603 600
f 602 600 603
f 604 603 462
f 997 498 606
f 595 607 606
f 608 610 607
f 609 610 602
f 144 606 607
f 611 1002 613
f 616 617 614
f 623 614 617
f 622 623 619
f 145 621 615
f 617 615 621
f 619 621 618
f 620 621 145
f 618 987 619
f 630 628 623
f 614 623 628
f 622 624 147
f 626 627 146
f 625 146 627
f 147 624 627
f 146 629 626
f 630 626 629
f 634 632 633
f 29 633 632
f 806 632 631
f 31 906 635
f 636 806 631
f 637 631 635
f 643 640 638
f 149 642 641
f 643 642 634
f 150 648 644
f 645 644 151
f 647 648 150
f 646 998 648
f 649 648 998
f 650 151 644
f 152 153 651
f 633 29 656
f 651 656 29
f 652 659 653
f 654 653 152
f 153 152 653
f 655 653 659
f 154 657 160
f 652 616 657
f 614 657 616
f 160 658 154
f 660 659 661
f 154 661 659
f 708 155 677
f 662 656 157
f 655 663 157
f 660 41 663
f 151 664 645
f 666 676 674
f 664 151 676
f 668 666 674
f 669 665 670
f 668 667 670
f 159 671 158
f 701 158 671
f 159 672 673
f 675 674 673
f 995 671 151
f 676 151 671
f 677 678 708
f 709 708 678
f 675 658 667
f 658 677 661
f 673 678 675
f 672 678 673
f 628 679 614
f 657 614 679
f 679 670 667
f 705 680 37
f 684 37 680
f 684 682 864
f 681 689 682
f 864 683 684
f 685 697 688
f 707 685 690
f 161 686 687
f 682 689 687
f 689 690 685
f 40 691 696
f 696 693 695
f 698 688 697
f 699 708 707
f 155 708 699
f 699 710 155
f 701 700 158
f 692 691 700
f 639 638 703
f 702 162 703
f 702 704 705
f 162 702 713
f 705 713 702
f 40 697 706
f 707 706 697
f 709 700 706
f 710 156 663
f 699 681 710
f 704 156 705
f 680 705 156
f 712 703 162
f 711 164 712
f 714 713 163
f 43 164 711
f 715 711 714
f 714 716 715
f 166 717 716
f 715 716 717
f 42 720 718
f 716 714 718
f 165 721 719
f 721 718 720
f 716 722 166
f 44 722 165
f 721 165 722
f 730 728 717
f 724 167 723
f 724 166 722
f 725 726 727
f 723 167 727
f 730 726 729
f 830 731 732
f 738 734 737
f 45 737 734
f 734 731 733
f 735 736 738
f 167 732 727
f 740 727 732
f 740 736 739
f 742 745 168
f 741 168 745
f 743 171 745
f 744 745 171
f 747 749 169
f 746 169 749
f 168 748 742
f 749 742 748
f 170 751 750
f 752 750 751
f 169 825 747
f 752 747 825
f 171 743 753
f 755 753 743
f 751 170 755
f 754 755 170
f 757 760 763
f 756 763 760
f 758 175 760
f 759 760 175
f 762 764 173
f 761 173 764
f 764 757 763
f 174 766 765
f 768 765 766
f 173 767 762
f 768 762 767
f 175 758 769
f 770 769 758
f 766 174 770
f 177 773 771
f 665 669 772
f 773 772 669
f 46 763 774
f 773 177 46
f 777 778 775
f 776 775 778
f 763 756 774
f 776 774 756
f 772 778 665
f 664 665 778
f 779 178 780
f 781 780 180
f 181 180 780
f 782 174 181
f 178 782 780
f 765 179 785
f 181 174 765
f 180 181 783
f 785 783 181
f 179 784 785
f 786 788 146
f 629 146 788
f 771 788 177
f 787 177 788
f 179 789 784
f 790 784 789
f 146 625 786
f 790 786 625
f 182 789 173
f 767 173 789
f 173 761 182
f 787 182 761
f 791 647 183
f 150 183 647
f 178 779 791
f 183 150 792
f 644 792 150
f 175 793 759
f 794 759 793
f 777 775 792
f 794 792 775
f 791 795 178
f 782 178 795
f 795 793 769
f 175 769 793
f 152 186 654
f 797 654 186
f 185 796 797
f 651 798 152
f 186 152 798
f 171 799 744
f 801 744 799
f 184 800 798
f 801 798 800
f 797 803 185
f 802 185 803
f 799 171 803
f 753 803 171
f 807 804 805
f 187 805 804
f 807 806 636
f 808 805 168
f 748 168 805
f 184 809 800
f 810 800 809
f 168 741 808
f 810 808 741
f 632 806 809
f 145 811 620
f 813 620 811
f 816 814 185
f 796 185 814
f 615 814 145
f 811 145 814
f 170 815 754
f 816 754 815
f 185 802 816
f 813 818 812
f 817 812 818
f 750 818 170
f 815 170 818
f 820 821 189
f 819 189 821
f 804 821 187
f 189 822 820
f 823 820 822
f 169 824 825
f 812 817 823
f 825 823 817
f 826 187 821
f 169 746 824
f 826 824 746
f 733 731 828
f 827 828 835
f 837 835 828
f 165 829 44
f 830 44 829
f 731 830 828
f 834 719 831
f 829 165 719
f 190 833 832
f 834 832 833
f 831 48 834
f 836 837 190
f 833 190 837
f 954 951 839
f 838 839 951
f 840 191 841
f 838 951 841
f 952 841 951
f 845 842 844
f 49 844 842
f 842 841 191
f 192 839 843
f 845 843 839
f 850 847 844
f 846 190 847
f 832 847 190
f 850 848 849
f 844 49 850
f 853 851 852
f 853 836 846
f 190 846 836
f 851 849 855
f 194 854 855
f 856 848 191
f 849 848 855
f 858 859 193
f 857 193 859
f 191 840 856
f 859 856 840
f 854 194 860
f 858 860 194
f 193 861 858
f 865 864 863
f 864 865 453
f 867 457 455
f 39 867 696
f 698 696 867
f 39 195 457
f 695 868 195
f 460 195 868
f 39 695 195
f 693 196 868
f 463 460 868
f 197 869 870
f 870 869 465
f 822 189 871
f 872 871 197
f 869 197 871
f 902 873 904
f 873 871 819
f 189 819 871
f 869 873 465
f 878 120 874
f 180 877 781
f 781 874 875
f 878 877 982
f 876 982 877
f 783 877 180
f 120 878 469
f 879 865 881
f 863 880 865
f 881 865 880
f 686 866 881
f 687 686 880
f 879 881 473
f 198 883 882
f 885 882 883
f 42 886 198
f 883 198 886
f 886 862 883
f 453 884 862
f 883 862 884
f 889 887 199
f 887 890 199
f 891 199 890
f 720 42 891
f 488 486 892
f 897 894 893
f 892 899 894
f 200 896 895
f 897 895 896
f 893 931 897
f 892 896 488
f 201 202 493
f 201 737 898
f 898 894 899
f 45 898 737
f 899 495 202
f 875 874 901
f 466 902 124
f 635 903 637
f 904 637 903
f 906 905 903
f 906 903 635
f 31 642 149
f 908 504 125
f 907 908 149
f 908 907 909
f 203 712 164
f 910 164 43
f 909 509 506
f 910 911 509
f 913 509 911
f 911 728 912
f 729 204 912
f 204 23 912
f 913 912 23
f 23 204 516
f 914 514 516
f 726 915 729
f 915 204 729
f 918 916 205
f 725 916 726
f 915 726 916
f 918 518 914
f 514 914 518
f 205 917 918
f 919 921 205
f 917 205 921
f 921 920 520
f 130 520 920
f 739 736 922
f 916 922 205
f 919 205 922
f 736 735 922
f 923 922 735
f 920 924 130
f 522 130 924
f 923 201 924
f 493 924 201
f 926 925 887
f 927 206 928
f 526 532 926
f 928 926 532
f 929 206 958
f 48 831 930
f 843 930 192
f 929 192 930
f 925 890 887
f 890 930 831
f 827 835 932
f 931 893 932
f 966 931 207
f 934 208 209
f 209 933 934
f 973 972 934
f 973 934 933
f 935 214 971
f 936 941 210
f 956 210 212
f 955 210 956
f 212 941 940
f 211 939 969
f 943 944 852
f 943 854 945
f 852 851 943
f 860 945 854
f 946 949 945
f 211 945 949
f 946 948 949
f 949 947 940
f 193 950 861
f 948 861 950
f 193 857 950
f 952 950 857
f 954 953 947
f 212 947 953
f 956 957 955
f 206 957 958
f 958 956 953
f 212 953 956
f 26 959 927
f 957 206 927
f 965 955 560
f 213 960 24
f 961 200 962
f 24 961 213
f 963 962 967
f 966 967 962
f 895 962 200
f 960 963 937
f 559 964 965
f 965 964 938
f 50 965 938
f 944 942 968
f 966 207 968
f 967 969 971
f 968 942 969
f 972 214 978
f 970 937 51
f 933 975 973
f 970 973 975
f 938 976 50
f 976 974 209
f 933 209 974
f 936 210 978
f 210 977 215
f 978 215 208
f 34 979 624
f 980 624 979
f 981 989 627
f 983 197 582
f 872 983 984
f 984 983 985
f 986 979 987
f 985 987 618
f 979 34 987
f 587 585 988
f 989 988 585
f 988 980 990
f 979 990 980
f 591 991 592
f 979 991 990
f 216 986 985
f 999 993 992
f 994 995 650
f 218 650 649
f 151 650 995
f 218 217 992
f 219 996 694
f 701 219 692
f 692 219 694
f 219 701 995
f 220 1001 601
f 220 196 996
f 601 604 220
f 1001 220 993
f 996 993 220
f 217 997 28
f 997 998 900
f 218 998 217
f 993 999 1001
f 609 601 1001
f 144 1000 28
f 1000 613 1002
f 230 224 221
f 224 223 222
f 226 227 225
f 4 225 227
f 7 54 228
f 221 228 54
f 226 221 224
f 232 223 229
f 230 229 223
f 9 231 55
f 229 55 231
f 234 232 229
f 234 233 577
f 6 577 233
f 576 222 223
f 237 235 240
f 236 240 235
f 5 239 241
f 236 241 239
f 244 240 242
f 240 244 237
f 243 303 3
f 237 61 58
f 59 58 61
f 302 245 505
f 57 245 61
f 243 61 245
f 248 247 1
f 63 246 248
f 251 250 63
f 10 252 253
f 246 253 252
f 63 250 246
f 254 255 256
f 255 254 64
f 257 258 67
f 64 258 255
f 260 255 258
f 7 259 261
f 260 261 259
f 282 261 262
f 7 261 54
f 257 262 261
f 66 68 263
f 279 262 66
f 66 67 68
f 264 68 67
f 267 265 64
f 265 266 64
f 266 67 258
f 58 59 254
f 267 254 59
f 268 70 269
f 9 270 272
f 271 272 270
f 70 268 271
f 69 8 271
f 275 274 273
f 70 275 249
f 8 276 275
f 278 13 276
f 278 71 263
f 69 71 8
f 279 263 71
f 282 280 281
f 283 280 279
f 9 55 270
f 281 270 55
f 283 281 280
f 11 287 288
f 72 285 287
f 290 289 307
f 287 290 72
f 74 73 291
f 291 289 74
f 287 74 289
f 74 287 11
f 295 73 475
f 75 293 292
f 294 292 293
f 73 295 77
f 77 459 293
f 297 296 307
f 264 296 68
f 307 289 297
f 13 298 276
f 298 75 299
f 300 301 299
f 274 301 273
f 303 78 80
f 304 314 286
f 78 304 80
f 79 304 284
f 303 80 3
f 75 298 76
f 305 76 298
f 298 13 305
f 277 297 305
f 76 297 291
f 266 306 264
f 296 264 306
f 79 284 306
f 79 265 3
f 284 290 306
f 307 306 290
f 505 308 302
f 309 302 308
f 310 83 309
f 78 309 83
f 14 316 81
f 310 81 316
f 83 310 82
f 82 312 83
f 314 83 312
f 286 314 313
f 83 314 78
f 323 316 14
f 319 318 315
f 432 15 318
f 320 315 318
f 320 311 312
f 87 322 321
f 323 321 322
f 85 513 321
f 86 87 321
f 325 87 86
f 319 327 317
f 326 317 327
f 322 87 327
f 317 326 330
f 90 329 328
f 330 328 329
f 331 333 324
f 325 324 333
f 328 333 90
f 332 90 333
f 332 88 89
f 497 89 88
f 90 332 336
f 336 335 334
f 90 336 329
f 341 340 337
f 400 337 340
f 95 339 338
f 341 338 339
f 342 345 19
f 344 19 345
f 95 338 343
f 345 343 338
f 346 349 348
f 95 343 347
f 349 347 343
f 350 17 351
f 95 347 339
f 351 339 347
f 355 352 356
f 98 354 353
f 356 353 354
f 98 353 358
f 359 358 353
f 381 18 361
f 358 361 98
f 360 98 361
f 362 364 374
f 363 374 364
f 98 360 354
f 364 354 360
f 9 272 366
f 367 366 272
f 369 269 368
f 1 368 269
f 355 372 352
f 371 352 372
f 369 372 365
f 370 365 372
f 365 370 367
f 374 367 370
f 375 10 472
f 6 376 377
f 378 377 376
f 380 18 381
f 381 379 378
f 357 359 382
f 375 379 382
f 9 366 231
f 384 231 366
f 385 383 386
f 384 386 383
f 363 386 374
f 373 374 386
f 380 387 18
f 6 233 376
f 388 376 233
f 387 388 385
f 383 385 388
f 390 252 10
f 382 359 392
f 389 390 391
f 392 391 390
f 371 393 352
f 391 393 389
f 394 389 393
f 394 368 247
f 1 247 368
f 7 395 259
f 397 259 395
f 344 399 19
f 101 19 399
f 396 397 398
f 399 398 397
f 337 400 401
f 398 401 396
f 403 396 401
f 403 402 256
f 238 256 402
f 241 406 5
f 405 5 406
f 404 102 406
f 411 406 102
f 402 407 238
f 235 238 407
f 102 404 407
f 340 409 400
f 407 409 102
f 408 102 409
f 410 411 17
f 102 408 411
f 412 415 4
f 225 4 415
f 414 415 104
f 413 104 415
f 103 348 413
f 101 416 19
f 342 19 416
f 7 228 395
f 417 395 228
f 104 416 414
f 417 414 416
f 5 405 419
f 418 419 405
f 350 421 17
f 410 17 421
f 418 421 106
f 420 106 421
f 103 346 348
f 106 420 423
f 346 423 420
f 4 422 412
f 423 412 422
f 335 424 334
f 426 334 424
f 109 433 425
f 426 425 433
f 20 427 107
f 425 107 427
f 429 22 428
f 15 432 431
f 109 428 430
f 432 430 428
f 330 433 317
f 430 433 109
f 21 531 557
f 435 557 531
f 114 434 435
f 429 114 22
f 110 22 114
f 111 437 436
f 438 114 436
f 114 438 434
f 439 434 438
f 108 442 444
f 20 440 427
f 442 427 440
f 111 444 437
f 452 437 444
f 441 444 442
f 446 443 115
f 439 451 450
f 445 448 449
f 451 449 448
f 449 452 445
f 446 445 452
f 117 118 454
f 288 118 11
f 27 11 118
f 286 479 285
f 288 285 479
f 118 288 454
f 459 455 456
f 195 456 457
f 459 295 458
f 456 195 461
f 464 463 462
f 462 12 464
f 294 464 12
f 460 464 461
f 468 465 467
f 419 467 5
f 468 422 580
f 4 580 422
f 470 578 377
f 6 377 578
f 120 469 470
f 471 472 10
f 470 472 120
f 473 474 879
f 474 473 458
f 458 295 475
f 458 475 474
f 474 11 27
f 482 882 477
f 885 477 882
f 453 454 884
f 476 884 454
f 313 479 286
f 478 476 479
f 478 311 484
f 476 478 477
f 121 25 481
f 889 481 25
f 882 482 888
f 480 481 482
f 483 480 484
f 482 484 480
f 483 15 527
f 200 487 488
f 489 490 16
f 488 490 485
f 335 491 122
f 491 485 490
f 202 494 493
f 123 492 495
f 494 495 492
f 491 496 123
f 492 123 496
f 496 497 492
f 605 498 499
f 900 499 498
f 901 499 900
f 10 253 471
f 499 471 253
f 124 501 500
f 239 5 502
f 467 502 5
f 500 502 124
f 466 124 502
f 125 503 242
f 126 503 504
f 60 505 245
f 506 508 504
f 126 504 508
f 507 508 511
f 510 511 508
f 14 81 512
f 511 512 81
f 308 505 507
f 913 510 509
f 512 510 127
f 913 23 127
f 127 85 512
f 129 515 514
f 516 514 515
f 514 518 129
f 128 129 518
f 519 129 128
f 130 521 520
f 521 130 522
f 88 523 497
f 522 523 521
f 324 519 331
f 524 331 519
f 524 521 523
f 525 526 121
f 25 121 526
f 431 527 15
f 527 528 131
f 528 22 110
f 529 531 21
f 131 528 530
f 531 530 528
f 532 533 26
f 131 530 525
f 533 525 530
f 335 122 424
f 534 424 122
f 536 534 489
f 16 535 489
f 107 534 20
f 536 20 534
f 133 538 573
f 545 544 543
f 571 547 545
f 549 548 541
f 549 541 542
f 541 548 551
f 135 551 550
f 552 550 548
f 135 550 553
f 115 443 554
f 20 555 440
f 554 440 555
f 135 554 551
f 113 136 557
f 558 557 136
f 450 136 113
f 553 552 447
f 552 548 558
f 552 558 136
f 137 544 559
f 545 559 544
f 560 561 559
f 137 559 561
f 561 26 533
f 137 561 562
f 137 529 21
f 549 544 556
f 564 24 563
f 565 564 539
f 566 961 564
f 487 200 961
f 24 564 961
f 964 559 547
f 563 964 547
f 24 964 563
f 566 535 16
f 541 551 540
f 567 540 551
f 20 536 555
f 567 555 536
f 565 567 535
f 138 540 539
f 138 568 540
f 138 537 568
f 133 574 568
f 542 541 575
f 541 540 568
f 569 132 570
f 134 138 539
f 538 571 573
f 574 543 575
f 543 571 545
f 543 574 571
f 573 571 574
f 6 141 577
f 140 576 577
f 578 141 6
f 582 197 870
f 579 580 4
f 579 582 580
f 581 582 579
f 4 227 579
f 142 579 227
f 142 52 584
f 590 587 586
f 587 590 588
f 139 140 589
f 590 589 140
f 594 591 593
f 592 593 591
f 139 589 584
f 594 584 589
f 608 595 598
f 596 597 598
f 596 598 251
f 596 248 249
f 273 301 597
f 143 597 301
f 143 301 599
f 600 143 599
f 603 601 602
f 600 602 608
f 599 12 603
f 462 603 12
f 462 463 604
f 601 603 604
f 606 498 595
f 605 595 498
f 251 595 605
f 28 997 606
f 607 595 608
f 610 612 607
f 610 608 602
f 602 601 609
f 611 610 609
f 606 144 28
f 613 144 612
f 607 612 144
f 610 611 612
f 613 612 611
f 623 617 619
f 35 615 616
f 617 616 615
f 621 619 617
f 621 620 618
f 30 618 620
f 619 987 622
f 34 622 987
f 147 630 622
f 623 622 630
f 624 622 34
f 33 625 627
f 627 626 147
f 36 628 629
f 630 629 628
f 626 630 147
f 631 632 148
f 634 148 632
f 148 634 642
f 642 31 148
f 635 148 31
f 32 636 637
f 631 637 636
f 148 635 631
f 704 638 640
f 641 643 639
f 638 639 643
f 639 38 641
f 640 643 633
f 634 633 643
f 642 643 641
f 649 644 648
f 875 646 647
f 648 647 646
f 218 649 998
f 644 649 650
f 656 651 153
f 35 652 654
f 653 654 652
f 659 660 655
f 653 655 153
f 157 153 655
f 153 157 656
f 657 154 652
f 35 616 652
f 659 652 154
f 661 677 155
f 41 660 155
f 661 155 660
f 658 661 154
f 640 662 704
f 156 704 662
f 156 662 157
f 633 656 640
f 662 640 656
f 663 655 660
f 156 157 663
f 665 664 666
f 676 666 664
f 667 668 675
f 674 675 668
f 36 669 670
f 666 668 665
f 670 665 668
f 671 995 701
f 158 672 159
f 159 673 674
f 674 676 159
f 671 159 676
f 678 677 675
f 658 675 677
f 678 672 709
f 657 679 160
f 36 670 628
f 679 628 670
f 667 160 679
f 667 658 160
f 680 681 684
f 690 689 681
f 863 864 682
f 682 684 681
f 684 683 37
f 707 697 685
f 161 685 688
f 161 688 686
f 863 682 687
f 161 687 689
f 685 161 689
f 694 691 692
f 691 694 693
f 695 39 696
f 693 696 691
f 697 40 698
f 696 698 40
f 688 698 686
f 699 707 690
f 41 155 710
f 672 158 700
f 692 700 701
f 706 700 40
f 691 40 700
f 38 639 703
f 703 638 702
f 638 704 702
f 705 37 713
f 706 707 709
f 708 709 707
f 700 709 672
f 663 41 710
f 156 710 680
f 690 681 699
f 681 680 710
f 38 703 712
f 711 712 162
f 37 163 713
f 163 42 714
f 713 714 162
f 711 715 43
f 162 714 711
f 717 43 715
f 718 714 42
f 719 721 720
f 718 721 716
f 722 716 721
f 43 717 728
f 723 730 166
f 717 166 730
f 167 724 44
f 722 44 724
f 166 724 723
f 727 726 723
f 728 730 729
f 726 730 723
f 44 830 167
f 732 167 830
f 738 732 731
f 734 733 45
f 731 734 738
f 738 737 735
f 201 735 737
f 727 740 725
f 739 725 740
f 736 740 738
f 732 738 740
f 745 744 741
f 800 741 744
f 172 743 742
f 745 742 743
f 746 749 748
f 172 742 747
f 749 747 742
f 750 752 825
f 172 747 751
f 752 751 747
f 753 755 802
f 754 802 755
f 172 751 743
f 755 743 751
f 760 759 756
f 775 756 759
f 176 758 757
f 760 757 758
f 761 764 46
f 763 46 764
f 176 757 762
f 764 762 757
f 765 768 767
f 762 768 176
f 766 176 768
f 174 769 770
f 176 766 758
f 770 758 766
f 36 771 669
f 773 669 771
f 772 773 774
f 46 774 773
f 756 775 776
f 774 776 772
f 778 772 776
f 778 777 664
f 645 664 777
f 875 779 781
f 780 781 779
f 174 782 769
f 780 782 181
f 179 765 767
f 765 785 181
f 33 783 784
f 785 784 783
f 36 629 771
f 788 771 629
f 182 787 786
f 788 786 787
f 33 784 625
f 790 625 784
f 786 790 182
f 789 182 790
f 179 767 789
f 177 787 46
f 761 46 787
f 875 647 779
f 791 779 647
f 792 644 777
f 645 777 644
f 759 794 775
f 792 794 183
f 793 183 794
f 782 795 769
f 183 793 791
f 795 791 793
f 35 654 796
f 797 796 654
f 798 651 184
f 29 184 651
f 744 801 800
f 798 801 186
f 799 186 801
f 753 802 803
f 186 799 797
f 803 797 799
f 804 807 32
f 636 32 807
f 806 807 188
f 805 188 807
f 187 748 805
f 188 805 808
f 741 800 810
f 808 810 188
f 809 188 810
f 184 29 809
f 632 809 29
f 188 809 806
f 620 813 30
f 812 30 813
f 811 815 813
f 35 796 615
f 814 615 796
f 815 811 816
f 814 816 811
f 754 816 802
f 818 750 817
f 825 817 750
f 818 813 815
f 32 819 804
f 821 804 819
f 30 812 822
f 823 822 812
f 820 823 824
f 825 824 823
f 187 826 748
f 746 748 826
f 824 826 820
f 821 820 826
f 45 733 827
f 828 827 733
f 833 837 828
f 828 830 833
f 829 833 830
f 720 831 719
f 833 829 834
f 719 834 829
f 832 834 48
f 47 835 836
f 837 836 835
f 953 954 192
f 839 192 954
f 841 952 840
f 857 840 952
f 191 49 842
f 841 842 838
f 845 838 842
f 844 48 845
f 843 845 48
f 839 838 845
f 847 832 844
f 48 844 832
f 847 850 846
f 848 850 49
f 849 846 850
f 846 849 853
f 851 853 849
f 47 836 852
f 853 852 836
f 855 854 851
f 191 848 49
f 855 848 194
f 856 194 848
f 840 857 859
f 194 856 858
f 859 858 856
f 860 858 861
f 37 683 862
f 864 862 683
f 453 862 864
f 27 117 865
f 453 865 117
f 866 867 455
f 457 867 39
f 686 698 866
f 867 866 698
f 868 695 693
f 196 693 694
f 868 196 463
f 871 872 822
f 30 822 872
f 904 873 32
f 819 32 873
f 871 873 869
f 873 902 465
f 466 465 902
f 119 874 120
f 874 781 878
f 877 878 781
f 877 783 876
f 33 876 783
f 982 585 878
f 469 878 585
f 865 879 27
f 880 863 687
f 880 686 881
f 881 866 473
f 455 473 866
f 884 885 883
f 886 42 163
f 862 886 37
f 163 37 886
f 887 889 25
f 888 889 199
f 891 890 720
f 891 42 199
f 198 199 42
f 199 198 888
f 882 888 198
f 892 486 899
f 45 893 894
f 894 897 892
f 931 895 897
f 896 892 897
f 896 200 488
f 898 202 201
f 898 45 894
f 202 898 899
f 486 495 899
f 998 646 900
f 901 646 875
f 646 901 900
f 874 119 901
f 903 124 902
f 637 904 32
f 902 904 903
f 124 903 905
f 906 125 905
f 908 125 906
f 906 31 908
f 149 908 31
f 38 907 641
f 149 641 907
f 909 506 908
f 504 908 506
f 203 909 907
f 712 203 38
f 907 38 203
f 910 43 911
f 164 910 203
f 203 910 909
f 509 909 910
f 911 912 913
f 43 728 911
f 912 728 729
f 516 204 914
f 204 915 914
f 914 915 918
f 916 918 915
f 917 517 918
f 518 918 517
f 921 520 917
f 517 917 520
f 920 921 919
f 725 739 916
f 922 916 739
f 735 201 923
f 922 923 919
f 924 493 522
f 919 923 920
f 924 920 923
f 526 926 25
f 887 25 926
f 928 532 927
f 26 927 532
f 925 926 206
f 928 206 926
f 192 929 953
f 958 953 929
f 925 206 929
f 930 843 48
f 925 929 930
f 831 720 890
f 890 925 930
f 45 827 893
f 932 893 827
f 207 931 932
f 207 932 47
f 835 47 932
f 895 931 966
f 934 972 208
f 978 208 972
f 977 209 208
f 936 214 935
f 941 212 210
f 210 955 50
f 941 935 939
f 940 941 939
f 936 935 941
f 935 969 939
f 969 942 211
f 47 852 944
f 211 942 943
f 944 943 942
f 854 943 851
f 945 211 943
f 861 946 860
f 945 860 946
f 949 939 211
f 947 212 940
f 940 939 949
f 948 950 949
f 947 949 950
f 946 861 948
f 952 951 950
f 951 954 950
f 947 950 954
f 958 957 956
f 927 959 957
f 559 965 560
f 957 959 955
f 560 955 959
f 962 213 961
f 962 895 966
f 213 962 963
f 967 51 963
f 937 963 51
f 213 963 960
f 938 960 937
f 24 960 964
f 964 960 938
f 965 50 955
f 47 944 207
f 968 207 944
f 967 966 968
f 935 971 969
f 969 967 968
f 51 967 971
f 970 51 971
f 970 971 214
f 936 978 214
f 970 214 973
f 972 973 214
f 938 937 974
f 975 974 937
f 970 975 937
f 974 975 933
f 977 50 976
f 976 938 974
f 209 977 976
f 215 978 210
f 977 210 50
f 208 215 977
f 981 624 980
f 33 627 989
f 627 624 981
f 989 982 33
f 876 33 982
f 989 585 982
f 216 983 583
f 582 583 983
f 984 30 872
f 197 983 872
f 30 984 618
f 985 618 984
f 987 985 986
f 981 988 989
f 980 988 981
f 586 587 990
f 988 990 587
f 586 990 591
f 991 591 990
f 592 991 216
f 991 979 986
f 216 991 986
f 985 983 216
f 583 592 216
f 994 992 993
f 218 992 994
f 218 994 650
f 999 992 217
f 219 994 993
f 219 993 996
f 995 994 219
f 196 220 463
f 604 463 220
f 196 694 996
f 900 498 997
f 28 999 217
f 998 997 217
f 1002 1001 1000
f 1000 1001 999
f 609 1002 611
f 1001 1002 609
f 1000 999 28
f 613 1000 144
