1452  3  0  0
   0    0.31208989999999998  -0.36959979999999998  0.87790820000000003
   1    0.3356094  -0.38511780000000001  0.42543999999999998
   2    0.30931219999999998  0.023469719999999999  -0.0089002520000000009
   3    0.149341  -0.45152199999999998  0.16642299999999999
   4    0.114009  -0.35833900000000002  -0.075952099999999995
   5    0.101546  -0.47538200000000003  0.663157
   6    0.35860199999999998  -0.37796999999999997  0.17896999999999999
   7    0.3362077  -0.22045100000000001  0.74302360000000001
   8    0.31610199999999999  -0.41939599999999999  0.64915299999999998
   9    0.090332129999999997  -0.40830630000000001  0.89801949999999997
  10    0.1598128  0.28099380000000002  0.31749290000000002
  11    0.14341419999999999  0.1058936  0.87027160000000003
  12    0.34619719999999998  -0.053452510000000002  0.64267819999999998
  13    0.18466679999999999  0.1771877  -0.25037409999999999
  14    0.22386059999999999  0.42696400000000001  -0.033131420000000002
  15    0.17679819999999999  0.73571379999999997  -0.43967489999999998
  16    0.17673030000000001  -0.66816690000000001  -0.076998929999999993
  17    0.14940339999999999  -0.69338659999999996  0.7015169
  18    0.31074400000000002  -0.65815900000000005  0.12474
  19    0.26416899999999999  0.64694600000000002  -0.36989699999999998
  20    0.1789365  0.69460200000000005  -0.15255250000000001
  21    0.25494349999999999  0.55575509999999995  -0.1286794
  22    0  0.09896481  -0.44651479999999999
  23    0.0095726790000000006  0.82873330000000001  -0.3608382
  24    0  0.49917499999999998  0.0586613
  25    0.0002156154  0.74016939999999998  -0.073346069999999999
  26    0.099917590000000001  0.30053469999999999  0.31242259999999999
  27    -0.042227290000000001  -0.076684440000000006  0.99290069999999997
  28    -0.34469230000000001  -0.29050969999999998  -0.081153729999999993
  29    -0.149341  -0.45152199999999998  0.16642299999999999
  30    -0.1216342  -0.1544335  -0.1888135
  31    -0.114009  -0.35833900000000002  -0.075952099999999995
  32    -0.101546  -0.47538200000000003  0.663157
  33    -0.23683560000000001  -0.43779820000000003  0.42249589999999998
  34    -0.35860199999999998  -0.37796999999999997  0.17896999999999999
  35    -0.31610199999999999  -0.41939599999999999  0.64915299999999998
  36    -0.1957536  0.27177370000000001  0.10212450000000001
  37    -0.15878600000000001  0.075188900000000003  -0.141343
  38    -0.1004657  0.20971480000000001  0.68730429999999998
  39    -0.22691030000000001  0.13415099999999999  0.67118730000000004
  40    -0.37798959999999998  -0.050785190000000001  0.21071409999999999
  41    -0.1475515  0.32823210000000003  -0.0051700519999999996
  42    -0.16857059999999999  0.17697270000000001  -0.21305940000000001
  43    -0.32208330000000002  0.32427529999999999  -0.33322639999999998
  44    -0.2582276  0.46275620000000001  -0.53447370000000005
  45    -0.294738  -0.65581219999999996  0.722279
  46    -0.26416899999999999  0.64694600000000002  -0.36989699999999998
  47    -0.25494349999999999  0.55575509999999995  -0.1286794
  48    -0.36600749999999999  0.59538550000000001  -0.2095101
  49    -0.095659690000000006  0.8180984  -0.2252017
  50    -0.15571850000000001  0.79825740000000001  -0.33890130000000002
  51    0.2261582  -0.43340790000000001  0.3224032
  52    0.26259900000000003  -0.44657400000000003  0.21416499999999999
  53    0.34953410000000001  -0.36382049999999999  0.25035849999999998
  54    0.315996  -0.39418690000000001  0.58445689999999995
  55    0.21864900000000001  -0.47485300000000003  0.61994499999999997
  56    0.20849970000000001  -0.091266109999999998  -0.1526689
  57    0.321351  -0.15756439999999999  -0.076649900000000007
  58    0.30740519999999999  -0.043767689999999998  -0.055943619999999999
  59    0.11701549999999999  -0.01477682  -0.1883032
  60    0.26092769999999998  -0.047364610000000001  -0.1077396
  61    0.211816  -0.39473200000000003  0.92240900000000003
  62    0.2170743  -0.2466903  0.91930599999999996
  63    0.36394660000000001  -0.1014945  0.051458379999999998
  64    0.38519399999999998  -0.35120499999999999  0.030615900000000001
  65    0.37991510000000001  -0.16813429999999999  0.35407420000000001
  66    0.38842280000000001  -0.12738440000000001  0.21818080000000001
  67    0.37863029999999998  -0.069067160000000002  0.28601549999999998
  68    0.34471790000000002  -0.2883289  0.64752379999999998
  69    0.32648700000000003  -0.25111709999999998  0.79837729999999996
  70    0.35883880000000001  -0.1555135  0.58775100000000002
  71    0.2409869  0.23736460000000001  0.17343800000000001
  72    0.19569020000000001  0.1802175  0.46650809999999998
  73    0.19630929999999999  0.22619030000000001  0.36965609999999999
  74    0.2228348  0.1317246  0.70932589999999995
  75    0.2489316  0.1177245  0.56031200000000003
  76    0.1901658  0.17041419999999999  0.55800019999999995
  77    0.18581310000000001  0.19138050000000001  -0.033432829999999997
  78    0.30793310000000002  0.095347849999999998  0.087664450000000005
  79    0.25873849999999998  0.1136277  0.00025169279999999998
  80    0.15205769999999999  0.16006419999999999  -0.18325920000000001
  81    0.18174509999999999  0.2475262  -0.1029279
  82    0.17261899999999999  0.221245  -0.072210399999999994
  83    0.29487600000000003  0.38350299999999998  -0.20377300000000001
  84    0.1827676  0.12616640000000001  -0.38836700000000002
  85    0.25528879999999998  0.15083849999999999  -0.49298219999999998
  86    0.29767149999999998  0.19518289999999999  -0.44727990000000001
  87    0.2581215  0.29211369999999998  -0.63655410000000001
  88    0.24910209999999999  0.37224309999999999  -0.61520010000000003
  89    0.31459300000000001  0.32071  -0.56329200000000001
  90    0.33804600000000001  -0.68009500000000001  0.0309463
  91    0.22816500000000001  -0.69242199999999998  0.14740700000000001
  92    0.12828000000000001  -0.68970799999999999  0.024574599999999999
  93    0.23816100000000001  -0.67738200000000004  -0.091885599999999998
  94    0.229681  -0.73384199999999999  0.026689899999999999
  95    0.20055999999999999  -0.68739300000000003  0.89886299999999997
  96    0.19917599999999999  -0.69968600000000003  0.68654000000000004
  97    0.198244  -0.73678399999999999  0.79344800000000004
  98    0.0593616  -0.45807599999999998  0.79593199999999997
  99    0.102733  -0.55862500000000004  0.89627400000000002
 100    0.33248050000000001  -0.59231319999999998  0.14411270000000001
 101    0.24401999999999999  -0.52466199999999996  -0.12428500000000001
 102    0.14290610000000001  -0.61401380000000005  0.13613729999999999
 103    0.2330361  -0.63025819999999999  0.17869309999999999
 104    0.096494200000000002  -0.43490400000000001  0.034291500000000003
 105    0.10062169999999999  -0.55700309999999997  0.031875680000000003
 106    0.26611000000000001  0.58893010000000001  -0.41068460000000001
 107    0.28528229999999999  0.57155670000000003  -0.23661850000000001
 108    0.28330650000000002  0.52446170000000003  -0.26318330000000001
 109    0.2306184  0.5866152  -0.10711859999999999
 110    0.34667500000000001  0.58568940000000003  -0.19916529999999999
 111    0.42287799999999998  0.632073  -0.16866100000000001
 112    0.3504234  0.69969300000000001  -0.15063360000000001
 113    0.28711330000000002  0.59433899999999995  -0.13631399999999999
 114    0.40963460000000002  0.72266339999999996  -0.30030030000000002
 115    0.460287  0.72723599999999999  -0.177367
 116    0.033906249999999999  0.31680659999999999  0.25002530000000001
 117    0.1150636  0.31223240000000002  0.25287539999999997
 118    0.0246007  -0.34201009999999998  0.89061860000000004
 119    0.023405450000000001  -0.38205309999999998  0.83693720000000005
 120    0.095278119999999994  0.49381350000000002  0.045715850000000002
 121    0.2267971  0.58303430000000001  -0.4983978
 122    0.1330596  0.48827690000000001  -0.56558450000000005
 123    0.0073538010000000001  -0.26955430000000002  -0.15397720000000001
 124    -0.01182541  -0.1073873  -0.22037329999999999
 125    0.055847630000000002  0.04640064  -0.23039109999999999
 126    0.089691010000000002  0.10495699999999999  -0.39659280000000002
 127    0.15466579999999999  0.1707997  -0.59766220000000003
 128    0.1745275  0.12524289999999999  -0.51492669999999996
 129    0.059449790000000002  0.26030120000000001  -0.66153410000000001
 130    0.1252848  0.56245999999999996  -0.0012963
 131    0.16580500000000001  0.94298939999999998  -0.29313030000000001
 132    0.21761259999999999  0.94264440000000005  -0.283003
 133    0.1347121  0.80595039999999996  -0.33394970000000002
 134    0.36699290000000001  0.74051350000000005  -0.30095260000000001
 135    0.40120319999999998  0.7367494  -0.1741414
 136    0.11716600000000001  0.76479410000000003  -0.17212079999999999
 137    0.19239800000000001  0.8684151  -0.3318683
 138    0.20121310000000001  -0.4786012  0.41886709999999999
 139    0.1822153  -0.48321940000000002  0.48510350000000002
 140    0.086630860000000004  -0.4651343  0.63357649999999999
 141    0.17994650000000001  -0.4451041  0.2686944
 142    0.2076972  -0.001600658  0.90676789999999996
 143    -0.0047788300000000004  -0.072977009999999995  1.0035270000000001
 144    -0.26259900000000003  -0.44657400000000003  0.21416499999999999
 145    -0.21864900000000001  -0.47485300000000003  0.61994499999999997
 146    -0.24708769999999999  -0.43235440000000003  0.53219780000000005
 147    -0.22947799999999999  -0.21201100000000001  -0.13314699999999999
 148    -0.097848969999999993  -0.031032549999999999  -0.20096700000000001
 149    -0.211816  -0.39473200000000003  0.92240900000000003
 150    -0.28637980000000002  -0.21395929999999999  0.86595009999999994
 151    -0.38519399999999998  -0.35120499999999999  0.030615900000000001
 152    -0.37915219999999999  -0.24961420000000001  0.035582509999999998
 153    -0.37564360000000002  -0.27918399999999999  0.34382459999999998
 154    -0.37863029999999998  -0.069067160000000002  0.28601549999999998
 155    -0.34344599999999997  0.01490055  0.073699410000000007
 156    -0.36394660000000001  -0.1014945  0.051458379999999998
 157    -0.32901589999999997  -0.055656299999999999  0.75390000000000001
 158    -0.33405980000000002  -0.1004791  0.75839789999999996
 159    -0.35480699999999998  -0.31936340000000002  0.48975010000000002
 160    -0.20298260000000001  0.1974534  0.41178710000000002
 161    -0.1745768  0.2046462  -0.05033994
 162    -0.14722189999999999  0.2915451  0.0098172060000000002
 163    -0.1424986  0.13827709999999999  -0.18571080000000001
 164    -0.29487600000000003  0.38350299999999998  -0.20377300000000001
 165    -0.2797018  0.21733959999999999  -0.34664499999999998
 166    -0.33005319999999999  0.25148609999999999  -0.48272730000000003
 167    -0.23816100000000001  -0.67738200000000004  -0.091885599999999998
 168    -0.12828000000000001  -0.68970799999999999  0.024574599999999999
 169    -0.22816500000000001  -0.69242199999999998  0.14740700000000001
 170    -0.33804600000000001  -0.68009500000000001  0.0309463
 171    -0.229681  -0.73384199999999999  0.026689899999999999
 172    -0.19917599999999999  -0.69968600000000003  0.68654000000000004
 173    -0.1066935  -0.69393939999999998  0.81547829999999999
 174    -0.20055999999999999  -0.68739300000000003  0.89886299999999997
 175    -0.198244  -0.73678399999999999  0.79344800000000004
 176    -0.2877383  -0.61311099999999996  0.68570229999999999
 177    -0.102733  -0.55862500000000004  0.89627400000000002
 178    -0.1157926  -0.63378520000000005  0.6986137
 179    -0.0593616  -0.45807599999999998  0.79593199999999997
 180    -0.077522949999999993  -0.62652989999999997  0.79836910000000005
 181    -0.19968630000000001  -0.64445280000000005  0.65764590000000001
 182    -0.20896989999999999  -0.54082669999999999  0.93128239999999995
 183    -0.35589609999999999  -0.49464730000000001  -0.088859350000000004
 184    -0.33912100000000001  -0.546516  0.15083199999999999
 185    -0.38620510000000002  -0.50902979999999998  0.026488729999999999
 186    -0.13626659999999999  -0.58177409999999996  -0.075546199999999994
 187    -0.24401999999999999  -0.52466199999999996  -0.12428500000000001
 188    -0.096494200000000002  -0.43490400000000001  0.034291500000000003
 189    -0.28289399999999998  0.56989000000000001  -0.25728299999999998
 190    -0.41789670000000001  0.62560499999999997  -0.17308460000000001
 191    -0.20792939999999999  0.61879309999999998  -0.11268209999999999
 192    -0.460287  0.72723599999999999  -0.177367
 193    -0.45333560000000001  0.70128550000000001  -0.24908569999999999
 194    -0.02914916  0.2171101  0.73173820000000001
 195    -0.06310106  0.12735679999999999  0.88650640000000003
 196    -0.023680969999999999  -0.43989519999999999  0.092178220000000005
 197    -0.089928949999999994  0.34848020000000002  0.026746679999999998
 198    -0.1147117  0.43513279999999999  0.040541250000000001
 199    -0.04106216  0.76717109999999999  -0.44696330000000001
 200    -0.180672  0.34554940000000001  -0.65568020000000005
 201    -0.1112171  0.38060260000000001  -0.64575380000000004
 202    -0.10005459999999999  0.1065237  -0.2186852
 203    -0.1210214  0.106362  -0.46828920000000002
 204    -0.153665  0.18548899999999999  -0.61119100000000004
 205    -0.088185180000000002  0.67038370000000003  -0.067231509999999994
 206    -0.2407446  0.67171099999999995  -0.42477819999999999
 207    -0.19815160000000001  0.93853410000000004  -0.23958599999999999
 208    -0.14837629999999999  0.94306290000000004  -0.25178650000000002
 209    -0.13927129999999999  0.8044171  -0.21539
 210    -0.31874999999999998  0.7479711  -0.29359170000000001
 211    -0.18439610000000001  0.75757059999999998  -0.19111729999999999
 212    -0.066336939999999997  0.8157103  -0.37627620000000001
 213    -0.21310970000000001  0.82698760000000004  -0.28333360000000002
 214    -0.1792203  0.90014360000000004  -0.2229101
 215    -0.077260830000000003  -0.4649491  0.23502970000000001
 216    -0.1065406  -0.1066592  0.97106320000000002
 217    -0.187998  -0.17503369999999999  0.93732910000000003
 218    -0.20642160000000001  0.036143290000000002  0.88338320000000004
 219    -0.046204809999999999  0.079080419999999998  0.93158790000000002
 220    0.31720939999999997  -0.39282800000000001  0.25986490000000001
 221    0.2382232  -0.43704100000000001  0.41460970000000003
 222    0.27982269999999998  -0.42074279999999997  0.43321870000000001
 223    0.27935939999999998  -0.41286420000000001  0.31277630000000001
 224    0.2099  -0.45762199999999997  0.202318
 225    0.26679150000000001  -0.42189579999999999  0.2534534
 226    0.19481699999999999  -0.43740200000000001  0.23935799999999999
 227    0.31249500000000002  -0.42258000000000001  0.20841499999999999
 228    0.28357260000000001  -0.42010910000000001  0.57751819999999998
 229    0.31334099999999998  -0.4045549  0.42451860000000002
 230    0.26978999999999997  -0.45549299999999998  0.62400299999999997
 231    0.24708769999999999  -0.43235440000000003  0.53219780000000005
 232    0.16401099999999999  -0.48303299999999999  0.63140600000000002
 233    0.22849069999999999  -0.44620270000000001  0.583264
 234    0.29536810000000002  -0.28520099999999998  -0.11004460000000001
 235    0.21150040000000001  -0.26926440000000001  -0.12631729999999999
 236    0.27960580000000002  -0.16582939999999999  -0.11336540000000001
 237    0.34469230000000001  -0.29050969999999998  -0.081153729999999993
 238    0.119478  -0.29577599999999998  -0.113872
 239    0.19966539999999999  -0.2173156  -0.1417554
 240    0.17638300000000001  -0.34915000000000002  -0.10631
 241    0.1033135  -0.15420890000000001  -0.19567999999999999
 242    0.26538119999999998  -0.0084571230000000004  -0.08678371
 243    0.16806389999999999  -0.13272439999999999  -0.17251540000000001
 244    0.16458220000000001  0.018429029999999999  -0.15227280000000001
 245    0.19995270000000001  -0.33401039999999999  0.92303040000000003
 246    0.26887  -0.39635199999999998  0.90975200000000001
 247    0.25760880000000003  -0.2600401  0.89950799999999997
 248    0.28637980000000002  -0.21395929999999999  0.86595009999999994
 249    0.14686650000000001  -0.28212409999999999  0.93351890000000004
 250    0.1544595  -0.20582130000000001  0.94605309999999998
 251    0.149733  -0.39340000000000003  0.92033900000000002
 252    0.104904  -0.32848699999999997  0.92278099999999996
 253    0.35005730000000002  -0.1481672  -0.02084977
 254    0.37915219999999999  -0.24961420000000001  0.035582509999999998
 255    0.37351580000000001  -0.30992199999999998  -0.032879600000000002
 256    0.38419819999999999  -0.251556  0.2024717
 257    0.38027090000000002  -0.1695477  0.1137725
 258    0.37917600000000001  -0.36408600000000002  0.102343
 259    0.38225229999999999  -0.27357779999999998  0.095564060000000006
 260    0.37424089999999999  -0.3161022  0.1812897
 261    0.37564360000000002  -0.27918399999999999  0.34382459999999998
 262    0.36511749999999998  -0.1097287  0.4550303
 263    0.37798959999999998  -0.050785190000000001  0.21071409999999999
 264    0.34486670000000003  -0.0043546269999999998  0.050861780000000002
 265    0.37568580000000001  -0.053556149999999997  0.13379650000000001
 266    0.33876800000000001  -0.05180502  -0.0012324110000000001
 267    0.3429798  -0.38056950000000001  0.77667540000000002
 268    0.3347599  -0.36753999999999998  0.83424750000000003
 269    0.33471600000000001  -0.36029800000000001  0.65417599999999998
 270    0.34096369999999998  -0.31839869999999998  0.7175494
 271    0.33593299999999998  -0.41481299999999999  0.71601400000000004
 272    0.28229019999999999  -0.070732710000000004  0.86057899999999998
 273    0.31344630000000001  -0.056130119999999999  0.80076919999999996
 274    0.31144949999999999  -0.1180389  0.81740469999999998
 275    0.33655550000000001  -0.084340310000000002  0.74855119999999997
 276    0.34832659999999999  -0.032463600000000002  0.44900509999999999
 277    0.35384549999999998  -0.1043915  0.64604950000000005
 278    0.36556889999999997  -0.25065300000000001  0.46378999999999998
 279    0.35480699999999998  -0.31936340000000002  0.48975010000000002
 280    0.33656330000000001  -0.35897420000000002  0.56771099999999997
 281    0.35156169999999998  -0.35552420000000001  0.42258030000000002
 282    0.35148580000000001  -0.28860950000000002  0.57531489999999996
 283    0.27578659999999999  0.17112569999999999  0.12784229999999999
 284    0.1924063  0.28788029999999998  0.1743469
 285    0.1957536  0.27177370000000001  0.10212450000000001
 286    0.20668919999999999  0.2633394  0.27535399999999999
 287    0.16093660000000001  0.30454130000000001  0.2251898
 288    0.26334970000000002  0.1598705  0.32259389999999999
 289    0.2616462  0.2036009  0.19919880000000001
 290    0.24151210000000001  0.14149900000000001  0.44252140000000001
 291    0.2143005  0.1079495  0.79500300000000002
 292    0.1416888  0.1881311  0.71761969999999997
 293    0.14885290000000001  0.1458227  0.8146274
 294    0.14449139999999999  0.2025914  0.50300480000000003
 295    0.34938229999999998  0.019687989999999999  0.26042209999999999
 296    0.30541600000000002  0.054098460000000001  0.4513683
 297    0.31278329999999999  0.01753654  0.69819310000000001
 298    0.29514099999999999  0.023803979999999999  0.76059730000000003
 299    0.22342970000000001  0.069822739999999994  0.83763399999999999
 300    0.26112560000000001  0.01186657  0.84706999999999999
 301    0.1818244  0.11930449999999999  -0.092861349999999995
 302    0.2219534  0.098938890000000002  -0.060114819999999999
 303    0.2448525  0.1888917  0.067643809999999999
 304    0.31743939999999998  0.024125319999999999  0.60871220000000004
 305    0.33992539999999999  0.047335790000000003  0.17900070000000001
 306    0.30870819999999999  0.10316359999999999  0.25505460000000002
 307    0.149034  0.119255  -0.15276699999999999
 308    0.16872500000000001  0.15851899999999999  -0.103729
 309    0.168374  0.19118969999999999  -0.1351985
 310    0.1521864  0.31155090000000002  -0.016581749999999999
 311    0.1713122  0.28103139999999999  -0.05314936
 312    0.15240139999999999  0.2879063  0.02549237
 313    0.1714485  0.2479393  -0.003549712
 314    0.25076680000000001  0.29714689999999999  -0.17196069999999999
 315    0.20715239999999999  0.23418159999999999  -0.17910609999999999
 316    0.32208330000000002  0.32427529999999999  -0.33322639999999998
 317    0.26032349999999999  0.36789179999999999  -0.12228029999999999
 318    0.30165639999999999  0.28941289999999997  -0.29504970000000003
 319    0.2189556  0.33856419999999998  -0.080260289999999998
 320    0.23952190000000001  0.14941869999999999  -0.4137537
 321    0.2797018  0.21733959999999999  -0.34664499999999998
 322    0.23423840000000001  0.19665170000000001  -0.29405199999999998
 323    0.27085379999999998  0.18915499999999999  -0.56587069999999995
 324    0.3032591  0.20468410000000001  -0.53292309999999998
 325    0.33005319999999999  0.25148609999999999  -0.48272730000000003
 326    0.31170999999999999  0.23580400000000001  -0.406418
 327    0.32674999999999998  0.28002700000000003  -0.53593299999999999
 328    0.32267469999999998  0.35983880000000001  -0.4958147
 329    0.33414369999999999  0.32009149999999997  -0.45911999999999997
 330    0.27251599999999998  0.23958199999999999  -0.609537
 331    0.28848059999999998  0.31006299999999998  -0.61189510000000003
 332    0.30729499999999998  0.25670700000000002  -0.57883499999999999
 333    0.29524499999999998  0.43676199999999998  -0.48418699999999998
 334    0.25794470000000003  0.46326990000000001  -0.53456789999999998
 335    0.29261730000000002  0.37106509999999998  -0.57090629999999998
 336    0.33504699999999998  -0.66747000000000001  -0.026193999999999999
 337    0.28831299999999999  -0.71953  0.029200199999999999
 338    0.23366700000000001  -0.71838299999999999  -0.039468200000000002
 339    0.288912  -0.66627899999999995  -0.083198099999999997
 340    0.28852299999999997  -0.70492699999999997  -0.032990100000000001
 341    0.27615200000000001  -0.679477  0.14116000000000001
 342    0.22744200000000001  -0.72474099999999997  0.093385200000000002
 343    0.327044  -0.67406600000000005  0.087282499999999999
 344    0.28116099999999999  -0.710704  0.091075799999999998
 345    0.1286824  -0.67578210000000005  0.080049519999999999
 346    0.17279600000000001  -0.72359399999999996  0.0247169
 347    0.17409169999999999  -0.68569199999999997  0.13133449999999999
 348    0.17619099999999999  -0.71615099999999998  0.085786399999999999
 349    0.13655200000000001  -0.67510999999999999  -0.0280042
 350    0.17963299999999999  -0.708233  -0.035026700000000001
 351    0.25632110000000002  -0.6733401  0.88691799999999998
 352    0.19889599999999999  -0.72333499999999995  0.85192999999999997
 353    0.248642  -0.72451900000000002  0.79089500000000001
 354    0.288217  -0.67943500000000001  0.83837899999999999
 355    0.24683099999999999  -0.71191199999999999  0.84543199999999996
 356    0.10698439999999999  -0.69427399999999995  0.81774729999999995
 357    0.14866099999999999  -0.72734699999999997  0.79562600000000006
 358    0.14353949999999999  -0.69632130000000003  0.87313189999999996
 359    0.198408  -0.72853199999999996  0.73459099999999999
 360    0.15304699999999999  -0.72055499999999995  0.74140099999999998
 361    0.2909428  -0.68975949999999997  0.76893409999999995
 362    0.24088000000000001  -0.68868200000000002  0.69162800000000002
 363    0.24443400000000001  -0.71648299999999998  0.73635799999999996
 364    0.33918199999999998  -0.54016070000000005  0.78540580000000004
 365    0.30391000000000001  -0.49806600000000001  0.668956
 366    0.32659949999999999  -0.5455004  0.72488739999999996
 367    0.3116778  -0.52543580000000001  0.89098129999999998
 368    0.33506340000000001  -0.53299350000000001  0.84268609999999999
 369    0.31973200000000002  -0.63345399999999996  0.78642800000000002
 370    0.29419699999999999  -0.61897400000000002  0.88446899999999995
 371    0.315639  -0.62567300000000003  0.83949600000000002
 372    0.2877383  -0.61311099999999996  0.68570229999999999
 373    0.294738  -0.65581219999999996  0.722279
 374    0.077358910000000003  -0.56430080000000005  0.85276269999999998
 375    0.106684  -0.534636  0.68287399999999998
 376    0.069956000000000004  -0.47421999999999997  0.73529199999999995
 377    0.082880220000000004  -0.58631750000000005  0.73917279999999996
 378    0.077522949999999993  -0.62652989999999997  0.79836910000000005
 379    0.1157926  -0.63378520000000005  0.6986137
 380    0.1073732  -0.68379259999999997  0.74808180000000002
 381    0.096693940000000006  -0.6303858  0.86848619999999999
 382    0.208287  -0.52834999999999999  0.63722299999999998
 383    0.26065100000000002  -0.51361800000000002  0.64239800000000002
 384    0.19968630000000001  -0.64445280000000005  0.65764590000000001
 385    0.24519560000000001  -0.63173060000000003  0.66226229999999997
 386    0.15611710000000001  -0.64141630000000005  0.66882560000000002
 387    0.153645  -0.53497799999999995  0.65048899999999998
 388    0.20896989999999999  -0.54082669999999999  0.93128239999999995
 389    0.1494963  -0.540883  0.92386579999999996
 390    0.20343600000000001  -0.62816899999999998  0.92307099999999997
 391    0.153584  -0.62526099999999996  0.91471599999999997
 392    0.25355100000000003  -0.62293900000000002  0.91265799999999997
 393    0.26485409999999998  -0.53526260000000003  0.92078749999999998
 394    0.34856100000000001  -0.46405400000000002  0.158716
 395    0.38620510000000002  -0.50902979999999998  0.026488729999999999
 396    0.37317159999999999  -0.51645220000000003  0.096181459999999996
 397    0.36823600000000001  -0.61497599999999997  0.0306267
 398    0.35478599999999999  -0.61485100000000004  0.090429800000000005
 399    0.33925490000000003  -0.6043925  -0.078409670000000001
 400    0.36408699999999999  -0.60561399999999999  -0.029681300000000001
 401    0.35589609999999999  -0.49464730000000001  -0.088859350000000004
 402    0.3811312  -0.49958229999999998  -0.037510719999999997
 403    0.2392975  -0.34136569999999999  -0.11794540000000001
 404    0.12703999999999999  -0.44809900000000003  -0.073578500000000005
 405    0.17913899999999999  -0.43624800000000002  -0.106528
 406    0.30679380000000001  -0.50425629999999999  -0.1180475
 407    0.241923  -0.60985900000000004  -0.117359
 408    0.296601  -0.60296700000000003  -0.109127
 409    0.13626659999999999  -0.58177409999999996  -0.075546199999999994
 410    0.1846324  -0.58905099999999999  -0.1081288
 411    0.148115  -0.51256299999999999  0.14992900000000001
 412    0.18493009999999999  -0.62717529999999999  0.1664957
 413    0.25113000000000002  -0.502745  0.19709399999999999
 414    0.19617699999999999  -0.51176900000000003  0.18354599999999999
 415    0.28472500000000001  -0.61403149999999995  0.1724465
 416    0.30435699999999999  -0.48421599999999998  0.18995600000000001
 417    0.10596319999999999  -0.53632100000000005  -0.027453330000000001
 418    0.095370099999999999  -0.405611  -0.021478199999999999
 419    0.106751  -0.633108  0.0275567
 420    0.114552  -0.619641  -0.026739200000000001
 421    0.112515  -0.45191900000000002  0.093568799999999994
 422    0.1145835  -0.57108230000000004  0.093651639999999994
 423    0.27118399999999998  0.52575899999999998  -0.46007900000000002
 424    0.27900750000000002  0.550701  -0.3472093
 425    0.29139100000000001  0.47850700000000002  -0.41852699999999998
 426    0.278055  0.60076499999999999  -0.320108
 427    0.26893929999999999  0.52014340000000003  -0.17284479999999999
 428    0.27658919999999998  0.56032219999999999  -0.16699430000000001
 429    0.29850900000000002  0.42752200000000001  -0.23628199999999999
 430    0.23707220000000001  0.50134920000000005  -0.076442780000000002
 431    0.27092339999999998  0.42274430000000002  -0.1237743
 432    0.32190609999999997  0.38235130000000001  -0.36030669999999998
 433    0.32645200000000002  0.64530900000000002  -0.13850399999999999
 434    0.2646849  0.62360349999999998  -0.12974949999999999
 435    0.36172840000000001  0.59666810000000003  -0.16992389999999999
 436    0.39767239999999998  0.61009679999999999  -0.19480259999999999
 437    0.38032100000000002  0.61856999999999995  -0.15241299999999999
 438    0.42199579999999998  0.65652109999999997  -0.14956120000000001
 439    0.28588000000000002  0.662049  -0.34908899999999998
 440    0.36310249999999999  0.63220980000000004  -0.29297230000000002
 441    0.29489080000000001  0.60755329999999996  -0.29363040000000001
 442    0.35874850000000003  0.67357040000000001  -0.32797270000000001
 443    0.337287  0.59211619999999998  -0.23726559999999999
 444    0.45333560000000001  0.70128550000000001  -0.24908569999999999
 445    0.41794559999999997  0.67335  -0.28022829999999999
 446    0.44942530000000003  0.74942920000000002  -0.2265809
 447    0.47129929999999998  0.72086589999999995  -0.212148
 448    0.44728899999999999  0.65595599999999998  -0.19680300000000001
 449    0.43184159999999999  0.69879729999999995  -0.15171470000000001
 450    0.460337  0.68144800000000005  -0.17324999999999999
 451    0.40082760000000001  0.623417  -0.23721100000000001
 452    -0.056128289999999997  0.32185200000000003  0.21758640000000001
 453    0.076693289999999997  0.3231599  0.1544267
 454    0.02108084  0.23066890000000001  0.5087547
 455    0.054007569999999998  0.22050069999999999  0.68870489999999995
 456    -0.018410559999999999  0.22607140000000001  0.65098149999999999
 457    0.093677209999999997  0.2263734  0.4827823
 458    0.1191712  0.20759130000000001  0.58567800000000003
 459    0.033682440000000001  0.18480650000000001  0.81286510000000001
 460    0.069727810000000001  0.20154330000000001  0.75906569999999995
 461    0.06310106  0.12735679999999999  0.88650640000000003
 462    -1.193584e-16  0.14396980000000001  0.87707939999999995
 463    0.07476592  0.16508110000000001  0.83495129999999995
 464    0.0025140689999999999  -0.40997499999999998  0.0047706110000000001
 465    0.01373219  -0.32617360000000001  -0.098048120000000002
 466    0.072935799999999995  -0.37405339999999998  -0.027582909999999999
 467    0.082795289999999994  -0.41808450000000003  0.049337689999999997
 468    0.02862135  -0.42175849999999998  0.76013220000000004
 469    0.047247629999999999  -0.42886930000000001  0.78600559999999997
 470    0.057697400000000003  -0.36046899999999998  0.89382200000000001
 471    0.057979660000000002  -0.4098657  0.84986899999999999
 472    0.027382569999999998  0.2505192  0.43535790000000002
 473    0.1065851  0.27589039999999998  0.3643556
 474    0.13535530000000001  0.2283222  0.444025
 475    0.070578879999999997  0.32551950000000002  0.07234235
 476    0.070590299999999995  0.3341713  0.04423216
 477    0.1197138  0.31559490000000001  0.02860501
 478    0.1300926  0.30823260000000002  0.086673020000000003
 479    0.1147117  0.43513279999999999  0.040541250000000001
 480    0.057586119999999998  0.44128060000000002  0.05513009
 481    0.075074150000000006  0.35119099999999998  0.031877179999999998
 482    0.1667003  0.42134349999999998  0.0133107
 483    0.12796730000000001  0.33788869999999999  0.0088062390000000004
 484    0.10470740000000001  0.59383989999999998  -0.52186679999999996
 485    0.045653039999999999  0.51411240000000002  -0.55851569999999995
 486    0.073699589999999995  0.76056659999999998  -0.44677339999999999
 487    0.043587130000000002  0.71038650000000003  -0.4788444
 488    0.2273414  0.65889850000000005  -0.46533829999999998
 489    0.16923369999999999  0.67661990000000005  -0.477188
 490    0.19933899999999999  0.4990579  -0.5443867
 491    0.13994590000000001  0.3579464  -0.65715199999999996
 492    0  0.34216760000000002  -0.66570019999999996
 493    0.074320540000000004  0.38016850000000002  -0.64656849999999999
 494    0.054864400000000001  0.4548026  -0.59391389999999999
 495    0.199873  0.404748  -0.61293500000000001
 496    0.19424469999999999  0.35050209999999998  -0.64981909999999998
 497    0.015716649999999999  -0.2051982  0.96985250000000001
 498    0.065780959999999999  -0.30557909999999999  0.92889580000000005
 499    0.1121709  -0.25910050000000001  -0.14142940000000001
 500    0.074640559999999995  -0.19952880000000001  -0.18999369999999999
 501    0.0796433  -0.30481900000000001  -0.108871
 502    0.050214719999999997  -0.029773870000000001  -0.22356500000000001
 503    -0.00029544629999999998  0.032016389999999999  -0.2395835
 504    0.14743039999999999  0.060234389999999999  -0.1584132
 505    0.0016036410000000001  0.095207130000000001  -0.25877329999999998
 506    0.095637029999999998  0.10386769999999999  -0.22185179999999999
 507    0.040473460000000003  0.094958260000000003  -0.25112679999999998
 508    -0.024784319999999999  0.1175558  -0.29010269999999999
 509    0.046327430000000003  0.12220300000000001  -0.29021849999999999
 510    0.11190650000000001  0.13006690000000001  -0.23459070000000001
 511    0.12452100000000001  0.1395527  -0.28061239999999998
 512    0.19537599999999999  0.1215408  -0.45580730000000003
 513    0.053216899999999998  0.12596080000000001  -0.53839150000000002
 514    0.1210214  0.106362  -0.46828920000000002
 515    1.264083e-16  0.1070097  -0.49149690000000001
 516    0.060892960000000003  0.18200910000000001  -0.6155931
 517    0.058110910000000002  0.15068280000000001  -0.57982599999999995
 518    0.22059309999999999  0.1760659  -0.5842136
 519    0.061011570000000001  0.2194488  -0.64344420000000002
 520    0.15618029999999999  0.24449370000000001  -0.65098659999999997
 521    0.1135907  0.30267359999999999  -0.66830100000000003
 522    0.20976690000000001  0.28450829999999999  -0.65382779999999996
 523    0.21995000000000001  0.22864799999999999  -0.62868500000000005
 524    0.069453260000000003  0.57474650000000005  0.019111989999999999
 525    0.002041312  0.56959369999999998  0.034852019999999997
 526    0.18270210000000001  0.47849520000000001  0.0024185840000000001
 527    0.19797799999999999  0.57210660000000002  -0.069390380000000002
 528    0.12609600000000001  0.69557000000000002  -0.12707099999999999
 529    0.098746600000000004  0.65678599999999998  -0.062447000000000003
 530    0.18299409999999999  0.64882740000000005  -0.1233839
 531    0  0.67221900000000001  -0.0228265
 532    0.043772539999999999  0.69952309999999995  -0.056520479999999998
 533    0.2541448  0.59626270000000003  -0.46629229999999999
 534    0.20968990000000001  0.72493459999999998  -0.42081940000000001
 535    0.2407446  0.67171099999999995  -0.42477819999999999
 536    0.21023330000000001  0.91257149999999998  -0.31614340000000002
 537    0.1649593  0.95348540000000004  -0.25550440000000002
 538    0.16861490000000001  0.79267279999999996  -0.33475149999999998
 539    0.18640809999999999  0.77771570000000001  -0.31023669999999998
 540    0.19903290000000001  0.7725976  -0.26428269999999998
 541    0.19539970000000001  0.78622170000000002  -0.23716619999999999
 542    0.1480223  0.81625060000000005  -0.21734419999999999
 543    0.14696039999999999  0.79212740000000004  -0.20608460000000001
 544    0.1081129  0.81425910000000001  -0.218666
 545    0.089247380000000001  0.82093899999999997  -0.28906500000000002
 546    0.086933140000000006  0.82085140000000001  -0.23322029999999999
 547    0.2401634  0.76168800000000003  -0.2349435
 548    0.20636299999999999  0.76407749999999997  -0.21728210000000001
 549    0.28922120000000001  0.75560850000000002  -0.27061259999999998
 550    0.25013020000000002  0.73369059999999997  -0.31567869999999998
 551    0.37693260000000001  0.76130540000000002  -0.21970000000000001
 552    0.38966869999999998  0.76026229999999995  -0.25507380000000002
 553    0.32079859999999999  0.70485949999999997  -0.33471269999999997
 554    0.25633149999999999  0.70741529999999997  -0.34991489999999997
 555    0.1947209  0.75507270000000004  -0.1915964
 556    0.24845819999999999  0.70122839999999997  -0.15901589999999999
 557    0.27769159999999998  0.75171310000000002  -0.19208610000000001
 558    0.02457434  0.81509569999999998  -0.1887847
 559    -0.0044791570000000001  0.80300850000000001  -0.1586147
 560    0.038549979999999998  0.78154279999999998  -0.13661219999999999
 561    0.077168799999999996  0.74413399999999996  -0.128582
 562    0.048588109999999997  0.82953920000000003  -0.3203878
 563    0.1171893  0.80543039999999999  -0.37395479999999998
 564    0.1774705  0.77552900000000002  -0.38047249999999999
 565    0.16542080000000001  0.76764980000000005  -0.41137259999999998
 566    0.23101060000000001  0.72943840000000004  -0.35050219999999999
 567    0.2275981  0.88160459999999996  -0.2854371
 568    0.12038310000000001  0.89037889999999997  -0.28594399999999998
 569    0.17290349999999999  0.90101100000000001  -0.32405600000000001
 570    0.1348713  0.89694680000000004  -0.223217
 571    0.12760160000000001  0.91732820000000004  -0.25159819999999999
 572    0.18188509999999999  0.93523520000000004  -0.2291648
 573    0.21210599999999999  0.89866970000000002  -0.23529040000000001
 574    0.21380270000000001  0.86216060000000005  -0.24335789999999999
 575    0.21018329999999999  -0.44458979999999998  0.51042940000000003
 576    0.1475282  -0.45794950000000001  0.5940415
 577    0.056506210000000001  -0.45014749999999998  0.69390059999999998
 578    0.1334931  -0.44349490000000003  0.19437499999999999
 579    0.10690429999999999  -0.44038509999999997  0.1336319
 580    0.1411645  -0.45098870000000002  0.24292259999999999
 581    0.026568899999999999  -0.44816220000000001  0.1487445
 582    0.026043960000000001  -0.46279029999999999  0.21083489999999999
 583    0.19584289999999999  -0.47277770000000002  0.3692317
 584    0.0066793019999999998  -0.47131250000000002  0.63940079999999999
 585    0.027117140000000001  -0.53338989999999997  0.41550599999999999
 586    0.01276309  -0.528285  0.4884599
 587    0.087354619999999994  -0.50505330000000004  0.53350189999999997
 588    0.1322971  -0.51163040000000004  0.4165161
 589    0.096235329999999994  -0.5194877  0.47316930000000001
 590    0.019850050000000001  -0.52274779999999998  0.36054900000000001
 591    0.00014454889999999999  -0.49903920000000002  0.29379919999999998
 592    0.1034404  -0.48684490000000002  0.30239260000000001
 593    0.12104620000000001  -0.50442739999999997  0.36342970000000002
 594    0.086229020000000003  -0.088542170000000003  0.97953939999999995
 595    0.23214380000000001  -0.1573753  0.91235549999999999
 596    0.23558229999999999  -0.0614525  0.905802
 597    0.15989539999999999  -0.046967769999999999  0.95541290000000001
 598    0.1584004  0.059881110000000001  0.90076650000000003
 599    0.13228039999999999  -0.02036073  0.96084259999999999
 600    0.0013236070000000001  0.019169849999999999  0.97668860000000002
 601    0.051915389999999999  0.0047955469999999998  0.9788675
 602    0.084785269999999996  0.076997250000000003  0.92244729999999997
 603    0.030587219999999998  0.093618489999999999  0.92372449999999995
 604    0.070399320000000001  -0.2065642  0.96433829999999998
 605    0.03115627  -0.079358890000000001  0.99129500000000004
 606    0.071271100000000004  -0.068696859999999998  0.98892020000000003
 607    0.10054299999999999  -0.036935990000000002  0.98334549999999998
 608    -0.0060434620000000003  -0.038531679999999999  1.024154
 609    0.053150639999999999  -0.056136699999999998  1.026044
 610    0.018202320000000001  -0.065796350000000003  1.0472429999999999
 611    0.038593599999999999  -0.089557979999999995  1.020502
 612    -0.01076446  -0.099979150000000003  1.0333319999999999
 613    -0.3356094  -0.38511780000000001  0.42543999999999998
 614    -0.31249500000000002  -0.42258000000000001  0.20841499999999999
 615    -0.34953410000000001  -0.36382049999999999  0.25035849999999998
 616    -0.31720939999999997  -0.39282800000000001  0.25986490000000001
 617    -0.19853299999999999  -0.43671389999999999  0.2435436
 618    -0.27935939999999998  -0.41286420000000001  0.31277630000000001
 619    -0.2099  -0.45762199999999997  0.202318
 620    -0.26679150000000001  -0.42189579999999999  0.2534534
 621    -0.27982269999999998  -0.42074279999999997  0.43321870000000001
 622    -0.31334099999999998  -0.4045549  0.42451860000000002
 623    -0.21018329999999999  -0.44458979999999998  0.51042940000000003
 624    -0.16401099999999999  -0.48303299999999999  0.63140600000000002
 625    -0.236564  -0.44422800000000001  0.584476
 626    -0.15831980000000001  -0.45843430000000002  0.59435939999999998
 627    -0.31583270000000002  -0.39421200000000001  0.58401009999999998
 628    -0.26978999999999997  -0.45549299999999998  0.62400299999999997
 629    -0.28357260000000001  -0.42010910000000001  0.57751819999999998
 630    -0.21150040000000001  -0.26926440000000001  -0.12631729999999999
 631    -0.29536810000000002  -0.28520099999999998  -0.11004460000000001
 632    -0.321351  -0.15756439999999999  -0.076649900000000007
 633    -0.27960580000000002  -0.16582939999999999  -0.11336540000000001
 634    -0.14923639999999999  -0.23978650000000001  -0.14468339999999999
 635    -0.17638300000000001  -0.34915000000000002  -0.10631
 636    -0.119478  -0.29577599999999998  -0.113872
 637    -0.27070840000000002  0.02874299  -0.058008209999999998
 638    -0.1999785  0.050100440000000003  -0.1119291
 639    -0.30747639999999998  -0.026788659999999999  -0.048776430000000003
 640    -0.1687813  0.017156660000000001  -0.15021290000000001
 641    -0.1979997  -0.10929129999999999  -0.16076389999999999
 642    -0.26816410000000002  -0.047020439999999997  -0.1007984
 643    -0.26542169999999998  -0.3269571  0.90427519999999995
 644    -0.31208989999999998  -0.36959979999999998  0.87790820000000003
 645    -0.10696120000000001  -0.31804320000000003  0.92595890000000003
 646    -0.149733  -0.39340000000000003  0.92033900000000002
 647    -0.18655469999999999  -0.31270799999999999  0.92474279999999998
 648    -0.20928430000000001  -0.24278449999999999  0.92270730000000001
 649    -0.2509247  -0.20270070000000001  0.89849429999999997
 650    -0.37351580000000001  -0.30992199999999998  -0.032879600000000002
 651    -0.37424089999999999  -0.3161022  0.1812897
 652    -0.38225229999999999  -0.27357779999999998  0.095564060000000006
 653    -0.37917600000000001  -0.36408600000000002  0.102343
 654    -0.38027090000000002  -0.1695477  0.1137725
 655    -0.35005730000000002  -0.1481672  -0.02084977
 656    -0.35156169999999998  -0.35552420000000001  0.42258030000000002
 657    -0.36556889999999997  -0.25065300000000001  0.46378999999999998
 658    -0.38419819999999999  -0.251556  0.2024717
 659    -0.38842280000000001  -0.12738440000000001  0.21818080000000001
 660    -0.37991510000000001  -0.16813429999999999  0.35407420000000001
 661    -0.33798050000000002  -0.03368442  0.0060408129999999999
 662    -0.37568580000000001  -0.053556149999999997  0.13379650000000001
 663    -0.3347599  -0.36753999999999998  0.83424750000000003
 664    -0.3429798  -0.38056950000000001  0.77667540000000002
 665    -0.33459709999999998  -0.27544059999999998  0.76726220000000001
 666    -0.34526859999999998  -0.2967032  0.6349032
 667    -0.34079029999999999  -0.28872979999999998  0.71350159999999996
 668    -0.33593299999999998  -0.41481299999999999  0.71601400000000004
 669    -0.33644420000000003  -0.35666639999999999  0.66282680000000005
 670    -0.31004080000000001  -0.10307910000000001  0.81972310000000004
 671    -0.34696709999999997  -0.070346049999999993  0.67360430000000004
 672    -0.34675410000000001  -0.13963420000000001  0.70155400000000001
 673    -0.33214329999999997  -0.2185462  0.75866639999999996
 674    -0.35361419999999999  -0.19750029999999999  0.62110909999999997
 675    -0.31168030000000002  -0.2182798  0.82154879999999997
 676    -0.36511749999999998  -0.1097287  0.4550303
 677    -0.3577032  -0.1130159  0.59643380000000001
 678    -0.3365321  -0.35832419999999998  0.57056519999999999
 679    -0.27376139999999999  0.18036559999999999  0.1558263
 680    -0.24590200000000001  0.22786909999999999  0.2186236
 681    -0.19404399999999999  0.27422950000000001  0.27412449999999999
 682    -0.17393700000000001  0.29579499999999997  0.15179500000000001
 683    -0.2152481  0.26894269999999998  0.17759800000000001
 684    -0.24267230000000001  0.1529093  0.40809640000000003
 685    -0.13453780000000001  0.21668509999999999  0.47127740000000001
 686    -0.17145820000000001  0.25739430000000002  0.35122979999999998
 687    -0.19709099999999999  0.17716960000000001  0.47393289999999999
 688    -0.22966429999999999  0.22209400000000001  0.30288209999999999
 689    -0.27908650000000002  0.13335610000000001  0.3230172
 690    -0.21826390000000001  0.1220309  0.75595889999999999
 691    -0.25489650000000003  0.05487765  0.80986400000000003
 692    -0.13006429999999999  0.15715470000000001  0.81369670000000005
 693    -0.15942919999999999  0.11521430000000001  0.85052810000000001
 694    -0.087184810000000001  0.19902230000000001  0.75664560000000003
 695    -0.15381510000000001  0.18534030000000001  0.70090249999999998
 696    -0.2364569  0.1357218  0.5008901
 697    -0.1610452  0.18947259999999999  0.54553779999999996
 698    -0.33667760000000002  0.029730179999999998  0.32754440000000001
 699    -0.31035940000000001  0.016910069999999999  0.71562170000000003
 700    -0.29094360000000002  -0.021489350000000001  0.82768870000000005
 701    -0.2349185  0.1636676  0.01719174
 702    -0.18651809999999999  0.13265109999999999  -0.077694139999999995
 703    -0.29940440000000001  0.066047190000000006  0.017543070000000001
 704    -0.25813930000000002  0.1828456  0.086994840000000004
 705    -0.30119069999999998  0.045498280000000002  0.64869929999999998
 706    -0.30541600000000002  0.054098460000000001  0.4513683
 707    -0.34832659999999999  -0.032463600000000002  0.44900509999999999
 708    -0.34325519999999998  -0.034683600000000002  0.6045315
 709    -0.34835339999999998  0.030043650000000002  0.21442020000000001
 710    -0.168374  0.19118969999999999  -0.1351985
 711    -0.16031029999999999  0.13189970000000001  -0.1333473
 712    -0.1714485  0.2479393  -0.003549712
 713    -0.17899180000000001  0.26422909999999999  -0.077033850000000001
 714    -0.20715239999999999  0.23418159999999999  -0.17910609999999999
 715    -0.25076680000000001  0.29714689999999999  -0.17196069999999999
 716    -0.23423840000000001  0.19665170000000001  -0.29405199999999998
 717    -0.2189556  0.33856419999999998  -0.080260289999999998
 718    -0.27092339999999998  0.42274430000000002  -0.1237743
 719    -0.22386059999999999  0.42696400000000001  -0.033131420000000002
 720    -0.26032349999999999  0.36789179999999999  -0.12228029999999999
 721    -0.30165639999999999  0.28941289999999997  -0.29504970000000003
 722    -0.29767149999999998  0.19518289999999999  -0.44727990000000001
 723    -0.31170999999999999  0.23580400000000001  -0.406418
 724    -0.27085379999999998  0.18915499999999999  -0.56587069999999995
 725    -0.25528879999999998  0.15083849999999999  -0.49298219999999998
 726    -0.3032591  0.20468410000000001  -0.53292309999999998
 727    -0.2008279  0.14005300000000001  -0.37139660000000002
 728    -0.19537599999999999  0.1215408  -0.45580730000000003
 729    -0.23952190000000001  0.14941869999999999  -0.4137537
 730    -0.32302160000000002  0.36020099999999999  -0.49167569999999999
 731    -0.33205230000000002  0.29013159999999999  -0.51746550000000002
 732    -0.29524499999999998  0.43676199999999998  -0.48418699999999998
 733    -0.29539900000000002  0.39544299999999999  -0.54006699999999996
 734    -0.246645  0.31282700000000002  -0.64033700000000005
 735    -0.2821999  0.2866534  -0.62060249999999995
 736    -0.24937119999999999  0.37201719999999999  -0.61513879999999999
 737    -0.29865789999999998  0.32996910000000002  -0.59496839999999995
 738    -0.27251599999999998  0.23958199999999999  -0.609537
 739    -0.30729499999999998  0.25670700000000002  -0.57883499999999999
 740    -0.288912  -0.66627899999999995  -0.083198099999999997
 741    -0.23366700000000001  -0.71838299999999999  -0.039468200000000002
 742    -0.28831299999999999  -0.71953  0.029200199999999999
 743    -0.33504699999999998  -0.66747000000000001  -0.026193999999999999
 744    -0.28852299999999997  -0.70492699999999997  -0.032990100000000001
 745    -0.13655200000000001  -0.67510999999999999  -0.0280042
 746    -0.17279600000000001  -0.72359399999999996  0.0247169
 747    -0.17673030000000001  -0.66816690000000001  -0.076998929999999993
 748    -0.17963299999999999  -0.708233  -0.035026700000000001
 749    -0.18276600000000001  -0.68731200000000003  0.135767
 750    -0.22744200000000001  -0.72474099999999997  0.093385200000000002
 751    -0.17619099999999999  -0.71615099999999998  0.085786399999999999
 752    -0.327044  -0.67406600000000005  0.087282499999999999
 753    -0.27615200000000001  -0.679477  0.14116000000000001
 754    -0.28116099999999999  -0.710704  0.091075799999999998
 755    -0.288217  -0.67943500000000001  0.83837899999999999
 756    -0.248642  -0.72451900000000002  0.79089500000000001
 757    -0.19889599999999999  -0.72333499999999995  0.85192999999999997
 758    -0.24610000000000001  -0.67820499999999995  0.88950799999999997
 759    -0.24683099999999999  -0.71191199999999999  0.84543199999999996
 760    -0.24088000000000001  -0.68868200000000002  0.69162800000000002
 761    -0.198408  -0.72853199999999996  0.73459099999999999
 762    -0.29058299999999998  -0.69144839999999996  0.77148850000000002
 763    -0.24443400000000001  -0.71648299999999998  0.73635799999999996
 764    -0.1073732  -0.68379259999999997  0.74808180000000002
 765    -0.14866099999999999  -0.72734699999999997  0.79562600000000006
 766    -0.14940339999999999  -0.69338659999999996  0.7015169
 767    -0.15304699999999999  -0.72055499999999995  0.74140099999999998
 768    -0.14787  -0.67798930000000002  0.88981750000000004
 769    -0.15182899999999999  -0.71393200000000001  0.84914599999999996
 770    -0.30391000000000001  -0.49806600000000001  0.668956
 771    -0.33918199999999998  -0.54016070000000005  0.78540580000000004
 772    -0.32659949999999999  -0.5455004  0.72488739999999996
 773    -0.31973200000000002  -0.63345399999999996  0.78642800000000002
 774    -0.29259380000000001  -0.62471679999999996  0.88336550000000003
 775    -0.315639  -0.62567300000000003  0.83949600000000002
 776    -0.3116778  -0.52543580000000001  0.89098129999999998
 777    -0.33506340000000001  -0.53299350000000001  0.84268609999999999
 778    -0.096919400000000003  -0.47877799999999998  0.89749500000000004
 779    -0.077358910000000003  -0.56430080000000005  0.85276269999999998
 780    -0.057979660000000002  -0.4098657  0.84986899999999999
 781    -0.096693940000000006  -0.6303858  0.86848619999999999
 782    -0.069956000000000004  -0.47421999999999997  0.73529199999999995
 783    -0.106684  -0.534636  0.68287399999999998
 784    -0.082880220000000004  -0.58631750000000005  0.73917279999999996
 785    -0.208287  -0.52834999999999999  0.63722299999999998
 786    -0.24519560000000001  -0.63173060000000003  0.66226229999999997
 787    -0.26065100000000002  -0.51361800000000002  0.64239800000000002
 788    -0.15611710000000001  -0.64141630000000005  0.66882560000000002
 789    -0.153645  -0.53497799999999995  0.65048899999999998
 790    -0.1494963  -0.540883  0.92386579999999996
 791    -0.26485409999999998  -0.53526260000000003  0.92078749999999998
 792    -0.20343600000000001  -0.62816899999999998  0.92307099999999997
 793    -0.25355100000000003  -0.62293900000000002  0.91265799999999997
 794    -0.153584  -0.62526099999999996  0.91471599999999997
 795    -0.34856100000000001  -0.46405400000000002  0.158716
 796    -0.37317159999999999  -0.51645220000000003  0.096181459999999996
 797    -0.3811312  -0.49958229999999998  -0.037510719999999997
 798    -0.36823600000000001  -0.61497599999999997  0.0306267
 799    -0.33925490000000003  -0.6043925  -0.078409670000000001
 800    -0.36408699999999999  -0.60561399999999999  -0.029681300000000001
 801    -0.31769520000000001  -0.63784010000000002  0.13608129999999999
 802    -0.35478599999999999  -0.61485100000000004  0.090429800000000005
 803    -0.12703999999999999  -0.44809900000000003  -0.073578500000000005
 804    -0.1846324  -0.58905099999999999  -0.1081288
 805    -0.2392975  -0.34136569999999999  -0.11794540000000001
 806    -0.17913899999999999  -0.43624800000000002  -0.106528
 807    -0.241923  -0.60985900000000004  -0.117359
 808    -0.30679380000000001  -0.50425629999999999  -0.1180475
 809    -0.296601  -0.60296700000000003  -0.109127
 810    -0.25113000000000002  -0.502745  0.19709399999999999
 811    -0.1466488  -0.53994149999999996  0.1475601
 812    -0.19493869999999999  -0.52150419999999997  0.1831728
 813    -0.30435699999999999  -0.48421599999999998  0.18995600000000001
 814    -0.2330361  -0.63025819999999999  0.17869309999999999
 815    -0.28472500000000001  -0.61403149999999995  0.1724465
 816    -0.145237  -0.63517800000000002  0.13052
 817    -0.185474  -0.63848400000000005  0.162245
 818    -0.095370099999999999  -0.405611  -0.021478199999999999
 819    -0.10062169999999999  -0.55700309999999997  0.031875680000000003
 820    -0.10596319999999999  -0.53632100000000005  -0.027453330000000001
 821    -0.112515  -0.45191900000000002  0.093568799999999994
 822    -0.1145835  -0.57108230000000004  0.093651639999999994
 823    -0.106751  -0.633108  0.0275567
 824    -0.12958420000000001  -0.67607850000000003  0.081122630000000001
 825    -0.114552  -0.619641  -0.026739200000000001
 826    -0.27118399999999998  0.52575899999999998  -0.46007900000000002
 827    -0.30371140000000002  0.45120949999999999  -0.38420949999999998
 828    -0.29850900000000002  0.42752200000000001  -0.23628199999999999
 829    -0.3258067  0.36319279999999998  -0.37174079999999998
 830    -0.23707220000000001  0.50134920000000005  -0.076442780000000002
 831    -0.27787499999999998  0.55689  -0.190965
 832    -0.28330650000000002  0.52446170000000003  -0.26318330000000001
 833    -0.26893929999999999  0.52014340000000003  -0.17284479999999999
 834    -0.26611000000000001  0.58893010000000001  -0.41068460000000001
 835    -0.278055  0.60076499999999999  -0.320108
 836    -0.27900750000000002  0.550701  -0.3472093
 837    -0.3267796  0.62367890000000004  -0.13780500000000001
 838    -0.2646849  0.62360349999999998  -0.12974949999999999
 839    -0.43034899999999998  0.658277  -0.15438199999999999
 840    -0.38273610000000002  0.62875809999999999  -0.1465361
 841    -0.367842  0.59746699999999997  -0.17194000000000001
 842    -0.23908199999999999  0.57895700000000005  -0.111996
 843    -0.2939061  0.56849660000000002  -0.1711625
 844    -0.28320129999999999  0.57950279999999998  -0.14067160000000001
 845    -0.2955276  0.5968907  -0.27359349999999999
 846    -0.29431800000000002  0.57272900000000004  -0.209871
 847    -0.40228710000000001  0.62277490000000002  -0.23379240000000001
 848    -0.3698497  0.6312432  -0.28747539999999999
 849    -0.337287  0.59211619999999998  -0.23726559999999999
 850    -0.36206300000000002  0.67150049999999994  -0.32586100000000001
 851    -0.28956690000000002  0.66604600000000003  -0.34707189999999999
 852    -0.29385289999999997  0.63065099999999996  -0.32063580000000003
 853    -0.40963460000000002  0.72266339999999996  -0.30030030000000002
 854    -0.41794559999999997  0.67335  -0.28022829999999999
 855    -0.44728899999999999  0.65595599999999998  -0.19680300000000001
 856    -0.44336110000000001  0.69984080000000004  -0.15668879999999999
 857    -0.47129929999999998  0.72086589999999995  -0.212148
 858    -0.460337  0.68144800000000005  -0.17324999999999999
 859    -0.43241000000000002  0.74645499999999998  -0.258303
 860    -0.45134239999999998  0.74534889999999998  -0.20877709999999999
 861    -0.1178433  0.3164284  0.1292683
 862    -0.1475245  0.29245330000000003  0.3027746
 863    -0.14807490000000001  0.3086525  0.2406074
 864    -0.075894420000000004  0.30172949999999998  0.31090990000000002
 865    -0.080320890000000006  0.22786809999999999  0.49399850000000001
 866    -0.076369640000000003  0.22206809999999999  0.54563499999999998
 867    -0.051731779999999998  0.17229510000000001  0.83057309999999995
 868    -0.05842555  -0.40867949999999997  0.026312970000000001
 869    -0.00336777  -0.43193199999999998  0.049377619999999997
 870    -0.082031919999999994  -0.41410370000000002  0.037151440000000001
 871    -0.10690429999999999  -0.44038509999999997  0.1336319
 872    -0.071467100000000006  -0.37777100000000002  -0.019386339999999998
 873    -0.028814650000000001  -0.35322120000000001  0.88144180000000005
 874    -0.080630010000000002  -0.37459330000000002  0.90058349999999998
 875    -0.064149899999999996  -0.45469300000000001  0.69653799999999999
 876    -0.047247629999999999  -0.42886930000000001  0.78600559999999997
 877    -0.027656139999999999  -0.41144920000000001  0.78591420000000001
 878    -0.01092864  0.28057720000000003  0.36671169999999997
 879    -0.1193577  0.27390009999999998  0.36148740000000001
 880    -0.06564586  0.25009969999999998  0.43133440000000001
 881    -0.035584169999999998  0.35463220000000001  0.03728745
 882    -0.083973649999999997  0.3242488  0.049022830000000003
 883    -0.029886220000000002  0.32889829999999998  0.077136410000000002
 884    -0.02941355  0.33810299999999999  0.048738280000000002
 885    -0.11905830000000001  0.31229430000000002  0.034440819999999997
 886    -0.097723930000000001  0.4925504  0.044872090000000003
 887    -0.034520509999999997  0.38702170000000002  0.04561424
 888    -0.033282640000000002  0.44800970000000001  0.059308430000000002
 889    -0.18270210000000001  0.47849520000000001  0.0024185840000000001
 890    -0.1667003  0.42134349999999998  0.0133107
 891    -0.10470740000000001  0.59383989999999998  -0.52186679999999996
 892    -0.2267971  0.58303430000000001  -0.4983978
 893    -0.19759119999999999  0.50721099999999997  -0.5412131
 894    -0.17679819999999999  0.73571379999999997  -0.43967489999999998
 895    -0.083293300000000001  0.70568710000000001  -0.47675590000000001
 896    -0.16923369999999999  0.67661990000000005  -0.477188
 897    -0.2016664  0.43543169999999998  -0.58885370000000004
 898    -0.1139829  0.4895698  -0.5678107
 899    -0.044392330000000001  -0.24426320000000001  0.95667840000000004
 900    -0.036529659999999999  -0.30333870000000002  0.92434039999999995
 901    -0.044211460000000001  -0.3207565  -0.097771979999999994
 902    -0.05607848  -0.23883080000000001  -0.1710663
 903    -0.079403580000000001  -0.31612299999999999  -0.099640580000000006
 904    -0.029897859999999998  -0.1900386  -0.19825860000000001
 905    -0.072429869999999993  -0.17813010000000001  -0.19902880000000001
 906    -0.090301989999999999  0.063106270000000006  -0.2108053
 907    -0.03496059  0.017468790000000001  -0.23178679999999999
 908    -0.03904726  0.095363450000000002  -0.25215729999999997
 909    -0.1137321  0.13435510000000001  -0.24655050000000001
 910    -0.12452100000000001  0.1395527  -0.28061239999999998
 911    -0.13862099999999999  0.1130878  -0.39020549999999998
 912    -0.034660400000000001  0.10349990000000001  -0.38801380000000002
 913    -0.1181601  0.12761710000000001  -0.53654990000000002
 914    -0.18740309999999999  0.12630759999999999  -0.50649690000000003
 915    -0.22059309999999999  0.1760659  -0.5842136
 916    -0.079071799999999998  0.18298800000000001  -0.61559900000000001
 917    -0.12690689999999999  0.1525369  -0.57798110000000003
 918    -0.15618029999999999  0.24449370000000001  -0.65098659999999997
 919    -0.0775425  0.26020599999999999  -0.66100199999999998
 920    -0.079245499999999996  0.21998699999999999  -0.64296500000000001
 921    -0.21825269999999999  0.24807570000000001  -0.64077470000000003
 922    -0.18003330000000001  0.30316690000000002  -0.66146910000000003
 923    -0.075010199999999999  0.30130899999999999  -0.66863700000000004
 924    -0.1252848  0.56245999999999996  -0.0012963
 925    -0.070540500000000006  0.57034169999999995  0.021297369999999999
 926    -0.03489387  0.73932929999999997  -0.087166629999999995
 927    -0.050432600000000001  0.66644199999999998  -0.034872
 928    -0.1652132  0.61379629999999996  -0.078861589999999995
 929    -0.19831090000000001  0.56495280000000003  -0.06521499
 930    -0.2273414  0.65889850000000005  -0.46533829999999998
 931    -0.2541448  0.59626270000000003  -0.46629229999999999
 932    -0.16580500000000001  0.94298939999999998  -0.29313030000000001
 933    -0.2009679  0.95490649999999999  -0.27659210000000001
 934    -0.2041839  0.76827820000000002  -0.2565944
 935    -0.1969455  0.79492130000000005  -0.2393363
 936    -0.1186461  0.81191179999999996  -0.32375229999999999
 937    -0.082176360000000004  0.82351739999999996  -0.26725189999999999
 938    -0.23474310000000001  0.75994519999999999  -0.24367649999999999
 939    -0.21387519999999999  0.75984940000000001  -0.21083660000000001
 940    -0.19214819999999999  0.77402740000000003  -0.22097710000000001
 941    -0.25510690000000003  0.72305019999999998  -0.3280267
 942    -0.35487859999999999  0.71312540000000002  -0.32519140000000002
 943    -0.26114369999999998  0.69443730000000004  -0.3528213
 944    -0.38530809999999999  0.74914910000000001  -0.28565879999999999
 945    -0.39286840000000001  0.76016419999999996  -0.238618
 946    -0.25628659999999998  0.74878560000000005  -0.18941379999999999
 947    -0.40440219999999999  0.75319429999999998  -0.20349610000000001
 948    -0.30400949999999999  0.76390089999999999  -0.22657649999999999
 949    -0.40120319999999998  0.7367494  -0.1741414
 950    -0.3504234  0.69969300000000001  -0.15063360000000001
 951    -0.4011538  0.69743829999999996  -0.1489451
 952    -0.1789365  0.69460200000000005  -0.15255250000000001
 953    -0.24845819999999999  0.70122839999999997  -0.15901589999999999
 954    -0.063577729999999999  0.8043785  -0.18931819999999999
 955    -0.1202777  0.77447310000000003  -0.17955389999999999
 956    -0.081865900000000005  0.76525739999999998  -0.1514529
 957    -0.1217814  0.70586919999999997  -0.13319729999999999
 958    -0.0091736089999999992  0.77958470000000002  -0.1198514
 959    -0.055710509999999998  0.82718789999999998  -0.33637250000000002
 960    0.014156810000000001  0.80515519999999996  -0.4125337
 961    -0.1260107  0.78272109999999995  -0.4113713
 962    -0.1342843  0.79787470000000005  -0.37804500000000002
 963    -0.0032441979999999998  0.83595850000000005  -0.26575589999999999
 964    -0.045088860000000001  0.82326259999999996  -0.22318270000000001
 965    -0.19893830000000001  0.73909800000000003  -0.41902089999999997
 966    -0.1774705  0.77552900000000002  -0.38047249999999999
 967    -0.23295399999999999  0.72285330000000003  -0.35736430000000002
 968    -0.2340759  0.74127339999999997  -0.3069614
 969    -0.19239800000000001  0.8684151  -0.3318683
 970    -0.18496879999999999  0.78023489999999995  -0.31408000000000003
 971    -0.22936309999999999  0.91006520000000002  -0.28244089999999999
 972    -0.21023330000000001  0.91257149999999998  -0.31614340000000002
 973    -0.12698909999999999  0.88748389999999999  -0.29563539999999999
 974    -0.17645340000000001  0.90467439999999999  -0.32325179999999998
 975    -0.1148366  0.89400480000000004  -0.25465310000000002
 976    -0.14070469999999999  0.90854250000000003  -0.2261696
 977    -0.21676480000000001  0.87186160000000001  -0.24473600000000001
 978    -0.1933214  -0.48591529999999999  0.419097
 979    -0.18087259999999999  -0.48830030000000002  0.47168339999999997
 980    -0.15488450000000001  -0.48345080000000001  0.52886690000000003
 981    -0.046831369999999997  -0.4540343  0.68451419999999996
 982    -0.07482134  -0.450405  0.1911456
 983    -0.138015  -0.44389499999999998  0.19228100000000001
 984    -0.18220410000000001  -0.44451079999999998  0.26668439999999999
 985    -0.17275850000000001  -0.48073709999999997  0.34820190000000001
 986    -0.2283908  -0.43669069999999999  0.3511399
 987    -0.077379030000000001  -0.51963369999999998  0.49294139999999997
 988    -0.081951200000000002  -0.46576960000000001  0.63527769999999995
 989    -0.077400140000000006  -0.52646680000000001  0.41584900000000002
 990    -0.093799110000000005  -0.51183440000000002  0.3591992
 991    -0.14850150000000001  -0.054119750000000001  0.96040320000000001
 992    -0.13595979999999999  -0.01339431  0.95604940000000005
 993    -0.21095920000000001  -0.048932120000000003  0.92430809999999997
 994    -0.27425480000000002  -0.055182410000000001  0.868618
 995    -0.11548310000000001  0.078042509999999995  0.91116730000000001
 996    -0.03423752  -0.1142797  0.98576200000000003
 997    -0.1053238  -0.21590129999999999  0.95553330000000003
 998    -0.1048422  -0.056023700000000003  0.97843139999999995
 999    -0.076511860000000001  -0.067198209999999994  0.99360329999999997
1000    -0.071873510000000002  -0.036718649999999999  1.002521
1001    -0.0251977  -0.071245169999999997  1.0477890000000001
1002    -0.0018293762189943435  -0.06353092461721635  0.454300451104035
1003    -0.18546812480655667  -0.36039768266818828  0.78850327705202372
1004    -0.09465250240494151  0.58794847656671367  -0.33843996810252946
1005    0.24750881455782722  -0.55929513857294522  0.8287512501378228
1006    -0.088972921551708342  -0.33487026444749762  0.84720634365477343
1007    -0.14909902939358899  0.67364680978453539  -0.35759133388506353
1008    0.17706826498399203  -0.14684122042090453  0.11751212009419801
1009    0.016189593739012801  0.43726772807324937  -0.15716958272820827
1010    0.10461045423748605  -0.20793015483386493  0.76532989379622218
1011    0.18921701325104195  -0.66372036816908853  0.78313758641780962
1012    0.27256324390573011  -0.31020260358666385  0.029442169734043962
1013    0.034296122322693363  0.68212676290540408  -0.28746186098700072
1014    -0.022036045651243463  0.31513201898435739  -0.37635412867011675
1015    0.049175917933022166  -0.026190916436691844  0.69363375370711799
1016    0.0063483922203021303  0.19749194633466005  -0.11575849891390311
1017    0.26677374053215597  -0.37874480329710775  -0.038292993244855467
1018    0.073574896205151008  0.7582750389970061  -0.3279914720169852
1019    -0.068108007035799403  -0.009869069294613321  0.11562763287875277
1020    0.1414371529247431  0.64817072053153857  -0.299962138977868
1021    -0.16935378751133787  -0.48453603811831925  0.73713712195752368
1022    -0.12039875683272122  -0.22406615716429154  0.34420200311746635
1023    0.25918300674687705  -0.42822595529495572  0.13657606357526947
1024    -0.21981244202011116  -0.30911744345426251  0.011189186863662624
1025    0.017428154201154913  0.71228337189576452  -0.17602778312740697
1026    0.23150985923990683  -0.29359089673060479  0.71814851698302229
1027    0.00024699525603332883  0.7543515760498859  -0.3602998710131371
1028    0.0062129751077351974  -0.24279518492256666  0.86051969619553192
1029    -0.29479781834700602  -0.32140275772426496  0.11926876107729506
1030    0.14875047974087147  0.32276147220821882  -0.37245202545299089
1031    -0.025412178473872636  -0.075206609721404888  0.84344311467444644
1032    0.24721918504559381  -0.36213679683985178  0.63706655024452519
1033    -0.17812417961331289  0.34066465562135501  -0.48846008578473293
1034    -0.17637394998427403  -0.58198556345247277  0.73100633144714677
1035    -0.071133531969361161  0.13434228427824557  0.036303261665941368
1036    0.1399290521400228  0.4092019744780489  -0.094778492926641089
1037    -0.19847020259107515  -0.62783426487893934  -0.010853169645717756
1038    0.18206977372068311  -0.28937088221165858  0.83623150637067656
1039    0.20400217017206354  0.69947786179749716  -0.30520214547352809
1040    -0.09013065193639648  0.18974155845055918  0.18950003412472211
1041    -0.18575795656860336  -0.50029729958514768  0.041862321345853208
1042    0.065886602038229977  0.49748558836477186  -0.033731462231633189
1043    -0.26065378579022164  -0.48069519857122045  0.12799896304721017
1044    -0.059598358730746814  -0.25657533735563115  0.1588654644641134
1045    0.19978933290837894  -0.61179546112938143  0.05168878577408996
1046    0.189702514206256  -0.62799223579967633  0.86417756270340174
1047    -0.12542126184803015  0.26870223513965397  -0.52663351831213556
1048    0.0095789526085080512  -0.30122285431604795  0.47295537807427873
1049    -0.10603424557117835  -0.37410149015347388  0.42405313593911137
1050    -0.13687638567827914  0.31450448400658315  -0.60552702776112488
1051    0.14633491843035326  0.80248928775366957  -0.27324608988737015
1052    0.16103427670861886  -0.1355245638444057  0.37419202054571787
1053    -0.1045535778477109  -0.21582861202804027  0.59065341204852062
1054    -0.308603132174669  -0.34952016536683378  0.20954150783014544
1055    -0.2984001266331941  0.68581329968907012  -0.28885365755889708
1056    -0.0018596369678800181  0.11275440402631101  -0.14722802680530664
1057    0.12661988010447886  -0.16396616561080513  -0.069794841521460219
1058    -0.21366075809909074  -0.65274983461090419  0.83299115771410348
1059    -0.20913991939077664  -0.10192169158474083  0.45900473348595211
1060    -0.22800587045032053  -0.28257675847416103  0.51040517149373177
1061    0.24015203981336899  -0.24273056724407877  0.61953939490026166
1062    0.11356086290218967  0.2586546830348187  -0.11652806280174258
1063    -0.050651421796023624  -0.081431985399044546  0.93641310843035552
1064    -0.20298931713782242  0.37819815546257879  -0.36217779128069783
1065    -0.25575109626029202  0.24932845223910857  -0.45764081367959597
1066    0.17333659203619711  -0.47315201539108659  0.72391167879370677
1067    -0.21932392346618437  0.66074776158174975  -0.349464013305474
1068    0.24111191785414124  -0.58378240888517263  -0.046896905274385559
1069    -0.049574538992867991  0.37299211924122588  -0.55225772486812985
1070    0.13482552710420859  -0.27570822636604003  0.21965965323851847
1071    -0.19919401827219818  -0.30862025062049647  0.65071895150182535
1072    -0.15699636741510944  0.73759214316215627  -0.32832362267905257
1073    0.26339034773414505  -0.31544620530579109  0.16933348372315155
1074    -0.11294650464812812  0.74968727355139275  -0.25513264839231975
1075    0.1344897782982816  0.338601861911346  -0.23120763458610111
1076    0.23438090904289385  0.62187470752769969  -0.27825995421915667
1077    -0.17989436157614916  -0.065186855397815949  0.2546737356080816
1078    0.19584610730177401  0.41988162847656585  -0.47706468566235455
1079    -0.19237671223802727  -0.64558165374162357  0.087462596483990643
1080    0.23277780705130677  -0.51918192978224664  0.094255978423589085
1081    0.10940905007466403  0.27462641813254501  -0.52170980406934775
1082    0.24666436096994543  0.26824765820647695  -0.4642432459293625
1083    0.083806217933301827  -0.071185194917773711  -0.12936222159532335
1084    -0.19356358942656576  -0.40187939501434122  0.65174366367181535
1085    -0.18110139127116906  -0.22196391968896106  0.12559199765912629
1086    -0.099254312308191359  0.23790679382290597  0.073162791067653457
1087    0.027114702234421154  -0.3468393125983073  0.096954196908760032
1088    0.10681156855015086  -0.36196735468287006  0.35590103190914724
1089    0.21111706449845963  0.0017585332103844515  0.23606592346913902
1090    0.19829923166197641  0.22554404783024321  -0.39439206833641954
1091    0.068419278672643385  0.0082700605566499042  -0.015361875643370358
1092    0.12569705234321427  -0.40050738429776289  0.49262562546465272
1093    -0.08914755336505939  -0.37076829015931417  0.58391713626424457
1094    0.072735295902115166  0.090048522638151926  -0.12942799321517798
1095    0.1518409960902477  -0.34952230515805516  -0.0031827129777853751
1096    0.067140698816331126  0.13230383935180298  0.13494349400725383
1097    -0.095719699262456034  0.26048776074976354  -0.60525351473444433
1098    0.15991087532667186  -0.43204940991307472  0.40915180175355848
1099    0.21290964518342223  0.68592763689553349  -0.23212288627778638
1100    -0.051905748316177794  -0.26689789986146678  0.014408625364164726
1101    -0.017357351687125117  0.23358008672002425  -0.56682043710339114
1102    -0.26951916182252855  -0.41049329600368389  0.15350659258070576
1103    0.23668105892149849  -0.071764239851531131  0.53399479769568514
1104    0.11228854690686307  -0.057041042898011075  0.82450356822829363
1105    0.20999346770354646  0.59962905008030098  -0.19583033107576564
1106    -0.24651478752434366  -0.38105256740632626  0.22605624578084371
1107    -0.22576873904985953  -0.54166114157207301  0.85198087232656372
1108    -0.18249436742390371  -0.22896656874227667  0.73241098552408634
1109    -0.23393443827194596  -0.077311655467615592  0.064474123414537302
1110    -0.20886272778173459  0.70225131029377641  -0.32206116266283996
1111    -0.13076001346912661  -0.35965269950401557  0.2481836253055516
1112    -0.076246868180346039  -0.23407566796521884  -0.089301536596113368
1113    0.20065119729659284  -0.49054156914997932  -0.015949044993274816
1114    -0.26725724588207278  -0.54780983240185455  0.74953348090781025
1115    -0.19020713511574508  -0.12366949836948424  0.8329583445139086
1116    -0.12366289848304578  -0.30965470835403108  -0.036443596946465012
1117    0.22080820294976383  -0.40623386889999674  0.19749068117898158
1118    0.018526260200944913  -0.45085507178196649  0.42267568377060788
1119    0.055935803425099316  0.016869989265774502  0.89635564436323745
1120    0.065387716465869231  0.16348878497453478  -0.044561248287434935
1121    -0.29218723805350805  -0.56289616937951681  -0.034429482565328177
1122    0.10366730780819382  0.25689840574360712  -0.022184370311211427
1123    0.049550125690571552  0.40363190989007991  -0.012264643776143084
1124    0.27479605055837253  -0.35465412908652066  0.53654288528938676
1125    -0.081830605469058015  0.12977336273097376  -0.14830198888954096
1126    0.2714307979730366  -0.48448297628573245  0.75834783058341715
1127    -0.16013319846131516  0.21499787511752561  -0.40516825117496896
1128    -0.023180422575509736  -0.33070434818507172  0.02023674868748726
1129    0.13332158966168639  0.70934071724276027  -0.37392441756428252
1130    -0.03169555579684448  0.75882670189646628  -0.23831832703812419
1131    -0.27801312513298393  -0.3433675743817966  0.71974220893725149
1132    -0.24806756993776069  -0.0090651194842895893  -0.0039936198881379524
1133    0.22558901336165929  -0.082424359994259927  0.69737393213189725
1134    0.082054485036458666  0.079675507839267232  0.78715817895078422
1135    -0.096176802765555611  -0.32761472492332383  0.69728085573474863
1136    -0.036360049530006308  0.23689949408320307  -0.020554157543435984
1137    -0.074156301929261356  -0.014736212924075622  0.72084693486750495
1138    -0.21616806761482102  0.31435395928020343  -0.59454695165866334
1139    0.19041991831030095  -0.38403253915779145  0.26017900949583617
1140    0.12488002728460237  0.67706796100170463  -0.19770549773252244
1141    0.11572275749984874  -0.33734352098326886  0.75627826389886577
1142    0.02406339548071984  0.10111078413436869  0.44055613017998513
1143    0.021026273047016344  0.22495589419447534  0.27420519055421383
1144    -0.22278826516506542  0.18905942440671927  -0.49494193529071456
1145    0.15686230305482857  0.10626673426846878  0.017371177840195116
1146    -0.20624264555723754  -0.35366482731955606  0.33077996398941273
1147    -0.28361063721488666  -0.094723356870286768  0.35245551394874702
1148    0.066710184019609417  -0.39486795553209103  0.22872366213593609
1149    -0.30976344762187435  -0.10434311542274818  0.17540306899217184
1150    0.17351660323729201  -0.47325563306410312  0.8550373530094012
1151    -0.23326784598771208  0.71433689395215549  -0.2548206751313723
1152    -0.21545840304840844  0.62968414903461301  -0.21033253100660854
1153    -0.037294886383710459  0.46854430594502094  -0.014633557540406114
1154    -0.27632654977462345  -0.35797406703193257  0.61276920278125435
1155    -0.26896554205305867  -0.44251140718651116  0.81261457587215336
1156    0.21884660775385437  0.43582717846617286  -0.3326692348350368
1157    0.15305247306612657  0.75898997803939405  -0.33826105864131378
1158    -0.12949471601699053  0.035127830169717197  0.60131581727509587
1159    0.18965207885979601  0.26060482362488241  -0.28274961342636817
1160    -0.17063352649241051  -0.2354073339366545  0.85199582114489103
1161    0.17711624963468653  -0.38421214769400247  0.099527593753961932
1162    -0.21283757820183202  -0.39013359038039014  0.54716278025562559
1163    -0.26137304855517873  -0.1626466292514287  0.77053042393725757
1164    0.21753107420430393  -0.59775298350008133  0.11998142678488503
1165    0.27034785706347908  -0.25124354462197801  0.43963680237846436
1166    -0.10015008952773877  -0.14876119482472058  0.0067746911814655008
1167    0.21574572358707395  -0.57389888661645705  0.71219369068671656
1168    -0.13515643879706371  0.62302933666006499  -0.17856491804080227
1169    0.12200822617693723  0.22477016536103459  0.06811268474501285
1170    0.1220464175541891  0.14975111404117444  0.43603689936510137
1171    -0.12875615306660579  -0.43792768309720553  0.70813271842767644
1172    0.24072667634797534  -0.45912932526198064  0.67417039822008062
1173    0.14480140973098635  -0.42639872822863817  0.31650703788472517
1174    0.13886720546943979  -0.36884276702394847  0.84207112197626022
1175    0.096403090449249648  -0.27234436423244912  0.86087820277934812
1176    -0.2020398457137437  -0.66130659324994912  0.74529482067124075
1177    -0.073469917356811437  0.55520958638682549  -0.090053281917697015
1178    -0.22314355103322092  -0.1982022852447895  -0.016891298137197312
1179    0.085714212241184903  -0.31074393218477081  0.62823567012081638
1180    -0.0071785277227239888  0.33651797676644235  -0.09430125294401355
1181    -0.02598592423024396  0.15225984043193455  -0.21571172714930131
1182    -0.032306048548422908  0.08050649557755904  0.83296794765679982
1183    0.0063099929681902861  -0.32475731369864164  0.82375658591562606
1184    0.13291469277514309  -0.54528680267957841  0.80184198789023353
1185    -0.14544410520436565  -0.60219881010802012  0.84288758955836307
1186    -0.081929973471102951  0.039310038009210298  -0.12805535772523438
1187    0.19617573861351423  0.35136505970377485  -0.13715254622384915
1188    0.080947025848832052  0.15926395124598763  -0.16627682358730364
1189    0.033866583861451013  0.14131992051509726  -0.24470216075719267
1190    0.1432860463550783  0.52228648386590582  -0.47237081788665408
1191    0.18151164025109831  0.46429007982583398  -0.20891262491567908
1192    -0.29816525639237923  -0.42496763411415622  0.012822633233365632
1193    0.23853985341071576  0.32569552493513226  -0.5617844932789624
1194    -0.24593177726274978  -0.113286511140942  0.65171328067343393
1195    -0.19779054528879067  0.58675303880101282  -0.2985347358075956
1196    0.050619517850348454  0.23715896702960221  -0.24345120026257056
1197    -0.14986647581726115  0.77215051047478644  -0.23805982879362869
1198    -0.25208416093267205  0.2714797389813296  -0.54190872588450822
1199    0.29799336814158095  0.65366735229171136  -0.21285410666949192
1200    -0.25681900253139406  -0.58026131263799474  0.10380048058588597
1201    -0.06097305275287792  0.30835892404679066  -0.0053129137026137084
1202    0.03098715168531609  0.11947154140222384  0.6540892839528637
1203    -0.29765240850404856  -0.20525115743536276  0.078458230965981729
1204    -0.11069876581124972  0.27520498042194602  -0.0021514205779367595
1205    -0.21478238766446928  -0.39722944778014369  0.44709160569364553
1206    0.20881902230754359  -0.66499667626205128  0.71215743784291052
1207    -0.13413079002930581  -0.015672627537005584  0.86104730454449674
1208    -0.089261596043834393  0.276706064854634  -0.18419136649989759
1209    0.04032938346731306  0.61192238304207436  -0.40117428414253276
1210    -0.14266891285449082  0.41641372034873769  -0.12251974302756199
1211    0.25331633835308121  -0.43533623496319418  0.82939408093324474
1212    0.039544071725124655  -0.061274095409985352  0.92329107434800561
1213    -0.24776179699960932  0.64875062832037089  -0.2921051524572113
1214    -0.015683056597788386  0.057254203680356677  -0.072993815945823895
1215    0.22548955564991538  -0.0008059926308302375  0.076165527641269687
1216    -0.10807881909428385  0.17789115961398638  0.34914848205345655
1217    -0.25552075339997649  -0.10774315481631891  -0.031074353388209134
1218    -0.1500850578741231  -0.44393166994595762  0.8496567648999851
1219    -0.18813896203517705  0.53965766565649098  -0.14035430165577081
1220    0.20833611699445734  0.13323161296641195  0.13184178344253586
1221    -0.092892661219692974  -0.42299288004676167  0.66468900829347577
1222    0.16987410400731279  0.052000999788080177  0.64881352268429404
1223    -0.17169824604012787  -0.039606946862545261  -0.070971769614562377
1224    -0.18151825615548542  -0.38566454077037293  0.089744332710453331
1225    0.0069080712757411695  -0.046197999235239651  0.96284181948686365
1226    0.25232625542366161  -0.13961949509479546  -0.0052270558358630129
1227    -0.14379431062069992  0.32873825930339456  -0.10503897772974906
1228    0.045469499274345786  0.61551435991117665  -0.092287836214261912
1229    -0.22246441468749564  -0.038943927498863093  0.74700908051688009
1230    -0.19071450497194498  0.11149700005800496  0.2420567069780391
1231    0.23354610924307234  -0.38549904950821817  0.73470817218380924
1232    0.20335984528894901  -0.12399240901636507  0.83286240772095033
1233    -0.057143606787166353  -0.38156420429407206  0.1690073071244465
1234    0.095751386091117857  0.02748256579403267  -0.13126182192811114
1235    -0.069926951775588345  -0.38562121018416889  0.75117153356811306
1236    0.26883230071847514  -0.2961959243664346  0.30789594383595675
1237    0.011840947706819727  0.01492775360516232  -0.17150341677019718
1238    0.15534556318756293  0.54362970157335266  -0.11876483156076095
1239    0.27881217370116257  -0.64996282597387867  0.088326226492816753
1240    0.067392892583828634  -0.44894618272760034  0.33881000135130684
1241    -0.21154877468464295  0.060349746224393042  0.10257095470333527
1242    0.081360419414661156  0.76697583457810281  -0.23409366701192899
1243    0.24727838534477128  -0.20246116721711965  0.76990634800723257
1244    0.15565318377238715  0.17566804373413406  0.30484961940535832
1245    -0.28395574126746742  -0.35280836304065355  0.40229442279841626
1246    -0.11901561769404709  0.27704387471806285  0.047128270009605559
1247    0.18241304511858525  0.043879156288176881  0.39113020905327484
1248    -0.046062400663577502  -0.099791722923341986  -0.10075677783859827
1249    -0.15893295710775285  0.67359132367928132  -0.28013466412781218
1250    0.16790083593782715  -0.39740314966974238  0.66883068814504643
1251    -0.41398006440025292  0.69462957063317421  -0.20273150819608218
1252    0.054713900914123537  -0.31233395956346632  0.87865261691098295
1253    -0.10287327028066721  -0.4302865888471788  0.7764311869019167
1254    -0.071340576307367426  0.14432737670260321  0.54223602366440293
1255    -0.17420742017955362  0.18303350349022773  0.12249872994682391
1256    -0.19368762788093347  0.56004758461714432  -0.42882516176806579
1257    -0.26581825577190449  -0.26752069855495769  0.77266436772866354
1258    0.034776113685569897  0.58045167059660507  -0.21995333528244104
1259    0.014001683680925039  -0.24392571396497617  -0.065407491457469893
1260    0.12449253411860908  -0.38368278945224538  0.033877027011783675
1261    -0.16679290357963913  0.075065147527575482  0.41594131398039369
1262    0.062446582607330971  0.19043404519964582  -0.45182849452339469
1263    -0.26750264801261719  -0.23469934949479745  0.66351055195081965
1264    -0.18067296112144587  0.68430694800108038  -0.40921128751745428
1265    0.23549754424746394  0.36215283347303678  -0.2633134918790534
1266    0.26231152274208336  -0.65293216542977495  -0.021665300859341624
1267    -0.22682418036670299  0.52641272526520078  -0.22370151950961772
1268    0.081974179143932471  0.28824529128144699  0.05757719140160443
1269    -0.18221968883561659  0.72606023145344223  -0.21914635096396018
1270    -0.17481045441643056  -0.39610024801858856  -0.017546056674954395
1271    0.25716920683075373  -0.32310596689594034  0.82899705525230682
1272    -0.049527714868790998  -0.37218551945953265  0.094876361573760587
1273    -0.089396033848500533  0.16895321458054999  -0.18814182699688323
1274    0.20047290517875233  0.53938679744525497  -0.40731602525657495
1275    0.021722650433503604  0.092675877930921635  -0.20827773421802601
1276    0.12928961086299126  0.18918904927719915  -0.10206982677978645
1277    0.29256276653622204  -0.49712934488710936  -0.028670238355735633
1278    -0.27945808563092661  -0.23657242756382871  0.39500212164943804
1279    -0.17606374513338377  0.30998152521796196  -0.25308411455029067
1280    -0.097289809259591617  -0.046665202460184851  0.92736617607952476
1281    0.096774683868022529  -0.28591360251795184  -0.045583557031293284
1282    -0.20639523773715371  0.62019004465782634  -0.40273784783666972
1283    0.083326269309221643  -0.059774745194757894  0.94013905252970575
1284    0.26692520102965323  -0.16610817880393564  0.26381820591879618
1285    -0.120143264376061  -0.12136136747925373  0.89270335180234039
1286    -0.060509734008208138  0.1756723327929221  -0.45680786296031139
1287    -0.29054379962418891  -0.35785556813520919  0.47709318545023932
1288    -0.041923314445517015  0.18649044158975825  0.45604566088902193
1289    0.23473778378225119  0.2255993627358989  -0.54084417968124932
1290    0.14528486546604438  0.27990960124778153  -0.61302540557433371
1291    -0.022953148269654198  -0.17953425448254151  -0.14401440126797596
1292    -0.013984767400673706  -0.36954021468116843  0.68111412145222539
1293    0.26566530982841263  0.35727312002441403  -0.42375789544422554
1294    -0.0072925534712759855  0.17073674442698275  -0.35382204431708164
1295    0.16230350511815958  0.75031518986988166  -0.22383789724147105
1296    -0.2966976302491946  -0.26639555938353082  -0.02859980596502645
1297    -0.16804765024850543  -0.367958828093565  0.16534266455325156
1298    0.17630110902632451  -0.03626005681715027  -0.067262701776892073
1299    -0.12520590456563949  0.44015455179616442  -0.047089482385679921
1300    0.016401415775431787  -0.31149748640062991  0.73997397115874841
1301    0.24490464833016987  0.30690584149851863  -0.33890468752436592
1302    0.0056438507395054054  0.2538559118772537  0.13790173079294041
1303    -0.25287853490876094  -0.25073069233540013  0.23607866351521953
1304    -0.28856333665538353  0.65282102673276698  -0.21467259542385775
1305    -0.038174257428747603  0.089481801432312588  -0.20054244778759489
1306    -0.1217898099895469  -0.51781238974016941  0.80856675984823201
1307    -0.30244479240487354  -0.33142248140588515  0.28832093256813729
1308    0.29950669785062811  -0.35701336672615114  0.23650931965919214
1309    0.30401697267011296  -0.063682375623932405  0.13927844318412541
1310    0.28572936804933452  -0.077381357839137715  0.37586473095612261
1311    0.29795076501907414  -0.20931887828751727  0.1165799569029986
1312    0.19781913605400919  -0.3548208486316809  0.35301884836480979
1313    -0.22995271796268582  -0.46394448126032484  0.69197708458084151
1314    -0.1457375146214262  0.23794407607985554  0.25574198411255072
1315    0.13561917289078779  0.24856471981624489  0.19975846535375286
1316    -0.25893760781156749  0.5944657802027411  -0.17417915979221693
1317    0.10499663469185352  -0.41875112245199247  0.73891916475526764
1318    -0.21320163558144711  0.48867019418554219  -0.33527111394566278
1319    0.29912174740328096  -0.57264515471039523  0.032338559149243926
1320    -0.1046612317509283  0.71946394406831682  -0.19525112243711068
1321    0.044227007321009253  0.31153351549355085  -0.010440906173717068
1322    0.18574679220423496  -0.38549303470438834  0.57587798741854546
1323    -0.048434545197582328  -0.42023706512281206  0.28393410665011126
1324    -0.067481188187152014  -0.30123210333733552  -0.050573072385297867
1325    -0.1792230467989839  0.24960172145226606  -0.59028117552477788
1326    0.16894846409967487  -0.27566065422992336  0.50767978205977615
1327    0.068713837666730102  -0.14397151322649518  0.59360425948589157
1328    0.12310029045281103  -0.43178409877195095  0.79397671476076637
1329    -0.3737386133256459  0.70262179277404879  -0.25612056516404247
1330    0.20641486160099151  0.7239339678998854  -0.23093263953059803
1331    0.17816897283502042  0.6145177469011941  -0.42166923150104973
1332    0.25298024043140965  0.6500791303249972  -0.32226565144226776
1333    0.01500681469178804  0.25845055224889135  0.044972563570027199
1334    0.038186770067333516  0.19267703860899138  0.40592791835684922
1335    0.14795782638703983  0.722116403616334  -0.27807607945058604
1336    -0.04386665314423787  -0.018637395720341926  0.92080031852004596
1337    0.26566898217074536  -0.0384055340792573  0.00066977345102168465
1338    -0.064743053181213261  -0.18574783540153694  0.74371254148269927
1339    0.17564198458455685  0.89385079646168841  -0.27029472057960185
1340    0.38037703062868317  0.67250782681709231  -0.19332734539699467
1341    0.30497858208874928  -0.46076448052295693  0.064812095493387914
1342    -0.21836489960912472  0.42595823523785481  -0.19300425988474634
1343    0.061220174858448113  -0.32492783613382969  0.018408770667512845
1344    0.34263087979403645  0.62560902844663657  -0.19934162234312733
1345    -0.24793045090094354  0.29793653464845615  -0.36255442652479497
1346    0.080156049942844032  0.062062054626189848  0.5432260519973322
1347    0.25793658942330278  -0.37162030157927411  0.40679639094979547
1348    0.040138607209376911  -0.41706182734321007  0.56862283521508772
1349    -0.20651985037972662  0.4447068495256159  -0.47294936018834854
1350    -0.076586644023349151  -0.28351216092622555  0.78717382496815713
1351    -0.0051565268837099375  -0.094987738309159672  0.94402150971550181
1352    -0.16412733466074639  0.067708593925991559  -0.04585052603362938
1353    -0.11452149244880114  0.63164358880161908  -0.41817956977728199
1354    -0.045618285119082592  0.1460998772753985  0.72256345763973262
1355    0.27480799936520245  -0.088674961624211901  0.76448903414649494
1356    -0.13779731216582078  0.19012990388427137  -0.53273677062959857
1357    0.20747910421856136  -0.67733551755633692  0.069085903970495119
1358    0.013538397263408089  0.70916749664178402  -0.10523065211562205
1359    -0.22522665813367845  -0.037448022297172999  0.8280021268405281
1360    -0.16753556500239142  0.72302609020760977  -0.38043572102916129
1361    -0.14974642249181455  0.077960608153709407  0.77679305513193198
1362    -0.34951209811167555  0.64386397792202554  -0.21128592686286776
1363    0.056598735579241208  -0.38406890836368435  0.77361180328516643
1364    0.12522936397553192  0.34316947916897778  -0.046352337612365582
1365    0.056313057344628749  0.16559027050692982  0.52061095676104241
1366    0.23991395900070561  -0.37584392268694783  0.46945886676877147
1367    0.27271191605718265  0.6866378394779471  -0.28097329117604702
1368    -0.0059298420968815413  -0.32537915089944996  0.30894621035968395
1369    0.087965589887134238  -0.4087357521247999  0.67431875817408327
1370    -0.1143083453610589  0.47794469491582031  -0.25207156581857643
1371    0.29860219269773131  -0.32313254193607677  0.62323665219770663
1372    -0.094741492334052005  0.48600744666629703  -0.43977350910072494
1373    0.20572487034600972  0.00086012786406465026  0.77066875474705643
1374    -0.045784681472786574  0.73624776286868687  -0.15187841384403991
1375    0.18007933192231518  0.55950146031126435  -0.31214031710967327
1376    -0.13381459059927969  0.20381285003057373  -0.011867894638678126
1377    0.17826938942014797  -0.65738845119522793  -0.0003660434588912879
1378    -0.19952282246549827  0.22155332529816499  -0.52489515578583901
1379    -0.25177839865701207  0.39510502599672381  -0.28062370148216331
1380    -0.12714380898370153  -0.36295933755274651  0.021491510369631834
1381    -0.14486862188994654  0.79315453404435854  -0.2901747486702323
1382    0.044428650609265749  -0.18700570768796498  0.053923539189315563
1383    -0.12198608809546586  -0.40461874734820136  0.045689553754328385
1384    -0.082601950411453309  0.77306454385467738  -0.32767289351734163
1385    -0.079430627504527215  0.64803505688159257  -0.24456841684767799
1386    0.16522330306955052  0.042419135670267803  0.82286649527466793
1387    -0.060545248248031563  -0.44014281310608461  0.51881419353368818
1388    -0.083339343059334381  -0.35561603303784117  0.02837796093421361
1389    0.1064572789595936  -0.37593931320746821  0.10771256564732519
1390    -0.12134966310053907  0.75908404086386372  -0.36254589331509557
1391    -0.063967012326465039  -0.38587230013952023  0.058141682405212239
1392    -0.271537089018214  0.34353484738772261  -0.44915569892303314
1393    -0.11878158724795952  -0.30004921481284558  0.06567106401594934
1394    0.13023437432877824  0.12077955128996559  -0.085888244432486743
1395    0.050441671928485747  -0.13425314340159011  0.24421658688292894
1396    0.061117035214670615  -0.33731570896674029  0.82583865588693151
1397    0.16963107132266914  0.10091193373278534  0.4994965605112705
1398    -0.11090163076024205  -0.0034423987568702919  -0.0045236271897077778
1399    0.15316093966943714  0.67553124510808871  -0.43330606087647733
1400    0.29803819556271899  -0.14617737385477036  0.66697145370700761
1401    -0.077350191872271656  0.69286932995250428  -0.32916282365164745
1402    0.15730481512431199  0.057848439105017697  -0.073523287850499816
1403    0.16237609904990383  -0.33413975466478996  0.42776383824804615
1404    0.25794902129273029  -0.23854782875063207  -0.058052692566735287
1405    -0.32482161832015283  -0.53133583387875727  0.055066573166680295
1406    0.072459090798771122  -0.14125256154085897  0.90008372699004291
1407    0.11362128152525454  -0.24062007371588495  0.37550116442340431
1408    -0.090015165793914914  0.14418734206180042  -0.079455548380821292
1409    0.15920187589088292  0.17422553384711176  -0.47783912322368838
1410    -0.055990622333668687  -0.19116260093455636  0.89706100404081102
1411    0.15485381672471549  -0.070745897255746773  0.010695654313797246
1412    -0.078014085043300485  0.18298534719729581  -0.28314091155078747
1413    -0.10313611113688512  0.23482048022587659  -0.093637141421194281
1414    -0.10596436274349653  -0.38318084800538726  0.091424854158780822
1415    -0.27578916560475997  -0.10700748689812276  0.52994870917506576
1416    0.21393186484409202  0.63987227450993578  -0.36107521139952359
1417    0.14474502127688388  -0.052815042883592983  0.89301662594327824
1418    0.077668354378540416  0.46975136648415156  -0.34542823741183137
1419    -0.26688849938058329  -0.65131925939049296  0.11611785915970217
1420    -0.20932008595062046  -0.49572994946122484  -0.058153217437574019
1421    0.42154427391002408  0.69986463889501294  -0.20829703180425263
1422    -0.2859584072401874  -0.65645026083472169  0.033940205807848553
1423    0.15693140412792631  -0.27950432248580881  0.059628856586852429
1424    0.11621115855751314  0.20101854443686934  -0.33944769075040426
1425    -0.057910548992387983  0.66049111311093389  -0.13384274456917364
1426    -0.057276836915008907  0.38159898162187733  -0.017540509430599604
1427    -0.14083896012411382  -0.44082998894885728  0.48099841696720957
1428    0.065480413187023773  0.4331175338631848  -0.47978309318906259
1429    0.099544517089187753  0.35826790274478132  -0.5868228336448249
1430    0.1356675935378448  -0.41858042681785079  0.076794985308318214
1431    0.20924431597985707  -0.41891383929775283  0.037992294831537092
1432    -0.15347028848797672  -0.16139817554447511  -0.09193504496976676
1433    0.3598280329680496  0.69717350973160952  -0.25546917564136024
1434    0.16012512488158934  -0.47542871651379492  0.064029042767238656
1435    -0.14298126958984797  -0.2411128473077912  -0.037574474052575114
1436    0.15420982444565715  -0.41767505474287914  -0.016144194606808323
1437    0.15454345276042641  -0.38463757950834832  0.17317361431063585
1438    -0.091369283083368807  0.71409004521888375  -0.40494513363167206
1439    -0.15111143133266094  -0.43214880160451652  0.36261543750142383
1440    0.21805150463370479  -0.42889796646112543  0.63937087900133704
1441    0.25672782012557405  -0.40973270313343696  0.59510204115980714
1442    0.20671759090441386  0.036832226703128843  0.0080635389530523821
1443    0.1791825190130607  -0.27614092518474997  -0.062848851812661463
1444    0.17315899169640037  -0.56822841092851595  0.023199383418271904
1445    0.1060422145011789  -0.0068779700729433872  0.11876288397697529
1446    0.22248182203062028  -0.032329525633476346  0.83045636524896227
1447    0.1918442345461478  -0.22581279740169893  0.86338723435175191
1448    0.022023896321083682  0.05737663131073531  0.29957575131324171
1449    0.12656620500022658  0.20308839389892314  -0.22465791740939475
1450    -0.058151537479279071  0.28499808747013733  0.054541481293559492
1451    -0.17713637059593351  0.73929065101411739  -0.28137923665094494
# Generated by /Users/zhenhan/Desktop/TetGen/tetgen -pq1.4/12YO9/7 spot_2000f.off 
