# Spot (Keenan Crane)
# quadric edge-collapse decimation to 500 triangles, 252 vertices
v 0.3317859 -0.01092501 -0.002961476
v 0.1505381 -0.4539487 0.1619438
v 0.3645891 -0.3808687 0.1610487
v 0.08716796 -0.3670678 0.9032548
v 0.2100827 0.2854213 0.231697
v 0.124304 0.146218 -0.2237434
v 0.2094862 0.4468142 -0.01109635
v 0.1701001 0.7758837 -0.4074913
v 0.2033187 -0.6339297 -0.1140373
v -0.08268639 -0.04809966 0.9945158
v -0.1687472 -0.4600727 0.1812869
v -0.1317114 -0.3568261 -0.08920538
v -0.3482508 -0.3759004 0.1933613
v -0.1416791 0.3017318 -0.002754716
v -0.3088677 -0.6752306 0.7736325
v -0.1727035 0.7907334 -0.3377932
v 0.3560153 -0.3600701 0.2799426
v 0.377538 -0.05376044 0.1374054
v 0.3855956 -0.06921902 0.247426
v 0.3304834 -0.1303934 0.7757816
v 0.2158544 0.1605422 0.4694107
v 0.1862376 0.1675205 0.7085449
v 0.1833278 0.2159776 -0.01626965
v 0.2631947 0.1407631 -0.4761176
v 0.2864761 0.3234347 -0.6202915
v 0.2518172 -0.7292327 0.1035591
v 0.268848 -0.6609542 -0.1020141
v 0.2101866 -0.7289937 0.7168707
v 0.0895876 -0.6035527 0.8735057
v 0.1503578 -0.6808442 0.1246506
v 0.1035281 -0.580614 0.06300796
v 0.2667987 0.5144995 -0.4863925
v 0.1297541 0.3147935 0.2446195
v 0.03677056 -0.4001713 0.8167469
v 0.1323765 0.1004264 -0.4653789
v 0.2476636 0.1905611 -0.5964582
v 0.17227 0.9260107 -0.3229626
v 0.1575881 -0.5159732 0.4252707
v 0.2628738 0.01001617 0.8633284
v -0.08664918 -0.1078223 -0.2147174
v -0.3751696 -0.01850774 0.1702821
v -0.3687425 -0.1854348 0.01014285
v -0.3700247 -0.2889393 0.3951627
v -0.1780323 0.1601543 -0.07510416
v -0.2104682 -0.7408789 0.02288982
v -0.2177987 -0.7372559 0.8178043
v -0.2684505 -0.6223146 0.66912
v -0.08442977 -0.6607411 0.7705706
v -0.1574189 -0.6609106 0.6676197
v -0.1780235 -0.5520895 0.9321166
v -0.3621039 -0.3908832 -0.08399749
v -0.1168893 -0.5786469 -0.0537887
v -0.05579214 0.3356523 0.0355868
v -0.03062311 0.8148149 -0.4124265
v -0.1460044 0.3463414 -0.6653515
v -0.1694128 0.9704204 -0.2495946
v -0.1100641 0.8121711 -0.2127705
v -0.2220768 0.9117752 -0.3212709
v 0.2672048 -0.4270739 0.4241555
v 0.223063 -0.4326056 0.2869491
v 0.2903231 -0.4213632 0.2215278
v 0.29234 -0.4195704 0.5662503
v 0.338617 -0.4125781 -0.1034959
v 0.2805901 -0.08703399 -0.1080647
v 0.214449 -0.2943537 -0.1194434
v 0.112264 -0.173133 -0.1919873
v 0.1588907 0.05222301 -0.1525901
v 0.2192851 -0.4167545 0.9295103
v 0.2684388 -0.2212777 0.8882481
v 0.1916725 -0.2834167 0.9261149
v 0.3793646 -0.2797016 -0.01222852
v 0.3829864 -0.278681 0.2423741
v 0.3320302 -0.4719562 0.8726331
v 0.3401901 -0.3277525 0.6835774
v 0.2384353 0.2496231 0.1444298
v 0.2882894 0.1510424 0.2359995
v 0.3567487 -0.05791372 0.5717369
v 0.315057 0.02907305 0.6844097
v 0.1627759 0.1721121 -0.1386351
v 0.1741416 0.2840239 -0.04972766
v 0.2375253 0.2453101 -0.2095408
v 0.2677484 0.3989731 -0.1105191
v 0.3306079 0.2490476 -0.4274117
v 0.335602 0.2908356 -0.5354681
v 0.1928688 -0.7286462 -0.01429936
v 0.3249882 -0.6655062 -0.0633441
v 0.3563005 -0.6630611 0.02428484
v 0.1134678 -0.676841 0.0240213
v 0.2755645 -0.6528521 0.8888332
v 0.1362154 -0.7200537 0.8440628
v 0.2782399 -0.7117755 0.8027476
v 0.3327037 -0.6091494 0.7799185
v 0.2898847 -0.6372383 0.6975859
v 0.08878455 -0.4884631 0.6835292
v 0.06109265 -0.4703065 0.760765
v 0.09459093 -0.6963938 0.7637832
v 0.2985919 -0.446953 0.6406223
v 0.1993671 -0.6603026 0.6564106
v 0.1849354 -0.4869917 0.62682
v 0.2420251 -0.5458964 0.9296904
v 0.2172538 -0.6648097 0.9145633
v 0.1530064 -0.5946655 0.9234824
v 0.3831404 -0.5076572 -0.05372105
v 0.104732 -0.352333 -0.06574375
v 0.1168893 -0.5786469 -0.0537887
v 0.209551 -0.6356981 0.1767004
v 0.230888 -0.4607188 0.2072235
v 0.3444152 -0.5854891 0.147402
v 0.2979663 0.4841348 -0.2970188
v 0.23119 0.59584 -0.1143327
v 0.39549 0.6011052 -0.1924453
v 0.265661 0.6285046 -0.3607456
v 0.3789325 0.6848266 -0.3298684
v 0.280068 0.5484511 -0.1883913
v 0.4424462 0.6902047 -0.2626541
v 0.4723782 0.7213133 -0.1611569
v 0.4421238 0.6522064 -0.1575805
v -0.1194966 0.3149908 0.2699293
v 0.08737372 0.2267235 0.4949247
v 0.009445989 0.2257224 0.70723
v 0.08468303 0.1729608 0.8267993
v 0.001025493 -0.4287538 0.0349846
v 0.1042607 0.2921294 0.3316251
v 0.1336878 0.4599758 0.04029593
v 0.1093701 0.3237559 0.02354269
v 0.1547488 0.4887447 -0.5657958
v 0.09360153 0.6973765 -0.4815968
v 0.07692882 -0.2976592 -0.1223248
v -0.001017314 0.1153941 -0.2763521
v -0.08441222 0.1546008 -0.594095
v 0.1649235 0.2526715 -0.6579438
v 0.1396201 0.3420965 -0.6673994
v 0.1005705 0.5796845 0.002788549
v -0.001463417 0.7473019 -0.07224348
v 0.2323566 0.6504483 -0.466687
v 0.2292602 0.9295014 -0.2969138
v 0.2027172 0.7787026 -0.2857048
v 0.197826 0.8373323 -0.2306577
v 0.2486566 0.7189668 -0.3406858
v 0.4222385 0.7634061 -0.2530105
v 0.1905016 0.7622201 -0.1963409
v 0.1237866 0.7940644 -0.2007889
v 0.1057293 0.8248955 -0.3218556
v 0.08144655 0.8244377 -0.2296833
v 0.1953433 0.9487134 -0.2337596
v 0.08525497 -0.4671986 0.6381658
v 0.0847464 -0.4225799 0.03830708
v 0.07480074 -0.4485423 0.1774371
v -0.06126146 -0.4604594 0.6633811
v 0.1574951 0.04985095 0.9120796
v 0.1193976 -0.04898053 0.9761851
v 0.001327952 -0.08043907 1.057432
v 0.003911902 -0.1029815 1.037727
v -0.3374762 -0.3862804 0.4304029
v -0.2909457 -0.4300343 0.2148259
v -0.1580505 -0.4449247 0.2245058
v -0.2436608 -0.4321453 0.379035
v -0.2478012 -0.4536363 0.6153966
v -0.2325406 -0.2943083 -0.1185537
v -0.2900737 -0.2251492 -0.110851
v -0.04796077 -0.2259314 -0.1798069
v -0.08388087 -0.3106211 -0.1033146
v -0.1260907 0.06260654 -0.1745565
v -0.2935071 -0.01956341 -0.06702464
v -0.2790719 -0.2234525 0.8824627
v -0.1560786 -0.3270083 0.9261301
v -0.2278334 -0.0940124 0.9249845
v -0.3810292 -0.3073015 0.1195612
v -0.3896167 -0.1608672 0.2595538
v -0.3379482 -0.4292314 0.8559282
v -0.3418152 -0.2589404 0.7139414
v -0.3348511 -0.05829555 0.7699347
v -0.3262268 -0.3896193 0.6557377
v -0.1575922 0.3091106 0.2164116
v -0.2328345 0.2554844 0.1707292
v -0.1972404 0.1741755 0.5021417
v -0.2727173 0.08271162 0.7202784
v -0.2048887 0.1075924 0.8301022
v -0.1048255 0.2027071 0.7545211
v -0.3249378 0.04088972 0.03235688
v -0.3390239 -0.002816004 0.4453511
v -0.1521525 0.1641825 -0.1757995
v -0.1876394 0.2582736 -0.09879372
v -0.2908624 0.1967038 -0.4027973
v -0.2915454 0.376401 -0.1745695
v -0.2315666 0.1319852 -0.4487263
v -0.2681999 0.2691855 -0.6326446
v -0.2861569 0.3452996 -0.6065891
v -0.3302164 0.2425809 -0.5294228
v -0.268848 -0.6609542 -0.1020141
v -0.3421655 -0.6913049 0.02579067
v -0.1364322 -0.6844339 -0.03391058
v -0.2566897 -0.7258079 0.1098561
v -0.2541065 -0.692892 0.8806889
v -0.1902903 -0.719891 0.6975475
v -0.1222604 -0.7133581 0.8182356
v -0.3405088 -0.5402946 0.8209806
v -0.2958683 -0.5713388 0.9071375
v -0.1201015 -0.4775943 0.6482511
v -0.1902409 -0.6757713 0.9158904
v -0.09649516 -0.6171889 0.8833093
v -0.3560218 -0.599865 0.117903
v -0.3893361 -0.4668705 -0.0246772
v -0.3677831 -0.6079341 -0.04093237
v -0.2137125 -0.5976521 -0.1197396
v -0.3067938 -0.5042563 -0.1180475
v -0.2589128 -0.625161 0.1803102
v -0.1513591 -0.6857667 0.1208454
v -0.09967527 -0.4371741 0.07447036
v -0.1041446 -0.6201617 0.05734241
v -0.300563 0.4391904 -0.4732266
v -0.3037114 0.4512095 -0.3842095
v -0.3284167 0.3336128 -0.3586488
v -0.2498092 0.5714281 -0.1277576
v -0.2721628 0.5548735 -0.1919506
v -0.4146143 0.6398986 -0.2684598
v -0.2710187 0.6251708 -0.3438707
v -0.3834193 0.6997043 -0.3261358
v -0.4407484 0.6494564 -0.1553245
v -0.4006842 0.7511868 -0.2831736
v -0.4669207 0.7468447 -0.2056904
v -0.1958074 0.2723579 0.2897726
v -0.06854313 0.2305761 0.4814502
v -0.07776575 -0.3993281 0.01000297
v -0.05927643 -0.35174 0.8880783
v -0.04169902 -0.4177495 0.7988383
v 0.007517646 0.4965323 0.06680675
v -0.2041898 0.4446286 -0.005548666
v -0.1124093 0.5033431 -0.5593708
v -0.2463026 0.6277679 -0.4685234
v -0.1942348 0.7168413 -0.4551325
v -0.2424794 0.4813017 -0.5391301
v 0.009810391 0.06569679 -0.2473853
v -0.1051861 0.1366632 -0.2532901
v -0.1374156 0.09971725 -0.4479638
v -0.255423 0.1833775 -0.5757612
v -0.1384179 0.2665424 -0.662902
v -0.1186808 0.5006984 0.04191097
v -0.107228 0.7476484 -0.1537583
v -0.214649 0.6256764 -0.1198614
v -0.2045202 0.7659607 -0.2321815
v -0.2498419 0.7160551 -0.3439749
v -0.2034027 0.7591879 -0.1988755
v -0.417476 0.7205343 -0.1576861
v 0.01572071 0.8012203 -0.1503112
v -0.08316548 0.8330455 -0.2807387
v -0.2141421 0.9207624 -0.2348811
v -0.1874903 -0.4938907 0.4135496
v -0.1732848 -0.4601015 0.5595805
v 0.002925238 -0.5493817 0.4288254
v -0.02696359 0.09747323 0.9308365
v -0.009436649 -0.2029874 0.9746267
f 59 61 17
f 17 62 59
f 99 62 97
f 146 59 62
f 128 66 65
f 66 67 64
f 23 64 67
f 69 70 68
f 64 71 63
f 18 72 71
f 72 74 17
f 73 20 69
f 39 69 20
f 77 74 72
f 62 17 74
f 75 33 5
f 77 76 21
f 5 123 21
f 150 39 121
f 78 21 22
f 39 78 22
f 39 20 78
f 75 1 23
f 1 75 18
f 76 18 75
f 79 23 67
f 81 80 79
f 125 23 80
f 81 82 80
f 80 82 7
f 6 24 81
f 84 36 25
f 83 24 84
f 25 32 84
f 26 86 87
f 85 27 86
f 30 88 85
f 27 85 9
f 90 91 101
f 89 101 91
f 93 97 92
f 92 74 73
f 92 73 89
f 93 92 91
f 96 29 95
f 34 95 29
f 94 96 95
f 29 96 90
f 98 97 93
f 96 98 28
f 99 98 94
f 29 102 4
f 102 100 68
f 90 101 102
f 73 100 89
f 101 89 100
f 71 3 103
f 108 103 3
f 87 86 103
f 105 104 9
f 103 86 63
f 27 63 86
f 30 106 2
f 107 2 106
f 30 26 106
f 108 106 26
f 3 61 108
f 31 147 105
f 88 30 31
f 2 31 30
f 112 109 32
f 32 109 84
f 109 112 114
f 82 83 109
f 141 110 116
f 110 114 111
f 114 112 113
f 113 140 115
f 116 115 140
f 113 115 111
f 119 120 22
f 22 120 121
f 104 122 128
f 146 34 149
f 225 34 4
f 227 53 125
f 7 124 80
f 125 80 124
f 54 8 127
f 127 135 126
f 25 126 32
f 132 126 25
f 4 70 252
f 128 161 66
f 161 40 66
f 67 66 233
f 233 6 67
f 129 235 35
f 35 36 24
f 130 131 36
f 131 25 36
f 7 114 110
f 133 124 7
f 227 133 134
f 145 136 37
f 137 138 142
f 137 142 141
f 140 139 141
f 142 144 245
f 142 245 134
f 134 133 142
f 137 8 143
f 8 137 139
f 8 139 135
f 138 136 145
f 136 138 137
f 37 144 145
f 143 144 37
f 122 147 148
f 60 59 38
f 149 250 146
f 38 146 250
f 38 250 148
f 60 38 148
f 150 151 39
f 152 150 251
f 157 155 156
f 158 173 154
f 162 159 161
f 164 40 160
f 167 166 252
f 203 42 51
f 42 203 168
f 42 168 169
f 168 13 154
f 181 41 169
f 167 172 165
f 169 172 181
f 180 41 175
f 175 222 174
f 44 180 14
f 181 177 176
f 181 175 41
f 14 228 183
f 185 183 228
f 183 185 184
f 236 186 189
f 213 211 189
f 232 188 211
f 45 191 190
f 190 192 45
f 193 45 208
f 192 208 45
f 46 194 15
f 195 46 15
f 195 48 196
f 194 46 200
f 196 200 46
f 170 173 197
f 173 47 15
f 15 198 197
f 48 226 201
f 201 196 48
f 49 199 48
f 173 158 47
f 47 49 195
f 201 225 50
f 50 166 198
f 165 198 166
f 202 168 203
f 51 204 203
f 52 205 12
f 192 190 205
f 51 206 204
f 190 204 206
f 160 159 206
f 207 155 202
f 13 202 155
f 207 193 208
f 210 52 209
f 224 209 52
f 192 210 208
f 11 208 210
f 211 212 230
f 217 230 212
f 211 213 212
f 215 185 214
f 214 240 244
f 214 244 219
f 214 219 215
f 216 215 219
f 218 216 220
f 221 220 216
f 118 174 222
f 223 120 119
f 176 179 223
f 121 120 179
f 178 251 179
f 251 121 179
f 209 224 122
f 226 34 225
f 222 176 118
f 14 174 53
f 118 53 174
f 127 126 229
f 231 232 230
f 229 231 127
f 55 188 232
f 229 132 55
f 163 233 40
f 233 163 234
f 235 129 234
f 234 186 235
f 235 186 236
f 130 237 131
f 236 187 130
f 237 130 187
f 132 131 237
f 227 134 238
f 228 240 214
f 241 58 16
f 239 57 243
f 245 57 239
f 220 241 242
f 218 242 217
f 221 243 220
f 221 219 244
f 243 240 239
f 231 16 54
f 231 230 242
f 58 246 16
f 241 57 247
f 57 56 247
f 157 248 249
f 249 149 199
f 156 122 148
f 178 172 167
f 167 252 10
f 152 251 10
f 10 153 152
f 59 60 61
f 61 60 107
f 2 107 60
f 3 17 61
f 62 99 146
f 94 146 99
f 64 63 65
f 104 128 65
f 65 66 64
f 64 23 1
f 69 68 73
f 70 4 68
f 72 18 19
f 71 72 3
f 3 72 17
f 71 1 18
f 64 1 71
f 74 20 73
f 77 78 20
f 74 77 20
f 72 19 77
f 97 62 74
f 5 21 76
f 119 21 123
f 121 39 22
f 21 119 22
f 77 19 76
f 78 77 21
f 19 18 76
f 75 5 76
f 6 81 79
f 23 79 80
f 75 23 125
f 83 82 81
f 83 81 24
f 24 36 84
f 86 26 85
f 87 108 26
f 30 85 26
f 88 9 85
f 28 91 90
f 90 96 28
f 91 28 93
f 92 97 74
f 91 92 89
f 29 4 34
f 97 98 99
f 28 98 93
f 94 98 96
f 102 68 4
f 29 90 102
f 100 102 101
f 100 73 68
f 103 108 87
f 63 71 103
f 65 9 104
f 9 65 63
f 63 27 9
f 106 108 107
f 61 107 108
f 105 147 104
f 105 9 88
f 105 88 31
f 31 2 147
f 7 82 114
f 82 109 114
f 84 109 83
f 117 110 111
f 110 117 116
f 113 111 114
f 115 116 117
f 117 111 115
f 123 5 33
f 33 75 125
f 147 122 104
f 34 146 95
f 94 95 146
f 119 123 223
f 118 33 53
f 125 53 33
f 124 227 125
f 135 127 8
f 32 126 135
f 225 4 252
f 40 233 66
f 129 6 233
f 79 67 6
f 6 129 35
f 35 24 6
f 36 35 130
f 25 131 132
f 133 227 124
f 7 110 133
f 133 110 141
f 135 112 32
f 137 141 139
f 113 112 139
f 140 113 139
f 140 141 116
f 142 133 141
f 143 8 54
f 246 245 144
f 143 246 144
f 112 135 139
f 37 136 137
f 143 37 137
f 138 144 142
f 138 145 144
f 38 59 146
f 148 147 2
f 2 60 148
f 69 39 151
f 69 151 70
f 150 152 151
f 121 251 150
f 10 252 151
f 70 151 252
f 152 153 151
f 151 153 10
f 154 13 157
f 155 157 13
f 155 11 156
f 249 158 157
f 154 157 158
f 199 158 249
f 161 160 40
f 159 162 12
f 160 161 159
f 163 164 44
f 160 51 164
f 40 164 163
f 167 165 166
f 154 43 168
f 169 168 43
f 51 42 164
f 180 164 42
f 41 42 169
f 180 42 41
f 165 171 170
f 173 170 171
f 171 165 172
f 172 169 171
f 43 171 169
f 154 173 43
f 171 43 173
f 181 176 222
f 178 179 177
f 179 176 177
f 178 177 172
f 44 164 180
f 180 175 14
f 177 181 172
f 222 175 181
f 163 44 182
f 14 183 44
f 44 183 182
f 184 182 183
f 182 184 186
f 189 184 213
f 185 213 184
f 189 186 184
f 188 189 211
f 55 187 188
f 187 236 189
f 187 189 188
f 204 190 191
f 191 45 193
f 191 193 202
f 196 46 195
f 197 173 15
f 194 198 15
f 197 198 170
f 201 226 225
f 196 201 200
f 49 48 195
f 48 199 226
f 49 47 158
f 158 199 49
f 195 15 47
f 50 225 166
f 170 198 165
f 194 200 198
f 198 200 50
f 201 50 200
f 202 13 168
f 203 204 202
f 191 202 204
f 159 12 205
f 52 192 205
f 206 205 190
f 160 206 51
f 205 206 159
f 155 207 11
f 193 207 202
f 208 11 207
f 52 12 224
f 210 209 11
f 52 210 192
f 215 217 212
f 212 213 215
f 185 215 213
f 228 214 185
f 215 216 217
f 218 217 216
f 216 219 221
f 123 33 118
f 120 223 179
f 162 224 12
f 224 162 122
f 128 122 162
f 199 149 226
f 34 226 149
f 118 223 123
f 118 176 223
f 174 14 175
f 53 227 238
f 228 14 238
f 53 238 14
f 232 231 229
f 231 54 127
f 55 232 229
f 126 132 229
f 166 225 252
f 161 128 162
f 234 129 233
f 182 234 163
f 182 186 234
f 35 235 130
f 236 130 235
f 187 55 237
f 237 55 132
f 238 134 239
f 238 239 240
f 228 238 240
f 232 211 230
f 56 58 247
f 241 243 57
f 220 242 218
f 243 241 220
f 221 244 243
f 243 244 240
f 239 134 245
f 246 54 16
f 143 54 246
f 246 57 245
f 217 242 230
f 16 231 242
f 241 16 242
f 241 247 58
f 246 58 56
f 56 57 246
f 156 11 209
f 122 156 209
f 157 156 248
f 249 250 149
f 248 250 249
f 156 250 248
f 148 250 156
f 178 167 10
f 178 10 251
