# involute spur gear  z=18 module=1.0 pressure_angle=20.0 thickness=4.0 bore_r=2.7 h=0.9 backlash=0.0
# pitch_r=9 base_r=8.45723 tip_r=10 root_r=7.75
# 1721 verts, 3442 tris, volume=904.443
o gear
v 7.66603835 -1.13769766 -2
v 8.06135723 -0.826513654 -2
v 8.73673807 -0.835722763 -2
v 9.38628332 -0.642004611 -2
v 9.99419224 -0.340765907 -2
v 9.99419224 0.340765907 -2
v 9.38628332 0.642004611 -2
v 8.73673807 0.835722763 -2
v 8.06135723 0.826513654 -2
v 7.66603835 1.13769766 -2
v 7.59283519 1.55285344 -2
v 7.85788222 1.98047777 -2
v 8.49568232 2.20281789 -2
v 9.03979968 2.60701097 -2
v 9.50801751 3.09799986 -2
v 9.2749199 3.73843027 -2
v 8.60064266 3.81358496 -2
v 7.92401428 3.77346292 -2
v 7.29251358 3.53381534 -2
v 6.81460416 3.69102563 -2
v 6.60382404 4.0561075 -2
v 6.70663064 4.54859435 -2
v 7.22992189 4.9756662 -2
v 7.60298279 5.54158255 -2
v 7.87503553 6.16310111 -2
v 7.43695533 6.68518477 -2
v 6.77763757 6.52519068 -2
v 6.15553742 6.25606776 -2
v 5.64408517 5.81488673 -2
v 5.14122812 5.79916144 -2
v 4.81829425 6.07013513 -2
v 4.74646043 6.56808332 -2
v 5.09212618 7.14837574 -2
v 5.24913396 7.80775749 -2
v 5.29220805 8.48484142 -2
v 4.70198419 8.82560733 -2
v 4.13714936 8.4497621 -2
v 3.64461189 7.9840985 -2
v 3.31489679 7.39459697 -2
v 2.8477441 7.20783279 -2
v 2.45160706 7.35201488 -2
v 2.21379705 7.79536451 -2
v 2.3401449 8.45888566 -2
v 2.26216211 9.13220165 -2
v 2.07106218 9.78318463 -2
v 1.39988436 9.90153139 -2
v 0.997659874 9.35516751 -2
v 0.694092389 8.74912913 -2
v 0.585882937 8.08240969 -2
v 0.210780116 7.74713313 -2
v -0.210780116 7.74713313 -2
v -0.585882937 8.08240969 -2
v -0.694092389 8.74912913 -2
v -0.997659874 9.35516751 -2
v -1.39988436 9.90153139 -2
v -2.07106218 9.78318463 -2
v -2.26216211 9.13220165 -2
v -2.3401449 8.45888566 -2
v -2.21379705 7.79536451 -2
v -2.45160706 7.35201488 -2
v -2.8477441 7.20783279 -2
v -3.31489679 7.39459697 -2
v -3.64461189 7.9840985 -2
v -4.13714936 8.4497621 -2
v -4.70198419 8.82560733 -2
v -5.29220805 8.48484142 -2
v -5.24913396 7.80775749 -2
v -5.09212618 7.14837574 -2
v -4.74646043 6.56808332 -2
v -4.81829425 6.07013513 -2
v -5.14122812 5.79916144 -2
v -5.64408517 5.81488673 -2
v -6.15553742 6.25606776 -2
v -6.77763757 6.52519068 -2
v -7.43695533 6.68518477 -2
v -7.87503553 6.16310111 -2
v -7.60298279 5.54158255 -2
v -7.22992189 4.9756662 -2
v -6.70663064 4.54859435 -2
v -6.60382404 4.0561075 -2
v -6.81460416 3.69102563 -2
v -7.29251358 3.53381534 -2
v -7.92401428 3.77346292 -2
v -8.60064266 3.81358496 -2
v -9.2749199 3.73843027 -2
v -9.50801751 3.09799986 -2
v -9.03979968 2.60701097 -2
v -8.49568232 2.20281789 -2
v -7.85788222 1.98047777 -2
v -7.59283519 1.55285344 -2
v -7.66603835 1.13769766 -2
v -8.06135723 0.826513654 -2
v -8.73673807 0.835722763 -2
v -9.38628332 0.642004611 -2
v -9.99419224 0.340765907 -2
v -9.99419224 -0.340765907 -2
v -9.38628332 -0.642004611 -2
v -8.73673807 -0.835722763 -2
v -8.06135723 -0.826513654 -2
v -7.66603835 -1.13769766 -2
v -7.59283519 -1.55285344 -2
v -7.85788222 -1.98047777 -2
v -8.49568232 -2.20281789 -2
v -9.03979968 -2.60701097 -2
v -9.50801751 -3.09799986 -2
v -9.2749199 -3.73843027 -2
v -8.60064266 -3.81358496 -2
v -7.92401428 -3.77346292 -2
v -7.29251358 -3.53381534 -2
v -6.81460416 -3.69102563 -2
v -6.60382404 -4.0561075 -2
v -6.70663064 -4.54859435 -2
v -7.22992189 -4.9756662 -2
v -7.60298279 -5.54158255 -2
v -7.87503553 -6.16310111 -2
v -7.43695533 -6.68518477 -2
v -6.77763757 -6.52519068 -2
v -6.15553742 -6.25606776 -2
v -5.64408517 -5.81488673 -2
v -5.14122812 -5.79916144 -2
v -4.81829425 -6.07013513 -2
v -4.74646043 -6.56808332 -2
v -5.09212618 -7.14837574 -2
v -5.24913396 -7.80775749 -2
v -5.29220805 -8.48484142 -2
v -4.70198419 -8.82560733 -2
v -4.13714936 -8.4497621 -2
v -3.64461189 -7.9840985 -2
v -3.31489679 -7.39459697 -2
v -2.8477441 -7.20783279 -2
v -2.45160706 -7.35201488 -2
v -2.21379705 -7.79536451 -2
v -2.3401449 -8.45888566 -2
v -2.26216211 -9.13220165 -2
v -2.07106218 -9.78318463 -2
v -1.39988436 -9.90153139 -2
v -0.997659874 -9.35516751 -2
v -0.694092389 -8.74912913 -2
v -0.585882937 -8.08240969 -2
v -0.210780116 -7.74713313 -2
v 0.210780116 -7.74713313 -2
v 0.585882937 -8.08240969 -2
v 0.694092389 -8.74912913 -2
v 0.997659874 -9.35516751 -2
v 1.39988436 -9.90153139 -2
v 2.07106218 -9.78318463 -2
v 2.26216211 -9.13220165 -2
v 2.3401449 -8.45888566 -2
v 2.21379705 -7.79536451 -2
v 2.45160706 -7.35201488 -2
v 2.8477441 -7.20783279 -2
v 3.31489679 -7.39459697 -2
v 3.64461189 -7.9840985 -2
v 4.13714936 -8.4497621 -2
v 4.70198419 -8.82560733 -2
v 5.29220805 -8.48484142 -2
v 5.24913396 -7.80775749 -2
v 5.09212618 -7.14837574 -2
v 4.74646043 -6.56808332 -2
v 4.81829425 -6.07013513 -2
v 5.14122812 -5.79916144 -2
v 5.64408517 -5.81488673 -2
v 6.15553742 -6.25606776 -2
v 6.77763757 -6.52519068 -2
v 7.43695533 -6.68518477 -2
v 7.87503553 -6.16310111 -2
v 7.60298279 -5.54158255 -2
v 7.22992189 -4.9756662 -2
v 6.70663064 -4.54859435 -2
v 6.60382404 -4.0561075 -2
v 6.81460416 -3.69102563 -2
v 7.29251358 -3.53381534 -2
v 7.92401428 -3.77346292 -2
v 8.60064266 -3.81358496 -2
v 9.2749199 -3.73843027 -2
v 9.50801751 -3.09799986 -2
v 9.03979968 -2.60701097 -2
v 8.49568232 -2.20281789 -2
v 7.85788222 -1.98047777 -2
v 7.59283519 -1.55285344 -2
v 2.55370655 -0.876688567 -2
v 2.13067938 -1.65837432 -2
v 1.47676003 -2.26034949 -2
v 0.662810815 -2.61738072 -2
v -0.222964233 -2.69077813 -2
v -1.08457765 -2.47258798 -2
v -1.82866024 -1.98645456 -2
v -2.37457913 -1.28505796 -2
v -2.66317552 -0.444405394 -2
v -2.66317552 0.444405394 -2
v -2.37457913 1.28505796 -2
v -1.82866024 1.98645456 -2
v -1.08457765 2.47258798 -2
v -0.222964233 2.69077813 -2
v 0.662810815 2.61738072 -2
v 1.47676003 2.26034949 -2
v 2.13067938 1.65837432 -2
v 2.55370655 0.876688567 -2
v 2.7 0 -2
v -6.06202466 -3.49991157 -2
v -6.89348009 -1.21550653 -2
v -4.49939958 -5.36217561 -2
v -2.39408051 -6.57768215 -2
v -6.06202466 3.49991157 -2
v -6.89348009 1.21550653 -2
v -4.49939958 5.36217561 -2
v -2.39408051 6.57768215 -2
v -1.38777878e-15 -6.99982313 -2
v 2.39408051 -6.57768215 -2
v 4.49939958 -5.36217561 -2
v 6.06202466 -3.49991157 -2
v 6.89348009 -1.21550653 -2
v 4.4408921e-16 6.99982313 -2
v 2.39408051 6.57768215 -2
v 4.49939958 5.36217561 -2
v 6.06202466 3.49991157 -2
v 6.89348009 1.21550653 -2
v -5.78218402 -4.48459867 -2
v -6.77486838 -2.76521891 -2
v -7.3120544 -0.281314352 -2
v -3.89965257 -6.19176769 -2
v -1.54676548 -7.15211814 -2
v -6.77486838 2.76521891 -2
v -5.78218402 4.48459867 -2
v -3.89965257 6.19176769 -2
v -1.54676548 7.15211814 -2
v 0.992684366 -7.24981758 -2
v 3.41240182 -6.47308204 -2
v 5.42053326 -4.91559726 -2
v 6.77486838 -2.76521891 -2
v 7.3120544 -0.281314352 -2
v 0.992684366 7.24981758 -2
v 3.41240182 6.47308204 -2
v 5.42053326 4.91559726 -2
v 6.77486838 2.76521891 -2
v -5.4141816 -5.11870802 -2
v -7.14002198 -2.12946479 -2
v -7.43774582 0.440988989 -2
v -3.33696524 -6.66177132 -2
v -0.857261633 -7.40132669 -2
v -7.14002198 2.12946479 -2
v -5.4141816 5.11870802 -2
v -3.33696524 6.66177132 -2
v -0.857261633 7.40132669 -2
v 1.72584038 -7.24817282 -2
v 4.10078058 -6.22078233 -2
v 5.98110611 -4.44307369 -2
v 7.14002198 -2.12946479 -2
v 7.43774582 0.440988989 -2
v 1.72584038 7.24817282 -2
v 4.10078058 6.22078233 -2
v 5.98110611 4.44307369 -2
v 7.14002198 2.12946479 -2
v -7.23662295 -6.07224765 -2
v -8.30796766 -3.02385293 -2
v -6.4427251 -5.40608825 -2
v -8.84115452 9.99200722e-16 -2
v -1.53525037 -8.70683751 -2
v -4.42057726 -7.65666441 -2
v -8.8770322 3.23097549 -2
v -7.90317231 2.87651948 -2
v -7.23662295 6.07224765 -2
v -6.4427251 5.40608825 -2
v -4.20519015 7.283603 -2
v -4.72337018 8.18111713 -2
v -1.46044721 8.28260773 -2
v -1.64040925 9.30322314 -2
v 1.53525037 -8.70683751 -2
v 4.42057726 -7.65666441 -2
v 6.4427251 -5.40608825 -2
v 8.30796766 -3.02385293 -2
v 7.23662295 -6.07224765 -2
v 8.84115452 1.11022302e-16 -2
v 4.20519015 7.283603 -2
v 1.53525037 8.70683751 -2
v 4.72337018 8.18111713 -2
v 7.90317231 2.87651948 -2
v 8.8770322 3.23097549 -2
v 6.4427251 5.40608825 -2
v 7.23662295 6.07224765 -2
v -8.89703598 -3.23825627 -2
v -9.46802793 1.22124533e-15 -2
v -1.6441058 -9.32418732 -2
v -4.73401397 -8.19955272 -2
v 1.6441058 -9.32418732 -2
v 4.73401397 -8.19955272 -2
v 8.89703598 -3.23825627 -2
v 9.46802793 0 -2
v 1.6441058 9.32418732 -2
v -4.70150958 -4.2812732 -2
v -6.05844615 -1.93099013 -2
v -6.35351466 0.257573439 -2
v -2.95369219 -5.63109182 -2
v -0.849615923 -6.30171765 -2
v -6.05844615 1.93099013 -2
v -4.70150958 4.2812732 -2
v -2.95369219 5.63109182 -2
v -0.849615923 6.30171765 -2
v 1.35693656 -6.21226334 -2
v 3.39982247 -5.37351838 -2
v 5.03263962 -3.8866478 -2
v 6.05844615 -1.93099013 -2
v 6.35351466 0.257573439 -2
v 1.35693656 6.21226334 -2
v 3.39982247 5.37351838 -2
v 5.03263962 3.8866478 -2
v 6.05844615 1.93099013 -2
v -7.55860981 -2.79262853 -2
v -5.99314421 -5.03086736 -2
v -8.05790507 -0.0390156109 -2
v -1.33035716 -7.98443957 -2
v -3.98096597 -7.04791 -2
v -7.35343105 2.67478145 -2
v -5.99314421 5.03086736 -2
v -3.91105541 6.77724498 -2
v -1.35723561 7.70618683 -2
v 1.48071236 -7.95792789 -2
v 4.11318611 -6.97157266 -2
v 5.99513575 -5.02849393 -2
v 7.63212389 -2.69662943 -2
v 8.09415209 0.0763373331 -2
v 3.91373861 6.77569583 -2
v 1.36081766 7.94226238 -2
v 7.35343105 2.67478145 -2
v 5.99513575 5.02849393 -2
v -5.20589988 -4.57399377 -2
v -5.32387462 -3.78978935 -2
v -6.56414474 -2.22144466 -2
v -6.01930828 -2.74529692 -2
v -6.92805719 0.157594571 -2
v -6.59524642 -0.521010575 -2
v -3.32754769 -6.07867081 -2
v -3.70662139 -5.38210944 -2
v -1.04784415 -6.85017045 -2
v -1.64229493 -6.32526771 -2
v -6.56414474 2.22144466 -2
v -5.94399116 2.71571599 -2
v -5.20589988 4.57399377 -2
v -5.38715101 3.84022542 -2
v -3.32754769 6.07867081 -2
v -3.7488316 5.45114565 -2
v -1.04784415 6.85017045 -2
v -1.65834778 6.40457727 -2
v 1.35824486 -6.79543843 -2
v 0.620116543 -6.50550534 -2
v 3.6005095 -5.92107624 -2
v 2.80773281 -5.90108301 -2
v 5.40849955 -4.33254488 -2
v 4.65669506 -4.58490298 -2
v 6.56414474 -2.22144466 -2
v 5.94399116 -2.71571599 -2
v 6.92805719 0.157594571 -2
v 6.5143542 -0.518973567 -2
v 1.35824486 6.79543843 -2
v 0.632157268 6.58552234 -2
v 3.6005095 5.92107624 -2
v 2.84641482 5.97215623 -2
v 5.40849955 4.33254488 -2
v 4.71735273 4.63845994 -2
v 6.56414474 2.22144466 -2
v 6.01930828 2.74529692 -2
v -4.14142681 -2.93224977 -2
v -6.10657593 -1.14214014 -2
v -4.08675545 -4.72567158 -2
v -1.28770317 -4.90829148 -2
v -2.22401907 -5.8384314 -2
v -4.61011619 2.12045594 -2
v -4.04241034 4.71737982 -2
v -2.18518425 5.81547277 -2
v -0.0930331612 -6.24699022 -2
v 2.16855109 -4.58768906 -2
v 2.04917392 -5.90206983 -2
v 3.94422037 -4.84527271 -2
v 4.61011619 -2.12045594 -2
v 5.36353565 -3.20406419 -2
v 6.13592936 -1.17639825 -2
v -0.064392686 6.21213388 -2
v 2.06416559 5.85951996 -2
v 3.94375503 4.80016146 -2
v 5.34766941 3.16183264 -2
v -5.02567919 -2.28944639 -2
v -4.61171543 -3.52777531 -2
v -5.74800391 -0.357241178 -2
v -3.01081124 -4.54089133 -2
v -1.26516872 -5.66678621 -2
v -4.49555833 3.20764266 -2
v -5.36100075 2.22997506 -2
v -3.18338189 4.79929682 -2
v -1.34994429 5.59864454 -2
v 0.612413469 -5.41383673 -2
v 2.6733645 -5.15424486 -2
v 3.94908311 -3.75358775 -2
v 5.36100075 -2.22997506 -2
v 5.43793287 -0.33699335 -2
v 0.646316523 5.7227131 -2
v 2.56462202 5.156538 -2
v 4.17359625 3.96840831 -2
v 5.27917318 2.30163002 -2
v -5.61408545 -2.31772684 -2
v -5.3006628 -3.02057507 -2
v -5.35507017 -1.57146444 -2
v -3.51455265 -4.83260099 -2
v -3.65635048 -4.00693616 -2
v -2.39577367 -5.05526414 -2
v -4.81425305 3.7030772 -2
v -5.26622614 3.0802211 -2
v -4.03846321 3.85189459 -2
v -5.21180455 0.918981761 -2
v -2.40347643 5.03154622 -2
v -0.537638906 5.5501442 -2
v 0.414032513 -5.96109804 -2
v -0.225318049 -5.41974796 -2
v 1.41419205 -5.41253063 -2
v 4.14888726 -4.30033106 -2
v 3.3111432 -4.29659946 -2
v 4.56244159 -3.23721389 -2
v 5.94243155 -0.627391382 -2
v 5.29828375 -1.16302432 -2
v 1.3930458 5.39931289 -2
v 3.15570863 4.59724475 -2
v 4.53774642 3.24068105 -2
v -4.73321205 -2.81672188 -2
v -4.31326793 -2.23903887 -2
v -4.22842211 -3.9555516 -2
v -3.8963249 -3.46843578 -2
v -2.82172506 -3.31227753 -2
v -3.42601944 -2.92933562 -2
v -1.8186156 -5.33910612 -2
v -4.80595873 2.69072094 -2
v -4.09569851 2.61588017 -2
v -5.06957907 1.59915379 -2
v -3.93493445 1.00694123 -2
v -4.58577406 1.14303324 -2
v -4.50160784 -0.0787718593 -2
v -4.14155839 1.64311063 -2
v -4.3713848 0.544000306 -2
v -3.23326741 1.58647821 -2
v -3.54341963 0.0458699026 -2
v -2.38171505 3.53286428 -2
v -0.6965797 -5.74810566 -2
v -0.755290493 -5.16148532 -2
v -0.0324758469 -4.3511217 -2
v -0.741542508 -4.44620412 -2
v 2.03877088 -5.25897615 -2
v 3.16120009 -4.8510572 -2
v 2.73915273 -4.43941852 -2
v 2.77196918 -3.35402767 -2
v 2.2899104 -3.8826443 -2
v 4.94219381 -2.71811279 -2
v 5.53981923 -1.68414516 -2
v 4.95191594 -1.64009845 -2
v 4.27937901 -0.78754682 -2
v 4.24988879 -1.50235205 -2
v 0.446381806 4.23726798 -2
v 3.06561166 2.95900689 -2
v -3.03160633 -3.90883365 -2
v -2.20133748 -4.19788821 -2
v -2.66420613 -2.39543896 -2
v -2.60394869 4.27913633 -2
v 0.190204655 -4.94301928 -2
v 1.01202819 -4.63076139 -2
v -0.498994386 -3.56354559 -2
v 3.32301677 -3.66431126 -2
v 3.75185462 -2.89684985 -2
v 1.91427848 -3.05598706 -2
v 4.9009524 -0.671031272 -2
v 4.57728555 0.447905919 -2
v 4.48798836 -0.184205409 -2
v 3.63020072 0.259335738 -2
v 3.43092574 -1.11055371 -2
v 0.755835386 4.95179457 -2
v -1.02841443 4.15709311 -2
v 3.76195569 3.30745309 -2
v 1.88431678 3.84557013 -2
v -1.44527696 -4.16823941 -2
v -3.32063386 4.0635946 -2
v 1.57214627 -4.12206276 -2
v 3.85394478 -2.14712713 -2
v 0.110180802 5.2533096 -2
v -0.982628358 4.92393885 -2
v -1.79690113 4.46701827 -2
v 3.46116571 3.95344577 -2
v 3.98357941 1.99453521 -2
v 2.41230989 4.40357733 -2
v 1.49483787 4.5769603 -2
v -1.85804227 -3.29730106 -2
v -3.45774946 3.20567147 -2
v 0.696121312 -3.7202057 -2
v 2.924562 -2.40238475 -2
v -0.307415214 4.49883414 -2
v -1.64955762 3.7246417 -2
v -1.7656385 5.1087506 -2
v 4.09951779 2.68927014 -2
v 3.48115221 2.43542244 -2
v 4.60783509 2.24739996 -2
v 2.69558479 2.23864844 -2
v 4.60906422 1.34737276 -2
v 3.25516029 1.67116394 -2
v 2.65630113 3.64390958 -2
v 1.13051909 3.91355627 -2
v 1.93128403 5.04846056 -2
v -0.319214931 3.59228272 -2
v -1.82289747 2.892925 -2
v 4.90044738 2.76716087 -2
v 2.06385604 2.95440969 -2
v 0.479079255 3.4215823 -2
v -5.4964356 -0.946521478 -2
v -4.52561847 -1.05537776 -2
v -5.07962243 -0.420242337 -2
v -5.08866052 0.255000871 -2
v -5.72063014 0.481203539 -2
v -5.89955916 1.20376183 -2
v -3.23397626 0.872800725 -2
v -2.59808252 2.02216879 -2
v -3.31825987 2.39124427 -2
v -3.81914294 2.11537657 -2
v -2.65362586 2.80096614 -2
v -2.99231012 5.55111512e-16 -2
v -3.31852123 -0.585681984 -2
v -1.87614578 -4.7223705 -2
v -2.40326737 -1.87053808 -2
v -3.2898249 -1.53365428 -2
v 1.5982702 -4.82350894 -2
v -0.759951107 -3.00097905 -2
v -1.18146502 -3.53831398 -2
v -1.36533882 -2.98433051 -2
v -1.92985294 -2.63993891 -2
v 4.32483779 -2.66767394 -2
v 2.19444985 -2.383808 -2
v 1.26888734 -2.89277175 -2
v 1.459194 -3.49787582 -2
v 3.05894088 0.510446952 -2
v 3.62043819 1.01246969 -2
v 3.06296735 1.13395437 -2
v 3.66322458 -0.444906961 -2
v 2.84652869 -1.54046429 -2
v 3.42665308 -1.71689976 -2
v -2.33480962 -3.63128591 -2
v -2.98056421 3.56932509 -2
v 0.54557765 -4.28251309 -2
v 0.263614499 -3.18135388 -2
v 3.17068308 -2.9299048 -2
v 5.52027914 0.864884224 -2
v -0.781737165 3.08701025 -2
v -1.08770915 3.57995074 -2
v 1.31327888 2.99397429 -2
v 2.08776327 2.33884855 -2
v -4.70120932 -1.69775757 -2
v -3.99702648 -1.6027244 -2
v -3.58111627 -2.20616883 -2
v -3.87090787 -0.952013893 -2
v -6.40062547 0.862167887 -2
v -2.93025762 -1.04834923 -2
v 4.2057389 0.91132767 -2
v 3.04933076 -0.508843306 -2
v 0.0744455235 -3.75582858 -2
v 4.94764535 0.885115698 -2
v 5.21310913 0.28477117 -2
v 5.25481536 1.46522875 -2
v -3.97724773 -0.364435094 -2
v 6.227405 0.959808389 -2
v 5.83422086 1.39169315 -2
v 7.66603835 -1.13769766 2
v 8.06135723 -0.826513654 2
v 8.73673807 -0.835722763 2
v 9.38628332 -0.642004611 2
v 9.99419224 -0.340765907 2
v 9.99419224 0.340765907 2
v 9.38628332 0.642004611 2
v 8.73673807 0.835722763 2
v 8.06135723 0.826513654 2
v 7.66603835 1.13769766 2
v 7.59283519 1.55285344 2
v 7.85788222 1.98047777 2
v 8.49568232 2.20281789 2
v 9.03979968 2.60701097 2
v 9.50801751 3.09799986 2
v 9.2749199 3.73843027 2
v 8.60064266 3.81358496 2
v 7.92401428 3.77346292 2
v 7.29251358 3.53381534 2
v 6.81460416 3.69102563 2
v 6.60382404 4.0561075 2
v 6.70663064 4.54859435 2
v 7.22992189 4.9756662 2
v 7.60298279 5.54158255 2
v 7.87503553 6.16310111 2
v 7.43695533 6.68518477 2
v 6.77763757 6.52519068 2
v 6.15553742 6.25606776 2
v 5.64408517 5.81488673 2
v 5.14122812 5.79916144 2
v 4.81829425 6.07013513 2
v 4.74646043 6.56808332 2
v 5.09212618 7.14837574 2
v 5.24913396 7.80775749 2
v 5.29220805 8.48484142 2
v 4.70198419 8.82560733 2
v 4.13714936 8.4497621 2
v 3.64461189 7.9840985 2
v 3.31489679 7.39459697 2
v 2.8477441 7.20783279 2
v 2.45160706 7.35201488 2
v 2.21379705 7.79536451 2
v 2.3401449 8.45888566 2
v 2.26216211 9.13220165 2
v 2.07106218 9.78318463 2
v 1.39988436 9.90153139 2
v 0.997659874 9.35516751 2
v 0.694092389 8.74912913 2
v 0.585882937 8.08240969 2
v 0.210780116 7.74713313 2
v -0.210780116 7.74713313 2
v -0.585882937 8.08240969 2
v -0.694092389 8.74912913 2
v -0.997659874 9.35516751 2
v -1.39988436 9.90153139 2
v -2.07106218 9.78318463 2
v -2.26216211 9.13220165 2
v -2.3401449 8.45888566 2
v -2.21379705 7.79536451 2
v -2.45160706 7.35201488 2
v -2.8477441 7.20783279 2
v -3.31489679 7.39459697 2
v -3.64461189 7.9840985 2
v -4.13714936 8.4497621 2
v -4.70198419 8.82560733 2
v -5.29220805 8.48484142 2
v -5.24913396 7.80775749 2
v -5.09212618 7.14837574 2
v -4.74646043 6.56808332 2
v -4.81829425 6.07013513 2
v -5.14122812 5.79916144 2
v -5.64408517 5.81488673 2
v -6.15553742 6.25606776 2
v -6.77763757 6.52519068 2
v -7.43695533 6.68518477 2
v -7.87503553 6.16310111 2
v -7.60298279 5.54158255 2
v -7.22992189 4.9756662 2
v -6.70663064 4.54859435 2
v -6.60382404 4.0561075 2
v -6.81460416 3.69102563 2
v -7.29251358 3.53381534 2
v -7.92401428 3.77346292 2
v -8.60064266 3.81358496 2
v -9.2749199 3.73843027 2
v -9.50801751 3.09799986 2
v -9.03979968 2.60701097 2
v -8.49568232 2.20281789 2
v -7.85788222 1.98047777 2
v -7.59283519 1.55285344 2
v -7.66603835 1.13769766 2
v -8.06135723 0.826513654 2
v -8.73673807 0.835722763 2
v -9.38628332 0.642004611 2
v -9.99419224 0.340765907 2
v -9.99419224 -0.340765907 2
v -9.38628332 -0.642004611 2
v -8.73673807 -0.835722763 2
v -8.06135723 -0.826513654 2
v -7.66603835 -1.13769766 2
v -7.59283519 -1.55285344 2
v -7.85788222 -1.98047777 2
v -8.49568232 -2.20281789 2
v -9.03979968 -2.60701097 2
v -9.50801751 -3.09799986 2
v -9.2749199 -3.73843027 2
v -8.60064266 -3.81358496 2
v -7.92401428 -3.77346292 2
v -7.29251358 -3.53381534 2
v -6.81460416 -3.69102563 2
v -6.60382404 -4.0561075 2
v -6.70663064 -4.54859435 2
v -7.22992189 -4.9756662 2
v -7.60298279 -5.54158255 2
v -7.87503553 -6.16310111 2
v -7.43695533 -6.68518477 2
v -6.77763757 -6.52519068 2
v -6.15553742 -6.25606776 2
v -5.64408517 -5.81488673 2
v -5.14122812 -5.79916144 2
v -4.81829425 -6.07013513 2
v -4.74646043 -6.56808332 2
v -5.09212618 -7.14837574 2
v -5.24913396 -7.80775749 2
v -5.29220805 -8.48484142 2
v -4.70198419 -8.82560733 2
v -4.13714936 -8.4497621 2
v -3.64461189 -7.9840985 2
v -3.31489679 -7.39459697 2
v -2.8477441 -7.20783279 2
v -2.45160706 -7.35201488 2
v -2.21379705 -7.79536451 2
v -2.3401449 -8.45888566 2
v -2.26216211 -9.13220165 2
v -2.07106218 -9.78318463 2
v -1.39988436 -9.90153139 2
v -0.997659874 -9.35516751 2
v -0.694092389 -8.74912913 2
v -0.585882937 -8.08240969 2
v -0.210780116 -7.74713313 2
v 0.210780116 -7.74713313 2
v 0.585882937 -8.08240969 2
v 0.694092389 -8.74912913 2
v 0.997659874 -9.35516751 2
v 1.39988436 -9.90153139 2
v 2.07106218 -9.78318463 2
v 2.26216211 -9.13220165 2
v 2.3401449 -8.45888566 2
v 2.21379705 -7.79536451 2
v 2.45160706 -7.35201488 2
v 2.8477441 -7.20783279 2
v 3.31489679 -7.39459697 2
v 3.64461189 -7.9840985 2
v 4.13714936 -8.4497621 2
v 4.70198419 -8.82560733 2
v 5.29220805 -8.48484142 2
v 5.24913396 -7.80775749 2
v 5.09212618 -7.14837574 2
v 4.74646043 -6.56808332 2
v 4.81829425 -6.07013513 2
v 5.14122812 -5.79916144 2
v 5.64408517 -5.81488673 2
v 6.15553742 -6.25606776 2
v 6.77763757 -6.52519068 2
v 7.43695533 -6.68518477 2
v 7.87503553 -6.16310111 2
v 7.60298279 -5.54158255 2
v 7.22992189 -4.9756662 2
v 6.70663064 -4.54859435 2
v 6.60382404 -4.0561075 2
v 6.81460416 -3.69102563 2
v 7.29251358 -3.53381534 2
v 7.92401428 -3.77346292 2
v 8.60064266 -3.81358496 2
v 9.2749199 -3.73843027 2
v 9.50801751 -3.09799986 2
v 9.03979968 -2.60701097 2
v 8.49568232 -2.20281789 2
v 7.85788222 -1.98047777 2
v 7.59283519 -1.55285344 2
v 2.55370655 -0.876688567 2
v 2.13067938 -1.65837432 2
v 1.47676003 -2.26034949 2
v 0.662810815 -2.61738072 2
v -0.222964233 -2.69077813 2
v -1.08457765 -2.47258798 2
v -1.82866024 -1.98645456 2
v -2.37457913 -1.28505796 2
v -2.66317552 -0.444405394 2
v -2.66317552 0.444405394 2
v -2.37457913 1.28505796 2
v -1.82866024 1.98645456 2
v -1.08457765 2.47258798 2
v -0.222964233 2.69077813 2
v 0.662810815 2.61738072 2
v 1.47676003 2.26034949 2
v 2.13067938 1.65837432 2
v 2.55370655 0.876688567 2
v 2.7 0 2
v -6.06202466 -3.49991157 2
v -6.89348009 -1.21550653 2
v -4.49939958 -5.36217561 2
v -2.39408051 -6.57768215 2
v -6.06202466 3.49991157 2
v -6.89348009 1.21550653 2
v -4.49939958 5.36217561 2
v -2.39408051 6.57768215 2
v -1.38777878e-15 -6.99982313 2
v 2.39408051 -6.57768215 2
v 4.49939958 -5.36217561 2
v 6.06202466 -3.49991157 2
v 6.89348009 -1.21550653 2
v 4.4408921e-16 6.99982313 2
v 2.39408051 6.57768215 2
v 4.49939958 5.36217561 2
v 6.06202466 3.49991157 2
v 6.89348009 1.21550653 2
v -5.78218402 -4.48459867 2
v -6.77486838 -2.76521891 2
v -7.3120544 -0.281314352 2
v -3.89965257 -6.19176769 2
v -1.54676548 -7.15211814 2
v -6.77486838 2.76521891 2
v -5.78218402 4.48459867 2
v -3.89965257 6.19176769 2
v -1.54676548 7.15211814 2
v 0.992684366 -7.24981758 2
v 3.41240182 -6.47308204 2
v 5.42053326 -4.91559726 2
v 6.77486838 -2.76521891 2
v 7.3120544 -0.281314352 2
v 0.992684366 7.24981758 2
v 3.41240182 6.47308204 2
v 5.42053326 4.91559726 2
v 6.77486838 2.76521891 2
v -5.4141816 -5.11870802 2
v -7.14002198 -2.12946479 2
v -7.43774582 0.440988989 2
v -3.33696524 -6.66177132 2
v -0.857261633 -7.40132669 2
v -7.14002198 2.12946479 2
v -5.4141816 5.11870802 2
v -3.33696524 6.66177132 2
v -0.857261633 7.40132669 2
v 1.72584038 -7.24817282 2
v 4.10078058 -6.22078233 2
v 5.98110611 -4.44307369 2
v 7.14002198 -2.12946479 2
v 7.43774582 0.440988989 2
v 1.72584038 7.24817282 2
v 4.10078058 6.22078233 2
v 5.98110611 4.44307369 2
v 7.14002198 2.12946479 2
v -7.23662295 -6.07224765 2
v -8.30796766 -3.02385293 2
v -6.4427251 -5.40608825 2
v -8.84115452 9.99200722e-16 2
v -1.53525037 -8.70683751 2
v -4.42057726 -7.65666441 2
v -8.8770322 3.23097549 2
v -7.90317231 2.87651948 2
v -7.23662295 6.07224765 2
v -6.4427251 5.40608825 2
v -4.20519015 7.283603 2
v -4.72337018 8.18111713 2
v -1.46044721 8.28260773 2
v -1.64040925 9.30322314 2
v 1.53525037 -8.70683751 2
v 4.42057726 -7.65666441 2
v 6.4427251 -5.40608825 2
v 8.30796766 -3.02385293 2
v 7.23662295 -6.07224765 2
v 8.84115452 1.11022302e-16 2
v 4.20519015 7.283603 2
v 1.53525037 8.70683751 2
v 4.72337018 8.18111713 2
v 7.90317231 2.87651948 2
v 8.8770322 3.23097549 2
v 6.4427251 5.40608825 2
v 7.23662295 6.07224765 2
v -8.89703598 -3.23825627 2
v -9.46802793 1.22124533e-15 2
v -1.6441058 -9.32418732 2
v -4.73401397 -8.19955272 2
v 1.6441058 -9.32418732 2
v 4.73401397 -8.19955272 2
v 8.89703598 -3.23825627 2
v 9.46802793 0 2
v 1.6441058 9.32418732 2
v -4.70150958 -4.2812732 2
v -6.05844615 -1.93099013 2
v -6.35351466 0.257573439 2
v -2.95369219 -5.63109182 2
v -0.849615923 -6.30171765 2
v -6.05844615 1.93099013 2
v -4.70150958 4.2812732 2
v -2.95369219 5.63109182 2
v -0.849615923 6.30171765 2
v 1.35693656 -6.21226334 2
v 3.39982247 -5.37351838 2
v 5.03263962 -3.8866478 2
v 6.05844615 -1.93099013 2
v 6.35351466 0.257573439 2
v 1.35693656 6.21226334 2
v 3.39982247 5.37351838 2
v 5.03263962 3.8866478 2
v 6.05844615 1.93099013 2
v -7.55860981 -2.79262853 2
v -5.99314421 -5.03086736 2
v -8.05790507 -0.0390156109 2
v -1.33035716 -7.98443957 2
v -3.98096597 -7.04791 2
v -7.35343105 2.67478145 2
v -5.99314421 5.03086736 2
v -3.91105541 6.77724498 2
v -1.35723561 7.70618683 2
v 1.48071236 -7.95792789 2
v 4.11318611 -6.97157266 2
v 5.99513575 -5.02849393 2
v 7.63212389 -2.69662943 2
v 8.09415209 0.0763373331 2
v 3.91373861 6.77569583 2
v 1.36081766 7.94226238 2
v 7.35343105 2.67478145 2
v 5.99513575 5.02849393 2
v -5.20589988 -4.57399377 2
v -5.32387462 -3.78978935 2
v -6.56414474 -2.22144466 2
v -6.01930828 -2.74529692 2
v -6.92805719 0.157594571 2
v -6.59524642 -0.521010575 2
v -3.32754769 -6.07867081 2
v -3.70662139 -5.38210944 2
v -1.04784415 -6.85017045 2
v -1.64229493 -6.32526771 2
v -6.56414474 2.22144466 2
v -5.94399116 2.71571599 2
v -5.20589988 4.57399377 2
v -5.38715101 3.84022542 2
v -3.32754769 6.07867081 2
v -3.7488316 5.45114565 2
v -1.04784415 6.85017045 2
v -1.65834778 6.40457727 2
v 1.35824486 -6.79543843 2
v 0.620116543 -6.50550534 2
v 3.6005095 -5.92107624 2
v 2.80773281 -5.90108301 2
v 5.40849955 -4.33254488 2
v 4.65669506 -4.58490298 2
v 6.56414474 -2.22144466 2
v 5.94399116 -2.71571599 2
v 6.92805719 0.157594571 2
v 6.5143542 -0.518973567 2
v 1.35824486 6.79543843 2
v 0.632157268 6.58552234 2
v 3.6005095 5.92107624 2
v 2.84641482 5.97215623 2
v 5.40849955 4.33254488 2
v 4.71735273 4.63845994 2
v 6.56414474 2.22144466 2
v 6.01930828 2.74529692 2
v -4.14142681 -2.93224977 2
v -6.10657593 -1.14214014 2
v -4.08675545 -4.72567158 2
v -1.28770317 -4.90829148 2
v -2.22401907 -5.8384314 2
v -4.61011619 2.12045594 2
v -4.04241034 4.71737982 2
v -2.18518425 5.81547277 2
v -0.0930331612 -6.24699022 2
v 2.16855109 -4.58768906 2
v 2.04917392 -5.90206983 2
v 3.94422037 -4.84527271 2
v 4.61011619 -2.12045594 2
v 5.36353565 -3.20406419 2
v 6.13592936 -1.17639825 2
v -0.064392686 6.21213388 2
v 2.06416559 5.85951996 2
v 3.94375503 4.80016146 2
v 5.34766941 3.16183264 2
v -5.02567919 -2.28944639 2
v -4.61171543 -3.52777531 2
v -5.74800391 -0.357241178 2
v -3.01081124 -4.54089133 2
v -1.26516872 -5.66678621 2
v -4.49555833 3.20764266 2
v -5.36100075 2.22997506 2
v -3.18338189 4.79929682 2
v -1.34994429 5.59864454 2
v 0.612413469 -5.41383673 2
v 2.6733645 -5.15424486 2
v 3.94908311 -3.75358775 2
v 5.36100075 -2.22997506 2
v 5.43793287 -0.33699335 2
v 0.646316523 5.7227131 2
v 2.56462202 5.156538 2
v 4.17359625 3.96840831 2
v 5.27917318 2.30163002 2
v -5.61408545 -2.31772684 2
v -5.3006628 -3.02057507 2
v -5.35507017 -1.57146444 2
v -3.51455265 -4.83260099 2
v -3.65635048 -4.00693616 2
v -2.39577367 -5.05526414 2
v -4.81425305 3.7030772 2
v -5.26622614 3.0802211 2
v -4.03846321 3.85189459 2
v -5.21180455 0.918981761 2
v -2.40347643 5.03154622 2
v -0.537638906 5.5501442 2
v 0.414032513 -5.96109804 2
v -0.225318049 -5.41974796 2
v 1.41419205 -5.41253063 2
v 4.14888726 -4.30033106 2
v 3.3111432 -4.29659946 2
v 4.56244159 -3.23721389 2
v 5.94243155 -0.627391382 2
v 5.29828375 -1.16302432 2
v 1.3930458 5.39931289 2
v 3.15570863 4.59724475 2
v 4.53774642 3.24068105 2
v -4.73321205 -2.81672188 2
v -4.31326793 -2.23903887 2
v -4.22842211 -3.9555516 2
v -3.8963249 -3.46843578 2
v -2.82172506 -3.31227753 2
v -3.42601944 -2.92933562 2
v -1.8186156 -5.33910612 2
v -4.80595873 2.69072094 2
v -4.09569851 2.61588017 2
v -5.06957907 1.59915379 2
v -3.93493445 1.00694123 2
v -4.58577406 1.14303324 2
v -4.50160784 -0.0787718593 2
v -4.14155839 1.64311063 2
v -4.3713848 0.544000306 2
v -3.23326741 1.58647821 2
v -3.54341963 0.0458699026 2
v -2.38171505 3.53286428 2
v -0.6965797 -5.74810566 2
v -0.755290493 -5.16148532 2
v -0.0324758469 -4.3511217 2
v -0.741542508 -4.44620412 2
v 2.03877088 -5.25897615 2
v 3.16120009 -4.8510572 2
v 2.73915273 -4.43941852 2
v 2.77196918 -3.35402767 2
v 2.2899104 -3.8826443 2
v 4.94219381 -2.71811279 2
v 5.53981923 -1.68414516 2
v 4.95191594 -1.64009845 2
v 4.27937901 -0.78754682 2
v 4.24988879 -1.50235205 2
v 0.446381806 4.23726798 2
v 3.06561166 2.95900689 2
v -3.03160633 -3.90883365 2
v -2.20133748 -4.19788821 2
v -2.66420613 -2.39543896 2
v -2.60394869 4.27913633 2
v 0.190204655 -4.94301928 2
v 1.01202819 -4.63076139 2
v -0.498994386 -3.56354559 2
v 3.32301677 -3.66431126 2
v 3.75185462 -2.89684985 2
v 1.91427848 -3.05598706 2
v 4.9009524 -0.671031272 2
v 4.57728555 0.447905919 2
v 4.48798836 -0.184205409 2
v 3.63020072 0.259335738 2
v 3.43092574 -1.11055371 2
v 0.755835386 4.95179457 2
v -1.02841443 4.15709311 2
v 3.76195569 3.30745309 2
v 1.88431678 3.84557013 2
v -1.44527696 -4.16823941 2
v -3.32063386 4.0635946 2
v 1.57214627 -4.12206276 2
v 3.85394478 -2.14712713 2
v 0.110180802 5.2533096 2
v -0.982628358 4.92393885 2
v -1.79690113 4.46701827 2
v 3.46116571 3.95344577 2
v 3.98357941 1.99453521 2
v 2.41230989 4.40357733 2
v 1.49483787 4.5769603 2
v -1.85804227 -3.29730106 2
v -3.45774946 3.20567147 2
v 0.696121312 -3.7202057 2
v 2.924562 -2.40238475 2
v -0.307415214 4.49883414 2
v -1.64955762 3.7246417 2
v -1.7656385 5.1087506 2
v 4.09951779 2.68927014 2
v 3.48115221 2.43542244 2
v 4.60783509 2.24739996 2
v 2.69558479 2.23864844 2
v 4.60906422 1.34737276 2
v 3.25516029 1.67116394 2
v 2.65630113 3.64390958 2
v 1.13051909 3.91355627 2
v 1.93128403 5.04846056 2
v -0.319214931 3.59228272 2
v -1.82289747 2.892925 2
v 4.90044738 2.76716087 2
v 2.06385604 2.95440969 2
v 0.479079255 3.4215823 2
v -5.4964356 -0.946521478 2
v -4.52561847 -1.05537776 2
v -5.07962243 -0.420242337 2
v -5.08866052 0.255000871 2
v -5.72063014 0.481203539 2
v -5.89955916 1.20376183 2
v -3.23397626 0.872800725 2
v -2.59808252 2.02216879 2
v -3.31825987 2.39124427 2
v -3.81914294 2.11537657 2
v -2.65362586 2.80096614 2
v -2.99231012 5.55111512e-16 2
v -3.31852123 -0.585681984 2
v -1.87614578 -4.7223705 2
v -2.40326737 -1.87053808 2
v -3.2898249 -1.53365428 2
v 1.5982702 -4.82350894 2
v -0.759951107 -3.00097905 2
v -1.18146502 -3.53831398 2
v -1.36533882 -2.98433051 2
v -1.92985294 -2.63993891 2
v 4.32483779 -2.66767394 2
v 2.19444985 -2.383808 2
v 1.26888734 -2.89277175 2
v 1.459194 -3.49787582 2
v 3.05894088 0.510446952 2
v 3.62043819 1.01246969 2
v 3.06296735 1.13395437 2
v 3.66322458 -0.444906961 2
v 2.84652869 -1.54046429 2
v 3.42665308 -1.71689976 2
v -2.33480962 -3.63128591 2
v -2.98056421 3.56932509 2
v 0.54557765 -4.28251309 2
v 0.263614499 -3.18135388 2
v 3.17068308 -2.9299048 2
v 5.52027914 0.864884224 2
v -0.781737165 3.08701025 2
v -1.08770915 3.57995074 2
v 1.31327888 2.99397429 2
v 2.08776327 2.33884855 2
v -4.70120932 -1.69775757 2
v -3.99702648 -1.6027244 2
v -3.58111627 -2.20616883 2
v -3.87090787 -0.952013893 2
v -6.40062547 0.862167887 2
v -2.93025762 -1.04834923 2
v 4.2057389 0.91132767 2
v 3.04933076 -0.508843306 2
v 0.0744455235 -3.75582858 2
v 4.94764535 0.885115698 2
v 5.21310913 0.28477117 2
v 5.25481536 1.46522875 2
v -3.97724773 -0.364435094 2
v 6.227405 0.959808389 2
v 5.83422086 1.39169315 2
v 7.66603835 -1.13769766 -1
v 8.06135723 -0.826513654 -1
v 8.73673807 -0.835722763 -1
v 9.38628332 -0.642004611 -1
v 9.99419224 -0.340765907 -1
v 9.99419224 0.340765907 -1
v 9.38628332 0.642004611 -1
v 8.73673807 0.835722763 -1
v 8.06135723 0.826513654 -1
v 7.66603835 1.13769766 -1
v 7.59283519 1.55285344 -1
v 7.85788222 1.98047777 -1
v 8.49568232 2.20281789 -1
v 9.03979968 2.60701097 -1
v 9.50801751 3.09799986 -1
v 9.2749199 3.73843027 -1
v 8.60064266 3.81358496 -1
v 7.92401428 3.77346292 -1
v 7.29251358 3.53381534 -1
v 6.81460416 3.69102563 -1
v 6.60382404 4.0561075 -1
v 6.70663064 4.54859435 -1
v 7.22992189 4.9756662 -1
v 7.60298279 5.54158255 -1
v 7.87503553 6.16310111 -1
v 7.43695533 6.68518477 -1
v 6.77763757 6.52519068 -1
v 6.15553742 6.25606776 -1
v 5.64408517 5.81488673 -1
v 5.14122812 5.79916144 -1
v 4.81829425 6.07013513 -1
v 4.74646043 6.56808332 -1
v 5.09212618 7.14837574 -1
v 5.24913396 7.80775749 -1
v 5.29220805 8.48484142 -1
v 4.70198419 8.82560733 -1
v 4.13714936 8.4497621 -1
v 3.64461189 7.9840985 -1
v 3.31489679 7.39459697 -1
v 2.8477441 7.20783279 -1
v 2.45160706 7.35201488 -1
v 2.21379705 7.79536451 -1
v 2.3401449 8.45888566 -1
v 2.26216211 9.13220165 -1
v 2.07106218 9.78318463 -1
v 1.39988436 9.90153139 -1
v 0.997659874 9.35516751 -1
v 0.694092389 8.74912913 -1
v 0.585882937 8.08240969 -1
v 0.210780116 7.74713313 -1
v -0.210780116 7.74713313 -1
v -0.585882937 8.08240969 -1
v -0.694092389 8.74912913 -1
v -0.997659874 9.35516751 -1
v -1.39988436 9.90153139 -1
v -2.07106218 9.78318463 -1
v -2.26216211 9.13220165 -1
v -2.3401449 8.45888566 -1
v -2.21379705 7.79536451 -1
v -2.45160706 7.35201488 -1
v -2.8477441 7.20783279 -1
v -3.31489679 7.39459697 -1
v -3.64461189 7.9840985 -1
v -4.13714936 8.4497621 -1
v -4.70198419 8.82560733 -1
v -5.29220805 8.48484142 -1
v -5.24913396 7.80775749 -1
v -5.09212618 7.14837574 -1
v -4.74646043 6.56808332 -1
v -4.81829425 6.07013513 -1
v -5.14122812 5.79916144 -1
v -5.64408517 5.81488673 -1
v -6.15553742 6.25606776 -1
v -6.77763757 6.52519068 -1
v -7.43695533 6.68518477 -1
v -7.87503553 6.16310111 -1
v -7.60298279 5.54158255 -1
v -7.22992189 4.9756662 -1
v -6.70663064 4.54859435 -1
v -6.60382404 4.0561075 -1
v -6.81460416 3.69102563 -1
v -7.29251358 3.53381534 -1
v -7.92401428 3.77346292 -1
v -8.60064266 3.81358496 -1
v -9.2749199 3.73843027 -1
v -9.50801751 3.09799986 -1
v -9.03979968 2.60701097 -1
v -8.49568232 2.20281789 -1
v -7.85788222 1.98047777 -1
v -7.59283519 1.55285344 -1
v -7.66603835 1.13769766 -1
v -8.06135723 0.826513654 -1
v -8.73673807 0.835722763 -1
v -9.38628332 0.642004611 -1
v -9.99419224 0.340765907 -1
v -9.99419224 -0.340765907 -1
v -9.38628332 -0.642004611 -1
v -8.73673807 -0.835722763 -1
v -8.06135723 -0.826513654 -1
v -7.66603835 -1.13769766 -1
v -7.59283519 -1.55285344 -1
v -7.85788222 -1.98047777 -1
v -8.49568232 -2.20281789 -1
v -9.03979968 -2.60701097 -1
v -9.50801751 -3.09799986 -1
v -9.2749199 -3.73843027 -1
v -8.60064266 -3.81358496 -1
v -7.92401428 -3.77346292 -1
v -7.29251358 -3.53381534 -1
v -6.81460416 -3.69102563 -1
v -6.60382404 -4.0561075 -1
v -6.70663064 -4.54859435 -1
v -7.22992189 -4.9756662 -1
v -7.60298279 -5.54158255 -1
v -7.87503553 -6.16310111 -1
v -7.43695533 -6.68518477 -1
v -6.77763757 -6.52519068 -1
v -6.15553742 -6.25606776 -1
v -5.64408517 -5.81488673 -1
v -5.14122812 -5.79916144 -1
v -4.81829425 -6.07013513 -1
v -4.74646043 -6.56808332 -1
v -5.09212618 -7.14837574 -1
v -5.24913396 -7.80775749 -1
v -5.29220805 -8.48484142 -1
v -4.70198419 -8.82560733 -1
v -4.13714936 -8.4497621 -1
v -3.64461189 -7.9840985 -1
v -3.31489679 -7.39459697 -1
v -2.8477441 -7.20783279 -1
v -2.45160706 -7.35201488 -1
v -2.21379705 -7.79536451 -1
v -2.3401449 -8.45888566 -1
v -2.26216211 -9.13220165 -1
v -2.07106218 -9.78318463 -1
v -1.39988436 -9.90153139 -1
v -0.997659874 -9.35516751 -1
v -0.694092389 -8.74912913 -1
v -0.585882937 -8.08240969 -1
v -0.210780116 -7.74713313 -1
v 0.210780116 -7.74713313 -1
v 0.585882937 -8.08240969 -1
v 0.694092389 -8.74912913 -1
v 0.997659874 -9.35516751 -1
v 1.39988436 -9.90153139 -1
v 2.07106218 -9.78318463 -1
v 2.26216211 -9.13220165 -1
v 2.3401449 -8.45888566 -1
v 2.21379705 -7.79536451 -1
v 2.45160706 -7.35201488 -1
v 2.8477441 -7.20783279 -1
v 3.31489679 -7.39459697 -1
v 3.64461189 -7.9840985 -1
v 4.13714936 -8.4497621 -1
v 4.70198419 -8.82560733 -1
v 5.29220805 -8.48484142 -1
v 5.24913396 -7.80775749 -1
v 5.09212618 -7.14837574 -1
v 4.74646043 -6.56808332 -1
v 4.81829425 -6.07013513 -1
v 5.14122812 -5.79916144 -1
v 5.64408517 -5.81488673 -1
v 6.15553742 -6.25606776 -1
v 6.77763757 -6.52519068 -1
v 7.43695533 -6.68518477 -1
v 7.87503553 -6.16310111 -1
v 7.60298279 -5.54158255 -1
v 7.22992189 -4.9756662 -1
v 6.70663064 -4.54859435 -1
v 6.60382404 -4.0561075 -1
v 6.81460416 -3.69102563 -1
v 7.29251358 -3.53381534 -1
v 7.92401428 -3.77346292 -1
v 8.60064266 -3.81358496 -1
v 9.2749199 -3.73843027 -1
v 9.50801751 -3.09799986 -1
v 9.03979968 -2.60701097 -1
v 8.49568232 -2.20281789 -1
v 7.85788222 -1.98047777 -1
v 7.59283519 -1.55285344 -1
v 2.55370655 -0.876688567 -1
v 2.13067938 -1.65837432 -1
v 1.47676003 -2.26034949 -1
v 0.662810815 -2.61738072 -1
v -0.222964233 -2.69077813 -1
v -1.08457765 -2.47258798 -1
v -1.82866024 -1.98645456 -1
v -2.37457913 -1.28505796 -1
v -2.66317552 -0.444405394 -1
v -2.66317552 0.444405394 -1
v -2.37457913 1.28505796 -1
v -1.82866024 1.98645456 -1
v -1.08457765 2.47258798 -1
v -0.222964233 2.69077813 -1
v 0.662810815 2.61738072 -1
v 1.47676003 2.26034949 -1
v 2.13067938 1.65837432 -1
v 2.55370655 0.876688567 -1
v 2.7 0 -1
v 7.66603835 -1.13769766 0
v 8.06135723 -0.826513654 0
v 8.73673807 -0.835722763 0
v 9.38628332 -0.642004611 0
v 9.99419224 -0.340765907 0
v 9.99419224 0.340765907 0
v 9.38628332 0.642004611 0
v 8.73673807 0.835722763 0
v 8.06135723 0.826513654 0
v 7.66603835 1.13769766 0
v 7.59283519 1.55285344 0
v 7.85788222 1.98047777 0
v 8.49568232 2.20281789 0
v 9.03979968 2.60701097 0
v 9.50801751 3.09799986 0
v 9.2749199 3.73843027 0
v 8.60064266 3.81358496 0
v 7.92401428 3.77346292 0
v 7.29251358 3.53381534 0
v 6.81460416 3.69102563 0
v 6.60382404 4.0561075 0
v 6.70663064 4.54859435 0
v 7.22992189 4.9756662 0
v 7.60298279 5.54158255 0
v 7.87503553 6.16310111 0
v 7.43695533 6.68518477 0
v 6.77763757 6.52519068 0
v 6.15553742 6.25606776 0
v 5.64408517 5.81488673 0
v 5.14122812 5.79916144 0
v 4.81829425 6.07013513 0
v 4.74646043 6.56808332 0
v 5.09212618 7.14837574 0
v 5.24913396 7.80775749 0
v 5.29220805 8.48484142 0
v 4.70198419 8.82560733 0
v 4.13714936 8.4497621 0
v 3.64461189 7.9840985 0
v 3.31489679 7.39459697 0
v 2.8477441 7.20783279 0
v 2.45160706 7.35201488 0
v 2.21379705 7.79536451 0
v 2.3401449 8.45888566 0
v 2.26216211 9.13220165 0
v 2.07106218 9.78318463 0
v 1.39988436 9.90153139 0
v 0.997659874 9.35516751 0
v 0.694092389 8.74912913 0
v 0.585882937 8.08240969 0
v 0.210780116 7.74713313 0
v -0.210780116 7.74713313 0
v -0.585882937 8.08240969 0
v -0.694092389 8.74912913 0
v -0.997659874 9.35516751 0
v -1.39988436 9.90153139 0
v -2.07106218 9.78318463 0
v -2.26216211 9.13220165 0
v -2.3401449 8.45888566 0
v -2.21379705 7.79536451 0
v -2.45160706 7.35201488 0
v -2.8477441 7.20783279 0
v -3.31489679 7.39459697 0
v -3.64461189 7.9840985 0
v -4.13714936 8.4497621 0
v -4.70198419 8.82560733 0
v -5.29220805 8.48484142 0
v -5.24913396 7.80775749 0
v -5.09212618 7.14837574 0
v -4.74646043 6.56808332 0
v -4.81829425 6.07013513 0
v -5.14122812 5.79916144 0
v -5.64408517 5.81488673 0
v -6.15553742 6.25606776 0
v -6.77763757 6.52519068 0
v -7.43695533 6.68518477 0
v -7.87503553 6.16310111 0
v -7.60298279 5.54158255 0
v -7.22992189 4.9756662 0
v -6.70663064 4.54859435 0
v -6.60382404 4.0561075 0
v -6.81460416 3.69102563 0
v -7.29251358 3.53381534 0
v -7.92401428 3.77346292 0
v -8.60064266 3.81358496 0
v -9.2749199 3.73843027 0
v -9.50801751 3.09799986 0
v -9.03979968 2.60701097 0
v -8.49568232 2.20281789 0
v -7.85788222 1.98047777 0
v -7.59283519 1.55285344 0
v -7.66603835 1.13769766 0
v -8.06135723 0.826513654 0
v -8.73673807 0.835722763 0
v -9.38628332 0.642004611 0
v -9.99419224 0.340765907 0
v -9.99419224 -0.340765907 0
v -9.38628332 -0.642004611 0
v -8.73673807 -0.835722763 0
v -8.06135723 -0.826513654 0
v -7.66603835 -1.13769766 0
v -7.59283519 -1.55285344 0
v -7.85788222 -1.98047777 0
v -8.49568232 -2.20281789 0
v -9.03979968 -2.60701097 0
v -9.50801751 -3.09799986 0
v -9.2749199 -3.73843027 0
v -8.60064266 -3.81358496 0
v -7.92401428 -3.77346292 0
v -7.29251358 -3.53381534 0
v -6.81460416 -3.69102563 0
v -6.60382404 -4.0561075 0
v -6.70663064 -4.54859435 0
v -7.22992189 -4.9756662 0
v -7.60298279 -5.54158255 0
v -7.87503553 -6.16310111 0
v -7.43695533 -6.68518477 0
v -6.77763757 -6.52519068 0
v -6.15553742 -6.25606776 0
v -5.64408517 -5.81488673 0
v -5.14122812 -5.79916144 0
v -4.81829425 -6.07013513 0
v -4.74646043 -6.56808332 0
v -5.09212618 -7.14837574 0
v -5.24913396 -7.80775749 0
v -5.29220805 -8.48484142 0
v -4.70198419 -8.82560733 0
v -4.13714936 -8.4497621 0
v -3.64461189 -7.9840985 0
v -3.31489679 -7.39459697 0
v -2.8477441 -7.20783279 0
v -2.45160706 -7.35201488 0
v -2.21379705 -7.79536451 0
v -2.3401449 -8.45888566 0
v -2.26216211 -9.13220165 0
v -2.07106218 -9.78318463 0
v -1.39988436 -9.90153139 0
v -0.997659874 -9.35516751 0
v -0.694092389 -8.74912913 0
v -0.585882937 -8.08240969 0
v -0.210780116 -7.74713313 0
v 0.210780116 -7.74713313 0
v 0.585882937 -8.08240969 0
v 0.694092389 -8.74912913 0
v 0.997659874 -9.35516751 0
v 1.39988436 -9.90153139 0
v 2.07106218 -9.78318463 0
v 2.26216211 -9.13220165 0
v 2.3401449 -8.45888566 0
v 2.21379705 -7.79536451 0
v 2.45160706 -7.35201488 0
v 2.8477441 -7.20783279 0
v 3.31489679 -7.39459697 0
v 3.64461189 -7.9840985 0
v 4.13714936 -8.4497621 0
v 4.70198419 -8.82560733 0
v 5.29220805 -8.48484142 0
v 5.24913396 -7.80775749 0
v 5.09212618 -7.14837574 0
v 4.74646043 -6.56808332 0
v 4.81829425 -6.07013513 0
v 5.14122812 -5.79916144 0
v 5.64408517 -5.81488673 0
v 6.15553742 -6.25606776 0
v 6.77763757 -6.52519068 0
v 7.43695533 -6.68518477 0
v 7.87503553 -6.16310111 0
v 7.60298279 -5.54158255 0
v 7.22992189 -4.9756662 0
v 6.70663064 -4.54859435 0
v 6.60382404 -4.0561075 0
v 6.81460416 -3.69102563 0
v 7.29251358 -3.53381534 0
v 7.92401428 -3.77346292 0
v 8.60064266 -3.81358496 0
v 9.2749199 -3.73843027 0
v 9.50801751 -3.09799986 0
v 9.03979968 -2.60701097 0
v 8.49568232 -2.20281789 0
v 7.85788222 -1.98047777 0
v 7.59283519 -1.55285344 0
v 2.55370655 -0.876688567 0
v 2.13067938 -1.65837432 0
v 1.47676003 -2.26034949 0
v 0.662810815 -2.61738072 0
v -0.222964233 -2.69077813 0
v -1.08457765 -2.47258798 0
v -1.82866024 -1.98645456 0
v -2.37457913 -1.28505796 0
v -2.66317552 -0.444405394 0
v -2.66317552 0.444405394 0
v -2.37457913 1.28505796 0
v -1.82866024 1.98645456 0
v -1.08457765 2.47258798 0
v -0.222964233 2.69077813 0
v 0.662810815 2.61738072 0
v 1.47676003 2.26034949 0
v 2.13067938 1.65837432 0
v 2.55370655 0.876688567 0
v 2.7 0 0
v 7.66603835 -1.13769766 1
v 8.06135723 -0.826513654 1
v 8.73673807 -0.835722763 1
v 9.38628332 -0.642004611 1
v 9.99419224 -0.340765907 1
v 9.99419224 0.340765907 1
v 9.38628332 0.642004611 1
v 8.73673807 0.835722763 1
v 8.06135723 0.826513654 1
v 7.66603835 1.13769766 1
v 7.59283519 1.55285344 1
v 7.85788222 1.98047777 1
v 8.49568232 2.20281789 1
v 9.03979968 2.60701097 1
v 9.50801751 3.09799986 1
v 9.2749199 3.73843027 1
v 8.60064266 3.81358496 1
v 7.92401428 3.77346292 1
v 7.29251358 3.53381534 1
v 6.81460416 3.69102563 1
v 6.60382404 4.0561075 1
v 6.70663064 4.54859435 1
v 7.22992189 4.9756662 1
v 7.60298279 5.54158255 1
v 7.87503553 6.16310111 1
v 7.43695533 6.68518477 1
v 6.77763757 6.52519068 1
v 6.15553742 6.25606776 1
v 5.64408517 5.81488673 1
v 5.14122812 5.79916144 1
v 4.81829425 6.07013513 1
v 4.74646043 6.56808332 1
v 5.09212618 7.14837574 1
v 5.24913396 7.80775749 1
v 5.29220805 8.48484142 1
v 4.70198419 8.82560733 1
v 4.13714936 8.4497621 1
v 3.64461189 7.9840985 1
v 3.31489679 7.39459697 1
v 2.8477441 7.20783279 1
v 2.45160706 7.35201488 1
v 2.21379705 7.79536451 1
v 2.3401449 8.45888566 1
v 2.26216211 9.13220165 1
v 2.07106218 9.78318463 1
v 1.39988436 9.90153139 1
v 0.997659874 9.35516751 1
v 0.694092389 8.74912913 1
v 0.585882937 8.08240969 1
v 0.210780116 7.74713313 1
v -0.210780116 7.74713313 1
v -0.585882937 8.08240969 1
v -0.694092389 8.74912913 1
v -0.997659874 9.35516751 1
v -1.39988436 9.90153139 1
v -2.07106218 9.78318463 1
v -2.26216211 9.13220165 1
v -2.3401449 8.45888566 1
v -2.21379705 7.79536451 1
v -2.45160706 7.35201488 1
v -2.8477441 7.20783279 1
v -3.31489679 7.39459697 1
v -3.64461189 7.9840985 1
v -4.13714936 8.4497621 1
v -4.70198419 8.82560733 1
v -5.29220805 8.48484142 1
v -5.24913396 7.80775749 1
v -5.09212618 7.14837574 1
v -4.74646043 6.56808332 1
v -4.81829425 6.07013513 1
v -5.14122812 5.79916144 1
v -5.64408517 5.81488673 1
v -6.15553742 6.25606776 1
v -6.77763757 6.52519068 1
v -7.43695533 6.68518477 1
v -7.87503553 6.16310111 1
v -7.60298279 5.54158255 1
v -7.22992189 4.9756662 1
v -6.70663064 4.54859435 1
v -6.60382404 4.0561075 1
v -6.81460416 3.69102563 1
v -7.29251358 3.53381534 1
v -7.92401428 3.77346292 1
v -8.60064266 3.81358496 1
v -9.2749199 3.73843027 1
v -9.50801751 3.09799986 1
v -9.03979968 2.60701097 1
v -8.49568232 2.20281789 1
v -7.85788222 1.98047777 1
v -7.59283519 1.55285344 1
v -7.66603835 1.13769766 1
v -8.06135723 0.826513654 1
v -8.73673807 0.835722763 1
v -9.38628332 0.642004611 1
v -9.99419224 0.340765907 1
v -9.99419224 -0.340765907 1
v -9.38628332 -0.642004611 1
v -8.73673807 -0.835722763 1
v -8.06135723 -0.826513654 1
v -7.66603835 -1.13769766 1
v -7.59283519 -1.55285344 1
v -7.85788222 -1.98047777 1
v -8.49568232 -2.20281789 1
v -9.03979968 -2.60701097 1
v -9.50801751 -3.09799986 1
v -9.2749199 -3.73843027 1
v -8.60064266 -3.81358496 1
v -7.92401428 -3.77346292 1
v -7.29251358 -3.53381534 1
v -6.81460416 -3.69102563 1
v -6.60382404 -4.0561075 1
v -6.70663064 -4.54859435 1
v -7.22992189 -4.9756662 1
v -7.60298279 -5.54158255 1
v -7.87503553 -6.16310111 1
v -7.43695533 -6.68518477 1
v -6.77763757 -6.52519068 1
v -6.15553742 -6.25606776 1
v -5.64408517 -5.81488673 1
v -5.14122812 -5.79916144 1
v -4.81829425 -6.07013513 1
v -4.74646043 -6.56808332 1
v -5.09212618 -7.14837574 1
v -5.24913396 -7.80775749 1
v -5.29220805 -8.48484142 1
v -4.70198419 -8.82560733 1
v -4.13714936 -8.4497621 1
v -3.64461189 -7.9840985 1
v -3.31489679 -7.39459697 1
v -2.8477441 -7.20783279 1
v -2.45160706 -7.35201488 1
v -2.21379705 -7.79536451 1
v -2.3401449 -8.45888566 1
v -2.26216211 -9.13220165 1
v -2.07106218 -9.78318463 1
v -1.39988436 -9.90153139 1
v -0.997659874 -9.35516751 1
v -0.694092389 -8.74912913 1
v -0.585882937 -8.08240969 1
v -0.210780116 -7.74713313 1
v 0.210780116 -7.74713313 1
v 0.585882937 -8.08240969 1
v 0.694092389 -8.74912913 1
v 0.997659874 -9.35516751 1
v 1.39988436 -9.90153139 1
v 2.07106218 -9.78318463 1
v 2.26216211 -9.13220165 1
v 2.3401449 -8.45888566 1
v 2.21379705 -7.79536451 1
v 2.45160706 -7.35201488 1
v 2.8477441 -7.20783279 1
v 3.31489679 -7.39459697 1
v 3.64461189 -7.9840985 1
v 4.13714936 -8.4497621 1
v 4.70198419 -8.82560733 1
v 5.29220805 -8.48484142 1
v 5.24913396 -7.80775749 1
v 5.09212618 -7.14837574 1
v 4.74646043 -6.56808332 1
v 4.81829425 -6.07013513 1
v 5.14122812 -5.79916144 1
v 5.64408517 -5.81488673 1
v 6.15553742 -6.25606776 1
v 6.77763757 -6.52519068 1
v 7.43695533 -6.68518477 1
v 7.87503553 -6.16310111 1
v 7.60298279 -5.54158255 1
v 7.22992189 -4.9756662 1
v 6.70663064 -4.54859435 1
v 6.60382404 -4.0561075 1
v 6.81460416 -3.69102563 1
v 7.29251358 -3.53381534 1
v 7.92401428 -3.77346292 1
v 8.60064266 -3.81358496 1
v 9.2749199 -3.73843027 1
v 9.50801751 -3.09799986 1
v 9.03979968 -2.60701097 1
v 8.49568232 -2.20281789 1
v 7.85788222 -1.98047777 1
v 7.59283519 -1.55285344 1
v 2.55370655 -0.876688567 1
v 2.13067938 -1.65837432 1
v 1.47676003 -2.26034949 1
v 0.662810815 -2.61738072 1
v -0.222964233 -2.69077813 1
v -1.08457765 -2.47258798 1
v -1.82866024 -1.98645456 1
v -2.37457913 -1.28505796 1
v -2.66317552 -0.444405394 1
v -2.66317552 0.444405394 1
v -2.37457913 1.28505796 1
v -1.82866024 1.98645456 1
v -1.08457765 2.47258798 1
v -0.222964233 2.69077813 1
v 0.662810815 2.61738072 1
v 1.47676003 2.26034949 1
v 2.13067938 1.65837432 1
v 2.55370655 0.876688567 1
v 2.7 0 1
f 254 115 114
f 341 297 388
f 114 256 254
f 319 247 169
f 129 128 312
f 248 212 180
f 219 237 328
f 255 108 107
f 117 116 254
f 24 23 279
f 259 128 127
f 318 159 158
f 226 342 343
f 118 256 119
f 119 236 120
f 112 256 113
f 112 111 218
f 52 51 244
f 29 325 234
f 254 256 117
f 204 337 223
f 208 141 140
f 107 281 255
f 343 298 389
f 281 105 104
f 25 280 26
f 302 212 350
f 260 87 86
f 237 101 201
f 93 257 94
f 281 106 105
f 164 163 270
f 109 219 110
f 103 308 255
f 109 308 219
f 219 200 110
f 217 11 10
f 142 141 227
f 308 237 219
f 220 201 100
f 102 308 103
f 150 149 245
f 469 468 535
f 220 99 310
f 256 112 309
f 388 368 341
f 269 158 157
f 17 278 277
f 258 134 133
f 311 139 138
f 125 124 284
f 125 284 126
f 247 211 170
f 259 124 123
f 236 202 120
f 259 127 284
f 283 258 137
f 441 365 443
f 15 278 16
f 138 137 258
f 139 311 240
f 133 311 258
f 215 31 30
f 311 133 132
f 283 135 134
f 283 136 135
f 387 367 431
f 62 61 243
f 123 312 259
f 129 312 239
f 557 497 559
f 312 123 122
f 315 264 62
f 216 21 20
f 312 128 259
f 326 218 327
f 121 202 221
f 290 202 326
f 131 203 222
f 207 61 60
f 158 269 318
f 366 203 293
f 220 238 330
f 328 237 201
f 249 217 10
f 404 366 293
f 399 400 329
f 88 87 261
f 303 217 352
f 131 222 132
f 140 139 240
f 111 200 218
f 11 253 12
f 301 211 348
f 406 339 405
f 220 310 238
f 96 95 282
f 97 282 257
f 75 262 76
f 27 280 279
f 320 179 178
f 251 31 215
f 240 208 140
f 84 260 85
f 282 95 94
f 106 281 107
f 209 151 150
f 100 99 220
f 81 204 223
f 431 435 433
f 241 89 313
f 326 236 218
f 261 82 313
f 260 261 87
f 223 241 313
f 229 247 319
f 93 310 257
f 89 88 261
f 86 85 260
f 261 260 84
f 234 252 358
f 167 272 270
f 76 262 77
f 263 78 77
f 74 262 75
f 257 282 94
f 294 208 334
f 96 282 97
f 200 111 110
f 81 223 82
f 80 224 204
f 348 247 229
f 77 262 263
f 263 262 74
f 180 179 248
f 74 73 263
f 263 73 72
f 252 21 216
f 224 80 79
f 219 328 329
f 151 228 152
f 263 79 78
f 93 92 310
f 255 281 104
f 330 238 205
f 225 315 243
f 70 225 206
f 101 237 102
f 264 69 68
f 225 70 69
f 210 161 160
f 63 62 264
f 340 243 207
f 241 205 90
f 346 246 228
f 239 203 130
f 340 297 341
f 224 314 242
f 343 342 298
f 342 244 213
f 218 236 309
f 226 207 60
f 232 250 354
f 338 242 206
f 512 511 552
f 201 101 100
f 68 67 264
f 64 264 265
f 295 205 336
f 66 265 67
f 265 66 65
f 79 314 224
f 235 253 360
f 258 283 134
f 350 248 230
f 272 165 164
f 266 53 52
f 59 226 60
f 8 273 321
f 266 58 57
f 273 8 7
f 267 57 56
f 69 315 225
f 267 56 55
f 266 267 54
f 259 284 124
f 224 242 338
f 226 59 316
f 220 330 331
f 126 284 127
f 316 244 226
f 347 228 209
f 330 292 331
f 136 283 137
f 335 222 203
f 389 369 343
f 285 146 145
f 149 148 317
f 382 362 425
f 145 144 285
f 143 317 268
f 314 263 72
f 317 245 149
f 317 148 268
f 285 268 147
f 300 210 346
f 99 98 310
f 14 13 277
f 268 148 147
f 144 143 268
f 286 155 154
f 246 210 160
f 157 286 269
f 235 360 361
f 286 156 155
f 72 71 242
f 334 222 335
f 269 154 153
f 141 208 227
f 317 143 142
f 299 372 209
f 238 91 205
f 271 178 177
f 375 301 416
f 529 465 183
f 344 245 227
f 208 345 227
f 293 203 332
f 246 160 159
f 206 71 70
f 318 269 153
f 318 246 159
f 161 229 162
f 153 152 318
f 451 393 374
f 205 91 90
f 42 323 43
f 161 210 229
f 22 21 252
f 228 151 209
f 252 216 358
f 233 251 356
f 257 98 97
f 225 340 341
f 299 209 344
f 54 267 55
f 168 270 169
f 224 338 339
f 270 162 319
f 270 163 162
f 214 41 40
f 172 171 230
f 164 270 272
f 277 13 12
f 272 167 166
f 509 434 508
f 57 267 266
f 167 270 168
f 245 209 150
f 114 113 256
f 287 175 174
f 336 241 223
f 276 35 34
f 166 165 272
f 383 363 331
f 234 358 359
f 178 271 320
f 336 223 337
f 320 248 179
f 320 173 172
f 204 81 80
f 213 51 50
f 212 231 1
f 1 231 2
f 90 89 241
f 211 230 171
f 287 271 177
f 320 271 173
f 458 550 522
f 37 276 274
f 32 31 251
f 244 51 213
f 288 5 4
f 309 236 119
f 266 59 58
f 273 3 321
f 332 221 333
f 173 271 174
f 176 175 287
f 249 10 9
f 327 218 200
f 247 170 169
f 435 437 432
f 5 288 6
f 261 83 82
f 250 41 214
f 359 358 306
f 357 356 305
f 316 266 52
f 304 355 354
f 356 251 215
f 323 250 232
f 325 252 234
f 84 83 261
f 333 221 202
f 39 233 40
f 251 233 322
f 232 354 355
f 233 214 40
f 274 33 32
f 39 322 233
f 121 221 122
f 225 243 340
f 322 274 32
f 217 360 253
f 211 171 170
f 92 91 238
f 50 232 213
f 275 48 47
f 202 121 120
f 275 47 289
f 45 289 46
f 268 285 144
f 9 8 321
f 323 232 49
f 253 11 217
f 130 129 239
f 232 50 49
f 38 37 274
f 352 249 231
f 115 254 116
f 289 45 44
f 33 274 34
f 276 37 36
f 242 71 206
f 63 264 64
f 36 35 276
f 275 43 323
f 274 276 34
f 156 286 157
f 351 230 211
f 349 229 210
f 407 476 487
f 235 324 253
f 231 212 353
f 250 214 354
f 235 216 20
f 235 20 19
f 324 235 19
f 212 1 180
f 334 240 222
f 22 325 279
f 249 9 321
f 3 273 4
f 54 53 266
f 226 244 342
f 277 278 14
f 103 255 104
f 275 44 43
f 19 18 277
f 46 289 47
f 233 356 357
f 321 3 2
f 14 278 15
f 234 30 29
f 30 234 215
f 203 131 130
f 279 29 28
f 67 265 264
f 256 118 117
f 279 28 27
f 274 39 38
f 23 22 279
f 332 239 221
f 277 18 17
f 17 16 278
f 323 49 48
f 308 109 108
f 280 24 279
f 280 25 24
f 280 27 26
f 64 265 65
f 243 61 207
f 271 287 174
f 6 288 7
f 138 258 311
f 41 250 42
f 176 287 177
f 273 288 4
f 12 324 277
f 7 288 273
f 269 286 154
f 275 289 44
f 372 299 413
f 344 227 345
f 146 285 147
f 355 304 395
f 346 228 347
f 365 441 385
f 348 229 349
f 446 371 448
f 350 230 351
f 391 371 446
f 352 231 353
f 393 302 351
f 360 307 361
f 376 417 353
f 395 377 355
f 357 305 396
f 396 378 357
f 359 306 397
f 397 379 359
f 421 493 473
f 398 380 361
f 307 562 559
f 237 308 102
f 108 255 308
f 218 309 112
f 256 309 119
f 238 310 92
f 98 257 310
f 311 222 240
f 222 311 132
f 312 221 239
f 221 312 122
f 223 313 82
f 261 313 89
f 242 314 72
f 263 314 79
f 243 315 62
f 264 315 69
f 244 316 52
f 266 316 59
f 317 227 245
f 227 317 142
f 318 228 246
f 228 318 152
f 229 319 162
f 270 319 169
f 320 230 248
f 230 320 172
f 321 231 249
f 231 321 2
f 251 322 32
f 274 322 39
f 250 323 42
f 48 275 323
f 253 324 12
f 277 324 19
f 252 325 22
f 279 325 29
f 236 326 202
f 327 290 326
f 290 364 202
f 291 329 328
f 200 219 329
f 291 328 201
f 200 400 327
f 362 382 422
f 201 220 331
f 552 292 330
f 201 363 291
f 363 201 331
f 239 332 203
f 333 293 332
f 364 402 333
f 364 333 202
f 240 334 208
f 335 294 334
f 294 370 208
f 366 335 203
f 241 336 205
f 337 295 336
f 295 431 512
f 296 339 338
f 204 224 339
f 296 338 206
f 204 406 337
f 367 387 429
f 206 225 341
f 297 340 207
f 206 368 296
f 368 206 341
f 207 226 343
f 298 342 213
f 207 369 297
f 369 207 343
f 245 344 209
f 345 299 344
f 370 411 345
f 370 345 208
f 246 346 210
f 347 300 346
f 300 373 210
f 372 347 209
f 247 348 211
f 349 301 348
f 373 414 349
f 373 349 210
f 248 350 212
f 351 302 350
f 212 302 376
f 375 351 211
f 249 352 217
f 353 303 352
f 393 450 302
f 376 353 212
f 213 232 355
f 304 354 214
f 213 377 298
f 377 213 355
f 214 233 357
f 305 356 215
f 214 378 304
f 378 214 357
f 215 234 359
f 306 358 216
f 215 379 305
f 379 215 359
f 216 235 361
f 307 360 217
f 216 380 306
f 380 216 361
f 518 189 519
f 382 290 327
f 329 291 399
f 383 331 292
f 384 293 402
f 402 364 403
f 527 526 486
f 385 294 335
f 335 366 385
f 384 404 293
f 516 430 515
f 387 295 337
f 339 296 405
f 502 194 544
f 388 297 409
f 502 490 454
f 390 299 411
f 411 370 412
f 556 462 541
f 391 300 347
f 347 372 391
f 390 413 299
f 392 301 414
f 414 373 415
f 489 478 464
f 301 375 211
f 351 375 393
f 392 416 301
f 394 303 417
f 417 376 418
f 389 298 410
f 196 195 546
f 395 304 419
f 455 496 505
f 396 305 420
f 496 494 498
f 421 397 306
f 398 361 307
f 381 423 422
f 291 401 399
f 403 364 424
f 422 423 362
f 291 363 401
f 432 438 436
f 475 520 457
f 290 382 424
f 412 370 440
f 366 404 428
f 430 429 386
f 296 407 405
f 512 408 511
f 429 430 367
f 407 296 368
f 409 369 492
f 369 409 297
f 410 377 479
f 523 461 477
f 294 385 440
f 415 373 445
f 372 413 444
f 528 464 478
f 300 391 445
f 418 376 450
f 375 416 449
f 497 557 554
f 451 374 453
f 377 410 298
f 419 378 501
f 378 419 304
f 420 379 482
f 379 420 305
f 421 380 504
f 380 421 306
f 466 452 468
f 400 200 329
f 381 399 401
f 327 400 382
f 400 399 381
f 548 423 381
f 507 401 363
f 333 402 293
f 384 402 403
f 458 426 427
f 382 425 424
f 385 366 428
f 384 456 457
f 406 204 339
f 386 405 407
f 337 406 387
f 406 405 386
f 487 430 386
f 476 407 368
f 383 511 510
f 436 433 432
f 388 409 459
f 409 481 459
f 410 479 490
f 389 410 480
f 345 411 299
f 390 411 412
f 462 442 443
f 385 441 440
f 391 372 444
f 390 460 461
f 349 414 301
f 392 414 415
f 540 556 488
f 391 446 445
f 393 375 449
f 392 463 464
f 353 417 303
f 394 417 418
f 468 558 394
f 393 451 450
f 395 419 471
f 419 485 471
f 482 499 420
f 547 496 197
f 397 421 473
f 533 534 498
f 422 400 381
f 400 422 382
f 425 362 427
f 553 519 189
f 290 424 364
f 425 403 424
f 456 403 425
f 425 427 456
f 456 384 403
f 520 404 457
f 527 486 426
f 550 427 362
f 428 365 385
f 365 428 520
f 429 406 386
f 406 429 387
f 367 435 431
f 437 514 191
f 387 431 295
f 408 431 433
f 383 510 509
f 513 437 191
f 436 510 408
f 435 432 433
f 363 383 507
f 518 438 513
f 437 513 432
f 516 435 367
f 433 436 408
f 438 434 436
f 192 191 514
f 516 515 437
f 508 560 551
f 518 190 189
f 476 388 459
f 544 193 503
f 294 440 370
f 441 412 440
f 460 412 441
f 441 443 460
f 460 390 412
f 523 413 461
f 541 488 556
f 475 457 486
f 444 371 391
f 371 444 523
f 300 445 373
f 446 415 445
f 463 415 446
f 446 448 463
f 463 392 415
f 528 416 464
f 447 448 465
f 477 461 488
f 449 374 393
f 374 449 528
f 302 450 376
f 451 418 450
f 466 418 451
f 451 453 466
f 418 466 394
f 181 199 555
f 453 470 452
f 447 489 542
f 454 479 471
f 500 506 454
f 482 473 455
f 420 484 396
f 404 384 457
f 427 426 456
f 443 365 475
f 538 457 456
f 521 188 187
f 188 521 522
f 476 368 388
f 439 481 491
f 413 390 461
f 443 442 460
f 448 371 477
f 540 461 460
f 524 186 185
f 486 538 426
f 416 392 464
f 448 447 463
f 453 374 478
f 542 464 463
f 529 489 447
f 184 183 530
f 543 303 558
f 453 452 466
f 493 504 495
f 470 555 535
f 466 468 394
f 469 467 468
f 557 467 554
f 532 199 198
f 452 470 535
f 182 181 536
f 395 471 479
f 454 485 500
f 492 389 480
f 472 491 481
f 397 473 482
f 494 473 493
f 501 396 484
f 474 500 485
f 443 525 462
f 525 443 475
f 487 386 407
f 539 476 459
f 448 531 465
f 530 183 465
f 453 537 470
f 536 181 470
f 395 479 377
f 410 490 480
f 492 369 389
f 490 472 480
f 459 481 439
f 472 481 480
f 397 482 379
f 420 499 484
f 493 483 494
f 497 483 495
f 501 378 396
f 499 474 484
f 471 485 454
f 474 485 484
f 524 462 525
f 186 526 527
f 514 437 515
f 439 539 459
f 531 448 477
f 185 184 541
f 537 453 478
f 183 182 529
f 472 490 502
f 454 490 479
f 439 491 503
f 194 193 544
f 492 481 409
f 481 492 480
f 455 473 494
f 483 493 495
f 494 496 455
f 494 483 498
f 498 483 533
f 504 380 398
f 455 505 499
f 534 198 197
f 558 557 543
f 559 497 495
f 496 498 197
f 534 533 532
f 505 474 499
f 455 499 482
f 502 454 506
f 505 196 546
f 501 485 419
f 485 501 484
f 545 491 472
f 506 195 194
f 517 515 487
f 503 193 192
f 421 504 493
f 495 504 398
f 500 474 546
f 196 505 547
f 502 506 194
f 195 506 546
f 401 507 508
f 434 509 510
f 508 548 401
f 522 521 458
f 509 507 383
f 507 509 508
f 434 510 436
f 511 408 510
f 408 512 431
f 292 511 383
f 512 205 295
f 205 512 552
f 432 513 438
f 190 513 191
f 514 503 192
f 517 439 503
f 514 515 517
f 515 430 487
f 430 516 367
f 435 516 437
f 514 517 503
f 539 439 517
f 190 518 513
f 438 518 519
f 434 438 560
f 548 549 423
f 404 520 428
f 365 520 475
f 553 188 522
f 458 521 527
f 549 551 522
f 522 550 549
f 413 523 444
f 371 523 477
f 525 526 524
f 524 185 462
f 186 524 526
f 525 475 486
f 187 186 527
f 526 525 486
f 187 527 521
f 458 527 426
f 416 528 449
f 374 528 478
f 465 529 447
f 489 529 536
f 184 530 541
f 477 488 531
f 531 530 465
f 530 531 488
f 532 469 199
f 533 469 532
f 467 469 554
f 483 554 533
f 498 534 197
f 198 534 532
f 452 535 468
f 199 469 555
f 182 536 529
f 478 489 537
f 537 536 470
f 536 537 489
f 426 538 456
f 538 486 457
f 539 487 476
f 487 539 517
f 442 540 460
f 540 488 461
f 185 541 462
f 488 541 530
f 447 542 463
f 542 489 464
f 303 543 561
f 398 307 559
f 472 502 545
f 503 545 544
f 491 545 503
f 544 545 502
f 505 546 474
f 500 546 506
f 196 547 197
f 547 505 496
f 401 548 381
f 549 550 423
f 551 553 522
f 549 548 508
f 423 550 362
f 427 550 458
f 560 438 519
f 551 549 508
f 205 552 330
f 292 552 511
f 188 553 189
f 519 553 551
f 497 554 483
f 533 554 469
f 181 555 470
f 535 555 469
f 556 442 462
f 540 442 556
f 467 557 558
f 543 557 559
f 467 558 468
f 394 558 303
f 562 561 543
f 398 559 495
f 434 560 508
f 551 560 519
f 561 217 303
f 217 561 307
f 559 562 543
f 562 307 561
f 676 677 816
f 950 859 903
f 816 818 676
f 731 809 881
f 874 690 691
f 742 774 810
f 890 799 781
f 669 670 817
f 816 678 679
f 841 585 586
f 689 690 821
f 720 721 880
f 905 904 788
f 681 818 680
f 682 798 681
f 675 818 674
f 780 673 674
f 806 613 614
f 796 887 591
f 679 818 816
f 785 899 766
f 702 703 770
f 817 843 669
f 951 860 905
f 666 667 843
f 588 842 587
f 912 774 864
f 648 649 822
f 763 663 799
f 656 819 655
f 667 668 843
f 832 725 726
f 672 781 671
f 817 870 665
f 781 870 671
f 672 762 781
f 572 573 779
f 789 703 704
f 781 799 870
f 662 763 782
f 665 870 664
f 807 711 712
f 1097 1030 1031
f 872 661 782
f 871 674 818
f 903 930 950
f 719 720 831
f 839 840 579
f 695 696 820
f 700 701 873
f 846 686 687
f 688 846 687
f 732 773 809
f 685 686 821
f 682 764 798
f 846 689 821
f 699 820 845
f 1005 927 1003
f 578 840 577
f 820 699 700
f 802 873 701
f 820 873 695
f 592 593 777
f 694 695 873
f 696 697 845
f 697 698 845
f 993 929 949
f 805 623 624
f 821 874 685
f 801 874 691
f 1121 1059 1119
f 684 685 874
f 624 826 877
f 582 583 778
f 821 690 874
f 889 780 888
f 783 764 683
f 888 764 852
f 784 765 693
f 622 623 769
f 880 831 720
f 855 765 928
f 892 800 782
f 763 799 890
f 572 779 811
f 855 928 966
f 891 962 961
f 823 649 650
f 914 779 865
f 694 784 693
f 802 701 702
f 780 762 673
f 574 815 573
f 910 773 863
f 967 901 968
f 800 872 782
f 844 657 658
f 819 844 659
f 638 824 637
f 841 842 589
f 740 741 882
f 777 593 813
f 702 770 802
f 647 822 646
f 656 657 844
f 669 843 668
f 712 713 771
f 782 661 662
f 785 766 643
f 995 997 993
f 875 651 803
f 780 798 888
f 875 644 823
f 649 823 822
f 875 803 785
f 881 809 791
f 819 872 655
f 823 650 651
f 822 647 648
f 646 822 823
f 920 814 796
f 832 834 729
f 639 824 638
f 639 640 825
f 637 824 636
f 656 844 819
f 896 770 856
f 659 844 658
f 672 673 762
f 644 785 643
f 766 786 642
f 791 809 910
f 825 824 639
f 636 824 825
f 810 741 742
f 825 635 636
f 634 635 825
f 778 583 814
f 641 642 786
f 891 890 781
f 714 790 713
f 640 641 825
f 872 654 655
f 666 843 817
f 767 800 892
f 805 877 787
f 768 787 632
f 664 799 663
f 630 631 826
f 631 632 787
f 722 723 772
f 826 624 625
f 769 805 902
f 652 767 803
f 790 808 908
f 692 765 801
f 903 859 902
f 804 876 786
f 860 904 905
f 775 806 904
f 871 798 780
f 622 769 788
f 916 812 794
f 768 804 900
f 1114 1073 1074
f 662 663 763
f 826 629 630
f 827 826 626
f 898 767 857
f 629 827 628
f 627 628 827
f 786 876 641
f 922 815 797
f 696 845 820
f 792 810 912
f 726 727 834
f 614 615 828
f 622 788 621
f 883 835 570
f 619 620 828
f 569 570 835
f 618 619 829
f 787 877 631
f 617 618 829
f 616 829 828
f 686 846 821
f 900 804 786
f 878 621 788
f 893 892 782
f 689 846 688
f 788 806 878
f 771 790 909
f 893 854 892
f 699 845 698
f 765 784 897
f 905 931 951
f 707 708 847
f 879 710 711
f 987 924 944
f 847 706 707
f 830 879 705
f 634 825 876
f 711 807 879
f 830 710 879
f 709 830 847
f 908 772 862
f 872 660 661
f 839 575 576
f 709 710 830
f 830 705 706
f 716 717 848
f 722 772 808
f 831 848 719
f 923 922 797
f 717 718 848
f 804 633 634
f 897 784 896
f 715 716 831
f 789 770 703
f 704 705 879
f 771 934 861
f 767 653 800
f 739 740 833
f 978 863 937
f 745 1027 1091
f 789 807 906
f 789 907 770
f 894 765 855
f 721 722 808
f 632 633 768
f 715 831 880
f 721 808 880
f 724 791 723
f 880 714 715
f 936 955 1013
f 652 653 767
f 605 885 604
f 791 772 723
f 814 583 584
f 771 713 790
f 920 778 814
f 918 813 795
f 659 660 819
f 903 902 787
f 906 771 861
f 617 829 616
f 731 832 730
f 901 900 786
f 881 724 832
f 724 725 832
f 602 603 776
f 792 733 734
f 834 832 726
f 574 575 839
f 728 729 834
f 1070 996 1071
f 828 829 619
f 730 832 729
f 712 771 807
f 818 675 676
f 736 737 849
f 785 803 898
f 596 597 838
f 834 727 728
f 893 925 945
f 921 920 796
f 882 833 740
f 899 785 898
f 741 810 882
f 734 735 882
f 642 643 766
f 612 613 775
f 563 793 774
f 564 793 563
f 803 651 652
f 733 792 773
f 739 833 849
f 735 833 882
f 1084 1112 1020
f 836 838 599
f 813 593 594
f 775 613 806
f 566 567 850
f 681 798 871
f 620 621 828
f 883 565 835
f 895 783 894
f 736 833 735
f 849 737 738
f 571 572 811
f 762 780 889
f 731 732 809
f 994 999 997
f 568 850 567
f 644 645 823
f 776 603 812
f 868 920 921
f 867 918 919
f 614 828 878
f 916 917 866
f 777 813 918
f 794 812 885
f 796 814 887
f 823 645 646
f 764 783 895
f 602 795 601
f 884 795 813
f 917 916 794
f 602 776 795
f 594 595 836
f 795 884 601
f 684 783 683
f 902 805 787
f 594 836 884
f 815 922 779
f 732 733 773
f 800 653 654
f 775 794 612
f 609 610 837
f 682 683 764
f 851 609 837
f 608 851 607
f 706 847 830
f 883 570 571
f 611 794 885
f 779 573 815
f 801 691 692
f 611 612 794
f 836 599 600
f 793 811 914
f 678 816 677
f 606 607 851
f 596 836 595
f 598 599 838
f 768 633 804
f 626 826 625
f 838 597 598
f 885 605 837
f 596 838 836
f 719 848 718
f 773 792 913
f 772 791 911
f 1049 1038 969
f 815 886 797
f 915 774 793
f 916 776 812
f 582 778 797
f 581 582 797
f 581 797 886
f 742 563 774
f 784 802 896
f 841 887 584
f 883 571 811
f 566 835 565
f 828 615 616
f 904 806 788
f 576 840 839
f 666 817 665
f 605 606 837
f 839 580 581
f 609 851 608
f 919 918 795
f 564 565 883
f 577 840 576
f 591 592 796
f 777 796 592
f 692 693 765
f 590 591 841
f 826 827 629
f 679 680 818
f 589 590 841
f 600 601 836
f 841 584 585
f 783 801 894
f 579 580 839
f 840 578 579
f 610 611 885
f 670 671 870
f 841 586 842
f 586 587 842
f 588 589 842
f 627 827 626
f 769 623 805
f 736 849 833
f 569 850 568
f 873 820 700
f 604 812 603
f 739 849 738
f 566 850 835
f 839 886 574
f 835 850 569
f 716 848 831
f 606 851 837
f 975 861 934
f 907 789 906
f 709 847 708
f 957 866 917
f 909 790 908
f 947 1003 927
f 911 791 910
f 1010 933 1008
f 913 792 912
f 1008 933 953
f 915 793 914
f 913 864 955
f 923 869 922
f 915 979 938
f 917 939 957
f 958 867 919
f 919 940 958
f 959 868 921
f 921 941 959
f 1035 1055 983
f 923 942 960
f 1121 1124 869
f 664 870 799
f 870 817 670
f 674 871 780
f 681 871 818
f 654 872 800
f 872 819 660
f 802 784 873
f 694 873 784
f 801 783 874
f 684 874 783
f 644 875 785
f 651 875 823
f 634 876 804
f 641 876 825
f 624 877 805
f 631 877 826
f 614 878 806
f 621 878 828
f 807 789 879
f 704 879 789
f 808 790 880
f 714 880 790
f 724 881 791
f 731 881 832
f 810 792 882
f 734 882 792
f 811 793 883
f 564 883 793
f 594 884 813
f 601 884 836
f 604 885 812
f 885 837 610
f 574 886 815
f 581 886 839
f 584 887 814
f 591 887 841
f 764 888 798
f 888 852 889
f 764 926 852
f 890 891 853
f 891 781 762
f 763 890 853
f 889 962 762
f 984 944 924
f 893 782 763
f 892 854 1114
f 853 925 763
f 893 763 925
f 765 894 801
f 894 855 895
f 895 964 926
f 764 895 926
f 770 896 802
f 896 856 897
f 770 932 856
f 765 897 928
f 767 898 803
f 898 857 899
f 1074 993 857
f 900 901 858
f 901 786 766
f 768 900 858
f 899 968 766
f 991 949 929
f 903 787 768
f 769 902 859
f 858 930 768
f 903 768 930
f 905 788 769
f 775 904 860
f 859 931 769
f 905 769 931
f 771 906 807
f 906 861 907
f 907 973 932
f 770 907 932
f 772 908 808
f 908 862 909
f 772 935 862
f 771 909 934
f 773 910 809
f 910 863 911
f 911 976 935
f 772 911 935
f 774 912 810
f 912 864 913
f 938 864 774
f 773 913 937
f 779 914 811
f 914 865 915
f 864 1012 955
f 774 915 938
f 917 794 775
f 776 916 866
f 860 939 775
f 917 775 939
f 919 795 776
f 777 918 867
f 866 940 776
f 919 776 940
f 921 796 777
f 778 920 868
f 867 941 777
f 921 777 941
f 923 797 778
f 779 922 869
f 868 942 778
f 923 778 942
f 1081 751 1080
f 889 852 944
f 961 853 891
f 854 893 945
f 964 855 946
f 965 926 964
f 1048 1088 1089
f 897 856 947
f 947 928 897
f 855 966 946
f 1077 992 1078
f 899 857 949
f 967 858 901
f 1106 756 1064
f 971 859 950
f 1016 1052 1064
f 973 861 952
f 974 932 973
f 1103 1024 1118
f 909 862 953
f 953 934 909
f 861 975 952
f 976 863 954
f 977 935 976
f 1026 1040 1051
f 773 937 863
f 955 937 913
f 863 978 954
f 979 865 956
f 980 938 979
f 972 860 951
f 1108 757 758
f 981 866 957
f 1067 1058 1017
f 982 867 958
f 1060 1056 1058
f 868 959 983
f 869 923 960
f 984 985 943
f 961 963 853
f 986 926 965
f 924 985 984
f 963 925 853
f 998 1000 994
f 1019 1082 1037
f 986 944 852
f 1002 932 974
f 990 966 928
f 948 991 992
f 967 969 858
f 1073 970 1074
f 929 992 991
f 930 858 969
f 1054 931 971
f 859 971 931
f 1041 939 972
f 1039 1023 1085
f 1002 947 856
f 1007 935 977
f 1006 975 934
f 1040 1026 1090
f 1007 953 862
f 1012 938 980
f 1011 978 937
f 1116 1119 1059
f 1015 936 1013
f 860 972 939
f 1063 940 981
f 866 981 940
f 1044 941 982
f 867 982 941
f 1066 942 983
f 868 983 942
f 1030 1014 1028
f 891 762 962
f 963 961 943
f 944 962 889
f 943 961 962
f 943 985 1110
f 925 963 1069
f 855 964 895
f 965 964 946
f 989 988 1020
f 986 987 944
f 990 928 947
f 1019 1018 946
f 901 766 968
f 969 967 948
f 949 968 899
f 948 967 968
f 948 992 1049
f 930 969 1038
f 1072 1073 945
f 994 995 998
f 1021 971 950
f 1021 1043 971
f 1052 1041 972
f 1042 972 951
f 861 973 907
f 974 973 952
f 1005 1004 1024
f 1002 1003 947
f 1006 934 953
f 1023 1022 952
f 863 976 911
f 977 976 954
f 1050 1118 1102
f 1007 1008 953
f 1011 937 955
f 1026 1025 954
f 865 979 915
f 980 979 956
f 956 1120 1030
f 1012 1013 955
f 1033 981 957
f 1033 1047 981
f 982 1061 1044
f 759 1058 1109
f 1035 983 959
f 1060 1096 1095
f 943 962 984
f 944 984 962
f 989 924 987
f 751 1081 1115
f 926 986 852
f 986 965 987
f 987 965 1018
f 1018 989 987
f 965 946 1018
f 1019 966 1082
f 988 1048 1089
f 924 989 1112
f 947 927 990
f 1082 990 927
f 948 968 991
f 949 991 968
f 993 997 929
f 753 1076 999
f 857 993 949
f 995 993 970
f 1071 1072 945
f 753 999 1075
f 970 1072 998
f 995 994 997
f 1069 945 925
f 1075 1000 1080
f 994 1075 999
f 929 997 1078
f 970 998 995
f 998 996 1000
f 1076 753 754
f 999 1077 1078
f 1113 1122 1070
f 751 752 1080
f 1021 950 1038
f 1065 755 1106
f 932 1002 856
f 1002 974 1003
f 1003 974 1022
f 1022 1005 1003
f 974 952 1022
f 1023 975 1085
f 1118 1050 1103
f 1048 1019 1037
f 953 933 1006
f 1085 1006 933
f 935 1007 862
f 1007 977 1008
f 1008 977 1025
f 1025 1010 1008
f 977 954 1025
f 1026 978 1090
f 1027 1010 1009
f 1050 1023 1039
f 955 936 1011
f 1090 1011 936
f 938 1012 864
f 1012 980 1013
f 1013 980 1028
f 1028 1015 1013
f 956 1028 980
f 1117 761 743
f 1014 1032 1015
f 1104 1051 1009
f 1033 1041 1016
f 1016 1068 1062
f 1017 1035 1044
f 958 1046 982
f 1019 946 966
f 1018 988 989
f 1037 927 1005
f 1018 1019 1100
f 749 750 1083
f 1084 1083 750
f 950 930 1038
f 1053 1043 1001
f 1023 952 975
f 1022 1004 1005
f 1039 933 1010
f 1022 1023 1102
f 747 748 1086
f 988 1100 1048
f 1026 954 978
f 1025 1009 1010
f 1040 936 1015
f 1025 1026 1104
f 1009 1051 1091
f 1092 745 746
f 1120 865 1105
f 1028 1014 1015
f 1057 1066 1055
f 1097 1117 1032
f 956 1030 1028
f 1030 1029 1031
f 1116 1029 1119
f 760 761 1094
f 1097 1032 1014
f 1098 743 744
f 1041 1033 957
f 1062 1047 1016
f 1042 951 1054
f 1043 1053 1034
f 1044 1035 959
f 1055 1035 1056
f 1046 958 1063
f 1047 1062 1036
f 1024 1087 1005
f 1037 1005 1087
f 969 948 1049
f 1021 1038 1101
f 1027 1093 1010
f 1027 745 1092
f 1032 1099 1015
f 1032 743 1098
f 939 1041 957
f 1042 1052 972
f 951 931 1054
f 1042 1034 1052
f 1001 1043 1021
f 1042 1043 1034
f 941 1044 959
f 1046 1061 982
f 1056 1045 1055
f 1057 1045 1059
f 958 940 1063
f 1046 1036 1061
f 1016 1047 1033
f 1046 1047 1036
f 1087 1024 1086
f 1089 1088 748
f 1077 999 1076
f 1021 1101 1001
f 1039 1010 1093
f 1103 746 747
f 1040 1015 1099
f 1091 744 745
f 1064 1052 1034
f 1041 1052 1016
f 1065 1053 1001
f 1106 755 756
f 971 1043 1054
f 1042 1054 1043
f 1056 1035 1017
f 1057 1055 1045
f 1017 1058 1056
f 1060 1045 1056
f 1095 1045 1060
f 960 942 1066
f 1061 1067 1017
f 759 760 1096
f 1105 1119 1120
f 1057 1059 1121
f 759 1060 1058
f 1094 1095 1096
f 1061 1036 1067
f 1044 1061 1017
f 1068 1016 1064
f 1108 758 1067
f 981 1047 1063
f 1046 1063 1047
f 1034 1053 1107
f 756 757 1068
f 1049 1077 1079
f 754 755 1065
f 1055 1066 983
f 960 1066 1057
f 1108 1036 1062
f 1109 1067 758
f 756 1068 1064
f 1108 1068 757
f 1070 1069 963
f 1072 1071 996
f 963 1110 1070
f 1020 1083 1084
f 945 1069 1071
f 1070 1071 1069
f 998 1072 996
f 1072 970 1073
f 993 1074 970
f 945 1073 854
f 857 767 1074
f 1114 1074 767
f 1000 1075 994
f 753 1075 752
f 754 1065 1076
f 1065 1001 1079
f 1079 1077 1076
f 1049 992 1077
f 929 1078 992
f 999 1078 997
f 1065 1079 1076
f 1079 1001 1101
f 1075 1080 752
f 1081 1080 1000
f 1122 1000 996
f 985 1111 1110
f 990 1082 966
f 1037 1082 927
f 1084 750 1115
f 1089 1083 1020
f 1084 1113 1111
f 1111 1112 1084
f 1006 1085 975
f 1039 1085 933
f 1086 1088 1087
f 1024 747 1086
f 1088 1086 748
f 1048 1037 1087
f 1089 748 749
f 1048 1087 1088
f 1083 1089 749
f 988 1089 1020
f 1011 1090 978
f 1040 1090 936
f 1009 1091 1027
f 1098 1091 1051
f 1103 1092 746
f 1093 1050 1039
f 1027 1092 1093
f 1050 1093 1092
f 761 1031 1094
f 1094 1031 1095
f 1116 1031 1029
f 1095 1116 1045
f 759 1096 1060
f 1094 1096 760
f 1030 1097 1014
f 1117 1031 761
f 1091 1098 744
f 1099 1051 1040
f 1032 1098 1099
f 1051 1099 1098
f 1018 1100 988
f 1019 1048 1100
f 1038 1049 1101
f 1079 1101 1049
f 1022 1102 1004
f 1023 1050 1102
f 1024 1103 747
f 1092 1103 1050
f 1025 1104 1009
f 1026 1051 1104
f 1123 1105 865
f 1121 869 960
f 1107 1064 1034
f 1106 1107 1065
f 1065 1107 1053
f 1064 1107 1106
f 1036 1108 1067
f 1068 1108 1062
f 759 1109 758
f 1058 1067 1109
f 943 1110 963
f 985 1112 1111
f 1084 1115 1113
f 1070 1110 1111
f 924 1112 985
f 1020 1112 989
f 1081 1000 1122
f 1070 1111 1113
f 892 1114 767
f 1073 1114 854
f 751 1115 750
f 1113 1115 1081
f 1045 1116 1059
f 1031 1116 1095
f 1032 1117 743
f 1031 1117 1097
f 1024 1004 1118
f 1118 1004 1102
f 1120 1119 1029
f 1121 1119 1105
f 1030 1120 1029
f 865 1120 956
f 1105 1123 1124
f 1057 1121 960
f 1070 1122 996
f 1081 1122 1113
f 865 779 1123
f 869 1123 779
f 1105 1124 1121
f 1123 869 1124
f 1 2 1126
f 2 3 1127
f 3 4 1128
f 4 5 1129
f 5 6 1130
f 6 7 1131
f 7 8 1132
f 8 9 1133
f 9 10 1134
f 10 11 1135
f 11 12 1136
f 12 13 1137
f 13 14 1138
f 14 15 1139
f 15 16 1140
f 16 17 1141
f 17 18 1142
f 18 19 1143
f 19 20 1144
f 20 21 1145
f 21 22 1146
f 22 23 1147
f 23 24 1148
f 24 25 1149
f 25 26 1150
f 26 27 1151
f 27 28 1152
f 28 29 1153
f 29 30 1154
f 30 31 1155
f 31 32 1156
f 32 33 1157
f 33 34 1158
f 34 35 1159
f 35 36 1160
f 36 37 1161
f 37 38 1162
f 38 39 1163
f 39 40 1164
f 40 41 1165
f 41 42 1166
f 42 43 1167
f 43 44 1168
f 44 45 1169
f 45 46 1170
f 46 47 1171
f 47 48 1172
f 48 49 1173
f 49 50 1174
f 50 51 1175
f 51 52 1176
f 52 53 1177
f 53 54 1178
f 54 55 1179
f 55 56 1180
f 56 57 1181
f 57 58 1182
f 58 59 1183
f 59 60 1184
f 60 61 1185
f 61 62 1186
f 62 63 1187
f 63 64 1188
f 64 65 1189
f 65 66 1190
f 66 67 1191
f 67 68 1192
f 68 69 1193
f 69 70 1194
f 70 71 1195
f 71 72 1196
f 72 73 1197
f 73 74 1198
f 74 75 1199
f 75 76 1200
f 76 77 1201
f 77 78 1202
f 78 79 1203
f 79 80 1204
f 80 81 1205
f 81 82 1206
f 82 83 1207
f 83 84 1208
f 84 85 1209
f 85 86 1210
f 86 87 1211
f 87 88 1212
f 88 89 1213
f 89 90 1214
f 90 91 1215
f 91 92 1216
f 92 93 1217
f 93 94 1218
f 94 95 1219
f 95 96 1220
f 96 97 1221
f 97 98 1222
f 98 99 1223
f 99 100 1224
f 100 101 1225
f 101 102 1226
f 102 103 1227
f 103 104 1228
f 104 105 1229
f 105 106 1230
f 106 107 1231
f 107 108 1232
f 108 109 1233
f 109 110 1234
f 110 111 1235
f 111 112 1236
f 112 113 1237
f 113 114 1238
f 114 115 1239
f 115 116 1240
f 116 117 1241
f 117 118 1242
f 118 119 1243
f 119 120 1244
f 120 121 1245
f 121 122 1246
f 122 123 1247
f 123 124 1248
f 124 125 1249
f 125 126 1250
f 126 127 1251
f 127 128 1252
f 128 129 1253
f 129 130 1254
f 130 131 1255
f 131 132 1256
f 132 133 1257
f 133 134 1258
f 134 135 1259
f 135 136 1260
f 136 137 1261
f 137 138 1262
f 138 139 1263
f 139 140 1264
f 140 141 1265
f 141 142 1266
f 142 143 1267
f 143 144 1268
f 144 145 1269
f 145 146 1270
f 146 147 1271
f 147 148 1272
f 148 149 1273
f 149 150 1274
f 150 151 1275
f 151 152 1276
f 152 153 1277
f 153 154 1278
f 154 155 1279
f 155 156 1280
f 156 157 1281
f 157 158 1282
f 158 159 1283
f 159 160 1284
f 160 161 1285
f 161 162 1286
f 162 163 1287
f 163 164 1288
f 164 165 1289
f 165 166 1290
f 166 167 1291
f 167 168 1292
f 168 169 1293
f 169 170 1294
f 170 171 1295
f 171 172 1296
f 172 173 1297
f 173 174 1298
f 174 175 1299
f 175 176 1300
f 176 177 1301
f 177 178 1302
f 178 179 1303
f 179 180 1304
f 180 1 1125
f 1 1126 1125
f 2 1127 1126
f 3 1128 1127
f 4 1129 1128
f 5 1130 1129
f 6 1131 1130
f 7 1132 1131
f 8 1133 1132
f 9 1134 1133
f 10 1135 1134
f 11 1136 1135
f 12 1137 1136
f 13 1138 1137
f 14 1139 1138
f 15 1140 1139
f 16 1141 1140
f 17 1142 1141
f 18 1143 1142
f 19 1144 1143
f 20 1145 1144
f 21 1146 1145
f 22 1147 1146
f 23 1148 1147
f 24 1149 1148
f 25 1150 1149
f 26 1151 1150
f 27 1152 1151
f 28 1153 1152
f 29 1154 1153
f 30 1155 1154
f 31 1156 1155
f 32 1157 1156
f 33 1158 1157
f 34 1159 1158
f 35 1160 1159
f 36 1161 1160
f 37 1162 1161
f 38 1163 1162
f 39 1164 1163
f 40 1165 1164
f 41 1166 1165
f 42 1167 1166
f 43 1168 1167
f 44 1169 1168
f 45 1170 1169
f 46 1171 1170
f 47 1172 1171
f 48 1173 1172
f 49 1174 1173
f 50 1175 1174
f 51 1176 1175
f 52 1177 1176
f 53 1178 1177
f 54 1179 1178
f 55 1180 1179
f 56 1181 1180
f 57 1182 1181
f 58 1183 1182
f 59 1184 1183
f 60 1185 1184
f 61 1186 1185
f 62 1187 1186
f 63 1188 1187
f 64 1189 1188
f 65 1190 1189
f 66 1191 1190
f 67 1192 1191
f 68 1193 1192
f 69 1194 1193
f 70 1195 1194
f 71 1196 1195
f 72 1197 1196
f 73 1198 1197
f 74 1199 1198
f 75 1200 1199
f 76 1201 1200
f 77 1202 1201
f 78 1203 1202
f 79 1204 1203
f 80 1205 1204
f 81 1206 1205
f 82 1207 1206
f 83 1208 1207
f 84 1209 1208
f 85 1210 1209
f 86 1211 1210
f 87 1212 1211
f 88 1213 1212
f 89 1214 1213
f 90 1215 1214
f 91 1216 1215
f 92 1217 1216
f 93 1218 1217
f 94 1219 1218
f 95 1220 1219
f 96 1221 1220
f 97 1222 1221
f 98 1223 1222
f 99 1224 1223
f 100 1225 1224
f 101 1226 1225
f 102 1227 1226
f 103 1228 1227
f 104 1229 1228
f 105 1230 1229
f 106 1231 1230
f 107 1232 1231
f 108 1233 1232
f 109 1234 1233
f 110 1235 1234
f 111 1236 1235
f 112 1237 1236
f 113 1238 1237
f 114 1239 1238
f 115 1240 1239
f 116 1241 1240
f 117 1242 1241
f 118 1243 1242
f 119 1244 1243
f 120 1245 1244
f 121 1246 1245
f 122 1247 1246
f 123 1248 1247
f 124 1249 1248
f 125 1250 1249
f 126 1251 1250
f 127 1252 1251
f 128 1253 1252
f 129 1254 1253
f 130 1255 1254
f 131 1256 1255
f 132 1257 1256
f 133 1258 1257
f 134 1259 1258
f 135 1260 1259
f 136 1261 1260
f 137 1262 1261
f 138 1263 1262
f 139 1264 1263
f 140 1265 1264
f 141 1266 1265
f 142 1267 1266
f 143 1268 1267
f 144 1269 1268
f 145 1270 1269
f 146 1271 1270
f 147 1272 1271
f 148 1273 1272
f 149 1274 1273
f 150 1275 1274
f 151 1276 1275
f 152 1277 1276
f 153 1278 1277
f 154 1279 1278
f 155 1280 1279
f 156 1281 1280
f 157 1282 1281
f 158 1283 1282
f 159 1284 1283
f 160 1285 1284
f 161 1286 1285
f 162 1287 1286
f 163 1288 1287
f 164 1289 1288
f 165 1290 1289
f 166 1291 1290
f 167 1292 1291
f 168 1293 1292
f 169 1294 1293
f 170 1295 1294
f 171 1296 1295
f 172 1297 1296
f 173 1298 1297
f 174 1299 1298
f 175 1300 1299
f 176 1301 1300
f 177 1302 1301
f 178 1303 1302
f 179 1304 1303
f 180 1125 1304
f 1125 1126 1325
f 1126 1127 1326
f 1127 1128 1327
f 1128 1129 1328
f 1129 1130 1329
f 1130 1131 1330
f 1131 1132 1331
f 1132 1133 1332
f 1133 1134 1333
f 1134 1135 1334
f 1135 1136 1335
f 1136 1137 1336
f 1137 1138 1337
f 1138 1139 1338
f 1139 1140 1339
f 1140 1141 1340
f 1141 1142 1341
f 1142 1143 1342
f 1143 1144 1343
f 1144 1145 1344
f 1145 1146 1345
f 1146 1147 1346
f 1147 1148 1347
f 1148 1149 1348
f 1149 1150 1349
f 1150 1151 1350
f 1151 1152 1351
f 1152 1153 1352
f 1153 1154 1353
f 1154 1155 1354
f 1155 1156 1355
f 1156 1157 1356
f 1157 1158 1357
f 1158 1159 1358
f 1159 1160 1359
f 1160 1161 1360
f 1161 1162 1361
f 1162 1163 1362
f 1163 1164 1363
f 1164 1165 1364
f 1165 1166 1365
f 1166 1167 1366
f 1167 1168 1367
f 1168 1169 1368
f 1169 1170 1369
f 1170 1171 1370
f 1171 1172 1371
f 1172 1173 1372
f 1173 1174 1373
f 1174 1175 1374
f 1175 1176 1375
f 1176 1177 1376
f 1177 1178 1377
f 1178 1179 1378
f 1179 1180 1379
f 1180 1181 1380
f 1181 1182 1381
f 1182 1183 1382
f 1183 1184 1383
f 1184 1185 1384
f 1185 1186 1385
f 1186 1187 1386
f 1187 1188 1387
f 1188 1189 1388
f 1189 1190 1389
f 1190 1191 1390
f 1191 1192 1391
f 1192 1193 1392
f 1193 1194 1393
f 1194 1195 1394
f 1195 1196 1395
f 1196 1197 1396
f 1197 1198 1397
f 1198 1199 1398
f 1199 1200 1399
f 1200 1201 1400
f 1201 1202 1401
f 1202 1203 1402
f 1203 1204 1403
f 1204 1205 1404
f 1205 1206 1405
f 1206 1207 1406
f 1207 1208 1407
f 1208 1209 1408
f 1209 1210 1409
f 1210 1211 1410
f 1211 1212 1411
f 1212 1213 1412
f 1213 1214 1413
f 1214 1215 1414
f 1215 1216 1415
f 1216 1217 1416
f 1217 1218 1417
f 1218 1219 1418
f 1219 1220 1419
f 1220 1221 1420
f 1221 1222 1421
f 1222 1223 1422
f 1223 1224 1423
f 1224 1225 1424
f 1225 1226 1425
f 1226 1227 1426
f 1227 1228 1427
f 1228 1229 1428
f 1229 1230 1429
f 1230 1231 1430
f 1231 1232 1431
f 1232 1233 1432
f 1233 1234 1433
f 1234 1235 1434
f 1235 1236 1435
f 1236 1237 1436
f 1237 1238 1437
f 1238 1239 1438
f 1239 1240 1439
f 1240 1241 1440
f 1241 1242 1441
f 1242 1243 1442
f 1243 1244 1443
f 1244 1245 1444
f 1245 1246 1445
f 1246 1247 1446
f 1247 1248 1447
f 1248 1249 1448
f 1249 1250 1449
f 1250 1251 1450
f 1251 1252 1451
f 1252 1253 1452
f 1253 1254 1453
f 1254 1255 1454
f 1255 1256 1455
f 1256 1257 1456
f 1257 1258 1457
f 1258 1259 1458
f 1259 1260 1459
f 1260 1261 1460
f 1261 1262 1461
f 1262 1263 1462
f 1263 1264 1463
f 1264 1265 1464
f 1265 1266 1465
f 1266 1267 1466
f 1267 1268 1467
f 1268 1269 1468
f 1269 1270 1469
f 1270 1271 1470
f 1271 1272 1471
f 1272 1273 1472
f 1273 1274 1473
f 1274 1275 1474
f 1275 1276 1475
f 1276 1277 1476
f 1277 1278 1477
f 1278 1279 1478
f 1279 1280 1479
f 1280 1281 1480
f 1281 1282 1481
f 1282 1283 1482
f 1283 1284 1483
f 1284 1285 1484
f 1285 1286 1485
f 1286 1287 1486
f 1287 1288 1487
f 1288 1289 1488
f 1289 1290 1489
f 1290 1291 1490
f 1291 1292 1491
f 1292 1293 1492
f 1293 1294 1493
f 1294 1295 1494
f 1295 1296 1495
f 1296 1297 1496
f 1297 1298 1497
f 1298 1299 1498
f 1299 1300 1499
f 1300 1301 1500
f 1301 1302 1501
f 1302 1303 1502
f 1303 1304 1503
f 1304 1125 1324
f 1125 1325 1324
f 1126 1326 1325
f 1127 1327 1326
f 1128 1328 1327
f 1129 1329 1328
f 1130 1330 1329
f 1131 1331 1330
f 1132 1332 1331
f 1133 1333 1332
f 1134 1334 1333
f 1135 1335 1334
f 1136 1336 1335
f 1137 1337 1336
f 1138 1338 1337
f 1139 1339 1338
f 1140 1340 1339
f 1141 1341 1340
f 1142 1342 1341
f 1143 1343 1342
f 1144 1344 1343
f 1145 1345 1344
f 1146 1346 1345
f 1147 1347 1346
f 1148 1348 1347
f 1149 1349 1348
f 1150 1350 1349
f 1151 1351 1350
f 1152 1352 1351
f 1153 1353 1352
f 1154 1354 1353
f 1155 1355 1354
f 1156 1356 1355
f 1157 1357 1356
f 1158 1358 1357
f 1159 1359 1358
f 1160 1360 1359
f 1161 1361 1360
f 1162 1362 1361
f 1163 1363 1362
f 1164 1364 1363
f 1165 1365 1364
f 1166 1366 1365
f 1167 1367 1366
f 1168 1368 1367
f 1169 1369 1368
f 1170 1370 1369
f 1171 1371 1370
f 1172 1372 1371
f 1173 1373 1372
f 1174 1374 1373
f 1175 1375 1374
f 1176 1376 1375
f 1177 1377 1376
f 1178 1378 1377
f 1179 1379 1378
f 1180 1380 1379
f 1181 1381 1380
f 1182 1382 1381
f 1183 1383 1382
f 1184 1384 1383
f 1185 1385 1384
f 1186 1386 1385
f 1187 1387 1386
f 1188 1388 1387
f 1189 1389 1388
f 1190 1390 1389
f 1191 1391 1390
f 1192 1392 1391
f 1193 1393 1392
f 1194 1394 1393
f 1195 1395 1394
f 1196 1396 1395
f 1197 1397 1396
f 1198 1398 1397
f 1199 1399 1398
f 1200 1400 1399
f 1201 1401 1400
f 1202 1402 1401
f 1203 1403 1402
f 1204 1404 1403
f 1205 1405 1404
f 1206 1406 1405
f 1207 1407 1406
f 1208 1408 1407
f 1209 1409 1408
f 1210 1410 1409
f 1211 1411 1410
f 1212 1412 1411
f 1213 1413 1412
f 1214 1414 1413
f 1215 1415 1414
f 1216 1416 1415
f 1217 1417 1416
f 1218 1418 1417
f 1219 1419 1418
f 1220 1420 1419
f 1221 1421 1420
f 1222 1422 1421
f 1223 1423 1422
f 1224 1424 1423
f 1225 1425 1424
f 1226 1426 1425
f 1227 1427 1426
f 1228 1428 1427
f 1229 1429 1428
f 1230 1430 1429
f 1231 1431 1430
f 1232 1432 1431
f 1233 1433 1432
f 1234 1434 1433
f 1235 1435 1434
f 1236 1436 1435
f 1237 1437 1436
f 1238 1438 1437
f 1239 1439 1438
f 1240 1440 1439
f 1241 1441 1440
f 1242 1442 1441
f 1243 1443 1442
f 1244 1444 1443
f 1245 1445 1444
f 1246 1446 1445
f 1247 1447 1446
f 1248 1448 1447
f 1249 1449 1448
f 1250 1450 1449
f 1251 1451 1450
f 1252 1452 1451
f 1253 1453 1452
f 1254 1454 1453
f 1255 1455 1454
f 1256 1456 1455
f 1257 1457 1456
f 1258 1458 1457
f 1259 1459 1458
f 1260 1460 1459
f 1261 1461 1460
f 1262 1462 1461
f 1263 1463 1462
f 1264 1464 1463
f 1265 1465 1464
f 1266 1466 1465
f 1267 1467 1466
f 1268 1468 1467
f 1269 1469 1468
f 1270 1470 1469
f 1271 1471 1470
f 1272 1472 1471
f 1273 1473 1472
f 1274 1474 1473
f 1275 1475 1474
f 1276 1476 1475
f 1277 1477 1476
f 1278 1478 1477
f 1279 1479 1478
f 1280 1480 1479
f 1281 1481 1480
f 1282 1482 1481
f 1283 1483 1482
f 1284 1484 1483
f 1285 1485 1484
f 1286 1486 1485
f 1287 1487 1486
f 1288 1488 1487
f 1289 1489 1488
f 1290 1490 1489
f 1291 1491 1490
f 1292 1492 1491
f 1293 1493 1492
f 1294 1494 1493
f 1295 1495 1494
f 1296 1496 1495
f 1297 1497 1496
f 1298 1498 1497
f 1299 1499 1498
f 1300 1500 1499
f 1301 1501 1500
f 1302 1502 1501
f 1303 1503 1502
f 1304 1324 1503
f 1324 1325 1524
f 1325 1326 1525
f 1326 1327 1526
f 1327 1328 1527
f 1328 1329 1528
f 1329 1330 1529
f 1330 1331 1530
f 1331 1332 1531
f 1332 1333 1532
f 1333 1334 1533
f 1334 1335 1534
f 1335 1336 1535
f 1336 1337 1536
f 1337 1338 1537
f 1338 1339 1538
f 1339 1340 1539
f 1340 1341 1540
f 1341 1342 1541
f 1342 1343 1542
f 1343 1344 1543
f 1344 1345 1544
f 1345 1346 1545
f 1346 1347 1546
f 1347 1348 1547
f 1348 1349 1548
f 1349 1350 1549
f 1350 1351 1550
f 1351 1352 1551
f 1352 1353 1552
f 1353 1354 1553
f 1354 1355 1554
f 1355 1356 1555
f 1356 1357 1556
f 1357 1358 1557
f 1358 1359 1558
f 1359 1360 1559
f 1360 1361 1560
f 1361 1362 1561
f 1362 1363 1562
f 1363 1364 1563
f 1364 1365 1564
f 1365 1366 1565
f 1366 1367 1566
f 1367 1368 1567
f 1368 1369 1568
f 1369 1370 1569
f 1370 1371 1570
f 1371 1372 1571
f 1372 1373 1572
f 1373 1374 1573
f 1374 1375 1574
f 1375 1376 1575
f 1376 1377 1576
f 1377 1378 1577
f 1378 1379 1578
f 1379 1380 1579
f 1380 1381 1580
f 1381 1382 1581
f 1382 1383 1582
f 1383 1384 1583
f 1384 1385 1584
f 1385 1386 1585
f 1386 1387 1586
f 1387 1388 1587
f 1388 1389 1588
f 1389 1390 1589
f 1390 1391 1590
f 1391 1392 1591
f 1392 1393 1592
f 1393 1394 1593
f 1394 1395 1594
f 1395 1396 1595
f 1396 1397 1596
f 1397 1398 1597
f 1398 1399 1598
f 1399 1400 1599
f 1400 1401 1600
f 1401 1402 1601
f 1402 1403 1602
f 1403 1404 1603
f 1404 1405 1604
f 1405 1406 1605
f 1406 1407 1606
f 1407 1408 1607
f 1408 1409 1608
f 1409 1410 1609
f 1410 1411 1610
f 1411 1412 1611
f 1412 1413 1612
f 1413 1414 1613
f 1414 1415 1614
f 1415 1416 1615
f 1416 1417 1616
f 1417 1418 1617
f 1418 1419 1618
f 1419 1420 1619
f 1420 1421 1620
f 1421 1422 1621
f 1422 1423 1622
f 1423 1424 1623
f 1424 1425 1624
f 1425 1426 1625
f 1426 1427 1626
f 1427 1428 1627
f 1428 1429 1628
f 1429 1430 1629
f 1430 1431 1630
f 1431 1432 1631
f 1432 1433 1632
f 1433 1434 1633
f 1434 1435 1634
f 1435 1436 1635
f 1436 1437 1636
f 1437 1438 1637
f 1438 1439 1638
f 1439 1440 1639
f 1440 1441 1640
f 1441 1442 1641
f 1442 1443 1642
f 1443 1444 1643
f 1444 1445 1644
f 1445 1446 1645
f 1446 1447 1646
f 1447 1448 1647
f 1448 1449 1648
f 1449 1450 1649
f 1450 1451 1650
f 1451 1452 1651
f 1452 1453 1652
f 1453 1454 1653
f 1454 1455 1654
f 1455 1456 1655
f 1456 1457 1656
f 1457 1458 1657
f 1458 1459 1658
f 1459 1460 1659
f 1460 1461 1660
f 1461 1462 1661
f 1462 1463 1662
f 1463 1464 1663
f 1464 1465 1664
f 1465 1466 1665
f 1466 1467 1666
f 1467 1468 1667
f 1468 1469 1668
f 1469 1470 1669
f 1470 1471 1670
f 1471 1472 1671
f 1472 1473 1672
f 1473 1474 1673
f 1474 1475 1674
f 1475 1476 1675
f 1476 1477 1676
f 1477 1478 1677
f 1478 1479 1678
f 1479 1480 1679
f 1480 1481 1680
f 1481 1482 1681
f 1482 1483 1682
f 1483 1484 1683
f 1484 1485 1684
f 1485 1486 1685
f 1486 1487 1686
f 1487 1488 1687
f 1488 1489 1688
f 1489 1490 1689
f 1490 1491 1690
f 1491 1492 1691
f 1492 1493 1692
f 1493 1494 1693
f 1494 1495 1694
f 1495 1496 1695
f 1496 1497 1696
f 1497 1498 1697
f 1498 1499 1698
f 1499 1500 1699
f 1500 1501 1700
f 1501 1502 1701
f 1502 1503 1702
f 1503 1324 1523
f 1324 1524 1523
f 1325 1525 1524
f 1326 1526 1525
f 1327 1527 1526
f 1328 1528 1527
f 1329 1529 1528
f 1330 1530 1529
f 1331 1531 1530
f 1332 1532 1531
f 1333 1533 1532
f 1334 1534 1533
f 1335 1535 1534
f 1336 1536 1535
f 1337 1537 1536
f 1338 1538 1537
f 1339 1539 1538
f 1340 1540 1539
f 1341 1541 1540
f 1342 1542 1541
f 1343 1543 1542
f 1344 1544 1543
f 1345 1545 1544
f 1346 1546 1545
f 1347 1547 1546
f 1348 1548 1547
f 1349 1549 1548
f 1350 1550 1549
f 1351 1551 1550
f 1352 1552 1551
f 1353 1553 1552
f 1354 1554 1553
f 1355 1555 1554
f 1356 1556 1555
f 1357 1557 1556
f 1358 1558 1557
f 1359 1559 1558
f 1360 1560 1559
f 1361 1561 1560
f 1362 1562 1561
f 1363 1563 1562
f 1364 1564 1563
f 1365 1565 1564
f 1366 1566 1565
f 1367 1567 1566
f 1368 1568 1567
f 1369 1569 1568
f 1370 1570 1569
f 1371 1571 1570
f 1372 1572 1571
f 1373 1573 1572
f 1374 1574 1573
f 1375 1575 1574
f 1376 1576 1575
f 1377 1577 1576
f 1378 1578 1577
f 1379 1579 1578
f 1380 1580 1579
f 1381 1581 1580
f 1382 1582 1581
f 1383 1583 1582
f 1384 1584 1583
f 1385 1585 1584
f 1386 1586 1585
f 1387 1587 1586
f 1388 1588 1587
f 1389 1589 1588
f 1390 1590 1589
f 1391 1591 1590
f 1392 1592 1591
f 1393 1593 1592
f 1394 1594 1593
f 1395 1595 1594
f 1396 1596 1595
f 1397 1597 1596
f 1398 1598 1597
f 1399 1599 1598
f 1400 1600 1599
f 1401 1601 1600
f 1402 1602 1601
f 1403 1603 1602
f 1404 1604 1603
f 1405 1605 1604
f 1406 1606 1605
f 1407 1607 1606
f 1408 1608 1607
f 1409 1609 1608
f 1410 1610 1609
f 1411 1611 1610
f 1412 1612 1611
f 1413 1613 1612
f 1414 1614 1613
f 1415 1615 1614
f 1416 1616 1615
f 1417 1617 1616
f 1418 1618 1617
f 1419 1619 1618
f 1420 1620 1619
f 1421 1621 1620
f 1422 1622 1621
f 1423 1623 1622
f 1424 1624 1623
f 1425 1625 1624
f 1426 1626 1625
f 1427 1627 1626
f 1428 1628 1627
f 1429 1629 1628
f 1430 1630 1629
f 1431 1631 1630
f 1432 1632 1631
f 1433 1633 1632
f 1434 1634 1633
f 1435 1635 1634
f 1436 1636 1635
f 1437 1637 1636
f 1438 1638 1637
f 1439 1639 1638
f 1440 1640 1639
f 1441 1641 1640
f 1442 1642 1641
f 1443 1643 1642
f 1444 1644 1643
f 1445 1645 1644
f 1446 1646 1645
f 1447 1647 1646
f 1448 1648 1647
f 1449 1649 1648
f 1450 1650 1649
f 1451 1651 1650
f 1452 1652 1651
f 1453 1653 1652
f 1454 1654 1653
f 1455 1655 1654
f 1456 1656 1655
f 1457 1657 1656
f 1458 1658 1657
f 1459 1659 1658
f 1460 1660 1659
f 1461 1661 1660
f 1462 1662 1661
f 1463 1663 1662
f 1464 1664 1663
f 1465 1665 1664
f 1466 1666 1665
f 1467 1667 1666
f 1468 1668 1667
f 1469 1669 1668
f 1470 1670 1669
f 1471 1671 1670
f 1472 1672 1671
f 1473 1673 1672
f 1474 1674 1673
f 1475 1675 1674
f 1476 1676 1675
f 1477 1677 1676
f 1478 1678 1677
f 1479 1679 1678
f 1480 1680 1679
f 1481 1681 1680
f 1482 1682 1681
f 1483 1683 1682
f 1484 1684 1683
f 1485 1685 1684
f 1486 1686 1685
f 1487 1687 1686
f 1488 1688 1687
f 1489 1689 1688
f 1490 1690 1689
f 1491 1691 1690
f 1492 1692 1691
f 1493 1693 1692
f 1494 1694 1693
f 1495 1695 1694
f 1496 1696 1695
f 1497 1697 1696
f 1498 1698 1697
f 1499 1699 1698
f 1500 1700 1699
f 1501 1701 1700
f 1502 1702 1701
f 1503 1523 1702
f 1523 1524 564
f 1524 1525 565
f 1525 1526 566
f 1526 1527 567
f 1527 1528 568
f 1528 1529 569
f 1529 1530 570
f 1530 1531 571
f 1531 1532 572
f 1532 1533 573
f 1533 1534 574
f 1534 1535 575
f 1535 1536 576
f 1536 1537 577
f 1537 1538 578
f 1538 1539 579
f 1539 1540 580
f 1540 1541 581
f 1541 1542 582
f 1542 1543 583
f 1543 1544 584
f 1544 1545 585
f 1545 1546 586
f 1546 1547 587
f 1547 1548 588
f 1548 1549 589
f 1549 1550 590
f 1550 1551 591
f 1551 1552 592
f 1552 1553 593
f 1553 1554 594
f 1554 1555 595
f 1555 1556 596
f 1556 1557 597
f 1557 1558 598
f 1558 1559 599
f 1559 1560 600
f 1560 1561 601
f 1561 1562 602
f 1562 1563 603
f 1563 1564 604
f 1564 1565 605
f 1565 1566 606
f 1566 1567 607
f 1567 1568 608
f 1568 1569 609
f 1569 1570 610
f 1570 1571 611
f 1571 1572 612
f 1572 1573 613
f 1573 1574 614
f 1574 1575 615
f 1575 1576 616
f 1576 1577 617
f 1577 1578 618
f 1578 1579 619
f 1579 1580 620
f 1580 1581 621
f 1581 1582 622
f 1582 1583 623
f 1583 1584 624
f 1584 1585 625
f 1585 1586 626
f 1586 1587 627
f 1587 1588 628
f 1588 1589 629
f 1589 1590 630
f 1590 1591 631
f 1591 1592 632
f 1592 1593 633
f 1593 1594 634
f 1594 1595 635
f 1595 1596 636
f 1596 1597 637
f 1597 1598 638
f 1598 1599 639
f 1599 1600 640
f 1600 1601 641
f 1601 1602 642
f 1602 1603 643
f 1603 1604 644
f 1604 1605 645
f 1605 1606 646
f 1606 1607 647
f 1607 1608 648
f 1608 1609 649
f 1609 1610 650
f 1610 1611 651
f 1611 1612 652
f 1612 1613 653
f 1613 1614 654
f 1614 1615 655
f 1615 1616 656
f 1616 1617 657
f 1617 1618 658
f 1618 1619 659
f 1619 1620 660
f 1620 1621 661
f 1621 1622 662
f 1622 1623 663
f 1623 1624 664
f 1624 1625 665
f 1625 1626 666
f 1626 1627 667
f 1627 1628 668
f 1628 1629 669
f 1629 1630 670
f 1630 1631 671
f 1631 1632 672
f 1632 1633 673
f 1633 1634 674
f 1634 1635 675
f 1635 1636 676
f 1636 1637 677
f 1637 1638 678
f 1638 1639 679
f 1639 1640 680
f 1640 1641 681
f 1641 1642 682
f 1642 1643 683
f 1643 1644 684
f 1644 1645 685
f 1645 1646 686
f 1646 1647 687
f 1647 1648 688
f 1648 1649 689
f 1649 1650 690
f 1650 1651 691
f 1651 1652 692
f 1652 1653 693
f 1653 1654 694
f 1654 1655 695
f 1655 1656 696
f 1656 1657 697
f 1657 1658 698
f 1658 1659 699
f 1659 1660 700
f 1660 1661 701
f 1661 1662 702
f 1662 1663 703
f 1663 1664 704
f 1664 1665 705
f 1665 1666 706
f 1666 1667 707
f 1667 1668 708
f 1668 1669 709
f 1669 1670 710
f 1670 1671 711
f 1671 1672 712
f 1672 1673 713
f 1673 1674 714
f 1674 1675 715
f 1675 1676 716
f 1676 1677 717
f 1677 1678 718
f 1678 1679 719
f 1679 1680 720
f 1680 1681 721
f 1681 1682 722
f 1682 1683 723
f 1683 1684 724
f 1684 1685 725
f 1685 1686 726
f 1686 1687 727
f 1687 1688 728
f 1688 1689 729
f 1689 1690 730
f 1690 1691 731
f 1691 1692 732
f 1692 1693 733
f 1693 1694 734
f 1694 1695 735
f 1695 1696 736
f 1696 1697 737
f 1697 1698 738
f 1698 1699 739
f 1699 1700 740
f 1700 1701 741
f 1701 1702 742
f 1702 1523 563
f 1523 564 563
f 1524 565 564
f 1525 566 565
f 1526 567 566
f 1527 568 567
f 1528 569 568
f 1529 570 569
f 1530 571 570
f 1531 572 571
f 1532 573 572
f 1533 574 573
f 1534 575 574
f 1535 576 575
f 1536 577 576
f 1537 578 577
f 1538 579 578
f 1539 580 579
f 1540 581 580
f 1541 582 581
f 1542 583 582
f 1543 584 583
f 1544 585 584
f 1545 586 585
f 1546 587 586
f 1547 588 587
f 1548 589 588
f 1549 590 589
f 1550 591 590
f 1551 592 591
f 1552 593 592
f 1553 594 593
f 1554 595 594
f 1555 596 595
f 1556 597 596
f 1557 598 597
f 1558 599 598
f 1559 600 599
f 1560 601 600
f 1561 602 601
f 1562 603 602
f 1563 604 603
f 1564 605 604
f 1565 606 605
f 1566 607 606
f 1567 608 607
f 1568 609 608
f 1569 610 609
f 1570 611 610
f 1571 612 611
f 1572 613 612
f 1573 614 613
f 1574 615 614
f 1575 616 615
f 1576 617 616
f 1577 618 617
f 1578 619 618
f 1579 620 619
f 1580 621 620
f 1581 622 621
f 1582 623 622
f 1583 624 623
f 1584 625 624
f 1585 626 625
f 1586 627 626
f 1587 628 627
f 1588 629 628
f 1589 630 629
f 1590 631 630
f 1591 632 631
f 1592 633 632
f 1593 634 633
f 1594 635 634
f 1595 636 635
f 1596 637 636
f 1597 638 637
f 1598 639 638
f 1599 640 639
f 1600 641 640
f 1601 642 641
f 1602 643 642
f 1603 644 643
f 1604 645 644
f 1605 646 645
f 1606 647 646
f 1607 648 647
f 1608 649 648
f 1609 650 649
f 1610 651 650
f 1611 652 651
f 1612 653 652
f 1613 654 653
f 1614 655 654
f 1615 656 655
f 1616 657 656
f 1617 658 657
f 1618 659 658
f 1619 660 659
f 1620 661 660
f 1621 662 661
f 1622 663 662
f 1623 664 663
f 1624 665 664
f 1625 666 665
f 1626 667 666
f 1627 668 667
f 1628 669 668
f 1629 670 669
f 1630 671 670
f 1631 672 671
f 1632 673 672
f 1633 674 673
f 1634 675 674
f 1635 676 675
f 1636 677 676
f 1637 678 677
f 1638 679 678
f 1639 680 679
f 1640 681 680
f 1641 682 681
f 1642 683 682
f 1643 684 683
f 1644 685 684
f 1645 686 685
f 1646 687 686
f 1647 688 687
f 1648 689 688
f 1649 690 689
f 1650 691 690
f 1651 692 691
f 1652 693 692
f 1653 694 693
f 1654 695 694
f 1655 696 695
f 1656 697 696
f 1657 698 697
f 1658 699 698
f 1659 700 699
f 1660 701 700
f 1661 702 701
f 1662 703 702
f 1663 704 703
f 1664 705 704
f 1665 706 705
f 1666 707 706
f 1667 708 707
f 1668 709 708
f 1669 710 709
f 1670 711 710
f 1671 712 711
f 1672 713 712
f 1673 714 713
f 1674 715 714
f 1675 716 715
f 1676 717 716
f 1677 718 717
f 1678 719 718
f 1679 720 719
f 1680 721 720
f 1681 722 721
f 1682 723 722
f 1683 724 723
f 1684 725 724
f 1685 726 725
f 1686 727 726
f 1687 728 727
f 1688 729 728
f 1689 730 729
f 1690 731 730
f 1691 732 731
f 1692 733 732
f 1693 734 733
f 1694 735 734
f 1695 736 735
f 1696 737 736
f 1697 738 737
f 1698 739 738
f 1699 740 739
f 1700 741 740
f 1701 742 741
f 1702 563 742
f 181 182 1306
f 182 183 1307
f 183 184 1308
f 184 185 1309
f 185 186 1310
f 186 187 1311
f 187 188 1312
f 188 189 1313
f 189 190 1314
f 190 191 1315
f 191 192 1316
f 192 193 1317
f 193 194 1318
f 194 195 1319
f 195 196 1320
f 196 197 1321
f 197 198 1322
f 198 199 1323
f 199 181 1305
f 181 1306 1305
f 182 1307 1306
f 183 1308 1307
f 184 1309 1308
f 185 1310 1309
f 186 1311 1310
f 187 1312 1311
f 188 1313 1312
f 189 1314 1313
f 190 1315 1314
f 191 1316 1315
f 192 1317 1316
f 193 1318 1317
f 194 1319 1318
f 195 1320 1319
f 196 1321 1320
f 197 1322 1321
f 198 1323 1322
f 199 1305 1323
f 1305 1306 1505
f 1306 1307 1506
f 1307 1308 1507
f 1308 1309 1508
f 1309 1310 1509
f 1310 1311 1510
f 1311 1312 1511
f 1312 1313 1512
f 1313 1314 1513
f 1314 1315 1514
f 1315 1316 1515
f 1316 1317 1516
f 1317 1318 1517
f 1318 1319 1518
f 1319 1320 1519
f 1320 1321 1520
f 1321 1322 1521
f 1322 1323 1522
f 1323 1305 1504
f 1305 1505 1504
f 1306 1506 1505
f 1307 1507 1506
f 1308 1508 1507
f 1309 1509 1508
f 1310 1510 1509
f 1311 1511 1510
f 1312 1512 1511
f 1313 1513 1512
f 1314 1514 1513
f 1315 1515 1514
f 1316 1516 1515
f 1317 1517 1516
f 1318 1518 1517
f 1319 1519 1518
f 1320 1520 1519
f 1321 1521 1520
f 1322 1522 1521
f 1323 1504 1522
f 1504 1505 1704
f 1505 1506 1705
f 1506 1507 1706
f 1507 1508 1707
f 1508 1509 1708
f 1509 1510 1709
f 1510 1511 1710
f 1511 1512 1711
f 1512 1513 1712
f 1513 1514 1713
f 1514 1515 1714
f 1515 1516 1715
f 1516 1517 1716
f 1517 1518 1717
f 1518 1519 1718
f 1519 1520 1719
f 1520 1521 1720
f 1521 1522 1721
f 1522 1504 1703
f 1504 1704 1703
f 1505 1705 1704
f 1506 1706 1705
f 1507 1707 1706
f 1508 1708 1707
f 1509 1709 1708
f 1510 1710 1709
f 1511 1711 1710
f 1512 1712 1711
f 1513 1713 1712
f 1514 1714 1713
f 1515 1715 1714
f 1516 1716 1715
f 1517 1717 1716
f 1518 1718 1717
f 1519 1719 1718
f 1520 1720 1719
f 1521 1721 1720
f 1522 1703 1721
f 1703 1704 744
f 1704 1705 745
f 1705 1706 746
f 1706 1707 747
f 1707 1708 748
f 1708 1709 749
f 1709 1710 750
f 1710 1711 751
f 1711 1712 752
f 1712 1713 753
f 1713 1714 754
f 1714 1715 755
f 1715 1716 756
f 1716 1717 757
f 1717 1718 758
f 1718 1719 759
f 1719 1720 760
f 1720 1721 761
f 1721 1703 743
f 1703 744 743
f 1704 745 744
f 1705 746 745
f 1706 747 746
f 1707 748 747
f 1708 749 748
f 1709 750 749
f 1710 751 750
f 1711 752 751
f 1712 753 752
f 1713 754 753
f 1714 755 754
f 1715 756 755
f 1716 757 756
f 1717 758 757
f 1718 759 758
f 1719 760 759
f 1720 761 760
f 1721 743 761
