OFF
1002 2000 0
-51.1979 67.30166 -58.04173
-58.14921 66.56348 -53.14273
-26.92864 -8.488209 18.94493
-57.18209 64.2605 -48.39207
-20.18052 -27.95225 9.665747
-56.83562 59.58802 -55.41881
-37.48513 5.996628 15.65728
20.07817 59.54124 30.64958
2.971837 16.32767 29.63197
-56.32538 69.30696 -54.74828
17.56963 -2.221742 23.3962
-51.93862 72.83307 -52.04796
17.06212 42.71565 28.09991
-57.68783 70.30899 -47.2356
-60.07164 60.97406 -53.37278
-57.90911 58.04748 -53.85947
33.29635 -19.75139 9.68973
-49.96175 76.4639 -54.48037
-54.66098 74.35783 -53.0851
14.12545 -9.290017 8.760872
-55.01479 69.27304 -50.22796
-55.7314 76.16369 -50.88022
22.69005 52.21062 26.55395
-53.26621 75.23881 -46.10417
-55.37607 70.13617 -47.81304
0.1854843 61.73172 -49.13097
-25.13984 -38.24263 20.53743
35.07999 -6.184959 10.46476
-60.28049 68.46504 -47.72174
-61.91143 62.81702 -46.88081
-56.55744 59.83301 -46.58198
25.04207 13.99055 18.39808
-55.36074 65.64634 -47.59166
-48.28222 83.90848 -45.79668
-0.8001882 48.58287 35.42902
3.001139 60.89709 -46.27689
-59.5264 71.39833 -45.84408
-52.4156 72.13646 -44.92292
-4.747454 57.45239 -44.11187
-24.06518 44.04379 22.68396
29.01061 -25.53361 4.619249
-20.71634 28.86144 13.22293
24.46469 49.69391 17.80307
-63.10682 63.57657 -39.56725
-61.5556 66.37266 -46.42332
18.61926 55.39016 30.97499
1.800709 58.11897 -47.31744
-54.78532 60.91789 -42.54275
-32.00467 48.18406 8.943374
-29.46841 51.6184 12.6692
-61.35796 58.75399 -45.3995
-11.98077 22.19748 29.4268
57.48134 77.2615 -43.14985
-57.03865 76.6403 -43.8584
-51.00372 77.71185 -41.73515
51.73939 81.89285 -44.24687
-52.92965 83.42159 -44.43429
-20.21201 26.2215 20.90216
6.500905 56.64349 -40.33018
-53.61447 65.26545 -40.96044
58.70191 73.99727 -42.78853
59.92961 77.40181 -35.9028
0.5379735 55.22334 -41.52537
-50.72668 74.3859 -39.12021
-54.56458 76.96438 -43.15202
-56.36223 79.85152 -40.3063
-5.252644 89.14681 16.5945
17.38356 71.72974 29.15465
-24.38138 73.86119 8.26314
-52.06714 84.01267 -43.01939
-62.13653 60.1106 -37.70416
-23.62634 -10.48171 5.471038
18.58475 -52.59475 23.04274
-1.083779 62.52176 -44.34061
-61.77815 69.61279 -40.04241
17.66488 80.31018 14.45741
28.81427 -43.43953 19.25329
-51.03345 66.24347 -35.88524
60.81127 75.90501 -35.54522
18.15163 33.33408 10.88882
56.67634 82.86568 -40.22253
55.70324 77.17241 -37.06513
-59.14704 57.9571 -43.40173
48.44085 87.59201 -40.76456
-50.23862 -48.29135 10.1178
18.54626 -48.11285 10.1451
-6.903015 62.09423 -40.2298
60.73239 75.02771 -41.38214
7.107982 60.36585 -42.45313
12.78796 -32.57924 20.79984
3.014479 63.32929 -39.33512
-5.389905 -9.879334 58.09908
-23.61946 -27.2167 19.26413
-22.45213 40.92171 20.70479
32.82233 -46.63289 10.90732
-60.71722 74.46876 -39.85609
-16.83852 33.82411 27.451
-40.75662 -41.80761 12.80238
-58.03244 78.70681 -38.203
55.03855 81.29312 -34.53169
33.9835 4.17637 8.779791
49.18663 88.90583 -38.7999
-22.67401 -19.95949 16.66443
-26.36858 66.69085 24.23433
14.09035 -40.17498 23.92315
-5.445864 56.0445 -37.91629
-1.855277 64.11582 -39.18521
-40.6276 -28.83838 11.63107
61.20679 69.85722 -36.2999
-6.633972 8.585023 26.60046
-1.7881 54.45244 -35.63379
19.05311 47.7846 29.62284
62.68685 73.14217 -35.30726
-59.51865 74.75035 -33.46887
12.75055 -24.29134 10.46664
21.53395 -9.934118 20.20048
-51.07982 79.02017 -39.53596
2.688737 8.583428 30.75436
-56.63279 58.63694 -34.15182
-52.79467 60.03518 -35.22718
25.72848 -9.0136 19.65502
-55.41854 78.03298 -35.37633
-14.99559 39.92941 29.43816
-61.85247 66.91522 -34.33935
57.98731 69.69195 -36.48227
56.93528 74.45752 -37.25322
-16.56088 -3.251022 20.6242
-21.23824 20.04891 3.565635
-20.89824 23.82731 8.239439
-4.959851 17.00063 30.10544
54.08272 86.33046 -36.96078
11.75648 -0.8049762 20.58346
1.533743 54.31855 -34.7597
6.814681 3.219533 20.92087
25.7858 56.52803 18.02101
-33.8988 6.34288 21.11836
2.094739 66.33833 -36.56216
55.88038 68.62492 -32.60366
-7.755334 58.90355 -35.61824
-12.454 13.16779 27.40022
-8.91983 63.20783 -30.11777
-4.635125 64.99784 -32.9493
-9.995429 27.95757 31.502
-3.773235 68.41694 -34.5395
-6.564986 72.04335 -34.5524
16.93826 24.2323 20.67796
-5.913924 74.15019 35.86585
-12.92654 32.08723 29.28383
3.939497 46.33761 37.95207
35.32762 47.68624 10.43597
-24.26674 49.76147 25.8579
-18.04828 31.16587 23.57131
-40.31351 56.88432 7.621351
-4.251685 56.5232 -32.70387
-4.925108 2.609918 36.9548
-60.20608 60.44698 -31.97325
4.574672 66.81375 -33.08797
10.57591 56.74292 37.18281
48.76672 89.84886 -33.77213
-50.80418 55.75372 -34.35745
31.04328 64.69673 9.687381
-27.03673 43.91003 7.212311
-26.65945 67.98481 21.29736
3.431696 69.11972 -33.40683
26.61332 68.13626 8.770083
53.31618 76.34892 -32.13247
16.8769 82.33313 13.90275
-3.319386 -4.967173 36.69181
-21.32764 74.79878 24.2843
8.609249 58.73913 -33.38279
-60.30513 66.19613 -30.66632
-2.541644 72.46942 -30.62415
5.631863 71.32804 -32.92877
-52.52376 74.28956 -31.00952
62.99492 73.15333 -27.60575
-22.7595 74.21892 22.48119
14.17516 81.52597 4.713159
-49.23338 71.42706 -32.47256
-18.43885 82.3757 11.08185
52.03808 79.98735 -32.63126
17.97827 35.63765 19.72589
52.18858 82.86305 -34.86558
-40.28603 -29.28983 19.35376
-26.01788 61.23769 27.28264
-3.606153 51.29174 -30.75259
-59.31245 56.7781 -30.1127
7.703679 59.82505 -29.23744
8.663455 63.7159 -29.91179
16.87465 -44.93187 15.59649
17.44212 68.79423 31.30352
-8.096083 89.56451 6.150086
0.7210694 89.99602 6.649762
4.155926 56.17119 -33.41944
6.263438 56.06338 -28.40637
-19.72227 79.82363 14.81599
-45.55144 68.09765 -28.91562
8.255258 70.91427 -32.81018
9.861503 49.13304 36.01271
17.44417 80.54108 16.9162
-9.346859 71.10462 -28.73133
-17.95138 96.15277 -30.79074
-19.01321 81.7536 16.25176
33.58119 -51.36758 8.055811
-43.80897 70.1334 -30.5399
-56.54116 73.56651 -29.18214
-16.90342 26.57978 26.29644
-18.01008 93.99377 -30.83821
14.60291 -48.48203 31.50259
-50.16252 -47.52642 6.370032
31.98753 44.36367 6.12673
4.202419 52.3574 -30.05518
18.66869 38.56362 21.06888
51.74933 68.95644 -26.06696
32.85161 -21.05963 13.76127
-8.363705 74.04721 -28.37234
3.67901 74.91967 -30.07691
0.7335891 -4.903921 35.76878
-11.68234 86.543 -30.63077
-6.093018 -2.577186 41.22547
2.452449 86.00569 25.24126
-6.434459 55.52555 -30.29515
4.766617 72.89066 -29.43819
-13.45384 96.22006 -24.81015
-39.92833 -19.57427 19.40318
61.17603 78.86106 -30.98108
-28.59395 -41.21813 8.944451
-30.39647 -5.81835 19.85379
50.49322 90.44429 -31.03935
-22.93528 96.25857 -30.43305
-62.55252 62.28804 -27.17624
-9.731834 62.27719 -25.38848
63.51003 69.72239 -31.06389
32.15382 -18.28686 13.95262
-40.00738 -32.21245 8.330508
57.53267 83.81063 -29.88352
-8.993269 87.69772 -29.30919
-12.69352 94.72988 -27.66841
16.73072 93.12526 -29.34459
-49.17311 57.08796 -29.90996
21.87581 -31.24467 8.52724
-60.85765 68.99256 -27.12434
-5.870768 75.63666 -30.22443
11.30998 83.27889 -29.09219
21.64 74.9671 10.13531
-27.92147 16.71309 19.11055
-46.19481 59.88402 -28.89709
8.686528 62.78792 -27.82628
52.76744 65.38849 -27.64954
8.673952 65.71713 -28.46181
10.36188 77.45988 -25.93389
-45.10238 -44.77084 8.262936
-55.36293 52.51121 -26.24057
-47.47936 52.57355 -28.30351
-27.6501 -51.52067 11.44124
5.83648 68.47871 36.87902
48.86108 59.94313 -26.75491
17.48944 -53.14603 13.09852
-53.07985 74.55188 -24.79663
23.78026 69.25528 22.11635
-1.003972 77.48268 -27.31424
7.525744 86.99168 -24.55906
57.7849 81.3984 -22.8495
48.78759 83.72899 -26.64653
52.73579 59.01851 -26.71262
57.91795 64.94567 -27.03685
-40.40699 66.65601 -23.78778
19.51237 -39.32134 13.98714
-3.136001 79.92416 -25.93791
4.43571 79.9219 -24.61995
-21.11039 91.91153 -26.25427
22.29054 97.21937 -26.0979
19.14737 52.49806 30.80752
23.11127 55.92382 26.73489
-26.05965 -45.12934 12.40853
54.80596 85.04478 -26.90756
-24.49383 -15.75185 9.930315
19.082 69.65896 29.63264
-0.5070669 52.4065 -26.6417
-0.01836338 5.755931 7.35769
-41.93024 63.36098 -22.42337
-11.99686 76.62931 -23.63407
-9.876164 79.70827 -25.83991
49.38607 76.50706 -24.18501
16.68638 -41.98352 17.77435
50.26193 63.35333 -25.62723
15.08263 -19.79183 19.47939
5.20587 77.87855 -25.51781
-18.34331 95.64494 -24.14617
4.534968 56.93406 -24.96945
17.18942 27.62897 10.38734
9.613315 73.56317 -24.66229
18.84709 -53.28054 32.22161
-7.114654 80.69108 -25.31011
24.03662 41.85929 10.00631
19.08892 -44.10001 29.6805
-4.122134 -6.305736 42.14312
0.8671108 -1.764608 31.33093
-36.24441 0.03740989 18.4283
6.589719 81.61309 -22.84477
9.652878 80.25186 -22.09329
-4.777114 84.59405 -21.18367
15.9341 91.84557 -25.82271
11.53997 92.443 -23.21972
21.15247 70.41659 25.12566
61.04643 66.27462 -23.53704
11.81027 64.62337 -24.75767
-3.816184 -7.065976 49.96932
-14.32796 71.84021 -21.82585
-47.38925 73.71803 -27.44975
15.92729 78.73076 25.81002
-39.46723 -35.48009 19.62102
-11.41568 85.97122 -23.8204
-8.363973 90.21671 -21.3324
-6.489726 58.59393 -22.17116
8.276554 88.73402 11.03533
12.56474 70.07166 -22.35146
4.979563 20.9223 31.16662
-9.589007 81.03829 -22.82638
25.91535 -45.09363 26.23957
-60.0091 56.43572 -24.27898
-18.17755 35.66653 22.33323
33.16091 -29.61561 18.56067
-49.14051 72.83684 -19.77056
60.24174 77.15386 -23.92516
-43.49988 56.11271 -22.58582
17.3572 -38.30352 29.34887
31.87512 -30.1997 12.35309
-45.1968 50.888 -23.40727
10.22784 37.44023 29.5728
-29.04053 -53.607 12.23561
-43.71416 71.49812 -23.20807
59.21006 72.1806 -19.65285
48.8267 82.85874 -23.51185
-47.64393 -53.06708 8.304006
24.65048 -53.20226 5.936025
-22.26009 -51.97525 19.3817
-40.87978 54.03569 -22.41442
56.55998 57.20218 -22.59423
-2.837125 -10.89173 55.83907
-10.32715 -0.07405953 15.97801
13.95213 -53.19985 20.7969
-62.86503 57.87561 -21.3372
46.94576 57.71728 -21.31154
-16.17298 82.39156 -21.64751
20.31688 88.86648 -21.45336
18.65914 62.61568 30.83933
23.07497 -37.5093 12.85979
-17.42659 71.8358 31.17399
52.78729 84.94167 -21.92686
-25.04353 -51.64665 26.30248
-16.63615 73.36346 29.03425
-1.033198 1.839436 27.41606
7.945964 63.09181 -22.00924
-38.11446 61.95537 -21.22746
-32.05967 62.06687 9.718483
-36.86902 -36.13285 6.964353
16.44745 81.22829 -19.87215
-9.843746 69.2895 35.91285
3.23555 4.487978 29.5332
15.64413 91.44096 -19.2828
0.1647349 -5.022105 50.50262
-8.906632 78.74951 32.52188
24.43134 -4.288098 22.02766
-9.525498 61.44232 -17.0171
-63.24416 66.47761 -20.80821
-12.09484 64.34175 -27.30987
27.04513 -33.87934 9.34716
31.42333 -28.29941 23.36951
0.3699589 82.56417 30.24839
19.31674 -34.40694 9.810081
16.66854 -28.18384 7.472134
-16.05708 95.1174 -22.41306
-53.38958 51.01691 -16.82025
-40.33649 53.19615 -19.16688
31.24264 -28.10182 8.286642
0.4118402 59.11563 38.79645
-6.170876 6.924084 20.45931
-48.59523 49.411 -20.29614
-60.24489 56.57846 -15.15788
26.45075 -40.32643 27.08229
12.28213 64.18797 -22.31764
44.08321 67.48545 -17.0213
-58.61008 72.55924 -21.26126
11.62206 75.79504 -21.41048
54.55215 80.27882 -18.17017
22.78407 -41.55611 13.68513
-0.1425157 9.678181 31.93124
-43.06546 -16.21283 6.343437
43.48461 54.23393 -20.94156
16.63895 -11.77972 16.86047
7.13037 83.6504 -15.29935
10.99648 79.16888 -15.23315
-47.24236 49.76709 -16.07933
22.90733 42.45988 18.68782
24.01605 52.37614 23.28299
-6.627147 21.41241 31.34922
25.35519 58.24439 21.10914
-15.78705 70.87185 -17.48999
-0.2944138 83.3652 -22.3321
56.88005 55.34695 -17.44327
-56.98008 54.1081 -17.18962
-26.83559 -14.25823 15.2121
-23.1345 -12.0531 10.74298
43.15648 72.64677 -17.95486
47.53675 75.15877 -20.12133
53.03466 76.61988 -16.88349
-18.26341 -8.876018 10.96841
49.78609 52.42021 -21.01139
0.7146868 54.16203 -19.40796
5.438521 58.01814 -18.10482
-38.71225 63.85159 -15.18773
23.61001 -53.46336 27.06775
18.53542 -21.49958 24.79523
-11.49933 2.58003 7.774425
-36.21659 9.943477 6.751146
-4.13712 55.77671 -18.7329
-13.47599 34.60154 30.94081
-58.47598 63.52108 -11.52404
9.272597 63.49586 -15.9165
27.46214 15.78609 11.85318
22.54642 18.28419 12.27314
-37.63577 57.93288 -16.25404
-22.56152 23.88635 16.06096
-40.536 68.64375 -18.59067
42.53678 50.17141 -15.6017
-41.85147 51.92853 -16.39628
-11.92415 46.80264 35.95391
-11.41341 66.57455 -16.93918
39.49127 67.20337 -13.6424
-18.60045 45.36128 31.1843
-15.38417 88.92713 -20.02339
-5.47537 85.78694 -14.44596
34.21919 55.26851 14.02536
10.22222 67.36099 -16.02344
-26.45962 73.71875 12.33243
-6.42502 -11.44977 55.83685
52.00664 50.2928 -12.93779
38.81338 56.02412 -16.02198
63.12509 64.20303 -15.7185
-21.60977 5.860023 26.0498
-15.84636 64.00507 -12.61482
-58.57158 68.9904 -16.51526
2.305939 84.55668 -16.46446
-2.012184 67.5119 38.34101
-38.10166 49.75001 -14.08655
-26.93993 -1.111057 23.39132
-15.23711 66.70225 -17.82329
35.83318 -47.34835 12.4655
-35.66936 58.74723 9.8917
12.92332 4.751347 23.94286
-4.556302 45.81896 -14.84997
-14.57999 53.19024 -14.04632
29.38824 -43.9874 14.54712
-5.537925 54.95467 -14.8422
41.32949 61.26138 -14.18541
-20.91694 63.32557 -14.39693
-56.32874 67.51351 -12.02458
-54.13009 70.68685 -17.22465
57.95159 73.89153 -15.20266
-40.2292 -38.77591 14.11875
3.676142 38.3065 -13.09218
-14.1408 36.79815 28.54817
46.58642 50.355 -17.73004
-41.54035 -30.87359 15.49129
1.211368 48.84063 -12.22563
-11.35416 59.67553 -13.80973
7.312464 13.81466 26.94853
13.9549 68.79622 -16.16436
-18.5883 69.65312 -11.95771
46.15364 75.41563 -16.12276
49.73783 74.51385 -10.56997
0.8692012 44.43927 -13.0537
7.527607 48.67379 -14.44957
9.10378 45.03871 -14.91038
-16.6519 48.39052 -15.02896
35.13638 -53.76292 13.99305
1.759362 53.30179 -14.46638
7.620904 57.99326 -13.75117
0.6601779 24.68096 31.46058
37.94097 62.66588 -13.28081
10.78581 -4.513884 13.47759
30.62113 -6.145212 17.25035
-13.60048 -4.494839 13.78812
-24.10471 41.92479 23.52271
-9.059679 38.33061 -13.96384
13.83678 82.4623 20.3152
-39.51484 3.443637 10.00993
38.53933 54.3679 -10.69015
-14.86685 74.46352 -15.61348
-23.1437 -47.41947 21.94678
-0.4509386 47.1803 -11.70515
10.2359 8.929059 26.43522
21.14325 39.07733 12.97921
-25.82412 -44.08254 21.24028
-25.25639 41.36596 6.960576
8.815059 27.35347 31.53284
-29.71746 62.97046 12.67126
-13.60448 77.55222 -11.33255
-10.64973 80.69859 -16.1673
-28.62383 -35.20435 23.05534
41.43688 51.12773 -13.31757
13.13895 56.86046 -11.20627
0.3692758 29.52111 31.50218
-26.96849 -26.12449 21.67029
-52.15906 55.69553 -10.32398
-16.96386 56.66423 -12.60202
-31.01176 -52.57963 20.57055
42.66834 70.68254 -11.97651
-4.381024 48.67272 38.27489
-34.74637 -18.04858 21.58088
27.7845 -15.81915 18.86442
56.12815 53.88972 -10.51032
-33.36837 62.27412 -12.04742
63.37561 62.18945 -10.62507
17.96042 64.97547 -12.49564
-16.20089 2.99461 24.50102
58.00255 72.10189 -9.200725
12.34525 76.70877 -11.08611
-2.282857 38.40121 -10.08432
-20.32819 47.72426 -13.22855
33.64994 -23.66775 9.847826
-49.10854 51.41657 -12.5412
-7.520945 52.62601 -11.53128
-31.44382 13.31175 21.14003
-22.72167 67.76383 -9.397909
-52.17677 67.78307 -11.47791
-19.72783 61.75273 33.61847
16.66586 -18.19644 10.47852
20.61214 13.01861 21.6509
-42.04262 -19.17681 12.70507
18.87791 51.21806 -11.05816
-20.42021 55.86974 -11.28673
11.77794 57.77295 -12.69634
-41.57494 -26.60404 6.535617
13.95017 16.26411 25.98605
14.30675 73.18055 -13.03535
1.819341 85.50888 -9.058924
-20.70106 32.88812 18.61303
-16.43192 -4.480096 9.59975
19.92494 66.98492 -9.739571
-46.53165 69.67196 -13.35387
20.81289 76.60217 19.5915
-4.919469 5.615735 9.204435
-6.295347 0.7988217 32.73064
48.52854 49.20422 -11.53547
-17.00228 75.95475 27.79054
20.0514 58.81873 -9.388907
-3.056395 10.47892 31.63802
-18.31423 35.91726 -4.512117
-24.16244 49.83691 -8.78342
-32.53914 48.7357 -10.62661
-10.54086 83.49711 26.19521
-52.27652 60.79385 -9.584424
-41.84143 65.84239 -11.71499
22.87995 10.14207 24.16205
30.84735 -37.93805 22.03459
-0.796823 27.37509 32.76917
-26.87226 45.33318 17.25655
0.5295398 27.24843 32.82995
-34.26822 -39.19057 22.32339
15.98515 42.47316 -11.31293
-27.09632 55.534 -9.510746
13.19267 65.03117 -9.680302
4.672343 74.74763 35.98485
7.726149 81.98383 -11.79509
0.5359521 38.05535 -10.36142
-10.35031 34.51681 -10.56982
-22.70004 41.01751 -3.72502
4.663984 36.58456 31.79719
-29.04162 54.78395 17.38979
-33.08317 54.27263 -13.2772
-28.99996 -17.42831 20.20318
-3.695126 37.8088 33.38852
14.98023 -27.50818 24.91523
-12.9032 56.17174 37.71404
15.8521 57.19511 -9.698509
21.63339 59.68983 -9.942205
-22.58077 57.07521 -11.83968
38.81696 61.94901 -8.530529
-23.07932 -40.19561 16.50593
-8.515415 38.15192 31.9232
1.897273 29.43611 -9.479751
26.18084 -19.18215 24.62212
20.37078 -16.11447 20.29745
-18.9898 41.15362 30.37153
-16.89749 39.69112 -11.60839
-30.13646 59.83741 19.65069
2.127045 51.18748 38.44368
-42.94009 47.83238 -10.20217
44.24461 68.64883 -6.731843
34.81992 62.05285 10.58196
-6.497964 85.65879 -9.063251
-43.8353 -53.63449 -10.28901
-9.911951 7.118075 23.2531
-47.2037 50.59207 -7.905734
24.68702 6.026786 24.37199
58.30484 57.02879 -5.816073
-5.700662 -2.679811 54.06459
-37.20006 -8.738373 13.79577
-45.2763 65.50591 -7.709133
-38.76532 66.27017 -5.708246
52.55768 69.86033 -6.775097
23.83423 70.32719 17.70122
28.94971 10.61294 19.45248
-21.35459 78.19118 9.846288
27.01984 -24.59998 27.10578
-36.30047 46.47259 -6.624844
27.20054 53.22797 -6.287542
18.31358 22.94122 20.39821
-36.78638 65.54714 -9.893925
-33.21759 15.0325 13.44583
11.51357 77.98707 -6.795752
4.169519 84.58985 -8.112263
-1.581366 90.77627 10.29054
10.18132 75.58355 32.58253
-29.85752 61.76457 16.10086
-8.872985 33.42964 -6.549316
33.71398 -54.0826 10.78255
40.11199 -53.53387 5.437734
20.69788 56.6072 -7.839774
-27.18769 62.23605 -7.892958
-27.22164 55.03405 23.75852
6.889739 78.16887 32.99812
-14.31705 77.76729 -7.318242
0.7834714 90.26306 -6.654854
-6.70946 27.60119 -6.707985
-7.868939 29.43462 -7.796846
28.73467 56.16144 15.89523
-27.15946 48.86461 -6.950549
21.84613 47.37511 -5.503175
51.59171 52.03427 -6.820275
26.13293 66.20598 15.71433
39.66905 -50.04023 6.269561
35.44438 59.23934 -8.318096
-25.68949 56.80291 25.78567
56.7435 65.78914 -2.724665
2.143817 2.611274 37.12413
4.869292 88.03383 17.64918
-10.15832 81.52715 -8.377615
-23.54417 -53.46073 23.89875
-4.011772 89.99082 -7.21866
8.731607 32.44403 -5.681791
-15.75873 84.64161 15.27907
12.87054 -51.00876 21.64886
-34.68227 -41.93766 8.024462
-6.645314 -4.726581 50.65748
-42.51612 48.9492 -2.318933
0.6670854 89.62706 14.8265
29.76411 -47.62321 20.99222
-39.40605 -52.64501 11.3575
26.91819 -44.59938 8.582347
-17.97294 78.46002 -5.464294
-29.17799 -42.9711 22.98194
27.38284 -33.11164 27.79204
-52.01999 -53.83324 -6.527298
9.784926 33.2345 31.46281
23.81426 64.0574 24.65086
2.253804 23.2703 -6.178825
6.934278 28.31812 -5.446834
-0.2036321 -5.865206 42.19452
-24.46035 44.81426 -2.823043
38.77251 47.61969 -9.054972
-34.86175 -32.26159 22.83882
-48.80839 58.31831 -4.656107
-29.12663 65.99219 -2.810366
6.50352 35.76895 33.61039
9.388627 85.82159 -6.547414
-5.102457 35.44916 34.25383
28.24641 -39.38275 15.40497
-42.38283 -53.13585 -9.968047
-22.00355 -35.14566 15.47305
14.31828 -34.88179 13.9912
23.0457 56.13513 -7.027226
-34.85741 -25.17321 23.30851
-26.26948 68.55468 -4.231706
-20.94271 -22.50907 12.1429
22.12529 -29.3979 28.53544
-24.51054 13.2551 24.34374
17.51718 39.52026 28.1874
9.942146 41.73455 33.64989
-10.09783 87.49851 -6.02395
-51.6721 -50.89266 -5.514913
-7.184688 23.27119 -5.239311
-1.698711 2.813224 39.82894
11.50642 34.26868 -9.423066
23.83131 73.4183 15.17906
16.9031 47.54112 31.51226
-21.41004 -1.572155 23.89699
-21.93955 -9.894223 16.33427
15.62805 79.15418 -4.945871
-39.31831 -2.863735 13.47275
-48.73756 -51.931 -5.385828
28.6019 -52.43966 -6.690179
-21.95687 -19.38922 6.813379
25.43752 0.7598412 23.50825
-31.30013 46.07396 -3.603333
-48.24925 61.88044 -2.016172
32.17246 2.89397 17.08784
-20.62075 72.0543 -4.791777
-1.866495 -2.984697 54.22099
0.2603598 14.77122 -4.317803
2.892229 18.85785 -5.083715
-5.094158 20.59243 -5.736942
20.04702 69.25418 -0.9600066
-27.24041 43.05312 13.9144
-14.49927 83.10158 -6.739546
5.116442 88.6053 -6.436941
-43.23433 -51.99327 -4.057405
28.24804 49.36674 14.32767
-2.708385 85.11654 26.53462
5.237116 21.46631 -2.810378
15.06351 73.10838 -4.957197
-41.07261 -49.04626 -6.527814
26.37868 47.21831 -4.025705
-12.04864 61.71239 37.76756
53.59341 58.74518 -1.970361
28.05096 60.58854 -4.997945
43.28723 64.19448 -2.712965
-22.69146 74.36018 -3.943125
-48.68932 -53.77769 12.08223
12.23837 -52.88383 26.67959
-9.914784 87.56081 -3.715932
-3.610069 88.95486 -3.706027
36.90827 -54.25819 -3.341021
-5.893272 13.22989 -2.715327
-26.46615 18.06065 9.850735
-6.378498 17.16753 -3.247182
8.858598 86.57266 20.66181
-47.18928 -48.26873 13.85418
18.33642 36.8198 -0.7294169
-21.80819 38.36878 -1.424434
42.66753 46.68812 0.01962944
-47.47396 49.9653 -4.194409
20.02261 22.807 9.498291
49.79411 55.66023 -3.285066
46.8879 65.7966 -2.976922
57.05912 69.19046 -4.493026
-23.53478 71.02887 -2.987533
14.42758 79.59608 -2.363874
-42.86513 -51.29667 0.2684167
-19.01106 18.71848 24.8242
4.331882 16.01291 -1.811425
-8.971147 28.15345 -3.562166
35.51886 -49.22289 15.46514
-19.95628 35.86834 -0.868488
11.52014 -25.83345 14.20149
48.43545 50.10803 -8.142109
-47.95398 -46.95448 -1.732761
2.128387 56.01451 39.61242
-26.91801 -3.638061 -2.014847
26.90391 -2.427782 -2.811938
23.16495 4.084653 -2.339402
-12.82041 32.32175 -3.642698
-35.74326 53.53202 10.18104
34.14829 44.39614 -1.288482
13.26067 -9.00101 13.99983
-49.20054 54.17531 -2.460371
49.48908 60.13894 -1.740067
24.12486 65.23865 -3.35702
-35.95346 -4.679162 17.10848
-14.73689 82.0322 -3.889132
7.503772 1.671368 16.20239
9.131091 19.15395 28.67347
30.16381 3.479524 0.9192403
-2.372505 7.506803 14.77623
-21.32134 57.59684 32.47837
-7.926774 22.08583 -2.398523
7.426417 26.76305 -1.774997
13.35895 28.03926 2.240582
-9.487358 29.03252 -4.896584
-17.34638 34.86218 -0.3265599
49.76132 63.65638 -1.57842
35.7895 62.04037 -4.004003
6.433266 87.49437 -3.06063
18.64357 79.05969 10.24128
-19.85706 35.15467 15.74233
-33.43869 -7.975063 -2.214757
26.81879 -11.60686 -1.268274
29.01583 -6.247077 -2.535442
32.90477 -4.117012 0.6106427
-7.509816 76.54844 33.82364
-27.69619 67.02577 0.7591641
-25.92765 73.11905 -2.18054
0.9135136 67.81158 37.88076
14.78519 79.69616 2.168405
40.88805 -53.53214 6.83411
-40.72637 -53.38708 1.101248
19.33749 29.57078 14.21708
21.88342 -49.84932 2.545045
-38.73843 -10.18358 -3.758717
12.53899 84.91114 16.03724
-36.77346 2.292585 -0.621142
-13.78148 17.08374 -0.111416
37.90035 45.4009 -4.951241
-44.3338 60.77642 0.1877037
-41.82336 65.03808 -2.485024
21.49395 72.05925 -1.138651
-6.463112 31.48535 31.99711
-36.17439 -16.75976 -0.7227222
-8.038558 85.00516 25.07839
-32.47873 2.458904 -2.44075
31.04009 -32.28017 14.86457
-22.51416 4.981293 -1.718111
-0.5546461 10.19576 -2.826367
7.992772 59.33197 38.25917
45.68915 53.62567 2.278575
-8.134058 44.05865 36.71676
14.34543 -43.98082 24.38698
-14.5956 57.74373 36.31219
-42.6946 -12.28019 0.416787
23.31713 -14.75146 0.2118105
-38.7799 -3.417642 -0.5361983
8.631662 11.23674 -0.4350786
13.85547 -6.624024 18.39711
-13.17005 21.82457 -1.088442
21.00487 42.12513 -4.90335
22.65286 -53.2934 3.164796
17.77887 57.58358 33.19617
34.82321 -50.07543 -1.841091
26.58184 -48.59176 -2.899803
4.333531 13.11755 28.07834
30.50185 -17.99606 -1.257917
11.36603 60.61726 37.37233
32.74109 -9.681644 1.131325
-18.28537 -1.068435 1.337019
-39.91873 -13.90642 14.08681
-2.708879 4.947013 0.6431633
18.28631 25.73556 14.1553
23.1748 11.29241 1.701588
-6.989367 9.828798 0.8924276
11.91427 17.52425 -0.5437605
10.86324 22.87375 0.9865481
22.61722 39.76074 21.58974
-13.62107 28.74697 -0.05328789
19.72626 38.60033 2.079859
18.64145 75.00123 0.5078653
-18.59033 78.27342 -1.107465
6.507359 75.2911 34.12779
-34.79955 -51.49945 -1.208156
36.17907 -50.27048 -0.8930526
28.17761 -51.77201 0.1040782
25.37039 62.7049 19.19371
-40.83378 -6.394086 7.683127
12.83177 20.20691 25.02804
14.15662 1.947803 -0.3458756
17.73442 11.47438 0.3783121
2.551976 9.454841 1.54978
15.87074 32.04678 24.69747
-17.70533 10.07741 0.2978928
3.050827 -1.431471 37.3109
16.40105 34.38446 2.720288
-0.7535721 89.50033 17.12917
46.41151 58.65303 -0.07387229
-29.03829 69.96493 3.296397
-23.27844 74.99239 -0.4547615
-50.15278 -52.76327 0.0857631
31.74971 10.276 12.60463
-40.57261 -45.41116 17.49874
-27.50557 -10.05069 0.6490831
-25.21668 21.47379 12.01803
-26.1997 10.15727 -0.4070063
29.27887 65.22511 3.045676
28.45567 -51.04015 2.613038
-41.45363 -49.89448 0.7815338
-31.33067 -20.36368 0.7155543
-37.44817 -23.82515 1.46186
34.33617 -17.28453 2.645702
-31.61906 -16.08133 -0.1621736
19.22925 -6.754651 -1.173226
-16.08643 43.64964 33.44679
-38.05164 -12.50844 13.76708
22.49743 41.97889 3.145485
-15.47444 19.80414 26.28802
-34.52973 66.15996 1.688291
32.86358 -21.31045 20.6878
-19.05824 54.41318 34.5767
-55.53335 -52.8652 2.048085
-36.51152 -46.39348 -0.1935255
-29.84258 -24.15518 1.402104
-25.67903 -21.22257 1.308991
23.23208 -20.67626 2.799768
41.17726 55.37294 7.221227
17.87761 3.794516 25.31473
-25.13708 15.08203 4.027934
-27.61209 46.26976 -0.3239546
-3.772537 5.018334 23.78372
10.07701 69.06657 35.60026
-29.48169 69.61399 8.631312
-15.62145 81.09974 1.232642
9.817004 84.92792 -2.913098
-27.78134 7.993779 25.2067
-13.54567 72.75247 33.39974
30.79054 -21.18312 3.66037
-53.26766 -52.55763 6.656573
11.78579 -1.70878 3.207426
7.949366 4.85639 3.058937
-32.46521 10.39798 2.737698
-0.8459859 78.00159 34.46425
16.40448 20.92605 2.904453
-17.57589 22.17364 3.655504
-19.83891 33.79326 5.949642
-28.52051 69.90896 14.27039
39.15188 46.70198 3.473955
-25.29882 74.32654 14.96805
14.55048 26.20125 26.56024
4.122151 89.16745 4.301189
-32.26611 -53.74653 4.378022
30.14236 -53.76977 3.833853
-53.39102 -48.74614 3.73649
-30.78504 -31.77209 3.421143
-1.817737 56.81305 39.72141
19.67649 -48.11344 4.77397
20.99435 42.33902 23.68103
33.90462 -53.52747 17.25147
19.39001 35.09654 3.02686
-44.48026 53.6922 1.293279
-25.10886 -43.59637 14.73935
39.87246 62.79541 2.592846
-5.838919 43.5783 35.12209
25.50023 68.55808 2.829466
11.41813 84.77795 3.903442
-56.18811 -51.90884 3.164163
4.673108 43.41369 34.2261
-40.26316 -19.59217 2.263826
-41.896 -12.28855 6.352134
18.29156 -12.22031 3.179491
8.608499 83.70722 25.51828
-2.521255 59.31753 38.90992
30.06538 9.591757 4.713718
8.450178 44.76737 34.87145
-23.25856 -36.97291 11.24823
16.53934 -16.57625 16.28033
23.10786 71.45681 3.019793
-25.65482 72.58891 1.927966
19.26297 75.37066 6.908543
8.815792 87.12235 4.869398
-10.62448 87.14522 3.302346
-32.84262 -46.35707 24.31166
16.71852 54.384 33.3692
-48.80013 -50.9869 4.461737
22.09977 -45.34634 5.008359
-32.63659 -13.39638 16.66604
23.12726 -24.29778 3.384293
-32.43303 -9.855479 16.55612
23.07541 -38.25575 30.8527
16.16489 24.4751 6.545035
-16.62439 30.57626 1.728118
45.55472 52.17901 5.508674
-31.70956 -49.75663 5.133237
1.042566 5.831191 19.08781
32.64479 -11.55595 9.071869
-14.76825 83.4853 20.36345
-25.86037 -15.39769 4.987879
-30.97009 1.826196 23.01793
4.722652 6.688318 23.45823
-17.78182 29.52831 6.973603
44.71978 60.79649 2.949756
-38.94023 64.1136 4.09915
-3.380865 89.98648 4.180747
35.42939 -53.32909 2.556072
26.01233 44.66007 6.821823
-19.45411 77.07268 3.37298
-43.77717 -53.51942 3.468512
33.81533 -49.13475 4.764008
27.22975 -49.14812 4.364491
-36.6 -30.86412 4.706981
-21.26279 43.7848 27.77639
-25.39485 -17.78282 3.457895
-0.1444568 63.56504 39.38315
6.667999 2.863455 8.55886
-23.30118 69.98754 24.40582
25.33479 13.61453 4.064387
-11.00476 87.9932 5.97241
25.47449 -29.46717 5.647506
-38.76353 5.277679 5.158899
-12.11081 6.641192 2.975663
-28.91516 65.0663 6.567486
-25.68751 -12.14103 14.83789
-25.00969 -30.76915 4.746022
-40.49682 -0.1033625 4.071905
35.40488 -3.971591 5.178553
-31.99799 15.177 9.718184
22.00985 16.84343 5.926587
-38.2918 48.90668 6.5247
-33.92323 -53.34991 23.81934
35.52229 64.13575 3.514857
19.94963 -53.54403 5.109069
31.07594 -45.99969 5.437029
-31.79028 -46.06008 5.973817
-38.30058 -44.65089 3.913413
-32.44389 -39.19458 7.262623
-42.77895 -21.44308 6.164015
3.033545 3.10026 9.392854
-19.88991 31.38389 7.591167
-35.34487 45.95596 2.905102
15.8076 8.031064 24.79301
39.70851 60.39049 6.373316
18.77525 -19.87418 5.960717
-11.20094 87.26609 16.11536
41.56543 50.45343 6.162181
-45.02215 -46.02982 3.36219
51.81942 85.99702 -31.45259
3 594 425 588
3 725 127 883
3 1001 227 274
3 158 227 1001
3 877 863 989
3 1000 855 939
3 208 250 1000
3 939 908 208
3 939 208 1000
3 863 707 739
3 911 85 940
3 977 401 402
3 34 148 508
3 94 987 650
3 328 922 568
3 370 671 114
3 333 719 893
3 613 191 190
3 935 905 314
3 538 406 402
3 887 853 976
3 482 688 406
3 985 590 996
3 825 924 387
3 182 662 673
3 79 834 871
3 128 899 127
3 68 434 604
3 932 934 243
3 979 486 974
3 979 842 486
3 340 256 72
3 817 157 45
3 952 858 71
3 892 821 866
3 950 16 892
3 934 784 774
3 965 233 533
3 914 850 729
3 969 761 992
3 673 509 223
3 208 921 84
3 887 68 853
3 816 334 986
3 176 920 166
3 258 541 303
3 853 68 933
3 932 164 919
3 957 354 976
3 321 367 555
3 914 834 79
3 434 68 887
3 558 478 655
3 986 334 256
3 297 953 135
3 419 971 982
3 763 928 100
3 826 278 542
3 100 980 763
3 27 950 980
3 357 891 347
3 935 314 790
3 892 520 40
3 14 3 5
3 972 190 936
3 909 990 355
3 989 644 988
3 580 584 122
3 294 291 411
3 806 584 580
3 959 202 907
3 2 688 687
3 797 142 478
3 190 191 958
3 907 617 334
3 201 168 951
3 662 310 559
3 590 432 881
3 370 114 997
3 967 867 952
3 961 68 604
3 898 945 733
3 152 915 983
3 493 26 652
3 827 420 733
3 945 768 289
3 883 896 981
3 896 414 981
3 992 278 895
3 557 39 150
3 164 243 685
3 84 921 893
3 178 642 972
3 704 483 39
3 613 190 66
3 558 502 556
3 233 459 107
3 370 942 973
3 27 100 697
3 429 875 765
3 959 963 202
3 352 433 418
3 202 94 632
3 785 618 632
3 533 107 529
3 786 649 962
3 962 333 855
3 157 938 45
3 496 448 753
3 492 79 871
3 933 68 961
3 933 961 854
3 622 837 614
3 985 996 917
3 326 801 366
3 881 999 947
3 755 389 813
3 865 533 923
3 126 687 688
3 333 939 855
3 650 452 94
3 955 993 946
3 843 608 145
3 975 413 824
3 296 167 543
3 422 128 859
3 293 492 871
3 671 369 266
3 823 950 866
3 866 950 892
3 879 693 4
3 991 923 533
3 121 173 116
3 841 656 396
3 258 656 841
3 902 999 149
3 528 554 31
3 571 673 503
3 873 976 781
3 956 917 996
3 881 947 956
3 178 972 936
3 275 71 402
3 85 188 385
3 768 945 831
3 314 637 790
3 16 950 232
3 982 971 828
3 969 895 894
3 824 413 538
3 779 980 823
3 710 701 657
3 335 489 639
3 971 419 928
3 848 860 883
3 861 164 160
3 189 345 276
3 909 355 965
3 250 84 728
3 964 940 650
3 989 988 877
3 821 892 810
3 856 697 100
3 907 334 862
3 958 191 905
3 993 955 128
3 534 528 608
3 986 256 85
3 422 244 740
3 919 164 861
3 794 915 152
3 374 973 40
3 884 161 48
3 770 946 993
3 727 926 485
3 209 902 149
3 41 128 422
3 213 326 520
3 580 572 918
3 826 846 278
3 665 558 655
3 665 568 558
3 603 595 697
3 922 679 148
3 931 527 114
3 496 753 49
3 958 721 936
3 985 160 590
3 250 989 1000
3 913 72 334
3 862 964 987
3 289 787 827
3 396 394 134
3 862 334 816
3 42 134 394
3 979 974 791
3 985 861 160
3 411 648 318
3 431 536 442
3 947 805 956
3 551 545 361
3 887 496 901
3 880 942 997
3 775 900 993
3 300 292 235
3 765 808 526
3 784 835 738
3 315 305 248
3 990 909 978
3 476 453 408
3 579 916 930
3 873 957 976
3 811 842 979
3 413 482 538
3 965 355 233
3 556 478 558
3 494 704 161
3 202 632 618
3 942 40 973
3 160 432 590
3 945 827 733
3 622 614 926
3 782 853 933
3 176 784 920
3 862 816 840
3 893 921 876
3 958 936 190
3 728 84 719
3 178 888 961
3 954 885 949
3 781 976 853
3 835 934 932
3 583 582 510
3 902 947 999
3 731 947 902
3 902 209 754
3 916 225 930
3 2 687 445
3 278 846 895
3 580 918 806
3 480 19 755
3 677 244 523
3 71 858 824
3 923 387 924
3 880 997 925
3 967 275 693
3 974 414 896
3 939 893 876
3 816 986 911
3 889 935 920
3 693 102 675
3 481 950 27
3 994 884 48
3 899 955 833
3 914 729 834
3 875 429 869
3 478 142 395
3 289 827 945
3 937 652 559
3 911 940 788
3 697 595 694
3 939 333 893
3 960 713 209
3 991 387 923
3 879 967 693
3 892 40 942
3 965 865 878
3 978 909 878
3 447 475 785
3 948 877 988
3 987 963 818
3 964 819 940
3 31 420 528
3 788 816 911
3 908 876 921
3 775 320 93
3 888 178 936
3 572 580 667
3 772 578 633
3 152 957 794
3 102 503 92
3 646 994 915
3 915 994 983
3 744 494 730
3 957 152 448
3 667 556 502
3 542 975 829
3 974 896 791
3 166 75 176
3 244 610 523
3 488 468 497
3 293 960 708
3 844 894 895
3 923 924 809
3 667 797 556
3 671 104 89
3 808 765 875
3 66 799 709
3 613 647 191
3 862 840 964
3 939 876 908
3 900 494 744
3 851 613 66
3 667 502 572
3 805 947 731
3 673 499 503
3 401 275 402
3 982 828 845
3 243 774 75
3 780 350 891
3 826 803 846
3 393 394 912
3 925 894 868
3 509 673 571
3 869 584 806
3 813 10 131
3 965 533 865
3 892 942 880
3 940 819 788
3 879 978 878
3 844 868 894
3 1000 989 863
3 346 266 369
3 963 839 818
3 838 948 906
3 722 721 958
3 888 936 721
3 761 131 449
3 572 502 568
3 956 717 917
3 797 416 147
3 980 100 27
3 900 744 770
3 831 945 898
3 189 276 67
3 898 982 830
3 847 180 211
3 896 800 791
3 810 880 925
3 480 761 969
3 482 413 339
3 880 810 892
3 818 862 987
3 840 819 964
3 120 362 115
3 963 959 839
3 889 920 784
3 685 631 164
3 434 903 194
3 852 956 805
3 730 494 161
3 946 770 752
3 955 946 833
3 223 509 825
3 406 688 402
3 792 127 899
3 848 127 792
3 883 860 896
3 537 151 96
3 975 848 829
3 842 598 690
3 895 845 844
3 848 975 824
3 809 924 842
3 810 925 868
3 557 150 621
3 952 867 858
3 486 690 6
3 913 617 475
3 738 889 784
3 219 851 66
3 838 877 948
3 321 326 213
3 370 997 942
3 692 840 816
3 739 786 962
3 475 617 785
3 961 888 836
3 703 919 758
3 740 244 677
3 957 873 795
3 985 772 861
3 753 48 49
3 980 779 763
3 731 902 754
3 983 753 152
3 696 756 915
3 815 871 834
3 639 984 506
3 831 767 768
3 216 167 296
3 971 928 828
3 219 637 851
3 845 895 812
3 229 170 155
3 361 350 780
3 135 890 523
3 643 807 188
3 891 350 347
3 426 806 508
3 999 881 149
3 879 878 864
3 358 636 849
3 692 816 788
3 188 85 256
3 447 743 475
3 838 906 786
3 164 631 160
3 760 888 721
3 610 725 981
3 932 796 835
3 781 664 873
3 673 662 499
3 162 103 970
3 590 881 996
3 884 994 695
3 713 960 871
3 161 660 730
3 775 93 494
3 899 814 792
3 845 830 982
3 883 127 848
3 848 792 829
3 642 190 972
3 673 223 182
3 120 481 362
3 895 846 812
3 662 559 499
3 860 800 896
3 366 801 668
3 778 779 823
3 987 202 963
3 780 891 146
3 811 809 842
3 613 851 647
3 874 367 321
3 867 864 798
3 865 923 798
3 867 879 864
3 863 747 1000
3 935 773 905
3 935 889 773
3 731 793 661
3 714 347 526
3 919 796 932
3 40 520 374
3 940 85 385
3 717 956 852
3 368 361 897
3 646 606 994
3 493 652 489
3 850 768 641
3 830 845 812
3 922 572 568
3 859 128 127
3 848 802 860
3 822 817 189
3 826 829 803
3 874 605 367
3 573 412 285
3 928 763 828
3 600 795 873
3 316 395 129
3 934 835 784
3 998 799 66
3 798 864 865
3 328 678 679
3 855 654 962
3 760 836 888
3 854 961 836
3 24 37 59
3 538 71 824
3 735 852 757
3 787 904 145
3 886 614 837
3 998 190 642
3 660 161 884
3 769 946 752
3 992 949 278
3 738 689 889
3 831 898 830
3 741 812 846
3 845 828 751
3 107 459 463
3 897 361 780
3 595 603 554
3 749 802 824
3 701 741 700
3 51 142 205
3 865 864 878
3 821 823 866
3 610 414 6
3 781 674 664
3 686 271 938
3 496 354 448
3 959 723 839
3 838 786 669
3 451 450 474
3 782 737 781
3 796 919 703
3 781 737 674
3 802 848 824
3 131 882 449
3 510 874 232
3 708 432 627
3 583 931 285
3 770 744 548
3 899 833 814
3 700 741 846
3 414 610 981
3 925 19 894
3 763 751 828
3 791 811 979
3 858 749 824
3 779 778 750
3 621 634 586
3 345 189 817
3 776 867 798
3 829 826 542
3 855 1000 747
3 34 918 572
3 905 722 958
3 8 316 129
3 822 189 886
3 854 782 933
3 852 735 717
3 402 688 977
3 794 696 915
3 756 732 915
3 829 724 803
3 847 904 787
3 318 555 379
3 527 925 997
3 398 298 268
3 798 923 809
3 66 709 219
3 769 833 946
3 419 982 420
3 803 700 846
3 687 126 515
3 800 860 802
3 845 751 844
3 318 76 555
3 749 858 776
3 810 868 777
3 445 226 2
3 819 692 788
3 959 907 723
3 718 854 836
3 198 485 541
3 758 919 861
3 757 771 735
3 635 771 715
3 830 812 741
3 771 757 715
3 451 522 450
3 145 904 843
3 285 412 583
3 297 226 445
3 641 768 658
3 907 862 723
3 767 831 830
3 710 830 741
3 726 724 792
3 724 829 792
3 897 837 622
3 459 233 355
3 777 778 823
3 563 837 897
3 718 836 651
3 806 426 869
3 197 686 938
3 789 809 811
3 823 821 777
3 798 789 776
3 777 821 810
3 567 585 730
3 747 681 855
3 692 819 840
3 669 786 707
3 527 389 19
3 882 131 10
3 973 239 370
3 559 652 499
3 796 738 835
3 366 239 973
3 696 794 795
3 135 953 890
3 624 640 722
3 190 998 66
3 852 805 734
3 41 537 993
3 731 754 793
3 12 832 912
3 660 567 730
3 850 641 729
3 766 792 814
3 792 766 726
3 573 745 89
3 538 482 406
3 271 45 938
3 749 800 802
3 763 750 751
3 278 764 542
3 751 750 844
3 542 764 339
3 811 776 789
3 211 293 832
3 10 362 694
3 684 641 460
3 296 849 216
3 995 554 528
3 747 739 691
3 818 839 723
3 723 862 818
3 654 739 962
3 147 142 797
3 796 689 738
3 873 664 600
3 922 34 572
3 957 795 794
3 716 861 772
3 894 19 969
3 578 717 589
3 805 746 734
3 732 646 915
3 628 884 695
3 629 713 871
3 42 293 708
3 658 768 767
3 729 815 834
3 653 555 367
3 814 833 742
3 766 814 742
3 742 833 769
3 929 148 679
3 42 394 393
3 800 776 791
3 800 749 776
3 750 778 868
3 547 109 154
3 995 528 534
3 844 750 868
3 949 764 278
3 630 715 734
3 16 213 520
3 134 841 396
3 905 773 722
3 967 879 867
3 676 412 573
3 635 736 771
3 362 10 115
3 643 340 720
3 917 772 985
3 715 596 635
3 585 567 519
3 715 757 734
3 243 75 685
3 799 951 551
3 727 637 219
3 752 770 548
3 67 886 189
3 684 729 641
3 886 67 614
3 767 830 710
3 598 924 870
3 984 639 349
3 532 546 575
3 863 877 712
3 195 265 279
3 707 863 712
3 733 982 898
3 485 198 790
3 691 739 654
3 349 639 489
3 624 722 773
3 889 706 773
3 854 718 782
3 796 703 711
3 718 698 737
3 736 601 771
3 416 667 580
3 859 244 422
3 852 734 757
3 69 56 65
3 707 786 739
3 994 606 695
3 452 743 447
3 97 728 857
3 701 710 741
3 194 178 604
3 737 524 674
3 731 746 805
3 889 666 706
3 889 689 666
3 651 760 705
3 836 760 651
3 679 686 197
3 99 130 234
3 601 735 771
3 650 940 385
3 283 671 266
3 489 652 349
3 790 166 920
3 861 716 758
3 663 756 696
3 594 732 756
3 475 743 913
3 679 197 929
3 439 687 515
3 766 702 726
3 724 726 700
3 160 627 432
3 724 700 803
3 706 624 773
3 208 908 921
3 461 580 122
3 643 720 807
3 838 712 877
3 703 758 539
3 869 426 574
3 715 630 596
3 922 328 679
3 815 629 871
3 682 766 742
3 682 702 766
3 679 12 686
3 911 986 85
3 855 681 654
3 931 583 389
3 328 847 211
3 722 640 721
3 974 486 414
3 890 677 523
3 775 993 537
3 545 951 168
3 795 599 696
3 716 772 633
3 625 682 742
3 598 870 941
3 700 726 701
3 712 838 669
3 346 385 266
3 539 711 703
3 674 620 664
3 717 578 917
3 782 781 853
3 716 672 758
3 630 734 746
3 434 194 604
3 211 678 328
3 511 630 436
3 550 628 695
3 273 335 253
3 625 742 769
3 616 769 752
3 636 386 683
3 822 157 817
3 72 720 340
3 747 691 681
3 808 714 526
3 611 689 711
3 796 711 689
3 623 698 718
3 850 914 79
3 627 160 631
3 736 635 513
3 589 717 735
3 149 432 708
3 962 649 333
3 758 672 576
3 772 917 578
3 903 434 901
3 644 273 988
3 798 809 789
3 926 727 219
3 149 881 432
3 713 793 754
3 930 978 4
3 657 702 682
3 736 513 516
3 592 669 707
3 640 680 721
3 705 760 680
3 901 434 887
3 651 623 718
3 649 719 333
3 664 609 600
3 208 84 250
3 485 926 309
3 696 599 663
3 513 635 596
3 633 487 607
3 716 607 672
3 633 607 716
3 660 884 628
3 702 701 726
3 357 347 714
3 710 657 658
3 657 701 702
3 114 671 745
3 782 718 737
3 668 385 346
3 711 535 611
3 970 350 168
3 49 48 161
3 345 7 276
3 600 599 795
3 605 874 582
3 583 412 582
3 895 969 992
3 596 630 511
3 326 366 374
3 863 739 747
3 990 644 355
3 695 606 550
3 793 713 661
3 660 549 567
3 691 654 681
3 595 882 694
3 820 386 117
3 238 245 324
3 725 610 244
3 746 731 661
3 516 601 736
3 448 354 957
3 291 207 720
3 547 154 386
3 504 594 663
3 563 897 780
3 607 713 629
3 534 608 843
3 646 588 606
3 560 815 729
3 151 57 205
3 769 626 625
3 658 657 625
3 657 682 625
3 365 140 230
3 573 89 325
3 669 592 712
3 624 706 536
3 666 689 612
3 689 611 612
3 638 623 705
3 857 984 937
3 6 690 297
3 663 599 552
3 376 885 109
3 663 552 504
3 607 629 672
3 672 629 619
3 293 211 492
3 680 760 721
3 976 354 496
3 799 361 368
3 988 273 253
3 629 815 530
3 478 316 495
3 518 566 484
3 626 616 518
3 658 581 641
3 592 707 712
3 96 320 537
3 658 625 581
3 385 668 452
3 512 609 664
3 420 827 608
3 709 799 368
3 501 472 464
3 858 867 776
3 396 656 394
3 293 393 832
3 71 275 952
3 586 634 103
3 622 926 368
3 589 735 601
3 589 601 470
3 536 706 612
3 640 591 680
3 706 666 612
3 5 30 15
3 350 361 545
3 651 705 623
3 698 623 497
3 611 517 564
3 978 879 4
3 64 33 54
3 203 177 308
3 578 589 428
3 660 628 549
3 253 335 329
3 561 549 628
3 872 205 57
3 444 606 588
3 89 104 325
3 182 529 107
3 567 549 519
3 953 445 890
3 548 730 585
3 518 616 566
3 626 518 565
3 837 254 886
3 536 640 624
3 705 591 638
3 468 698 497
3 901 496 615
3 694 882 10
3 20 24 32
3 530 619 629
3 630 746 544
3 628 550 570
3 661 713 607
3 293 42 393
3 566 752 548
3 981 725 883
3 566 616 752
3 626 581 625
3 304 231 174
3 591 640 536
3 901 162 903
3 449 882 995
3 516 470 601
3 928 856 100
3 642 178 194
3 553 599 600
3 182 107 463
3 620 512 664
3 909 965 878
3 672 546 576
3 549 561 577
3 504 521 594
3 389 755 19
3 574 875 869
3 560 530 815
3 560 729 684
3 641 581 565
3 221 163 171
3 517 611 535
3 987 94 202
3 589 507 428
3 620 674 524
3 609 553 600
3 585 484 566
3 620 577 561
3 390 260 298
3 619 546 672
3 667 416 797
3 524 698 468
3 197 587 929
3 561 628 570
3 436 630 544
3 588 646 732
3 603 856 419
3 491 449 995
3 626 565 581
3 711 539 535
3 525 599 540
3 480 131 761
3 499 92 503
3 512 620 561
3 938 157 197
3 310 662 182
3 530 575 619
3 575 530 501
3 487 661 607
3 6 414 486
3 42 708 627
3 49 704 569
3 459 97 857
3 565 460 641
3 175 162 970
3 470 507 589
3 546 562 514
3 455 577 620
3 374 520 326
3 483 966 39
3 912 394 22
3 478 395 316
3 566 548 585
3 762 843 904
3 617 913 334
3 612 611 564
3 497 638 498
3 638 497 623
3 576 539 758
3 599 525 552
3 532 562 546
3 357 146 891
3 578 487 633
3 243 164 932
3 591 705 680
3 524 737 698
3 998 642 951
3 349 652 937
3 427 313 363
3 453 464 522
3 536 431 591
3 431 638 591
3 388 437 479
3 27 697 481
3 524 455 620
3 514 539 576
3 329 506 649
3 290 315 248
3 552 417 504
3 632 447 785
3 549 577 531
3 606 444 550
3 239 369 370
3 335 273 916
3 473 530 560
3 32 59 47
3 564 536 612
3 785 617 618
3 561 570 512
3 285 931 114
3 456 552 525
3 254 837 563
3 456 417 552
3 728 97 250
3 618 617 202
3 670 579 930
3 367 605 653
3 661 487 500
3 329 906 948
3 84 893 719
3 518 471 565
3 989 250 97
3 439 445 687
3 482 126 688
3 463 459 310
3 539 467 535
3 328 665 655
3 780 146 563
3 188 266 385
3 137 247 212
3 472 471 490
3 555 653 379
3 575 501 532
3 934 774 243
3 822 804 157
3 930 225 978
3 464 476 532
3 661 500 746
3 218 543 167
3 522 490 450
3 519 474 585
3 490 471 518
3 390 536 564
3 491 954 133
3 554 995 882
3 491 820 954
3 146 357 443
3 516 458 470
3 480 813 131
3 467 562 433
3 990 225 644
3 297 445 953
3 109 593 376
3 595 554 882
3 547 386 8
3 761 133 992
3 505 453 522
3 588 732 594
3 531 451 474
3 519 549 531
3 505 522 451
3 511 513 596
3 937 984 349
3 746 500 544
3 473 501 530
3 542 339 413
3 490 518 450
3 505 577 440
3 450 518 484
3 656 272 394
3 405 470 458
3 455 524 468
3 507 470 469
3 515 126 339
3 540 457 525
3 539 514 467
3 562 467 514
3 477 562 532
3 479 487 578
3 577 505 531
3 511 399 513
3 468 446 455
3 506 329 639
3 832 678 211
3 797 478 556
3 541 309 303
3 500 424 544
3 447 632 94
3 496 49 569
3 449 133 761
3 394 272 22
3 390 442 536
3 194 201 642
3 488 397 468
3 439 890 445
3 16 520 892
3 693 675 4
3 115 583 510
3 465 440 363
3 119 47 77
3 175 970 168
3 522 464 490
3 34 922 148
3 570 550 444
3 391 564 517
3 416 580 461
3 841 627 631
3 34 508 918
3 471 472 473
3 220 230 140
3 587 148 929
3 560 684 473
3 675 92 4
3 913 648 411
3 970 103 183
3 514 576 546
3 553 609 410
3 374 366 973
3 465 453 505
3 417 378 504
3 378 400 504
3 519 531 474
3 79 492 180
3 594 521 425
3 984 719 649
3 460 565 471
3 517 535 391
3 904 655 495
3 874 213 232
3 441 456 525
3 513 399 438
3 542 413 975
3 533 529 991
3 477 532 476
3 437 424 500
3 563 783 254
3 109 547 129
3 458 516 438
3 436 544 462
3 473 460 471
3 460 473 684
3 822 886 254
3 465 505 440
3 288 277 210
3 464 472 490
3 690 759 297
3 615 496 569
3 570 421 512
3 453 476 464
3 504 400 372
3 436 399 511
3 505 451 531
3 289 850 79
3 759 598 943
3 484 585 474
3 479 578 428
3 534 491 995
3 17 18 21
3 146 443 563
3 488 497 498
3 473 472 501
3 405 469 470
3 790 198 166
3 111 12 912
3 428 381 454
3 454 479 428
3 659 167 216
3 363 440 427
3 418 562 477
3 421 410 512
3 465 415 453
3 437 500 487
3 515 593 139
3 38 62 105
3 462 544 424
3 521 372 392
3 450 484 474
3 386 154 683
3 425 444 588
3 634 621 150
3 417 441 364
3 456 441 417
3 440 455 446
3 261 384 323
3 806 918 508
3 409 477 476
3 421 570 425
3 570 444 425
3 300 312 431
3 31 419 420
3 393 912 832
3 93 483 704
3 266 188 283
3 293 871 960
3 423 553 410
3 48 753 983
3 183 103 634
3 303 656 258
3 799 551 361
3 425 521 392
3 391 390 564
3 2 226 943
3 152 753 448
3 397 446 468
3 403 404 381
3 364 378 417
3 857 728 719
3 254 804 822
3 433 562 418
3 462 407 436
3 686 111 271
3 485 790 727
3 438 337 304
3 987 964 650
3 427 440 446
3 418 477 409
3 529 182 223
3 421 353 410
3 363 415 465
3 504 372 521
3 476 408 409
3 82 30 47
3 312 430 431
3 404 469 405
3 102 401 571
3 316 8 762
3 326 321 801
3 493 579 26
3 408 453 415
3 507 403 428
3 318 648 76
3 431 442 300
3 952 275 967
3 114 527 997
3 96 151 147
3 254 783 968
3 605 582 412
3 381 428 403
3 401 977 941
3 943 941 977
3 388 454 342
3 425 373 421
3 462 424 388
3 563 443 783
3 436 407 399
3 359 390 391
3 442 398 300
3 384 405 331
3 535 383 391
3 535 467 383
3 438 331 458
3 954 351 885
3 400 251 372
3 454 388 479
3 329 649 786
3 677 890 439
3 356 391 383
3 487 479 437
3 488 307 397
3 133 949 992
3 382 364 441
3 122 93 320
3 209 713 754
3 850 289 768
3 820 466 8
3 392 373 425
3 377 392 372
3 356 383 299
3 298 442 390
3 404 403 469
3 441 457 382
3 380 467 433
3 454 381 342
3 948 253 329
3 341 400 378
3 916 273 225
3 574 927 808
3 312 371 430
3 954 949 133
3 571 503 102
3 39 966 150
3 442 298 398
3 150 966 429
3 574 426 508
3 488 498 280
3 157 748 197
3 644 989 97
3 331 438 304
3 383 467 315
3 644 97 459
3 650 385 452
3 745 671 89
3 495 316 762
3 319 400 341
3 678 832 12
3 462 388 407
3 377 373 392
3 302 390 359
3 162 615 586
3 557 569 704
3 441 525 457
3 166 198 75
3 714 808 927
3 405 384 404
3 270 302 359
3 443 357 714
3 540 423 330
3 365 446 397
3 977 688 2
3 12 679 678
3 222 371 312
3 913 411 72
3 859 725 244
3 558 568 502
3 344 391 356
3 391 344 359
3 265 353 279
3 202 617 907
3 397 307 365
3 343 280 498
3 685 602 631
3 320 461 122
3 256 340 643
3 804 254 968
3 315 467 380
3 353 423 410
3 978 225 990
3 569 557 621
3 541 485 309
3 341 378 364
3 415 363 313
3 515 339 593
3 336 421 373
3 327 373 377
3 386 636 117
3 309 67 303
3 534 466 491
3 402 71 538
3 412 676 605
3 543 154 109
3 352 418 409
3 694 481 697
3 403 507 469
3 295 218 167
3 659 216 849
3 335 639 329
3 610 6 523
3 154 543 218
3 526 347 183
3 348 384 261
3 299 344 356
3 332 404 384
3 553 423 540
3 257 457 322
3 330 322 540
3 775 537 320
3 677 439 139
3 452 447 94
3 353 265 423
3 327 336 373
3 399 337 438
3 198 685 75
3 260 390 302
3 748 157 804
3 950 120 510
3 430 343 498
3 332 282 404
3 117 636 358
3 404 212 381
3 446 365 230
3 139 439 515
3 353 421 336
3 319 251 400
3 740 677 139
3 842 690 486
3 843 466 534
3 261 274 348
3 358 849 296
3 332 384 348
3 351 358 296
3 213 874 321
3 269 287 228
3 229 319 341
3 423 265 330
3 109 139 593
3 748 587 197
3 427 446 230
3 574 508 910
3 744 730 548
3 45 345 817
3 598 941 943
3 359 344 270
3 950 481 120
3 206 311 269
3 574 910 927
3 280 307 488
3 212 404 282
3 787 79 180
3 230 313 427
3 279 353 324
3 409 288 352
3 129 395 51
3 241 281 292
3 235 292 281
3 543 351 296
3 430 371 287
3 430 269 343
3 317 343 311
3 275 401 102
3 383 249 299
3 337 399 407
3 982 733 420
3 315 380 305
3 284 342 381
3 352 380 433
3 255 388 342
3 383 315 290
3 430 287 269
3 344 299 301
3 76 452 668
3 269 311 343
3 685 198 602
3 348 262 332
3 377 372 251
3 168 194 175
3 268 267 398
3 540 322 457
3 383 290 249
3 626 769 616
3 229 341 364
3 353 336 324
3 377 251 327
3 3 32 30
3 145 827 787
3 916 493 489
3 398 267 300
3 273 644 225
3 941 825 509
3 648 913 743
3 161 704 49
3 284 381 212
3 825 870 924
3 304 337 264
3 408 288 409
3 255 407 388
3 820 491 466
3 8 129 547
3 529 223 825
3 348 274 227
3 262 282 332
3 280 343 317
3 304 174 331
3 364 382 240
3 183 765 526
3 4 92 670
3 419 856 928
3 313 277 415
3 498 431 430
3 226 759 943
3 139 51 872
3 508 148 587
3 961 604 178
3 348 227 262
3 930 4 670
3 220 313 230
3 571 941 509
3 255 263 407
3 308 322 330
3 555 668 801
3 330 265 203
3 45 7 345
3 331 405 458
3 380 352 246
3 213 16 232
3 324 245 279
3 993 900 770
3 847 328 655
3 327 251 252
3 287 371 222
3 344 301 270
3 222 312 236
3 976 496 887
3 755 813 480
3 555 801 321
3 312 300 235
3 299 242 301
3 622 368 897
3 820 8 386
3 267 292 300
3 671 370 369
3 2 943 977
3 214 307 280
3 382 257 204
3 232 950 510
3 303 276 656
3 587 748 375
3 804 375 748
3 307 214 199
3 305 380 246
3 910 375 927
3 263 264 337
3 352 288 193
3 429 765 150
3 302 270 237
3 745 573 285
3 187 156 248
3 242 299 249
3 714 927 968
3 174 323 331
3 255 342 284
3 252 324 336
3 336 327 252
3 587 375 910
3 234 261 323
3 268 298 286
3 249 286 298
3 910 508 587
3 308 257 322
3 366 346 239
3 948 988 253
3 586 103 162
3 294 318 379
3 647 851 637
3 116 33 69
3 459 355 644
3 251 319 185
3 217 281 311
3 249 298 242
3 658 767 710
3 92 26 670
3 314 191 647
3 281 280 317
3 212 282 165
3 167 659 295
3 139 872 740
3 247 284 212
3 642 201 951
3 305 246 248
3 429 966 869
3 494 93 704
3 637 727 790
3 277 313 220
3 351 109 885
3 358 351 954
3 872 51 205
3 602 841 631
3 954 820 358
3 408 415 277
3 221 215 249
3 365 307 199
3 240 229 364
3 787 289 79
3 466 843 762
3 324 252 238
3 237 260 302
3 493 916 579
3 569 621 586
3 209 149 708
3 350 545 168
3 151 205 147
3 268 286 259
3 268 259 267
3 545 551 951
3 111 686 12
3 241 280 281
3 239 346 369
3 224 323 174
3 214 280 241
3 195 203 265
3 294 104 807
3 255 284 247
3 263 247 264
3 193 246 352
3 870 825 941
3 968 375 804
3 122 584 93
3 212 165 137
3 222 228 287
3 222 236 200
3 608 827 145
3 924 598 842
3 236 312 235
3 165 81 125
3 277 288 408
3 260 242 298
3 308 173 257
3 308 330 203
3 579 670 26
3 1 0 3
3 184 210 277
3 175 194 903
3 255 247 263
3 229 155 319
3 598 759 690
3 310 459 559
3 872 57 740
3 627 134 42
3 72 291 720
3 384 331 323
3 53 36 95
3 267 241 292
3 215 259 286
3 142 147 205
3 215 286 249
3 180 492 211
3 317 311 281
3 443 714 968
3 554 603 31
3 246 193 186
3 583 115 389
3 135 6 297
3 297 759 226
3 242 237 301
3 204 257 173
3 261 234 274
3 282 262 179
3 224 234 323
3 290 221 249
3 235 281 217
3 783 443 968
3 142 51 395
3 140 365 199
3 304 264 231
3 155 185 319
3 310 182 463
3 104 283 807
3 210 193 288
3 200 236 235
3 57 422 740
3 339 764 376
3 262 1001 179
3 196 221 290
3 776 811 791
3 248 196 290
3 506 984 649
3 264 247 137
3 636 360 849
3 184 277 220
3 251 159 252
3 270 301 237
3 158 262 227
3 179 165 282
3 134 627 841
3 457 257 382
3 204 240 382
3 241 267 259
3 605 676 653
3 170 240 204
3 252 159 238
3 495 655 478
3 671 283 104
3 222 200 228
3 139 109 129
3 93 584 483
3 237 242 260
3 970 183 347
3 676 325 944
3 246 187 248
3 885 376 949
3 960 209 708
3 559 459 857
3 228 206 269
3 993 128 41
3 159 251 185
3 499 652 26
3 375 968 927
3 196 172 221
3 653 944 379
3 350 970 347
3 229 240 170
3 187 246 186
3 158 1001 262
3 206 200 217
3 272 656 276
3 9 28 13
3 311 206 217
3 527 19 925
3 659 849 360
3 778 777 868
3 215 241 259
3 118 159 185
3 704 39 557
3 335 916 489
3 634 150 765
3 215 221 171
3 102 693 275
3 220 140 138
3 665 328 568
3 200 235 217
3 675 102 92
3 234 1001 274
3 241 215 171
3 214 241 171
3 199 214 144
3 204 121 113
3 177 173 308
3 172 163 221
3 113 170 204
3 941 571 401
3 125 52 124
3 176 774 784
3 125 78 52
3 181 179 1001
3 26 92 499
3 171 144 214
3 294 325 104
3 309 614 67
3 577 455 440
3 63 116 173
3 594 756 663
3 107 533 233
3 192 169 193
3 192 193 210
3 220 153 184
3 411 318 294
3 228 200 206
3 553 540 599
3 368 219 709
3 177 63 173
3 366 668 346
3 248 156 196
3 306 295 659
3 199 141 140
3 905 191 314
3 110 132 184
3 154 218 597
3 184 132 210
3 99 234 224
3 52 60 124
3 76 648 743
3 169 187 186
3 935 790 920
3 224 78 61
3 78 224 174
3 750 763 779
3 203 195 177
3 615 569 586
3 306 218 295
3 306 659 360
3 187 88 90
3 645 218 306
3 597 683 154
3 636 683 699
3 516 513 438
3 112 174 231
3 123 170 113
3 24 59 32
3 105 138 38
3 187 90 156
3 901 615 162
3 912 22 111
3 70 155 170
3 220 138 153
3 389 527 931
3 699 360 636
3 41 151 537
3 256 334 72
3 112 78 174
3 163 143 171
3 144 141 199
3 163 172 156
3 264 137 124
3 951 799 998
3 320 96 461
3 118 185 155
3 105 184 153
3 210 132 192
3 33 116 54
3 181 99 179
3 276 303 67
3 634 765 183
3 144 171 143
3 111 22 271
3 172 196 156
3 141 144 143
3 10 813 115
3 143 163 136
3 238 119 245
3 159 119 238
3 3 20 32
3 110 184 105
3 480 969 19
3 143 136 141
3 523 6 135
3 264 124 108
3 996 881 956
3 86 138 140
3 668 555 76
3 575 546 619
3 69 65 121
3 410 609 512
3 177 195 77
3 186 193 169
3 294 807 207
3 119 77 245
3 123 43 70
3 118 155 70
3 119 159 118
3 699 683 597
3 181 1001 101
3 99 224 80
3 121 98 113
3 61 80 224
3 218 645 597
3 165 125 137
3 231 108 112
3 899 128 955
3 720 207 807
3 156 136 163
3 141 86 140
3 170 123 70
3 859 127 725
3 786 906 329
3 291 72 411
3 1001 234 130
3 81 165 99
3 165 179 99
3 285 114 745
3 136 156 90
3 187 169 88
3 121 116 69
3 435 306 338
3 177 77 63
3 483 584 966
3 762 8 466
3 153 138 105
3 614 309 926
3 130 99 181
3 65 56 64
3 113 98 95
3 61 78 125
3 125 124 137
3 339 126 482
3 820 117 358
3 119 118 82
3 1001 130 101
3 86 73 38
3 106 141 136
3 141 106 86
3 58 169 192
3 192 132 58
3 857 719 984
3 181 101 83
3 129 51 139
3 647 637 314
3 61 125 81
3 123 113 74
3 387 991 529
3 98 121 65
3 77 195 245
3 96 416 461
3 58 88 169
3 697 856 603
3 62 132 110
3 53 21 36
3 57 41 422
3 847 787 180
3 980 950 823
3 58 132 62
3 645 91 597
3 43 123 74
3 130 83 101
3 95 74 113
3 420 608 528
3 387 529 825
3 276 7 272
3 136 90 106
3 119 82 47
3 60 87 108
3 279 245 195
3 112 108 87
3 494 900 775
3 147 416 96
3 603 419 31
3 541 602 198
3 602 541 258
3 124 60 108
3 194 168 201
3 78 112 87
3 116 63 54
3 389 115 813
3 138 86 38
3 676 573 325
3 105 62 110
3 926 219 368
3 90 73 106
3 82 118 70
3 643 188 256
3 532 501 464
3 61 81 55
3 98 65 53
3 338 306 360
3 53 95 98
3 37 63 77
3 59 77 47
3 52 78 87
3 50 70 43
3 645 306 435
3 37 77 59
3 88 35 90
3 76 743 452
3 337 407 263
3 82 70 50
3 64 53 65
3 99 55 81
3 87 60 52
3 857 937 559
3 584 869 966
3 35 73 90
3 264 108 231
3 841 602 258
3 54 63 64
3 44 43 74
3 95 36 74
3 43 29 50
3 58 46 88
3 58 62 46
3 80 61 55
3 495 762 904
3 115 510 120
3 36 44 74
3 83 130 181
3 807 283 188
3 53 64 23
3 86 106 73
3 699 338 360
3 56 69 33
3 44 29 43
3 481 694 362
3 13 28 36
3 46 35 88
3 56 33 64
3 64 37 23
3 32 47 30
3 37 64 63
3 23 21 53
3 48 983 994
3 44 36 28
3 50 30 82
3 294 207 291
3 339 376 593
3 949 376 764
3 46 62 38
3 109 351 543
3 25 38 73
3 45 271 22
3 24 23 37
3 874 510 582
3 35 25 73
3 18 13 36
3 431 498 638
3 22 272 45
3 25 35 46
3 38 25 46
3 91 645 435
3 3 29 44
3 24 13 18
3 272 7 45
3 133 449 491
3 162 175 903
3 653 676 944
3 11 23 24
3 1 44 28
3 44 1 3
3 17 21 23
3 29 3 14
3 15 50 29
3 424 437 388
3 24 18 11
3 875 574 808
3 15 30 50
3 597 91 699
3 5 3 30
3 14 15 29
3 13 24 20
3 847 655 904
3 18 36 21
3 80 55 99
3 1 28 9
3 17 23 11
3 121 204 173
3 699 91 338
3 774 176 75
3 0 20 3
3 151 41 57
3 379 325 294
3 17 11 18
3 325 379 944
3 91 435 338
3 20 9 13
3 20 0 9
3 14 5 15
3 1 9 0
