# Stanford Armadillo
# quadric edge-collapse decimation to 1000 triangles, 502 vertices
v -52.76622 67.95745 -56.08333
v -58.51851 67.80276 -53.18219
v -33.13695 -11.08944 16.1547
v -56.19599 64.37512 -48.42962
v -57.65149 58.83652 -56.47531
v -36.15343 6.2526 18.78597
v 3.176248 13.58624 28.98549
v 14.38218 -1.014928 23.16232
v -56.5138 70.60512 -48.77278
v -52.08923 76.34336 -55.08321
v 22.93068 54.30046 26.846
v -58.06449 58.28327 -44.54753
v -48.28222 83.90848 -45.79668
v -0.8001882 48.58287 35.42902
v -52.56612 74.67539 -46.56837
v -1.937714 57.53783 -47.38638
v -26.43508 44.62127 18.16701
v 30.50818 -22.06352 3.827006
v -19.84878 31.84755 8.529938
v -61.91279 63.66809 -46.35046
v -52.46864 62.77303 -36.77983
v -30.31695 48.39301 10.5561
v -62.8925 59.54762 -42.80678
v -51.00372 77.71185 -41.73515
v -52.11184 84.56154 -44.25006
v -19.4002 25.58039 23.08537
v 8.006261 59.1722 -41.91114
v 57.81112 76.29374 -44.48604
v 0.5379735 55.22334 -41.52537
v -50.72668 74.3859 -39.12021
v -55.49496 77.39987 -43.0667
v -22.73572 75.75219 8.258051
v -59.32226 59.08563 -33.43188
v 15.73137 -52.63225 17.21389
v 0.3848095 61.40932 -48.25021
v 54.39314 82.86685 -43.19101
v 48.44085 87.59201 -40.76456
v -50.60085 -47.35306 8.239091
v 20.81832 -46.01838 4.901584
v -6.903015 62.09423 -40.2298
v 12.78796 -32.57924 20.79984
v -22.45213 40.92171 20.70479
v 32.82233 -46.63289 10.90732
v -60.89311 73.53062 -39.9509
v -43.66439 -43.98568 9.18492
v 55.03855 81.29312 -34.53169
v 32.60896 8.975025 11.40125
v 49.18663 88.90583 -38.7999
v -22.84574 -20.88725 17.75719
v 14.74837 -42.66043 24.74847
v -3.56777 54.90964 -36.50018
v 0.7090837 64.20415 -40.43485
v -40.6276 -28.83838 11.63107
v 61.80997 72.19439 -38.83321
v -6.633972 8.585023 26.60046
v 61.21496 75.9951 -34.51174
v 21.53395 -9.934118 20.20048
v -51.07982 79.02017 -39.53596
v 3.344052 5.193618 30.86186
v -58.82963 78.10114 -36.26959
v 56.77874 75.76673 -36.80521
v -13.2707 -2.684913 18.16512
v -18.75988 27.25936 7.801494
v 54.08272 86.33046 -36.96078
v 57.12459 69.13888 -34.92789
v -6.994518 58.37373 -34.80354
v -12.454 13.16779 27.40022
v -8.91983 63.20783 -30.11777
v -4.635125 64.99784 -32.9493
v -8.179899 31.84994 31.94607
v -15.49971 33.91857 28.92599
v 3.939497 46.33761 37.95207
v 35.32762 47.68624 10.43597
v -26.17932 53.83462 24.89927
v -19.41964 35.12604 20.0233
v -38.87563 56.52896 9.133426
v -3.905369 5.660261 34.08993
v 1.158638 66.84614 -35.84113
v 49.33741 91.23217 -33.06679
v -50.80418 55.75372 -34.35745
v -26.43824 43.02449 6.996588
v 3.611612 72.04522 -30.29973
v 23.52419 72.20879 7.515582
v 52.57531 78.63319 -32.29684
v 14.77203 83.20861 8.010538
v -24.66693 69.80339 23.79859
v -60.78894 66.71865 -31.55505
v 7.901348 71.09802 -33.37529
v -54.37859 74.58923 -30.11508
v -47.17781 71.46578 -31.91578
v 17.97337 38.10366 21.59244
v 52.18858 82.86305 -34.86558
v -26.01845 61.00058 26.9484
v -3.606153 51.29174 -30.75259
v 9.262154 60.36737 -32.37694
v 17.88002 70.46895 29.95551
v -9.336796 88.64636 3.98631
v 2.09553 54.49737 -34.41746
v 4.758134 53.17799 -29.52864
v -18.69372 82.31302 13.50302
v 9.295097 43.38034 34.60233
v 34.02491 -53.64586 8.514461
v -19.27982 95.43983 -31.56819
v 14.60291 -48.48203 31.50259
v 31.98753 44.36367 6.12673
v 53.14976 66.08641 -27.69746
v 32.60867 -19.15803 13.43758
v -6.178664 73.28915 -31.41703
v -0.8722175 -6.02716 36.21321
v -10.67973 87.20462 -30.8853
v -6.329815 -0.4466991 34.14883
v -6.434459 55.52555 -30.29515
v -40.18376 -21.52519 19.77493
v 61.17603 78.86106 -30.98108
v -32.96371 -42.71648 7.376413
v -62.59444 59.52966 -26.77386
v -11.22514 62.88535 -27.75643
v 63.92162 70.39696 -29.70532
v -38.6034 -34.5 7.396858
v 57.53267 83.81063 -29.88352
v 16.73072 93.12526 -29.34459
v -48.23546 57.31871 -29.76635
v 18.07924 -29.05827 7.305499
v -3.006295 74.73753 -31.19418
v 11.30998 83.27889 -29.09219
v 19.29059 79.11624 13.9176
v 8.811323 63.02608 -28.18498
v 9.562303 75.06236 -25.53837
v -55.36293 52.51121 -26.24057
v -47.47936 52.57355 -28.30351
v 23.02347 69.69128 22.857
v 7.811987 88.87477 -23.46212
v 48.45217 83.28074 -25.37082
v 52.11767 55.80543 -24.6708
v 57.91795 64.94567 -27.03685
v -42.62357 67.17209 -25.22841
v -22.98315 95.16226 -28.51525
v 22.29054 97.21937 -26.0979
v 54.80596 85.04478 -26.90756
v -0.5070669 52.4065 -26.6417
v 0.3263822 5.137028 7.588533
v -10.32556 78.8751 -25.62334
v 49.91587 61.31611 -26.51932
v 16.84966 25.69337 9.108445
v 19.17505 -53.42943 31.77258
v -6.059263 80.31297 -25.41372
v 19.08892 -44.10001 29.6805
v -34.40193 -1.919203 19.94551
v 6.452244 80.36482 -23.68807
v 10.8415 78.26239 -20.90452
v 15.9341 91.84557 -25.82271
v 61.04643 66.27462 -23.53704
v -5.959989 -6.442605 50.77233
v -12.54053 72.63268 -24.32491
v -48.11035 74.4474 -25.40065
v 15.13411 80.81942 23.76272
v -40.95056 -33.47069 17.87919
v -12.03235 95.35744 -25.48447
v -6.489726 58.59393 -22.17116
v 7.284481 23.1723 31.47019
v -9.578146 82.78173 -22.72824
v 28.35524 -44.05458 23.63995
v 33.16091 -29.61561 18.56067
v 58.80042 80.01439 -23.11915
v -41.8252 59.35547 -21.54994
v 17.3572 -38.30352 29.34887
v -48.0074 -52.47388 5.228993
v 20.95526 -53.2467 3.3961
v -21.9621 -53.15931 21.08426
v 56.58422 55.87433 -20.38349
v 46.94576 57.71728 -21.31154
v -16.17298 82.39156 -21.64751
v 18.94498 85.39301 -20.20709
v 18.95052 53.38551 31.67903
v 20.28359 -36.5668 11.82121
v 52.78729 84.94167 -21.92686
v -16.66917 72.74336 30.9481
v -0.05920535 0.3536197 28.79576
v 7.216645 61.13173 -22.83195
v -38.11446 61.95537 -21.22746
v -8.595345 71.23579 36.06566
v 15.64413 91.44096 -19.2828
v 0.1647349 -5.022105 50.50262
v 25.52807 -2.523478 22.60987
v -9.525498 61.44232 -17.0171
v -63.24646 66.75617 -21.91307
v 26.48409 -31.45833 6.792716
v -16.93139 94.38332 -22.02576
v -51.55249 50.95576 -14.99368
v -40.40768 53.80564 -21.68814
v -46.43149 49.31023 -20.15089
v -60.04662 56.45662 -15.5197
v 24.23927 -38.7312 30.06004
v 12.71934 64.44736 -23.39404
v 44.08321 67.48545 -17.0213
v 19.45751 -41.06218 14.5128
v 43.48461 54.23393 -20.94156
v 6.885282 83.66199 -14.97213
v 10.90273 78.95003 -15.03367
v 22.63349 40.12959 20.14061
v 24.01605 52.37614 23.28299
v -4.737671 18.14093 30.61835
v -4.694474 84.33521 -21.7458
v 53.95856 76.75433 -16.57921
v 0.7146868 54.16203 -19.40796
v -11.49933 2.58003 7.774425
v -4.13712 55.77671 -18.7329
v -58.47598 63.52108 -11.52404
v 7.118454 59.45852 -15.78555
v 23.61805 18.24192 11.16595
v -37.97072 55.78219 -16.54565
v -22.97321 24.06893 13.23555
v -40.536 68.64375 -18.59067
v -41.21713 51.47279 -16.14355
v -11.41341 66.57455 -16.93918
v -5.47537 85.78694 -14.44596
v 10.22222 67.36099 -16.02344
v -5.749296 -13.02711 58.00076
v 63.59983 62.64022 -11.51321
v -18.91454 4.141195 25.86582
v -15.84636 64.00507 -12.61482
v -59.27706 71.84867 -20.84027
v -23.63807 -1.731482 24.05771
v -16.2436 67.61659 -17.29757
v 36.03032 -48.17866 14.24884
v -4.556302 45.81896 -14.84997
v -16.3206 56.00974 -12.62452
v 27.17561 -42.62097 16.03445
v -5.537925 54.95467 -14.8422
v -20.91694 63.32557 -14.39693
v -48.80889 71.42023 -15.86824
v 57.88883 74.22763 -17.76688
v -40.2292 -38.77591 14.11875
v -13.58852 38.25874 29.06746
v 43.02134 49.74392 -14.81502
v -11.35416 59.67553 -13.80973
v 11.06909 18.07 26.94056
v 14.67345 70.17632 -15.55099
v 47.33854 75.95153 -20.13812
v 47.27654 72.76828 -8.881226
v 8.507545 47.1831 -15.04961
v -16.6519 48.39052 -15.02896
v 1.340777 50.68682 -12.81497
v -0.005378472 26.31914 31.98819
v 38.61727 62.7883 -12.88538
v 12.29549 -7.22246 13.7354
v 28.83938 -8.031415 18.14431
v -14.95749 -5.964715 12.49902
v -9.581448 36.30558 -12.98494
v 37.13085 58.18835 -9.795814
v -14.86685 74.46352 -15.61348
v -22.57978 -50.92888 25.47917
v 14.46374 6.047579 25.16875
v -25.9448 -43.10165 21.00357
v -13.60448 77.55222 -11.33255
v -10.64973 80.69859 -16.1673
v -28.62383 -35.20435 23.05534
v -50.27778 56.6476 -8.032965
v 39.87951 68.40236 -13.78706
v -4.381024 48.67272 38.27489
v -34.74637 -18.04858 21.58088
v 27.7845 -15.81915 18.86442
v -27.51955 61.90461 -7.863785
v 56.86173 72.62685 -9.315256
v -24.99867 51.36013 -9.248012
v 33.68318 -23.76959 8.425583
v -1.324737 48.3562 -11.83963
v -30.18277 14.50027 20.89121
v -19.88591 68.64543 -11.26084
v -53.08281 67.13935 -10.94612
v -19.72783 61.75273 33.61847
v 21.69926 13.81342 20.51157
v 18.87791 51.21806 -11.05816
v -22.58462 55.91886 -11.3968
v 13.32858 56.98422 -11.47146
v -42.05388 -24.50993 6.319983
v 2.43515 85.3301 -8.696429
v -21.10494 -9.740255 9.18104
v 17.92556 66.91854 -13.08014
v -4.919469 5.615735 9.204435
v 50.55172 49.53695 -12.1832
v -19.41258 35.56494 -1.057542
v -31.04201 47.36291 -8.598778
v -39.69027 65.43504 -13.788
v 24.22149 8.5965 24.52018
v 30.84735 -37.93805 22.03459
v 13.19267 65.03117 -9.680302
v -0.907237 38.91529 -11.04065
v -30.09354 59.36749 18.75618
v -27.7009 -19.23687 20.71661
v 14.98023 -27.50818 24.91523
v -13.04089 57.04032 37.45102
v 22.03726 56.5579 -7.700778
v 38.18704 60.67456 -7.713484
v -6.780033 39.55794 33.62748
v 1.897273 29.43611 -9.479751
v 21.54604 -18.55343 24.83692
v 17.07717 -16.94562 19.45079
v -14.51261 41.13769 33.94373
v -16.89749 39.69112 -11.60839
v -0.4853285 55.79719 39.69377
v -6.497964 85.65879 -9.063251
v -5.732332 7.20132 20.72887
v -44.99489 48.29679 -9.374406
v 55.94923 57.25721 -3.420954
v -5.700662 -2.679811 54.06459
v -45.2763 65.50591 -7.709133
v -37.54596 66.16038 -8.802759
v 22.49579 75.30895 16.71078
v 28.94971 10.61294 19.45248
v 25.87395 -26.14913 27.83187
v -36.30047 46.47259 -6.624844
v 27.20054 53.22797 -6.287542
v 17.36911 23.61204 21.80152
v 11.51357 77.98707 -6.795752
v 1.848124 89.93337 5.123319
v 6.148912 76.27997 34.59594
v -29.83909 62.45441 13.64109
v -17.06841 74.68219 -6.611538
v 25.76779 57.17901 18.01425
v 22.30965 44.55627 -4.139914
v 53.6446 52.24713 -7.998119
v 25.95302 64.97031 17.11429
v 41.01338 -52.61959 4.363603
v 57.08984 67.41349 -3.074177
v 1.58076 89.30656 17.07118
v -10.15832 81.52715 -8.377615
v -1.680998 90.40007 -7.14266
v 14.48945 -47.11618 17.89453
v -42.51612 48.9492 -2.318933
v 31.77911 -53.17272 18.91129
v -31.93237 -52.53593 18.96245
v 26.91819 -44.59938 8.582347
v -20.68022 76.15476 -4.795188
v -32.14278 -44.46121 24.03628
v 28.93594 -30.77738 26.54908
v 23.81426 64.0574 24.65086
v -2.605077 -7.191969 42.45651
v -25.50666 46.01814 -2.978626
v 38.77251 47.61969 -9.054972
v -34.30191 -37.84808 22.6828
v -28.14472 66.31765 -1.74081
v 7.273193 87.39056 -6.121193
v -43.4737 -52.74826 -11.02521
v 14.31828 -34.88179 13.9912
v -34.85741 -25.17321 23.30851
v -19.89743 -26.16822 9.576303
v 17.51718 39.52026 28.1874
v -9.96226 87.5386 -4.656564
v -7.098227 26.03332 -6.041889
v 0.6292879 3.480625 38.45797
v 12.17755 35.45935 -10.35475
v -26.22337 -12.99852 14.65992
v 15.62805 79.15418 -4.945871
v -40.36762 -0.3174774 11.66438
v -52.20742 -53.41486 -7.684821
v 28.48481 -51.29474 -7.405665
v -48.24925 61.88044 -2.016172
v 32.17246 2.89397 17.08784
v -1.866495 -2.984697 54.22099
v -0.2945561 11.53619 -3.496823
v 2.914068 20.83661 -5.591882
v 17.94259 70.48059 -2.938761
v -27.24041 43.05312 13.9144
v -14.66581 82.46293 -6.445401
v -42.80278 -52.79069 0.1407881
v 25.78177 49.75223 15.79263
v -1.410045 82.46473 31.03106
v 26.37868 47.21831 -4.025705
v -12.04864 61.71239 37.76756
v 43.28723 64.19448 -2.712965
v -48.68932 -53.77769 12.08223
v 12.04777 -53.03592 25.1797
v -3.691668 89.64876 -0.6394704
v -7.786153 12.12167 -0.4973805
v -25.90851 16.52043 6.075165
v -5.033132 19.30773 -5.217516
v 5.62412 87.33474 22.37672
v -47.18928 -48.26873 13.85418
v 19.0683 36.93728 1.233164
v 42.66753 46.68812 0.01962944
v -48.74215 51.29852 -3.34038
v 48.84844 57.16062 -2.015876
v 47.7763 64.00122 -2.009397
v -25.30884 70.26103 -2.633592
v -19.01106 18.71848 24.8242
v 4.574902 18.93696 -2.580019
v 11.66192 -25.32098 12.36045
v 48.43545 50.10803 -8.142109
v -44.89258 -45.5048 2.445414
v -31.49748 -6.485997 -2.409363
v 25.08392 1.827605 -2.776143
v 34.14829 44.39614 -1.288482
v 25.89385 62.55308 -3.754634
v 7.503772 1.671368 16.20239
v 6.91682 27.35089 -3.733249
v 10.22343 31.47931 -4.344347
v -9.736583 31.79878 -6.581033
v 28.38322 -9.882213 -1.910203
v 32.49742 -7.237032 0.2344777
v -8.727468 77.9563 33.06385
v 14.81264 79.34079 0.2067322
v 38.06115 -53.71739 10.65969
v 19.33749 29.57078 14.21708
v -41.31433 -10.81226 -3.249148
v 10.17848 87.23908 13.40648
v -34.61459 2.101525 -2.197854
v -15.52406 14.90928 0.5767661
v 37.90035 45.4009 -4.951241
v 31.29871 -31.49186 13.78461
v -24.25054 8.107153 -1.840558
v 4.593266 58.2074 39.20225
v 45.40317 53.57726 4.242415
v 23.31713 -14.75146 0.2118105
v -38.7799 -3.417642 -0.5361983
v 16.3427 -10.96689 17.08323
v -10.86508 26.80817 -2.296385
v 37.35774 -52.90805 -4.481375
v 11.18315 58.94713 37.46559
v -18.28537 -1.068435 1.337019
v -41.74559 -16.24315 13.8385
v -2.708879 4.947013 0.6431633
v 17.90947 25.76354 17.33837
v 16.49481 12.42205 0.6385167
v 13.81185 23.13363 2.836554
v -17.75258 78.81669 0.46839
v -34.79955 -51.49945 -1.208156
v -40.83378 -6.394086 7.683127
v 4.282602 12.1487 -0.5234586
v 13.10661 32.8836 29.38351
v 3.050827 -1.431471 37.3109
v 17.86143 32.74307 8.448322
v -40.57261 -45.41116 17.49874
v 32.10668 65.29038 7.524724
v 28.09132 -51.30312 2.668639
v -35.08256 -22.59928 0.5596243
v 33.10453 -18.14423 -0.4875475
v -34.35682 -16.62365 -1.074206
v 16.46298 -1.833239 -1.188471
v -14.44155 44.1781 34.49872
v 22.26411 40.60184 6.311903
v -14.81239 19.76903 26.87358
v -39.15463 65.29457 1.461491
v 32.86358 -21.31045 20.6878
v -20.00734 54.40635 33.69732
v -34.68922 -28.69414 2.817856
v -25.67903 -21.22257 1.308991
v 41.17726 55.37294 7.221227
v 9.511289 69.00474 35.7956
v -29.48169 69.61399 8.631312
v 8.922354 86.30264 0.1750277
v -26.95166 10.6534 24.88514
v -56.76788 -51.85739 1.919518
v 8.317242 3.392833 4.033728
v -35.4821 10.37596 5.189877
v -18.79967 22.90787 4.42805
v -26.86344 73.02235 15.72972
v 14.55048 26.20125 26.56024
v -31.34888 -53.66375 7.280566
v 30.14236 -53.76977 3.833853
v 20.62202 42.38359 24.30478
v -45.11822 55.99981 1.567193
v -25.61254 -44.89837 13.0508
v 42.16128 62.79828 2.136326
v 23.07069 70.32733 0.5698935
v 7.978446 38.05939 31.47895
v -43.07198 -17.35731 4.665285
v -41.19917 -10.8715 9.019855
v 15.69724 -10.95891 6.088604
v 8.608499 83.70722 25.51828
v 30.43496 7.666165 3.231005
v -22.3857 -39.00052 14.9966
v 16.12741 -16.63507 14.71314
v -27.60106 71.38725 -0.05703144
v -1.860895 7.31538 15.6488
v 32.64479 -11.55595 9.071869
v -11.91794 84.38878 23.39543
v -26.32753 -11.18791 2.31399
v 3.838904 5.752637 22.67427
v 25.70573 44.41943 7.432762
v 35.63069 -52.95242 3.018532
v -22.7718 41.92687 25.42931
v -23.47512 -17.79779 5.438483
v -0.5345349 66.36281 38.68573
v 22.18466 16.00239 4.684314
v -12.11081 6.641192 2.975663
v -29.88019 63.3533 9.860031
v -25.00969 -30.76915 4.746022
v -39.91192 2.820309 4.377217
v 35.95517 -5.64745 7.567519
v -32.88321 15.34917 12.01501
v -33.92323 -53.34991 23.81934
v 31.07594 -45.99969 5.437029
v -32.14453 -46.96926 5.211606
v -37.28257 -45.25396 2.290708
v -31.13447 -34.4949 4.75323
v -37.54544 46.76955 4.620897
v 35.7134 58.41191 12.87353
v 21.49232 -21.46761 3.192244
v -7.754998 88.75324 16.56102
v 40.98344 48.78154 5.743437
v 51.81942 85.99702 -31.45259
f 502 79 139
f 38 45 390
f 167 453 38
f 167 38 390
f 14 72 260
f 43 493 333
f 123 345 388
f 167 372 453
f 451 316 406
f 450 474 487
f 421 468 467
f 113 341 346
f 432 380 441
f 489 428 355
f 476 266 18
f 83 402 126
f 446 119 276
f 454 395 141
f 346 261 113
f 450 32 474
f 163 336 286
f 457 32 450
f 422 141 280
f 47 490 471
f 495 115 494
f 295 299 234
f 481 102 460
f 3 353 223
f 97 316 374
f 460 102 168
f 100 86 477
f 123 388 499
f 483 438 478
f 76 462 497
f 423 210 144
f 376 455 491
f 83 126 309
f 364 482 17
f 316 97 500
f 119 233 53
f 123 499 187
f 490 47 359
f 179 217 209
f 102 43 324
f 276 53 421
f 474 32 426
f 434 498 464
f 448 501 413
f 436 276 467
f 62 223 353
f 333 228 43
f 63 19 417
f 486 206 420
f 178 109 111
f 345 175 196
f 400 476 437
f 437 476 18
f 447 483 347
f 60 89 58
f 323 337 320
f 131 337 323
f 443 487 342
f 448 413 464
f 483 478 278
f 39 329 196
f 397 144 425
f 266 476 107
f 420 206 278
f 485 210 471
f 408 411 376
f 496 119 446
f 45 38 379
f 435 39 333
f 437 18 414
f 460 168 435
f 237 272 314
f 168 34 39
f 212 268 386
f 465 83 434
f 266 187 18
f 339 81 22
f 282 417 19
f 378 470 156
f 105 501 73
f 19 63 212
f 107 410 266
f 422 429 141
f 466 244 430
f 310 285 359
f 466 101 72
f 318 76 22
f 374 349 97
f 45 495 390
f 331 34 168
f 144 404 423
f 367 320 201
f 145 331 162
f 216 277 198
f 477 177 401
f 450 318 457
f 203 146 110
f 445 292 271
f 243 229 205
f 415 428 489
f 206 248 278
f 499 18 187
f 379 38 372
f 479 303 475
f 342 487 474
f 298 297 262
f 381 413 501
f 501 105 393
f 463 115 472
f 141 429 454
f 483 49 347
f 247 476 490
f 497 339 22
f 456 63 417
f 244 70 202
f 359 285 184
f 480 369 105
f 488 496 446
f 493 481 418
f 435 357 39
f 426 100 97
f 76 443 462
f 330 497 462
f 280 486 375
f 489 455 407
f 251 269 255
f 467 468 405
f 295 70 244
f 345 50 41
f 500 477 368
f 19 81 282
f 326 316 500
f 346 257 290
f 353 483 278
f 422 361 429
f 200 201 461
f 469 454 439
f 261 346 290
f 446 276 436
f 39 357 168
f 447 488 446
f 390 495 366
f 427 494 459
f 426 97 349
f 395 8 253
f 295 244 466
f 425 485 424
f 414 499 469
f 246 395 454
f 248 206 62
f 499 414 18
f 418 435 493
f 247 184 57
f 451 85 402
f 309 323 83
f 383 464 413
f 417 282 398
f 113 261 421
f 248 353 278
f 376 411 455
f 486 408 375
f 428 468 355
f 454 424 439
f 408 486 420
f 405 468 428
f 414 469 439
f 331 102 403
f 378 326 500
f 427 495 494
f 163 410 107
f 357 435 168
f 363 465 394
f 386 268 452
f 490 400 471
f 381 501 393
f 358 382 462
f 321 441 380
f 169 492 332
f 425 396 397
f 424 454 429
f 6 452 268
f 440 299 260
f 501 448 73
f 447 446 436
f 59 351 431
f 329 39 34
f 427 459 366
f 83 323 434
f 365 426 349
f 346 341 257
f 339 497 283
f 369 480 441
f 81 339 282
f 75 42 81
f 456 417 408
f 376 456 408
f 411 407 455
f 187 410 228
f 493 102 481
f 401 177 181
f 415 405 428
f 444 336 163
f 436 467 438
f 438 447 436
f 451 343 316
f 381 409 340
f 370 177 271
f 371 464 383
f 330 312 497
f 254 335 252
f 212 63 456
f 419 174 96
f 422 375 361
f 444 311 336
f 291 297 298
f 83 465 402
f 466 348 101
f 167 356 366
f 9 15 21
f 278 478 420
f 404 458 423
f 500 97 100
f 402 354 451
f 424 485 392
f 53 233 157
f 391 411 420
f 362 387 361
f 442 70 26
f 491 455 6
f 318 487 76
f 427 366 344
f 227 226 242
f 474 385 342
f 411 408 420
f 262 444 107
f 367 498 320
f 361 387 429
f 471 392 485
f 407 415 489
f 478 391 420
f 400 399 392
f 74 93 289
f 375 422 280
f 7 160 202
f 419 96 449
f 383 384 371
f 430 458 404
f 162 286 193
f 473 469 499
f 438 467 405
f 500 368 378
f 223 62 220
f 424 392 439
f 414 439 399
f 223 148 3
f 481 460 418
f 126 156 309
f 394 465 434
f 325 384 305
f 424 429 387
f 384 383 305
f 227 267 226
f 423 458 314
f 460 435 418
f 396 425 424
f 377 375 408
f 400 437 399
f 438 405 391
f 399 437 414
f 339 300 282
f 390 356 167
f 473 416 469
f 341 335 257
f 358 462 443
f 6 148 452
f 381 393 409
f 432 397 380
f 408 417 377
f 291 388 41
f 391 407 411
f 141 475 280
f 280 475 62
f 415 391 405
f 91 480 200
f 352 397 288
f 178 431 109
f 253 285 272
f 390 366 356
f 465 354 402
f 443 342 308
f 466 14 295
f 394 434 294
f 294 371 240
f 413 389 383
f 382 330 462
f 265 339 283
f 321 369 441
f 367 201 200
f 392 399 439
f 253 272 237
f 322 305 383
f 316 343 374
f 483 447 438
f 311 297 291
f 184 8 57
f 464 294 434
f 300 339 265
f 352 380 397
f 449 96 317
f 396 424 387
f 492 169 252
f 366 495 344
f 144 485 425
f 156 126 406
f 328 374 343
f 426 334 474
f 334 319 385
f 325 264 384
f 497 312 283
f 45 379 433
f 381 389 413
f 451 354 343
f 426 365 334
f 46 64 120
f 333 39 196
f 258 382 358
f 403 225 331
f 375 377 361
f 434 320 498
f 329 373 50
f 427 344 495
f 363 394 279
f 350 377 417
f 101 461 174
f 473 298 416
f 466 430 91
f 374 328 349
f 489 355 455
f 177 477 86
f 443 307 358
f 394 294 250
f 361 377 362
f 385 263 342
f 371 294 464
f 322 383 389
f 457 100 32
f 91 348 466
f 350 417 398
f 292 370 271
f 315 354 363
f 465 363 354
f 320 434 323
f 240 371 384
f 73 498 367
f 366 332 167
f 115 463 494
f 73 448 498
f 369 409 393
f 472 488 347
f 362 377 350
f 325 219 264
f 332 372 167
f 358 307 258
f 219 325 305
f 394 313 293
f 250 313 394
f 181 177 370
f 387 362 396
f 474 334 385
f 228 196 175
f 363 238 315
f 308 307 443
f 311 444 297
f 410 187 266
f 496 115 119
f 409 369 340
f 285 253 184
f 376 491 268
f 389 381 340
f 76 487 443
f 145 104 373
f 317 368 401
f 313 369 321
f 330 304 312
f 352 321 380
f 396 362 350
f 291 41 166
f 328 343 277
f 343 354 277
f 354 315 277
f 327 319 365
f 433 492 335
f 6 355 148
f 258 307 270
f 313 321 293
f 480 91 441
f 477 401 368
f 396 296 397
f 396 350 296
f 263 308 342
f 210 423 314
f 275 241 243
f 478 438 391
f 320 337 201
f 289 93 86
f 317 470 368
f 240 384 264
f 328 302 349
f 334 365 319
f 315 199 198
f 488 447 347
f 31 13 24
f 294 240 259
f 463 169 459
f 214 312 304
f 41 50 166
f 113 421 53
f 148 223 452
f 288 398 249
f 365 302 327
f 269 319 255
f 184 253 8
f 1 9 4
f 273 293 321
f 322 389 281
f 265 283 211
f 340 369 313
f 480 367 200
f 249 398 282
f 398 296 350
f 302 328 277
f 284 307 308
f 113 53 157
f 258 189 304
f 416 246 469
f 292 445 440
f 352 273 321
f 397 296 288
f 199 315 238
f 493 43 102
f 263 385 269
f 263 274 265
f 198 132 149
f 295 71 70
f 304 330 382
f 310 47 210
f 398 288 296
f 363 279 238
f 270 307 231
f 246 8 395
f 257 49 290
f 174 419 101
f 157 341 113
f 293 273 275
f 250 340 313
f 6 455 355
f 22 364 289
f 233 45 433
f 293 287 279
f 230 274 263
f 461 201 11
f 244 202 160
f 249 282 300
f 237 314 458
f 102 331 168
f 277 315 198
f 255 327 256
f 327 255 319
f 293 279 394
f 275 287 293
f 302 365 349
f 269 385 319
f 500 100 477
f 215 159 185
f 229 243 267
f 277 216 302
f 216 327 302
f 197 250 245
f 490 359 247
f 269 230 263
f 128 194 127
f 270 208 258
f 324 225 403
f 312 214 283
f 241 273 352
f 403 102 324
f 265 211 263
f 298 473 388
f 340 250 235
f 38 453 372
f 248 62 353
f 401 181 317
f 286 336 193
f 472 115 488
f 340 235 389
f 265 242 300
f 253 7 479
f 264 232 240
f 246 416 8
f 238 287 217
f 395 479 141
f 227 229 267
f 274 227 242
f 322 219 305
f 335 492 252
f 389 235 281
f 241 275 273
f 280 62 206
f 267 288 226
f 227 274 221
f 226 288 249
f 337 11 201
f 204 240 232
f 259 240 239
f 287 238 279
f 209 287 275
f 245 250 294
f 322 170 219
f 269 224 230
f 332 459 169
f 200 348 91
f 309 156 131
f 225 324 43
f 318 22 289
f 253 479 395
f 251 224 269
f 220 452 223
f 57 298 262
f 236 221 185
f 14 466 72
f 211 283 214
f 71 295 234
f 14 260 295
f 112 117 68
f 301 72 101
f 236 229 227
f 208 192 258
f 265 274 242
f 432 441 91
f 304 189 214
f 492 372 332
f 458 430 160
f 280 206 486
f 209 275 243
f 317 484 449
f 55 77 202
f 232 264 219
f 241 288 267
f 288 241 352
f 236 227 221
f 179 140 99
f 243 241 267
f 258 192 189
f 281 170 322
f 148 468 3
f 249 300 242
f 245 294 259
f 181 484 317
f 251 255 256
f 204 239 240
f 406 126 85
f 259 195 245
f 185 221 215
f 211 284 263
f 236 207 229
f 220 303 67
f 16 29 51
f 226 249 242
f 7 77 351
f 208 222 186
f 270 222 208
f 221 230 224
f 299 295 260
f 203 158 216
f 42 482 364
f 22 76 497
f 214 189 191
f 186 192 208
f 433 379 372
f 449 412 419
f 217 287 209
f 235 134 281
f 156 406 378
f 219 170 152
f 493 435 333
f 215 221 224
f 211 180 284
f 185 207 236
f 243 205 209
f 158 188 216
f 49 353 290
f 160 7 237
f 205 229 207
f 216 198 203
f 388 473 499
f 195 259 239
f 197 245 171
f 214 190 211
f 281 134 170
f 182 198 199
f 238 150 199
f 479 178 303
f 192 129 189
f 459 332 366
f 173 199 150
f 251 154 224
f 479 475 141
f 234 42 75
f 105 369 393
f 432 144 397
f 191 190 214
f 194 238 217
f 245 195 171
f 494 463 459
f 17 482 74
f 198 149 203
f 74 482 445
f 292 440 260
f 251 256 142
f 419 412 101
f 115 495 45
f 232 219 152
f 150 238 194
f 115 45 233
f 333 196 228
f 388 345 41
f 348 200 461
f 235 197 134
f 132 198 182
f 86 318 289
f 17 289 364
f 222 270 231
f 370 292 301
f 138 132 182
f 484 181 370
f 231 213 155
f 461 101 348
f 331 145 34
f 212 376 268
f 199 173 182
f 136 180 165
f 224 154 117
f 172 142 256
f 34 373 329
f 412 449 484
f 180 213 284
f 488 115 496
f 289 17 74
f 116 192 186
f 207 185 159
f 220 62 303
f 7 351 59
f 156 96 131
f 111 77 55
f 184 247 359
f 338 111 109
f 338 109 431
f 491 6 268
f 271 177 93
f 176 204 164
f 133 239 204
f 284 213 231
f 452 220 67
f 228 225 43
f 180 136 213
f 476 247 262
f 188 172 256
f 239 106 195
f 180 211 190
f 116 129 192
f 386 452 67
f 164 139 176
f 59 431 178
f 133 204 176
f 107 444 163
f 213 136 155
f 55 67 303
f 412 301 101
f 215 224 117
f 292 260 301
f 182 173 138
f 103 161 137
f 142 154 251
f 404 432 91
f 117 159 215
f 124 142 146
f 110 146 142
f 188 137 172
f 483 353 49
f 485 144 210
f 143 171 195
f 179 194 217
f 143 197 171
f 150 194 128
f 173 150 151
f 137 161 172
f 191 189 129
f 86 100 457
f 149 146 203
f 180 190 165
f 463 254 252
f 3 421 261
f 81 364 22
f 143 195 106
f 421 3 468
f 152 170 135
f 205 179 209
f 143 134 197
f 7 253 237
f 7 202 77
f 176 139 79
f 142 172 161
f 152 118 232
f 93 445 271
f 347 49 472
f 210 47 471
f 159 140 207
f 256 216 188
f 260 72 301
f 426 32 100
f 176 79 133
f 112 159 117
f 290 3 261
f 286 228 410
f 155 136 90
f 194 179 127
f 191 129 130
f 173 151 138
f 487 318 450
f 286 410 163
f 158 203 110
f 150 125 151
f 345 123 175
f 108 154 142
f 222 155 89
f 107 476 262
f 131 96 337
f 134 135 170
f 132 138 121
f 388 291 298
f 95 78 127
f 125 150 128
f 370 301 484
f 118 164 232
f 130 165 190
f 190 191 130
f 187 175 123
f 147 162 193
f 58 13 25
f 233 119 115
f 129 116 33
f 110 142 161
f 128 149 125
f 49 254 472
f 406 316 326
f 106 239 84
f 67 442 386
f 445 482 440
f 81 42 364
f 326 378 406
f 140 159 112
f 178 55 303
f 59 178 479
f 479 7 59
f 205 207 140
f 82 124 128
f 404 144 432
f 165 130 122
f 254 463 472
f 105 73 367
f 75 26 71
f 114 164 118
f 108 142 124
f 134 106 135
f 99 127 179
f 234 299 42
f 106 84 65
f 158 137 188
f 140 179 205
f 132 125 149
f 2 1 4
f 94 99 140
f 143 106 134
f 468 148 355
f 157 233 341
f 442 26 386
f 34 145 373
f 204 232 164
f 31 9 44
f 124 146 149
f 70 71 26
f 124 149 128
f 285 310 272
f 298 57 416
f 125 121 151
f 164 120 139
f 239 133 84
f 114 120 164
f 70 442 202
f 68 117 154
f 152 135 118
f 103 158 110
f 26 212 386
f 62 475 303
f 133 502 84
f 88 82 128
f 391 415 407
f 127 88 128
f 135 106 65
f 351 183 431
f 94 140 112
f 129 80 130
f 138 151 121
f 231 155 222
f 89 186 222
f 87 186 89
f 130 80 122
f 160 430 244
f 345 196 50
f 158 103 137
f 67 55 202
f 42 299 482
f 121 125 132
f 86 93 177
f 311 166 193
f 480 105 367
f 341 233 433
f 80 129 33
f 257 335 254
f 412 484 301
f 116 186 87
f 79 502 133
f 11 337 96
f 161 103 110
f 338 431 183
f 169 463 252
f 93 74 445
f 124 82 108
f 112 68 66
f 120 502 139
f 90 89 155
f 60 87 89
f 3 290 353
f 61 28 65
f 85 126 402
f 61 56 28
f 92 84 502
f 254 49 257
f 147 166 50
f 156 317 96
f 274 230 221
f 30 58 89
f 304 382 258
f 53 276 119
f 98 95 99
f 112 66 94
f 145 162 147
f 284 231 307
f 90 30 89
f 187 228 175
f 127 78 88
f 154 69 68
f 51 98 94
f 77 111 306
f 94 98 99
f 46 120 114
f 162 331 225
f 451 406 85
f 56 114 118
f 392 471 400
f 153 111 338
f 153 338 183
f 95 27 52
f 306 351 77
f 9 21 4
f 51 66 16
f 95 52 78
f 457 318 86
f 461 11 174
f 33 116 87
f 360 183 351
f 82 78 108
f 108 69 154
f 82 88 78
f 75 71 234
f 51 94 66
f 13 58 24
f 92 46 84
f 69 108 78
f 8 416 57
f 80 21 122
f 246 454 469
f 135 65 54
f 498 448 464
f 40 66 68
f 228 286 162
f 284 308 263
f 90 136 21
f 127 99 95
f 147 50 104
f 87 23 33
f 21 80 33
f 360 351 306
f 92 502 48
f 46 114 36
f 56 36 114
f 111 153 306
f 84 61 65
f 118 54 56
f 373 104 50
f 69 40 68
f 212 456 376
f 502 120 64
f 61 84 46
f 60 58 25
f 90 21 30
f 317 156 470
f 64 46 92
f 60 25 31
f 21 33 12
f 502 64 48
f 40 35 16
f 52 69 78
f 69 52 40
f 27 95 98
f 433 372 492
f 92 48 37
f 202 442 67
f 87 60 44
f 467 276 421
f 21 136 122
f 359 47 310
f 29 98 51
f 31 10 9
f 26 19 212
f 430 404 91
f 490 476 400
f 27 98 29
f 153 218 306
f 23 87 44
f 64 37 48
f 210 314 272
f 96 174 11
f 165 122 136
f 81 19 75
f 310 210 272
f 65 28 54
f 58 30 24
f 66 40 16
f 311 291 166
f 470 378 368
f 56 61 36
f 218 153 183
f 31 44 60
f 15 30 21
f 28 56 54
f 27 35 52
f 162 225 228
f 12 33 23
f 46 36 61
f 433 335 341
f 299 440 482
f 135 54 118
f 323 309 131
f 24 30 31
f 20 23 44
f 27 29 16
f 160 237 458
f 57 262 247
f 9 20 44
f 37 64 92
f 50 196 329
f 40 52 35
f 360 218 183
f 16 35 27
f 25 13 31
f 4 21 12
f 15 31 30
f 15 10 31
f 20 9 2
f 147 104 145
f 55 178 111
f 444 262 297
f 216 256 327
f 336 311 193
f 20 2 4
f 20 4 5
f 5 23 20
f 235 250 197
f 5 12 23
f 306 218 360
f 5 4 12
f 10 15 9
f 75 19 26
f 193 166 147
f 1 2 9
