# Stanford Armadillo
# quadric edge-collapse decimation to 2000 triangles, 1002 vertices
v -51.1979 67.30166 -58.04173
v -58.14921 66.56348 -53.14273
v -26.92864 -8.488209 18.94493
v -57.18209 64.2605 -48.39207
v -20.18052 -27.95225 9.665747
v -56.83562 59.58802 -55.41881
v -37.48513 5.996628 15.65728
v 20.07817 59.54124 30.64958
v 2.971837 16.32767 29.63197
v -56.32538 69.30696 -54.74828
v 17.56963 -2.221742 23.3962
v -51.93862 72.83307 -52.04796
v 17.06212 42.71565 28.09991
v -57.68783 70.30899 -47.2356
v -60.07164 60.97406 -53.37278
v -57.90911 58.04748 -53.85947
v 33.29635 -19.75139 9.68973
v -49.96175 76.4639 -54.48037
v -54.66098 74.35783 -53.0851
v 14.12545 -9.290017 8.760872
v -55.01479 69.27304 -50.22796
v -55.7314 76.16369 -50.88022
v 22.69005 52.21062 26.55395
v -53.26621 75.23881 -46.10417
v -55.37607 70.13617 -47.81304
v 0.1854843 61.73172 -49.13097
v -25.13984 -38.24263 20.53743
v 35.07999 -6.184959 10.46476
v -60.28049 68.46504 -47.72174
v -61.91143 62.81702 -46.88081
v -56.55744 59.83301 -46.58198
v 25.04207 13.99055 18.39808
v -55.36074 65.64634 -47.59166
v -48.28222 83.90848 -45.79668
v -0.8001882 48.58287 35.42902
v 3.001139 60.89709 -46.27689
v -59.5264 71.39833 -45.84408
v -52.4156 72.13646 -44.92292
v -4.747454 57.45239 -44.11187
v -24.06518 44.04379 22.68396
v 29.01061 -25.53361 4.619249
v -20.71634 28.86144 13.22293
v 24.46469 49.69391 17.80307
v -63.10682 63.57657 -39.56725
v -61.5556 66.37266 -46.42332
v 18.61926 55.39016 30.97499
v 1.800709 58.11897 -47.31744
v -54.78532 60.91789 -42.54275
v -32.00467 48.18406 8.943374
v -29.46841 51.6184 12.6692
v -61.35796 58.75399 -45.3995
v -11.98077 22.19748 29.4268
v 57.48134 77.2615 -43.14985
v -57.03865 76.6403 -43.8584
v -51.00372 77.71185 -41.73515
v 51.73939 81.89285 -44.24687
v -52.92965 83.42159 -44.43429
v -20.21201 26.2215 20.90216
v 6.500905 56.64349 -40.33018
v -53.61447 65.26545 -40.96044
v 58.70191 73.99727 -42.78853
v 59.92961 77.40181 -35.9028
v 0.5379735 55.22334 -41.52537
v -50.72668 74.3859 -39.12021
v -54.56458 76.96438 -43.15202
v -56.36223 79.85152 -40.3063
v -5.252644 89.14681 16.5945
v 17.38356 71.72974 29.15465
v -24.38138 73.86119 8.26314
v -52.06714 84.01267 -43.01939
v -62.13653 60.1106 -37.70416
v -23.62634 -10.48171 5.471038
v 18.58475 -52.59475 23.04274
v -1.083779 62.52176 -44.34061
v -61.77815 69.61279 -40.04241
v 17.66488 80.31018 14.45741
v 28.81427 -43.43953 19.25329
v -51.03345 66.24347 -35.88524
v 60.81127 75.90501 -35.54522
v 18.15163 33.33408 10.88882
v 56.67634 82.86568 -40.22253
v 55.70324 77.17241 -37.06513
v -59.14704 57.9571 -43.40173
v 48.44085 87.59201 -40.76456
v -50.23862 -48.29135 10.1178
v 18.54626 -48.11285 10.1451
v -6.903015 62.09423 -40.2298
v 60.73239 75.02771 -41.38214
v 7.107982 60.36585 -42.45313
v 12.78796 -32.57924 20.79984
v 3.014479 63.32929 -39.33512
v -5.389905 -9.879334 58.09908
v -23.61946 -27.2167 19.26413
v -22.45213 40.92171 20.70479
v 32.82233 -46.63289 10.90732
v -60.71722 74.46876 -39.85609
v -16.83852 33.82411 27.451
v -40.75662 -41.80761 12.80238
v -58.03244 78.70681 -38.203
v 55.03855 81.29312 -34.53169
v 33.9835 4.17637 8.779791
v 49.18663 88.90583 -38.7999
v -22.67401 -19.95949 16.66443
v -26.36858 66.69085 24.23433
v 14.09035 -40.17498 23.92315
v -5.445864 56.0445 -37.91629
v -1.855277 64.11582 -39.18521
v -40.6276 -28.83838 11.63107
v 61.20679 69.85722 -36.2999
v -6.633972 8.585023 26.60046
v -1.7881 54.45244 -35.63379
v 19.05311 47.7846 29.62284
v 62.68685 73.14217 -35.30726
v -59.51865 74.75035 -33.46887
v 12.75055 -24.29134 10.46664
v 21.53395 -9.934118 20.20048
v -51.07982 79.02017 -39.53596
v 2.688737 8.583428 30.75436
v -56.63279 58.63694 -34.15182
v -52.79467 60.03518 -35.22718
v 25.72848 -9.0136 19.65502
v -55.41854 78.03298 -35.37633
v -14.99559 39.92941 29.43816
v -61.85247 66.91522 -34.33935
v 57.98731 69.69195 -36.48227
v 56.93528 74.45752 -37.25322
v -16.56088 -3.251022 20.6242
v -21.23824 20.04891 3.565635
v -20.89824 23.82731 8.239439
v -4.959851 17.00063 30.10544
v 54.08272 86.33046 -36.96078
v 11.75648 -0.8049762 20.58346
v 1.533743 54.31855 -34.7597
v 6.814681 3.219533 20.92087
v 25.7858 56.52803 18.02101
v -33.8988 6.34288 21.11836
v 2.094739 66.33833 -36.56216
v 55.88038 68.62492 -32.60366
v -7.755334 58.90355 -35.61824
v -12.454 13.16779 27.40022
v -8.91983 63.20783 -30.11777
v -4.635125 64.99784 -32.9493
v -9.995429 27.95757 31.502
v -3.773235 68.41694 -34.5395
v -6.564986 72.04335 -34.5524
v 16.93826 24.2323 20.67796
v -5.913924 74.15019 35.86585
v -12.92654 32.08723 29.28383
v 3.939497 46.33761 37.95207
v 35.32762 47.68624 10.43597
v -24.26674 49.76147 25.8579
v -18.04828 31.16587 23.57131
v -40.31351 56.88432 7.621351
v -4.251685 56.5232 -32.70387
v -4.925108 2.609918 36.9548
v -60.20608 60.44698 -31.97325
v 4.574672 66.81375 -33.08797
v 10.57591 56.74292 37.18281
v 48.76672 89.84886 -33.77213
v -50.80418 55.75372 -34.35745
v 31.04328 64.69673 9.687381
v -27.03673 43.91003 7.212311
v -26.65945 67.98481 21.29736
v 3.431696 69.11972 -33.40683
v 26.61332 68.13626 8.770083
v 53.31618 76.34892 -32.13247
v 16.8769 82.33313 13.90275
v -3.319386 -4.967173 36.69181
v -21.32764 74.79878 24.2843
v 8.609249 58.73913 -33.38279
v -60.30513 66.19613 -30.66632
v -2.541644 72.46942 -30.62415
v 5.631863 71.32804 -32.92877
v -52.52376 74.28956 -31.00952
v 62.99492 73.15333 -27.60575
v -22.7595 74.21892 22.48119
v 14.17516 81.52597 4.713159
v -49.23338 71.42706 -32.47256
v -18.43885 82.3757 11.08185
v 52.03808 79.98735 -32.63126
v 17.97827 35.63765 19.72589
v 52.18858 82.86305 -34.86558
v -40.28603 -29.28983 19.35376
v -26.01788 61.23769 27.28264
v -3.606153 51.29174 -30.75259
v -59.31245 56.7781 -30.1127
v 7.703679 59.82505 -29.23744
v 8.663455 63.7159 -29.91179
v 16.87465 -44.93187 15.59649
v 17.44212 68.79423 31.30352
v -8.096083 89.56451 6.150086
v 0.7210694 89.99602 6.649762
v 4.155926 56.17119 -33.41944
v 6.263438 56.06338 -28.40637
v -19.72227 79.82363 14.81599
v -45.55144 68.09765 -28.91562
v 8.255258 70.91427 -32.81018
v 9.861503 49.13304 36.01271
v 17.44417 80.54108 16.9162
v -9.346859 71.10462 -28.73133
v -17.95138 96.15277 -30.79074
v -19.01321 81.7536 16.25176
v 33.58119 -51.36758 8.055811
v -43.80897 70.1334 -30.5399
v -56.54116 73.56651 -29.18214
v -16.90342 26.57978 26.29644
v -18.01008 93.99377 -30.83821
v 14.60291 -48.48203 31.50259
v -50.16252 -47.52642 6.370032
v 31.98753 44.36367 6.12673
v 4.202419 52.3574 -30.05518
v 18.66869 38.56362 21.06888
v 51.74933 68.95644 -26.06696
v 32.85161 -21.05963 13.76127
v -8.363705 74.04721 -28.37234
v 3.67901 74.91967 -30.07691
v 0.7335891 -4.903921 35.76878
v -11.68234 86.543 -30.63077
v -6.093018 -2.577186 41.22547
v 2.452449 86.00569 25.24126
v -6.434459 55.52555 -30.29515
v 4.766617 72.89066 -29.43819
v -13.45384 96.22006 -24.81015
v -39.92833 -19.57427 19.40318
v 61.17603 78.86106 -30.98108
v -28.59395 -41.21813 8.944451
v -30.39647 -5.81835 19.85379
v 50.49322 90.44429 -31.03935
v -22.93528 96.25857 -30.43305
v -62.55252 62.28804 -27.17624
v -9.731834 62.27719 -25.38848
v 63.51003 69.72239 -31.06389
v 32.15382 -18.28686 13.95262
v -40.00738 -32.21245 8.330508
v 57.53267 83.81063 -29.88352
v -8.993269 87.69772 -29.30919
v -12.69352 94.72988 -27.66841
v 16.73072 93.12526 -29.34459
v -49.17311 57.08796 -29.90996
v 21.87581 -31.24467 8.52724
v -60.85765 68.99256 -27.12434
v -5.870768 75.63666 -30.22443
v 11.30998 83.27889 -29.09219
v 21.64 74.9671 10.13531
v -27.92147 16.71309 19.11055
v -46.19481 59.88402 -28.89709
v 8.686528 62.78792 -27.82628
v 52.76744 65.38849 -27.64954
v 8.673952 65.71713 -28.46181
v 10.36188 77.45988 -25.93389
v -45.10238 -44.77084 8.262936
v -55.36293 52.51121 -26.24057
v -47.47936 52.57355 -28.30351
v -27.6501 -51.52067 11.44124
v 5.83648 68.47871 36.87902
v 48.86108 59.94313 -26.75491
v 17.48944 -53.14603 13.09852
v -53.07985 74.55188 -24.79663
v 23.78026 69.25528 22.11635
v -1.003972 77.48268 -27.31424
v 7.525744 86.99168 -24.55906
v 57.7849 81.3984 -22.8495
v 48.78759 83.72899 -26.64653
v 52.73579 59.01851 -26.71262
v 57.91795 64.94567 -27.03685
v -40.40699 66.65601 -23.78778
v 19.51237 -39.32134 13.98714
v -3.136001 79.92416 -25.93791
v 4.43571 79.9219 -24.61995
v -21.11039 91.91153 -26.25427
v 22.29054 97.21937 -26.0979
v 19.14737 52.49806 30.80752
v 23.11127 55.92382 26.73489
v -26.05965 -45.12934 12.40853
v 54.80596 85.04478 -26.90756
v -24.49383 -15.75185 9.930315
v 19.082 69.65896 29.63264
v -0.5070669 52.4065 -26.6417
v -0.01836338 5.755931 7.35769
v -41.93024 63.36098 -22.42337
v -11.99686 76.62931 -23.63407
v -9.876164 79.70827 -25.83991
v 49.38607 76.50706 -24.18501
v 16.68638 -41.98352 17.77435
v 50.26193 63.35333 -25.62723
v 15.08263 -19.79183 19.47939
v 5.20587 77.87855 -25.51781
v -18.34331 95.64494 -24.14617
v 4.534968 56.93406 -24.96945
v 17.18942 27.62897 10.38734
v 9.613315 73.56317 -24.66229
v 18.84709 -53.28054 32.22161
v -7.114654 80.69108 -25.31011
v 24.03662 41.85929 10.00631
v 19.08892 -44.10001 29.6805
v -4.122134 -6.305736 42.14312
v 0.8671108 -1.764608 31.33093
v -36.24441 0.03740989 18.4283
v 6.589719 81.61309 -22.84477
v 9.652878 80.25186 -22.09329
v -4.777114 84.59405 -21.18367
v 15.9341 91.84557 -25.82271
v 11.53997 92.443 -23.21972
v 21.15247 70.41659 25.12566
v 61.04643 66.27462 -23.53704
v 11.81027 64.62337 -24.75767
v -3.816184 -7.065976 49.96932
v -14.32796 71.84021 -21.82585
v -47.38925 73.71803 -27.44975
v 15.92729 78.73076 25.81002
v -39.46723 -35.48009 19.62102
v -11.41568 85.97122 -23.8204
v -8.363973 90.21671 -21.3324
v -6.489726 58.59393 -22.17116
v 8.276554 88.73402 11.03533
v 12.56474 70.07166 -22.35146
v 4.979563 20.9223 31.16662
v -9.589007 81.03829 -22.82638
v 25.91535 -45.09363 26.23957
v -60.0091 56.43572 -24.27898
v -18.17755 35.66653 22.33323
v 33.16091 -29.61561 18.56067
v -49.14051 72.83684 -19.77056
v 60.24174 77.15386 -23.92516
v -43.49988 56.11271 -22.58582
v 17.3572 -38.30352 29.34887
v 31.87512 -30.1997 12.35309
v -45.1968 50.888 -23.40727
v 10.22784 37.44023 29.5728
v -29.04053 -53.607 12.23561
v -43.71416 71.49812 -23.20807
v 59.21006 72.1806 -19.65285
v 48.8267 82.85874 -23.51185
v -47.64393 -53.06708 8.304006
v 24.65048 -53.20226 5.936025
v -22.26009 -51.97525 19.3817
v -40.87978 54.03569 -22.41442
v 56.55998 57.20218 -22.59423
v -2.837125 -10.89173 55.83907
v -10.32715 -0.07405953 15.97801
v 13.95213 -53.19985 20.7969
v -62.86503 57.87561 -21.3372
v 46.94576 57.71728 -21.31154
v -16.17298 82.39156 -21.64751
v 20.31688 88.86648 -21.45336
v 18.65914 62.61568 30.83933
v 23.07497 -37.5093 12.85979
v -17.42659 71.8358 31.17399
v 52.78729 84.94167 -21.92686
v -25.04353 -51.64665 26.30248
v -16.63615 73.36346 29.03425
v -1.033198 1.839436 27.41606
v 7.945964 63.09181 -22.00924
v -38.11446 61.95537 -21.22746
v -32.05967 62.06687 9.718483
v -36.86902 -36.13285 6.964353
v 16.44745 81.22829 -19.87215
v -9.843746 69.2895 35.91285
v 3.23555 4.487978 29.5332
v 15.64413 91.44096 -19.2828
v 0.1647349 -5.022105 50.50262
v -8.906632 78.74951 32.52188
v 24.43134 -4.288098 22.02766
v -9.525498 61.44232 -17.0171
v -63.24416 66.47761 -20.80821
v -12.09484 64.34175 -27.30987
v 27.04513 -33.87934 9.34716
v 31.42333 -28.29941 23.36951
v 0.3699589 82.56417 30.24839
v 19.31674 -34.40694 9.810081
v 16.66854 -28.18384 7.472134
v -16.05708 95.1174 -22.41306
v -53.38958 51.01691 -16.82025
v -40.33649 53.19615 -19.16688
v 31.24264 -28.10182 8.286642
v 0.4118402 59.11563 38.79645
v -6.170876 6.924084 20.45931
v -48.59523 49.411 -20.29614
v -60.24489 56.57846 -15.15788
v 26.45075 -40.32643 27.08229
v 12.28213 64.18797 -22.31764
v 44.08321 67.48545 -17.0213
v -58.61008 72.55924 -21.26126
v 11.62206 75.79504 -21.41048
v 54.55215 80.27882 -18.17017
v 22.78407 -41.55611 13.68513
v -0.1425157 9.678181 31.93124
v -43.06546 -16.21283 6.343437
v 43.48461 54.23393 -20.94156
v 16.63895 -11.77972 16.86047
v 7.13037 83.6504 -15.29935
v 10.99648 79.16888 -15.23315
v -47.24236 49.76709 -16.07933
v 22.90733 42.45988 18.68782
v 24.01605 52.37614 23.28299
v -6.627147 21.41241 31.34922
v 25.35519 58.24439 21.10914
v -15.78705 70.87185 -17.48999
v -0.2944138 83.3652 -22.3321
v 56.88005 55.34695 -17.44327
v -56.98008 54.1081 -17.18962
v -26.83559 -14.25823 15.2121
v -23.1345 -12.0531 10.74298
v 43.15648 72.64677 -17.95486
v 47.53675 75.15877 -20.12133
v 53.03466 76.61988 -16.88349
v -18.26341 -8.876018 10.96841
v 49.78609 52.42021 -21.01139
v 0.7146868 54.16203 -19.40796
v 5.438521 58.01814 -18.10482
v -38.71225 63.85159 -15.18773
v 23.61001 -53.46336 27.06775
v 18.53542 -21.49958 24.79523
v -11.49933 2.58003 7.774425
v -36.21659 9.943477 6.751146
v -4.13712 55.77671 -18.7329
v -13.47599 34.60154 30.94081
v -58.47598 63.52108 -11.52404
v 9.272597 63.49586 -15.9165
v 27.46214 15.78609 11.85318
v 22.54642 18.28419 12.27314
v -37.63577 57.93288 -16.25404
v -22.56152 23.88635 16.06096
v -40.536 68.64375 -18.59067
v 42.53678 50.17141 -15.6017
v -41.85147 51.92853 -16.39628
v -11.92415 46.80264 35.95391
v -11.41341 66.57455 -16.93918
v 39.49127 67.20337 -13.6424
v -18.60045 45.36128 31.1843
v -15.38417 88.92713 -20.02339
v -5.47537 85.78694 -14.44596
v 34.21919 55.26851 14.02536
v 10.22222 67.36099 -16.02344
v -26.45962 73.71875 12.33243
v -6.42502 -11.44977 55.83685
v 52.00664 50.2928 -12.93779
v 38.81338 56.02412 -16.02198
v 63.12509 64.20303 -15.7185
v -21.60977 5.860023 26.0498
v -15.84636 64.00507 -12.61482
v -58.57158 68.9904 -16.51526
v 2.305939 84.55668 -16.46446
v -2.012184 67.5119 38.34101
v -38.10166 49.75001 -14.08655
v -26.93993 -1.111057 23.39132
v -15.23711 66.70225 -17.82329
v 35.83318 -47.34835 12.4655
v -35.66936 58.74723 9.8917
v 12.92332 4.751347 23.94286
v -4.556302 45.81896 -14.84997
v -14.57999 53.19024 -14.04632
v 29.38824 -43.9874 14.54712
v -5.537925 54.95467 -14.8422
v 41.32949 61.26138 -14.18541
v -20.91694 63.32557 -14.39693
v -56.32874 67.51351 -12.02458
v -54.13009 70.68685 -17.22465
v 57.95159 73.89153 -15.20266
v -40.2292 -38.77591 14.11875
v 3.676142 38.3065 -13.09218
v -14.1408 36.79815 28.54817
v 46.58642 50.355 -17.73004
v -41.54035 -30.87359 15.49129
v 1.211368 48.84063 -12.22563
v -11.35416 59.67553 -13.80973
v 7.312464 13.81466 26.94853
v 13.9549 68.79622 -16.16436
v -18.5883 69.65312 -11.95771
v 46.15364 75.41563 -16.12276
v 49.73783 74.51385 -10.56997
v 0.8692012 44.43927 -13.0537
v 7.527607 48.67379 -14.44957
v 9.10378 45.03871 -14.91038
v -16.6519 48.39052 -15.02896
v 35.13638 -53.76292 13.99305
v 1.759362 53.30179 -14.46638
v 7.620904 57.99326 -13.75117
v 0.6601779 24.68096 31.46058
v 37.94097 62.66588 -13.28081
v 10.78581 -4.513884 13.47759
v 30.62113 -6.145212 17.25035
v -13.60048 -4.494839 13.78812
v -24.10471 41.92479 23.52271
v -9.059679 38.33061 -13.96384
v 13.83678 82.4623 20.3152
v -39.51484 3.443637 10.00993
v 38.53933 54.3679 -10.69015
v -14.86685 74.46352 -15.61348
v -23.1437 -47.41947 21.94678
v -0.4509386 47.1803 -11.70515
v 10.2359 8.929059 26.43522
v 21.14325 39.07733 12.97921
v -25.82412 -44.08254 21.24028
v -25.25639 41.36596 6.960576
v 8.815059 27.35347 31.53284
v -29.71746 62.97046 12.67126
v -13.60448 77.55222 -11.33255
v -10.64973 80.69859 -16.1673
v -28.62383 -35.20435 23.05534
v 41.43688 51.12773 -13.31757
v 13.13895 56.86046 -11.20627
v 0.3692758 29.52111 31.50218
v -26.96849 -26.12449 21.67029
v -52.15906 55.69553 -10.32398
v -16.96386 56.66423 -12.60202
v -31.01176 -52.57963 20.57055
v 42.66834 70.68254 -11.97651
v -4.381024 48.67272 38.27489
v -34.74637 -18.04858 21.58088
v 27.7845 -15.81915 18.86442
v 56.12815 53.88972 -10.51032
v -33.36837 62.27412 -12.04742
v 63.37561 62.18945 -10.62507
v 17.96042 64.97547 -12.49564
v -16.20089 2.99461 24.50102
v 58.00255 72.10189 -9.200725
v 12.34525 76.70877 -11.08611
v -2.282857 38.40121 -10.08432
v -20.32819 47.72426 -13.22855
v 33.64994 -23.66775 9.847826
v -49.10854 51.41657 -12.5412
v -7.520945 52.62601 -11.53128
v -31.44382 13.31175 21.14003
v -22.72167 67.76383 -9.397909
v -52.17677 67.78307 -11.47791
v -19.72783 61.75273 33.61847
v 16.66586 -18.19644 10.47852
v 20.61214 13.01861 21.6509
v -42.04262 -19.17681 12.70507
v 18.87791 51.21806 -11.05816
v -20.42021 55.86974 -11.28673
v 11.77794 57.77295 -12.69634
v -41.57494 -26.60404 6.535617
v 13.95017 16.26411 25.98605
v 14.30675 73.18055 -13.03535
v 1.819341 85.50888 -9.058924
v -20.70106 32.88812 18.61303
v -16.43192 -4.480096 9.59975
v 19.92494 66.98492 -9.739571
v -46.53165 69.67196 -13.35387
v 20.81289 76.60217 19.5915
v -4.919469 5.615735 9.204435
v -6.295347 0.7988217 32.73064
v 48.52854 49.20422 -11.53547
v -17.00228 75.95475 27.79054
v 20.0514 58.81873 -9.388907
v -3.056395 10.47892 31.63802
v -18.31423 35.91726 -4.512117
v -24.16244 49.83691 -8.78342
v -32.53914 48.7357 -10.62661
v -10.54086 83.49711 26.19521
v -52.27652 60.79385 -9.584424
v -41.84143 65.84239 -11.71499
v 22.87995 10.14207 24.16205
v 30.84735 -37.93805 22.03459
v -0.796823 27.37509 32.76917
v -26.87226 45.33318 17.25655
v 0.5295398 27.24843 32.82995
v -34.26822 -39.19057 22.32339
v 15.98515 42.47316 -11.31293
v -27.09632 55.534 -9.510746
v 13.19267 65.03117 -9.680302
v 4.672343 74.74763 35.98485
v 7.726149 81.98383 -11.79509
v 0.5359521 38.05535 -10.36142
v -10.35031 34.51681 -10.56982
v -22.70004 41.01751 -3.72502
v 4.663984 36.58456 31.79719
v -29.04162 54.78395 17.38979
v -33.08317 54.27263 -13.2772
v -28.99996 -17.42831 20.20318
v -3.695126 37.8088 33.38852
v 14.98023 -27.50818 24.91523
v -12.9032 56.17174 37.71404
v 15.8521 57.19511 -9.698509
v 21.63339 59.68983 -9.942205
v -22.58077 57.07521 -11.83968
v 38.81696 61.94901 -8.530529
v -23.07932 -40.19561 16.50593
v -8.515415 38.15192 31.9232
v 1.897273 29.43611 -9.479751
v 26.18084 -19.18215 24.62212
v 20.37078 -16.11447 20.29745
v -18.9898 41.15362 30.37153
v -16.89749 39.69112 -11.60839
v -30.13646 59.83741 19.65069
v 2.127045 51.18748 38.44368
v -42.94009 47.83238 -10.20217
v 44.24461 68.64883 -6.731843
v 34.81992 62.05285 10.58196
v -6.497964 85.65879 -9.063251
v -43.8353 -53.63449 -10.28901
v -9.911951 7.118075 23.2531
v -47.2037 50.59207 -7.905734
v 24.68702 6.026786 24.37199
v 58.30484 57.02879 -5.816073
v -5.700662 -2.679811 54.06459
v -37.20006 -8.738373 13.79577
v -45.2763 65.50591 -7.709133
v -38.76532 66.27017 -5.708246
v 52.55768 69.86033 -6.775097
v 23.83423 70.32719 17.70122
v 28.94971 10.61294 19.45248
v -21.35459 78.19118 9.846288
v 27.01984 -24.59998 27.10578
v -36.30047 46.47259 -6.624844
v 27.20054 53.22797 -6.287542
v 18.31358 22.94122 20.39821
v -36.78638 65.54714 -9.893925
v -33.21759 15.0325 13.44583
v 11.51357 77.98707 -6.795752
v 4.169519 84.58985 -8.112263
v -1.581366 90.77627 10.29054
v 10.18132 75.58355 32.58253
v -29.85752 61.76457 16.10086
v -8.872985 33.42964 -6.549316
v 33.71398 -54.0826 10.78255
v 40.11199 -53.53387 5.437734
v 20.69788 56.6072 -7.839774
v -27.18769 62.23605 -7.892958
v -27.22164 55.03405 23.75852
v 6.889739 78.16887 32.99812
v -14.31705 77.76729 -7.318242
v 0.7834714 90.26306 -6.654854
v -6.70946 27.60119 -6.707985
v -7.868939 29.43462 -7.796846
v 28.73467 56.16144 15.89523
v -27.15946 48.86461 -6.950549
v 21.84613 47.37511 -5.503175
v 51.59171 52.03427 -6.820275
v 26.13293 66.20598 15.71433
v 39.66905 -50.04023 6.269561
v 35.44438 59.23934 -8.318096
v -25.68949 56.80291 25.78567
v 56.7435 65.78914 -2.724665
v 2.143817 2.611274 37.12413
v 4.869292 88.03383 17.64918
v -10.15832 81.52715 -8.377615
v -23.54417 -53.46073 23.89875
v -4.011772 89.99082 -7.21866
v 8.731607 32.44403 -5.681791
v -15.75873 84.64161 15.27907
v 12.87054 -51.00876 21.64886
v -34.68227 -41.93766 8.024462
v -6.645314 -4.726581 50.65748
v -42.51612 48.9492 -2.318933
v 0.6670854 89.62706 14.8265
v 29.76411 -47.62321 20.99222
v -39.40605 -52.64501 11.3575
v 26.91819 -44.59938 8.582347
v -17.97294 78.46002 -5.464294
v -29.17799 -42.9711 22.98194
v 27.38284 -33.11164 27.79204
v -52.01999 -53.83324 -6.527298
v 9.784926 33.2345 31.46281
v 23.81426 64.0574 24.65086
v 2.253804 23.2703 -6.178825
v 6.934278 28.31812 -5.446834
v -0.2036321 -5.865206 42.19452
v -24.46035 44.81426 -2.823043
v 38.77251 47.61969 -9.054972
v -34.86175 -32.26159 22.83882
v -48.80839 58.31831 -4.656107
v -29.12663 65.99219 -2.810366
v 6.50352 35.76895 33.61039
v 9.388627 85.82159 -6.547414
v -5.102457 35.44916 34.25383
v 28.24641 -39.38275 15.40497
v -42.38283 -53.13585 -9.968047
v -22.00355 -35.14566 15.47305
v 14.31828 -34.88179 13.9912
v 23.0457 56.13513 -7.027226
v -34.85741 -25.17321 23.30851
v -26.26948 68.55468 -4.231706
v -20.94271 -22.50907 12.1429
v 22.12529 -29.3979 28.53544
v -24.51054 13.2551 24.34374
v 17.51718 39.52026 28.1874
v 9.942146 41.73455 33.64989
v -10.09783 87.49851 -6.02395
v -51.6721 -50.89266 -5.514913
v -7.184688 23.27119 -5.239311
v -1.698711 2.813224 39.82894
v 11.50642 34.26868 -9.423066
v 23.83131 73.4183 15.17906
v 16.9031 47.54112 31.51226
v -21.41004 -1.572155 23.89699
v -21.93955 -9.894223 16.33427
v 15.62805 79.15418 -4.945871
v -39.31831 -2.863735 13.47275
v -48.73756 -51.931 -5.385828
v 28.6019 -52.43966 -6.690179
v -21.95687 -19.38922 6.813379
v 25.43752 0.7598412 23.50825
v -31.30013 46.07396 -3.603333
v -48.24925 61.88044 -2.016172
v 32.17246 2.89397 17.08784
v -20.62075 72.0543 -4.791777
v -1.866495 -2.984697 54.22099
v 0.2603598 14.77122 -4.317803
v 2.892229 18.85785 -5.083715
v -5.094158 20.59243 -5.736942
v 20.04702 69.25418 -0.9600066
v -27.24041 43.05312 13.9144
v -14.49927 83.10158 -6.739546
v 5.116442 88.6053 -6.436941
v -43.23433 -51.99327 -4.057405
v 28.24804 49.36674 14.32767
v -2.708385 85.11654 26.53462
v 5.237116 21.46631 -2.810378
v 15.06351 73.10838 -4.957197
v -41.07261 -49.04626 -6.527814
v 26.37868 47.21831 -4.025705
v -12.04864 61.71239 37.76756
v 53.59341 58.74518 -1.970361
v 28.05096 60.58854 -4.997945
v 43.28723 64.19448 -2.712965
v -22.69146 74.36018 -3.943125
v -48.68932 -53.77769 12.08223
v 12.23837 -52.88383 26.67959
v -9.914784 87.56081 -3.715932
v -3.610069 88.95486 -3.706027
v 36.90827 -54.25819 -3.341021
v -5.893272 13.22989 -2.715327
v -26.46615 18.06065 9.850735
v -6.378498 17.16753 -3.247182
v 8.858598 86.57266 20.66181
v -47.18928 -48.26873 13.85418
v 18.33642 36.8198 -0.7294169
v -21.80819 38.36878 -1.424434
v 42.66753 46.68812 0.01962944
v -47.47396 49.9653 -4.194409
v 20.02261 22.807 9.498291
v 49.79411 55.66023 -3.285066
v 46.8879 65.7966 -2.976922
v 57.05912 69.19046 -4.493026
v -23.53478 71.02887 -2.987533
v 14.42758 79.59608 -2.363874
v -42.86513 -51.29667 0.2684167
v -19.01106 18.71848 24.8242
v 4.331882 16.01291 -1.811425
v -8.971147 28.15345 -3.562166
v 35.51886 -49.22289 15.46514
v -19.95628 35.86834 -0.868488
v 11.52014 -25.83345 14.20149
v 48.43545 50.10803 -8.142109
v -47.95398 -46.95448 -1.732761
v 2.128387 56.01451 39.61242
v -26.91801 -3.638061 -2.014847
v 26.90391 -2.427782 -2.811938
v 23.16495 4.084653 -2.339402
v -12.82041 32.32175 -3.642698
v -35.74326 53.53202 10.18104
v 34.14829 44.39614 -1.288482
v 13.26067 -9.00101 13.99983
v -49.20054 54.17531 -2.460371
v 49.48908 60.13894 -1.740067
v 24.12486 65.23865 -3.35702
v -35.95346 -4.679162 17.10848
v -14.73689 82.0322 -3.889132
v 7.503772 1.671368 16.20239
v 9.131091 19.15395 28.67347
v 30.16381 3.479524 0.9192403
v -2.372505 7.506803 14.77623
v -21.32134 57.59684 32.47837
v -7.926774 22.08583 -2.398523
v 7.426417 26.76305 -1.774997
v 13.35895 28.03926 2.240582
v -9.487358 29.03252 -4.896584
v -17.34638 34.86218 -0.3265599
v 49.76132 63.65638 -1.57842
v 35.7895 62.04037 -4.004003
v 6.433266 87.49437 -3.06063
v 18.64357 79.05969 10.24128
v -19.85706 35.15467 15.74233
v -33.43869 -7.975063 -2.214757
v 26.81879 -11.60686 -1.268274
v 29.01583 -6.247077 -2.535442
v 32.90477 -4.117012 0.6106427
v -7.509816 76.54844 33.82364
v -27.69619 67.02577 0.7591641
v -25.92765 73.11905 -2.18054
v 0.9135136 67.81158 37.88076
v 14.78519 79.69616 2.168405
v 40.88805 -53.53214 6.83411
v -40.72637 -53.38708 1.101248
v 19.33749 29.57078 14.21708
v 21.88342 -49.84932 2.545045
v -38.73843 -10.18358 -3.758717
v 12.53899 84.91114 16.03724
v -36.77346 2.292585 -0.621142
v -13.78148 17.08374 -0.111416
v 37.90035 45.4009 -4.951241
v -44.3338 60.77642 0.1877037
v -41.82336 65.03808 -2.485024
v 21.49395 72.05925 -1.138651
v -6.463112 31.48535 31.99711
v -36.17439 -16.75976 -0.7227222
v -8.038558 85.00516 25.07839
v -32.47873 2.458904 -2.44075
v 31.04009 -32.28017 14.86457
v -22.51416 4.981293 -1.718111
v -0.5546461 10.19576 -2.826367
v 7.992772 59.33197 38.25917
v 45.68915 53.62567 2.278575
v -8.134058 44.05865 36.71676
v 14.34543 -43.98082 24.38698
v -14.5956 57.74373 36.31219
v -42.6946 -12.28019 0.416787
v 23.31713 -14.75146 0.2118105
v -38.7799 -3.417642 -0.5361983
v 8.631662 11.23674 -0.4350786
v 13.85547 -6.624024 18.39711
v -13.17005 21.82457 -1.088442
v 21.00487 42.12513 -4.90335
v 22.65286 -53.2934 3.164796
v 17.77887 57.58358 33.19617
v 34.82321 -50.07543 -1.841091
v 26.58184 -48.59176 -2.899803
v 4.333531 13.11755 28.07834
v 30.50185 -17.99606 -1.257917
v 11.36603 60.61726 37.37233
v 32.74109 -9.681644 1.131325
v -18.28537 -1.068435 1.337019
v -39.91873 -13.90642 14.08681
v -2.708879 4.947013 0.6431633
v 18.28631 25.73556 14.1553
v 23.1748 11.29241 1.701588
v -6.989367 9.828798 0.8924276
v 11.91427 17.52425 -0.5437605
v 10.86324 22.87375 0.9865481
v 22.61722 39.76074 21.58974
v -13.62107 28.74697 -0.05328789
v 19.72626 38.60033 2.079859
v 18.64145 75.00123 0.5078653
v -18.59033 78.27342 -1.107465
v 6.507359 75.2911 34.12779
v -34.79955 -51.49945 -1.208156
v 36.17907 -50.27048 -0.8930526
v 28.17761 -51.77201 0.1040782
v 25.37039 62.7049 19.19371
v -40.83378 -6.394086 7.683127
v 12.83177 20.20691 25.02804
v 14.15662 1.947803 -0.3458756
v 17.73442 11.47438 0.3783121
v 2.551976 9.454841 1.54978
v 15.87074 32.04678 24.69747
v -17.70533 10.07741 0.2978928
v 3.050827 -1.431471 37.3109
v 16.40105 34.38446 2.720288
v -0.7535721 89.50033 17.12917
v 46.41151 58.65303 -0.07387229
v -29.03829 69.96493 3.296397
v -23.27844 74.99239 -0.4547615
v -50.15278 -52.76327 0.0857631
v 31.74971 10.276 12.60463
v -40.57261 -45.41116 17.49874
v -27.50557 -10.05069 0.6490831
v -25.21668 21.47379 12.01803
v -26.1997 10.15727 -0.4070063
v 29.27887 65.22511 3.045676
v 28.45567 -51.04015 2.613038
v -41.45363 -49.89448 0.7815338
v -31.33067 -20.36368 0.7155543
v -37.44817 -23.82515 1.46186
v 34.33617 -17.28453 2.645702
v -31.61906 -16.08133 -0.1621736
v 19.22925 -6.754651 -1.173226
v -16.08643 43.64964 33.44679
v -38.05164 -12.50844 13.76708
v 22.49743 41.97889 3.145485
v -15.47444 19.80414 26.28802
v -34.52973 66.15996 1.688291
v 32.86358 -21.31045 20.6878
v -19.05824 54.41318 34.5767
v -55.53335 -52.8652 2.048085
v -36.51152 -46.39348 -0.1935255
v -29.84258 -24.15518 1.402104
v -25.67903 -21.22257 1.308991
v 23.23208 -20.67626 2.799768
v 41.17726 55.37294 7.221227
v 17.87761 3.794516 25.31473
v -25.13708 15.08203 4.027934
v -27.61209 46.26976 -0.3239546
v -3.772537 5.018334 23.78372
v 10.07701 69.06657 35.60026
v -29.48169 69.61399 8.631312
v -15.62145 81.09974 1.232642
v 9.817004 84.92792 -2.913098
v -27.78134 7.993779 25.2067
v -13.54567 72.75247 33.39974
v 30.79054 -21.18312 3.66037
v -53.26766 -52.55763 6.656573
v 11.78579 -1.70878 3.207426
v 7.949366 4.85639 3.058937
v -32.46521 10.39798 2.737698
v -0.8459859 78.00159 34.46425
v 16.40448 20.92605 2.904453
v -17.57589 22.17364 3.655504
v -19.83891 33.79326 5.949642
v -28.52051 69.90896 14.27039
v 39.15188 46.70198 3.473955
v -25.29882 74.32654 14.96805
v 14.55048 26.20125 26.56024
v 4.122151 89.16745 4.301189
v -32.26611 -53.74653 4.378022
v 30.14236 -53.76977 3.833853
v -53.39102 -48.74614 3.73649
v -30.78504 -31.77209 3.421143
v -1.817737 56.81305 39.72141
v 19.67649 -48.11344 4.77397
v 20.99435 42.33902 23.68103
v 33.90462 -53.52747 17.25147
v 19.39001 35.09654 3.02686
v -44.48026 53.6922 1.293279
v -25.10886 -43.59637 14.73935
v 39.87246 62.79541 2.592846
v -5.838919 43.5783 35.12209
v 25.50023 68.55808 2.829466
v 11.41813 84.77795 3.903442
v -56.18811 -51.90884 3.164163
v 4.673108 43.41369 34.2261
v -40.26316 -19.59217 2.263826
v -41.896 -12.28855 6.352134
v 18.29156 -12.22031 3.179491
v 8.608499 83.70722 25.51828
v -2.521255 59.31753 38.90992
v 30.06538 9.591757 4.713718
v 8.450178 44.76737 34.87145
v -23.25856 -36.97291 11.24823
v 16.53934 -16.57625 16.28033
v 23.10786 71.45681 3.019793
v -25.65482 72.58891 1.927966
v 19.26297 75.37066 6.908543
v 8.815792 87.12235 4.869398
v -10.62448 87.14522 3.302346
v -32.84262 -46.35707 24.31166
v 16.71852 54.384 33.3692
v -48.80013 -50.9869 4.461737
v 22.09977 -45.34634 5.008359
v -32.63659 -13.39638 16.66604
v 23.12726 -24.29778 3.384293
v -32.43303 -9.855479 16.55612
v 23.07541 -38.25575 30.8527
v 16.16489 24.4751 6.545035
v -16.62439 30.57626 1.728118
v 45.55472 52.17901 5.508674
v -31.70956 -49.75663 5.133237
v 1.042566 5.831191 19.08781
v 32.64479 -11.55595 9.071869
v -14.76825 83.4853 20.36345
v -25.86037 -15.39769 4.987879
v -30.97009 1.826196 23.01793
v 4.722652 6.688318 23.45823
v -17.78182 29.52831 6.973603
v 44.71978 60.79649 2.949756
v -38.94023 64.1136 4.09915
v -3.380865 89.98648 4.180747
v 35.42939 -53.32909 2.556072
v 26.01233 44.66007 6.821823
v -19.45411 77.07268 3.37298
v -43.77717 -53.51942 3.468512
v 33.81533 -49.13475 4.764008
v 27.22975 -49.14812 4.364491
v -36.6 -30.86412 4.706981
v -21.26279 43.7848 27.77639
v -25.39485 -17.78282 3.457895
v -0.1444568 63.56504 39.38315
v 6.667999 2.863455 8.55886
v -23.30118 69.98754 24.40582
v 25.33479 13.61453 4.064387
v -11.00476 87.9932 5.97241
v 25.47449 -29.46717 5.647506
v -38.76353 5.277679 5.158899
v -12.11081 6.641192 2.975663
v -28.91516 65.0663 6.567486
v -25.68751 -12.14103 14.83789
v -25.00969 -30.76915 4.746022
v -40.49682 -0.1033625 4.071905
v 35.40488 -3.971591 5.178553
v -31.99799 15.177 9.718184
v 22.00985 16.84343 5.926587
v -38.2918 48.90668 6.5247
v -33.92323 -53.34991 23.81934
v 35.52229 64.13575 3.514857
v 19.94963 -53.54403 5.109069
v 31.07594 -45.99969 5.437029
v -31.79028 -46.06008 5.973817
v -38.30058 -44.65089 3.913413
v -32.44389 -39.19458 7.262623
v -42.77895 -21.44308 6.164015
v 3.033545 3.10026 9.392854
v -19.88991 31.38389 7.591167
v -35.34487 45.95596 2.905102
v 15.8076 8.031064 24.79301
v 39.70851 60.39049 6.373316
v 18.77525 -19.87418 5.960717
v -11.20094 87.26609 16.11536
v 41.56543 50.45343 6.162181
v -45.02215 -46.02982 3.36219
v 51.81942 85.99702 -31.45259
f 595 426 589
f 726 128 884
f 1002 228 275
f 159 228 1002
f 878 864 990
f 1001 856 940
f 209 251 1001
f 940 909 209
f 940 209 1001
f 864 708 740
f 912 86 941
f 978 402 403
f 35 149 509
f 95 988 651
f 329 923 569
f 371 672 115
f 334 720 894
f 614 192 191
f 936 906 315
f 539 407 403
f 888 854 977
f 483 689 407
f 986 591 997
f 826 925 388
f 183 663 674
f 80 835 872
f 129 900 128
f 69 435 605
f 933 935 244
f 980 487 975
f 980 843 487
f 341 257 73
f 818 158 46
f 953 859 72
f 893 822 867
f 951 17 893
f 935 785 775
f 966 234 534
f 915 851 730
f 970 762 993
f 674 510 224
f 209 922 85
f 888 69 854
f 817 335 987
f 177 921 167
f 259 542 304
f 854 69 934
f 933 165 920
f 958 355 977
f 322 368 556
f 915 835 80
f 435 69 888
f 559 479 656
f 987 335 257
f 298 954 136
f 420 972 983
f 764 929 101
f 827 279 543
f 101 981 764
f 28 951 981
f 358 892 348
f 936 315 791
f 893 521 41
f 15 4 6
f 973 191 937
f 910 991 356
f 990 645 989
f 581 585 123
f 295 292 412
f 807 585 581
f 960 203 908
f 3 689 688
f 798 143 479
f 191 192 959
f 908 618 335
f 202 169 952
f 663 311 560
f 591 433 882
f 371 115 998
f 968 868 953
f 962 69 605
f 899 946 734
f 153 916 984
f 494 27 653
f 828 421 734
f 946 769 290
f 884 897 982
f 897 415 982
f 993 279 896
f 558 40 151
f 165 244 686
f 85 922 894
f 179 643 973
f 705 484 40
f 614 191 67
f 559 503 557
f 234 460 108
f 371 943 974
f 28 101 698
f 430 876 766
f 960 964 203
f 353 434 419
f 203 95 633
f 786 619 633
f 534 108 530
f 787 650 963
f 963 334 856
f 158 939 46
f 497 449 754
f 493 80 872
f 934 69 962
f 934 962 855
f 623 838 615
f 986 997 918
f 327 802 367
f 882 1000 948
f 756 390 814
f 866 534 924
f 127 688 689
f 334 940 856
f 651 453 95
f 956 994 947
f 844 609 146
f 976 414 825
f 297 168 544
f 423 129 860
f 294 493 872
f 672 370 267
f 824 951 867
f 867 951 893
f 880 694 5
f 992 924 534
f 122 174 117
f 842 657 397
f 259 657 842
f 903 1000 150
f 529 555 32
f 572 674 504
f 874 977 782
f 957 918 997
f 882 948 957
f 179 973 937
f 276 72 403
f 86 189 386
f 769 946 832
f 315 638 791
f 17 951 233
f 983 972 829
f 970 896 895
f 825 414 539
f 780 981 824
f 711 702 658
f 336 490 640
f 972 420 929
f 849 861 884
f 862 165 161
f 190 346 277
f 910 356 966
f 251 85 729
f 965 941 651
f 990 989 878
f 822 893 811
f 857 698 101
f 908 335 863
f 959 192 906
f 994 956 129
f 535 529 609
f 987 257 86
f 423 245 741
f 920 165 862
f 795 916 153
f 375 974 41
f 885 162 49
f 771 947 994
f 728 927 486
f 210 903 150
f 42 129 423
f 214 327 521
f 581 573 919
f 827 847 279
f 666 559 656
f 666 569 559
f 604 596 698
f 923 680 149
f 932 528 115
f 497 754 50
f 959 722 937
f 986 161 591
f 251 990 1001
f 914 73 335
f 863 965 988
f 290 788 828
f 397 395 135
f 863 335 817
f 43 135 395
f 980 975 792
f 986 862 161
f 412 649 319
f 432 537 443
f 948 806 957
f 552 546 362
f 888 497 902
f 881 943 998
f 776 901 994
f 301 293 236
f 766 809 527
f 785 836 739
f 316 306 249
f 991 910 979
f 477 454 409
f 580 917 931
f 874 958 977
f 812 843 980
f 414 483 539
f 966 356 234
f 557 479 559
f 495 705 162
f 203 633 619
f 943 41 974
f 161 433 591
f 946 828 734
f 623 615 927
f 783 854 934
f 177 785 921
f 863 817 841
f 894 922 877
f 959 937 191
f 729 85 720
f 179 889 962
f 955 886 950
f 782 977 854
f 836 935 933
f 584 583 511
f 903 948 1000
f 732 948 903
f 903 210 755
f 917 226 931
f 3 688 446
f 279 847 896
f 581 919 807
f 481 20 756
f 678 245 524
f 72 859 825
f 924 388 925
f 881 998 926
f 968 276 694
f 975 415 897
f 940 894 877
f 817 987 912
f 890 936 921
f 694 103 676
f 482 951 28
f 995 885 49
f 900 956 834
f 915 730 835
f 876 430 870
f 479 143 396
f 290 828 946
f 938 653 560
f 912 941 789
f 698 596 695
f 940 334 894
f 961 714 210
f 992 388 924
f 880 968 694
f 893 41 943
f 966 866 879
f 979 910 879
f 448 476 786
f 949 878 989
f 988 964 819
f 965 820 941
f 32 421 529
f 789 817 912
f 909 877 922
f 776 321 94
f 889 179 937
f 573 581 668
f 773 579 634
f 153 958 795
f 103 504 93
f 647 995 916
f 916 995 984
f 745 495 731
f 958 153 449
f 668 557 503
f 543 976 830
f 975 897 792
f 167 76 177
f 245 611 524
f 489 469 498
f 294 961 709
f 845 895 896
f 924 925 810
f 668 798 557
f 672 105 90
f 809 766 876
f 67 800 710
f 614 648 192
f 863 841 965
f 940 877 909
f 901 495 745
f 852 614 67
f 668 503 573
f 806 948 732
f 674 500 504
f 402 276 403
f 983 829 846
f 244 775 76
f 781 351 892
f 827 804 847
f 394 395 913
f 926 895 869
f 510 674 572
f 870 585 807
f 814 11 132
f 966 534 866
f 893 943 881
f 941 820 789
f 880 979 879
f 845 869 895
f 1001 990 864
f 347 267 370
f 964 840 819
f 839 949 907
f 723 722 959
f 889 937 722
f 762 132 450
f 573 503 569
f 957 718 918
f 798 417 148
f 981 101 28
f 901 745 771
f 832 946 899
f 190 277 68
f 899 983 831
f 848 181 212
f 897 801 792
f 811 881 926
f 481 762 970
f 483 414 340
f 881 811 893
f 819 863 988
f 841 820 965
f 121 363 116
f 964 960 840
f 890 921 785
f 686 632 165
f 435 904 195
f 853 957 806
f 731 495 162
f 947 771 753
f 956 947 834
f 224 510 826
f 407 689 403
f 793 128 900
f 849 128 793
f 884 861 897
f 538 152 97
f 976 849 830
f 843 599 691
f 896 846 845
f 849 976 825
f 810 925 843
f 811 926 869
f 558 151 622
f 953 868 859
f 487 691 7
f 914 618 476
f 739 890 785
f 220 852 67
f 839 878 949
f 322 327 214
f 371 998 943
f 693 841 817
f 740 787 963
f 476 618 786
f 962 889 837
f 704 920 759
f 741 245 678
f 958 874 796
f 986 773 862
f 754 49 50
f 981 780 764
f 732 903 755
f 984 754 153
f 697 757 916
f 816 872 835
f 640 985 507
f 832 768 769
f 217 168 297
f 972 929 829
f 220 638 852
f 846 896 813
f 230 171 156
f 362 351 781
f 136 891 524
f 644 808 189
f 892 351 348
f 427 807 509
f 1000 882 150
f 880 879 865
f 359 637 850
f 693 817 789
f 189 86 257
f 448 744 476
f 839 907 787
f 165 632 161
f 761 889 722
f 611 726 982
f 933 797 836
f 782 665 874
f 674 663 500
f 163 104 971
f 591 882 997
f 885 995 696
f 714 961 872
f 162 661 731
f 776 94 495
f 900 815 793
f 846 831 983
f 884 128 849
f 849 793 830
f 643 191 973
f 674 224 183
f 121 482 363
f 896 847 813
f 663 560 500
f 861 801 897
f 367 802 669
f 779 780 824
f 988 203 964
f 781 892 147
f 812 810 843
f 614 852 648
f 875 368 322
f 868 865 799
f 866 924 799
f 868 880 865
f 864 748 1001
f 936 774 906
f 936 890 774
f 732 794 662
f 715 348 527
f 920 797 933
f 41 521 375
f 941 86 386
f 718 957 853
f 369 362 898
f 647 607 995
f 494 653 490
f 851 769 642
f 831 846 813
f 923 573 569
f 860 129 128
f 849 803 861
f 823 818 190
f 827 830 804
f 875 606 368
f 574 413 286
f 929 764 829
f 601 796 874
f 317 396 130
f 935 836 785
f 999 800 67
f 799 865 866
f 329 679 680
f 856 655 963
f 761 837 889
f 855 962 837
f 25 38 60
f 539 72 825
f 736 853 758
f 788 905 146
f 887 615 838
f 999 191 643
f 661 162 885
f 770 947 753
f 993 950 279
f 739 690 890
f 832 899 831
f 742 813 847
f 846 829 752
f 108 460 464
f 898 362 781
f 596 604 555
f 750 803 825
f 702 742 701
f 52 143 206
f 866 865 879
f 822 824 867
f 611 415 7
f 782 675 665
f 687 272 939
f 497 355 449
f 960 724 840
f 839 787 670
f 452 451 475
f 783 738 782
f 797 920 704
f 782 738 675
f 803 849 825
f 132 883 450
f 511 875 233
f 709 433 628
f 584 932 286
f 771 745 549
f 900 834 815
f 701 742 847
f 415 611 982
f 926 20 895
f 764 752 829
f 792 812 980
f 859 750 825
f 780 779 751
f 622 635 587
f 346 190 818
f 777 868 799
f 830 827 543
f 856 1001 748
f 35 919 573
f 906 723 959
f 9 317 130
f 823 190 887
f 855 783 934
f 853 736 718
f 403 689 978
f 795 697 916
f 757 733 916
f 830 725 804
f 848 905 788
f 319 556 380
f 528 926 998
f 399 299 269
f 799 924 810
f 67 710 220
f 770 834 947
f 420 983 421
f 804 701 847
f 688 127 516
f 801 861 803
f 846 752 845
f 319 77 556
f 750 859 777
f 811 869 778
f 446 227 3
f 820 693 789
f 960 908 724
f 719 855 837
f 199 486 542
f 759 920 862
f 758 772 736
f 636 772 716
f 831 813 742
f 772 758 716
f 452 523 451
f 146 905 844
f 286 413 584
f 298 227 446
f 642 769 659
f 908 863 724
f 768 832 831
f 711 831 742
f 727 725 793
f 725 830 793
f 898 838 623
f 460 234 356
f 778 779 824
f 564 838 898
f 719 837 652
f 807 427 870
f 198 687 939
f 790 810 812
f 824 822 778
f 799 790 777
f 778 822 811
f 568 586 731
f 748 682 856
f 693 820 841
f 670 787 708
f 528 390 20
f 883 132 11
f 974 240 371
f 560 653 500
f 797 739 836
f 367 240 974
f 697 795 796
f 136 954 891
f 625 641 723
f 191 999 67
f 853 806 735
f 42 538 994
f 732 755 794
f 13 833 913
f 661 568 731
f 851 642 730
f 767 793 815
f 793 767 727
f 574 746 90
f 539 483 407
f 272 46 939
f 750 801 803
f 764 751 752
f 279 765 543
f 752 751 845
f 543 765 340
f 812 777 790
f 212 294 833
f 11 363 695
f 685 642 461
f 297 850 217
f 996 555 529
f 748 740 692
f 819 840 724
f 724 863 819
f 655 740 963
f 148 143 798
f 797 690 739
f 874 665 601
f 923 35 573
f 958 796 795
f 717 862 773
f 895 20 970
f 579 718 590
f 806 747 735
f 733 647 916
f 629 885 696
f 630 714 872
f 43 294 709
f 659 769 768
f 730 816 835
f 654 556 368
f 815 834 743
f 767 815 743
f 743 834 770
f 930 149 680
f 43 395 394
f 801 777 792
f 801 750 777
f 751 779 869
f 548 110 155
f 996 529 535
f 845 751 869
f 950 765 279
f 631 716 735
f 17 214 521
f 135 842 397
f 906 774 723
f 968 880 868
f 677 413 574
f 636 737 772
f 363 11 116
f 644 341 721
f 918 773 986
f 716 597 636
f 586 568 520
f 716 758 735
f 244 76 686
f 800 952 552
f 728 638 220
f 753 771 549
f 68 887 190
f 685 730 642
f 887 68 615
f 768 831 711
f 599 925 871
f 985 640 350
f 533 547 576
f 864 878 713
f 196 266 280
f 708 864 713
f 734 983 899
f 486 199 791
f 692 740 655
f 350 640 490
f 625 723 774
f 890 707 774
f 855 719 783
f 797 704 712
f 719 699 738
f 737 602 772
f 417 668 581
f 860 245 423
f 853 735 758
f 70 57 66
f 708 787 740
f 995 607 696
f 453 744 448
f 98 729 858
f 702 711 742
f 195 179 605
f 738 525 675
f 732 747 806
f 890 667 707
f 890 690 667
f 652 761 706
f 837 761 652
f 680 687 198
f 100 131 235
f 602 736 772
f 651 941 386
f 284 672 267
f 490 653 350
f 791 167 921
f 862 717 759
f 664 757 697
f 595 733 757
f 476 744 914
f 680 198 930
f 440 688 516
f 767 703 727
f 725 727 701
f 161 628 433
f 725 701 804
f 707 625 774
f 209 909 922
f 462 581 123
f 644 721 808
f 839 713 878
f 704 759 540
f 870 427 575
f 716 631 597
f 923 329 680
f 816 630 872
f 683 767 743
f 683 703 767
f 680 13 687
f 912 987 86
f 856 682 655
f 932 584 390
f 329 848 212
f 723 641 722
f 975 487 415
f 891 678 524
f 776 994 538
f 546 952 169
f 796 600 697
f 717 773 634
f 626 683 743
f 599 871 942
f 701 727 702
f 713 839 670
f 347 386 267
f 540 712 704
f 675 621 665
f 718 579 918
f 783 782 854
f 717 673 759
f 631 735 747
f 435 195 605
f 212 679 329
f 512 631 437
f 551 629 696
f 274 336 254
f 626 743 770
f 617 770 753
f 637 387 684
f 823 158 818
f 73 721 341
f 748 692 682
f 809 715 527
f 612 690 712
f 797 712 690
f 624 699 719
f 851 915 80
f 628 161 632
f 737 636 514
f 590 718 736
f 150 433 709
f 963 650 334
f 759 673 577
f 773 918 579
f 904 435 902
f 645 274 989
f 799 810 790
f 927 728 220
f 150 882 433
f 714 794 755
f 931 979 5
f 658 703 683
f 737 514 517
f 593 670 708
f 641 681 722
f 706 761 681
f 902 435 888
f 652 624 719
f 650 720 334
f 665 610 601
f 209 85 251
f 486 927 310
f 697 600 664
f 514 636 597
f 634 488 608
f 717 608 673
f 634 608 717
f 661 885 629
f 703 702 727
f 358 348 715
f 711 658 659
f 658 702 703
f 115 672 746
f 783 719 738
f 669 386 347
f 712 536 612
f 971 351 169
f 50 49 162
f 346 8 277
f 601 600 796
f 606 875 583
f 584 413 583
f 896 970 993
f 597 631 512
f 327 367 375
f 864 740 748
f 991 645 356
f 696 607 551
f 794 714 662
f 661 550 568
f 692 655 682
f 596 883 695
f 821 387 118
f 239 246 325
f 726 611 245
f 747 732 662
f 517 602 737
f 449 355 958
f 292 208 721
f 548 155 387
f 505 595 664
f 564 898 781
f 608 714 630
f 535 609 844
f 647 589 607
f 561 816 730
f 152 58 206
f 770 627 626
f 659 658 626
f 658 683 626
f 366 141 231
f 574 90 326
f 670 593 713
f 625 707 537
f 667 690 613
f 690 612 613
f 639 624 706
f 858 985 938
f 7 691 298
f 664 600 553
f 377 886 110
f 664 553 505
f 608 630 673
f 673 630 620
f 294 212 493
f 681 761 722
f 977 355 497
f 800 362 369
f 989 274 254
f 630 816 531
f 479 317 496
f 519 567 485
f 627 617 519
f 659 582 642
f 593 708 713
f 97 321 538
f 659 626 582
f 386 669 453
f 513 610 665
f 421 828 609
f 710 800 369
f 502 473 465
f 859 868 777
f 397 657 395
f 294 394 833
f 72 276 953
f 587 635 104
f 623 927 369
f 590 736 602
f 590 602 471
f 537 707 613
f 641 592 681
f 707 667 613
f 6 31 16
f 351 362 546
f 652 706 624
f 699 624 498
f 612 518 565
f 979 880 5
f 65 34 55
f 204 178 309
f 579 590 429
f 661 629 550
f 254 336 330
f 562 550 629
f 873 206 58
f 445 607 589
f 90 105 326
f 183 530 108
f 568 550 520
f 954 446 891
f 549 731 586
f 519 617 567
f 627 519 566
f 838 255 887
f 537 641 625
f 706 592 639
f 469 699 498
f 902 497 616
f 695 883 11
f 21 25 33
f 531 620 630
f 631 747 545
f 629 551 571
f 662 714 608
f 294 43 394
f 567 753 549
f 982 726 884
f 567 617 753
f 627 582 626
f 305 232 175
f 592 641 537
f 902 163 904
f 450 883 996
f 517 471 602
f 929 857 101
f 643 179 195
f 554 600 601
f 183 108 464
f 621 513 665
f 910 966 879
f 673 547 577
f 550 562 578
f 505 522 595
f 390 756 20
f 575 876 870
f 561 531 816
f 561 730 685
f 642 582 566
f 222 164 172
f 518 612 536
f 988 95 203
f 590 508 429
f 621 675 525
f 610 554 601
f 586 485 567
f 621 578 562
f 391 261 299
f 620 547 673
f 668 417 798
f 525 699 469
f 198 588 930
f 562 629 571
f 437 631 545
f 589 647 733
f 604 857 420
f 492 450 996
f 627 566 582
f 712 540 536
f 526 600 541
f 481 132 762
f 500 93 504
f 513 621 562
f 939 158 198
f 311 663 183
f 531 576 620
f 576 531 502
f 488 662 608
f 7 415 487
f 43 709 628
f 50 705 570
f 460 98 858
f 566 461 642
f 176 163 971
f 471 508 590
f 547 563 515
f 456 578 621
f 375 521 327
f 484 967 40
f 913 395 23
f 479 396 317
f 567 549 586
f 763 844 905
f 618 914 335
f 613 612 565
f 498 639 499
f 639 498 624
f 577 540 759
f 600 526 553
f 533 563 547
f 358 147 892
f 579 488 634
f 244 165 933
f 592 706 681
f 525 738 699
f 999 643 952
f 350 653 938
f 428 314 364
f 454 465 523
f 537 432 592
f 432 639 592
f 389 438 480
f 28 698 482
f 525 456 621
f 515 540 577
f 330 507 650
f 291 316 249
f 553 418 505
f 633 448 786
f 550 578 532
f 607 445 551
f 240 370 371
f 336 274 917
f 474 531 561
f 33 60 48
f 565 537 613
f 786 618 619
f 562 571 513
f 286 932 115
f 457 553 526
f 255 838 564
f 457 418 553
f 729 98 251
f 619 618 203
f 671 580 931
f 368 606 654
f 662 488 501
f 330 907 949
f 85 894 720
f 519 472 566
f 990 251 98
f 440 446 688
f 483 127 689
f 464 460 311
f 540 468 536
f 329 666 656
f 781 147 564
f 189 267 386
f 138 248 213
f 473 472 491
f 556 654 380
f 576 502 533
f 935 775 244
f 823 805 158
f 931 226 979
f 465 477 533
f 662 501 747
f 219 544 168
f 523 491 451
f 520 475 586
f 491 472 519
f 391 537 565
f 492 955 134
f 555 996 883
f 492 821 955
f 147 358 444
f 517 459 471
f 481 814 132
f 468 563 434
f 991 226 645
f 298 446 954
f 110 594 377
f 596 555 883
f 548 387 9
f 762 134 993
f 506 454 523
f 589 733 595
f 532 452 475
f 520 550 532
f 506 523 452
f 512 514 597
f 938 985 350
f 747 501 545
f 474 502 531
f 543 340 414
f 491 519 451
f 506 578 441
f 451 519 485
f 657 273 395
f 406 471 459
f 456 525 469
f 508 471 470
f 516 127 340
f 541 458 526
f 540 515 468
f 563 468 515
f 478 563 533
f 480 488 579
f 578 506 532
f 512 400 514
f 469 447 456
f 507 330 640
f 833 679 212
f 798 479 557
f 542 310 304
f 501 425 545
f 448 633 95
f 497 50 570
f 450 134 762
f 395 273 23
f 391 443 537
f 195 202 643
f 489 398 469
f 440 891 446
f 17 521 893
f 694 676 5
f 116 584 511
f 466 441 364
f 120 48 78
f 176 971 169
f 523 465 491
f 35 923 149
f 571 551 445
f 392 565 518
f 417 581 462
f 842 628 632
f 35 509 919
f 472 473 474
f 221 231 141
f 588 149 930
f 561 685 474
f 676 93 5
f 914 649 412
f 971 104 184
f 515 577 547
f 554 610 411
f 375 367 974
f 466 454 506
f 418 379 505
f 379 401 505
f 520 532 475
f 80 493 181
f 595 522 426
f 985 720 650
f 461 566 472
f 518 536 392
f 905 656 496
f 875 214 233
f 442 457 526
f 514 400 439
f 543 414 976
f 534 530 992
f 478 533 477
f 438 425 501
f 564 784 255
f 110 548 130
f 459 517 439
f 437 545 463
f 474 461 472
f 461 474 685
f 823 887 255
f 466 506 441
f 289 278 211
f 465 473 491
f 691 760 298
f 616 497 570
f 571 422 513
f 454 477 465
f 505 401 373
f 437 400 512
f 506 452 532
f 290 851 80
f 760 599 944
f 485 586 475
f 480 579 429
f 535 492 996
f 18 19 22
f 147 444 564
f 489 498 499
f 474 473 502
f 406 470 471
f 791 199 167
f 112 13 913
f 429 382 455
f 455 480 429
f 660 168 217
f 364 441 428
f 419 563 478
f 422 411 513
f 466 416 454
f 438 501 488
f 516 594 140
f 39 63 106
f 463 545 425
f 522 373 393
f 451 485 475
f 387 155 684
f 426 445 589
f 635 622 151
f 418 442 365
f 457 442 418
f 441 456 447
f 262 385 324
f 807 919 509
f 410 478 477
f 422 571 426
f 571 445 426
f 301 313 432
f 32 420 421
f 394 913 833
f 94 484 705
f 267 189 284
f 294 872 961
f 424 554 411
f 49 754 984
f 184 104 635
f 304 657 259
f 800 552 362
f 426 522 393
f 392 391 565
f 3 227 944
f 153 754 449
f 398 447 469
f 404 405 382
f 365 379 418
f 858 729 720
f 255 805 823
f 434 563 419
f 463 408 437
f 687 112 272
f 486 791 728
f 439 338 305
f 988 965 651
f 428 441 447
f 419 478 410
f 530 183 224
f 422 354 411
f 364 416 466
f 505 373 522
f 477 409 410
f 83 31 48
f 313 431 432
f 405 470 406
f 103 402 572
f 317 9 763
f 327 322 802
f 494 580 27
f 409 454 416
f 508 404 429
f 319 649 77
f 432 443 301
f 953 276 968
f 115 528 998
f 97 152 148
f 255 784 969
f 606 583 413
f 382 429 404
f 402 978 942
f 944 942 978
f 389 455 343
f 426 374 422
f 463 425 389
f 564 444 784
f 437 408 400
f 360 391 392
f 443 399 301
f 385 406 332
f 536 384 392
f 536 468 384
f 439 332 459
f 955 352 886
f 401 252 373
f 455 389 480
f 330 650 787
f 678 891 440
f 357 392 384
f 488 480 438
f 489 308 398
f 134 950 993
f 383 365 442
f 123 94 321
f 210 714 755
f 851 290 769
f 821 467 9
f 393 374 426
f 378 393 373
f 357 384 300
f 299 443 391
f 405 404 470
f 442 458 383
f 381 468 434
f 455 382 343
f 949 254 330
f 342 401 379
f 917 274 226
f 575 928 809
f 313 372 431
f 955 950 134
f 572 504 103
f 40 967 151
f 443 299 399
f 151 967 430
f 575 427 509
f 489 499 281
f 158 749 198
f 645 990 98
f 332 439 305
f 384 468 316
f 645 98 460
f 651 386 453
f 746 672 90
f 496 317 763
f 320 401 342
f 679 833 13
f 463 389 408
f 378 374 393
f 303 391 360
f 163 616 587
f 558 570 705
f 442 526 458
f 167 199 76
f 715 809 928
f 406 385 405
f 271 303 360
f 444 358 715
f 541 424 331
f 366 447 398
f 978 689 3
f 13 680 679
f 223 372 313
f 914 412 73
f 860 726 245
f 559 569 503
f 345 392 357
f 392 345 360
f 266 354 280
f 203 618 908
f 398 308 366
f 344 281 499
f 686 603 632
f 321 462 123
f 257 341 644
f 805 255 969
f 316 468 381
f 354 424 411
f 979 226 991
f 570 558 622
f 542 486 310
f 342 379 365
f 416 364 314
f 516 340 594
f 337 422 374
f 328 374 378
f 387 637 118
f 310 68 304
f 535 467 492
f 403 72 539
f 413 677 606
f 544 155 110
f 353 419 410
f 695 482 698
f 404 508 470
f 296 219 168
f 660 217 850
f 336 640 330
f 611 7 524
f 155 544 219
f 527 348 184
f 349 385 262
f 300 345 357
f 333 405 385
f 554 424 541
f 258 458 323
f 331 323 541
f 776 538 321
f 678 440 140
f 453 448 95
f 354 266 424
f 328 337 374
f 400 338 439
f 199 686 76
f 261 391 303
f 749 158 805
f 951 121 511
f 431 344 499
f 333 283 405
f 118 637 359
f 405 213 382
f 447 366 231
f 140 440 516
f 354 422 337
f 320 252 401
f 741 678 140
f 843 691 487
f 844 467 535
f 262 275 349
f 359 850 297
f 333 385 349
f 352 359 297
f 214 875 322
f 270 288 229
f 230 320 342
f 424 266 331
f 110 140 594
f 749 588 198
f 428 447 231
f 575 509 911
f 745 731 549
f 46 346 818
f 599 942 944
f 360 345 271
f 951 482 121
f 207 312 270
f 575 911 928
f 281 308 489
f 213 405 283
f 788 80 181
f 231 314 428
f 280 354 325
f 410 289 353
f 130 396 52
f 242 282 293
f 236 293 282
f 544 352 297
f 431 372 288
f 431 270 344
f 318 344 312
f 276 402 103
f 384 250 300
f 338 400 408
f 983 734 421
f 316 381 306
f 285 343 382
f 353 381 434
f 256 389 343
f 384 316 291
f 431 288 270
f 345 300 302
f 77 453 669
f 270 312 344
f 686 199 603
f 349 263 333
f 378 373 252
f 169 195 176
f 269 268 399
f 541 323 458
f 384 291 250
f 627 770 617
f 230 342 365
f 354 337 325
f 378 252 328
f 4 33 31
f 146 828 788
f 917 494 490
f 399 268 301
f 274 645 226
f 942 826 510
f 649 914 744
f 162 705 50
f 285 382 213
f 826 871 925
f 305 338 265
f 409 289 410
f 256 408 389
f 821 492 467
f 9 130 548
f 530 224 826
f 349 275 228
f 263 283 333
f 281 344 318
f 305 175 332
f 365 383 241
f 184 766 527
f 5 93 671
f 420 857 929
f 314 278 416
f 499 432 431
f 227 760 944
f 140 52 873
f 509 149 588
f 962 605 179
f 349 228 263
f 931 5 671
f 221 314 231
f 572 942 510
f 256 264 408
f 309 323 331
f 556 669 802
f 331 266 204
f 46 8 346
f 332 406 459
f 381 353 247
f 214 17 233
f 325 246 280
f 994 901 771
f 848 329 656
f 328 252 253
f 288 372 223
f 345 302 271
f 223 313 237
f 977 497 888
f 756 814 481
f 556 802 322
f 313 301 236
f 300 243 302
f 623 369 898
f 821 9 387
f 268 293 301
f 672 371 370
f 3 944 978
f 215 308 281
f 383 258 205
f 233 951 511
f 304 277 657
f 588 749 376
f 805 376 749
f 308 215 200
f 306 381 247
f 911 376 928
f 264 265 338
f 353 289 194
f 430 766 151
f 303 271 238
f 746 574 286
f 188 157 249
f 243 300 250
f 715 928 969
f 175 324 332
f 256 343 285
f 253 325 337
f 337 328 253
f 588 376 911
f 235 262 324
f 269 299 287
f 250 287 299
f 911 509 588
f 309 258 323
f 367 347 240
f 949 989 254
f 587 104 163
f 295 319 380
f 648 852 638
f 117 34 70
f 460 356 645
f 252 320 186
f 218 282 312
f 250 299 243
f 659 768 711
f 93 27 671
f 315 192 648
f 282 281 318
f 213 283 166
f 168 660 296
f 140 873 741
f 248 285 213
f 643 202 952
f 306 247 249
f 430 967 870
f 495 94 705
f 638 728 791
f 278 314 221
f 352 110 886
f 359 352 955
f 873 52 206
f 603 842 632
f 955 821 359
f 409 416 278
f 222 216 250
f 366 308 200
f 241 230 365
f 788 290 80
f 467 844 763
f 325 253 239
f 238 261 303
f 494 917 580
f 570 622 587
f 210 150 709
f 351 546 169
f 152 206 148
f 269 287 260
f 269 260 268
f 546 552 952
f 112 687 13
f 242 281 282
f 240 347 370
f 225 324 175
f 215 281 242
f 196 204 266
f 295 105 808
f 256 285 248
f 264 248 265
f 194 247 353
f 871 826 942
f 969 376 805
f 123 585 94
f 213 166 138
f 223 229 288
f 223 237 201
f 609 828 146
f 925 599 843
f 237 313 236
f 166 82 126
f 278 289 409
f 261 243 299
f 309 174 258
f 309 331 204
f 580 671 27
f 2 1 4
f 185 211 278
f 176 195 904
f 256 248 264
f 230 156 320
f 599 760 691
f 311 460 560
f 873 58 741
f 628 135 43
f 73 292 721
f 385 332 324
f 54 37 96
f 268 242 293
f 216 260 287
f 143 148 206
f 216 287 250
f 181 493 212
f 318 312 282
f 444 715 969
f 555 604 32
f 247 194 187
f 584 116 390
f 136 7 298
f 298 760 227
f 243 238 302
f 205 258 174
f 262 235 275
f 283 263 180
f 225 235 324
f 291 222 250
f 236 282 218
f 784 444 969
f 143 52 396
f 141 366 200
f 305 265 232
f 156 186 320
f 311 183 464
f 105 284 808
f 211 194 289
f 201 237 236
f 58 423 741
f 340 765 377
f 263 1002 180
f 197 222 291
f 777 812 792
f 249 197 291
f 507 985 650
f 265 248 138
f 637 361 850
f 185 278 221
f 252 160 253
f 271 302 238
f 159 263 228
f 180 166 283
f 135 628 842
f 458 258 383
f 205 241 383
f 242 268 260
f 606 677 654
f 171 241 205
f 253 160 239
f 496 656 479
f 672 284 105
f 223 201 229
f 140 110 130
f 94 585 484
f 238 243 261
f 971 184 348
f 677 326 945
f 247 188 249
f 886 377 950
f 961 210 709
f 560 460 858
f 229 207 270
f 994 129 42
f 160 252 186
f 500 653 27
f 376 969 928
f 197 173 222
f 654 945 380
f 351 971 348
f 230 241 171
f 188 247 187
f 159 1002 263
f 207 201 218
f 273 657 277
f 10 29 14
f 312 207 218
f 528 20 926
f 660 850 361
f 779 778 869
f 216 242 260
f 119 160 186
f 705 40 558
f 336 917 490
f 635 151 766
f 216 222 172
f 103 694 276
f 221 141 139
f 666 329 569
f 201 236 218
f 676 103 93
f 235 1002 275
f 242 216 172
f 215 242 172
f 200 215 145
f 205 122 114
f 178 174 309
f 173 164 222
f 114 171 205
f 942 572 402
f 126 53 125
f 177 775 785
f 126 79 53
f 182 180 1002
f 27 93 500
f 172 145 215
f 295 326 105
f 310 615 68
f 578 456 441
f 64 117 174
f 595 757 664
f 108 534 234
f 193 170 194
f 193 194 211
f 221 154 185
f 412 319 295
f 229 201 207
f 554 541 600
f 369 220 710
f 178 64 174
f 367 669 347
f 249 157 197
f 307 296 660
f 200 142 141
f 906 192 315
f 111 133 185
f 155 219 598
f 185 133 211
f 100 235 225
f 53 61 125
f 77 649 744
f 170 188 187
f 936 791 921
f 225 79 62
f 79 225 175
f 751 764 780
f 204 196 178
f 616 570 587
f 307 219 296
f 307 660 361
f 188 89 91
f 646 219 307
f 598 684 155
f 637 684 700
f 517 514 439
f 113 175 232
f 124 171 114
f 25 60 33
f 106 139 39
f 188 91 157
f 902 616 163
f 913 23 112
f 71 156 171
f 221 139 154
f 390 528 932
f 700 361 637
f 42 152 538
f 257 335 73
f 113 79 175
f 164 144 172
f 145 142 200
f 164 173 157
f 265 138 125
f 952 800 999
f 321 97 462
f 119 186 156
f 106 185 154
f 211 133 193
f 34 117 55
f 182 100 180
f 277 304 68
f 635 766 184
f 145 172 144
f 112 23 272
f 173 197 157
f 142 145 144
f 11 814 116
f 144 164 137
f 239 120 246
f 160 120 239
f 4 21 33
f 111 185 106
f 481 970 20
f 144 137 142
f 524 7 136
f 265 125 109
f 997 882 957
f 87 139 141
f 669 556 77
f 576 547 620
f 70 66 122
f 411 610 513
f 178 196 78
f 187 194 170
f 295 808 208
f 120 78 246
f 124 44 71
f 119 156 71
f 120 160 119
f 700 684 598
f 182 1002 102
f 100 225 81
f 122 99 114
f 62 81 225
f 219 646 598
f 166 126 138
f 232 109 113
f 900 129 956
f 721 208 808
f 157 137 164
f 142 87 141
f 171 124 71
f 860 128 726
f 787 907 330
f 292 73 412
f 1002 235 131
f 82 166 100
f 166 180 100
f 286 115 746
f 137 157 91
f 188 170 89
f 122 117 70
f 436 307 339
f 178 78 64
f 484 585 967
f 763 9 467
f 154 139 106
f 615 310 927
f 131 100 182
f 66 57 65
f 114 99 96
f 62 79 126
f 126 125 138
f 340 127 483
f 821 118 359
f 120 119 83
f 1002 131 102
f 87 74 39
f 107 142 137
f 142 107 87
f 59 170 193
f 193 133 59
f 858 720 985
f 182 102 84
f 130 52 140
f 648 638 315
f 62 126 82
f 124 114 75
f 388 992 530
f 99 122 66
f 78 196 246
f 97 417 462
f 59 89 170
f 698 857 604
f 63 133 111
f 54 22 37
f 58 42 423
f 848 788 181
f 981 951 824
f 59 133 63
f 646 92 598
f 44 124 75
f 131 84 102
f 96 75 114
f 421 609 529
f 388 530 826
f 277 8 273
f 137 91 107
f 120 83 48
f 61 88 109
f 280 246 196
f 113 109 88
f 495 901 776
f 148 417 97
f 604 420 32
f 542 603 199
f 603 542 259
f 125 61 109
f 195 169 202
f 79 113 88
f 117 64 55
f 390 116 814
f 139 87 39
f 677 574 326
f 106 63 111
f 927 220 369
f 91 74 107
f 83 119 71
f 644 189 257
f 533 502 465
f 62 82 56
f 99 66 54
f 339 307 361
f 54 96 99
f 38 64 78
f 60 78 48
f 53 79 88
f 51 71 44
f 646 307 436
f 38 78 60
f 89 36 91
f 77 744 453
f 338 408 264
f 83 71 51
f 65 54 66
f 100 56 82
f 88 61 53
f 858 938 560
f 585 870 967
f 36 74 91
f 265 109 232
f 842 603 259
f 55 64 65
f 45 44 75
f 96 37 75
f 44 30 51
f 59 47 89
f 59 63 47
f 81 62 56
f 496 763 905
f 116 511 121
f 37 45 75
f 84 131 182
f 808 284 189
f 54 65 24
f 87 107 74
f 700 339 361
f 57 70 34
f 45 30 44
f 482 695 363
f 14 29 37
f 47 36 89
f 57 34 65
f 65 38 24
f 33 48 31
f 38 65 64
f 24 22 54
f 49 984 995
f 45 37 29
f 51 31 83
f 295 208 292
f 340 377 594
f 950 377 765
f 47 63 39
f 110 352 544
f 26 39 74
f 46 272 23
f 25 24 38
f 875 511 583
f 36 26 74
f 19 14 37
f 432 499 639
f 23 273 46
f 26 36 47
f 39 26 47
f 92 646 436
f 4 30 45
f 25 14 19
f 273 8 46
f 134 450 492
f 163 176 904
f 654 677 945
f 12 24 25
f 2 45 29
f 45 2 4
f 18 22 24
f 30 4 15
f 16 51 30
f 425 438 389
f 25 19 12
f 876 575 809
f 16 31 51
f 598 92 700
f 6 4 31
f 15 16 30
f 14 25 21
f 848 656 905
f 19 37 22
f 81 56 100
f 2 29 10
f 18 24 12
f 122 205 174
f 700 92 339
f 775 177 76
f 1 21 4
f 152 42 58
f 380 326 295
f 18 12 19
f 326 380 945
f 92 436 339
f 21 10 14
f 21 1 10
f 15 6 16
f 2 10 1
